<svg xmlns="http://www.w3.org/2000/svg" viewBox="0 0 60 95"><path d="M9 95l2-2c.6-.6 1.5-.6 2.1 0l2 2 2-2c.6-.6 1.5-.6 2.1 0l2 2 2-2c.6-.6 1.5-.6 2.1 0l2 2 2-2c.6-.6 1.5-.6 2.1 0l2 2 2-2c.6-.6 1.5-.6 2.1 0l2 2 2-2c.6-.6 1.5-.6 2.1 0l2 2 2-2c.6-.6 1.5-.6 2.1 0l2 2 2-2c.6-.6 1.5-.6 2.1 0l2 2 3-3V1.6H0V92l3 3 2-2c.6-.6 1.5-.6 2.1 0L9 95z" opacity=".5" fill="#25da65"/><linearGradient id="a" gradientUnits="userSpaceOnUse" x1="30.4" y1="-1069.9" x2="30.4" y2="-976.5" gradientTransform="matrix(1 0 0 -1 0 -976)"><stop offset="0" stop-color="#8cd65f"/><stop offset="1" stop-color="#b5eb87"/></linearGradient><path d="M9 93.9l2-2c.6-.6 1.5-.6 2.1 0l2 2 2-2c.6-.6 1.5-.6 2.1 0l2 2 2-2c.6-.6 1.5-.6 2.1 0l2 2 2-2c.6-.6 1.5-.6 2.1 0l2 2 2-2c.6-.6 1.5-.6 2.1 0l2 2 2-2c.6-.6 1.5-.6 2.1 0l2 2 2-2c.6-.6 1.5-.6 2.1 0l2 2 2-2c.6-.6 1.5-.6 2.1 0l2 2 3-3V.5H0v90.3l3 3 2-2c.6-.6 1.5-.6 2.1 0L9 93.9z" fill="url(#a)"/><path d="M14.7 47.7c-.5-.6-1.1-.9-1.9-.9-.3 0-.6.1-.9.2-.3.1-.5.3-.7.5s-.4.5-.5.7c-.1.3-.2.6-.2.9 0 .3.1.7.2.9.1.3.3.5.5.7s.5.4.7.5c.3.1.6.2.9.2.7 0 1.3-.3 1.9-.9v2.6l-.2.1c-.3.1-.7.2-.9.3-.3.1-.6.1-.9.1-.6 0-1.1-.1-1.7-.3-.5-.2-1-.5-1.4-.9s-.7-.9-1-1.4c-.3-.6-.4-1.2-.4-1.8s.1-1.3.4-1.8c.2-.5.6-1 1-1.4s.9-.7 1.4-.9 1.1-.3 1.7-.3c.3 0 .7 0 1 .1s.7.2 1 .3v2.5zm.5 1.4c0-.6.1-1.2.4-1.8.2-.5.6-1 1-1.4s.9-.7 1.5-1c.6-.2 1.2-.3 1.9-.3s1.3.1 1.9.3 1.1.5 1.5 1c.4.4.7.9 1 1.4.2.5.4 1.1.4 1.8 0 .6-.1 1.2-.4 1.8-.2.5-.6 1-1 1.4s-.9.7-1.5 1c-.6.2-1.2.3-1.9.3s-1.3-.1-1.9-.3-1.1-.5-1.5-1c-.4-.4-.7-.9-1-1.4-.3-.6-.4-1.2-.4-1.8zm2.3 0c0 .3.1.7.2.9.1.3.3.5.5.7s.5.4.8.5.6.2.9.2.6-.1.9-.2c.3-.1.5-.3.8-.5.2-.2.4-.5.5-.7s.2-.6.2-.9c0-.3-.1-.7-.2-.9-.1-.3-.3-.5-.5-.7s-.5-.4-.8-.5-.6-.2-.9-.2-.6.1-.9.2-.5.3-.8.5c-.2.2-.4.5-.5.7-.2.2-.2.5-.2.9zm7.5 0c0-.6.1-1.2.4-1.8.2-.5.6-1 1-1.4s.9-.7 1.5-1c.6-.2 1.2-.3 1.9-.3s1.3.1 1.9.3 1.1.5 1.5 1c.4.4.7.9 1 1.4s.4 1.1.4 1.8c0 .6-.1 1.2-.4 1.8-.2.5-.6 1-1 1.4s-.9.7-1.5 1c-.6.2-1.2.3-1.9.3s-1.3-.1-1.9-.3-1.1-.5-1.5-1c-.4-.4-.7-.9-1-1.4-.3-.6-.4-1.2-.4-1.8zm2.3 0c0 .3.1.7.2.9.1.3.3.5.5.7s.5.4.8.5.6.2.9.2.6-.1.9-.2c.3-.1.5-.3.8-.5.2-.2.4-.5.5-.7.1-.3.2-.6.2-.9 0-.3-.1-.7-.2-.9-.1-.3-.3-.5-.5-.7s-.5-.4-.8-.5-.6-.2-.9-.2-.6.1-.9.2c-.3.1-.5.3-.8.5-.2.2-.4.5-.5.7-.1.2-.2.5-.2.9zm9.9-.8l2.7-3.5h2.7l-3.4 4 3.7 4.5H40l-2.9-3.7v3.7H35v-8.5h2.2v3.5zm8.6-3.5v8.5h-2.2v-8.5h2.2zm5.8 1.9H49v1.4h2.5V50H49v1.5h2.6v1.9h-4.8v-8.5h4.8v1.8zM17.4 59.5h-4.8v2.6H17v3.4h-4.4v6h-4V56.1h8.8v3.4zm14.5 12h-5l-3.8-5.9v5.9h-4V56.1h6.2c.9 0 1.6.1 2.2.4.6.3 1.2.6 1.6 1s.7.9.9 1.5c.2.6.3 1.2.3 1.8 0 1.2-.3 2.1-.9 2.8-.6.7-1.4 1.2-2.5 1.5l5 6.4zM23.1 63h.8c.8 0 1.4-.2 1.8-.5s.6-.8.6-1.4-.2-1.1-.6-1.4c-.4-.3-1-.5-1.8-.5h-.8V63zm18.5-3.5h-4.8v2.6h4.5v3.4h-4.5v2.7h4.8v3.4h-8.8V56.1h8.8v3.4zm10.2 0H47v2.6h4.5v3.4H47v2.7h4.8v3.4H43V56.1h8.8v3.4z" opacity=".5" fill="#25da65"/><path d="M14.7 46.6c-.5-.6-1.1-.9-1.9-.9-.3 0-.6.1-.9.2-.3.1-.5.3-.7.5s-.4.5-.5.7c-.1.3-.2.6-.2.9 0 .3.1.7.2.9.1.3.3.5.5.7s.5.4.7.5c.3.1.6.2.9.2.7 0 1.3-.3 1.9-.9V52l-.2.1c-.3.1-.7.2-.9.3-.3.1-.6.1-.9.1-.6 0-1.1-.1-1.7-.3-.5-.2-1-.5-1.4-.9s-.7-.9-1-1.4c-.3-.6-.4-1.2-.4-1.8s.1-1.3.4-1.8.6-1 1-1.4.9-.7 1.4-.9 1.1-.3 1.7-.3c.3 0 .7 0 1 .1s.7.2 1 .3v2.5zm.5 1.4c0-.6.1-1.2.4-1.8.2-.5.6-1 1-1.4s.9-.7 1.5-1c.6-.2 1.2-.3 1.9-.3s1.3.1 1.9.3 1.1.5 1.5 1c.4.4.7.9 1 1.4.2.5.4 1.1.4 1.8s-.1 1.2-.4 1.8c-.2.5-.6 1-1 1.4s-.9.7-1.5 1c-.6.2-1.2.3-1.9.3s-1.3-.1-1.9-.3-1.1-.5-1.5-1c-.4-.4-.7-.9-1-1.4-.3-.6-.4-1.2-.4-1.8zm2.3 0c0 .3.1.7.2.9.1.3.3.5.5.7s.5.4.8.5.6.2.9.2.6-.1.9-.2c.3-.1.5-.3.8-.5.2-.2.4-.5.5-.7.1-.3.2-.6.2-.9 0-.3-.1-.7-.2-.9-.1-.3-.3-.5-.5-.7s-.5-.4-.8-.5-.6-.2-.9-.2-.6.1-.9.2c-.3.1-.5.3-.8.5-.2.2-.4.5-.5.7-.2.2-.2.5-.2.9zm7.5 0c0-.6.1-1.2.4-1.8.2-.5.6-1 1-1.4s.9-.7 1.5-1c.6-.2 1.2-.3 1.9-.3s1.3.1 1.9.3 1.1.5 1.5 1c.4.4.7.9 1 1.4.2.5.4 1.1.4 1.8s-.1 1.2-.4 1.8c-.2.5-.6 1-1 1.4s-.9.7-1.5 1c-.6.2-1.2.3-1.9.3s-1.3-.1-1.9-.3-1.1-.5-1.5-1c-.4-.4-.7-.9-1-1.4-.3-.6-.4-1.2-.4-1.8zm2.3 0c0 .3.1.7.2.9.1.3.3.5.5.7s.5.4.8.5.6.2.9.2.6-.1.9-.2c.3-.1.5-.3.8-.5.2-.2.4-.5.5-.7.1-.3.2-.6.2-.9 0-.3-.1-.7-.2-.9s-.3-.5-.5-.7-.5-.4-.8-.5-.6-.2-.9-.2-.6.1-.9.2c-.3.1-.5.3-.8.5s-.4.5-.5.7-.2.5-.2.9zm9.9-.8l2.7-3.5h2.7l-3.4 4 3.7 4.5H40l-2.9-3.7v3.7H35v-8.5h2.2v3.5zm8.6-3.5v8.5h-2.2v-8.5h2.2zm5.8 1.9H49V47h2.5v1.9H49v1.5h2.6v1.9h-4.8v-8.5h4.8v1.8zM17.4 58.4h-4.8V61H17v3.4h-4.4v6h-4V55h8.8v3.4zm14.5 12h-5l-3.8-5.9v5.9h-4V55h6.2c.9 0 1.6.1 2.2.4.6.3 1.2.6 1.6 1s.7.9.9 1.5c.2.6.3 1.2.3 1.8 0 1.2-.3 2.1-.9 2.8S28 63.7 26.9 64l5 6.4zm-8.8-8.5h.8c.8 0 1.4-.2 1.8-.5s.6-.8.6-1.4c0-.6-.2-1.1-.6-1.4-.4-.3-1-.5-1.8-.5h-.8v3.8zm18.5-3.5h-4.8V61h4.5v3.4h-4.5V67h4.8v3.4h-8.8V55h8.8v3.4zm10.2 0H47V61h4.5v3.4H47V67h4.8v3.4H43V55h8.8v3.4z" fill="#fff"/><path d="M20.2 35.2c.5.6.6 1.4 1 2.1.3.7 1 1.4 1.7 1.3.4-.1.7-.3 1.1-.3.5 0 .9.4 1.2.6.9.6 1.9 1 3 1 .5 0 .9-.1 1.3-.3.2-.1.4-.3.6-.4.4-.2.9-.3 1.4-.3 1.1.1 2.1.4 3.1.5 1 .2 2.2.1 3-.5l.3-.3c.1-.2.1-.4.1-.6.2-.8 1.3-.9 2.1-1.4 1.4-.8 1.4-2.9 2.7-3.8.4-.3 1-.5 1.2-1s-.3-1-.5-1.6c-.3-.9.2-1.9.8-2.7.6-.8 1.2-1.6 1.1-2.6-.1-1-.9-1.8-1.2-2.8s-.1-2.1-.6-3c-.4-.7-1.2-1.3-1.4-2.1-.2-.6-.1-1.5-.6-1.7-.2-.1-.4-.1-.6-.1-.7.1-1.3.1-2 .1-.2-.4-.5-.8-.7-1.2s-.5-.9-1-1c-.6-.1-1.1.3-1.5.6-.6-.1-.6-1.1-1.2-1.4-.6-.3-1.2.4-1.9.4-1 .1-1.8-1.2-2.8-1.2-.6 0-1.1.5-1.6.6-.7.2-1.4-.2-2-.5s-1.5-.4-2 0c-.8.6-.5 2.1-1.3 2.7s-2.2-.1-2.9.7c-.4.4-.4 1-.8 1.4-.2.2-.6.3-.9.3-.8.2-1.6.4-2.1.9-.6.5-.8 1.5-.4 2.1.2.3.5.6.5.9 0 .2-.1.4-.3.6-.6 1-1.2 2.1-1 3.2.1.5.3 1.1.3 1.6 0 .7-.5 1.4-.7 2.1-.3.9 0 2 .6 2.7s1.5 1.2 1.7 2c.1.5-.1 1 .2 1.5.3.8 1.4.9 2.3.8l.7.1z" fill="#25da65" opacity=".5"/><path d="M20 33.1c.5.6.6 1.4 1 2.1.3.7 1 1.4 1.7 1.3.4-.1.7-.3 1.1-.3.5 0 .9.4 1.2.6.9.6 1.9 1 3 1 .5 0 .9-.1 1.3-.3.2-.1.4-.3.6-.4.4-.2.9-.3 1.4-.3 1.1.1 2.1.4 3.1.5 1 .2 2.2.1 3-.5l.3-.3c.1-.2.1-.4.1-.6.2-.8 1.3-.9 2.1-1.4 1.4-.8 1.4-2.9 2.7-3.8.4-.3 1-.5 1.2-1s-.3-1-.5-1.6c-.3-.9.2-1.9.8-2.7.6-.8 1.2-1.6 1.1-2.6-.1-1-.9-1.8-1.2-2.8s-.1-2.1-.6-3c-.4-.7-1.2-1.3-1.4-2.1-.2-.6-.1-1.5-.6-1.7-.2-.1-.4-.1-.6-.1-.7.1-1.3.1-2 .1-.2-.4-.5-.8-.7-1.2s-.5-.9-1-1c-.6-.1-1.1.3-1.5.6-.6-.1-.6-1.1-1.2-1.4-.6-.3-1.2.4-1.9.4-1 .1-1.8-1.2-2.8-1.2-.6 0-1.1.5-1.6.6-.7.2-1.4-.2-2-.5s-1.5-.4-2 0c-.8.6-.5 2.1-1.3 2.7-.7.8-2.1.1-2.8.8-.4.4-.4 1-.8 1.4-.2.2-.6.3-.9.3-.8.2-1.6.4-2.1.9-.6.5-.8 1.5-.4 2.1.2.3.5.6.5.9 0 .2-.1.4-.3.6-.6 1-1.2 2.1-1 3.2.1.5.3 1.1.3 1.6 0 .7-.5 1.4-.7 2.1-.3.9 0 2 .6 2.7s1.5 1.2 1.7 2c.1.5-.1 1 .2 1.5.3.8 1.4.9 2.3.8h.6z" fill="#eac87a"/><path d="M22.9 19.2c-.1-.2-.4-.3-.7-.3-.3.1-.5.3-.6.5 0 .1-.1.1-.1.2s.1.2.3.2c.3 0 .7 0 .9.2l.3.3c.2.1.4.1.6-.1s.2-.4.3-.6l-1-.4zm14.9 3.5c-.1-.2-.4-.3-.7-.3-.3.1-.5.3-.6.5 0 .1-.1.1-.1.2s.1.2.3.2c.3 0 .7 0 .9.2l.3.3c.2.1.4.1.6-.1.2-.1.2-.4.3-.6l-1-.4zm-1.5 6.8c-.1-.2-.4-.3-.7-.3-.3.1-.5.3-.6.5 0 .1-.1.1-.1.2s.1.2.3.2c.3 0 .7 0 .9.2l.3.3c.2.1.4.1.6-.1.2-.1.2-.4.3-.6l-1-.4zM18.2 16.6c-.1-.2-.4-.3-.7-.3-.3.1-.5.3-.6.5 0 .1-.1.1-.1.2s.1.2.3.2c.3 0 .7 0 .9.2l.3.3c.2.1.4.1.6-.1s.1-.4.1-.6l-.8-.4zM17.3 28c-.1-.2-.4-.3-.7-.3s-.5.3-.6.5c0 .1-.1.1-.1.2s.1.2.3.2c.3 0 .7 0 .9.2l.3.3c.2.1.4.1.6-.1s.2-.4.3-.6l-1-.4zm15.6 1.3c-.1-.2-.4-.3-.7-.3-.3.1-.5.3-.6.5 0 .1-.1.1-.1.2s.1.2.3.2c.3 0 .7 0 .9.2l.3.3c.2.1.4.1.6-.1.2-.1.2-.4.3-.6l-1-.4zm4.5-14c-.1-.2-.4-.3-.7-.3-.3.1-.5.3-.6.5 0 .1-.1.1-.1.2s.1.2.3.2c.3 0 .7 0 .9.2l.3.3c.2.1.4.1.6-.1.2-.1.2-.4.3-.6l-1-.4z" fill="#cb9037"/><path d="M44 20c-.3-1-.1-2.1-.6-3-.4-.7-1.2-1.3-1.4-2.1-.2-.6-.1-1.5-.6-1.7-.2-.1-.4-.1-.6-.1-.6.1-1.3.1-1.9.1 0 .4.5.5.9.5s.9 0 1 .4c0 .2-.1.3 0 .5 0 .2.2.3.4.5.3.3.3.9.3 1.3s-.1 1 .1 1.4c.2.4.8.7 1.1.5.3.3.2.8-.1 1-.2-.4-.6-.6-1-.5s-.6.6-.4.9c.2.2.5.3.7.4.3.3.2.7.3 1.1s.5.8.8.6c.4.4.3 1.1-.1 1.6-.3.5-.7 1-.5 1.6.1.2.2.4.2.7 0 .4-.5.7-.8.5s-.4-.6-.6-.9c-.2-.3-.8-.4-.9-.1v.3c0 .4-.6.5-1 .5-.4.1-.9.5-.6.8.6-.2 1.2-.2 1.7-.1.7.2 1.5.8 1.3 1.5-.1.3-.3.6-.4.9-.2.4-.1.9-.2 1.3-.2.4-.8.7-1 .3-.1-.3-.3-.7-.6-.6s-.3.6-.1.9c.1.3.1.8-.2.9-.2-.2-.6.1-.8.4-.1.3-.3.7-.6.8-.5.1-.7-.5-.8-.9-.1-.5-.4-1.1-.8-.9.2.7-.8 1.4-1.4.9-.3-.1-.5.4-.4.7s.4.5.5.8c.2.5-.2 1.2-.8 1.2-.6.1-1.1-.5-1-1.1 0 .5-.7.7-1.2.6-.5-.1-1.1-.2-1.5.1-.2.2-.4.5-.7.5-.2 0-.4-.1-.7-.1-.4-.1-.7.1-1.1 0-.4 0-.8-.3-.7-.6.3-.1.5-.4.5-.8-1 .3-2 .5-3 .5-.2 0-.4 0-.6-.1-.3-.2-.4-.6-.7-.8-.3-.3-.9-.1-.7.3l-.6-.6c-.6.5-1.7-.1-1.7-.9 0-.3.1-.6-.2-.8-.4-.2-.7.6-1.2.5-.3 0-.4-.4-.6-.6-.1-.3-.6-.5-.7-.2.1-.5-.5-.9-1-.8-.1 0-.2.1-.3.2.2.2.3.4.3.7.1.5-.1 1 .2 1.5.3.8 1.4.9 2.3.8l.7-.2c.5.6.6 1.4 1 2.1.3.7 1 1.4 1.7 1.3.4-.1.7-.3 1.1-.3.5 0 .9.4 1.2.6.9.6 1.9 1 3 1 .5 0 .9-.1 1.3-.3.2-.1.4-.3.6-.4.4-.2.9-.3 1.4-.3 1.1.1 2.1.4 3.1.5 1 .2 2.2.1 3-.5l.3-.3c.1-.2.1-.4.1-.6.2-.8 1.3-.9 2.1-1.4 1.4-.8 1.4-2.9 2.7-3.8.4-.3 1-.5 1.2-1s-.3-1-.5-1.6c-.3-.9.2-1.9.8-2.7.6-.8 1.2-1.6 1.1-2.6.1-1-.8-1.8-1.1-2.7z" fill="#cb9037"/><path d="M19.9 33.2c.6.7.6 1.6 1.1 2.4.4.7 1.1 1.2 2 .9.2-.1.4-.2.6-.2s.4 0 .6.1c.4.2.7.5 1.1.8.8.5 1.7.7 2.6.7.5 0 .9-.1 1.3-.3.2-.1.4-.3.6-.4l.6-.3c.5-.1 1-.1 1.5 0l1.5.3c.9.2 1.8.3 2.8.2.4-.1.8-.2 1.2-.5.2-.1.4-.2.4-.4.2-.2.2-.5.2-.7.1-.7 1-.9 1.5-1.1.3-.1.6-.3.9-.5.3-.2.5-.5.6-.8.4-.6.6-1.3 1-1.8.2-.3.4-.6.6-.8l.9-.6c.3-.2.5-.5.5-.9s-.3-.8-.4-1.1c-.4-.9 0-1.8.5-2.6.5-.7 1.1-1.5 1.3-2.4.1-.9-.3-1.6-.7-2.3-.2-.4-.4-.7-.6-1.1-.1-.5-.2-.9-.2-1.4-.1-.5-.1-.9-.3-1.3s-.4-.7-.7-1c-.3-.3-.5-.6-.7-1-.1-.3-.2-.7-.2-1.1-.1-.3-.1-.7-.4-.9-.4-.3-.9-.2-1.3-.2-.5 0-1 .1-1.6.1l.1.1c-.2-.4-.5-.8-.7-1.2-.2-.3-.4-.6-.7-.8-.7-.5-1.5 0-2 .5h.2c-.3-.1-.4-.4-.5-.6-.1-.3-.3-.5-.5-.7-.7-.5-1.4.3-2 .3-.7.1-1.2-.5-1.7-.8-.3-.2-.6-.3-.9-.4-.4-.1-.7.1-1.1.3s-.8.4-1.2.4c-.5 0-1-.3-1.4-.5-.7-.3-1.6-.6-2.3 0-.5.4-.6 1.2-.8 1.8-.1.3-.2.6-.4.8-.3.2-.6.3-.9.3-.7 0-1.4-.1-2 .4-.3.3-.4.6-.5 1-.1.2-.2.4-.3.5-.2.1-.4.2-.6.2-.8.2-1.7.4-2.3 1-.6.5-.9 1.3-.7 2 .1.2.1.4.3.5.1.2.3.3.3.5.1.2 0 .4-.1.6s-.3.4-.4.6c-.5.8-.9 1.7-.8 2.6 0 .5.2.9.3 1.4s0 .9-.2 1.3-.4.8-.5 1.2c-.1.4-.1.8-.1 1.2.1.4.2.8.4 1.2.2.3.5.6.8.9s.6.5.8.8c.3.3.4.7.4 1.1s0 .9.2 1.2.5.5.8.6.7.2 1 .2.5 0 .8-.1c.2-.1.4-.1.4-.2.3-.1.2-.4 0-.3-.2.1-.4.1-.6.2-.3.1-.6.1-.9 0-.4 0-.7-.1-1-.3-.4-.3-.4-.7-.4-1.1s0-.9-.2-1.3-.5-.6-.8-.9-.6-.5-.9-.9c-.3-.4-.5-.8-.5-1.2-.1-.4-.1-.9.1-1.3.1-.5.4-.9.5-1.3.2-.5.2-.9.1-1.4-.1-.5-.3-1-.3-1.5 0-1 .6-1.9 1.1-2.7.1-.2.2-.4.2-.6s-.1-.4-.2-.6-.3-.3-.3-.5c-.1-.2-.1-.4-.1-.6 0-.9.7-1.5 1.5-1.9.4-.2.9-.3 1.3-.4.4-.1.8-.3 1-.6s.3-.8.5-1.1c.3-.3.6-.3 1-.3.7 0 1.5.1 2.1-.5.5-.5.5-1.3.7-1.9.1-.3.3-.6.7-.8.4-.2.9-.1 1.3.1.5.2.9.4 1.4.5s.9.1 1.4-.1c.4-.2.8-.4 1.2-.5.4-.1.7.1 1 .3.6.4 1.1.9 1.8.9.4 0 .8-.2 1.1-.4.3-.1.7-.2 1 .1.2.2.3.6.5.8.1.2.5.6.7.4.4-.3.7-.6 1.2-.6.4 0 .7.4.9.7.3.4.5.9.8 1.4l.1.1c.5 0 1-.1 1.6-.1.4 0 .9-.2 1.2.2.2.3.2.6.2.9.1.4.1.7.3 1 .4.7 1.1 1.2 1.3 2 .3.9.1 1.8.5 2.6.3.8.9 1.4 1.1 2.2.3.9-.1 1.7-.6 2.4s-1.1 1.5-1.3 2.4c-.1.4 0 .8.1 1.2.2.4.5.7.5 1.1s-.3.6-.6.8c-.3.2-.6.4-.8.6-.5.5-.8 1.1-1 1.7-.3.6-.6 1.2-1.1 1.6-.5.4-1.2.5-1.8.8-.3.2-.5.4-.6.7-.1.2 0 .4-.1.6-.1.2-.3.4-.4.5-.7.5-1.7.5-2.5.4-1-.1-1.9-.4-2.9-.5-.5-.1-.9-.1-1.4 0-.2.1-.4.1-.6.3-.2.1-.4.3-.6.4-.4.2-.9.3-1.3.3-.5 0-.9-.1-1.3-.2s-.8-.3-1.2-.5c-.4-.2-.7-.5-1.1-.7s-.8-.1-1.2 0c-.2.1-.4.2-.6.1-.2 0-.4-.1-.5-.2-.8-.4-1-1.3-1.3-2.1-.2-.4-.3-.8-.6-1.1-.3.3-.5.5-.4.7z"/><path d="M28.7 18.4c-.2-.4-.3-.7-.5-1.1-.1-.2-.2-.5 0-.6s.4-.1.6.1c.2.1.3.3.5.4 0 0 .1.1.1 0 .1 0 .1 0 .1-.1.2-.2.3-.4.4-.6.2-.2.5-.3.6-.1l.2.2c.2.2.5.1.8 0 .2-.1.5-.2.6 0 .1.2 0 .4-.2.5s-.4 0-.6-.1c-.1 0-.3-.1-.5 0s-.4.3-.6.2H30c-.3 0-.3.5-.6.6-.1 0-.2.1-.2.1-.1.1 0 .3 0 .4.1.1.1.3 0 .4s-.3 0-.4 0l-.1-.3zm.4 10.5c-.2-.4-.3-.7-.5-1.1-.1-.2-.2-.5 0-.6s.4-.1.6.1c.2.1.3.3.5.4 0 0 .1.1.1 0 .1 0 .1 0 .1-.1.2-.2.3-.4.4-.6.2-.2.5-.3.6-.1l.2.2c.2.2.5.1.8 0 .2-.1.5-.2.6 0s0 .4-.2.5-.4 0-.6-.1-.4-.1-.6-.1c-.2.1-.4.3-.6.2h-.2c-.3 0-.3.5-.6.6-.1 0-.2.1-.2.1-.1.1 0 .3 0 .4.1.1.1.3 0 .4s-.3 0-.4 0v-.2zm-8.2-4.6c-.2-.4-.3-.7-.5-1.1-.1-.2-.2-.5 0-.6s.4-.1.6.1c.2.1.3.3.5.4 0 0 .1.1.1 0 .1 0 .1 0 .1-.1.2-.2.3-.4.4-.6.2-.2.5-.3.6-.1l.2.2c.2.2.5.1.8 0 .2-.1.5-.2.6 0s0 .4-.2.5-.4 0-.6-.1-.4-.1-.6-.1c-.2.1-.4.3-.6.2h-.2c-.3 0-.3.5-.6.6-.1 0-.2.1-.2.1-.1.1 0 .3 0 .4.1.1.1.3 0 .4s-.3 0-.4 0v-.2zm5-11.6c-.2-.4-.3-.7-.5-1.1-.1-.2-.2-.5 0-.6s.4-.1.6.1c.2.1.3.3.5.4 0 0 .1.1.1 0 .1 0 .1 0 .1-.1.2-.2.3-.4.4-.6.2-.2.5-.3.6-.1l.2.2c.2.2.5.1.8 0 .2-.1.5-.2.6 0s0 .4-.2.5-.4 0-.6-.1-.4-.1-.6-.1c-.2.1-.4.3-.6.2h-.2c-.3 0-.3.5-.6.6-.1 0-.2.1-.2.1-.1.1 0 .3 0 .4.1.1.1.3 0 .4-.1.1-.3 0-.4 0v-.2zm6.5 2.3c-.2-.4-.3-.7-.5-1.1-.1-.2-.2-.5 0-.6s.4-.1.6.1c.2.1.3.3.5.4 0 0 .1.1.1 0 .1 0 .1 0 .1-.1.2-.2.3-.4.4-.6s.5-.3.6-.1l.2.2c.2.2.5.1.8 0 .2-.1.5-.2.6 0s0 .4-.2.5-.4 0-.6-.1c-.2-.1-.4-.1-.6-.1-.2.1-.4.3-.6.2h-.2c-.3 0-.3.5-.6.6-.1 0-.2.1-.2.1-.1.1 0 .3 0 .4.1.1.1.3 0 .4-.1.1-.3 0-.4 0V15zM25 25.6c-.3.2-.4.5-.3.8.3-.1.7-.1 1-.4.2-.2.3-.4.6-.5.2-.1.4 0 .6.1s.4.2.5.2c.2 0 .4-.1.4-.3 0-.1-.1-.3-.2-.3-.3-.2-.7-.3-1.1-.2s-.7.3-.9.7l-.1-.1H25zm-5.8 1.7c.2-.1.3-.3.5-.4l.1-.1c.2 0 .2.2.3.3.1.1.3.2.5.1h.1v.1c0 .2-.1.4-.2.5s-.4.1-.5 0-.2-.3-.4-.3c-.1 0-.2.1-.3.1-.1 0-.2-.2-.3-.3h.2zm6.6 2.4c.2-.1.3-.3.5-.4l.1-.1c.2 0 .2.2.3.3.1.1.3.2.5.1h.1v.1c0 .2-.1.4-.2.5-.2.1-.4.1-.5 0s-.2-.3-.4-.3c-.1 0-.2.1-.3.1-.1 0-.2-.2-.3-.3h.2zm11.6-1.5c.2-.1.3-.3.5-.4l.1-.1c.2 0 .2.2.3.3.1.1.3.2.5.1h.1v.1c0 .2-.1.4-.2.5s-.4.1-.5 0-.2-.3-.4-.3c-.1 0-.2.1-.3.1s-.2-.2-.3-.3h.2zm.4-8c.2-.1.3-.3.5-.4l.1-.1c.2 0 .2.2.3.3.1.1.3.2.5.1h.1v.1c0 .2-.1.4-.2.5-.2.1-.4.1-.5 0s-.2-.3-.4-.3c-.1 0-.2.1-.3.1s-.2-.2-.3-.3h.2zm-15-5.4c.2-.1.3-.3.5-.4l.1-.1c.2 0 .2.2.3.3.1.1.3.2.5.1h.1v.1c0 .2-.1.4-.2.5-.2.1-.4.1-.5 0s-.2-.3-.4-.3c-.1 0-.2.1-.3.1-.1 0-.2-.2-.3-.3h.2zm5.9-.8c.2-.1.3-.3.5-.4l.1-.1c.2 0 .2.2.3.3.1.1.3.2.5.1h.1v.1c0 .2-.1.4-.2.5-.2.1-.4.1-.5 0s-.2-.3-.4-.3c-.1 0-.2.1-.3.1-.1 0-.2-.2-.3-.3h.2zm-11.5 9.8c.2-.1.3-.3.5-.4l.1-.1c.2 0 .2.2.3.3.1.1.3.2.5.1h.1v.1c0 .2-.1.4-.2.5-.2.1-.4.1-.5 0s-.2-.3-.4-.3c-.1 0-.2.1-.3.1-.1 0-.2-.2-.3-.3h.2zm15.1-1.1c-.2 0-.2.2-.2.4s.1.4 0 .5c-.1.1-.2.2-.3.2-.1.1-.3.2-.3.3 0 .1 0 .3.1.4s.2 0 .3 0c.4-.2.6-.8 1.1-.9.2-.1.4 0 .7.1.5.1.9 0 1.4 0 .3 0 .6-.1.7-.4 0-.2-.2-.4-.4-.5s-.4 0-.7 0c-.2 0-.5 0-.6-.1s-.2-.2-.3-.2h-.2c-.2.1-.3.1-.5.2h-.8z" fill="#cb9037"/><path d="M36.6 19.3c-.3.3-.5.6-.7.9s-.6.6-1 .6c-.3 0-.5-.1-.8-.3-.3-.2-.7-.4-.9-.7-.2-.3-.2-.6-.1-.9 0-.4.1-.8.5-1 .4-.3 1-.1 1.4.3.2.2.3.4.5.5.2.2.4.3.7.2l.4.4zm-13.7 9.8c.2.3.5.6.8.8.3.3.5.7.4 1 0 .3-.2.5-.4.7-.2.3-.5.6-.8.7s-.6.1-.9 0c-.4-.1-.8-.3-.9-.6-.2-.5.1-1 .5-1.3.2-.2.4-.3.6-.4.2-.2.3-.4.3-.6l.4-.3zm15.4 1.7c-.3.3-.5.6-.7.9s-.6.6-1 .6c-.3 0-.5-.1-.8-.3s-.7-.4-.9-.7c-.2-.3-.2-.6-.1-.9 0-.4.1-.8.5-1 .4-.3 1-.1 1.4.3.2.2.3.4.5.5.2.2.4.3.7.2l.4.4zM25.2 14.5c-.5.2-.8.8-.9 1.4 0 .4.1.8.3 1 .3.3.7.4 1 .2.4-.2.5-.8.6-1.3 0-.3 0-.5.1-.8 0-.2 0-.4-.1-.5s-.3-.2-.4-.1l-.6.1zm-6.1 6.8c-.4-.1-.9.1-1.1.5s-.2.8 0 1.2.6.6 1 .7h.3c.1 0 .2-.1.2-.2.4-.5.6-1 .8-1.6v-.2c0-.1-.1-.1-.2-.2-.2-.1-.3-.2-.5-.3l-.5.1zm9.8-.9c-.4-.1-.9.1-1.1.5s-.2.8 0 1.2c.2.4.6.6 1 .7h.3c.1 0 .2-.1.2-.2.4-.5.6-1 .8-1.6v-.2c0-.1-.1-.1-.2-.2-.2-.1-.3-.2-.5-.3l-.5.1zm0 10.1c-.4-.1-.9.1-1.1.5s-.2.8 0 1.2.6.6 1 .7h.3c.1 0 .2-.1.2-.2.4-.5.6-1 .8-1.6v-.2c0-.1-.1-.1-.2-.2-.2-.1-.3-.2-.5-.3l-.5.1zm11.2-8.9c-.4-.1-.9.1-1.1.5-.2.4-.2.8 0 1.2s.6.6 1 .7h.3c.1 0 .2-.1.2-.2.4-.5.6-1 .8-1.6V22c0-.1-.1-.1-.2-.2-.2-.1-.3-.2-.5-.3l-.5.1zM31.5 12c-.4-.1-.9.1-1.1.5s-.2.8 0 1.2.6.6 1 .7h.3c.1 0 .2-.1.2-.2.4-.5.6-1 .8-1.6v-.2c0-.1-.1-.1-.2-.2-.2-.1-.3-.2-.5-.3l-.5.1z" fill="#0e0000"/><ellipse cx="22.8" cy="30.8" rx=".9" ry=".7" fill="#442403"/><ellipse cx="36.1" cy="30.4" rx=".9" ry=".7" fill="#442403"/><ellipse cx="34.3" cy="18.9" rx=".9" ry=".7" fill="#442403"/><ellipse cx="28.8" cy="31.3" rx=".7" ry=".3" fill="#442403"/><ellipse cx="28.8" cy="21" rx=".7" ry=".3" fill="#442403"/><ellipse cx="40" cy="22.2" rx=".7" ry=".3" fill="#442403"/><ellipse cx="19.1" cy="21.8" rx=".7" ry=".3" fill="#442403"/><ellipse cx="25.5" cy="15.1" rx=".7" ry=".3" fill="#442403"/><ellipse cx="31.4" cy="12.5" rx=".7" ry=".3" fill="#442403"/></svg>