<svg xmlns="http://www.w3.org/2000/svg" viewBox="0 0 40 40"><path d="M20 .5c-11 0-20 9-20 20 0 8.8 5.7 16.3 13.7 19 1 .2 1.3-.4 1.3-1v-3.7c-5.6 1.2-6.7-2.4-6.7-2.4-.9-2.3-2.2-2.9-2.2-2.9-1.8-1.2.1-1.2.1-1.2 2 .1 3.1 2.1 3.1 2.1 1.8 3.1 4.7 2.2 5.8 1.7.2-1.3.7-2.2 1.3-2.7-4.4-.5-9.1-2.2-9.1-9.9 0-2.2.8-4 2.1-5.4-.2-.5-.9-2.5.2-5.3 0 0 1.7-.5 5.5 2 1.6-.4 3.3-.7 5-.7 1.7 0 3.4.2 5 .7 3.8-2.6 5.5-2 5.5-2 1.1 2.8.4 4.8.2 5.3 1.3 1.4 2.1 3.2 2.1 5.4 0 7.7-4.7 9.4-9.1 9.9.7.6 1.4 1.8 1.4 3.7v5.5c0 .5.3 1.2 1.3 1 7.9-2.6 13.7-10.1 13.7-19C40 9.4 31 .5 20 .5z"/></svg>