<svg xmlns="http://www.w3.org/2000/svg" viewBox="0 0 43 40"><path d="M.1 20.8h5.7v1.7c0 2.6.9 5 4.1 5 2.2 0 3.9-1.4 3.9-5v-18H9.4V0h13.7v4.5h-3.4v18.2c0 6.9-5 9.9-9.9 9.9C5 32.6.1 29.8.1 22.9v-2.1z" fill="#1c1c1c"/><path d="M3 35.2h.5L2 40h-.6L3 35.2zm2.6 0h.5L4.5 40H4l1.6-4.8zm3.3.2c.8 0 1.6.3 1.6.8v.5H10v-.3c0-.4-.6-.5-1.1-.5-1 0-1.6.7-1.6 1.7s.6 1.7 1.7 1.7c.4 0 1.1-.1 1.1-.5v-.6h-.9v-.5h1.4v1.2c0 .7-1.1.9-1.7.9-1.3 0-2.2-1-2.2-2.2s.9-2.2 2.2-2.2zm2.4 3.9h.5v-2c0-.1 0-.1-.1-.1h-.4v-.5h.7c.3 0 .4.1.4.3v.4c.2-.4.6-.7 1.1-.7.5 0 .8.2.9.7.2-.4.6-.7 1.1-.7.7 0 1 .4 1 1.2v1.5h.5v.5h-1.1v-1.8c0-.4-.1-.8-.5-.8-.6 0-.9.6-.9 1.2v1h.5v.5h-1.1v-1.8c0-.4-.1-.8-.5-.8-.6 0-.9.6-.9 1.2v.9h.5v.5h-1.6v-.7zm6.3-3.4h-.5v-.5h1.1v1.7s.3-.5 1-.5c.8 0 1.4.7 1.4 1.6 0 1-.6 1.6-1.4 1.6-.7 0-1-.6-1-.6v.4h-.6v-3.7zm1.4 3.4c.5 0 .9-.4.9-1.1 0-.7-.4-1.1-.9-1.1s-.9.3-.9 1.1c0 .6.3 1.1.9 1.1zm2 0h.5V36H21v-.5h1.7v.5h-.5v1.4h2.2V36h-.5v-.5h1.7v.5H25v3.3h.5v.5h-1.7v-.5h.5v-1.4h-2.2v1.4h.5v.5H21v-.5z" fill="#7f7f7f"/><path d="M41 0c-3.6 0-12.3 1.2-12.3 13.2V19c0 7.3-4.6 8-6.6 8H21v5.6s.8.1 1.8.1c3.6 0 12.3-1.2 12.3-13.2v-5.9c0-7.3 4.6-8 6.6-8h1.1V.1c.1 0-.7-.1-1.8-.1z" fill="#4a0572"/><path d="M28.7 39.7h6.5c-.2-11.5-8.7-12.6-12.3-12.6H21v5.7h1.1c1.9 0 6.2.6 6.6 6.9z" fill="#dd0093"/></svg>