<svg xmlns="http://www.w3.org/2000/svg" viewBox="0 0 300 60"><path d="M0 32.5h4.8V34c0 3.4 1.5 6.4 5.4 6.4 2.7 0 5.2-1.6 5.2-6.4V13.5h-5.1V9.8H24v3.7h-3.9v20.8c0 7.3-5.2 10.4-10.1 10.4S0 41.9 0 34.6v-2.1zm30.5-9.3h-4.2v-3.6h8.9v14.9c0 3.4.7 6.1 4.6 6.1 4.9 0 8-4.8 8-9.7v-7.7h-4.2v-3.6h8.9v19.9c0 .7.4 1 1 1H56v3.6h-5.1c-2.1 0-3.1-1-3.1-2.7v-1c0-.9.1-1.5.1-1.5h.1c-.4 1.3-3.3 5.8-9.4 5.8-5.4 0-8-3-8-9.5v-12h-.1zm29.7 17.4h3.6V24.2c0-.7-.4-1-1-1h-3.1v-3.6h5.7c2.1 0 3.1.9 3.1 2.8v1.5c0 1-.1 1.6-.1 1.6h.1c1.2-3.6 4-6.4 7.7-6.4.6 0 1.2.1 1.2.1V24s-.6-.1-1.3-.1c-5.2 0-7.4 5.4-7.4 10.1v6.5h3.7v3.7h-12v-3.6zM119.6 19c7.3 0 13.2 5.4 13.2 12.8s-5.9 12.9-13.2 12.9c-7.3 0-13.2-5.5-13.2-12.9S112.3 19 119.6 19zm0 21.7c4.6 0 8.5-3.7 8.5-8.9 0-5.1-3.9-8.8-8.5-8.8s-8.5 3.7-8.5 8.8c0 5.2 3.9 8.9 8.5 8.9zm19.5-27.2h-4.2V9.8h8.8v27.1c0 2.1.4 3.6 2.7 3.6h1.3v3.9s-1 .1-2.1.1c-3.6 0-6.5-1.5-6.5-7.1V13.5zm15 9.7h-4.2v-3.6h8.9v14.9c0 3.4.7 6.1 4.6 6.1 4.9 0 8-4.8 8-9.7v-7.7h-4.2v-3.6h8.9v19.9c0 .7.4 1 1 1h2.5v3.6h-5.1c-2.1 0-3.1-1-3.1-2.7v-1c0-.9.1-1.5.1-1.5h-.1c-.4 1.3-3.3 5.8-9.4 5.8-5.4 0-8-3-8-9.5v-12h.1zm32 0h-4.2v-3.6h4.2v-6.8h4.6v6.8h5.9v3.7h-5.9v11.6c0 5.1 3.4 5.7 5.2 5.7h1.2v4s-.7.1-1.6.1c-3.1 0-9.4-1-9.4-9.2V23.2zm14.8 17.4h3.9V23.2h-4.2v-3.6h8.8v21h3.9v3.7h-12.5v-3.7h.1zm3.8-30.8h4.9v4.8h-4.9V9.8zm25.2 9.2c7.3 0 13.2 5.4 13.2 12.8s-5.9 12.9-13.2 12.9-13.2-5.5-13.2-12.9 6-12.8 13.2-12.8zm0 21.7c4.6 0 8.5-3.7 8.5-8.9 0-5.1-3.9-8.8-8.5-8.8s-8.5 3.7-8.5 8.8c.1 5.2 3.9 8.9 8.5 8.9zm17.4-.1h3.9V24.2c0-.7-.4-1-1-1h-3v-3.6h5.5c2.1 0 3.1.9 3.1 2.7v1.3c0 .7-.1 1.3-.1 1.3h.1c.4-1.3 3.4-5.9 9.7-5.9 5.7 0 8.2 3.1 8.2 9.5v12.2h3.9v3.7H269V29.7c0-3.4-.7-6.2-4.6-6.2-4.9 0-8.2 4.5-8.2 9.5v7.7h3.9v3.7h-12.5v-3.9h-.3zm33.2-4.4h4.2v1.6c0 2.1 3 3.1 5.7 3.1 2.8 0 4.9-1.2 4.9-3.1 0-2.5-2.7-3.3-6.1-4.5-3.7-1.3-7.7-3-7.7-7.4 0-4.9 4.8-6.8 9.1-6.8 3.4 0 8.5 1.3 8.5 4.9v3h-4.2v-1.6c0-1.5-1.9-2.5-4.3-2.5s-4.3 1-4.3 3c0 2.4 2.7 3.3 5.7 4.3 3.9 1.3 8.2 2.8 8.2 7.4s-4.3 7.3-9.8 7.3c-4.5 0-9.7-1.9-9.7-5.9l-.2-2.8z" fill="#1c1c1c"/><path d="M109 .3c-5.4 0-18.3 1.8-18.3 19.6v8.6c0 10.9-6.8 11.9-9.8 11.9h-1.6v8.3s1.2.1 2.7.1c5.4 0 18.3-1.8 18.3-19.6v-8.8c0-10.9 6.8-11.9 9.8-11.9h1.6V.4s-1.2-.1-2.7-.1z" fill="#4a0572"/><path d="M82 40.4c-1.6 0-2.7.1-2.7.1v8.3h1.6c2.5 0 7.9.7 9.4 7.7h9.8C98.6 41.9 87 40.4 82 40.4z" fill="#7b2cbf"/><path d="M90.7 59.3h9.7c-.4-17.1-12.9-18.9-18.3-18.9-1.6 0-2.7.1-2.7.1v8.3H81c2.7.1 9.1 1.1 9.7 10.5z" fill="#dd0093"/><path d="M252.4 49.8h1l-3.3 10h-1l3.3-10zm5.4 0h1l-3.1 10h-1l3.1-10zm6.9.3c1.6 0 3.4.6 3.4 1.8v1H267v-.6c0-.7-1.2-1.2-2.2-1.2-2.1 0-3.4 1.5-3.4 3.4 0 2.1 1.3 3.6 3.4 3.6.7 0 2.4-.3 2.4-1.2v-1.2h-1.8v-1h3v2.5c0 1.3-2.4 1.9-3.7 1.9-2.8 0-4.6-1.9-4.6-4.6-.1-2.5 1.8-4.4 4.6-4.4zm5 8.2h1V54c0-.1-.1-.3-.3-.3h-.7v-.9h1.5c.6 0 .7.3.7.7v.6c.3-.7 1.2-1.5 2.2-1.5 1 0 1.6.4 1.9 1.5.3-.7 1.2-1.5 2.2-1.5 1.5 0 2.1.9 2.1 2.5v3.1h1v.9h-2.2v-3.9c0-.9-.1-1.6-1.2-1.6-1.2 0-1.9 1.2-1.9 2.5v2.1h1v.9h-2v-3.9c0-.9-.1-1.6-1.2-1.6-1.2 0-1.9 1.3-1.9 2.5v2.1h1v.9h-3.3v-.8zm13.2-7h-1v-.9h2.4V54s.6-1.2 2.1-1.2c1.8 0 2.8 1.3 2.8 3.4 0 2.1-1.2 3.4-3 3.4-1.5 0-2.1-1.2-2.1-1.2v.8h-1.2v-7.9zm3 7c1 0 1.8-.9 1.8-2.2 0-1.3-.7-2.2-1.8-2.2-.9 0-1.8.7-1.8 2.4 0 .9.6 2 1.8 2zm4.1 0h1.2v-7H290v-1h3.6v1h-1.2v3h4.6v-3h-1.2v-1h3.6v1h-1.2v7h1.2v1h-3.6v-1h1.2v-3h-4.6v3h1.2v1H290v-1z" fill="#777"/></svg>