<svg xmlns="http://www.w3.org/2000/svg" width="146.835" height="58.393"><path fill="none" d="M0 0h146.835v58.393H0z"/><path fill="#006EC7" d="M29.465 33.902c-.801.453-2.081 1.104-3.332 1.15-1.836.066-1.794-1.715-1.794-2.898 0-1.285.604-1.689 1.996-1.689h3.131v3.437zm4.243-7.269c0-4.243-1.565-6.121-6.886-6.121-1.878 0-4.208.313-5.808.8l.521 3.234c1.496-.313 3.165-.521 4.695-.521 2.713 0 3.235.474 3.235 2.353v.87h-4.272c-3.443 0-4.735 2.412-4.735 5.854 0 2.924 1.32 5.045 4.417 5.045 1.704 0 3.513-.488 5.043-1.496l.342 1.275h3.449V26.633zm13.573 6.336c-.914.844-2.425 1.547-3.831 1.547-1.581 0-2.108-.773-2.108-2.18v-6.045c0-1.546.597-2.096 2.144-2.096 1.23 0 2.671.211 3.795.457v8.317zm-10.226-.739c0 3.9 1.827 5.939 5.271 5.939 2.145 0 3.902-.703 5.414-1.793l.459 1.576h3.371V13.489l-4.287.598v6.946c-1.336-.282-3.058-.492-4.569-.492-3.97 0-5.657 2.061-5.657 5.855v5.834zm74.053-5.182v4.557c0 1.914-.871 2.924-3.133 2.924-2.259 0-3.129-1.01-3.129-2.924v-4.557c0-1.913.87-2.922 3.129-2.922 2.262 0 3.133 1.009 3.133 2.922m4.244 4.419v-4.279c0-3.479-1.565-6.679-7.376-6.679-5.809 0-7.373 3.2-7.373 6.679v4.279c0 3.479 1.564 6.68 7.373 6.68 5.81-.001 7.376-3.202 7.376-6.68m-32.111 1.119c-.164-3.466-.645-4.069-5.417-5.094-2.314-.482-2.423-.581-2.487-1.933-.049-1.04.242-1.471 2.079-1.557 1.317-.063 3.374.084 4.669.266l.256-3.382c-1.473-.313-3.527-.424-5.088-.351-4.816.228-6.238 1.788-6.078 5.186.154 3.258.688 4.275 4.86 5.085 2.769.529 3.001 1.039 3.052 2.08.061 1.283-.197 1.711-2.07 1.801-1.732.082-3.619-.143-5.059-.492l-.438 3.252c1.587.482 4.066.781 5.868.695 5.096-.24 6.008-2.296 5.853-5.556m14.82.002c-.165-3.467-.644-4.07-5.417-5.096-2.314-.481-2.424-.58-2.488-1.932-.049-1.04.244-1.472 2.08-1.558 1.318-.063 3.374.084 4.668.266l.258-3.381c-1.475-.313-3.529-.425-5.088-.352-4.818.228-6.238 1.789-6.078 5.186.154 3.258.688 4.275 4.859 5.085 2.769.529 3.002 1.039 3.051 2.08.061 1.283-.197 1.713-2.068 1.801-1.732.082-3.62-.143-5.061-.492l-.438 3.252c1.587.482 4.067.781 5.869.697 5.095-.242 6.006-2.298 5.853-5.556m-38.9-5.88c0-1.602.73-2.715 2.818-2.715 2.087 0 2.574 1.113 2.574 2.715v.835H59.16v-.835zm0 5.116v-.871h9.428v-3.619c0-3.654-1.218-6.82-6.645-6.82-5.428 0-7.028 3.027-7.028 6.611v4.49c0 4.07 1.844 6.541 7.167 6.541 2.018 0 3.705-.188 5.619-.918l.45-3.176c-2.25.625-3.959.957-5.626.791-2.563-.255-3.365-.976-3.365-3.029"/><path fill="#888279" d="M124.853 11.019v29.385L114.397 50.58h2.331l9.708-9.51V11.019z"/></svg>