<svg xmlns="http://www.w3.org/2000/svg" viewBox="0 0 133 65"><path d="M39.827 19.213C39.827 8.6 51.827 0 66.627 0s26.8 8.6 26.8 19.213-12 19.214-26.8 19.214-26.8-8.6-26.8-19.214" fill="#a1d733"/><path d="M71.373 2.867c-.693 2.773-1.466 6.106-2.226 9.386a13.12 13.12 0 00-1.64-.213l.64-9.44c1.08.04 2.16.12 3.226.267m5.987 1.36a135.803 135.803 0 00-5.267 9.04 10.3 10.3 0 00-1.56-.654c1.147-3.226 2.454-6.52 3.574-9.266 1.12.24 2.213.533 3.253.88M84 7.467c-3 2.08-6.453 4.893-9.36 7.746a9.09 9.09 0 00-1.173-1.08c2.253-3.066 4.853-6.16 7.2-8.573A23.81 23.81 0 0184 7.467m5.24 5.346c-3.427.84-8.893 2.84-13.12 5.24a6.187 6.187 0 00-.547-1.506c3.574-2.6 7.84-4.987 11.387-6.627a16.12 16.12 0 012.28 2.893M83.733 26.52c1.694-.64 3.627-1.053 5.667-1.173-.627 1.093-1.44 2.133-2.373 3.093a29.203 29.203 0 00-3.294-1.92M71.96 22.973c4.28-3.52 11.08-6.36 18.64-7.106.24.786.4 1.613.467 2.44-6.08.533-11.8 2.346-15.787 5.24a37.461 37.461 0 00-3.32-.574M91 20.76c-.107.76-.28 1.52-.533 2.253-3.507.187-6.747 1.014-9.414 2.294-.893-.36-1.826-.68-2.773-.974C81.707 22.307 86.133 21 91 20.76M59.387 35.133c2.12-.906 4.6-1.413 7.24-1.413s5.12.52 7.24 1.413c-2.28.48-4.72.747-7.24.747s-4.947-.267-7.24-.747" fill="#231f20"/><path d="M53.04 33.04c3.613-2.333 8.4-3.76 13.64-3.76s10.04 1.413 13.64 3.76a26.87 26.87 0 01-3.053 1.187c-2.92-1.64-6.6-2.627-10.6-2.627s-7.68.987-10.6 2.627a29.143 29.143 0 01-3.027-1.187" fill="#231f20"/><path d="M48.08 30.027c4.813-3.307 11.347-5.347 18.547-5.347 7.226 0 13.786 2.053 18.6 5.373a23.035 23.035 0 01-2.507 1.72c-4.187-2.853-9.853-4.613-16.08-4.613-6.213 0-11.853 1.747-16.04 4.587a21.99 21.99 0 01-2.52-1.72m13.8-27.16c.693 2.773 1.467 6.106 2.227 9.386a13.12 13.12 0 011.64-.213l-.64-9.44a31.9 31.9 0 00-3.227.267m-5.987 1.36c1.68 2.64 3.587 5.866 5.267 9.04.48-.254 1-.467 1.56-.654a242.606 242.606 0 00-3.573-9.266 30.59 30.59 0 00-3.254.88m-6.626 3.24c3 2.08 6.453 4.893 9.36 7.746a9.09 9.09 0 011.173-1.08c-2.253-3.066-4.853-6.16-7.2-8.573-1.2.56-2.32 1.2-3.333 1.907m-5.254 5.346c4.307 1.067 9.107 2.947 13.12 5.24.107-.52.307-1.026.547-1.506-3.573-2.6-7.84-4.987-11.387-6.627a16.12 16.12 0 00-2.28 2.893m5.494 13.707c-1.694-.64-3.627-1.053-5.667-1.173a16.199 16.199 0 002.373 3.093 33.233 33.233 0 013.294-1.92m11.773-3.547c-4.28-3.52-11.08-6.36-18.64-7.106-.24.786-.4 1.613-.467 2.44 6.08.533 11.8 2.346 15.787 5.24 1.08-.24 2.2-.427 3.32-.574M42.24 20.76c.107.76.28 1.52.533 2.253 3.507.187 6.747 1.014 9.414 2.294.893-.36 1.826-.68 2.773-.974-3.413-2.026-7.84-3.333-12.72-3.573" fill="#231f20"/><path d="M108.747 47.24c.453.787.28 2.28-.254 2.987-1.173 1.76-3.32 2.413-5.16 3.04v-7.294c1.56-.08 4.8-.306 5.414 1.267zm-3.574-4.507c3.48 0 6.04.28 7.374 3.44.986 2.2.453 4.747-.987 6.414-.627.88-1.333 1.413-2.24 2.026l-.427.387c1.814 2.213 3.334 5.347 4.52 7.813 2.427-9.026 5.347-20.24 7.294-27.146.04-.134.026-.307-.08-.534h4.6s5.266 20.387 7.44 28.827c.04.133.133.267.32.347h-5.28c.586-.454.16-1.52-1.6-8.387-3.254.973-6.72 1.92-8.32 5.293-.267.88-.56 2.214-.014 3.094h-8.706c.853-.907-.4-2.947-1.267-4.24-.907-1.36-1.507-2.44-2.587-3.507-.88.267-1.173.373-1.933.56l.013 6.667c0 .226.187.533.414.533h-4.934c.227 0 .4-.307.4-.533v-20.52c0-.227-.213-.547-.44-.547l6.44.013zm20.08 9.627c-1.813.347-3.84 1.253-5.56 1.773l3.24-12.04c0 .014 1.694 7.12 2.32 10.267" fill-rule="evenodd" clip-rule="evenodd" fill="#231f20"/><path d="M32.027 64.333c-.014 0 0-3.786 0-3.786 0 .226-.32.413-.547.413h-5.227V43.253c0-.226.187-.533.414-.533h-4.934c.227 0 .4.307.4.533v20.52c0 .227-.213.547-.44.547l10.334.013" fill="#231f20"/><path d="M12.693 35.147s5.267 20.386 7.44 28.826c.04.134.134.267.32.347h-5.28c.587-.453.16-1.52-1.6-8.387-3.253.974-6.72 1.92-8.32 5.294-.266.88-.546 2.213-.013 3.093H.027s.586-.56.786-1.32c2.427-9.027 5.4-20.427 7.347-27.32.04-.133.027-.307-.08-.533h4.613zm.027 17.173c-1.813.347-3.84 1.253-5.56 1.773l3.24-12.04s1.68 7.107 2.32 10.267" fill-rule="evenodd" clip-rule="evenodd" fill="#231f20"/><path d="M33.627 42.48c.653 0 1.84.373 2.2.453 3.733 1.32 6.093 3.934 8.906 6.934l-.013-6.614c0-.226-.187-.533-.413-.533h4.733c-.227 0-.4.307-.4.533v20.52c0 .227.213.547.44.547l-4.867.013c.614-.173.454-.626.454-4.64 0-4.413-3.574-8.253-7.094-10.986V63.8c0 .227.174.533.4.533H33.2c.227 0 .413-.306.413-.533l.014-21.32" fill="#231f20"/><path d="M61.907 42.733c2.306 6.68 3.786 13.934 6.16 20.774.133.386.133.64.493.826h-5.107c.96-.32-.133-2.333-1.28-6.786-.68.186-1.28.32-2 .493-2.28.493-4.48 1.72-5.346 3.653-.374.907-.64 2.054-.187 2.64h-4.907c.32-.186.334-.36.414-.6 2.2-6.52 4.373-13.613 6.466-20.28.147-.306.12-.626-.093-.88l5.387.16zm-.64 11.774c-1.454.266-3.28.933-4.64 1.426.906-2.693 2.64-8.2 2.64-8.2l2 6.774" fill-rule="evenodd" clip-rule="evenodd" fill="#231f20"/><path d="M79.44 42.72c-.013 0-.013 3.96-.013 3.96 0-.227-.32-.413-.547-.413h-4.52v17.52c0 .226.173.533.4.533h-4.933c.226 0 .413-.307.413-.533v-17.52h-4.507c-.226 0-.546.186-.546.413l.013-3.96h14.24m1.04 14.227l-.013-13.694c0-.226-.174-.533-.4-.533H85c-.227 0-.413.307-.413.533 0 .174-.014 9.387-.014 14.32a3.86 3.86 0 003.867 3.867 3.86 3.86 0 003.867-3.867V43.307c0-.227-.187-.534-.414-.534h4.934c-.227 0-.4.307-.4.534l.013 13.72c0 5.8-3.587 7.986-7.987 7.986-4.413 0-7.973-2.266-7.973-8.066" fill="#231f20"/></svg>