<svg xmlns="http://www.w3.org/2000/svg" viewBox="0 0 200 65"><path d="M26.9 46.6c.1-.4 3-.9 3.1-.7.4.6 3.2 9.2 3.2 9.9 0 .4-4.8 1.5-5 1.1-.1-.2-1.5-9.5-1.3-10.3zm-4.6-28.2c-.1.4-3 .9-3.1.7-.4-.6-3.2-9.2-3.2-10 0-.4 4.8-1.5 5-1.1.2.2 1.5 9.6 1.3 10.4zm16.3 11.9c-.4-.1-.9-3-.7-3.1.6-.4 9.2-3.2 9.9-3.2.4 0 1.5 4.8 1.1 5-.1.1-9.4 1.4-10.3 1.3zm-28.1 4.5c.4.1.9 3 .7 3.1-.6.4-9.2 3.2-9.9 3.2-.4 0-1.5-4.8-1.1-5 .2-.1 9.5-1.5 10.3-1.3z" fill="#009edf"/><path d="M38 37.5c-.3-.3.7-3 1-3 .7-.1 9.5 1.8 10.2 2.2.3.2-1.2 4.9-1.6 4.9-.2-.1-9-3.6-9.6-4.1zM11.3 27.4c.3.3-.7 3-1 3-.7 0-9.5-1.8-10.3-2.2-.3-.2 1.2-4.9 1.6-4.9.3 0 9 3.6 9.7 4.1zm18.5-8.2c-.3.3-3-.7-3-1-.1-.7 1.8-9.5 2.2-10.2.2-.3 4.9 1.2 4.9 1.6-.1.2-3.6 8.9-4.1 9.6zM19.6 45.8c.3-.3 3 .7 3 1 .1.7-1.8 9.5-2.2 10.2-.2.3-4.9-1.2-4.9-1.6.1-.2 3.6-9 4.1-9.6z" fill="#fae60b"/><path d="M13.6 41.6c.4-.2 2.3 2.1 2.2 2.3-.3.6-6.3 7.4-6.9 7.8-.4.3-3.7-3.3-3.5-3.7.1-.2 7.5-6.1 8.2-6.4zm22-18.3c-.4.2-2.3-2.1-2.2-2.3.3-.6 6.3-7.4 6.9-7.8.3-.2 3.7 3.4 3.5 3.7-.1.2-7.4 6.2-8.2 6.4zm-2 20.2c-.2-.4 2.1-2.3 2.3-2.2.6.3 7.4 6.3 7.8 6.9.2.3-3.4 3.7-3.7 3.5-.2-.1-6.1-7.4-6.4-8.2zm-18.1-22c.2.4-2.1 2.3-2.3 2.2-.6-.3-7.4-6.3-7.8-6.9-.2-.3 3.4-3.7 3.7-3.5.2.1 6.1 7.5 6.4 8.2z" fill="#e70046"/><path d="M74.5 37.1c-1.5 3-3.2 4.3-6 4.3-4.2 0-6.9-3.3-6.9-8.6 0-5.6 2.7-8.8 6.6-8.8 2.9 0 4.9 1.5 6.1 4.5l-1.7.7c-.9-2.4-2.2-3.5-4.3-3.5-2.8 0-4.7 2.5-4.7 7 0 4.6 1.8 7.1 4.8 7.1 2.1 0 3.4-1.1 4.5-3.5l1.6.8zM83.4 24c4.1 0 6.9 3.2 6.9 8.7 0 5.5-2.8 8.7-6.9 8.7-4.1 0-6.9-3.2-6.9-8.7 0-5.5 2.8-8.7 6.9-8.7zm0 15.8c3 0 4.9-2.5 4.9-7.1s-1.8-7-4.9-7-4.9 2.5-4.9 7 1.9 7.1 4.9 7.1zM94 24.3h1.8v2.6h.2c1.8-2 3.6-2.9 5.4-2.9 1.9 0 3.2.9 4 2.9h.2c1.8-2 3.6-2.9 5.4-2.9 2.8 0 4.2 1.8 4.2 5.4v11.7h-1.9v-11c0-3-.5-4.4-2.9-4.4-1.6 0-3.2 1-4.9 3.1V41h-2V30c0-3-.5-4.4-2.9-4.4-1.6 0-3.2 1-4.9 3.1v12.2h-2l.3-16.6zm26.5 0h1.8v2.6h.1c1.8-2 3.6-2.9 5.4-2.9 1.9 0 3.2.9 4 2.9h.2c1.8-2 3.6-2.9 5.4-2.9 2.8 0 4.2 1.8 4.2 5.4v11.7h-1.9v-11c0-3-.5-4.4-2.9-4.4-1.6 0-3.2 1-4.9 3.1V41H130V30c0-3-.5-4.4-2.9-4.4-1.6 0-3.2 1-4.9 3.1v12.2h-2V24.3zm35.4 14.6c-1.8 1.7-3.7 2.5-5.7 2.5-2.8 0-4.5-1.9-4.5-4.5 0-3.9 3.2-5.6 10.3-6.9v-1.6c0-1.6-1.4-2.7-3.7-2.7-1.8 0-3.2.9-4.2 2.7l-1.6-.9c1.3-2.3 3.1-3.5 6-3.5 3.2 0 5.4 1.9 5.4 4.4v10.4c0 .4.1 1.2.3 2.2h-2c-.2-.7-.3-1.4-.3-2.1zm0-7.2c-5.6 1.2-8.3 2.3-8.3 5.2 0 1.8 1.1 3 2.8 3 1.8 0 3.5-1 5.5-3v-5.2zm7.2-7.4h2v2.9h.2c1.2-2.2 2.6-3.2 4.8-3.2h.1v2h-.3c-2.3 0-3.9 1.3-4.9 4.5v10.7h-2l.1-16.9zm21.1 12.8c-1.5 3-3.2 4.3-6 4.3-4.2 0-6.9-3.3-6.9-8.6 0-5.6 2.7-8.8 6.6-8.8 2.9 0 4.9 1.5 6.1 4.5l-1.7.7c-.9-2.4-2.2-3.5-4.3-3.5-2.8 0-4.7 2.5-4.7 7 0 4.6 1.8 7.1 4.8 7.1 2.1 0 3.4-1.1 4.5-3.5l1.6.8zm8.9-13.1c4.1 0 6.9 3.2 6.9 8.7 0 5.5-2.8 8.7-6.9 8.7s-6.9-3.2-6.9-8.7c0-5.5 2.8-8.7 6.9-8.7zm0 15.8c3 0 4.9-2.5 4.9-7.1s-1.8-7-4.9-7-4.9 2.5-4.9 7c0 4.6 1.9 7.1 4.9 7.1z"/></svg>