<svg xmlns="http://www.w3.org/2000/svg" viewBox="0 0 120 36"><path d="M60.2 15.6h5.1l.6-3.2h-5.1l.9-4.7-3.9 3.1-.3 1.6h-4L54.7 6c.3-2.4 3.8-1.7 4.3-1.5l.6-3.1C53.3-1.1 51.4 6 51.4 6l-1.2 6.4-4 3.2h3.4L45.9 36h3.3l3.7-20.4h4l-1.5 8c-.9 5.8 4.7 5.2 6.4 4.8l.6-3c-4.3 1-3.7-1.8-3.7-1.8l1.5-8zm-19.6 8.2c-3.7 3.9-6 1.3-6 1.3-1.6-1.6.2-3.2.2-3.2 2.4-2.3 6.2.2 6.2.2l-.4 1.7zm.5-4.1s-4.9-2.6-8.3.3c0 0-2 1.4-2 4.1 0 2.7 2.4 4.2 2.4 4.2s3.7 2 6.5-1.2l-.3 1.5h3.2l2-9.9c1.5-9.7-9.7-6.3-9.7-6.3l-.6 3.5c8.3-3.7 6.9 2.8 6.9 2.8l-.1 1zm-8.2-6.8c-2.7 0-5.1 1.5-5.1 1.5l.3-1.5h-3.2l-2.9 16h3.3l2-10.5c1.5-3 5.1-2 5.1-2l.5-3.5zM20 5.9c.2.1.3.3.5.4l2.4-1.9.1-.1c-.4-.4-.8-.7-1.2-1.1C16.3-1.1 8 .7 3.2 7.2S-1 22.4 4.6 26.7c4.5 3.5 10.9 2.9 15.7-.9L18 24c-3.5 2.3-7.9 2.5-11.1 0-4.2-3.3-4.7-10-1-15C9.3 4 15.7 2.6 20 5.9zm61.9 21.5c-.7.5-1.5.8-2.3 1.1-.8.3-1.7.4-2.7.4-1.2 0-2.2-.2-3.2-.6-.9-.4-1.8-1-2.5-1.7s-1.3-1.6-1.7-2.5c-.4-1-.6-2-.6-3.1s.2-2.2.6-3.1c.4-1 .9-1.8 1.7-2.6s1.6-1.3 2.5-1.7c1-.4 2-.6 3.2-.6 1 0 1.9.1 2.7.4.8.3 1.6.7 2.3 1.1l-.6.9c-.6-.4-1.3-.7-2-1-.7-.3-1.5-.4-2.4-.4-1 0-1.9.2-2.7.5-.8.3-1.5.8-2.1 1.5-.6.6-1.1 1.4-1.4 2.2-.3.9-.5 1.8-.5 2.7 0 1 .2 1.9.5 2.7.3.8.8 1.6 1.4 2.2.6.6 1.3 1.1 2.1 1.5.8.4 1.7.5 2.7.5.9 0 1.7-.1 2.4-.4.7-.3 1.4-.6 2-1l.6 1zm23.8 1.6V18.4c0-2.9-1.2-4.3-3.5-4.3-1.1 0-2.1.3-3.1 1s-1.9 1.5-2.6 2.6V29h-1.2V18.4c0-2.9-1.2-4.3-3.5-4.3-1.1 0-2.1.3-3.1 1s-1.9 1.5-2.7 2.4V29h-1.1V13.2H86v3c.3-.4.7-.8 1.2-1.2.4-.4.9-.7 1.4-1 .5-.3 1-.6 1.6-.7.6-.2 1.2-.3 1.8-.3 1 0 1.9.3 2.7.9.8.6 1.3 1.5 1.6 2.7.7-1 1.6-1.8 2.7-2.5s2.2-1.1 3.5-1.1c.6 0 1.2.1 1.7.3.5.2 1 .5 1.4 1 .4.4.8 1 1 1.7.2.7.4 1.5.4 2.4V29h-1.3zm14.2-4.3c0 .6-.1 1.1-.3 1.6-.2.5-.5 1-1 1.4-.4.4-.9.7-1.5.9-.6.2-1.2.4-2 .4-1 0-1.9-.2-2.8-.5-.9-.3-1.7-.8-2.5-1.3l.6-.9c.7.5 1.4.9 2.2 1.2.8.3 1.6.5 2.5.5 1.1 0 2-.3 2.7-.9.7-.6 1-1.3 1-2.2 0-.7-.2-1.3-.6-1.8-.4-.4-.9-.8-1.5-1.1-.6-.3-1.2-.6-1.9-.8-.7-.2-1.3-.5-1.9-.9-.6-.3-1.1-.8-1.5-1.3-.4-.5-.6-1.2-.6-2.1 0-.5.1-1 .3-1.5.2-.5.5-.9.9-1.3s.9-.7 1.4-.9c.6-.2 1.2-.3 2-.3s1.6.1 2.3.4c.7.2 1.4.6 2.1 1.1l-.6.9c-.7-.5-1.3-.9-1.9-1.1-.6-.2-1.3-.3-2-.3-1.2 0-2.1.3-2.6.9-.6.6-.9 1.2-.9 2 0 .7.2 1.3.6 1.8.4.4.9.8 1.5 1.1.6.3 1.2.6 1.9.8.7.2 1.3.5 1.9.9.6.3 1.1.8 1.5 1.3.5.4.7 1.1.7 2z" fill="#e5422b"/></svg>