<svg xmlns="http://www.w3.org/2000/svg" viewBox="0 0 71.4 100"><path d="M64.7 92.2l-29 7.8-29-7.8L0 19.7h71.4l-6.7 72.5z" fill="#2062af"/><path d="M35.7 25.6v68.2h.1l23.5-6.3 5.4-61.9h-29z" fill="#3c9cd7"/><path d="M19.2 9V4.7h6.3V0h-11v13.3h11V9h-6.3zm17.7-4.3h4.4V0h-11v4.7c1.5 1.5 2.2 2.2 4.4 4.3h-4.4v4.3h11V9l-4.4-4.3zm15.6 0h4.4V0h-11v4.7c1.5 1.5 2.2 2.2 4.4 4.3h-4.4v4.3h11V9l-4.4-4.3z"/><path d="M35.7 43.7l-20.8 8.6.7 8.6 20.1-8.6L57 43.2l.9-8.8-22.2 9.3z" fill="#fff"/><linearGradient id="a" gradientUnits="userSpaceOnUse" x1="-181.722" y1="-2353.423" x2="-181.722" y2="-2357.129" gradientTransform="translate(868.805 10985.017) scale(4.6418)"><stop offset=".387" stop-color="#d1d3d4" stop-opacity="0"/><stop offset="1" stop-color="#d1d3d4"/></linearGradient><path d="M14.9 52.3l.7 8.6 20.1-8.6v-8.6l-20.8 8.6z" fill="url(#a)"/><linearGradient id="b" gradientUnits="userSpaceOnUse" x1="-177.091" y1="-2355.271" x2="-177.091" y2="-2359.124" gradientTransform="translate(868.805 10985.017) scale(4.6418)"><stop offset=".387" stop-color="#d1d3d4" stop-opacity="0"/><stop offset="1" stop-color="#d1d3d4"/></linearGradient><path d="M57.9 34.4l-22.2 9.3v8.6L57 43.2l.9-8.8z" fill="url(#b)"/><linearGradient id="c" gradientUnits="userSpaceOnUse" x1="-183.951" y1="-2351.77" x2="-175.049" y2="-2351.77" gradientTransform="translate(868.805 10985.017) scale(4.6418)"><stop offset="0" stop-color="#e8e7e5"/><stop offset="1" stop-color="#fff"/></linearGradient><path d="M14.9 52.3l.7 8.6 30.8.1-.7 11.4-10.1 2.9-9.7-2.5-.6-7.1h-9.1l1.2 13.7 18.3 5.4 18.2-5.3 2.4-27.2H14.9z" fill="url(#c)"/><path d="M35.7 52.3H14.9l.7 8.6 20.1.1v-8.7zm0 22.9l-9.8-2.4-.6-7.1h-9.1l1.2 13.7 18.3 5.4v-9.6z" opacity=".05"/><linearGradient id="d" gradientUnits="userSpaceOnUse" x1="-184.36" y1="-2358.181" x2="-174.696" y2="-2358.181" gradientTransform="translate(868.805 10985.017) scale(4.6418)"><stop offset="0" stop-color="#e8e7e5"/><stop offset="1" stop-color="#fff"/></linearGradient><path d="M13 34.4h44.9l-.9 8.8H14.1L13 34.4z" fill="url(#d)"/><path d="M35.7 34.4H13l1.1 8.8h21.5l.1-8.8z" opacity=".05"/></svg>