<svg xmlns="http://www.w3.org/2000/svg" viewBox="0 0 200 65"><path fill="#263355" d="M13.3 21.3h4.1V30H4.1v4.6h13.3v4.2H0V25.9h13.3zm26.1 4.6H22v12.9h17.4v-4.2H26.1V30h13.3zm22-.1H44v12.9h17.4v-4.2H48.1V30h13.3zm4.6.1V30h13.3v4.6H66v8.3h4.1v-4.2l13.3.1V25.9zm22 12.9v-4.2h13.3V30H88v-8.7h4.1v4.6h13.4v12.9zm22-17.5h4.1v17.4H110zm48.1 4.6h-17.4v12.9h17.4v-4.2h-13.3V30h13.3zm-39.4 0h4.1v8.7h9.2v-8.7h4.2v12.9h-17.5zM176 38.8h4.1v-6l4.7 6h4V25.9h-4.1v6l-4.6-6H176z"/><path d="M182.5 49.9c-9.7 0-17.5-7.9-17.5-17.5s7.9-17.5 17.5-17.5S200 22.7 200 32.3c0 9.7-7.9 17.6-17.5 17.6zm0-31c-7.4 0-13.4 6-13.4 13.4s6 13.4 13.4 13.4 13.4-6 13.4-13.4c-.1-7.4-6.1-13.4-13.4-13.4z" fill="#263355"/></svg>