<svg xmlns="http://www.w3.org/2000/svg" xmlns:xlink="http://www.w3.org/1999/xlink" viewBox="0 0 200 65"><defs><path id="a" d="M0 12h200v41H0z"/></defs><clipPath id="b"><use xlink:href="#a" overflow="visible"/></clipPath><path d="M38 15.5h.4c1.4 0 1.4 1.2 1.4 1.2v.1c0 .2-.1 1.3-1.4 1.3H38v-2.6zm1.7 3.6s.6-.1 1.1-.7c.3-.3.6-.9.6-1.7 0 0 .2-2.6-2.7-2.6h-2.3v8.5H38v-3.4l2.1 3.4h2l-2.4-3.5z" clip-path="url(#b)" fill="#008244"/><defs><path id="c" d="M0 12h200v41H0z"/></defs><clipPath id="d"><use xlink:href="#c" overflow="visible"/></clipPath><path d="M.1 25.6v-2.5L8.7 18 4 15.3v4l-2.1 1.2v-7.7c0-.7.4-.9 1-.7.6.3 5 2.9 6.7 3.9 1.8 1.1 1.7 3.2 0 4.1-1.7 1-9.5 5.5-9.5 5.5" clip-path="url(#d)" fill="#008244"/><defs><path id="e" d="M0 12h200v41H0z"/></defs><clipPath id="f"><use xlink:href="#e" overflow="visible"/></clipPath><path d="M44.8 19.5l1.1-3.1 1.1 3.1h-2.2zm.1-4.6c-.5 1.4-2.9 7.7-2.9 7.7h1.7l.7-1.8h3l.7 1.8h1.7s-2.4-6.4-2.9-7.7-1.5-1.2-2 0" clip-path="url(#f)" fill="#008244"/><defs><path id="g" d="M0 12h200v41H0z"/></defs><clipPath id="h"><use xlink:href="#g" overflow="visible"/></clipPath><path d="M17.4 21.2v-5.6s1.9-.3 2.7 1.2c.2.4.4.9.4 1.6v.1c-.1 3.1-3.1 2.7-3.1 2.7m4.8-2.8c0-.2 0-.9-.3-1.7-.4-1.2-1.4-2.6-3.9-2.6h-2.3v8.5H18c4 .1 4.2-3.6 4.2-4.2" clip-path="url(#h)" fill="#008244"/><defs><path id="i" d="M0 12h200v41H0z"/></defs><clipPath id="j"><use xlink:href="#i" overflow="visible"/></clipPath><path d="M182.7 45.7c.3.6.8 1 1.3 1.4.5.3 1.1.7 1.8.8.7.2 1.4.3 2.1.3.5 0 1.1-.1 1.6-.2.6-.1 1.1-.3 1.6-.6.4-.3.8-.6 1.2-1 .3-.4.4-.9.4-1.6 0-1.1-.7-1.9-2.2-2.5-1.4-.6-3.5-1.1-6.1-1.7-1.1-.2-2.1-.5-3.1-.8-1-.3-1.9-.8-2.7-1.3-.8-.5-1.4-1.2-1.9-2-.4-.8-.7-1.8-.7-3 0-1.7.3-3.1 1-4.2s1.6-1.9 2.7-2.6 2.3-1.1 3.7-1.3c1.4-.3 2.8-.4 4.2-.4s2.8.2 4.2.4c1.4.3 2.6.7 3.7 1.4s1.9 1.5 2.7 2.6c.7 1.1 1.2 2.4 1.3 4.1h-7c-.1-1.4-.7-2.4-1.6-2.9s-2.1-.8-3.4-.8c-.4 0-.8.1-1.3.1-.4.1-.9.2-1.3.3-.4.2-.7.4-1 .8-.3.3-.4.8-.4 1.3 0 .7.2 1.2.7 1.6.4.4 1.1.8 1.9 1 .8.3 1.7.5 2.7.7 1 .2 2 .4 3.1.7 1.1.2 2.1.5 3.1.9s1.9.8 2.7 1.4c.8.6 1.4 1.3 1.9 2.1.4.8.7 1.9.7 3.1 0 1.8-.3 3.2-1.1 4.4-.7 1.2-1.6 2.1-2.8 2.9-1.2.7-2.4 1.2-3.9 1.5-1.4.3-2.9.4-4.4.4-1.6 0-3.1-.2-4.6-.4-1.5-.3-2.8-.8-3.9-1.6-1.2-.7-2.1-1.7-2.8-2.9-.7-1.2-1.2-2.7-1.2-4.4h6.9c-.3.7-.1 1.4.2 2m-26.4-20.1v3.7h.2c.9-1.6 2.1-2.7 3.6-3.4 1.5-.7 3-1.1 4.6-1.1 1.9 0 3.6.3 4.8.8 1.3.5 2.3 1.3 3 2.2.7.9 1.2 2.1 1.5 3.4.3 1.4.4 2.9.4 4.6v16.4h-7.3v-15c0-2.2-.3-3.8-1-4.9-.7-1.1-1.9-1.6-3.7-1.6-2 0-3.4.6-4.3 1.8-.9 1.2-1.3 3.1-1.3 5.8v14h-7.3V25.6h6.8zM121 33.2c.7-1.7 1.6-3.2 2.8-4.4 1.2-1.2 2.7-2.2 4.3-2.8 1.7-.7 3.6-1 5.7-1s4 .3 5.7 1c1.7.7 3.2 1.6 4.3 2.8 1.2 1.2 2.1 2.7 2.8 4.4.7 1.7 1 3.7 1 5.8 0 2.2-.3 4.1-1 5.8-.7 1.7-1.6 3.2-2.8 4.4-1.2 1.2-2.7 2.2-4.3 2.8-1.7.7-3.6 1-5.7 1s-4-.3-5.7-1c-1.7-.7-3.1-1.6-4.3-2.8-1.2-1.2-2.1-2.7-2.8-4.4s-1-3.7-1-5.8c.1-2.2.3-4.1 1-5.8m6.7 8.9c.2 1 .6 1.9 1.1 2.7.5.8 1.2 1.4 2 1.9s1.9.7 3.1.7 2.3-.2 3.1-.7c.8-.4 1.5-1.2 2-1.9.5-.8.8-1.7 1.1-2.7.2-1 .3-2.1.3-3.1 0-1.1-.1-2.1-.3-3.2-.2-1-.6-1.9-1.1-2.7s-1.2-1.4-2-1.9-1.9-.8-3.1-.8-2.3.3-3.1.8c-.8.5-1.5 1.2-2 1.9-.5.8-.8 1.7-1.1 2.7-.2 1-.3 2.1-.3 3.2-.1 1.1 0 2.1.3 3.1m-9.5 10.2h-7.3V25.7h7.3v26.6zm-7.4-38.4h7.3V20h-7.3v-6.1zm-2.4 11.7v4.9H103v13.2c0 1.2.2 2.1.6 2.5.4.4 1.2.6 2.5.6.4 0 .8-.1 1.2-.1.4-.1.7-.1 1.1-.2v5.7c-.6.1-1.3.2-2.1.2-.7.1-1.5.1-2.2.1-1.2 0-2.2-.1-3.2-.2-1-.2-1.9-.4-2.7-.9-.8-.4-1.4-1.1-1.8-1.9-.4-.8-.7-1.9-.7-3.2V30.6h-4.4v-4.9h4.4v-8.3h7.3v8.2h5.4zM82.7 52.3v-3.7h-.2c-.9 1.6-2.1 2.7-3.6 3.3-1.5.7-3 1-4.6 1-1.9 0-3.6-.3-4.8-.8-1.3-.5-2.3-1.3-3-2.2-.7-.9-1.2-2.1-1.5-3.4-.3-1.4-.4-2.9-.4-4.6V25.6h7.3v15.1c0 2.2.3 3.8 1 4.9.7 1.1 1.9 1.6 3.7 1.6 2 0 3.4-.6 4.3-1.8.9-1.2 1.3-3.1 1.3-5.8v-14h7.3v26.7h-6.8zm-20.8 0h-7.3V13.9h7.3v38.4zM26.6 33.2c.7-1.7 1.6-3.2 2.8-4.4 1.2-1.2 2.7-2.2 4.3-2.8 1.7-.7 3.6-1 5.7-1s4 .3 5.7 1c1.7.7 3.2 1.6 4.3 2.8 1.2 1.2 2.1 2.7 2.8 4.4.7 1.7 1 3.7 1 5.8 0 2.2-.3 4-1 5.7s-1.6 3.2-2.8 4.4c-1.2 1.2-2.7 2.2-4.3 2.8-1.7.7-3.6 1-5.7 1s-4-.3-5.7-1c-1.7-.7-3.1-1.6-4.3-2.8-1.2-1.2-2.1-2.7-2.8-4.4-.7-1.7-1-3.7-1-5.8 0-2.1.3-4 1-5.7m6.7 8.9c.2 1 .6 1.9 1.1 2.7.5.8 1.2 1.4 2 1.9s1.9.7 3.1.7c1.2 0 2.3-.2 3.1-.7.8-.4 1.5-1.2 2-1.9.5-.8.8-1.7 1.1-2.7.2-1 .3-2.1.3-3.1 0-1.1-.1-2.1-.3-3.2-.2-1.1-.6-1.9-1.1-2.7s-1.2-1.4-2-1.9-1.9-.8-3.1-.8c-1.2 0-2.3.3-3.1.8-.8.5-1.5 1.2-2 1.9-.5.8-.8 1.7-1.1 2.7S33 37.9 33 39c-.1 1.1.1 2.1.3 3.1M7.4 45.7c.3.6.8 1 1.3 1.4.5.3 1.1.7 1.8.8.7.2 1.4.3 2.1.3.5 0 1.1-.1 1.6-.2.6-.1 1.1-.3 1.6-.6.4-.3.8-.6 1.2-1 .3-.4.4-.9.4-1.6 0-1.1-.7-1.9-2.2-2.5s-3.5-1.1-6.1-1.7c-1-.2-2.1-.5-3.1-.8-1-.3-1.9-.8-2.7-1.3-.8-.5-1.4-1.2-1.9-2s-.7-1.8-.7-3c0-1.7.3-3.1 1-4.2s1.6-1.9 2.7-2.6 2.3-1.1 3.7-1.3c1.4-.3 2.8-.4 4.2-.4s2.8.2 4.2.4c1.4.3 2.6.7 3.7 1.4s1.9 1.5 2.7 2.6c.7 1.1 1.2 2.4 1.3 4.1h-7.1c-.1-1.4-.7-2.4-1.6-2.9s-2.1-.8-3.4-.8c-.4 0-.8.1-1.3.1-.5.1-.9.2-1.3.3-.4.2-.7.4-1 .8-.3.3-.4.8-.4 1.3 0 .7.2 1.2.7 1.6.4.4 1.1.8 1.9 1 .8.3 1.7.5 2.7.7 1 .2 2 .4 3.1.7 1.1.2 2.1.5 3.1.9s1.9.8 2.7 1.4c.8.6 1.4 1.3 1.9 2.1s.7 1.9.7 3.1c0 1.8-.3 3.2-1.1 4.4-.7 1.2-1.6 2.1-2.8 2.9-1.2.7-2.4 1.2-3.9 1.5-1.4.3-2.9.4-4.4.4-1.6 0-3.1-.2-4.6-.4-1.5-.3-2.8-.8-3.9-1.6-1.2-.7-2.1-1.7-2.8-2.9C.7 46.9.2 45.4.2 43.7h6.9c-.2.7 0 1.4.3 2" clip-path="url(#j)"/><path fill="#008244" d="M24.9 15.6h2.7v-1.4h-4.4v8.5h4.4v-1.5h-2.7v-2.3h2.6v-1.4h-2.6v-.7zm7.5 2.8l-.2-.3 1-1.3 2.2-2.6h-2.1l-2 2.6-.6.9v-3.5H29v8.5h1.7v-3.8l2.7 3.8h2.2z"/></svg>