<svg xmlns="http://www.w3.org/2000/svg" viewBox="0 0 200 65"><path d="M59 27.3c-.6 0-1.2 0-1.7.1v9.7c.4.1.9.1 1.5.1 2.7 0 4.6-1.6 4.6-5 0-3.1-1.1-4.9-4.4-4.9m-.4 12.2c-1.5 0-2.7-.1-4-.1V25c1.1-.1 2.8-.1 4.6-.1 4.4 0 7.2 2 7.2 7s-3.2 7.6-7.8 7.6m14.1-8.9c-1.1 0-1.9.8-2.1 2.1h3.9c0-1.3-.6-2.1-1.8-2.1m4.4 4h-6.5c0 2 .9 3 2.9 3 1 0 2.1-.2 3.1-.7l.3 2.1c-1.1.4-2.5.7-3.7.7-3.4 0-5.2-1.7-5.2-5.4 0-3.2 1.8-5.6 4.9-5.6 3.1 0 4.4 2.1 4.4 4.7-.1.3-.1.7-.2 1.2m8.9 4.9c0-.5 0-1.3.1-1.9-.6 1.3-1.8 2.1-3.6 2.1-2.3 0-3.1-1.6-3.1-3.4v-7.4h2.7v6.8c0 1.1.3 1.8 1.3 1.8 1.4 0 2.4-1.6 2.4-3.5v-5.1h2.7v10.6H86zm9 .2c-2.3 0-3-.8-3-3.4V31h-1.8v-2.1H92v-3.2l2.7-.7v4h2.6v2h-2.6v4.6c0 1.3.3 1.7 1.2 1.7.4 0 .9-.1 1.3-.2v2.2c-.7.3-1.5.4-2.2.4m6.2 0c-.8 0-1.5-.1-2.2-.2l.1-2.2c.7.2 1.5.3 2.2.3 1 0 1.7-.4 1.7-1.1 0-1.9-4.2-.8-4.2-4.4 0-1.8 1.5-3.4 4.5-3.4.6 0 1.3.1 1.9.2l-.1 2.2c-.6-.2-1.3-.3-2-.3-1.1 0-1.6.4-1.6 1.1 0 1.7 4.3.9 4.3 4.4 0 1.9-1.8 3.4-4.6 3.4m10.9-.1c-2.9 0-4.7-1.6-4.7-5.1 0-3.3 1.7-5.9 5.4-5.9.7 0 1.5.1 2.1.3l-.3 2.3c-.6-.2-1.2-.4-1.9-.4-1.7 0-2.6 1.3-2.6 3.3 0 1.8.7 3.1 2.5 3.1.7 0 1.5-.2 2.1-.4l.2 2.3c-.7.4-1.7.5-2.8.5m11.4-.1v-6.8c0-1.1-.3-1.8-1.3-1.8-1.3 0-2.5 1.6-2.5 3.5v5.1H117V23.9h2.7v4.5c0 .6-.1 1.6-.2 2.2h.1c.6-1.2 1.8-2 3.4-2 2.3 0 3.1 1.6 3.1 3.4v7.4l-2.6.1zm9.7-8.9c-1.1 0-1.9.8-2.1 2.1h3.9c0-1.3-.7-2.1-1.8-2.1m4.4 4h-6.5c0 2 .9 3 2.9 3 1 0 2.1-.2 3.1-.7l.3 2.1c-1.1.4-2.5.7-3.7.7-3.4 0-5.2-1.7-5.2-5.4 0-3.2 1.8-5.6 4.9-5.6 3.1 0 4.4 2.1 4.4 4.7-.2.3-.2.7-.2 1.2m20.5 4.9l-1-6.9c-.2-1.4-.3-2.5-.4-3.5h-.1c-.2.9-.4 2-.8 3.1l-2.2 7.3h-2.7l-2.2-6.7c-.4-1.2-.7-2.5-.9-3.6h-.1c-.1 1.3-.2 2.4-.4 3.7l-.8 6.6h-2.8l2.2-14.4h3.2l2.4 7.4c.3 1 .6 2 .8 3h.1c.2-1.1.4-1.9.8-3l2.5-7.4h3.2l2.2 14.4h-3zm9-8.9c-1.1 0-1.9.8-2 2.1h3.9c0-1.3-.7-2.1-1.9-2.1m4.4 4H165c0 2 .9 3 2.9 3 1 0 2.1-.2 3.1-.7l.3 2.1c-1.1.4-2.5.7-3.7.7-3.4 0-5.2-1.7-5.2-5.4 0-3.2 1.8-5.6 4.9-5.6 3.1 0 4.4 2.1 4.4 4.7-.1.3-.1.7-.2 1.2m4.2 5.1c-.8 0-1.5-.1-2.2-.2l.1-2.2c.7.2 1.5.3 2.2.3 1.1 0 1.7-.4 1.7-1.1 0-1.9-4.2-.8-4.2-4.4 0-1.8 1.5-3.4 4.5-3.4.6 0 1.3.1 1.9.2l-.1 2.2c-.6-.2-1.3-.3-2-.3-1.1 0-1.6.4-1.6 1.1 0 1.7 4.3.9 4.3 4.4 0 1.9-1.7 3.4-4.6 3.4m8.8 0c-.8 0-1.5-.1-2.2-.2l.1-2.2c.7.2 1.5.3 2.2.3 1 0 1.7-.4 1.7-1.1 0-1.9-4.2-.8-4.2-4.4 0-1.8 1.5-3.4 4.4-3.4.6 0 1.3.1 1.9.2l-.1 2.2c-.6-.2-1.3-.3-2-.3-1.1 0-1.6.4-1.6 1.1 0 1.7 4.3.9 4.3 4.4.1 1.9-1.7 3.4-4.5 3.4m11-9.1c-1.1 0-1.9.8-2.1 2.1h3.9c.1-1.3-.7-2.1-1.8-2.1m4.4 4h-6.5c0 2 .9 3 2.9 3 1 0 2.1-.2 3.1-.7l.2 2.1c-1.1.4-2.5.7-3.7.7-3.4 0-5.2-1.7-5.2-5.4 0-3.2 1.8-5.6 4.9-5.6 3.1 0 4.4 2.1 4.4 4.7 0 .3 0 .7-.1 1.2M36 20.4s-.7.1-1.4 0c-3.5-.6-6.8-3.2-11.4-3.2-3 0-7.9 1.8-8.4 7.8h4.5c.8 0 1.1-.3 1-.7-.1-2.5 1.2-3.7 2.6-4 1.1-.2 2.2-.1 4 .3 2.2.4 4.9 1.3 9.1.9v.5s-1 .4-1.8.7c-1.6.5-4.4 1-9.4.4-.9-.1-2.1.2-2.2 1.1-.2.8.1 1.8.4 3h-8.3l-.3 5h2.5v2.6s3.2.8 3.2 3.5c0 2.9-3.1 3.5-3.1 3.5v2.7c2.2.3 4.6.1 6.2-.8v6.4h-2.5v-3.4c-1.5.4-4.1.3-6.2-.3v-6.3s3.1-.3 3.1-1.8c0-1.4-2.2-1.7-3.1-2v-2h-2.7l.5-7.3H9.9v-2.3h2.5c.4-7.8 6.9-10.1 10.8-10.1 4.9 0 9.4 2.6 10.7 3s2.1.4 2.1.4v2.4zm7.2-9.5H0v43.2h43.2V10.9z" fill="#004a99"/></svg>