<svg xmlns="http://www.w3.org/2000/svg" viewBox="0 0 70 100"><path d="M68.7 95.9c0 2.3-15.1 4.1-33.7 4.1S1.3 98.2 1.3 95.9 19 91.8 35 91.8c19.1 0 33.7 1.8 33.7 4.1" fill="#1a4658"/><path d="M66.6 66.4c-1 0-2.2-.5-3-4.2-.8-3.7-2-7.5-2-7.5 1.3 0 2-.6 2-.6-.9-.4-2.8-1.8-4.1-3.5-1.2-1.6-4.5-4.3-4.5-4.3v-5.5c0-3.7 2.4-6.6 2.4-6.6-1.6 0-2.4 1.4-2.4 1.4v-7.8c0-7.7 3.9-11.2 3.9-11.2-1.2-.1-2 .5-2 .5.6-5.7 2.3-7.4 2.3-7.4-6.4-1.7-10 2.1-10 2.1-.7-3.5 2.1-5.5 2.1-5.5-3.3-.7-6 .2-6 .2 0-5.1 2-6.7 2-6.7-10 0-15.7 7.5-15.7 7.5-.4-3.2.5-6 .5-6-9.7 4.1-12.3 13.2-12.3 13.2-.6-1.5-.7-5-.7-5s-4 6.7-4.7 11.4c-.7 4.7.6 18 .6 18s-.6-.8-2-1c0 0 1.4 1.6 1.4 5.2 0 0-.6-.5-1.5-.2 0 0 1.5 1.4 1.7 3.7 0 0-1.8 1.2-2.7 2.4 0 0-1.5.1-2.3.3 0 0 1.3.7 1.5 1.4 0 0-3.8 3.9-5.7 7 0 0 1.7-1 2.9-.7 0 0-2.6 3.2-3.5 8.5 0 0 1.3-.6 1.8-.3 0 0-1.6 3.4-1.7 6.9l-1.8 1 1.4 1s-1 4.3-1.3 6.8c0 0 .8-.8 1.4-1 0 0 .9 2.1 2.1 3.7 1.2 1.6 3.9 3 5.5 3l3-.1c-.4 1.6-1.1 3-2.7 3.1l-.2.3h-.1c0 .5-1 .6-1.2.9-.8 1-1.4 2.4-1.8 3.6-.3.9-.2.9-.4 1.8-.1.3-.4.6-.5.9.9-.3 3.3-.5 4.5-.6v1.1s.2.2.6.3c.1 0 .2 0 .3.1 1.9-.2 3.2.2 5.4 0 .4-.1.8-.1 1.2-.3.1-.3.1-.3.2-.7v-.2h.4c.4 0 1-.1 1.4-.1 1.3 0 3 .1 3 .1.1-1.5.2-3.7 2.6-10.3l.6-.4s7.2 2.5 13.9-.1c.5 1.3 2.2 5.7 2.5 8.4.2.3.2.7.2 1.2v1.1c.2 0 1.1-.1 2.2-.1.4 0 1 .1 1.4.1h.4v.2c.1.4.1.4.2.7 0 0 .1 0 .1.1 1.2-.2 2.4-.2 3.6-.1.9 0 1.9.2 2.8.4h.3c.5.1 1 .2 1.5.2v-1.7c1 0 2.5.2 3.1.3.2.1.4.1.6.1h.1c.2 0 .4.1.7.2 0-.5 0-.5-.1-1.2-.1-.5-.4-2.1-1.1-2.8 0 0 .8.3 1 .5-.8-1-1.1-2.5-3.5-3.5 0 0 .4-.2.8-.3-.4-.3-.7-.4-1.2-.3.1-.4.8-1.4 1.3-1.6 0 0-.3-.2-.9-.1l-.6.3c-.1 0-.2 0-.2-.1-.2-.6-.3-1.2-.4-1.9 4.8-.2 5.5-2.6 5.5-2.6.4.3.4 1 .4 1 2.1-2.7 1.8-5.5 1.8-5.5.5.1.9.4.9.4.2-4.2-1-11.3-1-11.3.6.3 1-.1 1-.1-.7-.3-.8-1.1-.8-1.1 1.5.4 1.6-.5 1.6-.5" fill="#edf7fa"/><path d="M20.7 96.7s.2-2-.5-3.5c0 0 1.3.1 1.5 3.4 0 0-.9.1-1 .1m-5.1-.2" fill="#cde9ee"/><path d="M31.5 7.5c-.4-3.2.5-6 .5-6-9.7 4.1-12.3 13.2-12.3 13.2-.6-1.5-.7-5-.7-5s-4 6.7-4.7 11.4c-.7 4.7.6 18 .6 18s-.6-.8-2-1c0 0 1.4 1.6 1.4 5.2 0 0-.6-.5-1.5-.2 0 0 1.5 1.4 1.7 3.7 0 0-1.8 1.2-2.7 2.4 0 0-1.5.1-2.3.3 0 0 1.3.7 1.5 1.4 0 0-3.8 3.9-5.7 7 0 0 1.7-1 2.9-.7 0 0-2.6 3.2-3.5 8.5 0 0 1.3-.6 1.8-.3 0 0-1.6 3.4-1.7 6.9l-1.8 1 1.4 1s-1 4.3-1.3 6.8c0 0 .8-.8 1.4-1 0 0 .9 2.1 2.1 3.7 1.2 1.6 3.9 3 5.5 3h.2c-.1.6-.2 1.1-.3 1.6 0 .1-.1.1-.2.1l-.6-.3c-.5-.2-.9.1-.9.1.5.1 1.2 1.2 1.3 1.6-.4 0-.7.1-1.2.3.4.1.8.3.8.3-2.4 1-2.8 2.5-3.5 3.5l1-.5c-.7.7-1.1 2.3-1.1 2.8-.1.7-.1.7-.1 1.2.6-.2.9-.2 1.5-.4.8-.1 3-.4 3.8-.3l-.1 1.6c.6-.4.9-.4 1.3-.4 0-.4 0-.9.1-1.3 0-.7.1-1.4.2-2.1v-.1c.3-1 .8-1.6 1.1-1.9.1-.1.2-.3.3-.4.2-.3.4-.7.6-1 .3-.9.2-2.9-.5-4.8.7 1 1.3 1.9 1.6 2.2v-2.5s1.3 1.3 2.4 2.3c.6.5 1.2 1.1 1.7 1.4 0 0 .1-.2.1.1v-.1c.7.4 1.3.7 1.9 1.1.1 0 .1.1.2.1.3.2.8.4 1.3.7l.4 5.1c.4-5.4 3.5-10.5 3.5-10.5h-.1c-.9-.3-7.9-2.7-12-11.3-.3-.6 1.5.6 1.5.6-1.7-4.1-2.3-10.7-2.3-10.7.6.5 1.1.6 1.1.6C16 62 15.5 57.8 15.5 54c-.3-20.3 7.2-25 7.2-25-1.3-.5-2.6-.4-2.6-.4 1.5-3.6 6.4-8.5 6.4-8.5-1.3.1-6.5 1.5-6.5 1.5 4.3-11.2 8.6-14.2 8.6-14.2-.3 2.7.7 5.5.7 5.5 9.3-11.5 16.8-11 16.8-11C46.6.8 47.3 0 47.3 0 37.2 0 31.5 7.5 31.5 7.5m26.4 89.1s-.1-2.9-.8-4.4c0 0 1.7 1.1 1.7 4.4h-.9" fill="#cde9ee"/><path d="M13 81.6c1.1-11.1 1.4-32.9 1.4-32.9-2.5 4.9-4.4 13.7-4.4 13.7l.5 1.9-1.1-.5c-1.7 6-.6 14.1-.2 16.4 1.1 1 2.4 1.3 3.8 1.4m-2.4-.2c.3 1.8.7 3.5 1.1 5.3h.6c.3-1.1.3-2.7.5-4.8-.6-.1-1.4-.2-2.2-.5" fill="#abd8d7"/><path d="M48.4 91c-.1 0-.1 0-.1-.1-.1 0-.2 0-.3.1 1.7-1.2 1.8-2.5 1.8-2.5-1.1.5-2.3.7-2.8.7 3.8-3.3 4.5-9.5 4.5-9.5-1.6 1.9-3.8 3.6-5.5 4.6l-2.2 1.1c-.1 0-.1 0-.1.1-.5.3-1.1.5-1.4.5 0 0 .9 1.6 1.3 2.5l-.1.1s1.3 3 1.7 6c0 .5.1.9.1 1.3s.1.7.1.7c1.7-.3 4.1 0 4.1 0 0 .3.1.9.2 1.1.8-.1 1.6-.2 2.4-.2-.2-2.8-.3-7.5-3.7-6.5" fill="#cde9ee"/><path d="M12.9 82.5C10.2 82 7.8 79 7.8 79c1.9 2.1 4.4 2.3 4.4 2.3.3-2.4-1.6-7.7-1.6-7.7 1.4 1.8 2.2 3.9 2.7 5.6l-.4 3.3" fill="#83bac0"/><path d="M18.9 78.3s2.1 3.7 3.9 5.3c2 1.7 3.8 4.2 4.6 5.6 0 0 1-2.3 1.5-3.1.1 0-5.8-1.7-10-7.8m27.3 7.2l.9-1.2c.5-.6 1.1-1.3 1.6-1.9-.8.6-1.6 1.1-2.5 1.6-2.5 1.7-4.2 2.2-4.2 2.2.5.8 1.5 3.1 1.5 3.1.5-.9 1.3-2.1 2.4-3.4.1-.2.2-.3.3-.4" fill="#abd8d7"/><path d="M18.1 23.4h-1c-6.6.5-11.5-4.7-11.5-4.7s-.4 4 2.4 7.5c2.9 3.5 8.7 4.1 8.7 4.1.2.8-.2 2.6-.2 2.6s1.7-1.9 2.1-5.5c.4-2.3-.3-4-.5-4" fill="#545352"/><path d="M18.1 23.4h-1c-6.6.5-11.5-4.7-11.5-4.7s3 8.7 13.1 8.1c.1 0 .4-1.6-.6-3.4" fill="#6e7979"/><path d="M51.2 23.4h1c6.6.5 11.5-4.7 11.5-4.7s.4 4-2.4 7.5c-2.9 3.5-8.7 4.1-8.7 4.1-.2.8.2 2.6.2 2.6s-1.7-1.9-2.1-5.5c-.5-2.3.3-4 .5-4" fill="#545352"/><path d="M51.2 23.4h1c6.6.5 11.5-4.7 11.5-4.7s-3 8.7-13.1 8.1c-.1 0-.4-1.6.6-3.4" fill="#6e7979"/><path d="M14.7 53.1s-4.8 17.1 0 28v-28m47.3 27c-2.3 1.8-4.8 1.9-4.8 1.9-.1-2.3 2.4-7.5 2.4-7.5-.5.3-1 .7-1.4 1.2V74l1.8-1.5-1.5-1.2 1.9-7.6-1.8 1.2s-.6-10.8-.2-15.4c0 0-2.3-2.3-3.4-3.2 0 0 .2 3.3.5 8.6 1 4.3 2.6 13.1.6 20.8v4.8s1 3.4 1.3 5.8c0 0 .3.1.8 0v-3.7c2.6-.7 3.8-2.5 3.8-2.5M39.8 47c0 1.8 1.2 3.3 2.6 3.3 1.4 0 2.6-1.5 2.6-3.3 0-1.8-1.2-3.3-2.6-3.3-1.5 0-2.6 1.5-2.6 3.3" fill="#cde9ee"/><path d="M39.9 46.1c0 1.8 1.1 3.3 2.6 3.3 1.4 0 2.6-1.5 2.6-3.3 0-1.8-1.1-3.3-2.6-3.3-1.5.1-2.6 1.5-2.6 3.3" fill="#fff"/><path d="M41.7 44.4v.3c0 .5.3.8.7.8.3 0 .6-.3.7-.7.2.3.3.6.3 1.1 0 .8-.6 1.5-1.2 1.5-.7 0-1.2-.7-1.2-1.5-.1-.7.3-1.3.7-1.5" fill="#474746"/><path d="M27.3 47c0 1.8 1.2 3.3 2.6 3.3 1.4 0 2.6-1.5 2.6-3.3 0-1.8-1.2-3.3-2.6-3.3-1.5 0-2.6 1.5-2.6 3.3" fill="#cde9ee"/><path d="M27.3 46.1c0 1.8 1.1 3.3 2.6 3.3 1.4 0 2.6-1.5 2.6-3.3 0-1.8-1.1-3.3-2.6-3.3-1.4.1-2.6 1.5-2.6 3.3" fill="#fff"/><path d="M29.7 44.4v.3c0 .5.3.8.7.8.3 0 .6-.3.7-.7.2.3.3.6.3 1.1 0 .8-.6 1.5-1.2 1.5-.7 0-1.2-.7-1.2-1.5-.1-.7.2-1.3.7-1.5" fill="#474746"/><path d="M49.2 49.6c-.2.5-.7.6-2.3.9h-.1c-1.6.3-4.3.3-5.8 0h-.2c-1.4-.2-1.6-.4-2-1.2-.5-.8-.8-3-.8-3.4-.1-.5-.1-.7.5-1 .8-.4 4.3-.9 5.8-.9 1.1-.1 3.6.1 4.7.3.2 0 .3 0 .4.1.1 0 .6.3.6.8-.2.6-.6 3.7-.8 4.4zM33.7 46c-.1.5-.3 2.7-.8 3.4-.5.7-.6.9-2 1.2h-.2c-1.5.2-4.3.3-5.8 0h-.1c-1.6-.3-2.1-.4-2.3-.9-.2-.7-.6-3.7-.7-4.4 0-.5.4-.7.6-.8.1 0 .2 0 .4-.1 1.1-.2 3.5-.3 4.7-.3 1.5.1 5 .6 5.8.9.5.3.5.5.4 1zm17.5-3c-1.2-.2-3.2-.4-5.6-.2-3.2.2-5.9.6-7.5.9-.5.1-.9.1-1.2.2h-.3c-.4 0-.6.1-.8.1-.2 0-.4 0-.8-.1h-.3c-.3 0-.7-.1-1.2-.2-1.6-.3-4.3-.7-7.5-.9-2.4-.1-4.5.1-5.6.2 0 0-1.2.2-2.3.6l.2 1.3s1.1-.3 2.2-.4c.2 1.9.6 4.3.6 4.3v.1c0 .1.1.2.1.4.2 1 .4 1.5 1.4 1.9.9.3 3 .6 5.1.8.8 0 1.7 0 2.6-.1 1.3-.2 2.5-.6 3-.9.7-.5 1-1.7 1.3-2.6l.1-.2c.1-.3.2-.6.2-.9.1-.4.2-.8.3-1 0 0 .1-.1.4-.2h.6c.3 0 .4.1.4.2.1.1.2.6.3 1 .1.3.1.6.2.9l.1.2c.2.8.6 2.1 1.3 2.6.5.3 1.7.7 3 .9.8.1 1.7.1 2.5.1 2.1-.1 4.2-.4 5.1-.8.9-.3 1.1-.9 1.4-1.9 0-.1.1-.3.1-.4v-.1s.4-2.4.6-4.3c1.1.1 2.2.4 2.2.4l.2-1.3c-1.2-.4-2.4-.6-2.4-.6z" fill="#545352"/><path d="M30.7 39.6s-2.9-1.4-4.6 1.2c0 0-.2-2.6 2.2-2.8 2.3-.3 2.4 1.6 2.4 1.6m-1.1-3.7s-2.7-1.3-3.9 1.2c0 0-.4-2.1 1.5-2.6s2.4 1.4 2.4 1.4m11.5 5.3s2.3-1.1 3.5.9c0 0 .1-2-1.7-2.2-1.8-.2-1.8 1.3-1.8 1.3m1.6-3.6s2.3-.4 2.7 1.7c0 0 .8-1.5-.6-2.3-1.4-.8-2.1.6-2.1.6" fill="#a0d1de"/><path d="M30.5 59.8s1.6-1.1 2.5-1.2c0 0 .2 2 1.1 3 0 0 2-1.8 4-1.9 0 0 .5 1.1 1.3 1.5.3.2.7.4 1 .5 0 0 1.1-.7 1.5-2 0 0 .1 2.7-1.6 4.1 0 0-1.3-.6-2.2-1.6-.3-.3-.6-.6-.7-.8 0 0-3 2.1-3.1 3.3 0 0-2.1-2.1-2.9-3.7 0 0-1.4.4-1.8.7 0 0-1.1-1.9-1.4-3.6.2.1 1.6 1.4 2.3 1.7" fill="#b2dce5"/><path d="M35.8 54.6c-.1 0 3 .2 6.1.1 0 0 .2-.6.4-.9 0 0-.1 1 .2 1.2 0 0-1.5.6-3.1.6 0 0 1.7-.3 2.2-.6.1 0-3 .2-5.8-.4" fill="#545352"/></svg>