<svg xmlns="http://www.w3.org/2000/svg" xmlns:xlink="http://www.w3.org/1999/xlink" viewBox="0 0 84 100"><defs><path id="a" d="M40.8 22.9c-4 1.3-6.4 2.3-14.5 6-4.5 2-16.9 7.1-19.9 12.6 10.4-6.1 9.5 3.1 11.1 11.3 1.3 6.7 7.9 8.5 18.5 8.3 9.3-.2 10.3 7.9 13.9 14.3C55.3 48.9 54.7 44.7 56 41c-.8-10.4-9.8-20.1-15.2-18.1"/></defs><use xlink:href="#a" overflow="visible" fill="#88ce02"/><clipPath id="b"><use xlink:href="#a" overflow="visible"/></clipPath><path d="M48.4 74.1c4.2-5.3 2.9-12 2.9-17.9 0-2.5 1.8-6 .9-5-3.4 3.9-10.8 8.1-17.1 9.5-16 3.4-16.8 7.3-15.8 8.6 2 3.6 28.3 8.8 29.1 4.8m-12-45.2c-5.1 2.1-19 7.7-22.7 9.7-.7.3-9.1 4.9-9.1 4.9.8 2.4 9.8 16 10.5 15.9-.8 5.1 2.2 1.3 3.2-1.1 3.4-9.5 16.8-23.6 17.3-24.3.2-.3-.3-1.8.5-3.3 1.2-1.9 3.2-3 .3-1.8" clip-path="url(#b)" fill-rule="evenodd" clip-rule="evenodd" fill="#54810c"/><path d="M40.8 22.9c-4 1.3-6.4 2.3-14.5 6-4.5 2-16.9 7.1-19.9 12.6 10.4-6.1 9.5 3.1 11.1 11.3 1.3 6.7 7.9 8.5 18.5 8.3 9.3-.2 10.3 7.9 13.9 14.3C55.3 48.9 54.7 44.7 56 41c-.8-10.4-9.8-20.1-15.2-18.1" fill="none" stroke="#000" stroke-width="1.791" stroke-miterlimit="10"/><path d="M61.4 14.3C46.3 19.5 33.8 21.6 11.9 31c-5 2.2-12.3 8.7-10.5 21.1C5.2 44 18.2 34.5 40.3 30.2c7.3-3.5 14.1-5.4 22.2-8.6-.6-3.6-.6-5-1.1-7.3" fill-rule="evenodd" clip-rule="evenodd" fill="#88ce02" stroke="#000" stroke-width="1.791" stroke-linejoin="round" stroke-miterlimit="3.582"/><g clip-rule="evenodd"><path d="M53.1 96.1c.5 3.1.1 3.3-3.1 3.7s-5.6-.8-6.4-1.6c-.9-.8-1-2.6-.2-4.2.5-1 1.1-1.4 1.3-2.6.3-1.2.5-1.5.8-1.9.2-.4.3-.8.4-3.6.1-2.8 0-8.1.3-10.3.3-2.3 10.2 1 10.2 1s-2.3 5.8-3 7.3c-.6 1.4-.6 4.2-.6 4.8s-.2 1.7-.4 1.8c-.2.1.6 1.5.3 2.4s.3 2.8.4 3.2zm3.7-87.5c-.3-2.2 0-6.5.5-7.2 1.5-2 9-2.2 10.6.1.7 1 .6 3.4.5 5s-.5 4.9-.6 5.9c-.1.8-8.3 2-10.2-.1-.5-.5-.8-3.7-.8-3.7zm16.9 82c3.5 2.5 6.2 3 7.9 3.9 1.8.9 1.3 2.7-1.7 3.2-2.4.4-6.2-.5-8.7-.5-2.5 0-8.1.3-9.6-.7-1.7-1.2-1-3.4-1-3.4.5-1.3 1.6-4.1 1.3-6.4-.4-2.3-.8-3.6-1.7-5.6-.9-2.1-1.5-7.4-.7-7.6s.6 0 1.6.3 2.2.6 4.4.6 4.7-.4 5.6-.5c.9-.2 1.6-.3 1.3 1.5-.3 1.8-1.1 5.1-1.2 7.7-.1 2.6-.1 5.5.1 6.1.3.2 1.5.7 2.4 1.4zm7-44.9s-1.1 3.7-3.3 4.9c0 0-1.6.6-4.8-1.2-.9-.5-1.6-2.3-1.6-2.8.1-1.4.9-2 .9-2s.9-1.5 2-1.5 2.9.2 3.5-.3c.7-.6 3.5 1 3.3 2.9z" fill-rule="evenodd"/><path d="M57.4 9.7s-.2 2.9-.6 4.8c-.1.3-1.8.5-3.1 1 2.4 6.9 16.9 6.8 18.8 3.4-.9-.6-2.8-1.6-3.6-2-.9-.3-.9-.2-.9-1.9-.1-1.6-.2-4.6-.3-5.4-.1-.7-8.9-.7-10.3.1z" fill-rule="evenodd"/><path d="M57.9 9.7s0 1.7-.2 3.3c-.1.7-.1 1.2-.2 1.8-.1.3 2 1.7 2.5 4.8 2.8 6.1 9.1 3.1 11.7.2-.9-.7-2.4-1.5-4.1-2.2-.9-.4-.5-1.1-.5-2.7-.1-1.6-.3-4-.4-4.8 0-1-7.4-1.2-8.8-.4z" fill-rule="evenodd" fill="#efefef"/><path d="M57.4 9.7s-.1 1-.2 2.3c.8.8 1.7 1.8 2.5 2.4.5.4 1.8.4 2.9.4 1.1 0 2 .1 2.4-.1.9-.5 2.2-1.6 3-2.5-.1-1.1-.1-2-.2-2.4-.2-.9-9-.9-10.4-.1z" fill-rule="evenodd"/><path d="M62.6 14c-.7 0-1.5 0-2.1-.2-.3-.1-.6-.2-.8-.4-.4-.3-.8-.6-1.3-1-.9-.7-1-1.1-1-1.3.4-3.6-.1-6.7-.1-6.7s-.4-1.6 1.8-2c2.2-.4 3.5-.4 3.5-.4s1.3 0 3.5.4 1.8 2 1.8 2-.5 3-.1 6.7c0 .2-.1.6-1 1.3-.8.6-1.4 1.2-2.1 1.3-.6.3-1.4.3-2.1.3z" fill-rule="evenodd"/><path d="M62.6.7c-3.8 0-4.6 1-5.6 2.2-.2.3 0 2 .3 5.7h.5s-.3-1-.3-2.3c0-1.2.3-1.1.1-1.5-.2-.2-.6-.8.4-1.4 1-.6 2.6.5 4.6.5 1.9-.1 3.6-1.1 4.6-.5s.6 1.1.3 1.5c-.2.3 0 .2.1 1.5 0 1.2-.3 2.3-.3 2.3h.5c.4-3.7.6-5.3.4-5.6-.9-1.3-1.8-2.4-5.6-2.4zm18.2 45.2s-1.1 3.5-3.2 4.7c-.5-.2-.4-.6-.8-1.1-.1-.2-.5-.3-.7-.5-.1-.2-.1-.5-.4-.7-.3-.2-.4-.1-.6-.3-.2-.2-.3-.5-.5-.7-.1-.1-.6-.2-.7-.3-.3-.3-2.8-.8-2.7-1.4.2-.9.7-1.5.7-1.5s1.1-1.6 2.2-1.5c1.1.1 2.1.3 2.7-.2.6-.5 4.1 1.6 4 3.5z" fill-rule="evenodd"/><path d="M73.3 20.5s3.6-.9 6.1 1.5c2.5 2.4 2.3 5.4 1.6 7.2.6.7 1.8 2.8.9 5.3 3.8 3.2 2.1 8.1-1.2 11.4 0 0-.8-3-4-3.2.1-1.1-3-2.1-1.6-5.1-2.2-.5-2.1-2-2.5-3.8-.4-1.7.7-13.3.7-13.3z" fill-rule="evenodd"/><path d="M72 22.1s4.2-2.1 6.6.3c2.5 2.4 1.8 5 1 6.9.6.7 2.1 2.9 1.2 5.4-.2.6-1.4.6-2.3 2.1 2.3-1.3 3.7-1 4.3.7.8 2.6-1 5.7-2.5 7.4 0-.1-.1-.1-.1-.2-.2.8-.5 2.5-2.2 4.4-.8.9-1.6.8-2.5.6-1.1-.3-1.6-.8-3.2-1.7-.9-.5-.4-1.1-.4-1.7 0-.1.1-.3.3-.5.1-.3.4-.7 1-1.2 0 0 .7-1 1.9-1 1.1 0 2.2-.2 2.5-.5 0-2-2.3-2.1-1.5-5.5 0-.2.3-.5 1.3-.5-1.4-.3-2-.4-3-1.3-.7-.6-1.2-1.4-1.4-2.4-.5-2-1-11.3-1-11.3z" fill-rule="evenodd" fill="#efefef"/><path d="M59.9 18.5c-.3-.5-2.1-2.7-5.5-3.7-1-.3-1.6.5-2.6 1.1-.3-.2-1.6-.7-2.2-.3-.7.4-1.1.8-1.9 1.1-.4-.1-.9-.4-1.6-.1-.7.3-2.3 1-3.4 2.5-.7 2.5 12.1.6 12.1.6l5.1-1.2z" fill-rule="evenodd"/><path d="M60 18.5c-1.9-.6-1.5-2.8-5.6-3.1-.8-.1-1.3.6-1.9 1 .3.3.6.7.7 1.2-.5-.6-1.4-1.3-2.3-1.5-.8-.2-1.4.5-2.4.9.2.2.4.4.6.8-.8-.5-1.4-.7-2.4-.3-.7.3-2.2.9-3.3 2.4-.7 2.5 11.6-.3 11.6-.3l5-1.1z" fill-rule="evenodd" fill="#88ce02" stroke="#000" stroke-width=".358" stroke-linejoin="round" stroke-miterlimit="3.582"/><path d="M70.8 19.4v-1.2c0-.1-.4-.4-.5-.5l-.1-.1s.9-.5 1.6-.2c.7.2 1.2 1.2 1.2 1.2 1.3-.4 1.4.1 2 .8 1.4-.3 1.5.2 2.4 1.5 0 0-1-.1-3 .1s-3.6-1.6-3.6-1.6z" fill-rule="evenodd"/><path d="M70.6 19.1s.4-.3.2-.4c.6-.3 1.5-.7 1.9.3 1.3-.4 1.5.2 2.1.9 1.6-.7 1.7.2 1.9.6-.5 0-1.3 0-2.3.2-2 .3-3.9-1.6-3.8-1.6z" fill-rule="evenodd" fill="#88ce02" stroke="#000" stroke-width=".358" stroke-linejoin="round" stroke-miterlimit="3.582"/><path d="M51 17.7s3.3 1.2 6 1c2.8-.2 7.4-.4 10 1 0 0 2.6-.9 5-.3 2.4.6 6.8 4.8 5.5 9.1-.1.3-.9.7-1.7 1 0 0 .5 2-.4 3.5-.8 1.5-2.6 4.5-2.6 8.6-.1.7-.2 2.1-.3 2.8-4.5-.2-11.4-1.8-18.1-1.7.1-.8.1-1.2.2-2h.2c-.4-1.9-.5-2.9-.8-4.3-2.2-1.4-4.5-3-6.4-6-1.9-2.8 3.4-12.7 3.4-12.7zm22.2 30.9s3.5 12.7-.7 18c0 0 .7 2.4-.8 5.1-.2 1.1-.5 2.2-.7 3.3-.7 4.8-2 6.8-2.3 14.4l-3.5-.1s-.4-5.5-1.6-8.4c-.7-1.6-3.4-3.9-3.3-6.1.1-1.7.5-3.2 3.4-5.4.2-3.3-3.1-6.5-2.6-18.8l12.1-2z" fill-rule="evenodd"/><path d="M72.1 48.1c.9 5.8 3 14.5-.8 18.7.2.8.3 1.9 0 3.3-.1.7-.3 1.4-.6 2.2-.6 1.3-.8 3.4-1 4.6-.7 4.8-.8 5-1.1 12.6l-3.5-.1s-.4-5.5-1.6-8.4c-.7-1.6-2.1-3.1-2.2-5.3-.1-1.7 1.1-5.1 3.9-5.1-.2-7-3.4-5.5-4.2-20l11.1-2.5zM51 17.7s1.2.4 2.7.5c1.4.1 2.9 0 4.2-.1 2.8-.2 6.6-.5 9.2 1 0 0 1.4-.5 3-.4.7 0 1.4.6 2.2.8 2.5.7 5 4.8 3.8 8.6-.1.3-.9 0-1.8.3.2.8.3 2.7-.7 4.6-1 1.9-2.2 4.4-2 9.3-6-.3-8.7-.7-14.7-.9-.5-2.1-.8-4.2-.9-5.3.8-.4 1.3-.7 1.9-1.4-1.7.3-2.4.2-3.5-.4-1.1-.6-2.9-2.4-3.8-3.6-.1-.1-.8 1.8-2.2 1.8-.5-.7 1.6-2.9 1.3-3.6-1.3-3 1.3-11.2 1.3-11.2z" fill-rule="evenodd" fill="#efefef"/><path d="M72.6 43.4s.1 2.1.1 2.6c0 .6.5 2.3.5 3.1-.7 1.1-3.4 3.5-8.3 4.4-4.9 1-11.5-6.7-11.5-6.7.2-.8.7-2.9 1.1-4.1.1-.1.2-.4.2-.5.5-.7 17.9 1.2 17.9 1.2z" fill-rule="evenodd"/><path d="M71.4 43.6c0 1.4.3 2.5.4 3.4.3 1.7.7 2.8.7 3.8 0 3.3-4.4 2.8-8 2.9-4.9 1-9.1-6.7-9.1-6.7.3-1.3.6-2.8 1.1-4.1.1-.7.2-1.5.2-1.9 7 0 11.9.4 14.8.7.1.5 0 1.6-.1 1.9z" fill-rule="evenodd" fill="#efefef"/><path d="M65.9 50.9s-3.1-6.7-12.2-4.7c-2.2 6.1-5.1 13.2-3.2 20.8-1.9 2.6-4.1 4-4.1 8.8 0 4.8.3 5.6.3 5.6l6.7.4s2.2-2.8 3.1-5.8c.3-.9.4-2.4.3-4.2.2-.3 1.2-1.2 1.3-2.7 0 0 3.3-1.7 5.2-5.9 1.7-4 1.2-7.2 2.6-12.3z" fill-rule="evenodd"/><path d="M65.9 50.9c-.2-.6-2.5-6.8-10.9-5-5 13.3-3.1 18.8-2.4 21.2-3.4 4.3-4.9 5.2-4.3 13.9h4.5c2-3.3 2.5-4.5 2.6-8.7 0-.2-.7.3-1.1.9.4-1.8 1.3-2.1 2.1-3.2.3-.5.6-1.1.6-2 4-2.7 5.5-6.1 6.3-9.6.7-2.4 1.5-6.4 2.6-7.5z" fill-rule="evenodd" fill="#efefef"/><path d="M51.7 41.7s1.6 0 2.9.5c1.3.5 1.3.7 1.8 1.3.5.6 1.8 1.4 1.5 2.3-.1.5-.4.6-.8 1-.2.2-1.4 1.5-1.7 1.7-.2.1-.4.3-.6.4-.2.1-.7.5-.9.6-.6.3-1 .4-1.6.4 0 0-1.4 0-2.3-1 0 0-.1-.5.1-.7 0 0-1.2-1-1.6-1.7-.3-.7-.3-1.6-.1-2.2.3-.5 2.5-2 3.3-2.6zm1.4 55.8l-.1 1.4s-.5.7-4.4.6c-3.9-.1-4.9-1.3-5.3-1.9l-.2-1.6s.7-1.1.9-1.1c1.3.1 5.6 1.8 8.6 2.3.3.1.3.2.5.3zm8.4-3c0 .7-.1.6-.1 1.3.7.5 2.4.8 5.7.7 4.8-.1 9.2 1.5 14.5.5v-1l-.5-.1L62 94.4l-.5.1z" fill-rule="evenodd"/><path d="M65.6 96.5h1.5c3.1-.1 6 .6 9.2.7 1.7-.1 3.8-.4 3.5-1.6l-16.2-1.4c-1.1 1.1-.3 2 2 2.3zM47 72.4c.5.3 4 2.4 9.7 2.1-.1 1.1 0 3.2-2.6 6.9-1.2 1.8-2.4 5-2.6 9.1 0 .9.6 1.7-.1 2.9.2.7 1.1 2.2 1.6 3.1.5.9.7 1.9-2.4 2-3.1.1-8.1-.3-7.4-2.7.4-1.3 1.3-2.6 1.4-3.1.1-.5.1-2.1 1.1-3.1.8-2.9.6-5.6.4-8.2-.2-2.5-.3-6.8.9-9zm5.3-46.7c4.1-5.4.7-9.8-5.9-8.5-2.6.5-5.3 2.3-5.5 5.6-.8.1-2.8.2-3.8 3.8-.8 2.7-1.1 3.3-2.4 4.7-.8 1 .1 3 .7 4.4 2.1 4.9 8.7 5.4 13.1 9.1 1.5-.4 3-2 3.5-3.1-3.7-4.4-2.9-6.1-4.4-8.4 1.5-.6 5.2-2.8 4.7-7.6z" fill-rule="evenodd"/><path d="M51.5 25.4c.2-.3.6-1.1.8-1.4 0-.1.7 1 .8 1 1.6-2.5 1.9-6.2.2-6.5-.4-.1-1.1-.2-1.8-.5-1.1-.4-2.2-.4-4-.1-2.5.5-5 2.3-5.1 4.9 0 .2 1.8.7 2.3 2.8-.8-1.2-2.3-2.5-4.1-1.4-1.9 1.2-.9 4-3.5 6.8-.9 1-.7 2.1.2 4.4 1.5 3.6 8.6 5.6 12.4 9 .9-.4 1.6-1.3 2-2-2.6-2.7-3.6-5.2-4.4-7-.9-2.1-1.9-3.3-3.9-4.9 1 .4 1.8.8 2.3 1.1.5.4 1.3.4 1.9.2 2.4-.8 3.7-4.2 3.9-6.4z" fill-rule="evenodd" fill="#efefef"/><path d="M76.4 26.3c-.2 2.2-1.8 1.1-2.7.7-1.7-.7-3.4-1.2-5.5-1.3-2 0-4.6.2-6.8.8-3.1.8-4 .8-5.4.1-1.4-.7-3.8-2.6-3.8-2.6s-.1.6.5 1.3c.7.9 2.4 2.1 4.7 2.8 1.1.4 2 .1 2.9-.1 5.1-1.3 10.5-1.5 15 1.3.2.1 1-.2 1.4-.8.6-.7-.3-2.2-.3-2.2z" fill-rule="evenodd"/><path d="M50.3 48.1c.5.3 1 .5 1.7 1 0 0-.5 0-.8-.2-.2-.2-.8-.7-.9-.8 0 .1 0 0 0 0z" fill-rule="evenodd" fill="#001423"/><path d="M66.9 2.7c-.2-.5-1.4-1.5-4.4-1.5-3.1 0-4.1 1-4.1 1.5 0 .2-.2 2-.3 2.7 0 0 0 .9.1 2.3 0 .9.3 1.4.4 2.6.1 1.2.5 2.1 1.1 3.1.3.2.5.3.8.4 1.1.3 3.2.3 4.3 0 .6-.1 1.4-1.3 1.6-2.2.2-1.2.5-2.1.5-2.8 0-.8.1-2.5.2-2.9.1-1.1-.2-3-.2-3.2z" fill-rule="evenodd" fill="#efefef"/><path d="M60.9 73.5s3 1.3 10.5.2c0 0-2.1 10.7-1.1 16 0 0 .9 1.4 8.2 4 0 0 3.2.8 3.1 2.4 0 0 .1.3-3.8.2-3.9-.1-7.6-.8-10.2-.8s-5.3.1-5.8-.6.1-2.5.8-3.5c.8-1.1.6-1.9.5-3.9 0-5-3.9-10.3-2.2-14z" fill-rule="evenodd"/><path d="M60.3 74.5c-.4.6 0 2.7.6 4.8.6 2.1 1.9 3.4 2.1 6.8.3 3.4.3 3.9-.6 5.9-1 2-1.3 3.8 2.1 3.9 3.4 0 5.2 0 8.6.4 3.4.5 4.6.7 6.5.4 1.9-.3 2.3-.9 1.5-1.5-.8-.6-4.1-1.2-5.6-2.3-1.4-1.1-5.3-2.8-5.3-3.2-.2-1.6-.2-7.2 0-9 .3-1.8.7-4.4.8-5.2.1-.7.7-1.4-.3-1.2-1 .2-4.6.8-7.4.6-2.5 0-2.9-.6-3-.4z" fill-rule="evenodd" fill="#88ce02" stroke="#000" stroke-width=".358" stroke-linejoin="round" stroke-miterlimit="3.582"/><path d="M62.2 92.2c1 .4 2.4.8 3.5.8 0 0-.4 1.9.2 3s-4.6.4-4.6.4l-.2-4 1.1-.2zm15.2 4.9c.9-.3 1.6-1.3.8-2.3-.8-1-1.5-1.2-.4-1.2 1 0 4.8 2.2 4.8 2.2l-2 1.8-3.2-.5zM60.1 76.7c1.3.5 3.3.6 5.1.5 1.7-.1 4.3-.3 6-.8 1.6-.5 1 .6 1 .6l-.9.8s-2.2.8-5.7.8c-4.2-.1-5.4-.5-5.4-.5l-.1-1.4zm.1 2.9c1.3.5 3.3.6 5.1.5 1.7-.1 4-.1 5.7-.7.7-.2.3.7.3.7l-.3.5s-2.2.8-5.7.7c-4.2-.1-4.9-.4-4.9-.4l-.2-1.3z" opacity=".3" fill-rule="evenodd"/><path d="M60.9 73.5s5 1.8 10.6.6c0 0-2.2 10.2-1.2 15.5 0 0 .9 1.4 8.2 4 0 0 3.2.8 3.1 2.4 0 0 .1.3-3.8.2-3.9-.1-7.6-.8-10.2-.8s-5.3.1-5.8-.6.1-2.5.8-3.5c.8-1.1.6-1.9.5-3.9 0-4.9-3.9-10.2-2.2-13.9z" fill="none"/><path d="M60.9 73.5s5 1.7 10.6.5c0 0-2.2 10.3-1.2 15.6 0 0 .9 1.4 8.2 4 0 0 3.2.8 3.1 2.4 0 0 .1.3-3.8.2-3.9-.1-7.6-1.2-10.2-.8-2.7.5-5.3.3-5.8-.6-.4-.8.1-2.5.8-3.5.8-1.1.6-1.9.5-3.9 0-4.9-3.9-10.2-2.2-13.9z" fill="none"/><path d="M56.4 39.4c0 .4 4.5 2.6 6.9 3.1 2.4.5 7.6 0 8.4-.2l-.1.8s-6.1.9-10.8-.4c-4.7-1.2-4.2-1.6-4.2-1.6l-.2-1.7z" fill-rule="evenodd"/><path d="M46.8 88.3c.7.3 3.1.9 4.8.6.2-.1 0-4 .7-5.7.9-2.4 2.4-4.4 3.1-8.8-2.4-.2-5.2-.8-6.6-1.3-1.9 5.6-1.3 10.4-2 15.2zm3.9 3.6c.4.1.7.6.8.3.2-.5-.4-1.5-.5-2.2v-.1c-.5-.5-4-.5-3.8-.3-.4.8-1 .6-1.3 2.1-.1.7.8.1 1.7.1-1.5 1-3.3 2.4-3.6 3.5-.4 1.6.2 2 1.9 2.9 1.5.3 3.2.4 4.6.3 1.5-.3 1.9-1 1.4-2.1-.6-1.4-1.1-3.4-1.2-4.5z" fill-rule="evenodd" fill="#efefef"/><path d="M51.3 17.5c1.9 1.1 4.5.8 5.5.7.2 0 2.5-.4 2.6-.4.2 0 .2.2.2.2s-.9.5-2.8.6c-1.8.1-4 0-5.2-.6-1.4-.5-.3-.5-.3-.5zm19.5 1.1c.3.3 2.6 1.1 3.6 2.1.9.9.4.9.2.6s-2-1.5-2.7-1.8-1.5-.8-1.5-.9c-.1-.1.4 0 .4 0z" fill-rule="evenodd"/><path d="M51 42.4c1.7-.1 3.4.3 4.5 1.4.6.6 1.5 1.2 1.4 1.8 0 .2-.4.7-.7 1l-.9.9c-.2.2-1 .8-1.2.9-.2.1-.4.4-.6.5-.6.3-1.2.1-1.8-.2-.6-.3.1-.3-.5-.8-1.5-1.1-2.4-1.8-1.8-3.9.2-.6.8-1 1.6-1.6z" fill-rule="evenodd" fill="#efefef"/><path d="M57.5 28.2c-1.3-.5-2.3 1-2 2.5.3 1.5 3.5 3.1 3.3 8.6-.1 4.5-1.1 6.3-1.1 6.3l-2.2-2.8s-.3-6.2-1.1-7.1c-.7-.9-3.1-2.6-4-3.4-.9-.9 1-2 .9-3.6-.1-1.6 1-4.7 1-4.7l5.2 4.2zm8 24.4c-.1 4.3.9 10.7 1.2 13.7.4 3 .9 3.3 0 4.6-.9 1.3-2.1 3.5-2.1 3.5l-3.9-.3s3.2-4 3.3-4.8c.2-.8-1.6-6.4-1.6-6.4l3.1-10.3zm-7.6-40.2c.8 1.8 1.8 2.6 3.3 3.1.9.3 4.6.8 6-.8.6-.7.2-2.7.2-2.7l-3.3 2.6-4.4-.8-.5-1.3-1.3-.1z" opacity=".4" fill-rule="evenodd"/><path d="M58.2 16.4c1.5 1 5.2 1.9 6.2 2.1 1 .2 2.7-1.1 3.5-1.4.9-.4 2.3-.6 4.1.9.2.2-.4.9-.4.9-.1-.1-.4-.1-.9-.3-.5-.2-.9-.4-1.5-.3-2.9.3-3.3 1.3-5.8.7-2.5-.6-3.2-1-5.6-.9" fill-rule="evenodd" fill="#88ce02" stroke="#000" stroke-width=".946" stroke-linejoin="round" stroke-miterlimit="3.582"/><path d="M57.7 16.6c1.9.8 5.6 1.7 6.6 1.9 1 .2 2.7-.8 3.5-1.3 1.4-.9 3.3-.1 4.1.8.6.6.8 1 .8 1.2 0 .2-.7 0-.7 0-.4-.2-.9-.2-1.2-.4-.5-.2-.9-.6-1.6-.5-2.9.3-3.4 1.3-5.9.7-2.5-.6-3.1-1.1-5.7-.9" fill-rule="evenodd" fill="#88ce02" stroke="#000" stroke-width=".358" stroke-linejoin="round" stroke-miterlimit="3.582"/><path d="M75.3 33.2c.2.9.6 2.5 1.5 3.3.4.4.5.5.1.5s-2.8-.1-2.8-.1l-.7-1.2 1.9-2.5z" opacity=".4" fill-rule="evenodd"/></g></svg>