<svg xmlns="http://www.w3.org/2000/svg" viewBox="0 0 46 100"><g fill-rule="evenodd" clip-rule="evenodd" fill="#da4648"><path d="M22.8 78.9c-5.9 0-10.4-.9-12.6-1.4-1.5-.4-2.7-.7-3.6-1.1l2.9 5 1.1 15.5c0 1.7 5.5 3.1 12.3 3.1s12.3-1.4 12.3-3.1l.9-15.7 2.7-4.8c-.9.4-2.1.8-3.6 1.1-2 .5-6.6 1.4-12.4 1.4zm16.3-50.4c-4.3.6-10 .9-16.1.9s-11.8-.3-16.1-.9c-2.1-.3-3.8-.6-5-1-.3-.1-.8-.3-1.2-.5l2.7 24.5c.1-.4.3-.8.4-1.3.3-.9.7-1.7 1.1-2.5.4-.8.9-1.6 1.3-2.3.5-.7 1-1.4 1.5-2 .5-.6 1.1-1.1 1.7-1.6.6-.4 1.2-.8 1.7-1 .6-.2 1.2-.4 1.7-.4.7 0 1.3.2 1.9.5.6.4 1.2.9 1.7 1.8.1.2.2.4.2.5v.5c0 .4-.1.7-.3.9-.2.2-.4.3-.7.3-.2 0-.4-.1-.6-.4-.2-.2-.4-.6-.7-1.1-.2-.4-.5-.7-.8-.9-.3-.2-.6-.3-.9-.3-.5 0-1.1.2-1.6.6-.6.4-1.2 1-1.7 1.7-.3.8-.9 1.6-1.4 2.5-.5.9-1 1.8-1.4 2.7-.4.9-.7 1.9-1 2.8-.2.9-.4 1.7-.4 2.4v.7c0 .3.1.5.2.7.1.2.2.4.4.5.3.2.5.3.7.3.3 0 .6-.1.9-.3.3-.2.7-.4 1.1-.7.4-.3.7-.6 1.1-1 .4-.4.7-.7 1-1.1.3-.4.6-.7.9-1.1.2-.3.4-.7.6-.9l1-3c.1-.3.3-.6.5-.7.2-.1.4-.2.6-.2.1 0 .2 0 .3.1.1 0 .2.1.3.2.1.1.1.2.2.3 0 .1.1.3.1.4 0 .4 0 .8-.1 1.2-.1.4-.2.7-.3 1.1-.1.3-.2.7-.4 1s-.3.7-.4 1.1l-.2.4c-.1.2-.2.5-.3.9-.1.3-.2.7-.4 1.2-.1.4-.3.9-.4 1.3-.1.4-.3.9-.4 1.3l-.3 1.2c-.1.3-.2.6-.2.9-.1.2-.1.4-.1.4 0 .1-.1.3-.2.5s-.2.3-.3.5c-.1.2-.2.3-.4.4-.1.1-.3.1-.4.1-.2 0-.4-.1-.5-.2-.1-.2-.2-.4-.2-.9v-.7c0-.1.1-.4.2-.8s.2-.8.4-1.3c.1-.5.3-1 .5-1.5s.3-1 .4-1.4c-.4.4-.8.9-1.3 1.3s-.9.8-1.4 1.1c-.5.3-.9.6-1.4.8-.5.2-.9.3-1.4.3-.5 0-.9-.1-1.3-.3-.1 0-.1-.1-.2-.1l1.5 15.5c.4 1 7.7 3.3 17.2 3.3 9.6 0 16.9-2.4 17.2-3.3L42.2 56l-.5.5c-.6.6-1.2 1.1-1.7 1.5-.5.4-1.1.7-1.6.9-.5.2-1.1.3-1.7.3-.6 0-1-.1-1.3-.4-.3-.2-.5-.6-.5-1v-.2c0-.3.1-.6.3-.9.2-.3.4-.7.7-1 .3-.4.6-.7.9-1.1.3-.4.6-.7.9-1.1.3-.3.5-.6.7-.9.2-.3.3-.5.3-.7 0-.1 0-.2-.1-.2-.1-.1-.2-.1-.4-.1-.3 0-.6.1-.9.2l-.9.6c-.3.3-.6.5-.9.9-.3.3-.6.7-.8 1-.3.4-.5.7-.7 1.1-.2.4-.4.7-.5 1 0 .1-.1.2-.2.4l-.3.6c-.1.2-.2.4-.3.7l-.3.6c-.1.2-.2.4-.2.5-.1.2-.1.3-.1.3 0 .1-.1.2-.2.4s-.2.5-.3.8l-.3.9-.3.9c-.1.3-.2.5-.3.7-.1.2-.1.4-.2.4l-.3.6c-.1.2-.2.4-.3.5-.1.2-.3.3-.4.4-.2.1-.3.1-.6.1s-.5-.1-.6-.2c-.2-.1-.3-.4-.3-.7 0-.2 0-.3.1-.5 0-.2.1-.4.2-.5.1-.2.1-.3.2-.5s.1-.3.2-.5c.4-.9.8-1.7 1.2-2.6.4-.9.8-1.7 1.2-2.6.1-.2.1-.4.2-.5l-.1.1c-.5.5-.9.9-1.4 1.2-.5.3-.9.6-1.4.8-.5.2-.9.3-1.3.3-.3 0-.5 0-.7-.1-.2-.1-.4-.2-.5-.4l-.3-.6v-.2c-.1.1-.3.2-.4.3-.5.3-.9.6-1.3.8-.4.2-.8.3-1.2.3-.3 0-.6-.1-.9-.3-.2-.2-.3-.6-.3-1.2 0-.4.1-.9.2-1.4-.2.3-.4.7-.7 1-.3.3-.6.7-1 .9-.4.3-.8.5-1.2.7-.5.2-.9.3-1.5.3-.2 0-.5 0-.7-.1l-.6-.3c-.2-.1-.3-.3-.4-.6-.1-.2-.2-.6-.2-.9v-.4c0-.3.1-.7.3-1.2.2-.5.4-1.3.7-2.1.3-.9.8-1.9 1.4-3.2.2-.3.3-.6.5-.7.2-.1.4-.2.6-.2h.3c.1 0 .2.1.3.1.1.1.2.1.2.2.1.1.1.2.1.3v.2c0 .1-.1.3-.2.6-.1.2-.3.5-.4.8-.2.3-.3.6-.5 1s-.3.7-.5 1.1c-.2.4-.3.8-.4 1.2-.1.4-.2.8-.2 1.1 0 .2 0 .3.1.4.1.1.2.2.4.2.5 0 .9-.2 1.4-.5.4-.3.8-.7 1.2-1.2.4-.5.7-1 1-1.5.3-.5.5-1 .7-1.5.1-.3.3-.6.4-.9l.3-.9c.1-.3.3-.5.4-.7.2-.2.4-.3.6-.3.3 0 .5.1.6.3.2.2.2.4.2.7 0 .2 0 .4-.1.6-.1.3-.2.6-.4.9-.1.3-.3.7-.5 1.1-.2.4-.3.8-.5 1.2-.1.4-.3.8-.4 1.2-.1.4-.1.8-.1 1.1 0 .3.2.5.5.5.2 0 .5-.1.8-.2.3-.2.7-.4 1.1-.7.1-.1.2-.1.3-.2.1-.4.2-.8.4-1.2.3-.7.5-1.3.8-2 .3-.7.5-1.3.7-1.8l3.3-8.3c.1-.3.3-.6.5-.7.2-.1.4-.2.7-.2.2 0 .4.1.6.2.2.1.3.4.3.7 0 .2 0 .3-.1.5s-.1.4-.2.6c-.2.4-.4.9-.6 1.5-.3.6-.5 1.2-.8 1.9-.3.7-.6 1.4-.9 2.2-.3.7-.6 1.5-.9 2.2-.3.7-.6 1.4-.8 2-.3.6-.5 1.2-.6 1.6-.1.2-.2.4-.2.7-.1.3-.1.5-.1.7 0 .1 0 .2.1.3 0 .1.1.1.3.1.2 0 .3-.1.6-.2.2-.1.5-.2.7-.4.3-.2.5-.4.8-.6.3-.2.6-.5.9-.7.3-.2.6-.5.8-.7.3-.2.5-.5.7-.7 0 0 .1-.1.2-.1.1-.4.2-.7.3-1.1.1-.2.1-.4.2-.7.1-.3.2-.6.3-.8.1-.3.3-.5.4-.7.2-.2.3-.3.5-.3.3 0 .5.1.6.2.1.1.2.3.2.6v.2c0 .1 0 .2-.1.4 0 .1 0 .2-.1.4 0 .1 0 .2-.1.2l.9-.9c.3-.3.6-.5 1-.8.3-.2.7-.4 1-.6.3-.1.7-.2 1-.2.2 0 .5 0 .7.1l.6.3c.2.1.3.3.5.5.1.2.2.4.2.7 0 .4-.1.7-.3 1.1-.2.4-.4.8-.7 1.2l-.9 1.2c-.3.4-.6.7-.9 1-.3.3-.5.6-.7.8-.2.2-.3.4-.3.4 0 .1 0 .2.1.3.1.1.2.1.3.1.1 0 .3-.1.5-.2s.6-.4 1-.7c.4-.3 1-.8 1.6-1.4.5-.4 1-.9 1.6-1.4l2.9-26.7c-.5.3-.9.4-1.2.5-1 .9-2.7 1.3-4.8 1.6zM23 22.1C10.5 22.1.4 23.5.4 25.2c0 1.7 10.1 3.1 22.6 3.1s22.6-1.4 22.6-3.1c0-1.7-10.1-3.1-22.6-3.1zm9 4.1c0 .4-1.2.7-2.7.7-1.5 0-2.7-.3-2.7-.7 0-.4 1.2-.7 2.7-.7 1.5-.1 2.7.3 2.7.7z"/><path d="M27.2 25.8c0 .1 0 .1 0 0 0 .3.9.5 2.1.5 1.2 0 2.2-.2 2.2-.5l2.8-11.4L45.5 2.6c.2-.3-.2-1.1-1-1.8s-1.7-1-1.9-.7l-12 12.6-3.4 13.1z"/></g></svg>