<svg xmlns="http://www.w3.org/2000/svg" viewBox="0 0 193 65"><path d="M88.8 31.6H74v17.1c0 1.2-.1 1.3-1.2 1.3h-2.3c-1.1 0-1.2-.1-1.2-1.1V11.7c0-1.1.1-1.1 1.1-1.1h2.7c.6 0 .8.3.8.8v15.9h14.8V11.5c0-1 .1-1.1 1.1-1.1h2.9c.5 0 .8.2.8.7v37.4c0 1.2-.1 1.2-1.2 1.2h-2.5c-.9 0-1-.2-1-1V31.6zm86.6 5.6c.1 2.5.5 4.9 2 6.9 2 2.7 4.8 3.3 7.9 2.7 1.6-.3 3.1-1 4.5-1.9.5-.3.8-.2 1 .3.3.8.7 1.6 1 2.3.1.2-.1.4-.2.7-.1.1-.2.2-.3.2-3.8 2.1-7.8 3.1-12.1 1.9-3.2-.9-5.5-2.9-6.8-5.9-2.5-5.8-2.5-11.6.4-17.2 2.7-5.3 9.4-7.2 14.5-4.4 2.5 1.4 3.7 3.6 4.5 6.2.7 2.3.8 4.7.8 7.1 0 .9-.2 1.1-1.1 1.1h-16.1zm12.3-3.6c.2-1.5-.3-4-1.1-5.4-1.3-2.5-3.7-3.5-6.4-2.7-3 .8-5.3 4.9-4.7 8.2 4-.1 8.1-.1 12.2-.1zm-83.9 3.6c.2 3.1.7 6 3.1 8.1 2.2 2 4.8 2.1 7.4 1.3 1.3-.4 2.6-1.1 3.9-1.7.7-.3.8-.4 1.1.4.3.7.5 1.4.8 2 .3.6.1.8-.3 1.1-1.2.6-2.5 1.2-3.7 1.6-2.6.9-5.3 1.1-7.9.4-3.7-.9-6.3-3.2-7.6-6.7-2.1-5.3-2.1-10.7.3-15.9 2.3-5.3 7.8-7.5 13.2-5.8 3.3 1.1 5.1 3.5 6 6.7.8 2.5.9 5 .9 7.5 0 .7-.4.8-1 .8h-15.3c-.3.2-.5.2-.9.2zm12.4-3.7c0-1.8-.3-3.6-1.1-5.3-1.2-2.5-3.7-3.6-6.4-2.9-3.4.8-5 5-4.8 8.2h12.3zm33.6-8c.6-.4 1.1-.8 1.6-1.2 2.5-1.8 5.3-2.9 8.4-2.7 1.2.1 2.4.3 3.5 1 1.7 1.1 2.3 2.9 2.5 4.8.1 1 .2 1.9.2 2.8V49c0 1-.1 1.1-1.1 1.1h-2.4c-.8 0-1-.2-1-1V29.9c0-.4 0-.8-.1-1.2-.4-2.3-1.7-3.3-4.1-3.2-2.7.2-5 1.5-6.9 3.4-.2.2-.2.6-.2.9V49c0 1.1-.1 1.2-1.2 1.2h-2c-1.1 0-1.2-.1-1.2-1.2V29.9c0-2-.1-4-1.1-5.8-.1-.2.1-.6.2-.7.9-.6 1.8-1.1 2.7-1.6.5-.3.8.1 1 .4.3.8.6 1.6.9 2.5.1.2.1.5.3.8zm-18.5.9c.5-.6.8-1.1 1.3-1.5.8-.8 1.7-1.7 2.6-2.4 1.5-1.1 3.2-1.2 4.9-.6.8.3.9.5.6 1.3l-1.2 2.7c-.2.4-.4.5-.8.3-1.2-.7-2.5-.5-3.4.4-1.2 1.1-2.2 2.3-3.3 3.5-.2.2-.2.5-.2.8v17.9c0 1-.1 1.1-1.2 1.1h-2.3c-.7 0-.9-.3-.9-1V29.4c0-1.7-.3-3.4-1.2-4.9-.6-1.1-.5-1.2.5-1.9.5-.3 1.1-.7 1.6-1 .7-.4 1-.4 1.4.3.5 1 .8 2.1 1.2 3.1.2.7.3.9.4 1.4z"/><path d="M23.1 17.7c.3-.1.6-.2.9-.4.8-.4 1.7-.8 1.8-1.9.1-.4.6-.7 1-1 0 0 0-.1-.1-.1-1.2-.2-2.4-.6-3.6-.7-.3-.1-.8.3-1.1.6-.6.6-1.1.7-1.8.4-.2-.1-.5-.2-.7-.2-.5.1-.8-.1-1-.6-.4-1-.4-1.1.5-1.5 0-.1 0-.1-.1-.1-1.1.1-1.3-.9-1.8-1.5-.2-.3-.1-.9.1-1.3.2-.5.6-1 .9-1.4.3-.4 2-1 2.5-.7.9.4 1.8.2 2.7-.1.4-.2 1-.3 1.3-.5.3-.2.6-.4.8-.7.5-.7 1-.9 1.8-.7.4.1.8.1 1.4.2-.7-.5-.6-1.2-.3-1.9.1-.3.1-.6.1-1-.1-.6.3-.8.7-.4.5.4.8 1 1.2 1.5l.3.6c.2-.2.4-.3.5-.4.1-.1-.1-.3-.2-.6.8.2 1 .8.4 1.8.5-.2.5-.2.8-1.5.8.2.6.9.7 1.5.1 0 .1 0 .2.1.1-.4.2-.8.3-1.3.2.3.4.7.7 1.1.2-.1.6-.2.9-.2.1 0 .3.1.4.1-.1.1-.1.2-.2.3.2.1.5.1.8.2 0 .1 0 .1.1.2-.3.2-.7.3-1.1.6.6 0 1 0 1.5.1.2.1.3.3.5.4-.2.1-.4.2-.6.2-.2 0-.3 0-.7-.1.5.4 1.5 0 1.5 1h-1.2c.8.4 1.6.7 2.3 1.2.2.1.3.3.4.6-.4.1-.7.2-1.1.3v.2c.4.1.8.1 1.2.1v.2c-.2.1-.4.2-.7.3.6.2 1.2.4 1.2 1.2-.4.2-.7.3-1 .5l.9 1.2c-.4.2-.7.4-1 .5l.2.2 17.9-4.2c-5.6-6-13.9-9.8-23-9.9C18.1-.1 6 9.7 1.9 22.7l21.2-5z" fill="#00a4d6"/><path d="M9.9 31.9c1.1-1.5 2.1-3 3.2-4.4.4-.5 1.2-.5 1.6.1.2.2.4.4.5.7.4 1 1.3 1.6 2.3 1.8.5.2.9.3 1 .8.1.2.2.3.4.6-1 .1-1.8-.2-2.7-.5-.3-.1-.6-.3-.8-.4-.5-.2-1-.2-1.5.1-1.2.5-1.6 1.4-2 2.6-.6 1.5-1.2 3.1-2.7 4.1-1 .7-1.6 1.5-1.5 2.7 0 .3-.1.7-.2 1 0 .3.1.7.1 1 .3-.1.6-.1 1-.2.2-.1.3-.2.5-.2 0 .2-.1.3-.3.4-.7.6-1.2 2-.8 2.9.1.2.6.3.7.3 1.3-.6 2.4-1.5 2.8-2.9.1-.5-.3-1.1-.6-1.7 0-.1-.1-.1-.1-.2-.3-.3-.6-.6-.2-1 .1-.1.6.2 1 .4.1 0 .1.1.2.2l.3-.9c.5 0 .6-.3.4-.9-.1-.3-.2-.6-.3-1 .3.2.5.2.7.3.1-.2.2-.4.2-.6-.1-.7.2-1.2.6-1.7.4-.7 1-1 1.7-1.1.8-.1 1.3.2 1.8.6 1.1.7 2.2 1.4 3.5 1.5.2 0 .5.2.7.3.9.8 1.9 1.2 3.1 1 .4-.1.7-.3 1-.4 1.6 1.5 3.4 2.2 5.6 2 1.2-.1 2.4 0 3.7.1l-3 1.8c-.6.3-1.1.7-1.5 1.2-.6.6-.6 1.5-.3 2.2.4 1 .9 2 2 2.4.2.1.4.3.6.6-.6-.7-1.1-.3-1.6.1-2 1.6-4.3 2.5-6.7 3.1-.8.2-1.3.7-1.5 1.4-.3 1.2-1.2 1.6-2.3 1.8-2.9.8-5.7 1.6-8.6 2.5-.4.1-.7.1-1.1-.2C5.6 51.5 2.3 45.5 1 38.5c-1-5.1-.7-10.2.8-15.3.2-.5.4-.7.9-.8 6.6-1.5 13.2-3 19.8-4.6h.3c-1.2.9-1.8 2.2-2.4 3.4 0 0 0 .1-.1.1-1.5.8-1.7 2.4-2.3 3.7 0 .1-.1.1-.2.1-1.1-.4-2.1-1-3.2-1.5-.8-.4-2.3.3-2.8 1.2-1.1 2-2.1 4.1-4.4 5-.3.1-.5.5-.7.8-.3.6-.4 1.2-.7 1.8-.3.8-.1 1.2 1 1.1-1.3.8-.7 1.9-.6 2.9 0 .1.5.3.7.2.5-.2 1-.6 1.5-.9.2-.1.3-.3.5-.4 1.1-1 1.1-2-.1-2.9-.4-.3-.4-.6-.2-.9.4-.4.6 0 .7.2.3.2.3.2.4.2zm46.7 11.8c.5-.9.8-1.7 1.3-2.3 1.1-1.6 1.9-3.4 2-5.3.1-3-1.7-6.1-5.6-5.2-1.4.3-2.8.7-4.2 1-.3.1-.7-.1-.9-.2-1.7-2.1-4-2.7-6.6-2.7-1 0-2 .1-3-.2-1.5-.3-2.9-.8-4.2-1.4-.7-.3-1.5-.8-2.1-1.3-.2-.1-.3-.5-.3-.7.1-.2.4-.4.6-.4.7-.2.9-.1 1.2.4.8-.3.8-.7-.2-1.7.4-.1.8-.2 1.1-.1.3.1.6.3.7-.2.2-.3.2-.7-.3-1-.1-.1-.3-.1-.4-.1.4-.7.8-.8 1.5-.6.5-.7.4-1.1-.5-1.6.3-.4.3-.4 1.5-.2.2-.8-.2-1.4-1.1-1.7.3-.4.7-.4 1.2-.3.6.2.6.1.5-.5-.1-.6-.4-1-1-1.1.1-.5.4-.7.9-.7.2 0 .6-.1.6-.1 0-.3 0-.6-.2-.8-.2-.3-.4-.6-.7-.8.9-.2 2-.4 3-.7 4.8-1.1 9.5-2.2 14.2-3.3.4-.1.7 0 1 .3 4.7 5.1 7.5 11.2 8.4 18.1.5 4.2.2 8.3-.8 12.4-.1.4-.3.7-.8.9-2 .6-4.1 1.2-6.1 1.7-.1.3-.3.3-.7.4z" fill="#007c31"/><path d="M50.4 35.3c.4-.1.7-.1 1.1-.2 1.4-.1 2.1 1 1.6 2.2-.2.4-.4.7-.7 1.1-1.3 1.5-1 3.1-.3 4.8.2.5.5 1 .8 1.6-1.2.3-2.3.7-3.4 1-.1.1-.3-.1-.4-.2-.4-.8-.8-1.6-.4-2.6.1-.3.1-.6.3-.8.8-2.2 1.4-4.4 1.4-6.9zm-10.1 7.1c.9.7 1.8 1.5 2.3 2.6.3.8.7 1.6 1.2 2.5-1.9.5-3.8 1-5.8 1.6.1-.9-.1-1.6-.6-2.2-.2-.3-.2-.9-.1-1.2.4-.7.9-1.2 1.5-1.8.4-.5.9-1 1.5-1.5z" fill="#007c31"/><path d="M56.6 43.8c-.1.2-.1.4-.1.6-.1 1 .1 2 .3 2.9.2 1-.4 2.2-1.3 2.6-.1.1-.2 0-.4.1.4-1.5-.1-2.6-1.1-3.6-.4-.4-.8-1-1.2-1.5L49.1 46c.3.4.7.8 1.1 1.2.8.7.8 1.1.3 2-.2.4-.3.9-.6 1.3-.2.3-.4.4-.7.6-.2.2-.6.2-.7.4-1 1-1.9 2-2.8 3-.2.3-.4.7-.3 1.1.1.5-.1.8-.5 1.1-.1-.2-.2-.4-.5-.7-.2.3-.3.5-.3.7 0 .6 0 .5-.5.6-.2.1-.4.3-.7.4-.3.1-.7 0-.9.1-.3.2-.2.6 0 1 .5.8.4 1.6-.3 2.2-.8.6-1.6 1.1-2.5 1.5-1.1.4-1.6-.3-1.3-1.1.1-.1.1-.2.1-.3.1-.8.2-1.7 1.3-1.7.1 0 .2-.1.3-.1l.3-.3c-.4 0-.7.1-1 0s-.8-.2-.8-.3c-.1-.3 0-.8.2-1.1.3-.6.7-1.2 1.2-1.7.5-.4 1.2-.7 1.8-1 .5-.3 1.2-.4 1.6-.8 1.3-1.3 2.4-2.8 2.4-4.8 0-.6-.2-1-.6-1.2-.2-.1-.4-.3-.7-.4l-6.7 2c-.1.1-.2.2-.4.3-1.5.9-3 1.1-4.7 1.1h-.3l-1.6.4c-.2.2-.3.3-.4.6.1-.1-.3-.1-.5-.1-.3.1-.6.1-.7.2l-1.5.9c-.1.1-.4-.1-.4-.2-.1-.3-.3-.4-.5-.4l-.3.1c-.1 0-.1.1-.2.1-.4.2-.3.5-.2.9.7 1.5.6 1.8-.7 2.7-.6.4-1.1.8-1.7 1.2-.3.2-.8.2-.9.1-.2-.2-.4-.7-.3-1 .1-.6.2-1.1.4-1.6.1-.3.4-.4.7-.6-.6-.1-.9-.2-1-.6l-10.7 3.1C17.2 62 24.8 65.1 33 65c14.6.1 27.2-9.7 31.2-23.4l-7.6 2.2z" fill="#fabb22"/></svg>