<svg xmlns="http://www.w3.org/2000/svg" viewBox="0 0 71 100"><path fill="#e44d26" d="M6.4 92L0 19.7h70.8L64.4 92l-29 8z"/><path fill="#f16529" d="M35.4 93.9l23.5-6.5 5.5-61.8h-29z"/><path fill="#ebebeb" d="M35.4 52.4H23.7l-.8-9.1h12.5v-8.9H13.2l.2 2.4 2.2 24.5h19.8zm0 23l-9.9-2.6-.6-7.1H16l1.2 13.9 18.2 5.1v-.1z"/><path d="M6.6 0h4.5v4.5h4.1V0h4.5v13.5h-4.5V9h-4.1v4.5H6.6V0zm19.1 4.5h-4V0h12.4v4.5h-4v9h-4.5l.1-9zM36.1 0h4.7l2.9 4.7L46.6 0h4.7v13.5h-4.5V6.8l-3.1 4.8h-.1l-3.1-4.8v6.7h-4.4V0zm17.4 0H58v9h6.3v4.5H53.5V0z"/><path fill="#fff" d="M35.4 52.4v8.9h10.9l-1 11.5-9.9 2.6v9.3l18.2-5.1.1-1.5 2.1-23.3.2-2.4h-2.4zm0-18v8.9h21.4l.2-2 .4-4.5.2-2.4z"/></svg>