<svg xmlns="http://www.w3.org/2000/svg" viewBox="0 0 72 100"><path d="M71.5 19.6H.5l6.7 72.2L36 100l28.9-8.2 6.6-72.2z" fill="#e6a329"/><path d="M36 25.5v68.4l23.4-6.6 5.7-61.8H36z" fill="#f1bf22"/><path d="M54.6 34.3h-36l-2.5 27 .1-.2h30.5l-1 11.4-9.7 3-9.9-2.8-.6-6.9h-9l1.3 13.8L36 84.7l18.2-5.2 2.5-27.2H24.3l.4-9h22.5l.3 5.2h9.1l-2-14.2z" fill="#fff"/><path d="M36 34.3H18.6l-2.5 27 .1-.2H36v-8.8H25.5l.4-9H36v-9zM25.5 65.7h-9l1.3 13.8L36 84.7v-9.2l-9.9-2.9-.6-6.9z" fill="#ebebeb"/><path d="M29.1 8.9h-6.3v4.5h10.8V0h-4.5v8.9zM49.2.1h-11v4.7c1.5 1.5 2.2 2.2 4.4 4.3h-4.4v4.3h11V9.1l-4.4-4.3h4.4V.1z" fill="#231f20"/></svg>