<svg xmlns="http://www.w3.org/2000/svg" viewBox="0 0 95 100"><path d="M17.6 15.4c-6 8.7-5.3 19.9-.7 29.1l.3.7.2.4.1.2.2.4c.1.3.3.5.4.8l.3.4c.2.3.3.5.5.8l.2.3c.2.4.5.7.7 1.1l.1.2c.2.3.4.6.7.9l.3.3c.2.3.4.5.6.8l.2.3c.3.3.6.7.9 1l.9.9.3.3.7.7.3.3c.3.3.6.6 1 .9l.2.1c.3.3.6.5.9.7l.4.3c.2.2.5.4.7.6l.4.3c.3.2.5.4.8.6l.3.2.1.1c.3.2.5.4.8.5l.3.2c.4.3.8.5 1.2.8l.3.2c.3.2.6.4.9.5l.5.3.7.3.2.1.3.1c.4.2.7.3 1.1.5l.2.1c.4.2.8.4 1.2.5l.3.1c.4.1.8.3 1.2.4l.1.1c.4.2.9.3 1.3.4l.3.1c.4.1.9.3 1.3.4C71 70 79.4 47.2 79.4 47.2 72.6 56.5 60 59 48 56.3c-.5-.1-.9-.2-1.3-.4l-.3-.1c-.4-.1-.9-.3-1.3-.4l-.2-.1c-.4-.1-.8-.3-1.1-.4l-.3-.1c-.4-.2-.8-.3-1.2-.5l-.3-.2c-.3-.2-.7-.3-1-.5l-.3-.1c-.3-.1-.5-.3-.8-.4l-.5-.3c-.3-.2-.6-.4-1-.5l-.4-.2c-.4-.2-.8-.5-1.2-.8l-.3-.2-.9-.6-.3-.2c-.3-.2-.6-.4-.8-.6l-.4-.3c-.3-.2-.5-.4-.8-.6l-.3-.2c-.3-.3-.6-.5-.9-.8l-.1-.1c-.3-.3-.7-.6-1-.9l-.3-.3-.7-.7-.3-.3-.9-.9c-.3-.3-.6-.7-.9-1l-.2-.3c-.2-.3-.4-.5-.6-.8l-.2-.3c-.3-.3-.5-.7-.7-1-6.6-9.1-9-21.5-3.7-31.8m13.8-1.3c-4.4 6.3-4.1 14.7-.7 21.3.6 1.1 1.2 2.2 1.9 3.2.7.9 1.4 2.1 2.2 2.8.3.3.6.7 1 1l.3.3c.3.3.7.6 1 .9.4.3.8.7 1.2 1l.3.2 1.2.9.6.4.3.2.9.6.1.1c.3.2.5.3.8.4l.3.1.6.3h.1c.4.2.8.4 1.2.5l.3.1c.3.1.6.3 1 .4l.4.2.9.3.4.1c.4.1.8.3 1.3.4 22.5 3.7 27.7-13.6 27.7-13.6-4.7 6.7-13.8 10-23.4 7.5-.4-.1-.9-.2-1.3-.4l-.4-.1-.9-.3-.6-.2c-.3-.1-.6-.3-1-.4l-.3-.1c-.4-.2-.8-.4-1.2-.5l-.5-.3-.3-.2c-.3-.1-.5-.3-.7-.4l-.2-.1-.9-.6-.3-.1-.6-.4-1.2-.9-.3-.2c-4.2-3.3-7.6-7.9-9.2-13.1C36.6 14 37 8 39.9 3.1m12.2-.4c-2.6 3.8-2.8 8.5-1 12.7 1.9 4.4 5.7 7.9 10.2 9.6l.6.2.2.1c.3.1.5.2.8.2 12.4 2.4 15.8-6.4 16.7-7.7-3 4.3-7.9 5.3-14 3.8-.5-.1-1-.3-1.5-.5-.6-.2-1.2-.5-1.7-.7-1.1-.5-2.1-1.1-3.1-1.9C53.8 14.3 50.4 6.4 54 0" fill="#0868ac"/><path d="M49.3 77.6h-3.5c-.2 0-.4.2-.4.3l-1.2 5.7-1.2 5.7c0 .2-.2.3-.4.3H40c-2.4 0-2.1-1.7-1.6-4v-.1l.1-.3v-.1l.1-.6.1-.6.1-.6.6-2.7.6-2.7c0-.2-.1-.3-.3-.3h-3.6c-.2 0-.4.2-.4.3l-.8 3.6-.8 3.6-.1.3c-.9 4-.6 7.9 4.1 8h7.6c.2 0 .4-.2.4-.3l1.6-7.6 1.6-7.6c.3-.1.2-.3 0-.3zm-37.1 0H8.4c-.2 0-.4.2-.4.3l-.4 1.6-.4 1.6c0 .2.1.3.3.3h3.8c.2 0 .4-.2.4-.3l.3-1.6.3-1.6c.2-.2.1-.3-.1-.3zm-1.1 4.9H7.2c-.2 0-.4.2-.4.3l-.5 2.4-.5 2.4-.2.7-.5 2.4-.5 2.4c0 .2-.1.5-.2.7 0 0-.7 2.1-1.9 2.1H1.3c-.2 0-.4.1-.4.3L.4 98 0 99.6c0 .2.1.3.3.3h3.1c3 0 4.6-1.7 5.6-6.5l1.2-5.5 1.1-5.2c.1 0-.1-.2-.2-.2zm70.6-1.3l-.2-.7-.2-.7-.1-.3c-.3-1.2-1.2-1.9-3.2-1.9h-9.1c-.2 0-.4.2-.4.3l-.1.7-.2.8v.2l-1.4 6.8-1.4 6.4c0 .2-.1.4 0 .5 0 .1.4.2.6.2h2.9c.2 0 .4 0 .5-.1.1 0 .3-.4.3-.6l.5-2.5.5-2.5.1-.3.6-2.9.6-2.6c0-.2.2-.3.4-.3h9.1c.1-.1.2-.3.2-.5zm11.7-5.9h-3.6c-.2 0-.4.1-.5.3L82.8 85c-.1.2-.2.1-.3-.1l-.5-2c0-.2-.2-.3-.4-.3h-4.1c-.2 0-.3.2-.3.3l1.9 6.5c.1.2.1.5 0 .7l-.8 3.1c0 .2.1.3.3.3h4.1c.2 0 .4-.2.4-.3l.8-3.1c0-.2.2-.5.3-.6l10.4-13.9c.1-.2.1-.3-.1-.3h-1.1zm-32.9 8.1c0 .2-.2.4-.4.4h-5.2c-.2 0-.3-.1-.2-.3v-.1c.5-1.3 1.5-2.2 3.4-2.2 2.1 0 2.5 1 2.4 2.2zm-1.5-6c-6.7 0-8.3 4.1-9.2 8.2-.9 4.2-.8 8.1 6.1 8.1h6.2c.2 0 .4-.2.4-.3L63 92l.1-.3.3-1.6c0-.2-.1-.3-.3-.3h-6.3c-2.5 0-3.2-.7-3-2.6h10c.2 0 .3-.1.4-.3v-.1c1.6-5.6 1.1-9.4-5.2-9.4zm-31.9 6l-.1.3-.8 2.7-.8 2.7c-.1.2-.3.3-.4.3h-4c-3 0-3.8-2.4-3-5.9.7-3.6 2.2-5.8 5.2-6 4.1-.3 4.9 2.6 3.9 5.9zm2.8 5.8s1.9-4.6 2.3-7.2c.6-3.5-1.2-8.7-8-8.7s-9.8 4.9-10.9 10.2c-1.1 5.4.4 10.1 7.1 10h10.3c.2 0 .4-.2.4-.3l.9-3.3c0-.2-.1-.3-.3-.3h-1.6c-.2 0-.3-.1-.2-.4zm33.7-3c0 .1-.1.2-.2.2s-.2-.1-.2-.2.1-.2.2-.2c.1-.1.2 0 .2.2z" fill="#131b28"/></svg>