<svg xmlns="http://www.w3.org/2000/svg" viewBox="0 0 98 100"><path d="M97.5 22.6c0 .1.1.3.1.4v21.5c0 .6-.3 1.1-.8 1.4l-18 10.4v20.6c0 .6-.3 1.1-.8 1.4L40.4 99.8c-.1 0-.2.1-.3.1H40c-.3.1-.5.1-.8 0 0 0-.1 0-.1-.1-.1 0-.2-.1-.3-.1L1.2 78.1c-.5-.3-.8-.8-.8-1.4V12.4c0-.1 0-.3.1-.4 0 0 0-.1.1-.1 0-.1.1-.2.1-.2 0-.1.1-.1.1-.1 0-.1.1-.1.1-.2 0 0 .1-.1.2-.1s.1-.1.2-.1L20 .2c.5-.3 1.1-.3 1.6 0L40.4 11c.1 0 .1.1.2.1s.1.1.2.1c.1.1.1.1.1.2l.1.1c0 .1.1.2.1.2s0 .1.1.1c0 .1.1.3.1.4v40.2l15.7-9V23c0-.1 0-.3.1-.4 0 0 0-.1.1-.1 0-.1.1-.2.1-.2 0-.1.1-.1.1-.1 0-.1.1-.1.1-.2 0 0 .1-.1.2-.1s.1-.1.2-.1L76.7 11c.5-.3 1.1-.3 1.6 0l18.8 10.8c.1 0 .1.1.2.1 0 0 .1.1.2.1.1.1.1.1.1.2l.1.1c0 .1.1.2.1.2-.3 0-.3.1-.3.1zm-3.1 21V25.7l-6.6 3.8-9.1 5.2v17.8l15.7-8.9zM75.6 75.9V58l-8.9 5.1-25.5 14.6v18l34.4-19.8zm-72-60.8v60.8L38 95.7v-18L20 67.5c-.1 0-.1-.1-.2-.1l-.1-.1c-.1 0-.1-.1-.1-.2s-.1-.1-.1-.2-.1-.1-.1-.2-.1-.1-.1-.2V24.1l-9.1-5.2-6.6-3.8zM20.8 3.4l-15.7 9 15.7 9 15.7-9-15.7-9zm8.1 56.2l9.1-5.2V15.1l-6.6 3.8-9.1 5.2v39.3l6.6-3.8zM77.2 14l-15.7 9 15.7 9 15.7-9-15.7-9zm-1.6 20.8l-9.1-5.2-6.5-3.9v17.8l9.1 5.2 6.6 3.8V34.8zM39.6 75l23-13.1 11.5-6.6-15.7-9-18 10.4L24 66.1 39.6 75z" fill="#ff2d20"/></svg>