<svg xmlns="http://www.w3.org/2000/svg" viewBox="0 0 65 65"><path d="M.015 65.038h64.99V.048H.015v64.99z" fill="#00539b"/><path d="M32.464 3.744c-15.96 0-28.793 12.834-28.793 28.793s12.833 28.794 28.793 28.794a28.72 28.72 0 0028.793-28.794A28.72 28.72 0 0032.464 3.744" fill-rule="evenodd" clip-rule="evenodd" fill="#ffed00"/><path d="M30.61 33.188l-5.1-5.101-5.924 5.923v2.14l1.48-1.482 4.114 4.114-1.48 1.48.987.988 8.226-8.227v-1.974l-2.303 2.139z" fill-rule="evenodd" clip-rule="evenodd" fill="#e3000f"/><path d="M6.905 27.126h9.05V29.1h-1.481v6.417l5.265-2.961v5.43H6.905V36.01h1.481v-6.746h-1.48v-2.139zm38.345 0V29.1h1.48v6.746h-1.48v1.975h12.833v-5.43l-5.265 2.962v-6.417h1.48V26.96H45.25z" fill-rule="evenodd" clip-rule="evenodd" fill="#00539b"/><path d="M24.801 21.053c1.81 0 3.29 1.48 3.29 3.126 0 1.81-1.48 3.29-3.29 3.29s-3.29-1.48-3.29-3.29c.164-1.645 1.645-3.126 3.29-3.126" fill-rule="evenodd" clip-rule="evenodd" fill="#e3000f"/><path d="M32.464 61.35A28.72 28.72 0 013.67 32.557 28.72 28.72 0 0132.464 3.763a28.72 28.72 0 0128.793 28.794A28.72 28.72 0 0132.464 61.35m0-59.726c-16.947 0-30.768 13.821-30.768 30.768S15.517 63.16 32.464 63.16s30.768-13.821 30.768-30.768S49.575 1.624 32.464 1.624" fill-rule="evenodd" clip-rule="evenodd" fill="#e3000f"/><path d="M40.106 27.126h-8.555V29.1h1.48v6.746h-1.48v1.975h8.555c6.417 0 6.417-10.695 0-10.695" fill-rule="evenodd" clip-rule="evenodd" fill="#00539b"/><path d="M38.936 34.523h-.494v-4.114h.33c1.974 0 1.974 4.114.164 4.114" fill-rule="evenodd" clip-rule="evenodd" fill="#ffed00"/></svg>