<svg xmlns="http://www.w3.org/2000/svg" viewBox="0 0 215 65"><path d="M106.9 57.4h-1.7c0-1.5.6-2.4 1.7-2.4h.1c.5 0 .9.2 1.2.6.3.4.5 1 .5 1.8h-1.8zm0-3.6c-1 .1-1.8.4-2.5 1.1-.7.8-1 1.7-1 3.1 0 2.6 1.3 4.2 3.4 4.3.1 0 .2.1.3.1 1.1 0 2-.4 2.8-1.1l-.6-.9c-.6.5-1.2.8-2 .8-.2 0-.3 0-.5-.1-.6-.1-1-.4-1.3-.9-.2-.4-.3-.9-.3-1.6v-.2h4.9v-.3c0-1.9-.3-2.8-1-3.5-.5-.4-1.3-.8-2.2-.8zm-7.1 6.4c-.3.5-.9.9-1.7.9H98c-.5 0-.9-.1-1.1-.4-.5-.5-.7-.9-.7-2.5 0-1.1.1-1.7.5-2.2.3-.5.8-.8 1.3-.8h.1c.8 0 1.3.2 1.7.7v4.3zm1.5-9.6l-1.5-.2v3.1c0 .6.1 1.2.1 1.4-.6-.6-1.1-.9-1.9-1h-.2c-.6 0-1.1.2-1.6.5-1.1.7-1.7 2-1.7 3.8 0 2.6 1.2 4.2 3.3 4.2h.2c.8-.1 1.4-.3 2-.9.1.4.1.5.1.7h1.5c-.2-.5-.2-1.4-.2-2.7v-8.9h-.1zm-19 9.7c-.3.6-.9 1-1.5 1.1h-.2c-.8 0-1.3-.5-1.3-1.4 0-.5.1-.8.4-1.2.2-.2.6-.4 1.1-.5.3-.1.6-.1 1-.1h.5v2.1zm1.5-.7c0-1.2.1-2.5.1-3 0-.8-.1-1.1-.2-1.4-.3-.9-1.2-1.3-2.4-1.3h-.5c-1.3.1-2.2.7-2.9 1.1l.7 1.1c.6-.5 1.5-.8 2.2-.9.1-.1.2-.1.3-.1 1.1 0 1.3.7 1.3 1.6v.5h-.6c-.3 0-.7 0-1 .1-2 .2-3.2 1.2-3.2 2.8 0 1.6 1 2.4 2.6 2.4.2 0 .4-.1.6-.1 1.1-.2 1.6-.8 1.8-1 .2.6.6 1 1.1 1.1l.8-1c-.7-.3-.7-.7-.7-1.9zm8.6-4.5c.1.3.2.7.2 1v6.1h-1.5v-5.4c0-.7-.1-1-.3-1.2-.1-.2-.5-.3-.8-.3-.6 0-1.5.5-2 1v6h-1.5v-6c0-1-.1-1.3-.3-1.9l1.4-.4c.2.4.3.7.3 1.2.5-.4.7-.6 1.1-.8.5-.3 1-.4 1.5-.4.8 0 1.6.4 1.9 1.1zm50-1.3c.2 0 .3.1.5.1l-.5 1.5c-.2-.1-.3-.1-.5-.1-.9 0-1.7.7-1.7 1.6v5.2h-1.5v-6c0-1-.1-1.5-.3-2l1.4-.3c.2.3.3.8.3 1.2v.1c.7-.7 1.4-1.3 2.3-1.3zm-16.7 6.6c-.3.4-.8.7-1.3.7-.7 0-1.4-.4-1.8-.8v-4.1c.2-.2.2-.3.5-.5.5-.3.8-.5 1.3-.5.6 0 1.2.3 1.5.8.3.5.3.9.3 2-.1 1.2-.2 1.9-.5 2.4zm-1-6.5c-.1 0-.2 0-.3.1-.7.1-1.2.3-1.8.8h-.1c.1-.1.1-.5.1-.8v-2c0-.7-.1-1.1-.2-1.7l-1.6.3c.2.5.3 1 .3 2v7.7c0 1-.1 1.5-.2 1.9h1.4c.1-.2.2-.4.2-.9.5.6 1.1 1 1.9 1.1h.3c.7 0 1.2-.2 1.7-.6 1-.7 1.5-2 1.5-3.7-.1-2.6-1.3-4.2-3.2-4.2zm-6.5 1.2c.2.3.2.7.2 1v6.1H117v-5.4c0-.7-.1-1-.3-1.2-.2-.2-.5-.3-.8-.3-.6 0-1.5.5-2 1v6h-1.5v-6c0-1-.1-1.3-.3-1.9l1.5-.4c.2.4.2.7.2 1.2.5-.4.7-.6 1.1-.8.5-.3 1-.4 1.5-.4.8 0 1.5.4 1.8 1.1zm17.7 4.9c0 .8.2 1.4.5 1.7l-1 .8c-.4-.3-.6-.6-.8-1.1-.6.8-1.4 1.1-2.4 1.1-1.1 0-1.9-.5-2.2-1.2-.1-.3-.2-.8-.2-1.4v-5.7l1.5-.3v5.6c0 .8.1 1.2.4 1.5.2.2.6.3 1 .3.7 0 1.5-.6 1.9-1.3v-5.8l1.5-.3-.2 6.1zm10.9-1.9c-1 0-1.5-.5-1.5-1.5s.6-1.5 1.5-1.5c1 0 1.5.5 1.5 1.5s-.5 1.5-1.5 1.5zm4.6-3.3l-.7-1c-.5.3-.9.5-1.3.5s-.8-.2-1.2-.3c-.5-.1-.8-.2-1.3-.2-1.9 0-3.1 1.1-3.1 2.7 0 1.1.7 2 1.9 2.4-1 .3-1.6.7-1.6 1.4 0 .6.4 1 1.1 1.1.3 0 1 .1 1.5.1h.1c1.5 0 2.1.5 2.1 1.2 0 .8-.7 1.4-2 1.4h-.1c-1.2-.1-1.9-.5-1.9-1.3 0-.2.1-.5.2-.6l-1.5.1c-.1.2-.2.5-.2.8 0 1.3 1.2 2.1 3.3 2.1h.3c2 0 3.4-.9 3.4-2.6 0-1.2-.8-2.2-2.9-2.2h-1.3c-.4 0-.6-.2-.6-.4 0-.3.6-.6 1.1-.8.1-.1.2-.1.2-.1 2.1 0 2.9-1.3 2.9-2.5 0-.6-.2-1-.6-1.5.4.1.5.1.7.1.7.1 1-.1 1.5-.4zm-74.9-1c.2 0 .4.1.5.1l-.5 1.5c-.2-.1-.3-.1-.5-.1-.9 0-1.7.7-1.7 1.6v5.2h-1.5v-6c0-1-.1-1.5-.3-2l1.5-.3c.1.3.3.8.3 1.2v.1c.6-.7 1.4-1.3 2.2-1.3zM67 61h-2.2v-3.9h2.1c.4 0 .7.1.9.1.7.2 1.2 1 1.2 1.9 0 1.3-1.1 1.9-2 1.9zm-2.2-8.6h2.1c.2.1.5.1.6.1.7.2 1.1.8 1.1 1.6 0 .4-.1.8-.3 1.1-.3.4-.6.6-1.3.6h-2.1l-.1-3.4zm3.4 3.9c1.3-.5 2-1.3 2-2.5 0-1-.5-1.8-1.5-2.4-.5-.3-.9-.3-1.9-.4h-3.6v11.1h3.6c.6 0 1.1-.1 1.6-.2 1.3-.3 2.2-1.3 2.2-2.9.1-1.3-.7-2.3-2.4-2.7zm-54.1-7.9l2.4 2.4c3.9-1.3 8.9-11.1 12.4-19.3L27 32.7c-1.7 3.7-7.4 15.3-12.9 15.7zm18.8-23.7c-2.3 5.1-3.5 10.3-3.3 13.9.1 1.5.6 2.7 2.8 2.5 4.2-.5 11.3-3.5 14.2-7.5 1.1-1.6 1.2-3-.2-4.4-2.1-2-7.4-3.5-13.5-4.5zm-2.2-.3c-7.6-1.1-15.9-1.3-20.7-.6-7.6 1.1-8.6 5.1-8.7 10 0 4.3 1.8 8.3 7.4 7.1 10.3-2.2 17.5-8.8 22-16.5zm1-1.7c3.7-6.9 5.3-14.4 5.1-19.9-.1-2.7-1.6-3.3-4-3-7.6.8-16.9 5.5-20.3 11-1 1.5-1.6 3.7.1 5.3 3.3 3.3 11.1 5.7 19.1 6.6zM53 12.8c.7 3.3.6 5.8-1.7 7.2-3.8 2.5-10.6 3.3-17.5 2.8 2.8-5.5 6.9-10.6 11.7-13.4 3.2-1.7 6.6-.9 7.5 3.4zm154.9-3.2h-.8V7.9h.5c.1 0 .2 0 .3.1.2 0 .3 0 .4.1.3.1.5.4.5.8 0 .3-.1.5-.2.7h-.7zm.8.9c.8 0 1.5-.8 1.5-1.8 0-1.1-.8-1.9-1.9-1.9h-2.5v6.5h1.3v-2.7c.1 0 .2 0 .2.1.2.1.3.2.6.8.1.2.3.5.5.8.3.5.4.6.6 1.1h1.6s-1.2-2-1.6-2.5c-.1-.2-.2-.2-.3-.4zm-.8 4.3c-2.5 0-4.6-2.1-4.6-4.7s2-4.6 4.5-4.6h.1c2.5 0 4.4 2.1 4.4 4.6s-1.9 4.7-4.4 4.7zm0-10.4c-3.3 0-5.8 2.6-5.8 5.8 0 3.3 2.6 5.8 5.8 5.8h.1c3.1-.1 5.7-2.6 5.7-5.8-.1-3.3-2.7-5.8-5.8-5.8zM110 22.1c0-4.3-3.5-7.6-7.8-7.6s-7.8 3.4-7.8 7.6c0 4.3 3.5 7.7 7.8 7.7 4.3-.1 7.8-3.5 7.8-7.7zm10.1 0c0 9.8-8 17.7-17.9 17.7s-17.9-7.9-17.9-17.7c0-9.7 8-17.7 17.9-17.7s17.9 7.9 17.9 17.7zm72.3 0c0-4.3-3.5-7.6-7.8-7.6s-7.8 3.4-7.8 7.6c0 4.3 3.5 7.7 7.8 7.7 4.3-.1 7.8-3.5 7.8-7.7zm10.1 0c0 9.8-7.9 17.7-17.8 17.7s-17.9-7.9-17.9-17.7c0-9.7 8-17.7 17.9-17.7 9.8 0 17.8 7.9 17.8 17.7zm-33-17.5h-23.3l-1.9 9.5h7.4v25.1h10.2V14.1h5.7l1.9-9.5zm-24.8 0h-23.3l-1.9 9.5h7.4v25.1h10.2V14.1h5.7l1.9-9.5zM73.6 29.5h11.5l-1.9 9.6H63.3V4.6h10.3v24.9z" fill="#d22321"/></svg>