<svg xmlns="http://www.w3.org/2000/svg" viewBox="0 0 200 65"><path d="M45.7 39l-.8-5.7c-.2-1.1-.3-2-.4-2.8-.2.8-.4 1.6-.7 2.5l-1.9 6h-2.3l-1.8-5.5c-.3-1-.6-2-.8-3-.1 1.1-.2 2-.3 3L36 39h-2.3l1.8-11.9h2.7l2 6.1c.3.8.5 1.7.7 2.5.2-.9.4-1.6.7-2.5l2-6.2h2.7l1.9 11.9m6.2-3.8c-2.4 0-2.9.7-2.9 1.4 0 .6.4.9 1 .9 1.1 0 1.9-1.1 1.9-2.1v-.2zm.2 3.9c0-.5 0-1 .1-1.5-.4 1-1.5 1.7-2.8 1.7-1.6 0-2.5-.9-2.5-2.3 0-2.1 2.1-3.2 5.1-3.2v-.5c0-.9-.4-1.4-1.7-1.4-.8 0-1.9.3-2.6.7l-.2-1.9c.9-.3 2-.5 3.1-.5 2.8 0 3.6 1.1 3.6 3.1v3.7c0 .7 0 1.5.1 2.3m6.8-4.1c-2.4 0-2.9.7-2.9 1.4 0 .6.4.9 1 .9 1.1 0 1.9-1.1 1.9-2.1v-.2zm.2 3.9c0-.5 0-1 .1-1.5-.4 1-1.5 1.7-2.8 1.7-1.6 0-2.5-.9-2.5-2.3 0-2.1 2.1-3.2 5.1-3.2v-.5c0-.9-.4-1.4-1.7-1.4-.8 0-1.9.3-2.6.7l-.2-1.9c.9-.3 2-.5 3.1-.5 2.8 0 3.6 1.1 3.6 3.1v3.7c0 .7 0 1.5.1 2.3m3.9 0c-.6 0-1.3-.1-1.8-.2l.1-1.9c.5.1 1.2.3 1.9.3.9 0 1.4-.4 1.4-.9 0-1.6-3.5-.7-3.5-3.6 0-1.5 1.3-2.8 3.7-2.8.5 0 1.1.1 1.6.2l-.1 1.8c-.5-.1-1.1-.2-1.6-.2-.9 0-1.3.4-1.3.9 0 1.4 3.6.8 3.6 3.6-.1 1.6-1.6 2.8-4 2.8m8.8 0c-1.9 0-2.5-.7-2.5-2.8V32h-1.5v-1.7h1.5v-2.7l2.3-.6v3.3h2.1V32h-2.1v3.8c0 1.1.3 1.4 1 1.4.4 0 .8-.1 1.1-.1v1.8c-.6.2-1.3.3-1.9.3m8.4-6.9c-1.6-.3-2.4.7-2.4 3.2v3.6h-2.3v-8.8h2.1c0 .4-.1 1.1-.2 1.8.4-1.1 1.3-2.1 2.8-2m1.7.2H91v8.8h-2.3v-8.8h.1zm1.1-1.2c-.8 0-1.4-.6-1.4-1.4 0-.7.6-1.4 1.4-1.4s1.4.6 1.4 1.4-.6 1.4-1.4 1.4m7 10.1c-2.4 0-4-1.3-4-4.3 0-2.7 1.4-4.8 4.5-4.8.6 0 1.2.1 1.8.2l-.2 2c-.5-.2-1-.3-1.6-.3-1.4 0-2.2 1.1-2.2 2.7 0 1.5.6 2.5 2.1 2.5.6 0 1.3-.1 1.7-.4l.2 1.9c-.5.3-1.4.5-2.3.5m9.6-.2v-5.6c0-.9-.2-1.5-1.1-1.5-1.1 0-2 1.3-2 2.8v4.2h-2.3V26.1h2.3v3.8c0 .5 0 1.3-.2 1.8.5-1 1.5-1.6 2.9-1.6 2 0 2.6 1.3 2.6 2.8v6.2m5.4.1c-1.9 0-2.5-.7-2.5-2.8V32h-1.5v-1.7h1.5v-2.7l2.3-.6v3.3h2.1V32h-2.1v3.8c0 1.1.3 1.4 1 1.4.4 0 .8-.1 1.1-.1v1.8c-.6.2-1.3.3-1.9.3m12.6 0c-3.8 0-4.6-2-4.6-4.3v-7.8h2.3v7.6c0 1.5.5 2.6 2.5 2.6 1.8 0 2.5-.7 2.5-2.8v-7.4h2.3v7.3c0 3.3-1.8 4.8-5 4.8m12.6-.2v-5.6c0-.9-.2-1.5-1.1-1.5-1.1 0-2 1.3-2 2.8v4.2h-2.3v-8.8h2.1c0 .4 0 1.1-.1 1.6.5-1 1.6-1.8 3-1.8 2 0 2.6 1.3 2.6 2.8v6.2m2.4-8.6h2.3v8.8h-2.3v-8.8zm1.2-1.2c-.8 0-1.4-.6-1.4-1.4 0-.7.6-1.4 1.4-1.4.8 0 1.4.6 1.4 1.4s-.6 1.4-1.4 1.4m8.1 9.9h-2.3l-3.2-8.8h2.5l1.4 4c.2.6.4 1.3.6 1.9.1-.6.3-1.3.5-1.9l1.4-4h2.4m4.7 1.5c-.9 0-1.6.7-1.7 1.7h3.2c.1-1-.5-1.7-1.5-1.7m3.7 3.3h-5.4c0 1.6.8 2.4 2.4 2.4.9 0 1.8-.2 2.6-.5l.2 1.7c-.9.4-2 .6-3.1.6-2.8 0-4.3-1.4-4.3-4.5 0-2.7 1.5-4.7 4.1-4.7s3.7 1.7 3.7 3.9c-.1.4-.1.7-.2 1.1m6.7-2.7c-1.6-.3-2.4.7-2.4 3.2v3.6h-2.3v-8.8h2.1c0 .4-.1 1.1-.2 1.8.4-1.1 1.3-2.1 2.8-2m3.1 9.1c-.6 0-1.3-.1-1.8-.2l.1-1.9c.5.1 1.2.3 1.9.3.9 0 1.4-.4 1.4-.9 0-1.6-3.5-.7-3.5-3.6 0-1.5 1.3-2.8 3.7-2.8.5 0 1.1.1 1.6.2l-.1 1.8c-.5-.1-1.1-.2-1.6-.2-.9 0-1.3.4-1.3.9 0 1.4 3.6.8 3.6 3.6-.1 1.6-1.6 2.8-4 2.8m5.7-8.9h2.3v8.8h-2.3v-8.8zm1.2-1.2c-.8 0-1.4-.6-1.4-1.4 0-.7.6-1.4 1.4-1.4.8 0 1.4.6 1.4 1.4s-.7 1.4-1.4 1.4m6.9 10.1c-1.9 0-2.5-.7-2.5-2.8V32h-1.5v-1.7h1.5v-2.7l2.3-.6v3.3h2.1V32h-2.1v3.8c0 1.1.3 1.4 1 1.4.4 0 .8-.1 1.1-.1v1.8c-.6.2-1.2.3-1.9.3m7.9.6c-1 2.7-2 3.6-4 3.6-.4 0-.9-.1-1.2-.1l.1-1.9c.4.1.8.2 1.2.2.7 0 1.2-.3 1.7-1.6l.3-.8-3.2-8.8h2.5l1.2 3.4c.3.8.5 1.6.7 2.4.2-.8.6-2 .8-2.8l1-3h2.4M5.3 29.9c-1.5 0-2.6-.7-2.6-2.4v-3.8h1.6v3.6c0 .9.3 1.3 1 1.3.5 0 1-.2 1-1.3v-3.6h1.6v3.8c0 1.6-1.1 2.4-2.6 2.4M0 17.8v17.4L17.9 27M19 41.5l-.7-4.3-1.1 4.3h-1.8l-1-4.3-.8 4.3h-1.5l1.4-6h2l.9 4.4 1.1-4.4h2l1.2 6H19zM3.8 39l17.9 8.2V29.8" fill="#00143f"/></svg>