<svg xmlns="http://www.w3.org/2000/svg" viewBox="0 0 200 65"><path d="M18.1 33.8L5.5 8.6v22.6c0 .6.1 1 .3 1.3.2.3.6.4 1.1.6v.7h-6v-.7c.6-.2.9-.3 1.1-.6.2-.2.3-.7.3-1.3V6.4c0-.6-.1-1.1-.3-1.3-.1-.3-.5-.4-1.1-.5v-.8h7.7v.7c-.6.2-1 .6-1 1 0 .2.2.7.7 1.7l10 19.8L28.4 7c.3-.7.5-1.2.5-1.5 0-.4-.3-.7-1.1-.9v-.8h7.9v.7c-.6.2-.9.3-1.1.6-.2.2-.3.7-.3 1.3v24.8c0 .6.1 1 .3 1.3.2.3.6.4 1.1.6v.7h-6.2v-.7c.6-.2.9-.3 1.1-.6.2-.2.3-.7.3-1.3V8.6L18.1 33.8zm42.1-7.2H46.4l-2.3 4.9c-.2.4-.3.8-.3 1 0 .4.4.6 1.1.8v.6h-5.7v-.6c.5-.1.9-.3 1.2-.6s.6-.9 1.1-1.9L51 10.4c.2-.5.3-.8.3-1 0-.3-.3-.6-.9-.7V8h6.3v.6c-.6.2-.9.4-.9.8 0 .1.1.4.3.9L65 30c.7 1.4 1.1 2.3 1.3 2.6.2.3.7.4 1.4.7v.6h-6.1v-.6c.7-.1 1.1-.4 1.1-.8 0-.2-.1-.6-.4-1.2l-2.1-4.7zm-1.1-2.5l-5.8-12.8-5.8 12.8h11.6zM95 18.2c3.5 1.2 5.2 3.6 5.2 7.2 0 1.8-.4 3.3-1.4 4.7-.9 1.3-2.2 2.3-3.7 2.8-1.6.6-3.8.8-6.7.8H70.9V33c.6-.2.9-.3 1.1-.6.2-.2.3-.7.3-1.3V6.4c0-.6-.1-1.1-.3-1.3-.2-.3-.6-.4-1.1-.6v-.7h17.9c1.8 0 3.2.2 4.3.4 1.2.3 2.2.7 3.1 1.4 2 1.4 3 3.5 3 6.2 0 3-1.4 5.1-4.2 6.4zm-19.2-1.4h11.6c1.6 0 2.8-.1 3.7-.2.8-.1 1.6-.3 2.2-.6.8-.3 1.5-.9 2-1.6.4-.7.7-1.6.7-2.6 0-1.3-.4-2.4-1.2-3.3-.7-.7-1.6-1.2-2.6-1.5s-2.7-.4-5-.4H75.8v10.2zm0 14.2h12c1.7 0 3-.1 3.8-.2.8-.1 1.6-.3 2.3-.7.9-.4 1.6-1 2.1-1.8s.7-1.8.7-2.8c0-1.4-.4-2.7-1.3-3.7-.7-.8-1.6-1.4-2.7-1.7-1.1-.3-2.8-.4-5.1-.4H75.8V31zm48-4.4H110l-2.3 4.9c-.2.4-.3.8-.3 1 0 .4.4.6 1.1.8v.6h-5.7v-.6c.5-.1.9-.3 1.2-.6s.6-.9 1.1-1.9l9.5-20.4c.2-.5.3-.8.3-1 0-.3-.3-.6-.9-.7V8h6.3v.6c-.6.2-.9.4-.9.8 0 .1.1.4.3.9l9.1 19.7c.7 1.4 1.1 2.3 1.3 2.6.2.3.7.4 1.4.7v.6h-6.1v-.6c.7-.1 1.1-.4 1.1-.8 0-.2-.1-.6-.4-1.2l-2.3-4.7zm-1.1-2.5l-5.8-12.8-5.8 12.8h11.6zm43.4-17.7l-3.2 5.4-.6-.3c.1-.4.2-.8.2-1.1 0-.6-.9-1.3-2.8-2.3-2.6-1.3-5.4-1.9-8.5-1.9-4.1 0-7.4 1.1-10 3.4-2.6 2.3-3.9 5.3-3.9 9s1.3 6.7 4.1 9.1c2.6 2.3 5.8 3.5 9.6 3.5 3.7 0 7-1.1 9.9-3.3 1.3-1 1.9-1.7 1.9-2.1 0-.2-.1-.6-.4-1l.5-.4 3.9 4.7-.6.4c-.4-.4-.7-.6-1-.6-.2 0-.4.2-.8.4-1.3 1-2.5 1.8-3.3 2.3-.9.5-1.8.9-2.9 1.3-2.2.7-4.6 1.1-7.2 1.1-5.1 0-9.2-1.4-12.3-4.2-3.3-3-5-6.7-5-11.3 0-3.6 1.1-6.7 3.1-9.4 3.2-4.1 8.1-6.2 14.6-6.2 4.3 0 8.5 1.1 12.5 3.4.3.2.4.2.6.2.2 0 .6-.3 1.1-.8l.5.7zm28 15.4h-17.7v9.8c0 .6.1.9.2 1.1s.5.4.9.5v.6h-5.4v-.6c.5-.1.8-.3.9-.5.2-.2.2-.6.2-1.1V10.2c0-.6-.1-.9-.2-1.1-.2-.2-.5-.4-.9-.5V8h5.4v.6c-.5.1-.8.3-.9.5-.2.2-.2.6-.2 1.1v9.1h17.7v-9.1c0-.6-.1-.9-.2-1.1-.2-.2-.5-.4-.9-.5V8h5.4v.6c-.5.1-.8.3-.9.5-.2.2-.2.6-.2 1.1v21.4c0 .5.1.9.2 1.1s.5.4.9.5v.6H193v-.6c.5-.1.8-.3.9-.5.2-.2.2-.6.2-1.1v-9.8zM0 39.8h200v.6H0z" fill="#4b4b4b"/><path d="M18.2 47.3l-1.8 2.8-.3-.2c.1-.2.2-.4.2-.5 0-.2-.4-.6-1.2-1-1.6-.8-3.2-1.3-4.8-1.3-1.9 0-3.5.6-4.8 1.6-1.5 1.2-2.2 2.8-2.2 5 0 2 .7 3.6 2.2 4.8 1.3 1.1 3 1.7 5.1 1.7 1.1 0 2.1-.2 3.1-.5s1.8-.8 2.5-1.4v-2.9h-3.7c-.3 0-.6.1-.7.2-.1.1-.2.3-.3.6h-.4v-3h.4c.1.3.2.5.3.6.1.1.3.2.7.2h6.1v.4c-.3.1-.5.2-.6.3-.1.1-.2.3-.2.7v2c0 .3.1.6.2.7.1.1.3.2.6.3v.3c-.8.8-1.7 1.4-2.5 1.8-1.7.9-3.6 1.4-5.7 1.4-2.6 0-4.7-.7-6.4-2.1-.8-.7-1.4-1.5-1.9-2.5-.5-1.1-.8-2.3-.8-3.5 0-1.8.5-3.3 1.6-4.7.9-1.3 2.2-2.2 3.8-2.7 1.1-.4 2.3-.6 3.7-.6 1.2 0 2.2.1 3.2.4 1 .3 2 .7 3.2 1.3.3.2.6.3.6.3.1 0 .3-.2.6-.5h.2zm11.4 14.1l-5.5-10.8v9.5c0 .3.1.6.2.7.1.1.3.2.6.3v.3H22v-.3c.3-.1.5-.2.6-.3s.2-.3.2-.7V49.9c0-.3-.1-.6-.2-.7-.1-.1-.3-.2-.6-.3v-.3h3.9v.4c-.4.1-.6.3-.6.5 0 .1.1.3.3.7l4.1 8.2 4.1-8.2c.2-.4.3-.6.3-.7 0-.2-.2-.4-.6-.5v-.3h3.9v.3c-.3.1-.5.2-.6.3-.1.1-.2.3-.2.7v10.3c0 .3.1.6.2.7.1.1.3.2.6.3v.3h-3.1v-.3c.3-.1.5-.2.6-.3s.2-.3.2-.7v-9.6l-5.5 10.7zm22.1-6.7c1.5.6 2.2 1.7 2.2 3.1 0 1.1-.4 1.9-1.2 2.6-.4.3-.9.6-1.4.8-.6.2-1.3.2-2.2.2h-7.9v-.3c.3-.1.5-.2.6-.3s.2-.3.2-.7V49.9c0-.3-.1-.6-.2-.7-.1-.1-.3-.2-.6-.3v-.3h7.7c.8 0 1.4.1 1.9.2s.9.3 1.3.5c.4.3.8.7 1.1 1.2.3.5.4 1 .4 1.6-.1 1.1-.7 2-1.9 2.6zm-8.2-.6h4.8c.8 0 1.3-.1 1.7-.1.3-.1.7-.2 1-.3.6-.3.9-.8.9-1.6s-.3-1.4-1-1.8c-.3-.2-.6-.3-1-.3-.4-.1-.9-.1-1.7-.1h-4.7v4.2zm0 6.1h5.1c.8 0 1.4-.1 1.8-.1.4-.1.7-.2 1-.4.6-.4.9-1 .9-1.8 0-.9-.3-1.6-1.1-2.1-.3-.2-.7-.3-1.1-.4s-1-.1-1.8-.1h-5c.2 0 .2 4.9.2 4.9zm27.4-6.1H60.2v6c0 .3.1.6.2.7.1.1.3.2.6.3v.4h-3.3v-.4c.3-.1.5-.2.6-.3.1-.1.2-.3.2-.7v-13c0-.3-.1-.6-.2-.7-.1-.1-.3-.2-.6-.3v-.4H61v.3c-.3.1-.5.2-.6.3-.1.1-.2.3-.2.7v5.5H71V47c0-.3-.1-.6-.2-.7s-.3-.2-.6-.3v-.4h3.3v.3c-.3.1-.5.2-.6.3-.1.1-.2.3-.2.7V60c0 .3.1.6.2.7s.3.2.6.3v.4h-3.3V61c.3-.1.5-.2.6-.3.1-.1.2-.3.2-.7v-6h-.1zm28.9-2.8v2.8h-.3c0-.4-.1-.6-.3-.6-.3 0-.7.3-1.3 1-.4.5-.9 1.3-1.6 2.6.4 1 .9 1.7 1.4 2.1.4.3.9.5 1.3.5.1 0 .2 0 .3-.1.1-.1.1-.2.1-.5h.3v2.3c-1.2 0-2.2-.2-2.9-.7-.7-.4-1.3-1.1-1.7-2-1.2 1.9-3.1 3-5.5 3-1.8 0-3.2-.5-4.2-1.5-1-.9-1.4-2.1-1.4-3.3 0-.7.2-1.3.5-1.9s.8-1.1 1.3-1.6c.6-.4 1.3-.7 2.2-1-1.3-.7-2-1.6-2-2.9 0-1.2.4-2.1 1.4-2.9.8-.7 1.9-1 3.3-1 1.6 0 2.8.4 3.7 1.4.7.7 1.1 1.6 1.1 2.6 0 .7-.2 1.4-.6 1.9-.4.6-1.1 1-1.8 1.3 1.2.6 2.1 1.5 2.6 2.8 1.1-2.7 2.5-4.1 4.1-4.3zM90 53.4c-1.2 0-2.2.3-3.1 1.1-.7.6-1.1 1.3-1.1 2.2s.3 1.7.9 2.2c.8.8 1.8 1.2 3.1 1.2 1.2 0 2.3-.4 3.3-1.2.7-.6 1.1-1.3 1.1-1.8 0-.4-.1-.8-.3-1.3-.2-.5-.6-.9-.9-1.2-.8-.8-1.8-1.2-3-1.2zm.7-6.5c-.8 0-1.4.2-1.9.6-.6.4-.9 1.1-.9 1.9 0 .7.3 1.3.8 1.7.6.5 1.4.7 2.3.7.9 0 1.6-.2 2.1-.7.5-.4.8-1 .8-1.6 0-.7-.2-1.3-.7-1.7-.7-.6-1.4-.9-2.5-.9zm35.8.2l-1.7 2.8-.3-.2c.1-.2.1-.4.1-.6 0-.3-.5-.7-1.4-1.2-1.3-.7-2.8-1-4.4-1-2.1 0-3.8.6-5.2 1.8-1.3 1.2-2 2.8-2 4.7s.7 3.5 2.1 4.7c1.3 1.2 3 1.8 5 1.8 1.9 0 3.7-.6 5.1-1.7.7-.5 1-.9 1-1.1 0-.1-.1-.3-.2-.5l.3-.2L127 59l-.3.2c-.2-.2-.4-.3-.5-.3s-.2.1-.4.2c-.7.5-1.3.9-1.7 1.2-.4.3-.9.5-1.5.7-1.1.4-2.4.6-3.7.6-2.6 0-4.8-.7-6.4-2.2-1.7-1.6-2.6-3.5-2.6-5.8 0-1.9.6-3.5 1.6-4.8 1.7-2.2 4.2-3.2 7.6-3.2 2.2 0 4.4.6 6.5 1.8.1.1.2.1.3.1.1 0 .3-.2.6-.4zm11.5 1.2c2.3 0 4.1.6 5.5 1.8 1.5 1.3 2.2 2.9 2.2 5 0 1.3-.4 2.5-1.1 3.6-1.4 2-3.6 3.1-6.6 3.1-2.3 0-4.1-.6-5.5-1.8-1.5-1.3-2.2-2.9-2.2-4.9 0-1.3.4-2.6 1.1-3.6.8-1.1 1.8-1.9 3.2-2.5.9-.5 2.1-.7 3.4-.7zm0 1.3c-1.8 0-3.3.6-4.5 1.7-1 1-1.5 2.2-1.5 3.6s.5 2.7 1.5 3.6c1.1 1.2 2.6 1.7 4.5 1.7s3.4-.6 4.5-1.7c1-1 1.5-2.2 1.5-3.6 0-1.5-.5-2.7-1.5-3.7-1.1-1-2.6-1.6-4.5-1.6zm13.1 9.6c.3 0 .7.1.9.4.2.2.3.6.3.9 0 .3-.1.6-.4.9-.2.2-.6.4-.9.4-.3 0-.6-.1-.9-.4-.2-.2-.4-.6-.4-.9 0-.3.1-.6.3-.9.4-.3.7-.4 1.1-.4zm15.4-3.8V60c0 .3.1.6.2.7s.3.2.6.3v.4H164V61c.3-.1.5-.2.6-.3.1-.1.2-.3.2-.7V47.1c0-.3-.1-.6-.2-.7-.1-.1-.3-.2-.6-.3v-.4h3.3v.3c-.3.1-.5.2-.6.3-.1.1-.2.3-.2.7v6.5l8.4-6.6c.3-.2.4-.4.4-.6s-.2-.3-.4-.3v-.4h4.1v.4c-.4.1-.9.2-1.3.6l-6.4 4.9 7 8.9.4.4c.2.1.4.1.7.1v.4h-3.8V61c.3-.1.5-.2.5-.3 0-.1-.2-.3-.5-.8l-5.6-7.2-3.5 2.7zm31.3-8.1l-1.8 2.8-.3-.2c.1-.2.2-.4.2-.5 0-.2-.4-.6-1.2-1-1.6-.8-3.2-1.3-4.8-1.3-1.9 0-3.5.6-4.8 1.6-1.5 1.2-2.2 2.8-2.2 5 0 2 .7 3.6 2.2 4.8 1.3 1.1 3 1.7 5.1 1.7 1.1 0 2.1-.2 3.1-.5s1.8-.8 2.5-1.4v-2.9h-3.7c-.3 0-.6.1-.7.2-.1.1-.2.3-.3.6h-.4v-3h.4c.1.3.2.5.3.6.1.1.3.2.7.2h6.1v.4c-.3.1-.5.2-.6.3-.1.1-.2.3-.2.7v2c0 .3.1.6.2.7.1.1.3.2.6.3v.3c-.8.8-1.7 1.4-2.5 1.8-1.7.9-3.6 1.4-5.7 1.4-2.6 0-4.7-.7-6.4-2.1-.8-.7-1.4-1.5-1.9-2.5-.5-1.1-.8-2.3-.8-3.5 0-1.8.5-3.3 1.6-4.7.9-1.3 2.2-2.2 3.8-2.7 1.1-.4 2.3-.6 3.7-.6 1.2 0 2.2.1 3.2.4 1 .3 2 .7 3.2 1.3.3.2.6.3.6.3.1 0 .3-.2.6-.5h.2z" fill="#7a7a7a"/></svg>