<svg xmlns="http://www.w3.org/2000/svg" viewBox="0 0 198 65"><g fill="#00a0e4"><ellipse cx="134.1" cy="32.3" rx="6.3" ry="5"/><path d="M100 32.3c0-3.6-3.9-4.9-6.7-4.9h-1.1v9.8h1.1c2.8 0 6.7-1.2 6.7-4.9zm82.3-5.1c.6 0 1.2-.2 1.7-.7.5-.5.7-1 .7-1.7s-.2-1.2-.7-1.7c-.5-.5-1-.7-1.7-.7-.6 0-1.2.2-1.7.7-.5.5-.7 1-.7 1.7s.2 1.2.7 1.7c.5.5 1 .7 1.7.7zm-1.2-3.8c.1-.1 1.1-.1 1.1-.1.3 0 .6.1.8.1.3.1.5.4.5.8 0 .3-.1.5-.3.6-.1.1-.3.1-.4.1.2.1.4.1.5.3.1.1.1.3.1.5v.7h-.4V26c0-.3-.1-.6-.3-.7-.1-.1-.3-.1-.6-.1h-.4v1.2h-.6v-3z"/><path d="M-.2 65h198.3V0H-.2v65zm180.6-42c.6-.6 1.2-.8 1.9-.8s1.4.3 1.9.8c.6.6.8 1.2.8 1.9-.1.8-.3 1.4-.9 1.9-.6.6-1.2.8-1.9.8s-1.4-.3-1.9-.8c-.6-.6-.8-1.2-.8-1.9s.4-1.4.9-1.9zm-30.3-1.1h7.4L169 33.3V21.9h7.7v20.7h-7.3l-11.6-11.3h-.1v11.3H150V21.9zm-16.1-.5c7.7 0 14 4.9 14 10.9 0 6.1-6.3 10.9-14 10.9s-14-4.9-14-10.9 6.3-10.9 14-10.9zm-23.8.5h7.7v20.7h-7.7V21.9zm-25.8 0h10.3c5.3 0 13.4 3.5 13.4 10.4 0 7-8.1 10.3-13.4 10.3H84.4V21.9zm-21.7 0h18.7v5.4h-11v2.3h9.7V35h-9.7v2.3h11v5.4H62.7V21.9zm-29.8 0l7.6 10.6 7.9-10.6h11.4v20.8h-9v-9.2l-6.5 9.2h-7.4L22 21.9h10.9zm-11.8 6l10.1 14.7H21.1V27.9z"/><path d="M182.7 24.8c.2-.1.3-.2.3-.5.1-.2 0-.3-.1-.4-.1-.1-.3-.1-.6-.1h-.5v1.1h.5c.1-.1.3-.1.4-.1z"/></g></svg>