<svg xmlns="http://www.w3.org/2000/svg" viewBox="0 0 155 65"><path fill="#f39200" d="M0 43.5h155V65H0z"/><path d="M50.2 36.8c-.7-1.3-1.7-2.8-2.9-3.8-.9-.8-2-1.2-3.5-2h-.3c-.2.1-.5.4-.7.6-.3.3-.7.3-1 .6-.2.1-.5.2-.7.3-.2.1-.4.1-.6.2-.3.1-.2.2-.2.4s-.1.6.1.8c.2-.1.3-.1.6-.1.9-.1 1.6.6 1.9 1.4.4.8 0 1.9.1 2.8.1.9.6 1.2.6 2.1.1.9-.3 1.8-.8 2.6-.4.7-.8 1.8-1.4 2.4-.5.6-1.2.1-1.9.2-1.6.1-1.7-.8-2.8-1.8-1.2-1-1.4-3.8-2.7-3.4v.8c0 .5.1 1 .2 1.5-.1-.2-.2-.5-.2-.7-.1-.5.1-1 0-1.5-.1-.4-.1-.6-.2-1-.1-.3 0-.6 0-.9 0-.2.1-.3 0-.5-.3.1-7.7.2-8.3.3-.3.1-.7.1-1 .1-.4 0-.7.1-1 .2.1.3 0 .6-.3.7-.1.1.2.2.6.3-1.6-.5-3-1.2-3.9-2.4-.6-.8-1-2.2-1-3.1-.1-1.3-.1-2.6-.2-3.9l.1-.2c-.6.2-2.5.6-6.5 4-.9.8-2.3 1.8-3.3 2.6-.7.6-1.3 1.6-1.2 2.5.3 2 .8 3.9 1.4 4.7 1.5 1.7 2.2 2.3 4.1 3.2.9.4 1.7.8 2.8 1.2.9.4 2.2.8 3.2 1.2.8.3 1.5.4 2.4.2.4-.1.7-.3.9-.6.2.7.9 1.7 1.3 2.4.4.6.8 1.4 1 2 .3.7 1.2 1.3 1.8 1.5.5.2 1.5.8 1.4-.1-.1-.2 1.3.6 1.8.6.6.1.6-.6.7-1.1.2.2.8.6 1.2.7.7.1.6-.7.6-1 .6.4 1.8 1.2 1.9.1.1-.8-.3-2.3-.4-3.1-.3-1.2-.4-2-.9-3.1-1.6-3.2-2.7-3.1-4.5-4.2h-.1v-.6s1 .6 1.3.7c.3.1.5.2.7.3.2.2.3.3.6.4.3.1.9 0 1.2 0 1-.1 1.9-.1 2.9 0 .2 0 .3 0 .4-.1.7.9 1 1.3 2 1.8 2.2 1.2 5.1 1.3 7.5 1.2 2.3-.1 5.2-.6 6.5-2.7 1.3-2.2-.1-5.5-1.3-7.7zm-23.7 3.8c.2.2.4.3.6.5.2.2.4.5.6.8-.4-.5-.7-.9-1.2-1.3z" fill="#9d6200"/><path d="M23.4 38.1h.1V38l-.1.1z" fill="#9d6200"/><path d="M43.8 30.3c1.5.8 2.6 1.2 3.5 2 1.2 1 2.2 2.5 2.9 3.8 1.2 2.3 2.6 5.6 1.2 8-1.2 2.1-4.1 2.7-6.5 2.7-2.5-.1-5.3-.2-7.6-1.2-1-.5-1.9-1.4-2.5-2.4-.6-.9-.8-2-.8-3v-.8c1.3-.4 1.5 2.3 2.7 3.4 1 .9 1.2 1.9 2.8 1.8.7-.1 1.4.4 1.9-.2.6-.6 1-1.7 1.4-2.4.5-.8.8-1.7.8-2.6 0-.9-.6-1.2-.6-2.1-.1-.9.3-1.9-.1-2.8-.3-.8-1-1.5-2-1.4-.2-.1-.4-.1-.5-.1-.1-.2-.1-.6-.1-.8 0-.3-.1-.3.2-.4.2-.1.4-.1.6-.2.2-.1.5-.2.7-.3.4-.2.7-.3 1-.6.2-.1.6-.5.7-.6m-8.8 1.3c.1.5.1 1 .1 1.5.1.4.1.9.1 1.4-.3.6-.4 1.9-.7 2.5-.2.4-.7.2-1.3.2-1.3.1-8.2.3-9.5.4-1.4.1-.3-1.2-.4-2.3-.2-1.3-.3-2.5-.6-3.8-.2-.7-.3-1.4-.3-2.2 0-.2-.4-.9-.1-1 .7-.3 1.1.3 1.2.5.4.6.4 1.2.9 1.7.9 1.1 2.4 1.5 3.8 1.8.7.1 1.2.3 1.8.1.6-.2 1-.6 1.6-.9.8-.6 1-1.4 1.8-.7.2 0 1.4.7 1.6.8" fill="#d8dde7"/><path d="M18.5 29.2c.1 1.3.1 2.6.2 3.9.1.9.5 2.3 1 3.1.9 1.3 2.5 1.9 4.2 2.5 1.2.4 3.5 1.2 4.2 3.7.3.9-1 1.2-1.6 1.9-.7 1-2 1.6-2.9 2.5-.7.7-.9 1.3-1.8 1.7-.8.3-1.9.2-2.7-.1-1-.3-2.3-.8-3.2-1.2-1-.4-1.8-.7-2.8-1.2-2-.9-3-1.5-4.6-3.2-.7-.8-.8-2.7-1-4.7-.1-.9.6-1.9 1.2-2.5.9-.8 2.3-1.8 3.3-2.6 4-3.4 5.9-3.9 6.5-4-.1 0 .1 0 0 0" fill="#d8dde7"/><path d="M39.4 11c.7-.6-2.4-.7-2.5-1.1-.4-1-1-4.1-1.4-4.9-.5-1.1-2-2.9-3.1-3.6-.9-.6-4.1-1.7-5.3-1.3-.1-.1-2-.8-5.8 1.8-2.4 1.7-3.5 5.7-3 8.8 0 .1-1.2-.1-1.2.1 0 1.7 1.3 1.2 2.3 1.4 1.6.3 6.7.3 8.4.2 3.7-.1 9.8-.4 11.6-1.4" fill="#ffed00"/><path d="M35.6 14.7c-.2-1.2-.1-1.5-.7-2.8-.1-.1-3.5.7-12.6.5-.6 0-.5.8-.8 1.4-.3.7-.4 1.4-.5 2.3-.2 1.4 0 2.8-.1 4.2-.1.2-.1 1.2-.3 1-.3-.2-.4-1.3-.4-1.6-.1-1.2.4-2.7-.9-3.3-1.2-.5-1 2.3-.8 3.3.2.8.9 1.5 1.2 2.6.2.9.9 1.2 1.2 1.1.4 2 .4 2 2.4 5.3.1.1 1.2 2.8 4.4 3.2 1.5.2 4.4.2 5-1.9.3-1-.4-1.9-.7-2.9-.3-1.5-.5-3-.6-4.5-.1-1.6.3-2.9 1.3-4.2.8-1 2-2 2.6-3.3.1.1.3-.2.3-.4m1 19.6c1-.5 2.5-1.2 3.6-1.4 1.2-.3 2.3.3 2.9 1.3.6 1-.2 2.6 0 3 .9 1.8.7 2.7.1 3.9-.5 1-1.8 3.3-2.2 3.4-.9.2-2.6.5-3.7.1-1-.4-.7-1.2-.8-1.2-2.3-.4-1.8-3.9-1.8-3.9-1-.2-.8-2.3-.7-3.4.1-1 .2-2.3 2-2.1.2 0 .4.1.6.2m-8.3 8.2c1.8 1.1 2.9 1 4.6 4.2.6 1.1.7 1.9.9 3.1.2.8.6 2.3.4 3.1-.1 1.1-1.3.3-1.9-.1.1.4.1 1.2-.6 1-.3-.1-1-.4-1.2-.7-.1.5-.1 1.2-.7 1.1-.6-.1-1.8-.8-1.8-.6 0 .8-1 .3-1.5.1-.7-.3-1-.9-1.3-1.5-.3-.7-.7-1.4-1-2s-1.2-1.7-1.3-2.4c-.1-.3 1.4-2 2.2-2.7 1.1-.8 2-1.7 3.2-2.6" fill="#facaae"/><path d="M19.2 12.3c-.1.7-.1 1.4-.1 2 0 .7-.3 1.4.3 1.9.7.7.8 1.4.9 2.2s.1 1.4 0 2.1c0 .1.2.7.2.8.6.3.5-.4.6-.8.1-.4.1-.9.2-1.3.1-.7-.2-1.7-.1-2.4.1-1.3.4-2.8.9-4l.3-.6c-1.2.1-2.2.1-3.2.1z" fill="#ca9e67"/><path d="M35.2 12c.1.2.1.3.2.5.2.6.3 1.2.4 1.8.1.3-.3.5 0 .6.3.1.7-.1.9-.2 0 .1 0 .1-.1.1l.1-.2c.3-.9.2-1.9-.1-2.8-.5 0-.9.2-1.4.2zm-.7 3c.1-.1.4-.3.4-.5-.2-.1-.3-.1-.6-.1-.2-.1-.3-.1-.5-.1-.3-.1-.6-.1-.9-.1-.3 0-.6-.1-.8.1-.3.2-.5.7-.7.9.6-.2.8-.2 1.2-.3.3-.1.5 0 .8 0 .3.1.8.2 1.1.1m-7.9.2c-.1-.2-.3-.7-.6-.8-.2-.1-.4 0-.6.1-.5.1-1 .1-1.4.2-.2.1-.5.2-.5.4-.1.2.3.2.4.2.5.1 1.2-.2 1.8-.2.4 0 .6.1 1 .1" fill="#7d4e24"/><path d="M24.8 16.5c.3-.1.6-.2.9.1.2.2.3.7.3 1s-.3.7-.7.6c-.3-.1-.8-.4-.9-.7 0-.2.1-.9.4-1" fill="#1d1d1b"/><circle cx="25.1" cy="17.1" fill="#fff" r=".3"/><path d="M47.3 23.2c0 4.9-4 8.8-8.9 8.8s-8.9-3.9-8.9-8.8 4-8.8 8.9-8.8 8.9 4 8.9 8.8z" fill="#cbbba0"/><path d="M36.7 14.8c-1.5.7-3.5 1.7-4.6 3-1 1.2-1.7 2.5-1.9 4.1-.2 1.3-.1 2.9.3 4.2.4 1.5 1.5 3 2.8 3.9 1.2.9 2.9 1.6 4.3 1.9.2 0 .2.1.3.1-.8.1-1.4-.1-2.3-.3-.9-.3-1.9-.7-2.7-1.3-1.3-1-2.7-2.8-3.3-4.5-.5-1.4-.4-3-.1-4.5.3-1.7 1.2-3 2.3-4.2 1.2-1.3 2.9-2.5 4.7-2.5h.5" fill="#7b6a58"/><path d="M45.4 23.2c0 4-3.1 7.2-6.9 7.2-3.8 0-6.9-3.2-6.9-7.2s3.1-6.8 6.9-7c3.1-.1 6.9 3 6.9 7z" fill="#d2ecfc"/><path d="M40.3 31.8c.1.3.3.7.1 1-.2.2-.6.2-.8.2-.6.2-1.2.7-1.5.6-.7-.1-1.4-.2-1.5-.3-.1-.3-.3-1.3 0-1.4.3-.1.8.2 1.2.2.6 0 1-.1 1.6-.2.3 0 .6 0 .9-.1" fill="#c6c6c6"/><path d="M40.6 44.8c.1.3.2.5-.1.7-.2.2-.7.3-.9.3-.4.1-.7 0-1.2 0-.7 0-.8-.2-.9-.8-.1-.6 1.4-.3 1.8-.3.5.1.7 0 1.3-.1m-3.5-11.1c.2.1.5.1.7.2-.2 0-.4.2-.7.2.1-.2.1-.3 0-.4" fill="#ac443c"/><path d="M21.7 27.5c-.8.1-1.1.2-1.7.3-.6.2-1.2.6-1.3 1.1-.1.7-.1 1.5-.1 2.2 0 .8.2 1.5.2 2.2 0 .5 0 1.7.2 1.7 0 0 2.4-.5 3.9-.7.1 0-.2-1.8-.4-2.5-.3-1.4-.5-2.8-.7-4.2 0-.1 0-.2-.1-.3m1.6 10.1c.4 0 .7-.2 1.2-.2.3 0 .7 0 1-.1.7-.1 8.1-.2 8.4-.3.1.2 0 .3 0 .5v.9c.1.4.1.6.2 1 .1.5-.1 1 0 1.5s.3 1 .5 1.5.5.9.7 1.4c-1-.1-2.1-.1-3.2 0-.3 0-.9.2-1.2 0-.2-.1-.4-.3-.6-.4-.2-.2-.4-.2-.7-.3-.4-.2-1.3-.7-1.3-.7-.3 0-.2-.2-.3-.5-.2-.3-.5-1-.8-1.3-.8-.8-1.9-1.1-3-1.7-.2-.1-1.3-.4-1.1-.6.3-.2.4-.4.3-.8m11.4-5.8c-.1.8 0 1.8.1 2.6.5-.1.9-.2 1.5.1.2.1.8-.2.8-.5-.1-.4-.7-.3-.7-.8 0-.2.1-.7.1-.9-.1-.2-.4-.2-.6-.3-.4-.1-.7-.1-1.2-.2" fill="#4054a1"/><path d="M22.8 34.6c.2.7.3 1.3.3 1.9.1.5.1 1 .2 1.5-.2.1-.4.2-.6.2s-.4-.2-.6-.3c-.4-.2-.8-.2-1.2-.4-.3-.2-.7-.3-1-.4-.2-.1-.4-.1-.6-.2-.2-.1-.2-.3-.2-.5 0-.4-.1-.8-.2-1.3.5 0 3.3-.5 3.9-.5" fill="#3c3c3b"/><path d="M24.5 24.5c.8.2 1.7.4 2.4.8.7.3 1.5.9 1.7 2.5 0 .2-.3.2-1 .2-.8 0-1.6-.5-2.2-1.2-.6-.7-.9-1.5-1.2-2.3h.1" fill="#e6332a"/><path d="M27.2 25.2c.2.2.6.4.8.6.2.2.3.6.4.8.1.2.1.4.1.7.1.2.2.3.2.5.4-.1.8-.3 1.1-.5.3-.2.2-.6.1-.9-.1-.3-.2-.7-.4-.9-.3-.2-.7-.1-1-.1-.4 0-.8-.1-1.2-.1" fill="#534339"/><path d="M35.2 12c.2.4.4 1 .4 1.5.1.4.2.8.2 1.2.6-.1.9-.1 1-.7.1-.6-.1-1.5-.3-2.2-.4 0-.9.2-1.3.2z" fill="#ca9e67"/><path d="M20.8 20.7c-.1.3-.1.6-.2.9.1-.3.1-.6.2-.9z" fill="#683c11"/><path d="M20.8 12.5c-.2.2-.5.6-.4.9.1.2.2.2.2.4.1.2.1.3.1.5 0 .3-.1.7-.2 1-.1.7.1 1.3.2 2.1.1.7.1 1.3.1 1.9 0 .4-.4 2.4.1 2.3.1-.7.3-1.7.4-2.4.1-.9-.2-2.4-.1-3.4.1-1.1.4-2.1.9-3.1.1-.1.1-.2.1-.3h-1.3c-.1 0-.1.1-.1.1z" fill="#b17f4a"/><path d="M26.6 15.3c-.6-.3-1-.1-1.5-.1h-1.4c.4-.2 1.1-.2 1.5-.3.3-.1 1.1-.4 1.2.2m5.3-.1c.5-.2.8-.4 1.4-.3h1.2c.4 0 .3.3 0 .4-.3.1-.7-.1-1.1-.1-.6-.1-1-.1-1.5 0" fill="#683c11"/><path d="M27.1 25.3c.6.3 1 .9 1.2 1.5-.1-.4-.5-.9-.9-.9-.5-.1-.4.7-.3 1-.1-.7-.7-1-1.3-1.2-.3-.1-.6-.2-.8-.4-.2-.2-.4-.5-.5-.7.8.4 1.7.5 2.6.7" fill="#be1622"/><path d="M35.6 14.1c-.1-.7-.3-1.4-.6-2.1-.3-.1-.6.1-.9.2.1.2.1.3.1.4.1.3.2.7.2 1 0 .3 0 .5-.2.6.2.1.5.1.7.3.1.2.1.5.3.5.5.2.5-.7.4-.9zM18.9 18c.5-1.2 1.1.7 1.2 1.5-.2.2-.4.7-.3 1.3-.2-.2-.3-1-.4-1.3 0-.2.3-.2.3-.5-.1-.4-.3-1.4-.8-1m9.6 11.2c.1.2 0 .7.2.7.1 0 .4 0 .5-.1.1-.2-.1-.6-.3-.7-.1-.1-.3-.2-.4-.2" fill="#c7a38d"/><path d="M24.2 29.5c.7.4 1.2.7 1.8.9.6.2 1.3.3 1.9.5 1.2.2 2.8-.4 3.8-1.5.2-.2.6.6.7.6.5.5-.6 1.3-1.2 1.5-.7.3-1.4.2-2.1 0-.8-.2-2-.2-2.7-.6-.7-.3-1-.5-1.5-.9s-.3-.4-.8-.8m12.4 7.6c.4.1.9.1 1.3.1.3-.1.8-.2 1.1-.2-.4.2-.8.5-1.3.7-.3.2-.8.3-1.2.4-.3.1-.7.2-.5-.3.3-.2.4-.5.6-.7m.1 2.8c.5 0 1-.1 1.5 0 .4.1.9 0 1.3 0l-1.2.3c-.3.1-.7.2-1.1.3-.2 0-.7.2-.8 0-.1-.2 0-.5.3-.6m.1 2.4c.7-.1 1.5-.2 2.4-.1-.6.1-1.3.4-1.9.5-.2 0-.9.2-.7-.3" fill="#c7a38d"/><path d="M36.2 39.9c-.2.6-.1 1.4.3 2 .2.2.2.2.2.5 0 .2 0 .4-.1.7 0 0-.1.5-.1.2-.1.3-.5 0-.7-.2-.2-.2-.6-.3-.5-.6.1-.2.2-.3.2-.4.1-.2.1-.3.1-.5 0-.4 0-.9-.2-1.3-.1-.3-.4-.7-.7-.9.4 0 .9 0 1.3.1.2.1.6.2.3.5" fill="#c7a38d"/><path d="M36.4 34.3c-.2 0-.8-.4-.7.2 0 .5.1.9-.1 1.3-.1.3 0 1.3-.8 1.4.7.4 1 .9.9 1.7 0 .2-.1.6.2.7.3.2.4.1.3-.2-.3-.8-.3-1.3-.2-1.9.1-.2.3-.4.3-.7-.1-.3-.1-.5-.2-.7-.2-.4-.2-1.1-.1-1.5m6.1-1.4c.5.5.7 1.3.6 2-.1.3-.2.7-.3.9l-.3.6c-.1.2-.3.3-.3.6-.1.2.3.4.5.4 1.7.5 1 3.5.3 4.6.6-1.3.6-1 .8-1.6.2-.6.3-1.3.2-2-.1-.3-.2-.7-.3-1-.1-.3-.3-.5-.3-.8-.1-.6.3-1.2.3-1.8 0-.4-.2-.8-.4-1.2-.2-.3-.5-.4-.7-.6M30.9 47.6c.7.8 1.7 1.7 2 2.7.3.8.1 1.6.4 2.4.1.1.3.7.2.8-.2.2-.7-.2-.8-.3-.8-.5-.3-1.4-.4-2.3-.1-1-.7-1.9-1-2.9m-2 .9c.7.6 1.4 1.2 1.8 1.9.3.6.4 1.3.5 1.9.1.3.2 1.4-.4 1-.7-.3-.4-1.3-.5-1.9-.1-.9-.5-1.6-1-2.3m-2.6.5c.6.5 1.4 1.1 1.7 1.9.1.3.1.6.2.9.1.3.1.6.1.8-.2.6-.8.2-.9-.2-.2-.6.1-1.2-.2-1.8-.2-.7-.7-1.2-1-1.7" fill="#c7a38d"/><path d="M31.4 31.6c.6-.1 1.5 0 1.8.6.1.1 0 .2.2.3.2.1.3.1.4.2.3.2.6.4.7.7.1.3.3.6.3.9.1-.8 0-1.6 0-2.4 0-.4-.3-.4-.6-.6-.3-.1-.5-.3-.7-.5-.3-.2-.6-.4-.8-.7-.1.2-.1.4-.3.6-.1.2-.2.3-.3.4l-.4.4c-.1 0-.4.1-.3.1" fill="#909399"/><path d="M33.2 32.4c-1.2 1-3.1 1.4-4.6 1.3-.3 0-.7 0-.9-.1.9.3 1.9.4 2.9.3.6-.1 1-.1 1.5-.2s1.1-.2 1.5-.4c.3-.2.4-.8-.1-.8m-11.4-4.6c.1.8.3 1.8.8 2.4.4.6.8 1.3 1.6 1.8-.4-.1-.8-.3-1.2-.5-.3-.2-.7-.3-.9-.6-.2-.3-.2-.7-.2-1-.1-.4-.2-.8-.2-1.1 0-.2-.2-.8-.1-.9M19 35.7c-.8-.4-1.9-.4-2.8-.3-.8.1-2.1.2-2.7.7-.4.3-.8.4-1.1.8.2-.2.3-.6.4-.8.1-.4.4-.7.8-1-.7.4-1.7.8-2 1.7-.1.2.1.3 0 .4-.2.2-.3.2-.4.3-.3.2-.3.4-.4.8-.1.3-.1.7.2 1 .4-.6.8-1.3 1.4-1.8.5-.5.9-1.1 1.7-1.4.6-.2 1.8-.1 2.3 0 .6.1.9.3 1.5.4.7.1 1 .2 1.7.3-.1-.3 0-.6-.2-.8-.1-.1 0-.3-.1-.4m6.1 3.8c.4.2.7.4.8.9.1.3-.2.4-.4.6-.6.4-1 .9-1.5 1.4-.4.5-.9 1-1.3 1.5-.4.6-.7 1.1-.9 1.7-.2.4-.3.8-.4 1.2-.1.3-.1.2-.2.6h.1c.3-1 .7-1.3 1.3-2.2.6-.8 1.4-1.8 2.3-2.3.4-.3.9-.4 1.4-.1.3.2.5.4.8.3.3-.1.7-.5.7-.7.1-.4-.5-.9-.7-1.3-.3-.4-.6-.8-1-1-.3-.2-.7-.3-1-.5m17.9-4.2c.7.9 1.3 1.9 1.5 3 .2 1 .2 2.1-.1 3.1-.2.7-.5 1.2-.8 1.8.9-1.4 1.3-1.9 1.5-4.6.1-.9-.1-1.8-.5-2.6-.1-.3-.6-.8-.5-1.1.1-.3.6-.1.8 0 1 .5 1.6 1.2 2.2 2.1.1-.5-.2-1-.4-1.4l-.3-.9c-.1-.2-.2-.6-.4-.8-.1.2-.1.3-.3.4-.1 0-.3 0-.4-.1-.3-.1-.6-.4-.8-.6-.2-.1-.2-.2-.3 0-.2.1-.3.2-.5.3-.2.1-.6.1-.8 0 .4.4.4 1 .4 1.5" fill="#909399"/><path d="M38.5 32.1c.2 0 .3 0 .3.2.1.1.1.2.1.3 0 .2.1.4 0 .7.3-.1.6-.3.9-.4.4-.1.7-.1.7-.6 0-.1 0-.3-.1-.4-.1-.1-.6.1-.8.1-.3.1-.6.1-.9.1" fill="#9d9d9c"/><path d="M37.6 44.9c.6-.1 1.3-.1 1.8.1.3.1.7.6 1 .4.4-.2.3-.8-.2-.8-.4 0-.8.1-1.2.1s-1-.1-1.3-.1" fill="#532016"/><path d="M33.8 36.4c-2.2-.7-5.7-1.7-6.7-1.6 1.5.3 3.4.9 4.5 1.5-.2 0-3.6-.4-5.5-.3 0 0 .1.1.8.2.9.1 1.7.2 2.4.6.3.1.6.2.8.3.3.1 3.5 0 3.7-.1.3-.1 0-.1 0-.3" fill="#909399"/><path d="M19.7 28.1c.4-.1 1-.2 1.3.3.1.2.7 4 .8 5.2 0 .3.1.4-.1.7-.2.2-.5.3-.7.5.3.1.6-.1.9-.1.3 0 .7-.1 1-.1-.2-1.5-.5-2.8-.6-4.2-.1-.6-.2-1.2-.2-1.8-.1-.5-.2-1.2-.8-.9-.5.2-.9.3-1.4.4m15 3.7c.7.3 1 .6.9 1.4-.1.5.1 1.1.7 1 .6-.1.8-.4.4-.7-.2-.1-.5-.4-.5-.7-.1-.2-.1-.6-.1-.7-.1-.3-1-.6-1.4-.6m-1 5.5c.1.6 0 1.2.1 1.7.1.2-.1.3.1.6.1.2.1.4.1.6-.1.9.3 1.8.6 2.6.2.4.4.9.6 1.3-.8-.2-1.5.1-2.3 0-.7-.1-2.1.1-2.2-.2 1.8-2.5.7-4.4.8-5.3.3.3.5.9.7 1.3.1.3.2 1.2.5 1.3.7-.9.3-4-.2-3.9h1.2" fill="#213a8f"/><path d="M30 16.4c.2.3.1.3.2.4.1.2.2.5.3.7.1.2.1.4.2.6.1.2 0 .2-.1.3-.1.1-.1.3-.2.3-.1-.2-.1-.4-.1-.6 0-.2-.1-.4-.1-.6-.1-.2-.1-.4-.1-.6-.1-.2-.1-.5-.2-.7m-1.7 5c-.2.2-.4.8-.1.9.3.1.7 0 .9.1.2.1.3.7 0 .7-.2 0-.3-.3-.4-.3-.2-.1-.7-.1-.8-.2-.4-.3-.4-.9 0-1.1" fill="#c7a38d"/><path d="M27 .3c.5.3 1 .6 1.4.9.4.4 1 .8 1.3 1.3.6.8.7 1.6 1 2.5.3.8.5 1.7.5 2.5 0 .5-.1 1-.1 1.4s.1.9 0 1.3-.5.4-.9.6l-1.2.3c.8-.3 1.4-.6 1.6-1.5.1-.7.2-1.5.1-2.2-.1-1.9-.7-3.6-1.8-5.2-.3-.4-1-.9-1.5-1.4-.3-.2-1-.5-1.3-.6" fill="#f39200" opacity=".72"/><path d="M23.7.9c.5.1.9.2 1.4.4.2.1.4.2.6.4.2.2.8.7.9.8.7.9.9 1.8 1 3 .1.8.2.7.2 1.4.1-1.4.1-3-.6-4.3-.6-1-1.4-1.4-2.4-2-.5-.3-1 0-1.4.3 0 .1 0 0 0 0m15.2 9.7c-.4-.2-1.3-.2-1.7-.2-.4 0-.8 0-1.2.1-1 .1-1.6.2-2.6.3-.4.1-.9.1-1.4.1.2-.2 1.2-.2 2-.3.7-.1 3.1-1.4-1-8.5-.2-.4.4.4.3-.1 2.8 1.6 3.6 7.8 4 8.2.4.3 1 .4 1.5.6m-13.1 1.4c-.7-.1-1.4-.2-2.1-.4-.3-.1-.7-.2-1-.2-.3-.1-.7-.1-1-.2-.3-.1-.3-.1-.5-.2.4.1.3-.5.2-.8-.1-.3-.3-.6-.8-.7.2-.2.8-.1 1 .2.3.3.6.6 1 .8.7.4 1.3.7 2 1.1.4.2.9.4 1.4.4" fill="#f39200" opacity=".72"/><path d="M38.7 32.1c-4.9 0-8.8-4-8.8-8.8s4-8.8 8.8-8.8 8.8 4 8.8 8.8c-.1 4.8-4 8.8-8.8 8.8zm0-17.2c-4.6 0-8.4 3.7-8.4 8.4s3.7 8.4 8.4 8.4c4.6 0 8.4-3.7 8.4-8.4s-3.8-8.4-8.4-8.4zM28.3 29.2c0 .3-.1.4.1.7.1.2.4.1.4-.1-.1-.3-.2-.6-.3-.8-.2-.2-.2.2-.2.2z" fill="#090204"/><path d="M22.9 28.6c.7 1.9 2.5 3.1 4.5 3.6 1.9.4 4.4.1 5.3-1.9.1-.2-.3-.1-.3 0-1 2.1-3.6 2.1-5.5 1.5-1.6-.4-3-1.7-3.6-3.3 0-.2-.4-.1-.4.1z" fill="#090204"/><path d="M34.1 31.3c-1.8 2.6-5.8 2.9-8.4 1.4-.1-.1.1.1.2.1 2.8 1.5 6.6 1.2 8.4-1.5.1 0-.1-.1-.2 0zm-9.6.8c-1.3-.8-2.1-2.6-2.3-4.1 0-.1-.2-.1-.2.1.2 1.5.9 3.1 2.2 4 .1-.1.3 0 .3 0zm1.3-17.7c.3.3.6.6.8 1 .1-.1.2 0 .3 0-.9-.4-1.9-.2-2.9-.1-.9.1-.2-.5.1-.6.2-.1.4-.1.6-.1.4-.1.8-.1 1.1-.2.2.1.4-.2.2-.2-.8 0-2 .1-2.7.6-.4.3.2.6.4.6.9.1 1.9-.4 2.8.1.1.1.4.1.4-.1-.2-.4-.5-.8-.8-1.1-.1-.1-.5 0-.3.1zm-.9 2.2c.7-.2 1 1 .6 1.5-.3.4-.8-.3-.9-.6-.1-.3-.1-.8.3-.9.2.1.3-.3.1-.2-1.3.1-.8 2.3.5 2 .6-.2.7-.7.6-1.2-.1-.6-.6-.9-1.2-.7-.3 0-.2.1 0 .1zm9.9-4.6c.4.9.6 1.7.6 2.6 0 .1.4.1.4-.1-.1-.9-.2-1.8-.6-2.6-.1-.1-.5 0-.4.1zm1.5-.2c.2.4.2.9.2 1.3s.1.9 0 1.3c0 .1.3.1.4-.1.1-.4 0-.8 0-1.2 0-.5 0-1-.2-1.4 0-.1-.4 0-.4.1zm-17.3.5c-.1 1 0 2.1-.1 3.1 0 .2-.1.6 0 .7.2.4.7.5.9.9.4.9.3 2.2.3 3.1 0 .2-.1.9.1 1.1.1.2.4.2.6.4.1-.1.2-.1.3-.2 0 0-.1 0-.1-.1-.1-.1-.4.1-.2.2v.1c.1.1.4-.1.3-.2s-.3-.2-.4-.3c-.3-.2-.2-1.5-.2-1.9 0-.8-.1-1.7-.3-2.4-.1-.2-.2-.4-.3-.5-.5-.4-.6-.8-.6-1.4.1-.9.1-1.9.1-2.9 0 .1-.4.2-.4.3z" fill="#090204"/><path d="M21.5 27.6c.4 3.5 1.2 6.9 1.6 10.5l.2-.2c-.2.1-.3.1-.5.1-.2.1-.2.3.1.2.2-.1.3-.1.5-.1.1 0 .2-.1.2-.2-.4-3.5-1.2-6.9-1.6-10.5-.1-.1-.5 0-.5.2z" fill="#090204"/><path d="M21.6 27.4c-.9.1-1.8.3-2.5.7-.8.4-.7 1-.7 1.9-.1 2.3.3 4.6.7 6.8.1.2.4.1.4-.1-.3-1.8-.6-3.6-.7-5.5-.1-.8 0-1.7.1-2.5.1-.7 2.3-1.1 2.8-1.2.2 0 .3-.3.2-.3l-.3.2z" fill="#090204"/><path d="M22.7 34.4c-1.3.2-2.5.3-3.7.6-.2.1-.2.2.1.1 1.2-.3 2.4-.4 3.6-.6.1 0 .3-.2 0-.1zm11.2 2.4c-3.5.1-7 .1-10.4.4-.2 0-.3.2-.1.2 3.4-.3 6.9-.3 10.4-.4.1 0 .3-.2.1-.2zm5.1-.1c-.4.1-.9.1-1.4.2-.7.1-1.2.2-1.3-.6-.1-.6-.1-1.2.1-1.7.1-.3 1.4-.7 1.8-.9.5-.2.9-.4 1.4-.6 1.1-.4 1.8-.3 2.7.5.7.6.8 1.4.7 2.3-.1.4-.3.9-.2 1.3.1.6.4 1 .6 1.6.1.7.1 1.3-.2 1.9-.4 1-.9 1.9-1.3 2.9s-1.3 1.2-2.3 1.1c-.9 0-2.3.3-2.7-.7-.2-.5-.2-1.1-.1-1.6.1-.4 1.7-.3 2-.3.2 0 .5-.1.3-.1-.8-.1-1.5-.1-2.3.1-.4.1-.4.6-.4.9 0 .4.1 1.3.6 1.6.9.4 2 .3 3 .3.6 0 1.3-.1 1.8-.6.4-.5.7-1.2.9-1.8.7-1.5 1.4-2.8 1-4.5-.1-.4-.5-.8-.4-1.3.1-.4.2-.8.2-1.3.1-.9-.2-1.7-.9-2.3-1.2-1.1-2.5-.5-3.9.1-.7.3-1.9.6-2.5 1.1-.3.3-.2 1.3-.2 1.7.1.4.2.9.7.9.8.1 1.4-.2 2.2-.3 0 .2.3 0 .1.1z" fill="#090204"/><path d="M36.7 42.1c-.4-.5-.7-1.7-.3-2.3.1-.1.8-.1 1-.1.6 0 1-.1 1.6-.1.1 0 .6-.1.3-.1-.7-.1-1.5-.1-2.2 0-.3 0-.8-.1-1 .2-.3.2-.2.8-.2 1.1.1.5.2 1.1.6 1.5.1.1.4-.1.3-.2h-.1z" fill="#090204"/><path d="M36.5 39.5c-.4-.7-.7-2 .1-2.6.2-.2-.1-.3-.2-.2-.8.8-.7 2-.2 2.9 0 .2.4.1.3-.1z" fill="#090204"/><path d="M36.6 34.1c-.6-.1-1.8-.4-2.3.2-.5.7-.6 1.7-.7 2.5-.1.7-.1 1.7.2 2.4.3.6 1.8.5 2.3.4.2 0 .3-.3.1-.2-.6.1-1.8.2-2-.5-.2-.6-.2-1.2-.1-1.7 0-.6.1-1.1.2-1.7l.3-.9c.3-.7 1.3-.4 1.9-.3 0 0 .3-.1.1-.2z" fill="#090204"/><path d="M36.1 37.4c-.5-.1-1.2-.3-1.7-.2-.2.1-.2.3-.2.4-.1.3 0 .4 0 .7 0 .1.1.4.1.3 0-.3-.1-1.3.3-1.4.4-.1 1 .1 1.4.2 0 .1.2 0 .1 0zm-1.7 2.1c-.1 1.5.1 3.7 1.9 4 .1 0 .4-.2.2-.2-1.8-.3-1.8-2.4-1.8-3.8 0-.2-.3-.1-.3 0zm5.8-7.8c-.1.3-.1.7 0 1 0 .1.4 0 .4-.1-.1-.3-.1-.7 0-1-.1-.1-.4 0-.4.1zm-4 .3v.7c0 .2 0 .5.1.6.2.2.5.2.7.2.3.1.6.2.8.2.2 0 .4-.2.2-.2-.4 0-.9-.2-1.3-.3-.1-.1-.1-.4-.1-.5-.1-.3-.1-.5-.1-.8.1-.1-.3 0-.3.1z" fill="#090204"/><path d="M36.9 33.5v.4c0 .1.4 0 .4-.1v-.4c-.1-.1-.4 0-.4.1zm3.5 11.3c0 .3.1.7-.3.8-.5.2-1 .2-1.5.2-.2-.1-.7 0-.8-.2-.2-.2-.1-.7 0-.9 0-.1-.4 0-.4.1 0 .3-.2.9.2 1 .4.2 1.1.2 1.6.2.4 0 1-.1 1.4-.3.3-.2.2-.6.2-.9-.1-.2-.4-.1-.4 0z" fill="#090204"/><path d="M33.8 39.2c-.3 2.7 1.2 5.5 3.6 6.5.1.1.4-.1.3-.2-2.5-1-3.9-3.8-3.6-6.4.1-.1-.3 0-.3.1zm4.1 6.7c2.9.8 5.8 1.2 8.8.7 2.2-.3 4.5-1.2 5.1-3.5.7-2.5-.6-5.6-1.9-7.6-1.5-2.3-3.4-4.6-6.1-5.1-.1 0-.4.1-.2.2 2.3.5 3.9 2.3 5.3 4.1 1.5 2 2.5 4.4 2.8 6.8.6 6.6-9.2 5.6-13.2 4.4-.2-.1-.6-.1-.6 0z" fill="#090204"/><path d="M42.8 34c1.8.3 3.5 1.4 4.3 3 .1.1.4 0 .4-.1-.1-.7-.3-.9-.7-1.5-.1-.1-.4-.4-.4-.3.4.6.7 1.2.8 2 .1-.1.2-.1.4-.1-.8-1.7-2.6-2.9-4.5-3.1-.2 0-.4.1-.3.1zm.3 1.3c1.3 1.4 1.7 3.1 1.5 5-.1 1-.3 2.3-.9 3.1-.1.2.3-.2.4-.3.7-.9.8-1.9.9-3 .2-1.8-.4-3.6-1.7-5 0-.2-.3.1-.2.2zm-8.5-3.8c0 .8.1 1.7.1 2.5 0 .1.4.1.4-.1 0-.8-.1-1.7-.1-2.5-.1-.1-.4 0-.4.1zm-22.7 5.4c-1 .4-1.9 1.2-1.3 2.4.1.1.1.1.2.1.5-.1.9-1.1 1.1-1.4.5-.7 1.1-1.2 1.8-1.6.8-.4 2-.1 2.9.1 2.2.3 4.1 1 6.1 1.9 1.1.4 2.2.9 3.3 1.5 1 .6 1.5 1.5 2 2.6.1.2.3.1.4-.1v-.1c0-.2-.3-.1-.4.1v.1c.1 0 .2-.1.4-.1-.3-.8-.8-1.8-1.5-2.3-1.1-.8-2.4-1.3-3.6-1.8-2.4-1-4.6-1.8-7.2-2.1-1-.1-1.8-.3-2.7.2-.8.4-1.3 1.1-1.9 1.8-.1.2-.3.4-.4.6-.2.3-.1.7-.2.2-.2-.9.3-1.4 1-1.8.2-.3.2-.3 0-.3z" fill="#090204"/><path d="M27.9 42.3c-1.4 1.2-2.9 2.5-4.1 4-.8.9-1.3 2.3-2.8 2.3-1.1 0-2.2-.5-3.3-.8-1.9-.6-3.6-1.4-5.4-2.3-1.3-.7-3.1-1.7-3.8-3.1-.3-.6-.3-1.2-.4-1.8-.2-.8-.3-1.6-.3-2.4-.1-2 1.6-2.9 3-4 2.5-2 4.8-4.2 7.9-5.2.2-.1 0-.2-.1-.1-3.3 1.1-5.7 3.5-8.4 5.6-1.3.9-2.6 1.8-2.6 3.5-.1 1 .2 2 .4 2.9.2.7.2 1.5.7 2 1.2 1.6 3.1 2.4 4.9 3.3 2 1 4.2 1.9 6.4 2.4 1.5.3 2.6.1 3.5-1.1 1.5-1.9 3.1-3.5 5-5.1-.2-.2-.5-.1-.6-.1z" fill="#090204"/><path d="M26.9 40.5c-2.5 1.5-4.7 4.2-5.5 7.1 0 .1.1-.2.2-.2.8-2.8 3-5.3 5.4-6.8.1-.1-.1-.1-.1-.1zm1 1.9c1.2.7 2.5 1.2 3.4 2.2 1 1.3 1.8 2.8 2.1 4.4.2 1 .4 2.1.5 3.1.1.4.1.8.1 1.2 0 .4-.8.1-1 0-.3-.2-.4-.4-.5-.7 0-.1-.4 0-.4.1.2.7 1.2 1.2 1.9.9.7-.4.2-1.8.2-2.5-.2-1.9-.7-3.7-1.7-5.3-.5-.8-1-1.5-1.8-2-.7-.6-1.6-.9-2.4-1.3-.1-.3-.4-.2-.4-.1z" fill="#090204"/><path d="M30.8 47.5c.7 1.2 1.2 2.3 1.3 3.6.1.6 0 1.3 0 1.9 0 .1 0 .7-.2.8-.5.1-1-.3-1.2-.8-.1-.2-.4.1-.3.3.3.6.8.7 1.4.7.5 0 .5-.4.6-.8.2-1 .1-2.2-.1-3.1-.1-.9-.8-1.7-1.3-2.5-.1-.1-.3-.2-.2-.1z" fill="#090204"/><path d="M28.9 48.7c.5.7 1 1.4 1.2 2.3.1.5.1 1 .1 1.5s.1.9 0 1.4c-.1.7-1.9-.1-2.2-.5-.1-.2-.4-.1-.4.1.3.7 2.8 1.5 2.9.4.1-.8 0-1.6-.1-2.4-.1-1.2-.7-1.8-1.4-2.8.1 0-.2-.1-.1 0z" fill="#090204"/><path d="M26.6 49.9c.5.8 1 1.6 1.1 2.6 0 .4.1.8.1 1.2 0 .2 0 .3-.1.4 0 .2-1.3-.3-1.3-.3-1-.5-1-1.7-1.5-2.6-.7-1.2-1.7-2-2.1-3.3-.1-.2-.4-.1-.4.1.6 1.5 1.9 2.6 2.4 4.1.3 1.2 1.1 2.2 2.4 2.2 1 .1.8-.4.8-1.3 0-.4 0-.9-.1-1.3-.1-.7-.7-1-1-1.7 0-.1-.3-.2-.3-.1zm2.7-24.7c-1.1.1-2.2-.2-3.3-.5-.9-.2-1.9-.5-2.7-1-.2-.1-.4.2-.2.3.8.5 1.8.7 2.7 1 1.1.3 2.3.6 3.5.5.2 0 .3-.3 0-.3z" fill="#090204"/><path d="M23.4 23.3c-.4.5-.6 1-.6 1.6 0 .1.4 0 .4-.1-.1-.6.1-1.2.4-1.7l-.2.2zm6.5 3.7c-2.4 2.2-4.7-.3-5.5-2.6-.1-.2-.4-.2-.4 0 .5 1.4 1.3 2.8 2.8 3.4 1.1.5 2.5.1 3.5-.7 0-.1-.2-.2-.4-.1z" fill="#090204"/><path d="M26.1 25c.6.3 1.1.5 1.5.9.5.5.7 1.3.7 2 0 .2.4.1.4-.1 0-.7-.2-1.4-.7-2-.4-.6-1-.7-1.7-1 0 .1-.4.1-.2.2zm9.1 18.9h-4.5v-.2h4.5zm-3.1-29.8c-.3.4-.6.7-.8 1.1-.1.1.3 0 .4 0 .9-.4 1.7 0 2.6-.1.3 0 .7-.1.7-.5 0-.6-2.2-.6-2.6-.6-.1 0-.4.2-.2.2.7 0 1.8 0 2.4.4-.1.2-.3.3-.4.3-.1 0-.2 0-.4-.1-.3 0-.7-.1-.9-.1-.5 0-.9.1-1.4.3.1 0 .2.1.3.1.2-.4.5-.7.8-1-.1-.1-.5 0-.5 0zm-2.3 2.2c0 .9.2 1.8.3 2.8 0 .2.4.1.4-.1-.1-.9-.4-1.5-.5-2.4 0-.3-.2-.5-.2-.3zm-.4 6c-.3-.2-.7-.1-1-.1-.1 0-.1-.3-.2-.4-.1-.2 0-.4.1-.6.2-.2-.1-.1-.2.1-.2.1-.3.2-.3.3 0 .2.1.4.2.6.1.1.2.2.3.2.3 0 .6-.1.8.1.1 0 .5-.2.3-.2z" fill="#090204"/><path d="M22.1 12.5c-.5 1-1 2.1-1.1 3.2-.1 1.2.2 2.5.2 3.7 0 1.3-.6 2.4-.5 3.6.1 1.5.7 2.8 1.4 4.1 1.2 2 3.3 3.4 5.5 3.8 1.8.3 3.1-.3 4.4-1.5.1-.1-.3-.1-.3 0-1 1-2.2 1.5-3.7 1.4-1.1-.2-2.1-.6-3-1.2-1.8-1.2-3.1-3.2-3.6-5.3-.5-2 .3-3.9.3-5.8 0-.9-.2-1.9-.2-2.9s.7-2.3 1.1-3.2c-.2-.1-.5-.1-.5.1z" fill="#090204"/><path d="M22 28.1c.2-.1.3-.2.5-.2.1 0 .2-.1.2-.2s-.1-.1-.2-.1c-.3.1-.4.1-.7.2-.1 0-.2.1-.1.2.1.2.2.2.3.1zm-2.2-11.5c-1.7-1.2-1.8 1.3-1.7 2.5.2 1.3 1 2.4 1.4 3.5.2.6.4 1 1.1 1 .1 0 .3-.1.2-.2 0 0-.1 0-.1-.1-.1-.1-.4.1-.3.2 0 0 .1 0 .1.1.1-.1.1-.2.2-.2-.6 0-.7-.8-.9-1.2-.3-.7-.7-1.3-.9-2-.3-.7-.4-1.3-.4-2s.2-1.9 1-1.3c.1 0 .5-.2.3-.3z" fill="#090204"/><path d="M18.9 18c.1-.2.3-.2.4-.1.1.2.2.3.3.5.2.3.2.6.3.9.1.3-.2.4-.3.6-.2.4-.1.9.1 1.3.1.1.2 0 .1-.1-.2-.3-.1-.7.1-1.1.1-.2.2-.3.3-.5.2-.2-.2-.8-.3-1s-.3-.9-.7-.9c-.3-.1-.5.2-.6.4.1.1.3 0 .3 0zm-.4-7.4c-.1-2.8.2-5.7 2.2-7.9S26-.1 28.8.2c2.6.3 4.9 1.7 6.2 3.9 1 1.7 1.3 3.7 1.8 5.7.1.3 1.5.5 1.8.6.3.1 1.2.4.5.6l-1.2.3c-2 .4-4 .6-6 .7-2.4.2-5 .4-7.3-.2-1.6-.4-3.1-.9-4.8-1.2-.9-.2-1.7-.1-2.6 0-.1 0-.2.1-.2.2.1.9.3 1.3 1.2 1.4.9.1 1.9.1 2.9.2 1.9.1 3.7.2 5.6.1.2 0 .3-.3.1-.3-1.7.1-3.3-.1-4.9-.1-.9-.1-1.8-.1-2.8-.1-1-.1-1.5-.1-1.7-1.3l-.2.2c2.1-.2 4 .3 6 .8.9.2 1.7.5 2.6.7 1.2.2 2.5.1 3.7.1 1.9-.1 3.7-.3 5.6-.5 1.5-.2 3.2-.3 4.6-.9.4-.2 0-.5-.2-.6-.3-.2-2.3-.7-2.3-.8-.5-1.9-.8-3.7-1.7-5.5-2.3-4-7.6-5-11.7-3.6-1.8.6-3.2 1.7-4.2 3.3-1.3 2-1.4 4.6-1.3 6.9-.2.1.2 0 .2-.2z" fill="#090204"/><path d="M26.2.2c4.6.9 5.2 6.7 4.7 10.4 0 .1.3 0 .4-.1.3-2.4.2-4.8-.8-7.1-.8-1.7-2.2-3-4-3.4 0 0-.4.2-.3.2zm5.9 1.3c.9 1.2 1.8 2.5 2.2 4 .4 1.4.6 2.9.7 4.4 0 .1.1.1.1.1.4.1.7.1 1 .1.1 0 .4-.1.1-.1-.9-.1-.9-.7-.9-1.5-.1-.9-.3-1.9-.5-2.8-.4-1.7-1.2-3-2.2-4.3-.2-.1-.6 0-.5.1z" fill="#090204"/><path d="M31.2 10.5c-.7.2-1.2.4-1.9.4-.1 0-.4.1-.2.1.7-.1 1.4-.2 2.2-.4.1 0 .1-.1-.1-.1zm-8-9.5c.9-.2 1.9.4 2.6.9 1.6 1.2 1.7 3 2 4.8 0 .2.2.4.2.3-.3-2-.2-4-2-5.3-.7-.6-1.9-.9-2.8-.8h.1l-.1.1zm-1.9 10.2c-.1-.7-.1-1.4-.9-1.5-.2 0-.4.1-.2.1.7.1.7.8.7 1.3.1.2.4.3.4.1z" fill="#090204"/><g fill="#4054a1"><path d="M33.68 20.589v5.907h.9v-.86h8.332v.86h.86v-3.834c-.195-.235-.703-.274-.86 0v1.722h-5.125c-.9 0-1.878.117-2.386-.235-.391-.235-.822-.704-.86-1.33v-2.191c.038-.274-.861-.274-.861-.04z"/><path d="M37.787 23.17c-.313.118-.743.314-.743.666.04.391.822.274 1.291.274 1.37 0 2.543.078 3.912 0 .274-.04.47-.079.47-.313.039-.352-.665-.587-.94-.705a4.267 4.267 0 00-1.408-.234c-.821-.078-1.917.039-2.582.313zm-2.504.51c.196.234.353.312.626.39.548.157.9.079.978-.234a.654.654 0 00-.039-.47c-.078-.352-.47-.821-.782-1.056-.117-.117-.43-.274-.548-.313-.195-.039-.313-.117-.547 0-.196.157-.196.626-.079.978.157.47.274.548.391.704z"/></g><path d="M38.1 32.2c-5 0-9-4-9-9s4-9 9-9c.9 0 3 .5 4 .9l-.2.3c-.9-.4-3-.9-3.8-.9-4.7 0-8.7 3.9-8.7 8.7 0 4.7 3.9 8.7 8.7 8.7 1 0 3.3-.4 4.4-1.1l.2.3c-1.2.7-3.6 1.1-4.6 1.1z" fill="#090204"/><path d="M40.1 16.4c1.2.2 2.6.9 3.6 1.9.9.9 1.5 2 1.8 3.3.5 2.4.3 4.6-1.4 6.4-.9.9-2 1.9-3.4 2.2 2.3-1.2 4.1-2.8 4.4-5.5.3-2.9-.6-5.1-2.3-6.7-.8-.8-1.8-1.3-2.9-1.6" fill="#a48a7b"/><path d="M38.7 16.3c-3.9 0-7.1 3.1-7.1 7.1 0 3.9 3.1 7.1 7.1 7.1 3.9 0 7.1-3.1 7.1-7.1s-3.2-7.1-7.1-7.1zm0 14.2c-4 0-7.2-3.3-7.2-7.2s3.3-7.2 7.2-7.2 7.2 3.3 7.2 7.2-3.2 7.2-7.2 7.2z" fill="#090204"/><path d="M38.3 30.5v-.2c3.9 0 6.9-3.1 6.9-7s-3.1-7.1-7.1-7.1h-.2V16h.2c4 0 7.2 3.3 7.2 7.2.1 4.1-3 7.3-7 7.3z" fill="#090204"/><path d="M43.1 22c-.2-.9-.3-1.7-.8-2.5-.4-.7-1-1.5-1.7-1.8-.7-.3-1.8-.1-1.4.9.4.9 1.4 1 2.2 1.4.6.3 1.4 1.3 1.7 2" fill="#fff" opacity=".72"/><path d="M123.8 58.2c-.5 0-.9-.4-.9-.9s.4-.9.9-.9.9.4.9.9-.4.9-.9.9z" fill="#fff"/><path d="M41 52v.6c.2-.2.3-.4.5-.5.2-.1.4-.2.7-.2.5 0 .9.2 1.2.7.2-.2.3-.4.6-.5.2-.1.4-.2.7-.2.3 0 .6.1.8.2.2.2.3.3.4.6.1.2.1.6.1 1.1v4.4h-1.8v-4c0-.6 0-.8-.1-1-.1-.1-.1-.2-.2-.2s-.2.1-.3.2c-.1.1-.1.4-.1 1v4h-1.8v-3.9c0-.6 0-.9-.1-1.1-.1-.1-.1-.2-.2-.2s-.2.1-.2.1c-.1.1-.1.2-.1.2v4.8h-1.8V52H41zm9.7 3.2h-2.4v1.3c0 .3 0 .4.1.6.1.1.1.1.2.1.2 0 .2-.1.3-.2.1-.1.1-.3.1-.6v-.8h1.8v.4c0 .4 0 .7-.1.9-.1.2-.2.4-.3.7-.2.2-.4.4-.7.5-.3.1-.6.2-1 .2s-.7-.1-1-.2c-.3-.1-.6-.3-.7-.5-.2-.2-.3-.4-.3-.7-.1-.2-.1-.6-.1-1v-1.8c0-.6.1-.9.2-1.3s.4-.6.7-.7c.3-.2.7-.2 1.2-.2.6 0 .9.1 1.3.3.3.2.6.4.7.8.1.3.2.8.2 1.4v.9h-.2zm-1.8-1v-.4c0-.3 0-.5-.1-.6-.1-.2-.1-.2-.2-.2s-.2.1-.2.1c-.1.1-.1.3-.1.7v.4h.6zm4.4-2.2v6.1h-1.9V52h1.9zm2.5 0l-.1.6c.1-.2.3-.4.5-.5.2-.1.4-.2.7-.2.3 0 .6.1.8.2.2.2.3.3.4.6.1.2.1.6.1 1.2v4.3h-1.9V54c0-.4 0-.7-.1-.8-.1-.1-.1-.2-.2-.2s-.2.1-.3.2c-.1.1-.1.4-.1.8v4.1h-1.9V52h2.1z" fill="#385e9a"/><path d="M61.5 54.4v1.3H59v-1.3h2.5zm6.8-3.7v7.5h-1.7v-5.1l-.7 5.1h-1.2l-.7-5v5h-1.7v-7.5h2.5c.1.4.2 1 .2 1.6l.3 1.9.4-3.5h2.6zm5 3.4v1.5c0 .6-.1.9-.1 1.2s-.2.5-.3.7c-.2.2-.4.4-.7.5-.3.1-.6.2-1 .2s-.8-.1-1-.1c-.3-.1-.5-.2-.7-.4-.2-.2-.3-.4-.3-.7-.2-.2-.2-.6-.2-1.1v-1.6c0-.6.1-1 .2-1.3.1-.3.3-.6.7-.8s.7-.3 1.2-.3c.4 0 .8.1 1.1.2.3.1.6.3.7.5s.3.4.3.6c0 .2.1.6.1.9zm-1.9-.4c0-.3 0-.5-.1-.6 0-.1-.1-.1-.2-.1s-.1 0-.2.1-.1.3-.1.6v2.8c0 .3 0 .5.1.6.1.1.1.1.2.1s.2-.1.2-.1c.1-.1.1-.3.1-.5v-2.9zm4.4-1.7l-.1.6c.1-.2.3-.4.5-.5.2-.1.4-.2.7-.2.3 0 .6.1.8.2.2.2.3.3.4.6.1.2.1.6.1 1.2v4.3h-1.9V54c0-.4 0-.7-.1-.8-.1-.1-.1-.2-.2-.2s-.2.1-.3.2c-.1.1-.1.4-.1.8v4.1h-1.8V52h2zm5-.8v1h.5v1h-.5v3.3c0 .4 0 .6.1.7.1.1.2.1.5.1v1h-.8c-.4 0-.7 0-.9-.1-.2-.1-.3-.1-.5-.2s-.2-.3-.3-.4-.1-.6-.1-1.2v-3.1h-.4v-1h.4v-1h2zm5.2 4h-2.4v1.3c0 .3 0 .4.1.6.1.1.1.1.2.1.2 0 .2-.1.3-.2.1-.1.1-.3.1-.6v-.8h1.8v.4c0 .4 0 .7-.1.9-.1.2-.2.4-.3.7-.2.2-.4.4-.7.5-.3.1-.6.2-1 .2s-.7-.1-1-.2c-.3-.1-.6-.3-.7-.5-.2-.2-.3-.4-.3-.7-.1-.2-.1-.6-.1-1v-1.8c0-.6.1-.9.2-1.3.2-.3.4-.6.7-.7.3-.2.7-.2 1.2-.2.6 0 .9.1 1.3.3.3.2.6.4.7.8.1.3.2.8.2 1.4l-.2.8zm-1.9-1v-.4c0-.3 0-.5-.1-.6 0-.2-.1-.2-.2-.2s-.2.1-.2.1c-.1.1-.1.3-.1.7v.4h.6zm6.7-2.2v6.1h-1.9l.1-.5c-.1.2-.3.4-.5.4-.2.1-.4.2-.7.2-.3 0-.5-.1-.7-.2-.2-.1-.3-.2-.4-.4-.1-.2-.2-.3-.2-.5s-.1-.6-.1-1V52h1.9v4.2c0 .5 0 .8.1.8.1.1.1.1.2.1.2 0 .2-.1.2-.2s.1-.4.1-.9v-4.1l1.9.1zm2.6 0l-.1.8c.3-.6.7-.9 1.2-.9V54c-.3 0-.6.1-.8.2-.2.1-.3.2-.3.4-.1.2-.1.6-.1 1.2v2.4h-1.9V52h2zm4.4 0v1.4l-1.4 3.5h1.4v1.2h-3.2v-1.3l1.4-3.6h-1.3V52h3.1zm2.3 0v6.1h-1.9V52h1.9zm2.6 0l-.1.6c.2-.2.3-.4.5-.5.2-.1.4-.2.7-.2.5 0 .9.2 1.2.7.2-.2.3-.4.6-.5.2-.1.4-.2.7-.2.3 0 .6.1.8.2.2.2.3.3.4.6.1.2.1.6.1 1.1v4.4h-1.8v-4c0-.6 0-.8-.1-1-.1-.1-.1-.2-.2-.2s-.2.1-.3.2c-.1.1-.1.4-.1 1v4h-1.8v-3.9c0-.6 0-.9-.1-1.1-.1-.1-.1-.2-.2-.2s-.2.1-.2.1c-.1.1-.1.2-.1.2v4.8h-1.8V52h1.8zm7.3 0l-.1.6c.2-.2.3-.4.5-.5.2-.1.4-.2.7-.2.5 0 .9.2 1.2.7.2-.2.3-.4.6-.5s.4-.2.7-.2c.3 0 .6.1.8.2.2.2.3.3.4.6.1.2.1.6.1 1.1v4.4h-1.8v-4c0-.6 0-.8-.1-1-.1-.1-.1-.2-.2-.2s-.2.1-.3.2c-.1.1-.1.4-.1 1v4h-1.8v-3.9c0-.6 0-.9-.1-1.1-.1-.1-.1-.2-.2-.2s-.2.1-.2.1c-.1.1-.1.2-.1.2v4.8h-1.8V52h1.8zm9.7 3.2h-2.4v1.3c0 .3 0 .4.1.6.1.1.1.1.2.1.2 0 .2-.1.3-.2.1-.1.1-.3.1-.6v-.8h1.8v.4c0 .4 0 .7-.1.9-.1.2-.2.4-.3.7s-.4.4-.7.5c-.3.1-.6.2-1 .2s-.7-.1-1-.2c-.3-.1-.6-.3-.7-.5-.2-.2-.3-.4-.3-.7-.1-.2-.1-.6-.1-1v-1.8c0-.6.1-.9.2-1.3.2-.3.4-.6.7-.7s.7-.2 1.2-.2c.6 0 .9.1 1.3.3.3.2.6.4.7.8.1.3.2.8.2 1.4l-.2.8zm-1.9-1v-.4c0-.3 0-.5-.1-.6-.1-.1-.1-.2-.2-.2s-.2.1-.2.1c-.1.1-.1.3-.1.7v.4h.6zm4.3-2.2l-.1.8c.3-.6.7-.9 1.2-.9V54c-.3 0-.6.1-.8.2-.2.1-.3.2-.3.4-.1.2-.1.6-.1 1.2v2.4h-1.9V52h2zm7.4-1.3v7.5h-1.9v-.4c-.2.2-.4.3-.6.4-.2.1-.4.2-.6.2-.3 0-.6-.1-.8-.2-.2-.2-.3-.3-.4-.6-.1-.2-.1-.6-.1-1v-2.9c0-.5.1-.8.1-1 .1-.2.2-.4.4-.5.2-.2.5-.2.8-.2.2 0 .4.1.7.1.2.1.4.2.6.4v-1.8h1.8zm-1.9 2.8c0-.2 0-.4-.1-.4s-.1-.1-.2-.1-.2.1-.2.1c-.1.1-.1.2-.1.4v3c0 .3 0 .4.1.5s.1.1.2.1.2-.1.2-.1c.1-.1.1-.3.1-.7v-2.8zm6.8 1.7H132v1.3c0 .3 0 .4.1.6.1.1.1.1.2.1.2 0 .2-.1.3-.2.1-.1.1-.3.1-.6v-.8h1.8v.4c0 .4 0 .7-.1.9-.1.2-.2.4-.3.7-.2.2-.4.4-.7.5-.3.1-.6.2-1 .2s-.7-.1-1-.2c-.3-.1-.6-.3-.7-.5-.2-.2-.3-.4-.3-.7-.1-.2-.1-.6-.1-1v-1.8c0-.6.1-.9.2-1.3s.4-.6.7-.7c.3-.2.7-.2 1.2-.2.6 0 .9.1 1.3.3.3.2.6.4.7.8.1.3.2.8.2 1.4l-.2.8zm-1.9-1v-.4c0-.3 0-.5-.1-.6-.1-.1-.1-.2-.2-.2s-.2.1-.2.1c-.1.1-.1.3-.1.7v.4h.6z" fill="#fff"/><path d="M52.3 51.5c-.6 0-1-.5-1-1 0-.6.5-1 1-1 .6 0 1 .5 1 1 .1.5-.4 1-1 1z" fill="#385e9a"/><path d="M99.2 51.5c-.6 0-1-.5-1-1 0-.6.5-1 1-1 .6 0 1 .5 1 1s-.4 1-1 1zm37.2.3c-.7 0-1.2-.6-1.2-1.3s.6-1.3 1.2-1.3c.7 0 1.2.6 1.2 1.3s-.6 1.3-1.2 1.3m0 .4c.9 0 1.8-.7 1.8-1.8s-.8-1.8-1.8-1.8c-.9 0-1.8.7-1.8 1.8.1 1.1.9 1.8 1.8 1.8m-.3-1.9v-.4h.2c.1 0 .3 0 .3.2s-.1.2-.3.2h-.2zm0 .3h.1l.4.8h.4l-.4-.8c.3 0 .5-.2.5-.5 0-.4-.3-.6-.8-.6h-.7v1.9h.4l.1-.8z" fill="#fff"/></svg>