<svg xmlns="http://www.w3.org/2000/svg" viewBox="0 0 120 73.8"><path d="M59.3 73.5c-.4 0-.8-.1-1.1-.3L54.6 71c-.5-.3-.3-.4-.1-.5.7-.3.9-.3 1.6-.7h.3l2.8 1.6c.1.1.2.1.3 0l10.8-6.3c.1-.1.2-.2.2-.3V52.4c0-.1-.1-.2-.2-.3l-10.8-6.2c-.1-.1-.2-.1-.3 0l-10.8 6.2c-.1.1-.2.2-.2.3v12.5c0 .1.1.2.2.3l3 1.7c1.6.8 2.6-.1 2.6-1.1V53.5c0-.2.1-.3.3-.3h1.4c.2 0 .3.1.3.3v12.3c0 2.1-1.2 3.4-3.2 3.4-.6 0-1.1 0-2.5-.7l-2.8-1.6c-.7-.4-1.1-1.2-1.1-2V52.4c0-.8.4-1.6 1.1-2l10.8-6.3c.7-.4 1.6-.4 2.3 0l10.8 6.3c.7.4 1.1 1.2 1.1 2V65c0 .8-.4 1.6-1.1 2l-10.8 6.3c-.5.1-.9.2-1.3.2" fill="#689f63"/><path d="M62.7 64.9c-4.7 0-5.7-2.2-5.7-4 0-.2.1-.3.3-.3h1.4c.2 0 .3.1.3.3.2 1.4.8 2.1 3.7 2.1 2.3 0 3.3-.5 3.3-1.7 0-.7-.3-1.2-3.8-1.6-3-.3-4.8-.9-4.8-3.3 0-2.2 1.8-3.5 4.9-3.5 3.5 0 5.2 1.2 5.4 3.8 0 .2-.1.3-.3.3H66c-.1 0-.3-.1-.3-.2-.3-1.5-1.2-2-3.4-2-2.5 0-2.8.9-2.8 1.5 0 .8.3 1 3.7 1.5 3.3.4 4.9 1.1 4.9 3.4-.1 2.3-2 3.7-5.4 3.7m13.1-13.3h.4c.3 0 .4-.2.4-.3 0-.3-.2-.3-.3-.3h-.4l-.1.6zm-.4-1h.8c.3 0 .8 0 .8.6 0 .4-.3.5-.4.6.3 0 .3.2.4.5 0 .2.1.5.1.6h-.5c0-.1-.1-.7-.1-.7 0-.1-.1-.2-.2-.2h-.4v.9h-.5v-2.3zm-1 1.2c0 1 .8 1.8 1.7 1.8 1 0 1.8-.8 1.8-1.8s-.8-1.7-1.8-1.7c-.9-.1-1.7.7-1.7 1.7m3.9 0c0 1.2-.9 2.1-2.1 2.1-1.1 0-2.1-.9-2.1-2.1 0-1.2 1-2.1 2.1-2.1s2.1.9 2.1 2.1" fill="#689f63"/><path d="M25.8 24.6c0-.5-.3-1-.7-1.2l-11.5-6.6c-.2-.1-.4-.2-.6-.2h-.1c-.2 0-.4.1-.6.2L.7 23.4c-.4.2-.7.7-.7 1.2v17.8c0 .2.1.5.3.6.2.1.5.1.7 0l6.8-3.9c.4-.3.7-.7.7-1.2v-8.3c0-.5.3-1 .7-1.2l2.9-1.7c.2-.1.5-.2.7-.2.2 0 .5.1.7.2l2.9 1.7c.4.2.7.7.7 1.2v8.3c0 .5.3.9.7 1.2l6.8 3.9c.2.1.5.1.7 0 .2-.1.3-.4.3-.6l.2-17.8zM80 33.8c0 .1-.1.2-.2.3l-3.9 2.3c-.1.1-.2.1-.3 0l-3.9-2.3c-.1-.1-.2-.2-.2-.3v-4.6c0-.1.1-.2.2-.3l3.9-2.3c.1-.1.2-.1.3 0l3.9 2.3c.1.1.2.2.2.3v4.6zM81 .1c-.2-.1-.5-.1-.7 0-.2.1-.3.3-.3.6v17.6c0 .3-.2.5-.5.5-.1 0-.2 0-.2-.1L76.4 17c-.4-.2-1-.2-1.4 0l-11.5 6.6c-.4.2-.7.7-.7 1.2v13.3c0 .5.3 1 .7 1.2L75 46c.4.2 1 .2 1.4 0l11.5-6.6c.4-.2.7-.7.7-1.2V5.1c0-.5-.3-1-.7-1.2L81 .1zm38.3 29.1c.4-.2.7-.7.7-1.2v-3.2c0-.5-.3-1-.7-1.2L107.9 17c-.4-.2-1-.2-1.4 0L95 23.5c-.4.2-.7.7-.7 1.2V38c0 .5.3 1 .7 1.2l11.4 6.5c.4.2.9.2 1.4 0l6.9-3.8c.2-.1.4-.4.4-.6 0-.2-.1-.5-.3-.6l-11.6-6.6c-.2-.1-.3-.4-.3-.6v-4.2c0-.2.1-.5.3-.6l3.6-2.1c.2-.1.5-.1.7 0l3.6 2.1c.2.1.3.4.3.6v3.3c0 .2.1.5.3.6.2.1.5.1.7 0l6.9-4z" fill-rule="evenodd" clip-rule="evenodd" fill="#333"/><path d="M107 28.5h.3l2.2 1.3c.1 0 .1.1.1.2v2.5c0 .1-.1.2-.1.2l-2.2 1.3h-.3l-2.2-1.3c-.1 0-.1-.1-.1-.2V30c0-.1 0-.2.1-.2l2.2-1.3z" fill-rule="evenodd" clip-rule="evenodd" fill="#689f63"/><g transform="translate(-78.306 -164.016)"><linearGradient id="a" gradientUnits="userSpaceOnUse" x1="1172.346" y1="-371.979" x2="1172.453" y2="-371.979" gradientTransform="scale(-351.0721 351.0721) rotate(63.886 287.274 -1126.187)"><stop offset=".3" stop-color="#3e863d"/><stop offset=".5" stop-color="#55934f"/><stop offset=".8" stop-color="#5aad45"/></linearGradient><path d="M147 186.5l-32.2-15.8-16.5 33.7 32.2 15.8 16.5-33.7z" fill="url(#a)"/></g><g transform="translate(-78.306 -164.016)"><linearGradient id="b" gradientUnits="userSpaceOnUse" x1="1164.805" y1="-365.568" x2="1164.874" y2="-365.568" gradientTransform="scale(539.1036 -539.1036) rotate(36.46 28.122 -1950.94)"><stop offset=".57" stop-color="#3e863d"/><stop offset=".72" stop-color="#619857"/><stop offset="1" stop-color="#76ac64"/></linearGradient><path d="M96.1 191.1l22.7 30.8 30.1-22.2-22.7-30.8-30.1 22.2z" fill="url(#b)"/></g><g transform="translate(-78.306 -164.016)"><linearGradient id="c" gradientUnits="userSpaceOnUse" x1="1163.565" y1="-368.276" x2="1163.628" y2="-368.276" gradientTransform="matrix(395.4717 0 0 -395.4717 -460046.531 -145447.188)"><stop offset=".16" stop-color="#6bbf47"/><stop offset=".38" stop-color="#79b461"/><stop offset=".47" stop-color="#75ac64"/><stop offset=".7" stop-color="#659e5a"/><stop offset=".9" stop-color="#3e863d"/></linearGradient><path d="M110.5 180.8V210h24.9v-29.1l-24.9-.1z" fill="url(#c)"/></g></svg>