<svg xmlns="http://www.w3.org/2000/svg" viewBox="0 0 196 65"><path d="M141.248 45.376h-9.2s-12.5 1.3-12.6-15h-7s-5-.7-4.8 4.3v29.2h-16.4v-47.4h15.1l.1 4.1c3.1-4.3 6.6-4.1 6.6-4.1h7.8v7.7s2.8-7.1 12.4-7.7h25.1v11.7h-19.4c-2.9 0-2.7 2.4-2.7 2.4.1 2.8 2.7 2.2 2.7 2.2h9.1c12.9.9 11.7 14.7 11.7 14.7s-.7 16.3-16.6 16.3h-23v-13.5h21.1c2.4 0 2.4-2.6 2.4-2.6s.1-2.3-2.4-2.3m38.7-43.1h16v61.5h-16v-61.5m-18.8 14.2h15.9v47.3l-15.9.1v-47.4m7.7-.8c-5.4 0-9.7-3.5-9.7-7.8s4.3-7.8 9.7-7.8 9.7 3.5 9.7 7.8-4.3 7.8-9.7 7.8m-78.8 29.6h-31.3c.1 6.3 7 7.8 7 7.8 6.6 0 7.7-4.5 7.7-4.5 0-.1 16.2 0 16.2 0-3.4 17.4-23.9 16.4-23.9 16.4s-24 2-24.5-25.6c0 0-3.5 6.4-12.6 6.4h-10v18.1h-18.7v-62.1h28.7s18.8-.3 20.4 19.7v-.1s5.3-6.6 16.6-6.3c.1-.1 25.6-3.5 24.4 30.2m-32.1-10.1h15.9s.3-7.9-7.8-7.9c-8.1-.1-8.1 7.9-8.1 7.9m-25.1-11.9s-.3-8.3-7.8-8.3h-6.3v17.7h6.3c7.5.1 7.8-9.4 7.8-9.4" fill-rule="evenodd" clip-rule="evenodd" fill="#ea1b22"/></svg>