<svg xmlns="http://www.w3.org/2000/svg" viewBox="0 0 120 63"><g fill-rule="evenodd" clip-rule="evenodd"><ellipse cx="60" cy="31.8" rx="60" ry="31.2" fill="#8993be"/><path d="M16.8 50.3L23.4 17h15.2c6.6.4 9.9 3.7 9.9 9.5 0 9.9-7.8 15.6-14.8 15.2h-7.4l-1.6 8.6h-7.9zm11.1-14.8L30 23.1h5.3c2.9 0 4.9 1.2 4.9 3.7-.4 7-3.7 8.2-7.4 8.6l-4.9.1zM47 41.6l6.6-33.3h7.8L59.7 17h7.4c6.6.4 9 3.7 8.2 7.8l-2.9 16.8h-8.2l2.9-15.2c.4-2.1.4-3.3-2.5-3.3h-6.2l-3.7 18.5H47zm24.9 8.7L78.5 17h15.2c6.6.4 9.9 3.7 9.9 9.5 0 9.9-7.8 15.6-14.8 15.2h-7.4l-1.6 8.6h-7.9zM83 35.5l2.1-12.3h5.3c2.9 0 4.9 1.2 4.9 3.7-.4 7-3.7 8.2-7.4 8.6H83z" fill="#232531"/></g></svg>