<svg xmlns="http://www.w3.org/2000/svg" viewBox="0 0 164 65"><path d="M130.621-.005l-3.5 2.4c-.9 1.3-1.6 2.7-2.4 3.8-.4.1-.8.2-1.3.3-1.6.3-2.3-.7-3.8-1.2-2.6-.8-4.1-1.4-6.1-2.7l-3.4 2.4c-1.3 1.3-.6 2.5-.7 3.9-3.4-1.7-5.8-3-10.4-3.2l-3.5 2.3c-.3 2-1.1 3.5-2.3 4.9-1.9-.1-4.1-2.8-6.8-3.3-1-.2-1.8-.1-2.3.3l-3.4 2.4c-.6.4-1.1 1-1.6 1.6-.1.2-.2.3-.3.4 0 0 .2 1.3 1.9-.6.7-.5 1.3-1.2 1.8-1.9.2 0 .3-.1.4 0 3.4.6 5.8 4.6 8.1 3l3.5-2.4c.1-.1.1-.1.2-.1 1.8-1.4 2.9-2.6 3.6-4.1 3.3.6 5.6 1.9 8.8 3.5l3.5-2.4c.8-.9 1.8-1.2 2.2-2.3.1-.3.2-.6.2-.8.9.4 1.9.8 3.2 1.3 1.4.4 2.3 1.4 3.9 1.2 1.4-.2 2.3-.7 3.2-1.3l3.5-2.3c.7-.5 1.8-1.9 2.3-2.6 1.4.6 3.8 1.3 5.1 1.3 0 0 .7-1.9.6-2-.9-.5-3.3-1-4.2-1.8zm2.2 8.5c-.5.2-.7 1.4-.4 3.4 2.1 4.7 3.7 14.5-1.3 21.9-5.2 6.2-11.3 8.8-20 9.9-20.9 2.6-30.1-15.3-31-22.7-.2.5-2.4 2.2-2.3 3 1.7 14.3 17.1 24.5 31 22.7 9.2-1.2 15.7-4.1 21.2-11.3l2.3-3.1c.4-.5.4-1.1.7-1.6 4.2-7.8 3.9-14.6.9-21.6-.4-.5-.8-.8-1.1-.6zm-13.5 5.4c-.3 0-.6.1-.9.1-2.4.4-4.1 2.8-3.7 5.2.4 2.4 2.8 4.1 5.2 3.7 2.4-.4 4.1-2.8 3.7-5.2-.4-2.2-2.3-3.7-4.3-3.8zm-24.2 4.2c-.3 0-.7.1-1 .1-2.4.4-4.1 2.8-3.6 5.2.4 2.4 2.8 4.1 5.2 3.6 2.4-.4 4.1-2.8 3.7-5.2-.4-2.1-2.2-3.6-4.3-3.7zm18.4 9.9c-.2 0-.3.3-.3.3-1.1 1.2-2.6 2.1-4.4 2.3-1.7.3-3.4-.1-4.8-.8-.1-.1-.3-.1-.4-.1-.3.1-.6.4-.6.7 1 2.9 3.7 4.9 6.6 4.4 2.8-.5 4.8-3.3 4.7-6.4-.1-.3-.5-.5-.8-.4z" fill="#0075bd"/><path d="M102.921 47.395c0-5.8 4.7-10.5 10.5-10.5s10.5 4.7 10.5 10.5-4.7 10.5-10.5 10.5-10.5-4.6-10.5-10.5zm55.1-17.4h3.8c1.2 0 2.1.9 2.1 2.1v23c0 1.2-.9 2.1-2.1 2.1h-3.8c-1.2 0-2.1-.9-2.1-2.1v-23c.1-1.2 1-2.1 2.1-2.1zm-1.7 23.1c0-2 1.6-3.7 3.7-3.7 2 0 3.7 1.6 3.7 3.7 0 2-1.6 3.7-3.7 3.7s-3.7-1.6-3.7-3.7zm.4 0c0-1.8 1.4-3.3 3.3-3.3 1.8 0 3.3 1.4 3.3 3.3 0 1.8-1.4 3.3-3.3 3.3-1.8 0-3.3-1.5-3.3-3.3zm3.8.2c.6 0 1-.5 1-1.1 0-.6-.6-1.1-1.2-1.1h-1.7v4h.6v-1.7h.6l1.1 1.7h.7l-1.1-1.8zm-.1-.5h-1.2v-1.2h1.2c.3 0 .6.3.6.6-.1.4-.3.6-.6.6zm-87.8-6.5c0-5.2 4.2-9.4 9.3-9.4 2 0 3.8.6 5.3 1.7 1.5-1.1 3.3-1.7 5.3-1.7 5.2 0 9.3 4.2 9.3 9.3v8.7c0 1.1-1 2.1-2.1 2.1h-3.8c-1.1 0-2.1-1-2.1-2.1v-8.7c0-.7-.6-1.3-1.3-1.3s-1.3.6-1.3 1.3v8.7c0 1.1-1 2.1-2.1 2.1h-3.8c-1.1 0-2.1-1-2.1-2.1v-8.6c0-.8-.6-1.4-1.3-1.4-.7 0-1.3.6-1.3 1.3v8.7c0 1.1-1 2.1-2.1 2.1h-3.8c-1.1 0-2.1-1-2.1-2.1v-8.6zm-1-6.4c0-1.2-.9-2.1-2.1-2.1h-3.8c-1.2 0-2.1.9-2.1 2.1v8.9c0 .7-.6 1.3-1.3 1.3-.7 0-1.3-.6-1.3-1.3v-8.8c0-1.2-.9-2.1-2.1-2.1h-3.8c-1.2 0-2.1.8-2.1 1.9v10.2c0 3 2.3 6.3 6.3 6.3h.1c2.2 0 3.1-.7 3.9-1.4.3-.4.5-.3.5-.1 0 2.3-2.4 4.3-4.4 4.3h-2.6c-.8 0-1.3.9-1.3 1.5v2.1c-.1 2 1.8 2.4 4.2 2.4h2.8c3.1 0 9.2-3.7 9.2-9.9l-.1-15.3zm-63.6 7.5v15.5c0 1.2-.9 2.1-2.1 2.1h-3.8c-1.2 0-2.1-.9-2.1-2.1v-15.5c0-5.8 4.7-10.5 10.5-10.5s10.5 4.7 10.5 10.5-4.8 10.5-9.9 10.5c0 0-1.9 0-1.9-1.9v-4.3c0-1.2 1.1-1.8 1.9-1.9 1.2-.2 1.9-1 1.9-2.4s-1.2-2.6-2.6-2.6-2.4 1.2-2.4 2.6zm16-17.5h3.8c1.2 0 2.1.9 2.1 2.1v23c0 1.2-.9 2.1-2.1 2.1h-3.8c-1.2 0-2.1-.9-2.1-2.1v-23c.1-1.1 1-2.1 2.1-2.1zm20 17.5v7.5c0 1.2.9 2.1 2.1 2.1h3.8c1.2 0 2.1-.9 2.1-2.1v-7.5c0-5.8-4.7-10.5-10.5-10.5s-10.5 4.7-10.5 10.5 4.8 10.5 9.9 10.5c0 0 1.9 0 1.9-1.9v-4.3c0-1.2-1.1-1.8-1.9-1.9-1.2-.2-1.9-1-1.9-2.4s1.2-2.6 2.6-2.6 2.4 1.2 2.4 2.6zm88.9.1v-15.5c0-1.2-.9-2.1-2.1-2.1h-3.8c-1.2 0-2.1.9-2.1 2.1v15.5c0 5.8 4.7 10.5 10.5 10.5s10.5-4.7 10.5-10.5-4.8-10.5-9.9-10.5c0 0-1.9 0-1.9 1.9v4.3c0 1.2 1.1 1.8 1.9 1.9 1.2.2 1.9 1 1.9 2.4s-1.2 2.6-2.6 2.6c-1.3-.1-2.4-1.2-2.4-2.6zm16-9.5h3.8c1.2 0 2.1.9 2.1 2.1v15c0 1.2-.9 2.1-2.1 2.1h-3.8c-1.2 0-2.1-.9-2.1-2.1v-15c.1-1.2 1-2.1 2.1-2.1zm2.9-2c-2.1 1.4-4.8.8-6.2-1.2l-3.2-4.8h10.6c1.4 2 .9 4.6-1.2 6zm-41 11.7c0-1.4 1.2-2.6 2.6-2.6s2.6 1.2 2.6 2.6-1.2 2.6-2.6 2.6c-1.4-.1-2.6-1.3-2.6-2.6z" fill-rule="evenodd" clip-rule="evenodd" fill="#00adef"/></svg>