<svg xmlns="http://www.w3.org/2000/svg" viewBox="0 0 120 50"><path d="M3.6 50H0V11.9c2.9-.9 5.9-1.4 9-1.4 2 0 4 .3 5.8 1 1.7.6 3.2 1.5 4.5 2.8 1.3 1.2 2.2 2.6 2.9 4.3.7 1.7 1 3.5 1 5.4 0 2.3-.4 4.4-1.2 6-.7 1.6-1.8 3-3.2 4.2-1.3 1.1-2.8 1.9-4.5 2.4-1.7.5-3.4.8-5.2.8-.9 0-1.9-.1-2.8-.2-.9-.1-1.8-.3-2.7-.6V50zM19 23.8c0-3-.9-5.5-2.6-7.4-1.7-1.9-4.1-2.8-7.2-2.8-1 0-1.9.1-2.9.2-.9.1-1.9.3-2.8.7V33c.9.3 1.7.5 2.6.7 1 .2 1.9.3 2.8.3 3.1 0 5.6-.9 7.4-2.7 1.8-1.7 2.7-4.2 2.7-7.5zM30.5 37V.2h3.7v36.7l-3.7.1zm33.7-3.9c-1.2 1.3-2.6 2.3-4.2 3-1.6.7-3.6 1-5.8 1-1.9 0-3.8-.3-5.5-1.1-1.5-.7-2.9-1.7-3.9-2.9-1.1-1.2-1.9-2.7-2.3-4.2-.5-1.6-.8-3.3-.8-5-.1-2 .3-4.1.9-6 .5-1.6 1.4-3 2.6-4.2 1.1-1.1 2.3-1.9 3.8-2.5 1.5-.5 3-.8 4.6-.8 3.8 0 6.8 1.2 8.7 3.6 1.9 2.3 2.9 5.8 2.8 10.3H45.3c.1 3 1 5.3 2.6 7.1 1.6 1.7 3.8 2.6 6.6 2.6 1.4 0 2.9-.2 4.2-.8 1.3-.5 2.5-1.4 3.4-2.4l2.1 2.3zm-2.9-11.9c0-1-.2-2.1-.5-3-.3-.9-.8-1.7-1.4-2.4-.7-.7-1.5-1.3-2.4-1.6-2.2-.8-4.6-.8-6.8 0-.9.3-1.7.9-2.3 1.5-.6.7-1.1 1.5-1.5 2.4-.5 1-.8 2-.9 3.1h15.8zM89 16.9c-.8-1.1-1.8-1.9-3-2.6-1.2-.6-2.5-.9-3.8-.8-1.9 0-3.2.3-3.9 1-.7.6-1.1 1.5-1.1 2.5 0 .6.2 1.3.5 1.8.4.5.8.9 1.4 1.3.6.4 1.3.7 2 .9.7.3 1.5.5 2.3.8 1 .3 2 .7 3 1 1 .3 1.9.8 2.7 1.4.8.6 1.5 1.3 2 2.2.5 1 .8 2.1.8 3.2s-.3 2.2-.8 3.2c-.5.9-1.2 1.7-2.1 2.4-.9.7-2 1.2-3.1 1.5-3.1.8-6.4.6-9.4-.5-1.7-.8-3.3-1.9-4.6-3.4l2.9-2.5c1.9 2.5 4.4 3.7 7.4 3.7 2 0 3.4-.4 4.4-1.1.9-.7 1.4-1.6 1.4-2.7 0-.7-.1-1.4-.5-2-.4-.6-.9-1-1.4-1.4-.7-.4-1.3-.7-2.1-1-.8-.3-1.6-.5-2.5-.8l-3-.9c-.9-.3-1.8-.8-2.6-1.3s-1.4-1.3-1.9-2.1c-.5-1-.8-2.1-.7-3.2 0-2.3.8-4.1 2.5-5.4s3.9-1.9 6.6-1.9c1.7 0 3.5.3 5.1 1 1.5.6 2.9 1.7 4.3 3.3L89.1 17l-.1-.1zM98.8 37V.3h3.7V37h-3.7zm3.7-13.6l12.6-12.7h4.9l-12.9 12.6L120 36.9h-5.1l-12.4-13.5z" fill="#010101"/><path d="M43.3 50H21.2v-3.5h22.1V50z" fill="#53bce6"/></svg>