<svg xmlns="http://www.w3.org/2000/svg" viewBox="0 0 120 46"><path d="M88.3 37.9l3.5-8.8h10L97 15.8l5.9-15L120 46h-12.5l-2.9-8.1H88.3z" fill="#3d3d3d"/><path d="M77.6 46L95.8.8H83.7L71.3 30 62.4.8h-9.3L43.6 30l-6.7-13.3-6.1 18.7L37 46h11.9l8.6-26.2L65.7 46h11.9z" fill="#5a0fc8"/><path d="M11.5 30.5h7.4c2.3 0 4.3-.3 6-.8l1.9-5.9 5.4-16.6c-.4-.6-.9-1.3-1.4-1.8C28.1 2.3 24 .8 18.7.8H0V46h11.5V30.5zm9.8-19.3c1.1 1.1 1.6 2.5 1.6 4.4 0 1.8-.5 3.3-1.4 4.4-1 1.2-3 1.8-5.7 1.8h-4.3V9.6h4.3c2.6 0 4.4.5 5.5 1.6z" fill="#3d3d3d"/></svg>