<svg xmlns="http://www.w3.org/2000/svg" viewBox="0 0 82 100"><g fill="#61dafb"><circle cx="41" cy="36.6" r="7.5"/><path d="M41 64.1c5.9 5.7 11.7 9.1 16.3 9.1 1.5 0 3-.3 4.2-1 4.2-2.4 5.7-8.5 4.3-17.1-.2-1.5-.6-3.1-1-4.7 1.6-.5 3.1-1 4.5-1.4C77.5 45.8 82 41.5 82 36.7c0-4.8-4.5-9.2-12.6-12.2-1.4-.6-2.9-1-4.5-1.4.4-1.6.7-3.1 1-4.7 1.3-8.8-.3-14.9-4.5-17.4-1.2-.7-2.7-1-4.2-1-4.6 0-10.5 3.4-16.3 9.1C35.1 3.4 29.3 0 24.6 0c-1.5 0-3 .3-4.2 1-4.2 2.4-5.7 8.5-4.3 17.1.2 1.5.6 3.1 1 4.7-1.6.5-3.1 1-4.5 1.4C4.5 27.4 0 31.7 0 36.5c0 4.8 4.5 9.2 12.6 12.2 1.4.6 2.9 1 4.5 1.4-.4 1.6-.7 3.1-1 4.7-1.4 8.6.2 14.7 4.3 17.1 1.2.7 2.7 1 4.2 1 4.7.2 10.5-3.2 16.4-8.8zm-4.5-10.9c1.4.1 3 .1 4.5.1s3.1 0 4.5-.1c-1.4 1.9-3 3.7-4.5 5.4-1.5-1.7-3.1-3.4-4.5-5.4zm-10-8.3c.8 1.4 1.5 2.7 2.4 3.9-2.5-.3-4.8-.7-7.1-1.2.7-2.2 1.5-4.4 2.5-6.7.7 1.4 1.4 2.7 2.2 4zm-4.7-19.4c2.3-.5 4.6-.9 7.1-1.2l-2.4 3.9c-.8 1.4-1.5 2.7-2.2 4-1-2.2-1.8-4.5-2.5-6.7zm4.5 11.1c1-2.2 2.2-4.3 3.5-6.5 1.2-2.1 2.6-4.2 3.9-6.3 2.4-.2 4.8-.2 7.3-.2 2.6 0 5 .1 7.3.2 1.4 2.1 2.7 4.2 3.9 6.3 1.3 2.2 2.4 4.3 3.5 6.5-1 2.2-2.2 4.3-3.5 6.5-1.2 2.1-2.6 4.2-3.9 6.3-2.4.2-4.8.2-7.3.2-2.6 0-5-.1-7.3-.2-1.4-2.1-2.7-4.2-3.9-6.3-1.4-2.2-2.5-4.4-3.5-6.5zm31.4-4.4l-2.2-4c-.8-1.4-1.5-2.7-2.4-3.9 2.5.3 4.8.7 7.1 1.2-.7 2.2-1.5 4.5-2.5 6.7zm0 8.7c1 2.3 1.8 4.5 2.5 6.7-2.3.5-4.6.9-7.1 1.2l2.4-3.9c.8-1.3 1.5-2.6 2.2-4zm1.9 28c-.6.4-1.4.6-2.3.6-3.9 0-8.9-3.2-13.7-8.1 2.3-2.5 4.6-5.3 6.8-8.5 3.8-.3 7.4-.9 10.8-1.7.4 1.4.6 2.9.9 4.3 1.1 6.9.2 11.8-2.5 13.4zm4.2-42.5c9 2.6 14.4 6.5 14.4 10.1 0 3.1-3.7 6.3-10.2 8.8-1.3.5-2.7 1-4.2 1.4-1-3.3-2.3-6.7-3.9-10.1 1.5-3.5 2.9-6.9 3.9-10.2zM57.3 3.7c.9 0 1.6.2 2.3.6 2.7 1.5 3.6 6.4 2.5 13.3-.2 1.4-.6 2.8-.9 4.3-3.4-.7-7-1.3-10.8-1.7-2.2-3.1-4.5-6-6.8-8.5 4.9-4.7 9.8-8 13.7-8zM45.5 19.9c-1.4-.1-3-.1-4.5-.1s-3.1 0-4.5.1c1.4-1.9 3-3.7 4.5-5.4 1.5 1.7 3.1 3.5 4.5 5.4zM22.4 4.3c.6-.4 1.4-.6 2.3-.6 3.9 0 8.9 3.2 13.7 8.1-2.3 2.5-4.6 5.3-6.8 8.5-3.8.3-7.4.9-10.8 1.7-.4-1.4-.6-2.9-.9-4.3-1.1-7-.2-11.8 2.5-13.4zm-4.2 42.4c-9-2.6-14.4-6.5-14.4-10.1 0-3.1 3.7-6.3 10.2-8.8 1.3-.5 2.7-1 4.2-1.4 1 3.3 2.3 6.7 3.9 10.1-1.6 3.5-2.9 7-3.9 10.2zm1.7 8.9c.2-1.4.6-2.8.9-4.3 3.4.7 7 1.3 10.8 1.7 2.2 3.1 4.5 6 6.8 8.5-4.8 4.8-9.7 8.1-13.7 8.1-.9 0-1.6-.2-2.3-.6-2.7-1.7-3.6-6.6-2.5-13.4zm-3.4 33.1c1.8-2.2 1.9-4.6.9-7s-3-3.5-5.5-3.6c-3-.1-6 0-9 0h-.6V99h2.4v-7.9h3.8c.5 0 .9.2 1.1.6l4.8 7.5c.1.2.3.4.5.4H18c-1.9-3-3.8-5.8-5.7-8.7 1.8-.3 3.2-.9 4.2-2.2zm-11.7-.1v-8h.9c1.9 0 3.8-.1 5.6.1 2.2.1 3.7 1.8 3.7 3.9 0 2.2-1.8 3.9-3.9 3.9-2 .2-3.9.1-6.3.1zm31.1 1c-1.3-5.6-6.4-7.1-10.4-5.3-3.1 1.4-4.4 4-4.5 7.3-.1 2.5.6 4.8 2.6 6.4 2.2 1.9 4.8 2.2 7.6 1.7 1.5-.3 2.9-1 3.9-2.2-.4-.6-.8-1.1-1.2-1.6-2.3 1.9-4.8 2.6-7.5 1.3-1.8-.9-2.7-3.1-2.8-4.7h12.5v-1c.1-.7 0-1.3-.2-1.9zm-12.1 1.3c-.2-2.4 2.2-5 4.8-5 3.1-.1 5 1.8 5.1 5h-9.9zm24.7-7c-1.2-.2-2.5-.3-3.7-.2-1.9.2-3.6 1-5 2.5.4.6.7 1.1 1.2 1.8.2-.2.3-.3.5-.4 1.3-1.2 2.8-1.9 4.7-1.7 1.4.1 2.8.6 3.2 2 .3 1.1.2 2.3.3 3.5-.2 0-.3-.1-.4-.2-1.9-1.6-4.1-1.9-6.4-1.4-2.2.6-3.5 2.3-3.7 4.4-.2 2.5 1 4.3 3.1 5.2 1.4.6 2.9.6 4.3.2 1.1-.2 1.6-.9 3.2-1.8v1h2.3c0-3.2.1-7.2 0-10.9 0-2.1-1.4-3.5-3.6-4zm1.1 10.2c-.1.2 0 .5 0 .7 0 1.7-.4 2.3-2 2.9-1.1.4-2.3.6-3.5.2-1.4-.4-2.3-1.6-2.3-3-.1-1.4.8-2.7 2.2-3.1 1.9-.6 3.5-.2 5.1.9.3.3.7.7.5 1.4zm12.6-8c2.1-.6 4-.2 5.5 1.5l.2.2c.6-.5 1-1 1.7-1.5-.2-.2-.3-.4-.5-.6-2.3-2.5-6.9-2.8-9.7-.8-3.9 2.9-3.9 8.5-1.9 11.5 1.9 2.8 4.5 3.8 7.7 3.4 1.9-.2 3.4-1.1 4.6-2.7-.6-.5-1.1-1-1.7-1.5-.2.2-.2.2-.3.4-2.2 2.4-5.8 2.2-7.7-.4-1.1-1.5-1.4-3.3-1-5.1-.1-2.1 1-3.7 3.1-4.4zM78.9 97c-.2.1-.2.2-.2.2-.6.5-1.3.6-2 .3s-.8-1-.9-1.6v-9.2c0-.2 0 .2.1-.6H79v-2.4h-3.2v-4h-2.4V84h-2.1c-.2 0-.4.2-.4.3-.1.6 0 1 0 1.8h2.6v10.3c0 1.3.3 2.4 1.4 3.1 1.2.7 3.5.6 4.6-.3.2-.1.2-.4.2-.5-.3-.5-.5-1.1-.8-1.7z"/></g></svg>