<svg xmlns="http://www.w3.org/2000/svg" viewBox="0 0 120 89.9"><path d="M103.3 51.7c-4.2 0-7.8 1-10.9 2.5-1.1-2.2-2.2-4.2-2.4-5.6-.2-1.7-.5-2.7-.2-4.7s1.4-4.9 1.4-5.1c0-.2-.3-1.2-2.7-1.3s-4.5.5-4.7 1.1c-.2.6-.7 2.1-1 3.6-.4 2.2-4.8 10-7.3 14.1-.8-1.6-1.5-3-1.7-4.1-.2-1.7-.5-2.7-.2-4.7s1.4-4.9 1.4-5.1c0-.2-.3-1.2-2.7-1.3-2.4 0-4.5.5-4.7 1.1-.2.6-.5 2.1-1 3.6s-6.4 14.5-7.9 17.9c-.8 1.7-1.5 3.1-1.9 4.1-.5.9 0 .1-.1.2-.4.6-.7 1-.7 1-.3.6-.7 1.1-.8 1.1-.1 0-.4-1.6 0-3.7.9-4.5 3-11.6 3-11.8 0-.1.4-1.4-1.4-2-1.7-.6-2.3.4-2.5.4-.1 0-.3.4-.3.4s1.9-7.9-3.6-7.9c-3.5 0-8.3 3.8-10.6 7.2-1.5.8-4.7 2.6-8.1 4.4-1.3.7-2.6 1.5-3.9 2.1l-.1-.2C21 51.8 8.6 46.8 9.1 37.2c.2-3.5 1.4-12.7 23.8-23.9 18.4-9.1 33-6.6 35.6-1.1 3.6 8-7.9 22.8-26.9 24.9-7.3.8-11.1-2-12-3-1-1.1-1.1-1.1-1.5-.9-.6.3-.2 1.3 0 1.9.6 1.5 2.9 4.1 6.9 5.4 3.5 1.1 12 1.8 22.3-2.2C68.8 33.8 77.8 21.4 75.2 11 72.5.4 54.9-3 38.4 2.9c-9.9 3.5-20.6 9-28.2 16.2C1 27.6-.5 35 .1 38.1c2.1 11 17.3 18.2 23.4 23.6-.3.2-.6.3-.8.5-3 1.5-14.6 7.6-17.6 14-3.3 7.3.5 12.5 3 13.2 7.8 2.2 15.8-1.7 20.2-8.2 4.3-6.4 3.8-14.8 1.8-18.6l-.1-.1 2.4-1.4c1.5-.9 3.1-1.8 4.4-2.5-.7 2-1.3 4.5-1.6 8-.3 4.1 1.4 9.5 3.6 11.6 1 .9 2.2.9 2.9.9 2.6 0 3.8-2.1 5-4.7 1.6-3.1 3-6.7 3-6.7s-1.8 9.8 3 9.8c1.8 0 3.5-2.3 4.3-3.4 0 0 0-.1.1-.2s.2-.3.3-.4c.7-1.2 2.3-4 4.6-8.6 3-6 5.9-13.4 5.9-13.4s.3 1.8 1.1 4.8c.5 1.8 1.6 3.7 2.5 5.6-.7 1-1.1 1.5-1.1 1.5-.6.8-1.2 1.5-1.9 2.3-2.4 2.9-5.3 6.1-5.6 7.1-.4 1.1-.4 1.9.5 2.6.6.5 1.8.6 3 .5 2.2-.1 3.7-.7 4.4-1 1.2-.4 2.5-1.1 3.8-2 2.3-1.7 3.8-4.2 3.6-7.5-.1-1.8-.7-3.6-1.4-5.3l.6-.9c3.7-5.4 6.6-11.4 6.6-11.4s.3 1.8 1.1 4.8c.4 1.5 1.3 3.2 2.1 4.8-3.5 2.8-5.6 6.1-6.4 8.3-1.4 4-.3 5.8 1.7 6.2.9.2 2.2-.2 3.2-.7 1.2-.4 2.7-1.1 4.1-2.1 2.3-1.7 4.6-4.1 4.5-7.4-.1-1.5-.5-3-1-4.4 3-1.2 6.8-1.9 11.6-1.3 10.4 1.2 12.5 7.7 12.1 10.5-.4 2.7-2.6 4.2-3.3 4.7-.7.4-1 .6-.9.9.1.5.4.5 1.1.4.9-.1 5.5-2.2 5.7-7.2.7-6.7-5.4-13.7-16.3-13.6zM22.9 78.8c-3.4 3.8-8.3 5.2-10.4 4-2.2-1.3-1.4-6.8 2.9-10.9 2.6-2.4 5.9-4.7 8.1-6.1.5-.3 1.2-.7 2.1-1.3.1-.1.2-.1.2-.1.2-.1.4-.2.5-.3 1.7 5.7.2 10.7-3.4 14.7zm25.2-17.2c-1.2 2.9-3.7 10.5-5.3 10-1.3-.4-2.1-6-.3-11.7.9-2.8 2.9-6.2 4.1-7.5 1.9-2.1 4-2.8 4.5-1.9.6 1.2-2.3 9.3-3 11.1zm20.7 10c-.5.3-1 .4-1.2.3-.2-.1.2-.4.2-.4s2.6-2.8 3.6-4.1c.6-.7 1.3-1.6 2-2.6v.2c.1 3.4-3.1 5.7-4.6 6.6zm16.1-3.7c-.4-.3-.3-1.1.9-3.9.5-1.1 1.6-2.9 3.6-4.6.2.7.4 1.4.4 2-.1 4.3-3.1 5.9-4.9 6.5z" fill="#cf649a"/></svg>