<svg xmlns="http://www.w3.org/2000/svg" viewBox="0 0 200 65"><linearGradient id="a" gradientUnits="userSpaceOnUse" x1="861.655" y1="-5532.983" x2="809.956" y2="-5533.013" gradientTransform="matrix(1.2327 0 0 -.8 -953.558 -4392.8)"><stop offset="0" stop-color="#3f4850"/><stop offset="1" stop-color="#3f4850" stop-opacity="0"/></linearGradient><path d="M11.3 17.2H199c.5 0 .9.4.9.9V49c0 .5-.4.9-.9.9H11.3c-.5 0-.9-.4-.9-.9V18.2c-.1-.5.3-1 .9-1z" fill="url(#a)"/><path d="M83.7 31.9s-.3-.2-.7-.6c-.2-.2-.4-.3-.5-.3-.2-.1-.5-.1-.9 0s-.7.3-1.1.6c-.4.3-.7.6-.9.9-.2.3-.3.6-.3.9 0 .2 0 .4.1.6.1.1.2.1.3.2.3.1 1 .1 2.1 0 1.4-.1 2.3 0 2.9.1 1.2.3 2 1.1 2.2 2.4.2 1.2-.1 2.3-.8 3.5-.7 1.1-1.4 1.8-2.3 2.2-.9.4-1.8.6-2.7.4-1.5-.3-3-1.4-4.4-3.2-.2-.2-.2-.4-.2-.7 0-.3.2-.5.3-.6.2-.2.4-.2.7-.2.3 0 .5.2.6.4 1.1 1.4 2.2 2.3 3.3 2.5 1.1.2 2.1-.4 3-1.8.5-.7.7-1.5.5-2.2 0-.3-.1-.5-.2-.6-.1-.1-.3-.2-.5-.3-.3-.1-1.1-.1-2.2 0-1.4.1-2.3 0-2.8-.1-.6-.2-1-.5-1.3-.9-.3-.4-.5-1-.5-1.7 0-.6.2-1.2.6-1.7.4-.6.8-1.1 1.4-1.5.4-.3.7-.5 1.1-.7.4-.2.8-.3 1.3-.4.5-.1.9 0 1.4.2.3.1.6.3 1 .6l.2.2c.2.1.3.2.4.3.2.1.3.3.4.6.1.2 0 .5-.2.7-.1.2-.3.3-.6.4-.3 0-.5 0-.7-.2zm11.4 1.2c-.4-1.5-1.1-2.3-2.1-2.5-.9-.1-1.7.3-2.4 1.4-.7 1.2-1.1 2.6-1.2 4.2 0 1.6.3 2.8 1 3.6.8.8 2 1 3.6.5.4-.1.8-.5 1.4-1 .2-.2.4-.4.8-.7.4-.4.6-.6.8-.7.2-.2.4-.3.6-.2.3 0 .5.1.7.3.2.2.3.4.2.7 0 .2-.1.5-.3.6l-.7.7c-.3.3-.6.6-.8.7-.8.7-1.5 1.2-2.1 1.4-2.3.8-4.2.5-5.5-.9-1.1-1.2-1.6-2.8-1.5-5 .1-2 .5-3.7 1.5-5.2.5-.8 1.1-1.4 1.8-1.8.7-.4 1.5-.6 2.4-.5 1.7.3 2.9 1.6 3.6 3.8.1.2 0 .5-.1.7-.1.2-.3.4-.6.4-.2.1-.5 0-.7-.1-.2.1-.4-.1-.4-.4zm6.5-8.4c-.1.6-.1 1.1-.2 1.6-.1.6-.1 1.1-.1 1.5V31l.1 1.8c0 .9.1 1.4.1 1.6.7-1.6 1.6-2.8 2.7-3.4.6-.4 1.3-.5 1.8-.4.6.2 1 .5 1.4 1.1.5.7.8 1.9 1 3.6.1.6.1 1.3.2 2.1v4.7c0 .2-.1.5-.3.6-.2.2-.4.3-.6.3s-.5-.1-.7-.3c-.2-.2-.3-.4-.3-.6v-4.4c0-.7-.1-1.4-.1-2-.2-1.4-.4-2.3-.7-2.8 0-.1-.1-.1-.1-.2s-.1-.1-.1-.1c-.1 0-.2 0-.4.2-.7.4-1.3 1.3-1.9 2.5-.5 1.2-.9 2.4-1 3.6v1.6c0 .9-.1 1.5-.3 2.1-.1.1-.1.2-.2.2-.2.2-.4.3-.6.4-.4.1-.7-.1-.9-.4-.1-.1-.1-.2-.2-.3 0-.1-.1-.3-.1-.5v-.6c-.1-.7-.1-1.3-.2-1.7-.1-.8-.1-2.1-.1-3.8 0-.4 0-1.3-.1-2.6 0-1.3-.1-2.3-.1-3 0-.7 0-1.6.1-2.6.1-1.1.1-2 .2-2.9 0-.2.2-.5.3-.6.2-.2.4-.2.7-.2.3 0 .5.2.6.4 0-.2.1.1.1.3zm9.5 4.6c-.2 2.6-.3 5.1-.1 7.4.1 1.7.3 3 .7 3.8.3.7.6 1 .9 1l.1-.1c.1-.1.3-.4.5-.7.3-.6.7-1.5 1.1-2.6.6-1.7 1.1-3.3 1.4-4.9.2-.9.3-1.7.4-2.5v-.8c0-.2 0-.4.1-.5 0-.1.1-.2.1-.3l.2-.2c.1-.1.2-.2.4-.2.2-.1.4-.1.6 0 .2.1.4.2.6.5 0 .1.1.1.1.2.1.3.1.7.1 1.1-.1.4-.1.6-.1.6 0 .6-.1 1.4-.1 2.6-.1 1.2-.1 2.1-.1 2.9v2.5c.1 1 .2 1.8.3 2.5.1.2 0 .5-.1.7-.1.2-.3.3-.6.4-.2.1-.5 0-.7-.1-.2-.1-.3-.3-.4-.6-.2-.8-.3-1.8-.3-2.9-.4 1.1-.7 1.9-1.1 2.6-.2.4-.5.8-.7 1.1-.4.4-.8.6-1.2.7-1.3.1-2.3-.6-2.9-2.2-.4-1.1-.7-2.5-.8-4.4-.2-2.4-.1-4.9.1-7.6 0-.3.1-.5.3-.6.2-.2.4-.2.7-.2.3 0 .5.1.6.3-.1 0 0 .2-.1.5zm10.2-5c-.2.7-.4 1.6-.4 2.6-.1.9-.1 1.8-.1 2.7v2.9c0 .9-.1 1.8-.1 2.8-.1 1.2-.1 2.3-.1 3.3s-.1 1.9-.1 2.8c0 .2-.1.5-.3.7-.2.2-.4.3-.6.3-.2 0-.5-.1-.7-.3-.2-.2-.3-.4-.3-.7 0-.9 0-1.8.1-2.8 0-1 .1-2.1.1-3.3.1-1.2.1-2.2.1-2.8v-2.7c0-.9 0-1.9.1-2.9.1-1.1.2-2.1.5-2.9.1-.2.2-.4.5-.5.2-.1.5-.2.7-.1.2.1.4.2.6.5.1-.1.1.1 0 .4zm2.6 11.1c.9.2 1.8.2 2.8 0 1-.3 1.7-.7 2.4-1.4.4-.4.6-.9.7-1.5.1-.4 0-.7-.3-.8-.6-.3-1.5-.1-2.7.6-1.4.8-2.4 1.8-2.9 3.1zm-1.9-.3c.7-1.9 2-3.3 3.8-4.4 1.8-1.1 3.3-1.3 4.5-.7.6.3.9.7 1.1 1.2.2.5.2 1.1.1 1.6-.1.9-.5 1.7-1.1 2.4-.8.9-1.9 1.6-3.2 2-1.3.4-2.5.4-3.8.1-.1.5 0 1 .1 1.5.2 1 .7 1.7 1.5 2 .9.4 2 .3 3.4-.3.4-.2.8-.4 1.1-.7.3-.3.7-.7 1.2-1.3.2-.2.4-.3.6-.3.3 0 .5 0 .7.2.2.2.3.4.3.6 0 .2 0 .5-.2.7-.4.5-.7.8-.9 1-.2.2-.5.5-.9.8-.4.3-.8.6-1.3.8-1.9.8-3.5.9-4.9.3-1.3-.6-2.2-1.7-2.5-3.3-.2-.9-.2-1.9-.1-2.9-.1-.3-.1-.6 0-.9.2-.2.3-.3.5-.4zm11.9-.4h5.8c.2 0 .5.1.6.3.2.2.3.4.3.7 0 .2-.1.5-.3.6-.2.2-.4.3-.7.3h-5.8c-.2 0-.5-.1-.6-.3-.2-.2-.3-.4-.3-.7 0-.3.1-.5.3-.7.2-.1.4-.2.7-.2zm10.2-6.2c-.1 1.5-.2 3.2-.2 5.2l.3-.7c.5-1.3 1-2.2 1.4-2.9.3-.5.6-.8.9-1 .5-.4.9-.6 1.4-.4.6.1 1 .5 1.2 1.2.2.4.3 1 .3 1.7 0 .3.1.6.1 1 .7-1.8 1.6-3 2.6-3.7.3-.2.5-.4.7-.5.5-.2 1-.3 1.4 0 .4.2.7.6.9 1.3.1.4.2.9.3 1.6.1 1 .1 2.4.1 4.2-.1 1.3-.1 2.7-.2 4.4-.1 1.8-.2 2.7-.2 2.8 0 .2-.1.5-.3.6-.2.2-.4.3-.6.3s-.5-.1-.7-.3c-.2-.2-.3-.4-.3-.6 0-.3.1-1.3.2-2.9.1-2 .2-3.4.2-4.3.1-1.7 0-3-.1-4-.1-.5-.1-.9-.2-1.2l-.2.1c-.8.6-1.6 1.9-2.3 3.8-.5 1.5-.9 3.1-1.2 4.8l-.4 2.6-.1.7v.4c0 .1 0 .1-.1.2-.1.2-.2.3-.4.4-.3.1-.5.2-.8 0-.2-.1-.3-.2-.4-.4-.2-.3-.3-.7-.3-1.3 0-.4 0-1 .1-1.7l.2-2.1.2-2.1c.1-1.7.2-3 .1-3.9 0-.4-.1-.7-.1-.9-.1.1-.2.2-.3.4-.4.6-.8 1.5-1.3 2.6-.7 1.8-1.3 3.4-1.6 4.9 0 .2-.1.4-.2.6-.1.2-.1.3-.1.4l.1.7c0 .5.1.9.1 1.2v.7l-.1.2c-.1.2-.2.3-.3.4-.2.2-.5.3-.8.2-.3-.1-.6-.2-.7-.6-.1-.2-.1-.4-.2-.6v-.8c0-.7 0-1.3.1-1.7 0-.6-.1-.9-.1-1-.1-4.6-.1-8 .1-10.1 0-.2.1-.5.3-.6.2-.2.4-.3.7-.2.3 0 .5.1.6.3.1.1.2.4.2.6zm22.2 2.8c-.1.1-.5.4-1.3 1.1l-2.5 2.3-2.4 2.2-.5.4.1.1c.4.4 1 .8 1.7 1.4l3.1 2.2c.2.2.3.4.4.6.1.2 0 .5-.2.7-.1.2-.3.3-.6.4-.2.1-.5 0-.7-.1l-3.2-2.2c-.7-.5-1.2-.9-1.6-1.3V42c0 .2-.1.5-.3.6-.2.2-.4.3-.6.3s-.5-.1-.7-.3c-.2-.2-.3-.4-.3-.6V25.2c0-.2.1-.5.3-.6.2-.2.4-.3.7-.3.2 0 .5.1.6.3.2.2.3.4.3.6v10.4l2.4-2.2 2.5-2.4c.8-.8 1.4-1.2 1.6-1.3.2-.1.4-.2.7-.1s.4.2.6.4c.1.2.2.4.1.7.2.3 0 .5-.2.6zm4.1 9.6c.2.2.3.4.3.7 0 .3-.1.6-.3.8-.2.2-.4.3-.7.3s-.6-.1-.8-.3c-.2-.2-.3-.5-.3-.8 0-.3.1-.6.3-.7.2-.2.5-.3.8-.3s.5.1.7.3zm8.9-9.7c0-.9 0-1.9.1-2.8 0-.7.1-1.4.2-2.2 0-.6.1-1.1.1-1.4 0-.2 0-.4.1-.5V24c0-.1.1-.2.2-.3.1-.2.3-.3.5-.3.2-.1.5-.1.7.1.2.1.3.2.4.4 0 .1.1.1.1.2v.4c0 .2 0 .4.1.7.1.6.1 1 .1 1.1.1 1.2.1 2.2.1 2.9.1 2.9-.1 5.4-.4 7.3.2 2.5.3 4.4.3 5.7 0 .2-.1.5-.3.6-.2.2-.4.3-.6.3s-.5-.1-.7-.3c-.2-.2-.3-.4-.3-.6v-1.3c-.9 1.3-2 1.9-3.4 1.8-.7 0-1.4-.2-2.1-.6-.6-.4-1.1-.9-1.5-1.5-.5-.8-.8-1.6-.8-2.6s.1-1.8.5-2.6.8-1.5 1.4-2.2c.9-1.1 1.9-1.7 3-2.1.7-.2 1.5-.2 2.2.1zm.2 3c-.1-.1-.1-.2-.2-.4l-.1-.1c0-.1 0-.2-.1-.2-.1-.1-.1-.2-.1-.2-.4-.4-.9-.5-1.6-.3-.7.2-1.5.7-2.1 1.5-.7.8-1.2 1.7-1.4 2.6-.2.9 0 1.7.5 2.5.6.8 1.3 1.2 2.1 1.3.7 0 1.4-.3 1.9-1.1.5-.7.9-1.8 1.2-3.3v-.1l-.1-.9v-1.3zm5.8 1.2c.9.2 1.8.2 2.8 0 1-.3 1.7-.7 2.4-1.4.4-.4.6-.9.7-1.5.1-.4 0-.7-.3-.8-.6-.3-1.5-.1-2.7.6-1.4.8-2.4 1.8-2.9 3.1zm-1.9-.3c.7-1.9 2-3.3 3.8-4.4 1.8-1.1 3.3-1.3 4.5-.7.6.3.9.7 1.1 1.2.2.5.2 1.1.1 1.6-.1.9-.5 1.7-1.1 2.4-.8.9-1.9 1.6-3.2 2-1.3.4-2.5.4-3.8.1-.1.5 0 1 .1 1.5.2 1 .7 1.7 1.5 2 .9.4 2 .3 3.4-.3.4-.2.8-.4 1.1-.7.3-.3.7-.7 1.2-1.3.2-.2.4-.3.6-.3.3 0 .5 0 .7.2s.3.4.3.6c0 .2 0 .5-.2.7-.4.5-.7.8-.9 1-.2.2-.5.5-.9.8-.4.3-.8.6-1.3.8-1.9.8-3.5.9-4.9.3-1.3-.6-2.2-1.7-2.5-3.3-.2-.9-.2-1.9-.1-2.9-.1-.3-.1-.6 0-.9.3-.2.4-.3.5-.4z" fill="#fafafb"/><path d="M45.3 20.8l-5.5 10.1c-.2.4-.2.9 0 1.3l5.5 9c.2.4.7.6 1.2.6h10.9c.5 0 .9-.2 1.2-.6l6.2-9.5c.3-.4.3-.9 0-1.3l-5.7-9.6c-.2-.4-.7-.7-1.1-.7H46.4c-.4.1-.8.3-1.1.7z" fill="#e63946"/><path d="M8.4 11.7L0 26.9c-.2.4-.2.9.1 1.3L9 41.4c.3.4.7.6 1.2.6h15.9c.5 0 .9-.2 1.2-.6l9-13.9c.3-.4.3-.9.1-1.3l-7-14.2c-.2-.4-.6-.7-1.1-.7L9.5 11c-.5 0-.9.2-1.1.7z" fill="#11abc1"/><path d="M22 35.6l-5.7 10.5c-.2.4-.2.9 0 1.3l5.8 9.4c.2.4.7.6 1.2.6h11.4c.5 0 .9-.2 1.2-.6l6.5-10c.3-.4.3-.9 0-1.3l-6-10c-.2-.4-.7-.7-1.1-.7H23.2c-.6.2-1 .4-1.2.8z" fill="#f5b935"/><path d="M30.7 22.1c-.5 0-.9.3-1.1.7l-5.2 9.6c-.2.4-.2.9 0 1.3l.8 1.3 4.5 7.3c.1.2.3.3.5.5.2.1.4.2.7.2h9.9l-4.3-7.2c-.2-.4-.7-.7-1.1-.7h-3.7l4.8-7.4c.3-.4.3-.9.1-1.3l-2.1-4.2-3.8-.1zM43.6 24l4.7 7.9c.2.3.2.7.1 1.1.1-.3.1-.7-.1-1l-4.7-8-3.8 7c-.2.4-.2.9 0 1.3l4.3 7.1 4.1-6.3c.3-.4.3-.9 0-1.3L43.6 24zM30.3 42.8c.1 0 .3.1.4.1h9.9-9.9c-.1 0-.2 0-.4-.1z" fill="#fff"/></svg>