<svg xmlns="http://www.w3.org/2000/svg" viewBox="0 0 152 65"><path d="M74.227.044c-1 0-2 .2-3 .5-.9.2-1.9.2-2.8.7-1.1.6-2.4 1-3.1 2.1-.6.7-1.4 1.3-1.5 2.2-.2 1.2.1 2.3 1 3 .3.3.8.3.9.8-.1.8-.6 1.5-.8 2.3-.5.8.8 1.3.3 2.1l-1.7 3c-.2.4-.4.9-.4 1.4.2.9 1.2.6 1.8 1 .4.5-.2.9-.2 1.3-.1.4.5.6.2.9-.3.6.3 1 .4 1.4.1.7-.4 1.5.2 2 1.4.9 3.4.2 4.8.9.7.5.6 1.5.6 2.3-.4 3.4-2 6.3-4.2 9-.2.3-.4.8-.2 1.2.3.2.7.1 1-.1 3.9-1.3 6.9-4.7 10.7-6.2 1.5-.7 3.1-.9 4.7-1.3.4-.3.2-.9.1-1.3-.8-2-1.7-4.2-1.5-6.6.1-.9 1-1.1 1.5-1.4 1-.3 1.7-1.3 2.1-2.1.8-1.2 1.9-2.2 2-3.6.1-1.3 0-2.7.4-3.8.3-1.3.1-2.7-.3-3.8-.1-1.5-.6-2.9-1.6-4.1-.9-1.3-2.5-1.5-3.7-2.4-1.1-1-2.6-1.1-4.1-1-.9 0-1.8-.2-2.6-.4h-1zm-44.2 35.1l-4.8 1.2v.7l2.1.8v18l-2 1v.8h6.7v-.8l-2-1v-10.4c.6-.2 1.7-.3 2.5-.3 2.3 0 3.2 1 3.2 3.4v7.2l-2 1v.8h6.8v-.8l-2.1-1v-7.9c0-2.8-1.5-4.5-3.7-4.5-.9 0-2.1.4-4.2 1.3l-.3.2-.2-9.7zm71.6 0l-4.9 1.2v.7l2.3.8v18l-2.1 1v.8h6.9v-.8l-2.2-1v-20.7zm47.7.8c-3.7 0-6.2 2.2-6.2 5.6v2h-2.1v1.3h2.1v10.9l-2.1 1v.8h7.5v-.8l-2.8-1v-10.9h3.9v-1.3h-3.9v-2.5c0-1.6.3-2.5 1-3.1.6-.5 1.5-.9 2.4-.9h.4l.8 1.8h1.8v-2.5c-.8-.3-1.7-.4-2.8-.4zm-143.6.8c-3.2 0-5.8 2.3-5.8 5.5 0 1 .2 1.7.7 2.5.5.9 1.3 1.4 2.7 2.4l3 2c1.9 1.4 2.7 2.2 2.7 3.7 0 2.1-1.8 3.3-4.4 3.3-.8 0-1.3 0-2-.1l-1.4-3.9h-1v4.6l.2.1 1.5.4c1.2.3 2.5.4 3.4.4 3.6 0 6.4-2.1 6.4-5.6 0-1.2-.4-2.1-.9-3-.5-.9-1.1-1.2-2.9-2.5l-3-2.1c-1.9-1.4-2.8-2-2.8-3.4 0-2 1.8-3 4.6-3 .5 0 .7.1 1.4.1h.2l1.3 3.7h1v-4.4l-.4-.1-1.1-.3c-.4-.1-.9-.2-1.5-.3-.6.1-1.4 0-1.9 0zm72.7 6.3l-4.7 1.3v.7l2.1.7v10l-2.1 1v.8h7.5v-.8l-2.7-1v-10c.7-.3 1.3-.4 2-.4h.7l.8 1.8h1.9v-3.2c-.4-.3-.9-.4-1.4-.4-.8 0-2 .5-3.7 1.5l-.2.1v-1.9h-.2zm52 0l-4.8 1.2v.7l2.1.8v17.6l-2.1.9v.8h7.5v-.8l-2.6-.9v-5.9c.6.2.8.2 1.5.2 4.3 0 7.9-3.3 7.9-7.8 0-3.6-2.6-6.4-5.5-6.4-.8 0-2.4.6-3.9 1.5l-.1-1.9zm-12 .3c-3.9 0-6.9 3-6.9 7.5 0 4.2 3 7.1 6.6 7.1 3.8 0 6.9-3.3 6.9-7.7 0-4.1-2.9-6.9-6.6-6.9zm-97.7.1c-4.4 0-7.2 3-7.2 7.5 0 4 2.3 6.8 5.7 6.8 1 0 2.1-.2 3.4-.6l1.4-.4.2-.1-.1-.9-.3.1c-1.4.3-1.8.3-2.6.3-1.8 0-2.8-.4-3.6-1.5-.8-1-1.3-2.5-1.3-4.2 0-3.4 1.9-5.8 4.5-5.8.2 0 .3-.1.6 0l1.2 2.6h1.6v-3c-1.4-.7-2.5-.8-3.5-.8zm45.9 0c-1.2 0-2.6.3-4.7 1v2.6h1.6l1.1-2.4c.3-.1.4-.1.8-.1 2 0 2.6.6 2.6 2.4v3.2c-1.9.2-3.4.4-4.5.7-1.9.4-2.8 1.6-2.8 3.4 0 2.1 1.5 3.5 3.7 3.5.5 0 .9-.1 1.3-.2l1.2-.6.9-.4.3-.2c.2.9.6 1.4 1.4 1.4h.1c.4-.1.9-.2 1.2-.2l1.9-.7v-.7l-1.5-.4c-.7-.2-.8-.3-.8-1v-7.8c.1-2.4-1.2-3.5-3.8-3.5zm-27.2.1v.7l1.6.8 4.4 12.7h1.3l3.4-9.8 3.1 9.8h1.2l4.6-12.5 1.6-1v-.7h-5.4v.7l2 1-2.8 8.6c-.2-.8-.3-.9-.4-1.5l-2.7-8.8h-1l-3.6 10.5-.1-.4-.5-1.6-2.4-7.1 2-.7v-.7h-6.3zm45.9 0v3.9h.9l1.3-2.6h4.6l-7.5 11.6v1h10.7v-4.4h-.8l-1.4 3h-5.2l7.5-11.6v-.9h-10.1zm19.4 0v.7l1.8.8-4.7 4.9 5.6 7.5h4.1v-.8l-2-.8-4.8-6.8 3.7-3.9 2.6-.9v-.7h-6.3zm13.4 1c2.4 0 3.7 2.4 3.7 6.4 0 3.6-1.3 5.6-3.5 5.6-2.4 0-3.7-2.3-3.7-6.2.1-3.6 1.3-5.8 3.5-5.8zm15 .6c2.6 0 4.3 2.2 4.3 5.5 0 3.6-1.9 5.7-5.1 5.7-.5 0-1.2-.1-1.8-.1v-10.6c.6-.4 1.7-.5 2.6-.5zm-65 5.8v4.7c-.1.1-.1.1-.2.1-.5.2-.8.2-.9.2-.3.1-.7.1-1 .1-1.6 0-2.6-.9-2.6-2.3 0-1.2.6-1.9 1.9-2.3.9-.3 1.8-.4 2.8-.5z" fill="#231f20"/></svg>