<svg xmlns="http://www.w3.org/2000/svg" viewBox="0 0 200 65"><path d="M66.9 10.6c.5.3 1.2.6 2 .6 1.1 0 1.8-.6 1.8-1.4-.1-.8-.5-1.3-1.7-1.8-1.4-.5-2.3-1.2-2.3-2.4 0-1.3 1.1-2.3 2.8-2.3.9 0 1.5.2 1.9.4l-.3.9c-.3-.2-.8-.4-1.6-.4-1.2 0-1.6.7-1.6 1.3 0 .8.5 1.2 1.7 1.7 1.4.6 2.2 1.3 2.2 2.5 0 1.3-1 2.5-3 2.5-.8 0-1.7-.2-2.2-.6l.3-1zm10.8 1.1c-.3.2-.9.3-1.8.3-1.9 0-3-1.3-3-3.1s1.3-3.2 3.3-3.2c.7 0 1.3.2 1.5.3l-.3.9c-.3-.2-.7-.3-1.3-.3-1.4 0-2.1 1-2.1 2.3 0 1.4.9 2.3 2.1 2.3.6 0 1-.2 1.4-.3l.2.8zM79 3h1.1v3.8c.2-.3.4-.6.8-.8.3-.2.7-.3 1.2-.3.8 0 2.1.5 2.1 2.6V12h-1.1V8.4c0-1-.4-1.8-1.4-1.8-.7 0-1.3.5-1.5 1.1-.1.2-.1.3-.1.6V12H79V3zm12.2 7.3c0 .6 0 1.2.1 1.7h-1l-.1-1c-.3.5-.9 1.2-2 1.2-.9 0-2.1-.6-2.1-2.7V5.8h1.1v3.4c0 1.2.3 1.9 1.4 1.9.8 0 1.3-.5 1.5-1 .1-.2.1-.4.1-.6V5.9h1.1l-.1 4.4zM93 3h1.1v9H93V3zm6.4 9l-.1-.8h-.1c-.3.5-1 .9-1.9.9-1.3 0-1.9-.9-1.9-1.8 0-1.5 1.3-2.3 3.7-2.3 0-.5-.2-1.4-1.4-1.4-.6 0-1.2.2-1.6.4l-.3-.7c.5-.3 1.3-.6 2-.6 1.9 0 2.3 1.3 2.3 2.5v2.2c0 .6 0 1 .1 1.5h-.8zm-.2-3.2c-1.2 0-2.6.2-2.6 1.4 0 .7.5 1 1 1 .8 0 1.3-.5 1.5-1 .1-.1.1-.2.1-.3V8.8zm2.9-1.3c0-.6 0-1.2-.1-1.7h1l.1 1h.1c.3-.6.9-1.1 1.9-1.1.8 0 1.5.5 1.8 1.2.2-.3.4-.6.7-.8.4-.3.8-.4 1.4-.4.8 0 2 .6 2 2.6V12h-1.1V8.5c0-1.2-.4-1.9-1.3-1.9-.6 0-1.1.5-1.3 1-.2.2-.3.4-.3.6V12h-1.1V8.3c0-1-.4-1.7-1.3-1.7-.7 0-1.2.6-1.4 1.1-.1.2-.1.3-.1.6V12H102l.1-4.5zM114 4.1v1.8h1.6v.8H114V10c0 .8.2 1.2.8 1.2.3 0 .5-.1.7-.1l.1.8c-.2.1-.6.2-1 .2-.5 0-.9-.2-1.2-.5-.3-.3-.4-.9-.4-1.6V6.7h-.9v-.9h.9V4.4l1-.3zM67.1 29v-5.3h-.9v-.8h.9v-.3c0-.9.2-1.7.7-2.1.4-.4 1-.6 1.5-.6.4 0 .7.1.9.2l-.1.9c-.2-.1-.4-.2-.7-.2-.9 0-1.2.8-1.2 1.8v.3h1.5v.8h-1.5V29h-1.1zm8.7-1.6c0 .6 0 1.2.1 1.7h-1l-.1-1c-.3.5-.9 1.2-2 1.2-.9 0-2.1-.6-2.1-2.7V23h1.1v3.4c0 1.2.3 1.9 1.4 1.9.8 0 1.3-.5 1.5-1 .1-.2.1-.4.1-.6V23h1.1l-.1 4.4zm-4.3-6.3c0-.3.3-.7.7-.7.3 0 .6.3.6.7 0 .3-.3.7-.6.7-.5 0-.7-.3-.7-.7zm2.3 0c0-.3.3-.7.6-.7s.6.3.6.7c0 .3-.3.7-.6.7s-.6-.3-.6-.7zm3.9 3.7c0-.7 0-1.3-.1-1.9h1l.1 1.2h.1c.3-.8.9-1.3 1.7-1.3.1 0 .2 0 .3.1v1c-.1 0-.2-.1-.4-.1-.8 0-1.3.6-1.5 1.4 0 .2-.1.3-.1.5V29h-1.1v-4.2zM89.8 20v7.4c0 .6 0 1.2.1 1.6h-1l-.1-1c-.3.7-1.1 1.2-2.1 1.2-1.5 0-2.6-1.3-2.6-3.1 0-2 1.3-3.3 2.8-3.3.9 0 1.6.4 1.9.9v-3.6l1-.1zm-1.1 5.4c0-.2 0-.3-.1-.5-.2-.7-.8-1.3-1.6-1.3-1.2 0-1.8 1-1.8 2.4 0 1.3.6 2.3 1.8 2.3.8 0 1.4-.5 1.7-1.3.1-.2.1-.3.1-.5l-.1-1.1zm3.6.8c0 1.5 1 2.1 2.1 2.1.8 0 1.3-.2 1.7-.3l.2.8c-.4.2-1 .4-2 .4-1.9 0-3-1.3-3-3.1s1.1-3.3 2.9-3.3c2 0 2.5 1.8 2.5 2.9 0 .2 0 .4-.1.5h-4.3zm3.2-.8c0-.7-.3-1.8-1.5-1.8-1.1 0-1.6 1-1.7 1.8h3.2zm2.5-.8c0-.6 0-1.2-.1-1.7h1l.1 1c.3-.6 1-1.2 2-1.2.8 0 2.1.5 2.1 2.6V29H102v-3.5c0-1-.4-1.8-1.4-1.8-.7 0-1.3.5-1.5 1.2-.1.2-.1.3-.1.5V29h-1v-4.4zm17 .7c-.1-1.2-.2-2.6-.1-3.7h-.1c-.3 1-.7 2-1.1 3.2l-1.5 4.1h-.8l-1.4-4.1c-.4-1.2-.8-2.3-1-3.3 0 1-.1 2.5-.2 3.8l-.2 3.6h-1l.6-8.5h1.4l1.4 4.1c.3 1 .7 2 .9 2.9h.1c.2-.9.5-1.8.9-2.9l1.5-4.1h1.4l.6 8.5h-1.1l-.3-3.6zm6.3 3.7l-.1-.8h-.1c-.3.5-1 .9-1.9.9-1.3 0-1.9-.9-1.9-1.8 0-1.5 1.3-2.3 3.7-2.3v-.1c0-.5-.2-1.4-1.4-1.4-.6 0-1.2.2-1.6.4l-.3-.7c.5-.3 1.3-.6 2-.6 1.9 0 2.3 1.3 2.3 2.5v2.2c0 .6 0 1 .1 1.5h-.8zm-3-7.9c0-.3.3-.7.7-.7.3 0 .6.3.6.7 0 .3-.3.7-.6.7-.5 0-.7-.3-.7-.7zm2.9 4.8c-1.2 0-2.6.2-2.6 1.4 0 .7.5 1 1 1 .8 0 1.3-.5 1.5-1 .1-.1.1-.2.1-.3v-1.1zm-.6-4.8c0-.3.3-.7.7-.7.3 0 .6.3.6.7 0 .3-.3.7-.6.7-.4 0-.7-.3-.7-.7zm3.5 3.7c0-.7 0-1.3-.1-1.9h1l.1 1.2h.1c.3-.8.9-1.3 1.7-1.3.1 0 .2 0 .3.1v1c-.1 0-.2-.1-.4-.1-.8 0-1.3.6-1.5 1.4 0 .2-.1.3-.1.5V29h-1.1v-4.2zm5.3.9c.2-.2.4-.5.6-.7l1.8-2.1h1.3l-2.4 2.5 2.7 3.6H132l-2.1-2.9-.6.6V29h-1.1v-9h1.1l.1 5.7zm6.3-4.5c0 .4-.3.7-.7.7-.4 0-.7-.3-.7-.7 0-.4.3-.7.7-.7.4 0 .7.3.7.7zm-1.3 7.8v-6.1h1.1V29h-1.1zm2.8-1.1c.3.2.9.4 1.5.4.8 0 1.2-.4 1.2-.9 0-.6-.3-.8-1.2-1.1-1.1-.4-1.6-1-1.6-1.8 0-1 .8-1.8 2.1-1.8.6 0 1.2.2 1.5.4l-.3.8c-.2-.2-.7-.3-1.3-.3-.7 0-1 .4-1 .8 0 .5.4.7 1.2 1 1 .4 1.6.9 1.6 1.9 0 1.1-.8 1.8-2.3 1.8-.7 0-1.3-.2-1.7-.4l.3-.8zm9.6.9c-.3.2-.9.3-1.8.3-1.9 0-3-1.3-3-3.1 0-1.9 1.3-3.2 3.3-3.2.7 0 1.3.2 1.5.3l-.3.9c-.3-.2-.7-.3-1.3-.3-1.4 0-2.1 1-2.1 2.3 0 1.4.9 2.3 2.1 2.3.7 0 1-.2 1.4-.3l.2.8zm1.3-8.8h1.1v3.8c.2-.3.4-.6.8-.8s.7-.3 1.2-.3c.8 0 2.1.5 2.1 2.6V29h-1.1v-3.5c0-1-.4-1.8-1.4-1.8-.7 0-1.3.5-1.5 1.1-.1.2-.1.3-.1.6V29h-1.1v-9zm7.6 6.2c0 1.5 1 2.1 2.1 2.1.8 0 1.3-.2 1.7-.3l.2.8c-.4.2-1 .4-2 .4-1.9 0-3-1.3-3-3.1s1.1-3.3 2.9-3.3c2 0 2.5 1.8 2.5 2.9 0 .2 0 .4-.1.5h-4.3zm3.3-.8c0-.7-.3-1.8-1.5-1.8-1.1 0-1.6 1-1.7 1.8h3.2zm2.4-.8c0-.6 0-1.2-.1-1.7h1l.1 1c.3-.6 1-1.2 2-1.2.8 0 2.1.5 2.1 2.6V29h-1.1v-3.5c0-1-.4-1.8-1.4-1.8-.7 0-1.3.5-1.5 1.2-.1.2-.1.3-.1.5V29h-1.1l.1-4.4zm9.8-4.1h1.1v4.1h.1c.2-.3.4-.6.7-.9l2.6-3.2h1.4l-3.1 3.6 3.3 4.9H176l-2.8-4.2-.8.9V29h-1.1l-.1-8.5zm7 4.3c0-.7 0-1.3-.1-1.9h1l.1 1.2h.1c.3-.8.9-1.3 1.7-1.3.1 0 .2 0 .3.1v1c-.1 0-.2-.1-.4-.1-.8 0-1.3.6-1.5 1.4 0 .2-.1.3-.1.5V29h-1.1v-4.2zm4.6 1.4c0 1.5 1 2.1 2.1 2.1.8 0 1.3-.2 1.7-.3l.2.8c-.4.2-1 .4-2 .4-1.9 0-3-1.3-3-3.1s1.1-3.3 2.9-3.3c2 0 2.5 1.8 2.5 2.9 0 .2 0 .4-.1.5h-4.3zm3.3-.8c0-.7-.3-1.8-1.5-1.8-1.1 0-1.6 1-1.7 1.8h3.2zm3.6-4.2c0 .4-.3.7-.7.7-.4 0-.7-.3-.7-.7 0-.4.3-.7.7-.7.5 0 .7.3.7.7zm-1.2 7.8v-6.1h1.1V29h-1.1zm2.8-1.1c.3.2.9.4 1.5.4.8 0 1.2-.4 1.2-.9 0-.6-.3-.8-1.2-1.1-1.1-.4-1.6-1-1.6-1.8 0-1 .8-1.8 2.1-1.8.6 0 1.2.2 1.5.4l-.3.8c-.2-.2-.7-.3-1.3-.3-.7 0-1 .4-1 .8 0 .5.4.7 1.2 1 1 .4 1.6.9 1.6 1.9 0 1.1-.8 1.8-2.3 1.8-.7 0-1.3-.2-1.7-.4l.3-.8zM66.8 36.3h.8v5.3h2.5v.7h-3.3v-6zm7.5 4.8c0 .4 0 .8.1 1.2h-.7l-.1-.7c-.2.3-.7.8-1.4.8s-1.5-.4-1.5-1.9V38h.8v2.4c0 .8.2 1.4.9 1.4.5 0 .9-.4 1-.7.1-.1.1-.3.1-.4V38h.8v3.1zm-3-4.3c0-.2.2-.4.4-.4s.4.2.4.4-.2.4-.4.4c-.3 0-.4-.2-.4-.4zm1.6 0c0-.2.2-.4.4-.4s.4.2.4.4-.2.4-.4.4-.4-.2-.4-.4zm6.4-.8v5.2c0 .4 0 .8.1 1.1h-.7l-.1-.7c-.2.5-.8.8-1.4.8-1 0-1.8-.9-1.8-2.1 0-1.4.9-2.3 1.9-2.3.7 0 1.1.3 1.3.7V36h.7zm-.8 3.7c0-.1 0-.2-.1-.3-.1-.5-.6-.9-1.1-.9-.8 0-1.3.7-1.3 1.7 0 .9.4 1.6 1.3 1.6.5 0 1-.3 1.2-.9 0-.1.1-.2.1-.3l-.1-.9zm2.5.6c0 1 .7 1.5 1.5 1.5.6 0 .9-.1 1.2-.2l.1.6c-.3.1-.7.3-1.4.3-1.3 0-2.1-.9-2.1-2.1 0-1.3.8-2.3 2-2.3 1.4 0 1.8 1.2 1.8 2v.4c-.2-.2-3.1-.2-3.1-.2zm2.3-.6c0-.5-.2-1.3-1.1-1.3-.8 0-1.1.7-1.2 1.3h2.3zm1.7-.5c0-.4 0-.8-.1-1.2h.7l.1.7c.2-.4.7-.8 1.4-.8.6 0 1.5.3 1.5 1.8v2.5h-.8v-2.5c0-.7-.3-1.3-1-1.3-.5 0-.9.4-1 .8-.1.1-.1.2-.1.4v2.6h-.8l.1-3zm4.8 2.3c.2.2.7.3 1 .3.6 0 .8-.3.8-.7 0-.4-.2-.6-.8-.8-.8-.3-1.1-.7-1.1-1.2 0-.7.6-1.3 1.5-1.3.4 0 .8.1 1 .3l-.2.6c-.2-.1-.5-.2-.9-.2s-.7.3-.7.6.3.5.8.7c.7.3 1.1.7 1.1 1.3 0 .8-.6 1.3-1.6 1.3-.4 0-.9-.1-1.2-.3l.3-.6zm6.6.6c-.2.1-.7.2-1.2.2-1.3 0-2.1-.9-2.1-2.2 0-1.3.9-2.3 2.3-2.3.4 0 .9.1 1.1.2l-.2.6c-.2-.1-.5-.2-.9-.2-1 0-1.5.7-1.5 1.6 0 1 .7 1.6 1.5 1.6.4 0 .7-.1.9-.2l.1.7zm.9-6.1h.8v2.6c.1-.2.3-.4.6-.6s.5-.2.8-.2c.6 0 1.5.3 1.5 1.8v2.5h-.8v-2.5c0-.7-.3-1.3-1-1.3-.5 0-.9.3-1 .8-.2.2-.2.3-.2.5v2.6h-.8l.1-6.2zm5.3 4.3c0 1 .7 1.5 1.5 1.5.6 0 .9-.1 1.2-.2l.1.6c-.3.1-.7.3-1.4.3-1.3 0-2.1-.9-2.1-2.1 0-1.3.8-2.3 2-2.3 1.4 0 1.8 1.2 1.8 2v.4c-.1-.2-3.1-.2-3.1-.2zm2.3-.6c0-.5-.2-1.3-1.1-1.3-.8 0-1.1.7-1.2 1.3h2.3zm2.6-2.9c0 .3-.2.5-.5.5s-.4-.2-.4-.5.2-.5.5-.5.4.2.4.5zm-.9 5.4V38h.8v4.2h-.8zm5.8-6.2v5.2c0 .4 0 .8.1 1.1h-.7l-.1-.7c-.2.5-.8.8-1.4.8-1 0-1.8-.9-1.8-2.1 0-1.4.9-2.3 1.9-2.3.7 0 1.1.3 1.3.7V36h.7zm-.8 3.7c0-.1 0-.2-.1-.3-.1-.5-.6-.9-1.1-.9-.8 0-1.3.7-1.3 1.7 0 .9.4 1.6 1.3 1.6.5 0 1-.3 1.2-.9 0-.1.1-.2.1-.3l-.1-.9zM61.8 0v1.2c0 10.9.1 21.8 0 32.7-.1 15.9-11.3 28.4-26 30.8-16 2.5-31.8-8.2-35-24.1-.5-2.5-.8-5.1-.8-7.7V0h61.8zM1.3 1.2c0 .4-.1.7-.1.9v32.4c0 1.5.2 3.1.4 4.7 2.9 16.2 18 26.9 34.2 24.3 13.9-2.3 24.6-14.8 24.7-29 .1-10.7 0-21.5 0-32.3 0-.3-.1-.7-.1-1H1.3z"/><path d="M31.7 2.8h27.2c0 .3.1.6.1.9 0 10.4.1 20.7 0 31.1-.1 7.8-3.1 14.4-8.6 19.7-1.3 1.3-2.9 2.4-4.4 3.5-.3.2-.8.2-1.1 0-6.7-4.4-11-10.5-12.6-18.4-.4-2.1-.6-4.4-.6-6.6-.1-9.7 0-19.4 0-29.1-.1-.4 0-.7 0-1.1zm20.4 3.7c-2-.1-3.7-.2-5.6-.3-.1 1.3-.1 1.3-.8 1.3 0-1.6-.3-2.3-1.5-2.6-.1.6-.1 1-.2 1.5-.1.3-.3.6-.5.8-1 .8-2.1 1.5-3.1 2.3-.7.7-2.2.9-1.6 2.5.1.2 0 .6 0 .8.3-.1.7-.2.9-.4.4-.4.8-.4 1.1.2-.4.2-.7.4-1.2.6.9.3 1.7.6 2.1-.2.4-.8 1.1-.8 1.8-.8 1.4 0 2.9.6 3.7-1.3.1.4.2.8.1 1-.4.4-.9.7-1.4 1-.2.1-.6.1-.7.3-.8 1.9-2.5 2.9-3.8 4.1-1 .9-1.8 2-1.9 3.4-.1.6-.4.9-.9 1-.8.2-1.6.5-2.4.8-1.3.4-1.5 1.3-1 2.5.3.7.5 1.4.7 2.1.2.7.2 1.5 1.2 1.7.2 0 .3.3.4.6.2 1 1 1.2 1.9 1.5.6-1 .4-1.9.2-2.8-.1-.2-.2-.3-.3-.3-1 0-1.3-1-1.9-1.5-.3-.2-.3-1-.2-1.4.1-.3.7-.4 1.1-.5.7-.1 1.5 0 2.2.1 1.2.1 2.4.4 3.2-1 .2.4.3.7.2.9-.8 1.4-2.3.9-3.6 1 .6 1.4 1.7 2.1 2.8 2.9.9.6 1.9 1 2.7 1.7 1.1.8 1.8 1.8 1.8 3.4 0 2.3.5 4.4 2.7 5.7.3.2.6.5.9.8 1.2 1.2 1.7 2.5.9 4.1-.4.9-.7 2-1.1 2.9-.1.2-.4.5-.6.6-.9.3-1.3 1-1.4 2.1 1-.1 2-.1 2.9-.2.1 0 .3-.1.3-.2.3-.7.6-1.5.8-2.2.5-1.7.8-3.4 1.4-5 .2-.7.3-1.3-.1-2-1-1.9-1.3-3.7.1-5.7 1.4-2 1-3.8-.6-5.6-.6-.7-1.3-1.2-2-1.8-1.5-1.4-2.6-3-2.9-5.1-.2-1.9-.1-2 1.8-2.4.1 0 .1-.1.2-.2-.3-.4-.6-.9-1-1.3 1.2-.4 2.3-.7 3.3-1.1-.7-.8-1.3-1.6-2-2.4h3.5c-.9-1.3-1.8-2.4-2.6-3.5.7-.2 1.2-.4 1.8-.7-.8-1.4-2.2-1.9-3.6-2.4.8-.5 1.3-.9 1.8-1.3zM56 30.4c1.1.1 1.9-.4 1.8-1.4-.1-.8-.4-1.6-.8-2.3-.8-1.3-1-2.4.1-3.6.3-.3.5-.7.7-1.1.8-1.9-.4-4.1-2.4-4.4-.1.8-.2 1.7-.2 2.6-.9-.8-1.7-1.1-2.6-.7.9 1.2.9 1.4.4 2.8-.2.4-.3.8-.5 1.2-.5 1.5-.2 2.7 1.2 3.6l1.5.9c.9.8 1.1 1.2.8 2.4zm-9.8 10.9c.4-1.4.9-2.7 1.3-4 .1-.2.1-.4 0-.6-.2-1.4-.4-2.8-.8-4.2-.2-.7-.7-1.5-1.2-1.8-.4-.2-1.3.4-1.8.9-.4.4-.7 1.2-.6 1.7.2 1.4.6 2.8 1 4.2.2.8.4 1.5.7 2.4H41c-.8 0-1.6-.3-2 .8-.1.1-.3.2-.4.2-1 .2-1.3 1-1.5 1.8 1.8.7 2.9.4 3.4-1.2 1.9 0 3.8-.1 5.7-.2zm-6-23.8c-1.2-.9-2.3-1.9-3.6-2.8-.7-.4-1.7-.1-1.9.4-.4.9-.8 1.9-1.3 2.8-.3.6-.7 1-.2 1.7.1.2 0 .6-.1.8-.5.9-.2 1.5.4 2.4.6-.5 1-.9 1.5-1.4.2-.3.5-.9.4-1-.6-.8-.2-1.7-.2-2.5 0-.4.6-.8 1-1.1.1-.1.7.4.9.8.6.8 1 1.8 1.5 2.7.6-1 1.1-1.9 1.6-2.8z" fill="#e30c1e"/><path d="M6.5 48c.8-.9 1.5-1.7 2.3-2.5 2-2.3 3.1-5 4.1-7.8.2-.6.4-1.1.6-1.7 1.2-3.7 3.4-6.6 6.9-8.3 3.9-1.9 6.3-4.9 7.7-8.9.6-1.6 1.3-3.1 2.1-4.6v2.4c-.1 6.4-.1 12.9-.2 19.4-.2 5.6-2.2 10.5-5.5 14.9-2 2.8-4.5 5.1-7.4 6.9-.3.2-.8.3-1 .2-4-2.5-7.2-5.9-9.6-10zM25.8 2.8c-.4.5-.7.9-1 1.2-2.1 2.3-3.2 5-4 7.9-.1.2-.1.3-.1.5-1 4.7-3.5 8.3-8 10.4-4.2 2-6 5.8-7.3 10-.6 1.7-1.3 3.3-2 4.9-.1-.1-.3-.1-.4-.1V2.8h22.8z" fill="#1f9034"/><path d="M34.8 56.8c.8 1.9.7 2.7-.7 3.6-1.2.8-2 .6-3.1-.6-.6.4-1 .9-1.7 1-.5.1-1.2-.2-1.7-.4-1.3-.8-1.4-1.5-.7-3.5-1.7-.8-2-1.4-1.6-2.8.5-1.7 1.1-2 3.1-1.8.4-1.9.9-2.4 2.3-2.4.7.1 1.4.2 1.9.6.4.4.4 1.2.7 1.8 1.8-.3 2.6.2 3.1 1.9.4 1.3-.1 2.1-1.6 2.6zm-6.9-1.3c0 1.8 1.3 3 3 3s2.9-1.3 2.9-3-1.3-3-2.9-3c-1.7.1-3 1.4-3 3z" fill="#e30c1e"/><path d="M35.1 51.4c-.5-.4-1-.7-1.7-1.2 1.6-.6 1.8-.4 1.7 1.2zM28 50c-.2 1-.6 1.4-1.6 1.2.1-.4.2-.9.4-1.2.3-.2.8 0 1.2 0zm-3 6.5c.2.6.4 1.1.7 1.7l-.3.3c-.3-.2-.9-.4-1-.7-.1-.3.2-.8.3-1.2 0 0 .2-.1.3-.1zm11.1 1.9c.2-.8.4-1.3.6-2.1 1.2 1.4 1.1 1.6-.6 2.1zm-6.3 3.1H32c-1 1.4-1.2 1.4-2.2 0zm1.1-4.1c-1 0-1.9-.8-1.9-1.8s.9-1.9 1.8-1.9 1.9.9 1.9 1.8c0 1.1-.8 1.9-1.8 1.9z" fill="#1f9034"/><path d="M42.6 9.6h.7l.4-.2s-.7-.7-1-.6c-.3.1-.5.2-.7.4-.1.3.6.4.6.4z" fill="#e30c1e"/></svg>