<svg xmlns="http://www.w3.org/2000/svg" viewBox="0 0 200 65"><path d="M79.9 12.9v5.8h6.3v-5.8h-6.3zm-55.4.1v8.2H21v5.2h3.5v18.9c0 4.7 2.6 6.8 7.4 6.8 1.1 0 2.1-.1 3.2-.3v-5.4H33c-1.5 0-2.1-.9-2.1-2.5V26.3H35v-5.2h-4.3V13h-6.2zm40.7 0v8.2h-3.5v5.2h3.5v18.9c0 4.7 2.6 6.8 7.4 6.8 1.1 0 2.1-.1 3.2-.3v-5.4h-2.1c-1.5 0-2.1-.9-2.1-2.5V26.3h4.2v-5.2h-4.2V13h-6.4zm50.1 0v8.2h-3.5v5.2h3.5v18.9c0 4.7 2.6 6.8 7.4 6.8 1.1 0 2.1-.1 3.2-.3v-5.4h-2.1c-1.5 0-2.1-.9-2.1-2.5V26.3h4.2v-5.2h-4.2V13h-6.4zM9.2 20.6C4.4 20.6.7 24 .7 28.8.7 37 12.5 39 12.5 44.3c0 .7-.3 1.5-.8 2s-1.3.8-2 .7c-2.9 0-3.8-2.3-4.2-4.8L0 43.6c.9 5.3 4.1 8.5 9.6 8.5 5.1 0 8.9-2.8 8.9-8.2 0-9-11.8-10.9-11.8-15.7 0-1.6 1.1-2.4 2.8-2.4 2 0 3.2 1.4 3.6 3.8l5.4-.9c-1-4.8-4.4-8.1-9.3-8.1zm90.8 0c-4.7 0-8.5 3.3-8.5 8.1 0 8.3 11.8 10.3 11.8 15.5 0 .7-.3 1.5-.8 2s-1.3.8-2 .7c-2.9 0-3.7-2.3-4.2-4.8l-5.5 1.5c.9 5.3 4.1 8.5 9.6 8.5 5.1 0 8.9-2.8 8.9-8.2-.1-9-11.9-10.9-11.9-15.7 0-1.6 1.1-2.4 2.8-2.4 2 0 3.2 1.4 3.6 3.8l5.4-.9c-.9-4.8-4.2-8.1-9.2-8.1zm-51.4 0c-5.9 0-9.8 3.3-10.2 9.5h6.3c.1-2.6.7-4.3 3.6-4.3 2.1 0 3.1 1.4 3.1 3.9v1.8c-9 3.4-13.4 7.1-13.4 13.7 0 3.9 2.1 6.8 6.4 6.8 3 0 5-1 7.4-2.9.1.7.3 1.5.3 2.4h6c-.2-1-.3-2.1-.4-3.2V28.8c.1-5.5-3.2-8.2-9.1-8.2zm90.8 0c-5.9 0-9.8 3.3-10.1 9.5h6.3c.1-2.6.7-4.3 3.6-4.3 2.1 0 3.1 1.4 3.1 3.9v1.8c-9.1 3.4-13.5 7.1-13.5 13.8 0 3.9 2.1 6.8 6.4 6.8 3 0 5-1 7.4-2.9.1.7.3 1.5.3 2.4h6c-.2-1.1-.3-2.1-.4-3.2V28.8c.1-5.5-3.2-8.2-9.1-8.2zm-59.5.6v30.3h6.3V21.2h-6.3zM51.5 36v8c-1.1 1.5-2.5 2.8-4.2 2.8-1.9 0-2.9-.8-2.9-2.8-.1-2.6 1.3-4.7 7.1-8zm90.8 0v8c-1.1 1.5-2.5 2.8-4.2 2.8-1.9 0-2.9-.8-2.9-2.8 0-2.6 1.4-4.7 7.1-8zm20-23.1c-.4 0-.7.1-1 .4-.3.3-.4.6-.4 1v24.8h.2s5.9-.1 8.4-1.4c2.1-1.3 4-3 5.4-5l1.5-2.1.5-.7c.1-.1.3-.4.4-.6.1-.2.7-1.1 1.3-1.9 2.3-3.2 5.2-5.8 8.6-7.7 5.4-2.8 12.7-2.5 12.7-2.5h.1v-2.8c0-.4-.1-.7-.4-1-.3-.3-.6-.4-1-.4h-36.3zm37.7 13h-.4s-5.9.1-8.4 1.4c-2.1 1.3-4 2.9-5.4 5l-1.4 2.1c-.2.3-.4.6-.5.7l-.4.6-1.3 1.9s-3.6 5.1-8.6 7.7c-5.2 2.7-12.1 2.5-12.6 2.5v2.8c0 .4.1.7.4 1 .3.3.6.4 1 .4h36.4c.4 0 .7-.1 1-.4.3-.3.4-.6.4-1V25.9z" fill="#0f2741"/></svg>