<svg xmlns="http://www.w3.org/2000/svg" viewBox="0 0 200 65"><path d="M16.6 38h6.2v22.3H19V42.8l-4.4 17.6h-4L6.1 42.8v17.6H2.2V38h6.2l4.1 15.8L16.6 38zm24.8 22.4l-1.6-5.1h-7.3l-1.6 5.1h-4.1l7.4-22.3H38l7.6 22.3h-4.2zm-6.2-13.9l-1.6 5h4.9l-1.6-5c-.2-.6-.4-1.3-.6-2-.2-.7-.3-1.2-.3-1.7-.2 1.3-.5 2.5-.8 3.7zm28 13.9l-1.6-5.1h-7.3l-1.6 5.1h-4.1L56 38h3.8l7.6 22.3h-4.2v.1zM57 46.5l-1.6 5h4.9l-1.6-5c-.2-.6-.4-1.3-.5-2-.2-.7-.3-1.2-.3-1.7h-.1c-.2 1.3-.4 2.5-.8 3.7zm19.6-5.1c-.7 0-1.3.2-1.8.6-.5.4-.7.9-.7 1.6 0 .5.1.9.3 1.2.2.3.6.6 1.2.9.5.3 1.3.6 2.3.9 1.5.5 2.7 1 3.5 1.7.8.6 1.4 1.4 1.8 2.3.3.9.5 2 .5 3.3 0 1.5-.3 2.8-.9 3.9-.6 1-1.4 1.8-2.4 2.3s-2.1.7-3.3.7c-1.9 0-3.5-.6-4.7-1.9-1.2-1.3-1.9-3.1-2.2-5.6l3.4-.5c.2 1.5.6 2.5 1.1 3.2.6.7 1.4 1 2.4 1 .6 0 1.2-.1 1.6-.3.5-.2.8-.6 1.1-1 .3-.4.4-.9.4-1.5s-.1-1.2-.3-1.5c-.2-.4-.6-.7-1.1-1-.6-.3-1.4-.6-2.6-1-1.4-.4-2.5-1-3.3-1.6s-1.4-1.4-1.7-2.2c-.3-.8-.5-1.8-.5-2.9 0-1.2.2-2.3.7-3.2s1.2-1.7 2.1-2.2 2-.8 3.3-.8c1.8 0 3.3.6 4.4 1.7 1.1 1.1 1.8 2.7 2 4.8l-3.4.5c-.1-1.2-.4-2-.9-2.5-.6-.7-1.3-.9-2.3-.9zm20.9.4v18.5h-4.4V41.8h-6.4V38h17.1v3.8h-6.3zm26.3 2.5c0 1.6-.4 2.9-1.2 3.9-.8 1-2 1.8-3.6 2.2v.1c.4.1.7.3 1 .6s.6.7 1 1.2c.3.5.7 1.2 1.2 2.1l2.9 6h-4.9l-2.1-4.5c-.7-1.6-1.4-2.7-1.9-3.3-.3-.4-.7-.7-1-1-.3-.2-.7-.4-1.2-.5s-1.2-.1-2-.1h-.6v9.3H107V38h9.1c2.5 0 4.4.5 5.7 1.6 1.3 1.1 2 2.7 2 4.7zm-4.6.3c0-1-.3-1.7-.9-2.1-.6-.4-1.5-.7-2.7-.7h-4.3v5.7h3.8c1.3 0 2.4-.2 3-.7.8-.4 1.1-1.2 1.1-2.2zm9.5 15.8V38h4.4v22.3h-4.4v.1zM147 41.5c-1.2 0-2.2.3-3.1 1-.8.6-1.5 1.5-1.9 2.7-.4 1.1-.6 2.4-.6 3.9 0 1.6.2 2.9.7 4.1.4 1.2 1.1 2.1 1.9 2.7.8.6 1.8 1 3 1 .8 0 1.6-.2 2.3-.5.7-.4 1.3-.9 1.8-1.6.5-.7.9-1.5 1.1-2.4l4.4 1c-.3 1.5-.9 2.8-1.8 3.9-.8 1.1-1.9 2-3.2 2.6s-2.8.9-4.4.9c-2.2 0-4-.5-5.6-1.4-1.5-.9-2.7-2.3-3.5-4-.8-1.8-1.2-3.9-1.2-6.3 0-2.3.4-4.3 1.3-6 .8-1.7 2-3 3.6-3.9s3.4-1.4 5.5-1.4c2.4 0 4.4.6 5.9 1.7s2.6 2.7 3.3 4.9l-4.4 1.1c-.9-2.7-2.6-4-5.1-4zm27.3 5.1V38h4.4v22.3h-4.4v-9.9h-8.7v9.9h-4.4V38h4.4v8.6h8.7zm19.3-4.8v18.5h-4.4V41.8h-6.4V38H200v3.8h-6.4zM10.7 9v19.1H6.3V9H0V5.1h16.9V9h-6.2zm13.6 0v5.3h8.2v3.9h-8.2v6.1h10.4v3.9H20v-23h14.3v3.9h-10V9zm18.6 0v5.7H52v3.9h-9.1v9.5h-4.4v-23h14.6V9H42.9zm26.7 19.1l-1.9-5.2h-8.4l-1.8 5.2h-4.7l8.5-23h4.3l8.7 23h-4.7zm-7.2-14.3L60.6 19h5.6l-1.8-5.2c-.2-.6-.4-1.3-.6-2s-.3-1.3-.4-1.7h-.1c-.1 1.2-.4 2.5-.9 3.7zM81 9v5.7h8.1v3.9H81v9.5h-4.4v-23h14.6V9H81z" fill="#343131"/></svg>