<svg xmlns="http://www.w3.org/2000/svg" viewBox="0 0 100 100"><path fill="#007acc" d="M0 50v50h100V0H0z"/><path d="M22.1 50.3v4.1h13v37h9.2v-37h13v-4c0-2.2 0-4.1-.1-4.1 0-.1-8-.1-17.6-.1H22.1v4.1zm58.6-4.2c2.5.6 4.5 1.8 6.3 3.6.9 1 2.3 2.8 2.4 3.2 0 .1-4.3 3-7 4.7-.1.1-.5-.3-.9-1-1.3-1.9-2.6-2.7-4.7-2.8-3-.2-5 1.4-5 4 0 .8.1 1.2.4 1.9.7 1.4 1.9 2.2 5.8 3.9 7.2 3.1 10.2 5.1 12.1 8 2.1 3.2 2.6 8.4 1.2 12.2-1.6 4.2-5.5 7-11.1 7.9-1.7.3-5.8.3-7.6-.1-4-.7-7.8-2.7-10.2-5.3-.9-1-2.7-3.7-2.6-3.9 0-.1.5-.3.9-.6s2.1-1.2 3.7-2.1l2.9-1.7.7 1c.8 1.3 2.7 3 3.8 3.6 3.2 1.7 7.6 1.4 9.7-.5.9-.8 1.3-1.7 1.3-3 0-1.2-.1-1.7-.7-2.5-.8-1.1-2.4-2-6.9-4-5.2-2.2-7.4-3.6-9.4-5.8-1.2-1.3-2.3-3.3-2.7-5-.4-1.4-.5-5-.2-6.4 1.1-5 4.8-8.5 10.3-9.5 1.7-.3 5.8-.2 7.5.2z" fill="#fff"/></svg>