<svg xmlns="http://www.w3.org/2000/svg" viewBox="0 0 90 100"><path fill="#fff" d="M45 0l44.2 25v50L45 100 .8 75V25z"/><path d="M81.3 73.3L46.5 93V77.7l21.7-12 13.1 7.6zm2.4-2.2V29.9L71 37.3v26.5l12.7 7.3zM8.6 73.3L43.4 93V77.6L21.7 65.7 8.6 73.3zm-2.4-2.2V29.9l12.7 7.4v26.5L6.2 71.1zm1.5-43.9L43.4 7v14.8L20.5 34.5l-.2.1-12.6-7.4zm74.5 0L46.5 7v14.8l22.9 12.6.2.1 12.6-7.3z" fill="#8ed6fb"/><path d="M43.4 74.2L22 62.4V39l21.4 12.4v22.8zm3.1 0l21.4-11.8V39L46.5 51.4v22.8zM23.4 36.3l21.5-11.8 21.5 11.8-21.5 12.4-21.5-12.4z" fill="#1c78c0"/></svg>