<svg xmlns="http://www.w3.org/2000/svg" viewBox="0 0 100 100"><path d="M50.05 7.043c11.185 0 21.402 4.302 29.038 11.293-3.764-.108-7.528 2.15-7.636 7.206-.323 10.325 12.368 12.476 5.485 33.34L71.345 76.09l-15.38-45.278c-.215-.753 0-1.076.86-1.076h4.302c.215 0 .43-.215.43-.43v-2.581a.463.463 0 00-.43-.43c-8.281.322-16.455.322-24.521 0a.463.463 0 00-.43.43v2.581c0 .215.215.43.43.43h4.41c.967 0 1.29.323 1.505.968l6.346 17.316-9.465 28.716L23.7 30.596c-.215-.537 0-.86.645-.86h4.947c.216 0 .43-.215.43-.43v-2.581a.463.463 0 00-.43-.43c-5.27.322-10.432.322-15.38.43C21.55 14.787 34.886 7.043 50.05 7.043zM87.8 29.521c3.334 6.13 5.162 13.014 5.162 20.435 0 16.24-9.034 30.436-22.37 37.75L84.035 49.74c2.044-5.915 3.98-13.766 3.765-20.219zm-23.446 60.98c-4.41 1.614-9.357 2.475-14.304 2.475a43.76 43.76 0 01-12.476-1.829l13.12-37.965 13.66 37.32zM31.55 88.89C17.031 82.005 7.03 67.164 7.03 49.956c0-6.346 1.398-12.369 3.871-17.854l20.65 56.787zm18.5-85.934c25.92 0 46.999 21.08 46.999 47s-21.08 47.106-47 47.106S2.944 75.983 2.944 49.956s21.08-47 47.107-47zm0-2.904c27.64 0 50.01 22.37 50.01 50.011S77.582 99.966 50.05 99.966.039 77.596.039 49.956 22.409.052 50.049.052z" fill-rule="evenodd" clip-rule="evenodd" fill="#464342"/></svg>