<?xml version="1.0" encoding="utf-8"?>
<svg version="1.1" id="Ebene_1" xmlns="http://www.w3.org/2000/svg" xmlns:xlink="http://www.w3.org/1999/xlink" x="0px" y="0px"
	 viewBox="0 0 512 512" style="enable-background:new 0 0 512 512;" xml:space="preserve">
<style type="text/css">
	.st0{fill:#1C1C1C;}
	.st1{fill:#4A0572;}
	.st2{fill:#DD0093;}
    @media (prefers-color-scheme: dark) {
      .st0{fill:#e3e3e3;}
      .st1{fill:#25da65;}
      .st2{fill:#b5eb87;}
    }
</style>
<g>
	<g>
		<g>
			<g>
				<path class="st0" d="M0,267.1h68.2v20.6c0,30.8,11.4,59.5,48.7,59.5c26.5,0,47.1-16.8,47.1-59.5V72.3h-53V18.7h164.5v53.6h-40.6
					v218.1c0,82.8-60.1,119.1-118.5,119.1C59,409.4,0,375.9,0,293.6V267.1z"/>
			</g>
		</g>
	</g>
	<path class="st1" d="M490.1,18.2c-43.7,0-147.6,14.6-147.6,158.5v37.6l0,32.4c0,87.4-55.6,95.6-79.2,95.6c-7.3,0-12.8,0-12.8,0
		v67.4c0,0,9.1,0.9,21.9,0.9c43.7,0,147.6-14.6,147.6-158.5l0-37.8v-32.1c0-87.4,55.6-95.6,79.2-95.6c7.3,0,12.8,0,12.8,0V19.1
		C512,19.1,502.9,18.2,490.1,18.2z"/>
	<path class="st2" d="M342.7,493.8h77.8C417.1,356.5,316,342.3,273,342.3c-12.8,0-22.5,0-22.5,0v68.3c0,0,6.1,0,13.4,0
		C286.4,410.6,337.6,418.1,342.7,493.8z"/>
</g>
</svg>
