<?xml version="1.0" standalone="no"?>
<!DOCTYPE svg PUBLIC "-//W3C//DTD SVG 20010904//EN"
 "http://www.w3.org/TR/2001/REC-SVG-20010904/DTD/svg10.dtd">
<svg version="1.0" xmlns="http://www.w3.org/2000/svg"
 width="700.000000pt" height="700.000000pt" viewBox="0 0 700.000000 700.000000"
 preserveAspectRatio="xMidYMid meet">
<metadata>
Created by potrace 1.11, written by Peter Selinger 2001-2013
</metadata>
<g transform="translate(0.000000,700.000000) scale(0.100000,-0.100000)"
fill="#000000" stroke="none">
<path d="M1519 6735 c-1 -13 -1 -674 0 -701 l1 -22 357 -1 c196 -1 359 -3 361
-6 8 -7 5 -2979 -2 -3070 -7 -83 -8 -88 -20 -145 -80 -363 -304 -547 -650
-535 -316 12 -520 184 -601 505 -1 3 -5 28 -10 55 -4 28 -10 59 -12 70 -4 15
-11 254 -13 453 0 9 -100 12 -466 12 l-467 0 6 -297 c3 -164 8 -314 12 -333
26 -148 49 -248 75 -325 17 -50 34 -99 37 -110 4 -11 9 -22 12 -25 4 -3 17
-30 31 -60 46 -102 158 -257 256 -355 233 -233 556 -381 931 -428 106 -14 381
-15 468 -3 611 88 1061 420 1264 932 65 164 102 327 116 516 2 24 4 742 4
1596 l1 1552 278 0 278 0 0 367 -1 368 -1122 0 c-744 0 -1123 -3 -1124 -10z"/>
<path d="M6489 6746 c-2 -2 -33 -7 -69 -10 -170 -18 -463 -82 -530 -117 -8 -4
-51 -21 -95 -38 -301 -117 -592 -355 -771 -632 -168 -259 -289 -628 -320 -976
-3 -37 -8 -79 -11 -93 -3 -14 -6 -319 -8 -678 -3 -587 -7 -784 -19 -862 -2
-14 -8 -47 -12 -75 -4 -27 -8 -54 -10 -60 -1 -5 -9 -40 -18 -77 -100 -426
-376 -704 -779 -784 -64 -12 -248 -23 -413 -24 -9 0 -12 -126 -11 -465 0 -256
2 -465 6 -466 3 0 69 -2 146 -4 132 -2 263 -12 276 -20 3 -2 19 -6 35 -9 52
-10 158 -46 224 -78 278 -134 466 -401 540 -767 16 -82 32 -204 33 -248 0 -10
114 -13 534 -13 l534 0 -5 88 c-8 130 -19 239 -31 313 -3 14 -7 41 -9 60 -3
19 -10 59 -16 89 -6 30 -13 65 -16 78 -11 56 -79 265 -111 342 -37 90 -125
262 -143 280 -3 3 -27 38 -55 79 -27 41 -94 120 -147 176 l-97 102 72 74 c172
176 306 394 397 642 32 90 93 318 104 392 3 22 7 49 10 60 2 11 7 49 11 85 4
36 9 74 11 85 10 51 16 362 19 925 2 338 6 635 9 660 60 445 233 742 528 909
36 19 159 71 181 75 7 2 30 8 52 14 82 23 184 34 330 36 l150 2 3 461 2 461
-37 4 c-43 6 -469 9 -474 4z"/>
</g>
</svg>
