<?xml version="1.0" encoding="utf-8"?>
<!-- Generator: Adobe Illustrator 25.0.0, SVG Export Plug-In . SVG Version: 6.00 Build 0)  -->
<svg version="1.1" id="Ebene_1" xmlns="http://www.w3.org/2000/svg" xmlns:xlink="http://www.w3.org/1999/xlink" x="0px" y="0px"
	 viewBox="0 0 133 65" style="enable-background:new 0 0 133 65;" xml:space="preserve">
<g id="g10" transform="matrix(1.3333333,0,0,-1.3333333,0,209.94667)">
	<g id="g12" transform="scale(0.1)">
		<path id="path14" style="fill:#A1D733;" d="M298.7,1430.5c0,79.6,90,144.1,201,144.1s201-64.5,201-144.1s-90-144.1-201-144.1
			S298.7,1350.9,298.7,1430.5L298.7,1430.5"/>
		<path id="path16" style="fill:#231F20;" d="M535.3,1553.1c-5.2-20.8-11-45.8-16.7-70.4c-4,0.8-8.1,1.3-12.3,1.6l4.8,70.8
			C519.2,1554.8,527.3,1554.2,535.3,1553.1L535.3,1553.1"/>
		<path id="path18" style="fill:#231F20;" d="M580.2,1542.9c-12.6-19.8-26.9-44-39.5-67.8c-3.6,1.9-7.5,3.5-11.7,4.9
			c8.6,24.2,18.4,48.9,26.8,69.5C564.2,1547.7,572.4,1545.5,580.2,1542.9L580.2,1542.9"/>
		<path id="path20" style="fill:#231F20;" d="M630,1518.6c-22.5-15.6-48.4-36.7-70.2-58.1c-2.6,2.9-5.6,5.6-8.8,8.1
			c16.9,23,36.4,46.2,54,64.3C613.9,1528.7,622.3,1523.9,630,1518.6L630,1518.6"/>
		<path id="path22" style="fill:#231F20;" d="M669.3,1478.5c-25.7-6.3-66.7-21.3-98.4-39.3c-0.8,3.9-2.3,7.7-4.1,11.3
			c26.8,19.5,58.8,37.4,85.4,49.7C658.8,1493.5,664.6,1486.2,669.3,1478.5L669.3,1478.5"/>
		<path id="path24" style="fill:#231F20;" d="M628,1375.7c12.7,4.8,27.2,7.9,42.5,8.8c-4.7-8.2-10.8-16-17.8-23.2
			C645,1366.5,636.8,1371.3,628,1375.7L628,1375.7"/>
		<path id="path26" style="fill:#231F20;" d="M539.7,1402.3c32.1,26.4,83.1,47.7,139.8,53.3c1.8-5.9,3-12.1,3.5-18.3
			c-45.6-4-88.5-17.6-118.4-39.3C556.5,1399.8,548.2,1401.2,539.7,1402.3L539.7,1402.3"/>
		<path id="path28" style="fill:#231F20;" d="M682.5,1418.9c-0.8-5.7-2.1-11.4-4-16.9c-26.3-1.4-50.6-7.6-70.6-17.2
			c-6.7,2.7-13.7,5.1-20.8,7.3C612.8,1407.3,646,1417.1,682.5,1418.9L682.5,1418.9"/>
		<path id="path30" style="fill:#231F20;" d="M445.4,1311.1c15.9,6.8,34.5,10.6,54.3,10.6s38.4-3.9,54.3-10.6
			c-17.1-3.6-35.4-5.6-54.3-5.6S462.6,1307.5,445.4,1311.1L445.4,1311.1"/>
		<path id="path32" style="fill:#231F20;" d="M397.8,1326.8c27.1,17.5,63,28.2,102.3,28.2s75.3-10.6,102.3-28.2
			c-7.3-3.4-14.9-6.3-22.9-8.9c-21.9,12.3-49.5,19.7-79.5,19.7c-30,0-57.6-7.4-79.5-19.7C412.6,1320.5,405,1323.5,397.8,1326.8
			L397.8,1326.8"/>
		<path id="path34" style="fill:#231F20;" d="M360.6,1349.4c36.1,24.8,85.1,40.1,139.1,40.1c54.2,0,103.4-15.4,139.5-40.3
			c-5.8-4.6-12.1-8.9-18.8-12.9c-31.4,21.4-73.9,34.6-120.6,34.6c-46.6,0-88.9-13.1-120.3-34.4
			C372.7,1340.5,366.4,1344.8,360.6,1349.4L360.6,1349.4"/>
		<path id="path36" style="fill:#231F20;" d="M464.1,1553.1c5.2-20.8,11-45.8,16.7-70.4c4,0.8,8.1,1.3,12.3,1.6l-4.8,70.8
			C480.1,1554.8,472,1554.2,464.1,1553.1L464.1,1553.1"/>
		<path id="path38" style="fill:#231F20;" d="M419.2,1542.9c12.6-19.8,26.9-44,39.5-67.8c3.6,1.9,7.5,3.5,11.7,4.9
			c-8.7,24.2-18.4,48.9-26.8,69.5C435.2,1547.7,427,1545.5,419.2,1542.9L419.2,1542.9"/>
		<path id="path40" style="fill:#231F20;" d="M369.5,1518.6c22.5-15.6,48.4-36.7,70.2-58.1c2.6,2.9,5.6,5.6,8.8,8.1
			c-16.9,23-36.4,46.2-54,64.3C385.5,1528.7,377.1,1523.9,369.5,1518.6L369.5,1518.6"/>
		<path id="path42" style="fill:#231F20;" d="M330.1,1478.5c32.3-8,68.3-22.1,98.4-39.3c0.8,3.9,2.3,7.7,4.1,11.3
			c-26.8,19.5-58.8,37.4-85.4,49.7C340.6,1493.5,334.8,1486.2,330.1,1478.5L330.1,1478.5"/>
		<path id="path44" style="fill:#231F20;" d="M371.3,1375.7c-12.7,4.8-27.2,7.9-42.5,8.8c4.8-8.2,10.8-16,17.8-23.2
			C354.4,1366.5,362.7,1371.3,371.3,1375.7L371.3,1375.7"/>
		<path id="path46" style="fill:#231F20;" d="M459.6,1402.3c-32.1,26.4-83.1,47.7-139.8,53.3c-1.8-5.9-3-12.1-3.5-18.3
			c45.6-4,88.5-17.6,118.4-39.3C442.8,1399.8,451.2,1401.2,459.6,1402.3L459.6,1402.3"/>
		<path id="path48" style="fill:#231F20;" d="M316.8,1418.9c0.8-5.7,2.1-11.4,4-16.9c26.3-1.4,50.6-7.6,70.6-17.2
			c6.7,2.7,13.7,5.1,20.8,7.3C386.6,1407.3,353.4,1417.1,316.8,1418.9L316.8,1418.9"/>
		<path id="path50" style="fill-rule:evenodd;clip-rule:evenodd;fill:#231F20;" d="M815.6,1220.3c3.4-5.9,2.1-17.1-1.9-22.4
			c-8.8-13.2-24.9-18.1-38.7-22.8v54.7C786.7,1230.4,811,1232.1,815.6,1220.3L815.6,1220.3z M788.8,1254.1
			c26.1,0,45.3-2.1,55.3-25.8c7.4-16.5,3.4-35.6-7.4-48.1c-4.7-6.6-10-10.6-16.8-15.2l-3.2-2.9c13.6-16.6,25-40.1,33.9-58.6
			c18.2,67.7,40.1,151.8,54.7,203.6c0.3,1,0.2,2.3-0.6,4h34.5c0,0,39.5-152.9,55.8-216.2c0.3-1,1-2,2.4-2.6h-39.6
			c4.4,3.4,1.2,11.4-12,62.9c-24.4-7.3-50.4-14.4-62.4-39.7c-2-6.6-4.2-16.6-0.1-23.2H818c6.4,6.8-3,22.1-9.5,31.8
			c-6.8,10.2-11.3,18.3-19.4,26.3c-6.6-2-8.8-2.8-14.5-4.2c0,0,0.1-49.3,0.1-50c0-1.7,1.4-4,3.1-4h-37c1.7,0,3,2.3,3,4v153.9
			c0,1.7-1.6,4.1-3.3,4.1L788.8,1254.1L788.8,1254.1z M939.4,1181.9c-13.6-2.6-28.8-9.4-41.7-13.3l24.3,90.3
			C922,1258.8,934.7,1205.5,939.4,1181.9L939.4,1181.9"/>
		<path id="path52" style="fill:#231F20;" d="M240.2,1092.1c-0.1,0,0,28.4,0,28.4c0-1.7-2.4-3.1-4.1-3.1h-39.2c0,0,0,131,0,132.8
			c0,1.7,1.4,4,3.1,4h-37c1.7,0,3-2.3,3-4v-153.9c0-1.7-1.6-4.1-3.3-4.1C162.6,1092.2,240.1,1092.1,240.2,1092.1L240.2,1092.1"/>
		<path id="path54" style="fill-rule:evenodd;clip-rule:evenodd;fill:#231F20;" d="M95.2,1311c0,0,39.5-152.9,55.8-216.2
			c0.3-1,1-2,2.4-2.6h-39.6c4.4,3.4,1.2,11.4-12,62.9c-24.4-7.3-50.4-14.4-62.4-39.7c-2-6.6-4.1-16.6-0.1-23.2H0.2
			c0,0,4.4,4.2,5.9,9.9c18.2,67.7,40.5,153.2,55.1,204.9c0.3,1,0.2,2.3-0.6,4L95.2,1311L95.2,1311z M95.4,1182.2
			c-13.6-2.6-28.8-9.4-41.7-13.3c2.1,7.8,24.3,90.3,24.3,90.3S90.6,1205.9,95.4,1182.2L95.4,1182.2"/>
		<path id="path56" style="fill:#231F20;" d="M252.2,1256c4.9,0,13.8-2.8,16.5-3.4c28-9.9,45.7-29.5,66.8-52c0,0-0.1,47.9-0.1,49.6
			c0,1.7-1.4,4-3.1,4h35.5c-1.7,0-3-2.3-3-4v-153.9c0-1.7,1.6-4.1,3.3-4.1c0,0-36.5-0.1-36.5-0.1c4.6,1.3,3.4,4.7,3.4,34.8
			c0,33.1-26.8,61.9-53.2,82.4v-113.2c0-1.7,1.3-4,3-4H249c1.7,0,3.1,2.3,3.1,4C252.1,1097.8,252.2,1256,252.2,1256L252.2,1256"/>
		<path id="path58" style="fill-rule:evenodd;clip-rule:evenodd;fill:#231F20;" d="M464.3,1254.1c17.3-50.1,28.4-104.5,46.2-155.8
			c1-2.9,1-4.8,3.7-6.2c-12.7,0-24.3,0-38.3,0c7.2,2.4-1,17.5-9.6,50.9c-5.1-1.4-9.6-2.4-15-3.7c-17.1-3.7-33.6-12.9-40.1-27.4
			c-2.8-6.8-4.8-15.4-1.4-19.8H373c2.4,1.4,2.5,2.7,3.1,4.5c16.5,48.9,32.8,102.1,48.5,152.1c1.1,2.3,0.9,4.7-0.7,6.6L464.3,1254.1z
			 M459.5,1165.8c-10.9-2-24.6-7-34.8-10.7c6.8,20.2,19.8,61.5,19.8,61.5L459.5,1165.8L459.5,1165.8"/>
		<path id="path60" style="fill:#231F20;" d="M595.8,1254.2c-0.1,0-0.1-29.7-0.1-29.7c0,1.7-2.4,3.1-4.1,3.1h-33.9v-131.4
			c0-1.7,1.3-4,3-4h-37c1.7,0,3.1,2.3,3.1,4c0,1.7,0,131.4,0,131.4H493c-1.7,0-4.1-1.4-4.1-3.1c0,0,0.1,29.7,0.1,29.7L595.8,1254.2
			L595.8,1254.2"/>
		<path id="path62" style="fill:#231F20;" d="M603.6,1147.5l-0.1,102.7c0,1.7-1.3,4-3,4h37c-1.7,0-3.1-2.3-3.1-4
			c0-1.3-0.1-70.4-0.1-107.4c0-16,12.9-29,29-29c16,0,29,12.9,29,29c0,37,0,105.7,0,107c0,1.7-1.4,4-3.1,4h37c-1.7,0-3-2.3-3-4
			l0.1-102.9c0-43.5-26.9-59.9-59.9-59.9C630.3,1087,603.6,1104,603.6,1147.5L603.6,1147.5"/>
	</g>
</g>
</svg>
