<?xml version="1.0" encoding="utf-8"?>
<!-- Generator: Adobe Illustrator 25.0.0, SVG Export Plug-In . SVG Version: 6.00 Build 0)  -->
<svg version="1.1" id="Ebene_1" xmlns="http://www.w3.org/2000/svg" xmlns:xlink="http://www.w3.org/1999/xlink" x="0px" y="0px"
	 viewBox="0 0 100 100" style="enable-background:new 0 0 100 100;" xml:space="preserve">
<path style="fill-rule:evenodd;clip-rule:evenodd;fill:#0379C4;" d="M67.1,45.4l-21,34.9h-3.8l3.8-22.7l-11.8,0
	c-1,0-1.9-0.8-1.9-1.9c0,0,0,0,0,0c0-0.4,0.4-1.2,0.4-1.2l20.9-34.9l3.9,0l-3.9,22.8l11.9,0c1,0,1.9,0.8,1.9,1.9c0,0,0,0,0,0
	C67.5,44.7,67.4,45.1,67.1,45.4L67.1,45.4L67.1,45.4z M50,0C22.4,0,0,22.4,0,50s22.4,50,50,50s50-22.4,50-50S77.6,0,50,0z"/>
</svg>
