<?xml version="1.0" encoding="utf-8"?>
<!-- Generator: Adobe Illustrator 25.0.0, SVG Export Plug-In . SVG Version: 6.00 Build 0)  -->
<svg version="1.1" id="Ebene_1" xmlns="http://www.w3.org/2000/svg" xmlns:xlink="http://www.w3.org/1999/xlink" x="0px" y="0px"
	 viewBox="0 0 200 65" style="enable-background:new 0 0 200 65;" xml:space="preserve">
<g>
	<g>
		<path style="fill:#009EDF;" d="M26.9,46.6c0.1-0.4,3-0.9,3.1-0.7c0.4,0.6,3.2,9.2,3.2,9.9c0,0.4-4.8,1.5-5,1.1
			C28.1,56.7,26.7,47.4,26.9,46.6z"/>
	</g>
	<g>
		<path style="fill:#009EDF;" d="M22.3,18.4c-0.1,0.4-3,0.9-3.1,0.7C18.8,18.5,16,9.9,16,9.1c0-0.4,4.8-1.5,5-1.1
			C21.2,8.2,22.5,17.6,22.3,18.4z"/>
	</g>
	<g>
		<path style="fill:#009EDF;" d="M38.6,30.3c-0.4-0.1-0.9-3-0.7-3.1c0.6-0.4,9.2-3.2,9.9-3.2c0.4,0,1.5,4.8,1.1,5
			C48.8,29.1,39.5,30.4,38.6,30.3z"/>
	</g>
	<g>
		<path style="fill:#009EDF;" d="M10.5,34.8c0.4,0.1,0.9,3,0.7,3.1c-0.6,0.4-9.2,3.2-9.9,3.2c-0.4,0-1.5-4.8-1.1-5
			C0.4,36,9.7,34.6,10.5,34.8z"/>
	</g>
	<g>
		<path style="fill:#FAE60B;" d="M38,37.5c-0.3-0.3,0.7-3,1-3c0.7-0.1,9.5,1.8,10.2,2.2c0.3,0.2-1.2,4.9-1.6,4.9
			C47.4,41.5,38.6,38,38,37.5z"/>
	</g>
	<g>
		<path style="fill:#FAE60B;" d="M11.3,27.4c0.3,0.3-0.7,3-1,3C9.6,30.4,0.8,28.6,0,28.2c-0.3-0.2,1.2-4.9,1.6-4.9
			C1.9,23.3,10.6,26.9,11.3,27.4z"/>
	</g>
	<g>
		<path style="fill:#FAE60B;" d="M29.8,19.2c-0.3,0.3-3-0.7-3-1c-0.1-0.7,1.8-9.5,2.2-10.2c0.2-0.3,4.9,1.2,4.9,1.6
			C33.8,9.8,30.3,18.5,29.8,19.2z"/>
	</g>
	<g>
		<path style="fill:#FAE60B;" d="M19.6,45.8c0.3-0.3,3,0.7,3,1c0.1,0.7-1.8,9.5-2.2,10.2c-0.2,0.3-4.9-1.2-4.9-1.6
			C15.6,55.2,19.1,46.4,19.6,45.8z"/>
	</g>
	<g>
		<path style="fill:#E70046;" d="M13.6,41.6c0.4-0.2,2.3,2.1,2.2,2.3c-0.3,0.6-6.3,7.4-6.9,7.8C8.5,52,5.2,48.4,5.4,48
			C5.5,47.8,12.9,41.9,13.6,41.6z"/>
	</g>
	<g>
		<path style="fill:#E70046;" d="M35.6,23.3c-0.4,0.2-2.3-2.1-2.2-2.3c0.3-0.6,6.3-7.4,6.9-7.8c0.3-0.2,3.7,3.4,3.5,3.7
			C43.7,17.1,36.4,23.1,35.6,23.3z"/>
	</g>
	<g>
		<path style="fill:#E70046;" d="M33.6,43.5c-0.2-0.4,2.1-2.3,2.3-2.2c0.6,0.3,7.4,6.3,7.8,6.9c0.2,0.3-3.4,3.7-3.7,3.5
			C39.8,51.6,33.9,44.3,33.6,43.5z"/>
	</g>
	<g>
		<path style="fill:#E70046;" d="M15.5,21.5c0.2,0.4-2.1,2.3-2.3,2.2c-0.6-0.3-7.4-6.3-7.8-6.9c-0.2-0.3,3.4-3.7,3.7-3.5
			C9.3,13.4,15.2,20.8,15.5,21.5z"/>
	</g>
	<g>
		<path d="M74.5,37.1c-1.5,3-3.2,4.3-6,4.3c-4.2,0-6.9-3.3-6.9-8.6c0-5.6,2.7-8.8,6.6-8.8c2.9,0,4.9,1.5,6.1,4.5l-1.7,0.7
			c-0.9-2.4-2.2-3.5-4.3-3.5c-2.8,0-4.7,2.5-4.7,7c0,4.6,1.8,7.1,4.8,7.1c2.1,0,3.4-1.1,4.5-3.5L74.5,37.1z"/>
		<path d="M83.4,24c4.1,0,6.9,3.2,6.9,8.7c0,5.5-2.8,8.7-6.9,8.7c-4.1,0-6.9-3.2-6.9-8.7C76.5,27.2,79.3,24,83.4,24z M83.4,39.8
			c3,0,4.9-2.5,4.9-7.1s-1.8-7-4.9-7s-4.9,2.5-4.9,7S80.4,39.8,83.4,39.8z"/>
		<path d="M94,24.3h1.8v2.6H96c1.8-2,3.6-2.9,5.4-2.9c1.9,0,3.2,0.9,4,2.9h0.2c1.8-2,3.6-2.9,5.4-2.9c2.8,0,4.2,1.8,4.2,5.4v11.7
			h-1.9v-11c0-3-0.5-4.4-2.9-4.4c-1.6,0-3.2,1-4.9,3.1v12.2h-2v-11c0-3-0.5-4.4-2.9-4.4c-1.6,0-3.2,1-4.9,3.1v12.2h-2L94,24.3
			L94,24.3z"/>
		<path d="M120.5,24.3h1.8v2.6h0.1c1.8-2,3.6-2.9,5.4-2.9c1.9,0,3.2,0.9,4,2.9h0.2c1.8-2,3.6-2.9,5.4-2.9c2.8,0,4.2,1.8,4.2,5.4
			v11.7h-1.9v-11c0-3-0.5-4.4-2.9-4.4c-1.6,0-3.2,1-4.9,3.1v12.2h-1.9v-11c0-3-0.5-4.4-2.9-4.4c-1.6,0-3.2,1-4.9,3.1v12.2h-2V24.3z"
			/>
		<path d="M155.9,38.9c-1.8,1.7-3.7,2.5-5.7,2.5c-2.8,0-4.5-1.9-4.5-4.5c0-3.9,3.2-5.6,10.3-6.9v-1.6c0-1.6-1.4-2.7-3.7-2.7
			c-1.8,0-3.2,0.9-4.2,2.7l-1.6-0.9c1.3-2.3,3.1-3.5,6-3.5c3.2,0,5.4,1.9,5.4,4.4v10.4c0,0.4,0.1,1.2,0.3,2.2h-2
			C156,40.3,155.9,39.6,155.9,38.9z M155.9,31.7c-5.6,1.2-8.3,2.3-8.3,5.2c0,1.8,1.1,3,2.8,3c1.8,0,3.5-1,5.5-3V31.7z"/>
		<path d="M163.1,24.3h2v2.9h0.2c1.2-2.2,2.6-3.2,4.8-3.2h0.1v2h-0.3c-2.3,0-3.9,1.3-4.9,4.5v10.7h-2L163.1,24.3L163.1,24.3z"/>
		<path d="M184.2,37.1c-1.5,3-3.2,4.3-6,4.3c-4.2,0-6.9-3.3-6.9-8.6c0-5.6,2.7-8.8,6.6-8.8c2.9,0,4.9,1.5,6.1,4.5l-1.7,0.7
			c-0.9-2.4-2.2-3.5-4.3-3.5c-2.8,0-4.7,2.5-4.7,7c0,4.6,1.8,7.1,4.8,7.1c2.1,0,3.4-1.1,4.5-3.5L184.2,37.1z"/>
		<path d="M193.1,24c4.1,0,6.9,3.2,6.9,8.7c0,5.5-2.8,8.7-6.9,8.7s-6.9-3.2-6.9-8.7C186.2,27.2,189,24,193.1,24z M193.1,39.8
			c3,0,4.9-2.5,4.9-7.1s-1.8-7-4.9-7s-4.9,2.5-4.9,7C188.2,37.3,190.1,39.8,193.1,39.8z"/>
	</g>
</g>
</svg>
