<?xml version="1.0" encoding="utf-8"?>
<!-- Generator: Adobe Illustrator 25.0.0, SVG Export Plug-In . SVG Version: 6.00 Build 0)  -->
<svg version="1.1" id="Ebene_1" xmlns="http://www.w3.org/2000/svg" xmlns:xlink="http://www.w3.org/1999/xlink" x="0px" y="0px"
	 viewBox="0 0 120 36" style="enable-background:new 0 0 120 36;" xml:space="preserve">
<g id="Symbols">
	<g id="Header-Signed-In" transform="translate(-114.000000, -101.000000)">
		<path id="Shape" style="fill:#E5422B;" d="M174.2,116.6h5.1l0.6-3.2h-5.1l0.9-4.7h0l-3.9,3.1l-0.3,1.6h-4l1.2-6.4
			c0.3-2.4,3.8-1.7,4.3-1.5l0.6-3.1c-6.3-2.5-8.2,4.6-8.2,4.6l-1.2,6.4h0l-4,3.2h3.4l-3.7,20.4h3.3l3.7-20.4h4l-1.5,8
			c-0.9,5.8,4.7,5.2,6.4,4.8l0.6-3c-4.3,1-3.7-1.8-3.7-1.8L174.2,116.6L174.2,116.6z M154.6,124.8c-3.7,3.9-6,1.3-6,1.3
			c-1.6-1.6,0.2-3.2,0.2-3.2c2.4-2.3,6.2,0.2,6.2,0.2L154.6,124.8z M155.1,120.7c0,0-4.9-2.6-8.3,0.3c0,0-2,1.4-2,4.1
			c0,2.7,2.4,4.2,2.4,4.2s3.7,2,6.5-1.2l-0.3,1.5h3.2l2-9.9c1.5-9.7-9.7-6.3-9.7-6.3l-0.6,3.5c8.3-3.7,6.9,2.8,6.9,2.8L155.1,120.7
			L155.1,120.7z M146.9,113.9c-2.7,0-5.1,1.5-5.1,1.5l0.3-1.5h-3.2l-2.9,16h3.3l2-10.5c1.5-3,5.1-2,5.1-2L146.9,113.9L146.9,113.9z
			 M134,106.9c0.2,0.1,0.3,0.3,0.5,0.4l2.4-1.9l0.1-0.1c-0.4-0.4-0.8-0.7-1.2-1.1c-5.5-4.3-13.8-2.5-18.6,4s-4.2,15.2,1.4,19.5
			c4.5,3.5,10.9,2.9,15.7-0.9l0,0l-2.3-1.8c-3.5,2.3-7.9,2.5-11.1,0c-4.2-3.3-4.7-10-1-15C123.3,105,129.7,103.6,134,106.9
			L134,106.9z M195.9,128.4c-0.7,0.5-1.5,0.8-2.3,1.1c-0.8,0.3-1.7,0.4-2.7,0.4c-1.2,0-2.2-0.2-3.2-0.6c-0.9-0.4-1.8-1-2.5-1.7
			c-0.7-0.7-1.3-1.6-1.7-2.5c-0.4-1-0.6-2-0.6-3.1c0-1.1,0.2-2.2,0.6-3.1c0.4-1,0.9-1.8,1.7-2.6s1.6-1.3,2.5-1.7
			c1-0.4,2-0.6,3.2-0.6c1,0,1.9,0.1,2.7,0.4c0.8,0.3,1.6,0.7,2.3,1.1l-0.6,0.9c-0.6-0.4-1.3-0.7-2-1c-0.7-0.3-1.5-0.4-2.4-0.4
			c-1,0-1.9,0.2-2.7,0.5c-0.8,0.3-1.5,0.8-2.1,1.5c-0.6,0.6-1.1,1.4-1.4,2.2c-0.3,0.9-0.5,1.8-0.5,2.7c0,1,0.2,1.9,0.5,2.7
			c0.3,0.8,0.8,1.6,1.4,2.2c0.6,0.6,1.3,1.1,2.1,1.5c0.8,0.4,1.7,0.5,2.7,0.5c0.9,0,1.7-0.1,2.4-0.4c0.7-0.3,1.4-0.6,2-1
			L195.9,128.4L195.9,128.4z M219.7,130v-10.6c0-2.9-1.2-4.3-3.5-4.3c-1.1,0-2.1,0.3-3.1,1c-1,0.7-1.9,1.5-2.6,2.6V130h-1.2v-10.6
			c0-2.9-1.2-4.3-3.5-4.3c-1.1,0-2.1,0.3-3.1,1c-1,0.7-1.9,1.5-2.7,2.4V130h-1.1v-15.8h1.1v3c0.3-0.4,0.7-0.8,1.2-1.2
			c0.4-0.4,0.9-0.7,1.4-1c0.5-0.3,1-0.6,1.6-0.7c0.6-0.2,1.2-0.3,1.8-0.3c1,0,1.9,0.3,2.7,0.9c0.8,0.6,1.3,1.5,1.6,2.7
			c0.7-1,1.6-1.8,2.7-2.5c1.1-0.7,2.2-1.1,3.5-1.1c0.6,0,1.2,0.1,1.7,0.3c0.5,0.2,1,0.5,1.4,1c0.4,0.4,0.8,1,1,1.7
			c0.2,0.7,0.4,1.5,0.4,2.4V130L219.7,130L219.7,130z M233.9,125.7c0,0.6-0.1,1.1-0.3,1.6c-0.2,0.5-0.5,1-1,1.4
			c-0.4,0.4-0.9,0.7-1.5,0.9c-0.6,0.2-1.2,0.4-2,0.4c-1,0-1.9-0.2-2.8-0.5c-0.9-0.3-1.7-0.8-2.5-1.3l0.6-0.9
			c0.7,0.5,1.4,0.9,2.2,1.2c0.8,0.3,1.6,0.5,2.5,0.5c1.1,0,2-0.3,2.7-0.9c0.7-0.6,1-1.3,1-2.2c0-0.7-0.2-1.3-0.6-1.8
			c-0.4-0.4-0.9-0.8-1.5-1.1c-0.6-0.3-1.2-0.6-1.9-0.8c-0.7-0.2-1.3-0.5-1.9-0.9c-0.6-0.3-1.1-0.8-1.5-1.3c-0.4-0.5-0.6-1.2-0.6-2.1
			c0-0.5,0.1-1,0.3-1.5c0.2-0.5,0.5-0.9,0.9-1.3c0.4-0.4,0.9-0.7,1.4-0.9c0.6-0.2,1.2-0.3,2-0.3c0.8,0,1.6,0.1,2.3,0.4
			c0.7,0.2,1.4,0.6,2.1,1.1l-0.6,0.9c-0.7-0.5-1.3-0.9-1.9-1.1c-0.6-0.2-1.3-0.3-2-0.3c-1.2,0-2.1,0.3-2.6,0.9
			c-0.6,0.6-0.9,1.2-0.9,2c0,0.7,0.2,1.3,0.6,1.8c0.4,0.4,0.9,0.8,1.5,1.1c0.6,0.3,1.2,0.6,1.9,0.8c0.7,0.2,1.3,0.5,1.9,0.9
			c0.6,0.3,1.1,0.8,1.5,1.3C233.7,124.1,233.9,124.8,233.9,125.7L233.9,125.7z"/>
	</g>
</g>
</svg>
