<?xml version="1.0" encoding="utf-8"?>
<!-- Generator: Adobe Illustrator 25.0.0, SVG Export Plug-In . SVG Version: 6.00 Build 0)  -->
<svg version="1.1" id="Ebene_1" xmlns="http://www.w3.org/2000/svg" xmlns:xlink="http://www.w3.org/1999/xlink" x="0px" y="0px"
	 viewBox="0 0 71.4 100" style="enable-background:new 0 0 71.4 100;" xml:space="preserve">
<g>
	<path style="fill:#2062AF;" d="M64.7,92.2l-29,7.8l-29-7.8L0,19.7h71.4L64.7,92.2z"/>
	<path style="fill:#3C9CD7;" d="M35.7,25.6v68.2l0.1,0l23.5-6.3l5.4-61.9L35.7,25.6L35.7,25.6z"/>
	<path d="M19.2,9V4.7h6.3V0h-11v13.3h11V9H19.2z M36.9,4.7h4.4V0h-11v4.7c1.5,1.5,2.2,2.2,4.4,4.3c-1.2,0-4.4,0-4.4,0v4.3h11V9
		L36.9,4.7L36.9,4.7z M52.5,4.7h4.4V0h-11v4.7c1.5,1.5,2.2,2.2,4.4,4.3c-1.2,0-4.4,0-4.4,0v4.3h11V9L52.5,4.7L52.5,4.7z"/>
	<path style="fill:#FFFFFF;" d="M35.7,43.7l-20.8,8.6l0.7,8.6l20.1-8.6L57,43.2l0.9-8.8L35.7,43.7L35.7,43.7z"/>
	
		<linearGradient id="SVGID_1_" gradientUnits="userSpaceOnUse" x1="-181.7217" y1="-2353.4229" x2="-181.7217" y2="-2357.1292" gradientTransform="matrix(4.6418 0 0 4.6418 868.8052 10985.0166)">
		<stop  offset="0.387" style="stop-color:#D1D3D4;stop-opacity:0"/>
		<stop  offset="1" style="stop-color:#D1D3D4"/>
	</linearGradient>
	<path style="fill:url(#SVGID_1_);" d="M14.9,52.3l0.7,8.6l20.1-8.6v-8.6L14.9,52.3z"/>
	
		<linearGradient id="SVGID_2_" gradientUnits="userSpaceOnUse" x1="-177.091" y1="-2355.2715" x2="-177.091" y2="-2359.124" gradientTransform="matrix(4.6418 0 0 4.6418 868.8052 10985.0166)">
		<stop  offset="0.387" style="stop-color:#D1D3D4;stop-opacity:0"/>
		<stop  offset="1" style="stop-color:#D1D3D4"/>
	</linearGradient>
	<path style="fill:url(#SVGID_2_);" d="M57.9,34.4l-22.2,9.3v8.6L57,43.2L57.9,34.4z"/>
	
		<linearGradient id="SVGID_3_" gradientUnits="userSpaceOnUse" x1="-183.9507" y1="-2351.77" x2="-175.0493" y2="-2351.77" gradientTransform="matrix(4.6418 0 0 4.6418 868.8052 10985.0166)">
		<stop  offset="0" style="stop-color:#E8E7E5"/>
		<stop  offset="1" style="stop-color:#FFFFFF"/>
	</linearGradient>
	<path style="fill:url(#SVGID_3_);" d="M14.9,52.3l0.7,8.6L46.4,61l-0.7,11.4l-10.1,2.9l-9.7-2.5l-0.6-7.1h-9.1l1.2,13.7l18.3,5.4
		l18.2-5.3l2.4-27.2H14.9z"/>
	<path style="opacity:5.000000e-02;enable-background:new    ;" d="M35.7,52.3H14.9l0.7,8.6L35.7,61L35.7,52.3L35.7,52.3z
		 M35.7,75.2L35.7,75.2l-9.8-2.4l-0.6-7.1h-9.1l1.2,13.7l18.3,5.4V75.2z"/>
	
		<linearGradient id="SVGID_4_" gradientUnits="userSpaceOnUse" x1="-184.3603" y1="-2358.1809" x2="-174.6962" y2="-2358.1809" gradientTransform="matrix(4.6418 0 0 4.6418 868.8052 10985.0166)">
		<stop  offset="0" style="stop-color:#E8E7E5"/>
		<stop  offset="1" style="stop-color:#FFFFFF"/>
	</linearGradient>
	<path style="fill:url(#SVGID_4_);" d="M13,34.4h44.9L57,43.2H14.1L13,34.4L13,34.4z"/>
	<path style="opacity:5.000000e-02;enable-background:new    ;" d="M35.7,34.4H13l1.1,8.8h21.5L35.7,34.4L35.7,34.4z"/>
</g>
</svg>
