<?xml version="1.0" encoding="utf-8"?>
<!-- Generator: Adobe Illustrator 25.0.0, SVG Export Plug-In . SVG Version: 6.00 Build 0)  -->
<svg version="1.1" id="Ebene_1" xmlns="http://www.w3.org/2000/svg" xmlns:xlink="http://www.w3.org/1999/xlink" x="0px" y="0px"
	 viewBox="0 0 200 65" style="enable-background:new 0 0 200 65;" xml:space="preserve">
<g>
	<g>
		<polygon style="fill:#263355;" points="13.3,21.3 17.4,21.3 17.4,30 4.1,30 4.1,34.6 17.4,34.6 17.4,38.8 0,38.8 0,25.9 
			13.3,25.9 		"/>
	</g>
	<g>
		<polygon style="fill:#263355;" points="39.4,25.9 22,25.9 22,38.8 39.4,38.8 39.4,34.6 26.1,34.6 26.1,30 39.4,30 		"/>
	</g>
	<g>
		<polygon style="fill:#263355;" points="61.4,25.8 44,25.8 44,38.7 61.4,38.7 61.4,34.5 48.1,34.5 48.1,30 61.4,30 		"/>
	</g>
	<g>
		<polygon style="fill:#263355;" points="66,25.9 66,30 79.3,30 79.3,34.6 66,34.6 66,42.9 70.1,42.9 70.1,38.7 83.4,38.8 
			83.4,25.9 		"/>
	</g>
	<g>
		<polygon style="fill:#263355;" points="88,38.8 88,34.6 101.3,34.6 101.3,30 88,30 88,21.3 92.1,21.3 92.1,25.9 105.5,25.9 
			105.5,38.8 		"/>
	</g>
	<g>
		<rect x="110" y="21.3" style="fill:#263355;" width="4.1" height="17.4"/>
	</g>
	<g>
		<polygon style="fill:#263355;" points="158.1,25.9 140.7,25.9 140.7,38.8 158.1,38.8 158.1,34.6 144.8,34.6 144.8,30 158.1,30 		
			"/>
	</g>
	<g>
		<polygon style="fill:#263355;" points="118.7,25.9 122.8,25.9 122.8,34.6 132,34.6 132,25.9 136.2,25.9 136.2,38.8 118.7,38.8 		
			"/>
	</g>
	<g>
		<polygon style="fill:#263355;" points="176,38.8 180.1,38.8 180.1,32.8 184.8,38.8 188.8,38.8 188.8,25.9 184.7,25.9 184.7,31.9 
			180.1,25.9 176,25.9 		"/>
	</g>
	<g>
		<path style="fill:#263355;" d="M182.5,49.9c-9.7,0-17.5-7.9-17.5-17.5s7.9-17.5,17.5-17.5S200,22.7,200,32.3
			C200,42,192.1,49.9,182.5,49.9z M182.5,18.9c-7.4,0-13.4,6-13.4,13.4c0,7.4,6,13.4,13.4,13.4s13.4-6,13.4-13.4
			C195.8,24.9,189.8,18.9,182.5,18.9z"/>
	</g>
</g>
</svg>
