<?xml version="1.0" encoding="utf-8"?>
<!-- Generator: Adobe Illustrator 25.0.0, SVG Export Plug-In . SVG Version: 6.00 Build 0)  -->
<svg version="1.1" id="Ebene_1" xmlns="http://www.w3.org/2000/svg" xmlns:xlink="http://www.w3.org/1999/xlink" x="0px" y="0px"
	 viewBox="0 0 200 65" style="enable-background:new 0 0 200 65;" xml:space="preserve">
<g>
	<g>
		<g>
			<defs>
				<rect id="SVGID_1_" y="12" width="200" height="41"/>
			</defs>
			<clipPath id="SVGID_2_">
				<use xlink:href="#SVGID_1_"  style="overflow:visible;"/>
			</clipPath>
			<path style="clip-path:url(#SVGID_2_);fill:#008244;" d="M38,15.5h0.4c1.4,0,1.4,1.2,1.4,1.2v0.1c0,0.2-0.1,1.3-1.4,1.3H38v-1.3
				V15.5z M39.7,19.1c0,0,0.6-0.1,1.1-0.7c0.3-0.3,0.6-0.9,0.6-1.7l0,0c0,0,0.2-2.6-2.7-2.6h-2.3v2.6v1.7v4.2H38v-3.4l2.1,3.4h2
				L39.7,19.1z"/>
		</g>
	</g>
	<g>
		<g>
			<defs>
				<rect id="SVGID_3_" y="12" width="200" height="41"/>
			</defs>
			<clipPath id="SVGID_4_">
				<use xlink:href="#SVGID_3_"  style="overflow:visible;"/>
			</clipPath>
			<path style="clip-path:url(#SVGID_4_);fill:#008244;" d="M0.1,25.6v-2.5l8.6-5.1L4,15.3v4l-2.1,1.2v-7.7c0-0.7,0.4-0.9,1-0.7
				c0.6,0.3,5,2.9,6.7,3.9c1.8,1.1,1.7,3.2,0,4.1C7.9,21.1,0.1,25.6,0.1,25.6"/>
		</g>
	</g>
	<g>
		<g>
			<defs>
				<rect id="SVGID_5_" y="12" width="200" height="41"/>
			</defs>
			<clipPath id="SVGID_6_">
				<use xlink:href="#SVGID_5_"  style="overflow:visible;"/>
			</clipPath>
			<path style="clip-path:url(#SVGID_6_);fill:#008244;" d="M44.8,19.5l1.1-3.1l1.1,3.1H44.8z M44.9,14.9c-0.5,1.4-2.9,7.7-2.9,7.7
				h1.7l0.7-1.8h3l0.7,1.8h1.7c0,0-2.4-6.4-2.9-7.7S45.4,13.7,44.9,14.9"/>
		</g>
	</g>
	<g>
		<g>
			<defs>
				<rect id="SVGID_7_" y="12" width="200" height="41"/>
			</defs>
			<clipPath id="SVGID_8_">
				<use xlink:href="#SVGID_7_"  style="overflow:visible;"/>
			</clipPath>
			<path style="clip-path:url(#SVGID_8_);fill:#008244;" d="M17.4,21.2v-2.7v-1.7v-1.2c0,0,1.9-0.3,2.7,1.2c0.2,0.4,0.4,0.9,0.4,1.6
				v0.1C20.4,21.6,17.4,21.2,17.4,21.2 M22.2,18.4L22.2,18.4c0-0.2,0-0.9-0.3-1.7c-0.4-1.2-1.4-2.6-3.9-2.6h-2.3v2.6v1.7v4.2H18
				C22,22.7,22.2,19,22.2,18.4"/>
		</g>
	</g>
	<g>
		<g>
			<defs>
				<rect id="SVGID_9_" y="12" width="200" height="41"/>
			</defs>
			<clipPath id="SVGID_10_">
				<use xlink:href="#SVGID_9_"  style="overflow:visible;"/>
			</clipPath>
			<path style="clip-path:url(#SVGID_10_);" d="M182.7,45.7c0.3,0.6,0.8,1,1.3,1.4c0.5,0.3,1.1,0.7,1.8,0.8c0.7,0.2,1.4,0.3,2.1,0.3
				c0.5,0,1.1-0.1,1.6-0.2c0.6-0.1,1.1-0.3,1.6-0.6c0.4-0.3,0.8-0.6,1.2-1c0.3-0.4,0.4-0.9,0.4-1.6c0-1.1-0.7-1.9-2.2-2.5
				c-1.4-0.6-3.5-1.1-6.1-1.7c-1.1-0.2-2.1-0.5-3.1-0.8c-1-0.3-1.9-0.8-2.7-1.3c-0.8-0.5-1.4-1.2-1.9-2c-0.4-0.8-0.7-1.8-0.7-3
				c0-1.7,0.3-3.1,1-4.2c0.7-1.1,1.6-1.9,2.7-2.6s2.3-1.1,3.7-1.3c1.4-0.3,2.8-0.4,4.2-0.4s2.8,0.2,4.2,0.4c1.4,0.3,2.6,0.7,3.7,1.4
				c1.1,0.7,1.9,1.5,2.7,2.6c0.7,1.1,1.2,2.4,1.3,4.1h-7c-0.1-1.4-0.7-2.4-1.6-2.9s-2.1-0.8-3.4-0.8c-0.4,0-0.8,0.1-1.3,0.1
				c-0.4,0.1-0.9,0.2-1.3,0.3c-0.4,0.2-0.7,0.4-1,0.8c-0.3,0.3-0.4,0.8-0.4,1.3c0,0.7,0.2,1.2,0.7,1.6c0.4,0.4,1.1,0.8,1.9,1
				c0.8,0.3,1.7,0.5,2.7,0.7c1,0.2,2,0.4,3.1,0.7c1.1,0.2,2.1,0.5,3.1,0.9c1,0.4,1.9,0.8,2.7,1.4c0.8,0.6,1.4,1.3,1.9,2.1
				c0.4,0.8,0.7,1.9,0.7,3.1c0,1.8-0.3,3.2-1.1,4.4c-0.7,1.2-1.6,2.1-2.8,2.9c-1.2,0.7-2.4,1.2-3.9,1.5c-1.4,0.3-2.9,0.4-4.4,0.4
				c-1.6,0-3.1-0.2-4.6-0.4c-1.5-0.3-2.8-0.8-3.9-1.6c-1.2-0.7-2.1-1.7-2.8-2.9c-0.7-1.2-1.2-2.7-1.2-4.4h6.9
				C182.2,44.4,182.4,45.1,182.7,45.7 M156.3,25.6v3.7h0.2c0.9-1.6,2.1-2.7,3.6-3.4c1.5-0.7,3-1.1,4.6-1.1c1.9,0,3.6,0.3,4.8,0.8
				c1.3,0.5,2.3,1.3,3,2.2c0.7,0.9,1.2,2.1,1.5,3.4c0.3,1.4,0.4,2.9,0.4,4.6v16.4h-7.3V37.2c0-2.2-0.3-3.8-1-4.9
				c-0.7-1.1-1.9-1.6-3.7-1.6c-2,0-3.4,0.6-4.3,1.8c-0.9,1.2-1.3,3.1-1.3,5.8v14h-7.3V25.6C149.4,25.6,156.3,25.6,156.3,25.6z
				 M121,33.2c0.7-1.7,1.6-3.2,2.8-4.4c1.2-1.2,2.7-2.2,4.3-2.8c1.7-0.7,3.6-1,5.7-1c2.1,0,4,0.3,5.7,1c1.7,0.7,3.2,1.6,4.3,2.8
				c1.2,1.2,2.1,2.7,2.8,4.4c0.7,1.7,1,3.7,1,5.8c0,2.2-0.3,4.1-1,5.8c-0.7,1.7-1.6,3.2-2.8,4.4c-1.2,1.2-2.7,2.2-4.3,2.8
				c-1.7,0.7-3.6,1-5.7,1s-4-0.3-5.7-1c-1.7-0.7-3.1-1.6-4.3-2.8c-1.2-1.2-2.1-2.7-2.8-4.4s-1-3.7-1-5.8
				C120.1,36.8,120.3,34.9,121,33.2 M127.7,42.1c0.2,1,0.6,1.9,1.1,2.7c0.5,0.8,1.2,1.4,2,1.9c0.8,0.5,1.9,0.7,3.1,0.7
				s2.3-0.2,3.1-0.7c0.8-0.4,1.5-1.2,2-1.9c0.5-0.8,0.8-1.7,1.1-2.7c0.2-1,0.3-2.1,0.3-3.1c0-1.1-0.1-2.1-0.3-3.2
				c-0.2-1-0.6-1.9-1.1-2.7s-1.2-1.4-2-1.9c-0.8-0.5-1.9-0.8-3.1-0.8s-2.3,0.3-3.1,0.8c-0.8,0.5-1.5,1.2-2,1.9
				c-0.5,0.8-0.8,1.7-1.1,2.7c-0.2,1-0.3,2.1-0.3,3.2C127.3,40.1,127.4,41.1,127.7,42.1 M118.2,52.3h-7.3V25.7h7.3V52.3z
				 M110.8,13.9h7.3V20h-7.3V13.9z M108.4,25.6v4.9H103v13.2c0,1.2,0.2,2.1,0.6,2.5c0.4,0.4,1.2,0.6,2.5,0.6c0.4,0,0.8-0.1,1.2-0.1
				c0.4-0.1,0.7-0.1,1.1-0.2v5.7c-0.6,0.1-1.3,0.2-2.1,0.2c-0.7,0.1-1.5,0.1-2.2,0.1c-1.2,0-2.2-0.1-3.2-0.2c-1-0.2-1.9-0.4-2.7-0.9
				c-0.8-0.4-1.4-1.1-1.8-1.9c-0.4-0.8-0.7-1.9-0.7-3.2V30.6h-4.4v-4.9h4.4v-8.3h7.3v8.2L108.4,25.6L108.4,25.6z M82.7,52.3v-3.7
				h-0.2c-0.9,1.6-2.1,2.7-3.6,3.3c-1.5,0.7-3,1-4.6,1c-1.9,0-3.6-0.3-4.8-0.8c-1.3-0.5-2.3-1.3-3-2.2c-0.7-0.9-1.2-2.1-1.5-3.4
				c-0.3-1.4-0.4-2.9-0.4-4.6V25.6h7.3v15.1c0,2.2,0.3,3.8,1,4.9c0.7,1.1,1.9,1.6,3.7,1.6c2,0,3.4-0.6,4.3-1.8
				c0.9-1.2,1.3-3.1,1.3-5.8v-14h7.3v26.7L82.7,52.3L82.7,52.3z M61.9,52.3h-7.3V13.9h7.3C61.9,13.9,61.9,52.3,61.9,52.3z
				 M26.6,33.2c0.7-1.7,1.6-3.2,2.8-4.4c1.2-1.2,2.7-2.2,4.3-2.8c1.7-0.7,3.6-1,5.7-1c2.1,0,4,0.3,5.7,1c1.7,0.7,3.2,1.6,4.3,2.8
				c1.2,1.2,2.1,2.7,2.8,4.4c0.7,1.7,1,3.7,1,5.8c0,2.2-0.3,4-1,5.7s-1.6,3.2-2.8,4.4c-1.2,1.2-2.7,2.2-4.3,2.8
				c-1.7,0.7-3.6,1-5.7,1s-4-0.3-5.7-1c-1.7-0.7-3.1-1.6-4.3-2.8c-1.2-1.2-2.1-2.7-2.8-4.4c-0.7-1.7-1-3.7-1-5.8
				C25.6,36.8,25.9,34.9,26.6,33.2 M33.3,42.1c0.2,1,0.6,1.9,1.1,2.7c0.5,0.8,1.2,1.4,2,1.9c0.8,0.5,1.9,0.7,3.1,0.7
				c1.2,0,2.3-0.2,3.1-0.7c0.8-0.4,1.5-1.2,2-1.9c0.5-0.8,0.8-1.7,1.1-2.7c0.2-1,0.3-2.1,0.3-3.1c0-1.1-0.1-2.1-0.3-3.2
				c-0.2-1.1-0.6-1.9-1.1-2.7s-1.2-1.4-2-1.9c-0.8-0.5-1.9-0.8-3.1-0.8c-1.2,0-2.3,0.3-3.1,0.8c-0.8,0.5-1.5,1.2-2,1.9
				c-0.5,0.8-0.8,1.7-1.1,2.7s-0.3,2.1-0.3,3.2C32.9,40.1,33.1,41.1,33.3,42.1 M7.4,45.7c0.3,0.6,0.8,1,1.3,1.4
				c0.5,0.3,1.1,0.7,1.8,0.8c0.7,0.2,1.4,0.3,2.1,0.3c0.5,0,1.1-0.1,1.6-0.2c0.6-0.1,1.1-0.3,1.6-0.6c0.4-0.3,0.8-0.6,1.2-1
				c0.3-0.4,0.4-0.9,0.4-1.6c0-1.1-0.7-1.9-2.2-2.5s-3.5-1.1-6.1-1.7C8.1,40.4,7,40.1,6,39.8c-1-0.3-1.9-0.8-2.7-1.3
				c-0.8-0.5-1.4-1.2-1.9-2s-0.7-1.8-0.7-3c0-1.7,0.3-3.1,1-4.2c0.7-1.1,1.6-1.9,2.7-2.6s2.3-1.1,3.7-1.3c1.4-0.3,2.8-0.4,4.2-0.4
				s2.8,0.2,4.2,0.4c1.4,0.3,2.6,0.7,3.7,1.4c1.1,0.7,1.9,1.5,2.7,2.6c0.7,1.1,1.2,2.4,1.3,4.1h-7.1c-0.1-1.4-0.7-2.4-1.6-2.9
				s-2.1-0.8-3.4-0.8c-0.4,0-0.8,0.1-1.3,0.1c-0.5,0.1-0.9,0.2-1.3,0.3c-0.4,0.2-0.7,0.4-1,0.8c-0.3,0.3-0.4,0.8-0.4,1.3
				c0,0.7,0.2,1.2,0.7,1.6c0.4,0.4,1.1,0.8,1.9,1c0.8,0.3,1.7,0.5,2.7,0.7c1,0.2,2,0.4,3.1,0.7c1.1,0.2,2.1,0.5,3.1,0.9
				s1.9,0.8,2.7,1.4c0.8,0.6,1.4,1.3,1.9,2.1s0.7,1.9,0.7,3.1c0,1.8-0.3,3.2-1.1,4.4c-0.7,1.2-1.6,2.1-2.8,2.9
				c-1.2,0.7-2.4,1.2-3.9,1.5c-1.4,0.3-2.9,0.4-4.4,0.4c-1.6,0-3.1-0.2-4.6-0.4c-1.5-0.3-2.8-0.8-3.9-1.6c-1.2-0.7-2.1-1.7-2.8-2.9
				c-0.7-1.2-1.2-2.7-1.2-4.4h6.9C6.9,44.4,7.1,45.1,7.4,45.7"/>
		</g>
	</g>
	<polygon style="fill:#008244;" points="24.9,15.6 27.6,15.6 27.6,14.2 23.2,14.2 23.2,16.8 23.2,18.4 23.2,22.7 27.6,22.7 
		27.6,21.2 24.9,21.2 24.9,18.9 27.5,18.9 27.5,18.4 27.5,17.5 24.9,17.5 24.9,16.8 	"/>
	<polygon style="fill:#008244;" points="32.4,18.4 32.2,18.1 33.2,16.8 35.4,14.2 33.3,14.2 31.3,16.8 30.7,17.7 30.7,16.8 
		30.7,14.2 29,14.2 29,16.8 29,18.4 29,22.7 30.7,22.7 30.7,18.9 33.4,22.7 35.6,22.7 	"/>
</g>
</svg>
