<?xml version="1.0" encoding="utf-8"?>
<!-- Generator: Adobe Illustrator 25.0.0, SVG Export Plug-In . SVG Version: 6.00 Build 0)  -->
<svg version="1.1" id="Ebene_1" xmlns="http://www.w3.org/2000/svg" xmlns:xlink="http://www.w3.org/1999/xlink" x="0px" y="0px"
	 viewBox="0 0 200 65" style="enable-background:new 0 0 200 65;" xml:space="preserve">
<g>
	<g>
		<path style="fill:#004A99;" d="M59,27.3c-0.6,0-1.2,0-1.7,0.1v9.7c0.4,0.1,0.9,0.1,1.5,0.1c2.7,0,4.6-1.6,4.6-5
			C63.4,29.1,62.3,27.3,59,27.3 M58.6,39.5c-1.5,0-2.7-0.1-4-0.1V25c1.1-0.1,2.8-0.1,4.6-0.1c4.4,0,7.2,2,7.2,7
			C66.4,36.9,63.2,39.5,58.6,39.5"/>
		<path style="fill:#004A99;" d="M72.7,30.6c-1.1,0-1.9,0.8-2.1,2.1h3.9C74.5,31.4,73.9,30.6,72.7,30.6 M77.1,34.6h-6.5
			c0,2,0.9,3,2.9,3c1,0,2.1-0.2,3.1-0.7l0.3,2.1c-1.1,0.4-2.5,0.7-3.7,0.7c-3.4,0-5.2-1.7-5.2-5.4c0-3.2,1.8-5.6,4.9-5.6
			c3.1,0,4.4,2.1,4.4,4.7C77.2,33.7,77.2,34.1,77.1,34.6"/>
		<path style="fill:#004A99;" d="M86,39.5c0-0.5,0-1.3,0.1-1.9l0,0c-0.6,1.3-1.8,2.1-3.6,2.1c-2.3,0-3.1-1.6-3.1-3.4v-7.4h2.7v6.8
			c0,1.1,0.3,1.8,1.3,1.8c1.4,0,2.4-1.6,2.4-3.5v-5.1h2.7v10.6C88.5,39.5,86,39.5,86,39.5z"/>
		<path style="fill:#004A99;" d="M95,39.7c-2.3,0-3-0.8-3-3.4V31h-1.8v-2.1H92v-3.2l2.7-0.7v4h2.6V31h-2.6v4.6
			c0,1.3,0.3,1.7,1.2,1.7c0.4,0,0.9-0.1,1.3-0.2v2.2C96.5,39.6,95.7,39.7,95,39.7"/>
		<path style="fill:#004A99;" d="M101.2,39.7c-0.8,0-1.5-0.1-2.2-0.2l0.1-2.2c0.7,0.2,1.5,0.3,2.2,0.3c1,0,1.7-0.4,1.7-1.1
			c0-1.9-4.2-0.8-4.2-4.4c0-1.8,1.5-3.4,4.5-3.4c0.6,0,1.3,0.1,1.9,0.2l-0.1,2.2c-0.6-0.2-1.3-0.3-2-0.3c-1.1,0-1.6,0.4-1.6,1.1
			c0,1.7,4.3,0.9,4.3,4.4C105.8,38.2,104,39.7,101.2,39.7"/>
		<path style="fill:#004A99;" d="M112.1,39.6c-2.9,0-4.7-1.6-4.7-5.1c0-3.3,1.7-5.9,5.4-5.9c0.7,0,1.5,0.1,2.1,0.3l-0.3,2.3
			c-0.6-0.2-1.2-0.4-1.9-0.4c-1.7,0-2.6,1.3-2.6,3.3c0,1.8,0.7,3.1,2.5,3.1c0.7,0,1.5-0.2,2.1-0.4l0.2,2.3
			C114.2,39.5,113.2,39.6,112.1,39.6"/>
		<path style="fill:#004A99;" d="M123.5,39.5v-6.8c0-1.1-0.3-1.8-1.3-1.8c-1.3,0-2.5,1.6-2.5,3.5v5.1h-2.7V23.9h2.7v4.5
			c0,0.6-0.1,1.6-0.2,2.2h0.1c0.6-1.2,1.8-2,3.4-2c2.3,0,3.1,1.6,3.1,3.4v7.4L123.5,39.5L123.5,39.5z"/>
		<path style="fill:#004A99;" d="M133.2,30.6c-1.1,0-1.9,0.8-2.1,2.1h3.9C135,31.4,134.3,30.6,133.2,30.6 M137.6,34.6h-6.5
			c0,2,0.9,3,2.9,3c1,0,2.1-0.2,3.1-0.7l0.3,2.1c-1.1,0.4-2.5,0.7-3.7,0.7c-3.4,0-5.2-1.7-5.2-5.4c0-3.2,1.8-5.6,4.9-5.6
			c3.1,0,4.4,2.1,4.4,4.7C137.6,33.7,137.6,34.1,137.6,34.6"/>
		<path style="fill:#004A99;" d="M158.1,39.5l-1-6.9c-0.2-1.4-0.3-2.5-0.4-3.5h-0.1c-0.2,0.9-0.4,2-0.8,3.1l-2.2,7.3h-2.7l-2.2-6.7
			c-0.4-1.2-0.7-2.5-0.9-3.6h-0.1c-0.1,1.3-0.2,2.4-0.4,3.7l-0.8,6.6h-2.8l2.2-14.4h3.2l2.4,7.4c0.3,1,0.6,2,0.8,3h0.1
			c0.2-1.1,0.4-1.9,0.8-3l2.5-7.4h3.2l2.2,14.4L158.1,39.5L158.1,39.5z"/>
		<path style="fill:#004A99;" d="M167.1,30.6c-1.1,0-1.9,0.8-2,2.1h3.9C169,31.4,168.3,30.6,167.1,30.6 M171.5,34.6H165
			c0,2,0.9,3,2.9,3c1,0,2.1-0.2,3.1-0.7l0.3,2.1c-1.1,0.4-2.5,0.7-3.7,0.7c-3.4,0-5.2-1.7-5.2-5.4c0-3.2,1.8-5.6,4.9-5.6
			c3.1,0,4.4,2.1,4.4,4.7C171.6,33.7,171.6,34.1,171.5,34.6"/>
		<path style="fill:#004A99;" d="M175.7,39.7c-0.8,0-1.5-0.1-2.2-0.2l0.1-2.2c0.7,0.2,1.5,0.3,2.2,0.3c1.1,0,1.7-0.4,1.7-1.1
			c0-1.9-4.2-0.8-4.2-4.4c0-1.8,1.5-3.4,4.5-3.4c0.6,0,1.3,0.1,1.9,0.2l-0.1,2.2c-0.6-0.2-1.3-0.3-2-0.3c-1.1,0-1.6,0.4-1.6,1.1
			c0,1.7,4.3,0.9,4.3,4.4C180.3,38.2,178.6,39.7,175.7,39.7"/>
		<path style="fill:#004A99;" d="M184.5,39.7c-0.8,0-1.5-0.1-2.2-0.2l0.1-2.2c0.7,0.2,1.5,0.3,2.2,0.3c1,0,1.7-0.4,1.7-1.1
			c0-1.9-4.2-0.8-4.2-4.4c0-1.8,1.5-3.4,4.4-3.4c0.6,0,1.3,0.1,1.9,0.2l-0.1,2.2c-0.6-0.2-1.3-0.3-2-0.3c-1.1,0-1.6,0.4-1.6,1.1
			c0,1.7,4.3,0.9,4.3,4.4C189.1,38.2,187.3,39.7,184.5,39.7"/>
		<path style="fill:#004A99;" d="M195.5,30.6c-1.1,0-1.9,0.8-2.1,2.1h3.9C197.4,31.4,196.6,30.6,195.5,30.6 M199.9,34.6h-6.5
			c0,2,0.9,3,2.9,3c1,0,2.1-0.2,3.1-0.7l0.2,2.1c-1.1,0.4-2.5,0.7-3.7,0.7c-3.4,0-5.2-1.7-5.2-5.4c0-3.2,1.8-5.6,4.9-5.6
			c3.1,0,4.4,2.1,4.4,4.7C200,33.7,200,34.1,199.9,34.6"/>
		<path style="fill:#004A99;" d="M36,20.4c0,0-0.7,0.1-1.4,0c-3.5-0.6-6.8-3.2-11.4-3.2c-3,0-7.9,1.8-8.4,7.8h4.5
			c0.8,0,1.1-0.3,1-0.7c-0.1-2.5,1.2-3.7,2.6-4c1.1-0.2,2.2-0.1,4,0.3c2.2,0.4,4.9,1.3,9.1,0.9v0.5c0,0-1,0.4-1.8,0.7
			c-1.6,0.5-4.4,1-9.4,0.4c-0.9-0.1-2.1,0.2-2.2,1.1c-0.2,0.8,0.1,1.8,0.4,3h-8.3l-0.3,5h2.5v2.6c0,0,3.2,0.8,3.2,3.5
			c0,2.9-3.1,3.5-3.1,3.5v2.7c2.2,0.3,4.6,0.1,6.2-0.8v6.4h-2.5v-3.4c-1.5,0.4-4.1,0.3-6.2-0.3v-6.3c0,0,3.1-0.3,3.1-1.8
			c0-1.4-2.2-1.7-3.1-2v-2h-2.7l0.5-7.3H9.9v-2.3h2.5c0.4-7.8,6.9-10.1,10.8-10.1c4.9,0,9.4,2.6,10.7,3S36,18,36,18S36,20.4,36,20.4
			z M43.2,10.9H0v43.2h43.2L43.2,10.9L43.2,10.9z"/>
	</g>
</g>
</svg>
