<?xml version="1.0" encoding="utf-8"?>
<!-- Generator: Adobe Illustrator 25.0.0, SVG Export Plug-In . SVG Version: 6.00 Build 0)  -->
<svg version="1.1" id="Ebene_1" xmlns="http://www.w3.org/2000/svg" xmlns:xlink="http://www.w3.org/1999/xlink" x="0px" y="0px"
	 viewBox="0 0 70 100" style="enable-background:new 0 0 70 100;" xml:space="preserve">
<g>
	<path style="fill:#1A4658;" d="M68.7,95.9c0,2.3-15.1,4.1-33.7,4.1c-18.6,0-33.7-1.8-33.7-4.1c0-2.3,17.7-4.1,33.7-4.1
		C54.1,91.8,68.7,93.6,68.7,95.9"/>
	<path style="fill:#EDF7FA;" d="M66.6,66.4c-1,0-2.2-0.5-3-4.2c-0.8-3.7-2-7.5-2-7.5c1.3,0,2-0.6,2-0.6c-0.9-0.4-2.8-1.8-4.1-3.5
		C58.3,49,55,46.3,55,46.3v-5.5c0-3.7,2.4-6.6,2.4-6.6c-1.6,0-2.4,1.4-2.4,1.4v-7.8c0-7.7,3.9-11.2,3.9-11.2c-1.2-0.1-2,0.5-2,0.5
		c0.6-5.7,2.3-7.4,2.3-7.4c-6.4-1.7-10,2.1-10,2.1c-0.7-3.5,2.1-5.5,2.1-5.5c-3.3-0.7-6,0.2-6,0.2c0-5.1,2-6.7,2-6.7
		c-10,0-15.7,7.5-15.7,7.5c-0.4-3.2,0.5-6,0.5-6c-9.7,4.1-12.3,13.2-12.3,13.2c-0.6-1.5-0.7-5-0.7-5s-4,6.7-4.7,11.4
		c-0.7,4.7,0.6,18,0.6,18s-0.6-0.8-2-1c0,0,1.4,1.6,1.4,5.2c0,0-0.6-0.5-1.5-0.2c0,0,1.5,1.4,1.7,3.7c0,0-1.8,1.2-2.7,2.4
		c0,0-1.5,0.1-2.3,0.3c0,0,1.3,0.7,1.5,1.4c0,0-3.8,3.9-5.7,7c0,0,1.7-1,2.9-0.7c0,0-2.6,3.2-3.5,8.5c0,0,1.3-0.6,1.8-0.3
		c0,0-1.6,3.4-1.7,6.9l-1.8,1l1.4,1c0,0-1,4.3-1.3,6.8c0,0,0.8-0.8,1.4-1c0,0,0.9,2.1,2.1,3.7c1.2,1.6,3.9,3,5.5,3l3-0.1
		c-0.4,1.6-1.1,3-2.7,3.1l-0.2,0.3c0,0-0.1,0-0.1,0c0,0.5-1,0.6-1.2,0.9c-0.8,1-1.4,2.4-1.8,3.6c-0.3,0.9-0.2,0.9-0.4,1.8
		c-0.1,0.3-0.4,0.6-0.5,0.9c0.9-0.3,3.3-0.5,4.5-0.6l0,1.1c0,0,0.2,0.2,0.6,0.3c0,0,0,0,0,0c0.1,0,0.2,0,0.3,0.1
		c1.9-0.2,3.2,0.2,5.4,0c0.4-0.1,0.8-0.1,1.2-0.3c0.1-0.3,0.1-0.3,0.2-0.7c0-0.1,0-0.1,0-0.2c0,0,0.1,0,0.1,0c0,0,0.1,0,0.1,0
		c0,0,0,0,0,0l0.1,0c0,0,0,0,0.1,0c0.4,0,1-0.1,1.4-0.1c1.3,0,3,0.1,3,0.1c0.1-1.5,0.2-3.7,2.6-10.3l0.6-0.4c0,0,7.2,2.5,13.9-0.1
		c0.5,1.3,2.2,5.7,2.5,8.4c0.2,0.3,0.2,0.7,0.2,1.2c0,0.4,0,0.7,0,1.1c0.2,0,1.1-0.1,2.2-0.1c0.4,0,1,0.1,1.4,0.1c0,0,0,0,0.1,0
		l0.1,0c0,0,0,0,0,0c0,0,0.1,0,0.1,0c0,0,0.1,0,0.1,0c0,0.1,0,0.2,0,0.2c0.1,0.4,0.1,0.4,0.2,0.7c0,0,0.1,0,0.1,0.1
		c1.2-0.2,2.4-0.2,3.6-0.1c0.9,0,1.9,0.2,2.8,0.4c0,0,0,0,0,0c0.1,0,0.2,0,0.3,0c0.5,0.1,1,0.2,1.5,0.2c0-0.6,0-1.2,0-1.7
		c1,0,2.5,0.2,3.1,0.3c0.2,0.1,0.4,0.1,0.6,0.1c0,0,0.1,0,0.1,0l0,0c0.2,0,0.4,0.1,0.7,0.2c0-0.5,0-0.5-0.1-1.2
		c-0.1-0.5-0.4-2.1-1.1-2.8c0,0,0.8,0.3,1,0.5c-0.8-1-1.1-2.5-3.5-3.5c0,0,0.4-0.2,0.8-0.3c-0.4-0.3-0.7-0.4-1.2-0.3
		c0.1-0.4,0.8-1.4,1.3-1.6c0,0-0.3-0.2-0.9-0.1c-0.2,0.1-0.4,0.2-0.6,0.3c-0.1,0-0.2,0-0.2-0.1c-0.2-0.6-0.3-1.2-0.4-1.9
		c4.8-0.2,5.5-2.6,5.5-2.6c0.4,0.3,0.4,1,0.4,1c2.1-2.7,1.8-5.5,1.8-5.5c0.5,0.1,0.9,0.4,0.9,0.4c0.2-4.2-1-11.3-1-11.3
		c0.6,0.3,1-0.1,1-0.1c-0.7-0.3-0.8-1.1-0.8-1.1C66.5,67.3,66.6,66.4,66.6,66.4"/>
	<path style="fill:#CDE9EE;" d="M20.7,96.7c0,0,0.2-2-0.5-3.5c0,0,1.3,0.1,1.5,3.4C21.7,96.6,20.8,96.7,20.7,96.7 M14.4,89.8
		L14.4,89.8C14.4,89.8,14.4,89.8,14.4,89.8 M15.6,96.5L15.6,96.5L15.6,96.5L15.6,96.5"/>
	<path style="fill:#CDE9EE;" d="M31.5,7.5c-0.4-3.2,0.5-6,0.5-6c-9.7,4.1-12.3,13.2-12.3,13.2c-0.6-1.5-0.7-5-0.7-5s-4,6.7-4.7,11.4
		c-0.7,4.7,0.6,18,0.6,18s-0.6-0.8-2-1c0,0,1.4,1.6,1.4,5.2c0,0-0.6-0.5-1.5-0.2c0,0,1.5,1.4,1.7,3.7c0,0-1.8,1.2-2.7,2.4
		c0,0-1.5,0.1-2.3,0.3c0,0,1.3,0.7,1.5,1.4c0,0-3.8,3.9-5.7,7c0,0,1.7-1,2.9-0.7c0,0-2.6,3.2-3.5,8.5c0,0,1.3-0.6,1.8-0.3
		c0,0-1.6,3.4-1.7,6.9l-1.8,1l1.4,1c0,0-1,4.3-1.3,6.8c0,0,0.8-0.8,1.4-1c0,0,0.9,2.1,2.1,3.7c1.2,1.6,3.9,3,5.5,3l0.2,0
		c-0.1,0.6-0.2,1.1-0.3,1.6c0,0.1-0.1,0.1-0.2,0.1c-0.2-0.1-0.4-0.2-0.6-0.3c-0.5-0.2-0.9,0.1-0.9,0.1c0.5,0.1,1.2,1.2,1.3,1.6
		c-0.4,0-0.7,0.1-1.2,0.3c0.4,0.1,0.8,0.3,0.8,0.3c-2.4,1-2.8,2.5-3.5,3.5c0.2-0.1,1-0.5,1-0.5c-0.7,0.7-1.1,2.3-1.1,2.8
		c-0.1,0.7-0.1,0.7-0.1,1.2c0.6-0.2,0.9-0.2,1.5-0.4c0.8-0.1,3-0.4,3.8-0.3l-0.1,1.6l0,0C13.3,98,13.6,98,14,98c0-0.4,0-0.9,0.1-1.3
		c0-0.7,0.1-1.4,0.2-2.1c0,0,0-0.1,0-0.1c0.3-1,0.8-1.6,1.1-1.9c0.1-0.1,0.2-0.3,0.3-0.4c0.2-0.3,0.4-0.7,0.6-1
		c0.3-0.9,0.2-2.9-0.5-4.8c0.7,1,1.3,1.9,1.6,2.2l0-2.5c0,0,1.3,1.3,2.4,2.3c0.6,0.5,1.2,1.1,1.7,1.4c0,0,0.1-0.2,0.1,0.1h0
		c0,0,0-0.1,0-0.1c0.7,0.4,1.3,0.7,1.9,1.1c0.1,0,0.1,0.1,0.2,0.1c0.3,0.2,0.8,0.4,1.3,0.7l0.4,5.1c0.4-5.4,3.5-10.5,3.5-10.5
		l-0.1,0c-0.9-0.3-7.9-2.7-12-11.3c-0.3-0.6,1.5,0.6,1.5,0.6c-1.7-4.1-2.3-10.7-2.3-10.7c0.6,0.5,1.1,0.6,1.1,0.6
		C16,62,15.5,57.8,15.5,54c-0.3-20.3,7.2-25,7.2-25c-1.3-0.5-2.6-0.4-2.6-0.4c1.5-3.6,6.4-8.5,6.4-8.5c-1.3,0.1-6.5,1.5-6.5,1.5
		c4.3-11.2,8.6-14.2,8.6-14.2c-0.3,2.7,0.7,5.5,0.7,5.5c9.3-11.5,16.8-11,16.8-11C46.6,0.8,47.3,0,47.3,0C37.2,0,31.5,7.5,31.5,7.5
		 M57.9,96.6c0,0-0.1-2.9-0.8-4.4c0,0,1.7,1.1,1.7,4.4C58.8,96.6,58,96.6,57.9,96.6"/>
	<path style="fill:#ABD8D7;" d="M13,81.6c1.1-11.1,1.4-32.9,1.4-32.9C11.9,53.6,10,62.4,10,62.4l0.5,1.9l-1.1-0.5
		c-1.7,6-0.6,14.1-0.2,16.4C10.3,81.2,11.6,81.5,13,81.6 M10.6,81.4c0.3,1.8,0.7,3.5,1.1,5.3c0.3,0,0.6,0,0.6,0
		c0.3-1.1,0.3-2.7,0.5-4.8C12.2,81.8,11.4,81.7,10.6,81.4"/>
	<path style="fill:#CDE9EE;" d="M48.4,91c-0.1,0-0.1,0-0.1-0.1c-0.1,0-0.2,0-0.3,0.1l0,0c1.7-1.2,1.8-2.5,1.8-2.5
		c-1.1,0.5-2.3,0.7-2.8,0.7c3.8-3.3,4.5-9.5,4.5-9.5c-1.6,1.9-3.8,3.6-5.5,4.6l0,0c0,0-1.2,0.6-2.2,1.1c-0.1,0-0.1,0-0.1,0.1
		c-0.5,0.3-1.1,0.5-1.4,0.5c0,0,0.9,1.6,1.3,2.5l-0.1,0.1c0,0,1.3,3,1.7,6c0,0.5,0.1,0.9,0.1,1.3c0,0.4,0.1,0.7,0.1,0.7
		c1.7-0.3,4.1,0,4.1,0c0,0.3,0.1,0.9,0.2,1.1c0.8-0.1,1.6-0.2,2.4-0.2C51.9,94.7,51.8,90,48.4,91"/>
	<path style="fill:#83BAC0;" d="M12.9,82.5C10.2,82,7.8,79,7.8,79c1.9,2.1,4.4,2.3,4.4,2.3c0.3-2.4-1.6-7.7-1.6-7.7
		c1.4,1.8,2.2,3.9,2.7,5.6L12.9,82.5"/>
	<path style="fill:#ABD8D7;" d="M18.9,78.3c0,0,2.1,3.7,3.9,5.3c2,1.7,3.8,4.2,4.6,5.6c0,0,1-2.3,1.5-3.1
		C29,86.1,23.1,84.4,18.9,78.3 M46.2,85.5c0.3-0.4,0.6-0.8,0.9-1.2c0.5-0.6,1.1-1.3,1.6-1.9c-0.8,0.6-1.6,1.1-2.5,1.6
		c-2.5,1.7-4.2,2.2-4.2,2.2c0.5,0.8,1.5,3.1,1.5,3.1c0.5-0.9,1.3-2.1,2.4-3.4C46,85.7,46.1,85.6,46.2,85.5"/>
	<path style="fill:#545352;" d="M18.1,23.4c-0.2,0-1,0-1,0c-6.6,0.5-11.5-4.7-11.5-4.7s-0.4,4,2.4,7.5c2.9,3.5,8.7,4.1,8.7,4.1
		c0.2,0.8-0.2,2.6-0.2,2.6s1.7-1.9,2.1-5.5C19,25.1,18.3,23.4,18.1,23.4"/>
	<path style="fill:#6E7979;" d="M18.1,23.4c-0.2,0-1,0-1,0c-6.6,0.5-11.5-4.7-11.5-4.7s3,8.7,13.1,8.1
		C18.8,26.8,19.1,25.2,18.1,23.4"/>
	<path style="fill:#545352;" d="M51.2,23.4c0.2,0,1,0,1,0c6.6,0.5,11.5-4.7,11.5-4.7s0.4,4-2.4,7.5c-2.9,3.5-8.7,4.1-8.7,4.1
		c-0.2,0.8,0.2,2.6,0.2,2.6s-1.7-1.9-2.1-5.5C50.2,25.1,51,23.4,51.2,23.4"/>
	<path style="fill:#6E7979;" d="M51.2,23.4c0.2,0,1,0,1,0c6.6,0.5,11.5-4.7,11.5-4.7s-3,8.7-13.1,8.1C50.5,26.8,50.2,25.2,51.2,23.4
		"/>
	<path style="fill:#CDE9EE;" d="M14.7,53.1c0,0-4.8,17.1,0,28V53.1 M62,80.1c-2.3,1.8-4.8,1.9-4.8,1.9c-0.1-2.3,2.4-7.5,2.4-7.5
		c-0.5,0.3-1,0.7-1.4,1.2l0-1.7l1.8-1.5l-1.5-1.2l1.9-7.6l-1.8,1.2c0,0-0.6-10.8-0.2-15.4c0,0-2.3-2.3-3.4-3.2c0,0,0.2,3.3,0.5,8.6
		c1,4.3,2.6,13.1,0.6,20.8c0,1.6,0,3.2,0,4.8c0,0,1,3.4,1.3,5.8c0,0,0.3,0.1,0.8,0l0-3.7C60.8,81.9,62,80.1,62,80.1 M39.8,47
		c0,1.8,1.2,3.3,2.6,3.3c1.4,0,2.6-1.5,2.6-3.3c0-1.8-1.2-3.3-2.6-3.3C40.9,43.7,39.8,45.2,39.8,47"/>
	<path style="fill:#FFFFFF;" d="M39.9,46.1c0,1.8,1.1,3.3,2.6,3.3c1.4,0,2.6-1.5,2.6-3.3c0-1.8-1.1-3.3-2.6-3.3
		C41,42.9,39.9,44.3,39.9,46.1"/>
	<path style="fill:#474746;" d="M41.7,44.4c0,0.1,0,0.2,0,0.3c0,0.5,0.3,0.8,0.7,0.8c0.3,0,0.6-0.3,0.7-0.7c0.2,0.3,0.3,0.6,0.3,1.1
		c0,0.8-0.6,1.5-1.2,1.5c-0.7,0-1.2-0.7-1.2-1.5C40.9,45.2,41.3,44.6,41.7,44.4"/>
	<path style="fill:#CDE9EE;" d="M27.3,47c0,1.8,1.2,3.3,2.6,3.3c1.4,0,2.6-1.5,2.6-3.3c0-1.8-1.2-3.3-2.6-3.3
		C28.4,43.7,27.3,45.2,27.3,47"/>
	<path style="fill:#FFFFFF;" d="M27.3,46.1c0,1.8,1.1,3.3,2.6,3.3c1.4,0,2.6-1.5,2.6-3.3c0-1.8-1.1-3.3-2.6-3.3
		C28.5,42.9,27.3,44.3,27.3,46.1"/>
	<path style="fill:#474746;" d="M29.7,44.4c0,0.1,0,0.2,0,0.3c0,0.5,0.3,0.8,0.7,0.8c0.3,0,0.6-0.3,0.7-0.7c0.2,0.3,0.3,0.6,0.3,1.1
		c0,0.8-0.6,1.5-1.2,1.5c-0.7,0-1.2-0.7-1.2-1.5C28.9,45.2,29.2,44.6,29.7,44.4"/>
	<path style="fill:#545352;" d="M49.2,49.6c-0.2,0.5-0.7,0.6-2.3,0.9l-0.1,0c-1.6,0.3-4.3,0.3-5.8,0c-0.1,0-0.1,0-0.2,0
		c-1.4-0.2-1.6-0.4-2-1.2c-0.5-0.8-0.8-3-0.8-3.4l0,0c-0.1-0.5-0.1-0.7,0.5-1c0.8-0.4,4.3-0.9,5.8-0.9c1.1-0.1,3.6,0.1,4.7,0.3
		c0.2,0,0.3,0,0.4,0.1c0.1,0,0.6,0.3,0.6,0.8C49.8,45.8,49.4,48.9,49.2,49.6L49.2,49.6z M33.7,46L33.7,46c-0.1,0.5-0.3,2.7-0.8,3.4
		c-0.5,0.7-0.6,0.9-2,1.2c-0.1,0-0.1,0-0.2,0c-1.5,0.2-4.3,0.3-5.8,0l-0.1,0c-1.6-0.3-2.1-0.4-2.3-0.9c-0.2-0.7-0.6-3.7-0.7-4.4
		c0-0.5,0.4-0.7,0.6-0.8c0.1,0,0.2,0,0.4-0.1c1.1-0.2,3.5-0.3,4.7-0.3c1.5,0.1,5,0.6,5.8,0.9C33.8,45.3,33.8,45.5,33.7,46L33.7,46z
		 M51.2,43c-1.2-0.2-3.2-0.4-5.6-0.2c-3.2,0.2-5.9,0.6-7.5,0.9c-0.5,0.1-0.9,0.1-1.2,0.2l-0.3,0c-0.4,0-0.6,0.1-0.8,0.1
		c-0.2,0-0.4,0-0.8-0.1l-0.3,0c-0.3,0-0.7-0.1-1.2-0.2c-1.6-0.3-4.3-0.7-7.5-0.9c-2.4-0.1-4.5,0.1-5.6,0.2c0,0-1.2,0.2-2.3,0.6
		l0.2,1.3c0,0,1.1-0.3,2.2-0.4c0.2,1.9,0.6,4.3,0.6,4.3l0,0.1c0,0.1,0.1,0.2,0.1,0.4c0.2,1,0.4,1.5,1.4,1.9c0.9,0.3,3,0.6,5.1,0.8
		c0.8,0,1.7,0,2.6-0.1c1.3-0.2,2.5-0.6,3-0.9c0.7-0.5,1-1.7,1.3-2.6l0.1-0.2c0.1-0.3,0.2-0.6,0.2-0.9c0.1-0.4,0.2-0.8,0.3-1
		c0,0,0.1-0.1,0.4-0.2c0.1,0,0.2,0,0.3,0c0.1,0,0.2,0,0.3,0c0.3,0,0.4,0.1,0.4,0.2c0.1,0.1,0.2,0.6,0.3,1c0.1,0.3,0.1,0.6,0.2,0.9
		l0.1,0.2c0.2,0.8,0.6,2.1,1.3,2.6c0.5,0.3,1.7,0.7,3,0.9C42.3,52,43.2,52,44,52c2.1-0.1,4.2-0.4,5.1-0.8c0.9-0.3,1.1-0.9,1.4-1.9
		c0-0.1,0.1-0.3,0.1-0.4l0-0.1c0,0,0.4-2.4,0.6-4.3c1.1,0.1,2.2,0.4,2.2,0.4l0.2-1.3C52.4,43.2,51.2,43,51.2,43L51.2,43z"/>
	<path style="fill:#A0D1DE;" d="M30.7,39.6c0,0-2.9-1.4-4.6,1.2c0,0-0.2-2.6,2.2-2.8C30.6,37.7,30.7,39.6,30.7,39.6 M29.6,35.9
		c0,0-2.7-1.3-3.9,1.2c0,0-0.4-2.1,1.5-2.6S29.6,35.9,29.6,35.9 M41.1,41.2c0,0,2.3-1.1,3.5,0.9c0,0,0.1-2-1.7-2.2
		C41.1,39.7,41.1,41.2,41.1,41.2 M42.7,37.6c0,0,2.3-0.4,2.7,1.7c0,0,0.8-1.5-0.6-2.3C43.4,36.2,42.7,37.6,42.7,37.6"/>
	<path style="fill:#B2DCE5;" d="M30.5,59.8c0,0,1.6-1.1,2.5-1.2c0,0,0.2,2,1.1,3c0,0,2-1.8,4-1.9c0,0,0.5,1.1,1.3,1.5l0,0
		c0.3,0.2,0.7,0.4,1,0.5c0,0,1.1-0.7,1.5-2c0,0,0.1,2.7-1.6,4.1c0,0-1.3-0.6-2.2-1.6c-0.3-0.3-0.6-0.6-0.7-0.8c0,0-3,2.1-3.1,3.3
		c0,0-2.1-2.1-2.9-3.7c0,0-1.4,0.4-1.8,0.7c0,0-1.1-1.9-1.4-3.6C28.4,58.2,29.8,59.5,30.5,59.8"/>
	<path style="fill:#545352;" d="M35.8,54.6c-0.1,0,3,0.2,6.1,0.1c0,0,0.2-0.6,0.4-0.9c0,0-0.1,1,0.2,1.2c0,0-1.5,0.6-3.1,0.6
		c0,0,1.7-0.3,2.2-0.6C41.7,55,38.6,55.2,35.8,54.6"/>
</g>
</svg>
