<?xml version="1.0" encoding="utf-8"?>
<!-- Generator: Adobe Illustrator 25.0.1, SVG Export Plug-In . SVG Version: 6.00 Build 0)  -->
<svg version="1.1" id="Ebene_1" xmlns="http://www.w3.org/2000/svg" xmlns:xlink="http://www.w3.org/1999/xlink" x="0px" y="0px"
	 viewBox="0 0 84 100" style="enable-background:new 0 0 84 100;" xml:space="preserve">
<g id="capeFlow1">
	<g>
		<defs>
			<path id="SVGID_1_" d="M40.8,22.9c-4,1.3-6.4,2.3-14.5,6c-4.5,2-16.9,7.1-19.9,12.6c10.4-6.1,9.5,3.1,11.1,11.3
				c1.3,6.7,7.9,8.5,18.5,8.3c9.3-0.2,10.3,7.9,13.9,14.3c5.4-26.5,4.8-30.7,6.1-34.4C55.2,30.6,46.2,20.9,40.8,22.9"/>
		</defs>
		<use xlink:href="#SVGID_1_"  style="overflow:visible;fill:#88CE02;"/>
		<clipPath id="SVGID_2_">
			<use xlink:href="#SVGID_1_"  style="overflow:visible;"/>
		</clipPath>
		
			<path id="shadowBottom1" style="clip-path:url(#SVGID_2_);fill-rule:evenodd;clip-rule:evenodd;fill:#54810C;enable-background:new    ;" d="
			M48.4,74.1c4.2-5.3,2.9-12,2.9-17.9c0-2.5,1.8-6,0.9-5c-3.4,3.9-10.8,8.1-17.1,9.5c-16,3.4-16.8,7.3-15.8,8.6
			C21.3,72.9,47.6,78.1,48.4,74.1"/>
		
			<path id="shadowTop1" style="clip-path:url(#SVGID_2_);fill-rule:evenodd;clip-rule:evenodd;fill:#54810C;enable-background:new    ;" d="
			M36.4,28.9c-5.1,2.1-19,7.7-22.7,9.7c-0.7,0.3-9.1,4.9-9.1,4.9c0.8,2.4,9.8,16,10.5,15.9c-0.8,5.1,2.2,1.3,3.2-1.1
			c3.4-9.5,16.8-23.6,17.3-24.3c0.2-0.3-0.3-1.8,0.5-3.3C37.3,28.8,39.3,27.7,36.4,28.9"/>
	</g>
	<path style="fill:none;stroke:#000000;stroke-width:1.791;stroke-miterlimit:10;" d="M40.8,22.9c-4,1.3-6.4,2.3-14.5,6
		c-4.5,2-16.9,7.1-19.9,12.6c10.4-6.1,9.5,3.1,11.1,11.3c1.3,6.7,7.9,8.5,18.5,8.3c9.3-0.2,10.3,7.9,13.9,14.3
		c5.4-26.5,4.8-30.7,6.1-34.4C55.2,30.6,46.2,20.9,40.8,22.9"/>
</g>
<path id="capeTop1" style="fill-rule:evenodd;clip-rule:evenodd;fill:#88CE02;stroke:#000000;stroke-width:1.791;stroke-linejoin:round;stroke-miterlimit:3.5821;" d="
	M61.4,14.3C46.3,19.5,33.8,21.6,11.9,31c-5,2.2-12.3,8.7-10.5,21.1C5.2,44,18.2,34.5,40.3,30.2c7.3-3.5,14.1-5.4,22.2-8.6
	C61.9,18,61.9,16.6,61.4,14.3"/>
<g id="GUY">
	<path style="fill-rule:evenodd;clip-rule:evenodd;" d="M53.1,96.1c0.5,3.1,0.1,3.3-3.1,3.7s-5.6-0.8-6.4-1.6
		c-0.9-0.8-1-2.6-0.2-4.2c0.5-1,1.1-1.4,1.3-2.6c0.3-1.2,0.5-1.5,0.8-1.9c0.2-0.4,0.3-0.8,0.4-3.6c0.1-2.8,0-8.1,0.3-10.3
		c0.3-2.3,10.2,1,10.2,1s-2.3,5.8-3,7.3c-0.6,1.4-0.6,4.2-0.6,4.8s-0.2,1.7-0.4,1.8c-0.2,0.1,0.6,1.5,0.3,2.4S53,95.7,53.1,96.1z"/>
	<path style="fill-rule:evenodd;clip-rule:evenodd;" d="M56.8,8.6c-0.3-2.2,0-6.5,0.5-7.2c1.5-2,9-2.2,10.6,0.1c0.7,1,0.6,3.4,0.5,5
		s-0.5,4.9-0.6,5.9c-0.1,0.8-8.3,2-10.2-0.1C57.1,11.8,56.8,8.6,56.8,8.6z"/>
	<path style="fill-rule:evenodd;clip-rule:evenodd;" d="M73.7,90.6c3.5,2.5,6.2,3,7.9,3.9c1.8,0.9,1.3,2.7-1.7,3.2
		c-2.4,0.4-6.2-0.5-8.7-0.5c-2.5,0-8.1,0.3-9.6-0.7c-1.7-1.2-1-3.4-1-3.4c0.5-1.3,1.6-4.1,1.3-6.4c-0.4-2.3-0.8-3.6-1.7-5.6
		c-0.9-2.1-1.5-7.4-0.7-7.6s0.6,0,1.6,0.3c1,0.3,2.2,0.6,4.4,0.6c2.2,0,4.7-0.4,5.6-0.5c0.9-0.2,1.6-0.3,1.3,1.5
		c-0.3,1.8-1.1,5.1-1.2,7.7c-0.1,2.6-0.1,5.5,0.1,6.1C71.6,89.4,72.8,89.9,73.7,90.6z"/>
	<path style="fill-rule:evenodd;clip-rule:evenodd;" d="M80.7,45.7c0,0-1.1,3.7-3.3,4.9c0,0-1.6,0.6-4.8-1.2
		c-0.9-0.5-1.6-2.3-1.6-2.8c0.1-1.4,0.9-2,0.9-2s0.9-1.5,2-1.5s2.9,0.2,3.5-0.3C78.1,42.2,80.9,43.8,80.7,45.7z"/>
	<path style="fill-rule:evenodd;clip-rule:evenodd;" d="M57.4,9.7c0,0-0.2,2.9-0.6,4.8c-0.1,0.3-1.8,0.5-3.1,1
		c2.4,6.9,16.9,6.8,18.8,3.4c-0.9-0.6-2.8-1.6-3.6-2C68,16.6,68,16.7,68,15c-0.1-1.6-0.2-4.6-0.3-5.4C67.6,8.9,58.8,8.9,57.4,9.7z"
		/>
	<path style="fill-rule:evenodd;clip-rule:evenodd;fill:#EFEFEF;" d="M57.9,9.7c0,0,0,1.7-0.2,3.3c-0.1,0.7-0.1,1.2-0.2,1.8
		c-0.1,0.3,2,1.7,2.5,4.8c2.8,6.1,9.1,3.1,11.7,0.2c-0.9-0.7-2.4-1.5-4.1-2.2c-0.9-0.4-0.5-1.1-0.5-2.7c-0.1-1.6-0.3-4-0.4-4.8
		C66.7,9.1,59.3,8.9,57.9,9.7z"/>
	<path style="fill-rule:evenodd;clip-rule:evenodd;" d="M57.4,9.7c0,0-0.1,1-0.2,2.3c0.8,0.8,1.7,1.8,2.5,2.4
		c0.5,0.4,1.8,0.4,2.9,0.4c1.1,0,2,0.1,2.4-0.1c0.9-0.5,2.2-1.6,3-2.5c-0.1-1.1-0.1-2-0.2-2.4C67.6,8.9,58.8,8.9,57.4,9.7z"/>
	<path style="fill-rule:evenodd;clip-rule:evenodd;" d="M62.6,14c-0.7,0-1.5,0-2.1-0.2c-0.3-0.1-0.6-0.2-0.8-0.4
		c-0.4-0.3-0.8-0.6-1.3-1c-0.9-0.7-1-1.1-1-1.3c0.4-3.6-0.1-6.7-0.1-6.7s-0.4-1.6,1.8-2c2.2-0.4,3.5-0.4,3.5-0.4s1.3,0,3.5,0.4
		c2.2,0.4,1.8,2,1.8,2s-0.5,3-0.1,6.7c0,0.2-0.1,0.6-1,1.3c-0.8,0.6-1.4,1.2-2.1,1.3C64.1,14,63.3,14,62.6,14z"/>
	<path style="fill-rule:evenodd;clip-rule:evenodd;" d="M62.6,0.7c-3.8,0-4.6,1-5.6,2.2c-0.2,0.3,0,2,0.3,5.7h0.5c0,0-0.3-1-0.3-2.3
		c0-1.2,0.3-1.1,0.1-1.5C57.4,4.6,57,4,58,3.4c1-0.6,2.6,0.5,4.6,0.5c1.9-0.1,3.6-1.1,4.6-0.5s0.6,1.1,0.3,1.5
		c-0.2,0.3,0,0.2,0.1,1.5c0,1.2-0.3,2.3-0.3,2.3h0.5c0.4-3.7,0.6-5.3,0.4-5.6C67.3,1.8,66.4,0.7,62.6,0.7z"/>
	<path style="fill-rule:evenodd;clip-rule:evenodd;" d="M80.8,45.9c0,0-1.1,3.5-3.2,4.7c-0.5-0.2-0.4-0.6-0.8-1.1
		c-0.1-0.2-0.5-0.3-0.7-0.5c-0.1-0.2-0.1-0.5-0.4-0.7c-0.3-0.2-0.4-0.1-0.6-0.3c-0.2-0.2-0.3-0.5-0.5-0.7c-0.1-0.1-0.6-0.2-0.7-0.3
		c-0.3-0.3-2.8-0.8-2.7-1.4c0.2-0.9,0.7-1.5,0.7-1.5s1.1-1.6,2.2-1.5c1.1,0.1,2.1,0.3,2.7-0.2C77.4,41.9,80.9,44,80.8,45.9z"/>
	<path style="fill-rule:evenodd;clip-rule:evenodd;" d="M73.3,20.5c0,0,3.6-0.9,6.1,1.5c2.5,2.4,2.3,5.4,1.6,7.2
		c0.6,0.7,1.8,2.8,0.9,5.3c3.8,3.2,2.1,8.1-1.2,11.4c0,0-0.8-3-4-3.2c0.1-1.1-3-2.1-1.6-5.1c-2.2-0.5-2.1-2-2.5-3.8
		C72.2,32.1,73.3,20.5,73.3,20.5z"/>
	<path style="fill-rule:evenodd;clip-rule:evenodd;fill:#EFEFEF;" d="M72,22.1c0,0,4.2-2.1,6.6,0.3c2.5,2.4,1.8,5,1,6.9
		c0.6,0.7,2.1,2.9,1.2,5.4c-0.2,0.6-1.4,0.6-2.3,2.1c2.3-1.3,3.7-1,4.3,0.7c0.8,2.6-1,5.7-2.5,7.4c0-0.1-0.1-0.1-0.1-0.2
		c-0.2,0.8-0.5,2.5-2.2,4.4c-0.8,0.9-1.6,0.8-2.5,0.6c-1.1-0.3-1.6-0.8-3.2-1.7c-0.9-0.5-0.4-1.1-0.4-1.7c0-0.1,0.1-0.3,0.3-0.5
		c0.1-0.3,0.4-0.7,1-1.2c0,0,0.7-1,1.9-1c1.1,0,2.2-0.2,2.5-0.5v0c0-2-2.3-2.1-1.5-5.5c0-0.2,0.3-0.5,1.3-0.5c-1.4-0.3-2-0.4-3-1.3
		c-0.7-0.6-1.2-1.4-1.4-2.4C72.5,31.4,72,22.1,72,22.1z"/>
	<path style="fill-rule:evenodd;clip-rule:evenodd;" d="M59.9,18.5c-0.3-0.5-2.1-2.7-5.5-3.7c-1-0.3-1.6,0.5-2.6,1.1
		c-0.3-0.2-1.6-0.7-2.2-0.3c-0.7,0.4-1.1,0.8-1.9,1.1c-0.4-0.1-0.9-0.4-1.6-0.1c-0.7,0.3-2.3,1-3.4,2.5c-0.7,2.5,12.1,0.6,12.1,0.6
		L59.9,18.5z"/>
	
		<path style="fill-rule:evenodd;clip-rule:evenodd;fill:#88CE02;stroke:#000000;stroke-width:0.3582;stroke-linejoin:round;stroke-miterlimit:3.5821;" d="
		M60,18.5c-1.9-0.6-1.5-2.8-5.6-3.1c-0.8-0.1-1.3,0.6-1.9,1c0.3,0.3,0.6,0.7,0.7,1.2c-0.5-0.6-1.4-1.3-2.3-1.5
		c-0.8-0.2-1.4,0.5-2.4,0.9c0.2,0.2,0.4,0.4,0.6,0.8c-0.8-0.5-1.4-0.7-2.4-0.3c-0.7,0.3-2.2,0.9-3.3,2.4c-0.7,2.5,11.6-0.3,11.6-0.3
		L60,18.5z"/>
	<path style="fill-rule:evenodd;clip-rule:evenodd;" d="M70.8,19.4c0,0,0-0.7,0-1.2c0-0.1-0.4-0.4-0.5-0.5l-0.1-0.1
		c0,0,0.9-0.5,1.6-0.2c0.7,0.2,1.2,1.2,1.2,1.2c1.3-0.4,1.4,0.1,2,0.8c1.4-0.3,1.5,0.2,2.4,1.5c0,0-1-0.1-3,0.1
		C72.4,21.2,70.8,19.4,70.8,19.4z"/>
	
		<path style="fill-rule:evenodd;clip-rule:evenodd;fill:#88CE02;stroke:#000000;stroke-width:0.3582;stroke-linejoin:round;stroke-miterlimit:3.5821;" d="
		M70.6,19.1c0,0,0.4-0.3,0.2-0.4c0.6-0.3,1.5-0.7,1.9,0.3c1.3-0.4,1.5,0.2,2.1,0.9c1.6-0.7,1.7,0.2,1.9,0.6c-0.5,0-1.3,0-2.3,0.2
		C72.4,21,70.5,19.1,70.6,19.1z"/>
	<path style="fill-rule:evenodd;clip-rule:evenodd;" d="M51,17.7c0,0,3.3,1.2,6,1c2.8-0.2,7.4-0.4,10,1c0,0,2.6-0.9,5-0.3
		c2.4,0.6,6.8,4.8,5.5,9.1c-0.1,0.3-0.9,0.7-1.7,1c0,0,0.5,2-0.4,3.5c-0.8,1.5-2.6,4.5-2.6,8.6l0,0c-0.1,0.7-0.2,2.1-0.3,2.8
		c-4.5-0.2-11.4-1.8-18.1-1.7c0.1-0.8,0.1-1.2,0.2-2h0.2c-0.4-1.9-0.5-2.9-0.8-4.3c-2.2-1.4-4.5-3-6.4-6C45.7,27.6,51,17.7,51,17.7z
		"/>
	<path style="fill-rule:evenodd;clip-rule:evenodd;" d="M73.2,48.6c0,0,3.5,12.7-0.7,18c0,0,0.7,2.4-0.8,5.1
		c-0.2,1.1-0.5,2.2-0.7,3.3c-0.7,4.8-2,6.8-2.3,14.4l-3.5-0.1c0,0-0.4-5.5-1.6-8.4c-0.7-1.6-3.4-3.9-3.3-6.1
		c0.1-1.7,0.5-3.2,3.4-5.4c0.2-3.3-3.1-6.5-2.6-18.8L73.2,48.6z"/>
	<path style="fill-rule:evenodd;clip-rule:evenodd;fill:#EFEFEF;" d="M72.1,48.1c0.9,5.8,3,14.5-0.8,18.7c0.2,0.8,0.3,1.9,0,3.3
		c-0.1,0.7-0.3,1.4-0.6,2.2c-0.6,1.3-0.8,3.4-1,4.6c-0.7,4.8-0.8,5-1.1,12.6l-3.5-0.1c0,0-0.4-5.5-1.6-8.4c-0.7-1.6-2.1-3.1-2.2-5.3
		c-0.1-1.7,1.1-5.1,3.9-5.1c-0.2-7-3.4-5.5-4.2-20L72.1,48.1z"/>
	<path style="fill-rule:evenodd;clip-rule:evenodd;fill:#EFEFEF;" d="M51,17.7c0,0,1.2,0.4,2.7,0.5c1.4,0.1,2.9,0,4.2-0.1
		c2.8-0.2,6.6-0.5,9.2,1c0,0,1.4-0.5,3-0.4c0.7,0,1.4,0.6,2.2,0.8c2.5,0.7,5,4.8,3.8,8.6c-0.1,0.3-0.9,0-1.8,0.3
		c0.2,0.8,0.3,2.7-0.7,4.6c-1,1.9-2.2,4.4-2,9.3c-6-0.3-8.7-0.7-14.7-0.9c-0.5-2.1-0.8-4.2-0.9-5.3c0.8-0.4,1.3-0.7,1.9-1.4
		c-1.7,0.3-2.4,0.2-3.5-0.4c-1.1-0.6-2.9-2.4-3.8-3.6c-0.1-0.1-0.8,1.8-2.2,1.8c-0.5-0.7,1.6-2.9,1.3-3.6C48.4,25.9,51,17.7,51,17.7
		z"/>
	<path style="fill-rule:evenodd;clip-rule:evenodd;" d="M72.6,43.4c0,0,0.1,2.1,0.1,2.6c0,0.6,0.5,2.3,0.5,3.1
		c-0.7,1.1-3.4,3.5-8.3,4.4c-4.9,1-11.5-6.7-11.5-6.7c0.2-0.8,0.7-2.9,1.1-4.1c0.1-0.1,0.2-0.4,0.2-0.5
		C55.2,41.5,72.6,43.4,72.6,43.4z"/>
	<path style="fill-rule:evenodd;clip-rule:evenodd;fill:#EFEFEF;" d="M71.4,43.6c0,1.4,0.3,2.5,0.4,3.4c0.3,1.7,0.7,2.8,0.7,3.8
		c0,3.3-4.4,2.8-8,2.9c-4.9,1-9.1-6.7-9.1-6.7c0.3-1.3,0.6-2.8,1.1-4.1h0c0.1-0.7,0.2-1.5,0.2-1.9c7,0,11.9,0.4,14.8,0.7
		C71.6,42.2,71.5,43.3,71.4,43.6L71.4,43.6z"/>
	<path style="fill-rule:evenodd;clip-rule:evenodd;" d="M65.9,50.9c0,0-3.1-6.7-12.2-4.7c-2.2,6.1-5.1,13.2-3.2,20.8
		c-1.9,2.6-4.1,4-4.1,8.8c0,4.8,0.3,5.6,0.3,5.6l6.7,0.4c0,0,2.2-2.8,3.1-5.8c0.3-0.9,0.4-2.4,0.3-4.2c0.2-0.3,1.2-1.2,1.3-2.7
		c0,0,3.3-1.7,5.2-5.9C65,59.2,64.5,56,65.9,50.9z"/>
	<path style="fill-rule:evenodd;clip-rule:evenodd;fill:#EFEFEF;" d="M65.9,50.9c-0.2-0.6-2.5-6.8-10.9-5c-5,13.3-3.1,18.8-2.4,21.2
		c-3.4,4.3-4.9,5.2-4.3,13.9l4.5,0c2-3.3,2.5-4.5,2.6-8.7c0-0.2-0.7,0.3-1.1,0.9c0.4-1.8,1.3-2.1,2.1-3.2c0.3-0.5,0.6-1.1,0.6-2
		c4-2.7,5.5-6.1,6.3-9.6C64,56,64.8,52,65.9,50.9z"/>
	<path style="fill-rule:evenodd;clip-rule:evenodd;" d="M51.7,41.7c0,0,1.6,0,2.9,0.5c1.3,0.5,1.3,0.7,1.8,1.3
		c0.5,0.6,1.8,1.4,1.5,2.3c-0.1,0.5-0.4,0.6-0.8,1c-0.2,0.2-1.4,1.5-1.7,1.7c-0.2,0.1-0.4,0.3-0.6,0.4c-0.2,0.1-0.7,0.5-0.9,0.6
		c-0.6,0.3-1,0.4-1.6,0.4c0,0-1.4,0-2.3-1c0,0-0.1-0.5,0.1-0.7c0,0-1.2-1-1.6-1.7c-0.3-0.7-0.3-1.6-0.1-2.2
		C48.7,43.8,50.9,42.3,51.7,41.7z"/>
	<path style="fill-rule:evenodd;clip-rule:evenodd;" d="M53.1,97.5L53,98.9c0,0-0.5,0.7-4.4,0.6c-3.9-0.1-4.9-1.3-5.3-1.9L43.1,96
		c0,0,0.7-1.1,0.9-1.1c1.3,0.1,5.6,1.8,8.6,2.3C52.9,97.3,52.9,97.4,53.1,97.5z"/>
	<path style="fill-rule:evenodd;clip-rule:evenodd;" d="M61.5,94.5c0,0.7-0.1,0.6-0.1,1.3c0.7,0.5,2.4,0.8,5.7,0.7
		c4.8-0.1,9.2,1.5,14.5,0.5l0-1l-0.5-0.1l-19.1-1.5L61.5,94.5z"/>
	<path style="fill-rule:evenodd;clip-rule:evenodd;" d="M65.6,96.5c0.4,0,0.9,0,1.5,0c3.1-0.1,6,0.6,9.2,0.7
		c1.7-0.1,3.8-0.4,3.5-1.6l-16.2-1.4C62.5,95.3,63.3,96.2,65.6,96.5z"/>
	<path style="fill-rule:evenodd;clip-rule:evenodd;" d="M47,72.4c0.5,0.3,4,2.4,9.7,2.1c-0.1,1.1,0,3.2-2.6,6.9
		c-1.2,1.8-2.4,5-2.6,9.1c0,0.9,0.6,1.7-0.1,2.9c0.2,0.7,1.1,2.2,1.6,3.1c0.5,0.9,0.7,1.9-2.4,2c-3.1,0.1-8.1-0.3-7.4-2.7
		c0.4-1.3,1.3-2.6,1.4-3.1c0.1-0.5,0.1-2.1,1.1-3.1c0.8-2.9,0.6-5.6,0.4-8.2C45.9,78.9,45.8,74.6,47,72.4z"/>
	<path style="fill-rule:evenodd;clip-rule:evenodd;" d="M52.3,25.7c4.1-5.4,0.7-9.8-5.9-8.5c-2.6,0.5-5.3,2.3-5.5,5.6
		c-0.8,0.1-2.8,0.2-3.8,3.8c-0.8,2.7-1.1,3.3-2.4,4.7c-0.8,1,0.1,3,0.7,4.4c2.1,4.9,8.7,5.4,13.1,9.1c1.5-0.4,3-2,3.5-3.1
		c-3.7-4.4-2.9-6.1-4.4-8.4C49.1,32.7,52.8,30.5,52.3,25.7z"/>
	<path style="fill-rule:evenodd;clip-rule:evenodd;fill:#EFEFEF;" d="M51.5,25.4c0.2-0.3,0.6-1.1,0.8-1.4c0-0.1,0.7,1,0.8,1
		c1.6-2.5,1.9-6.2,0.2-6.5c-0.4-0.1-1.1-0.2-1.8-0.5c-1.1-0.4-2.2-0.4-4-0.1c-2.5,0.5-5,2.3-5.1,4.9c0,0.2,1.8,0.7,2.3,2.8
		c-0.8-1.2-2.3-2.5-4.1-1.4c-1.9,1.2-0.9,4-3.5,6.8c-0.9,1-0.7,2.1,0.2,4.4c1.5,3.6,8.6,5.6,12.4,9c0.9-0.4,1.6-1.3,2-2
		c-2.6-2.7-3.6-5.2-4.4-7c-0.9-2.1-1.9-3.3-3.9-4.9c1,0.4,1.8,0.8,2.3,1.1c0.5,0.4,1.3,0.4,1.9,0.2C50,31,51.3,27.6,51.5,25.4z"/>
	<path style="fill-rule:evenodd;clip-rule:evenodd;" d="M76.4,26.3c-0.2,2.2-1.8,1.1-2.7,0.7c-1.7-0.7-3.4-1.2-5.5-1.3
		c-2,0-4.6,0.2-6.8,0.8c-3.1,0.8-4,0.8-5.4,0.1c-1.4-0.7-3.8-2.6-3.8-2.6s-0.1,0.6,0.5,1.3c0.7,0.9,2.4,2.1,4.7,2.8
		c1.1,0.4,2,0.1,2.9-0.1c5.1-1.3,10.5-1.5,15,1.3c0.2,0.1,1-0.2,1.4-0.8C77.3,27.8,76.4,26.3,76.4,26.3z"/>
	<path style="fill-rule:evenodd;clip-rule:evenodd;fill:#001423;" d="M50.3,48.1c0.5,0.3,1,0.5,1.7,1c0,0-0.5,0-0.8-0.2
		C51,48.7,50.4,48.2,50.3,48.1C50.3,48.2,50.3,48.1,50.3,48.1z"/>
	<path style="fill-rule:evenodd;clip-rule:evenodd;fill:#EFEFEF;" d="M66.9,2.7c-0.2-0.5-1.4-1.5-4.4-1.5c-3.1,0-4.1,1-4.1,1.5
		c0,0.2-0.2,2-0.3,2.7c0,0,0,0.9,0.1,2.3c0,0.9,0.3,1.4,0.4,2.6c0.1,1.2,0.5,2.1,1.1,3.1c0.3,0.2,0.5,0.3,0.8,0.4
		c1.1,0.3,3.2,0.3,4.3,0c0.6-0.1,1.4-1.3,1.6-2.2c0.2-1.2,0.5-2.1,0.5-2.8C66.9,8,67,6.3,67.1,5.9C67.2,4.8,66.9,2.9,66.9,2.7z"/>
	<path style="fill-rule:evenodd;clip-rule:evenodd;" d="M60.9,73.5c0,0,3,1.3,10.5,0.2c0,0-2.1,10.7-1.1,16c0,0,0.9,1.4,8.2,4
		c0,0,3.2,0.8,3.1,2.4c0,0,0.1,0.3-3.8,0.2c-3.9-0.1-7.6-0.8-10.2-0.8s-5.3,0.1-5.8-0.6c-0.5-0.7,0.1-2.5,0.8-3.5
		c0.8-1.1,0.6-1.9,0.5-3.9C63.1,82.5,59.2,77.2,60.9,73.5z"/>
	
		<path style="fill-rule:evenodd;clip-rule:evenodd;fill:#88CE02;stroke:#000000;stroke-width:0.3582;stroke-linejoin:round;stroke-miterlimit:3.5821;" d="
		M60.3,74.5c-0.4,0.6,0,2.7,0.6,4.8c0.6,2.1,1.9,3.4,2.1,6.8c0.3,3.4,0.3,3.9-0.6,5.9c-1,2-1.3,3.8,2.1,3.9c3.4,0,5.2,0,8.6,0.4
		c3.4,0.5,4.6,0.7,6.5,0.4c1.9-0.3,2.3-0.9,1.5-1.5c-0.8-0.6-4.1-1.2-5.6-2.3c-1.4-1.1-5.3-2.8-5.3-3.2c-0.2-1.6-0.2-7.2,0-9
		c0.3-1.8,0.7-4.4,0.8-5.2c0.1-0.7,0.7-1.4-0.3-1.2c-1,0.2-4.6,0.8-7.4,0.6C60.8,74.9,60.4,74.3,60.3,74.5z"/>
	<path style="opacity:0.3;fill-rule:evenodd;clip-rule:evenodd;enable-background:new    ;" d="M62.2,92.2c1,0.4,2.4,0.8,3.5,0.8
		c0,0-0.4,1.9,0.2,3s-4.6,0.4-4.6,0.4l-0.2-4L62.2,92.2z"/>
	<path style="opacity:0.3;fill-rule:evenodd;clip-rule:evenodd;enable-background:new    ;" d="M77.4,97.1c0.9-0.3,1.6-1.3,0.8-2.3
		c-0.8-1-1.5-1.2-0.4-1.2c1,0,4.8,2.2,4.8,2.2l-2,1.8L77.4,97.1z"/>
	<path style="opacity:0.3;fill-rule:evenodd;clip-rule:evenodd;enable-background:new    ;" d="M60.1,76.7c1.3,0.5,3.3,0.6,5.1,0.5
		c1.7-0.1,4.3-0.3,6-0.8c1.6-0.5,1,0.6,1,0.6l-0.9,0.8c0,0-2.2,0.8-5.7,0.8c-4.2-0.1-5.4-0.5-5.4-0.5L60.1,76.7z"/>
	<path style="opacity:0.3;fill-rule:evenodd;clip-rule:evenodd;enable-background:new    ;" d="M60.2,79.6c1.3,0.5,3.3,0.6,5.1,0.5
		c1.7-0.1,4-0.1,5.7-0.7c0.7-0.2,0.3,0.7,0.3,0.7l-0.3,0.5c0,0-2.2,0.8-5.7,0.7c-4.2-0.1-4.9-0.4-4.9-0.4L60.2,79.6z"/>
	<path style="fill-rule:evenodd;clip-rule:evenodd;fill-opacity:0;" d="M60.9,73.5c0,0,5,1.8,10.6,0.6c0,0-2.2,10.2-1.2,15.5
		c0,0,0.9,1.4,8.2,4c0,0,3.2,0.8,3.1,2.4c0,0,0.1,0.3-3.8,0.2c-3.9-0.1-7.6-0.8-10.2-0.8s-5.3,0.1-5.8-0.6c-0.5-0.7,0.1-2.5,0.8-3.5
		c0.8-1.1,0.6-1.9,0.5-3.9C63.1,82.5,59.2,77.2,60.9,73.5z"/>
	<path style="fill-rule:evenodd;clip-rule:evenodd;fill-opacity:0;" d="M60.9,73.5c0,0,5,1.7,10.6,0.5c0,0-2.2,10.3-1.2,15.6
		c0,0,0.9,1.4,8.2,4c0,0,3.2,0.8,3.1,2.4c0,0,0.1,0.3-3.8,0.2c-3.9-0.1-7.6-1.2-10.2-0.8c-2.7,0.5-5.3,0.3-5.8-0.6
		c-0.4-0.8,0.1-2.5,0.8-3.5c0.8-1.1,0.6-1.9,0.5-3.9C63.1,82.5,59.2,77.2,60.9,73.5z"/>
	<path style="fill-rule:evenodd;clip-rule:evenodd;" d="M56.4,39.4c0,0.4,4.5,2.6,6.9,3.1c2.4,0.5,7.6,0,8.4-0.2l-0.1,0.8
		c0,0-6.1,0.9-10.8-0.4c-4.7-1.2-4.2-1.6-4.2-1.6L56.4,39.4z"/>
	<g>
		<path style="fill-rule:evenodd;clip-rule:evenodd;fill:#EFEFEF;" d="M46.8,88.3c0.7,0.3,3.1,0.9,4.8,0.6c0.2-0.1,0-4,0.7-5.7
			c0.9-2.4,2.4-4.4,3.1-8.8c-2.4-0.2-5.2-0.8-6.6-1.3C46.9,78.7,47.5,83.5,46.8,88.3z"/>
		<path style="fill-rule:evenodd;clip-rule:evenodd;fill:#EFEFEF;" d="M50.7,91.9c0.4,0.1,0.7,0.6,0.8,0.3c0.2-0.5-0.4-1.5-0.5-2.2
			c0-0.1,0,0,0-0.1c-0.5-0.5-4-0.5-3.8-0.3c-0.4,0.8-1,0.6-1.3,2.1c-0.1,0.7,0.8,0.1,1.7,0.1c-1.5,1-3.3,2.4-3.6,3.5
			c-0.4,1.6,0.2,2,1.9,2.9c1.5,0.3,3.2,0.4,4.6,0.3c1.5-0.3,1.9-1,1.4-2.1C51.3,95,50.8,93,50.7,91.9z"/>
	</g>
	<path style="fill-rule:evenodd;clip-rule:evenodd;" d="M51.3,17.5c1.9,1.1,4.5,0.8,5.5,0.7c0.2,0,2.5-0.4,2.6-0.4
		c0.2,0,0.2,0.2,0.2,0.2s-0.9,0.5-2.8,0.6c-1.8,0.1-4,0-5.2-0.6C50.2,17.5,51.3,17.5,51.3,17.5z"/>
	<path style="fill-rule:evenodd;clip-rule:evenodd;" d="M70.8,18.6c0.3,0.3,2.6,1.1,3.6,2.1c0.9,0.9,0.4,0.9,0.2,0.6s-2-1.5-2.7-1.8
		s-1.5-0.8-1.5-0.9C70.3,18.5,70.8,18.6,70.8,18.6z"/>
	<path style="fill-rule:evenodd;clip-rule:evenodd;fill:#EFEFEF;" d="M51,42.4c1.7-0.1,3.4,0.3,4.5,1.4c0.6,0.6,1.5,1.2,1.4,1.8
		c0,0.2-0.4,0.7-0.7,1c-0.2,0.2-0.7,0.7-0.9,0.9c-0.2,0.2-1,0.8-1.2,0.9c-0.2,0.1-0.4,0.4-0.6,0.5c-0.6,0.3-1.2,0.1-1.8-0.2
		c-0.6-0.3,0.1-0.3-0.5-0.8c-1.5-1.1-2.4-1.8-1.8-3.9C49.6,43.4,50.2,43,51,42.4z"/>
	<path style="opacity:0.4;fill-rule:evenodd;clip-rule:evenodd;enable-background:new    ;" d="M57.5,28.2c-1.3-0.5-2.3,1-2,2.5
		c0.3,1.5,3.5,3.1,3.3,8.6c-0.1,4.5-1.1,6.3-1.1,6.3l-2.2-2.8c0,0-0.3-6.2-1.1-7.1c-0.7-0.9-3.1-2.6-4-3.4c-0.9-0.9,1-2,0.9-3.6
		c-0.1-1.6,1-4.7,1-4.7L57.5,28.2z"/>
	<path style="opacity:0.4;fill-rule:evenodd;clip-rule:evenodd;enable-background:new    ;" d="M65.5,52.6
		c-0.1,4.3,0.9,10.7,1.2,13.7c0.4,3,0.9,3.3,0,4.6c-0.9,1.3-2.1,3.5-2.1,3.5l-3.9-0.3c0,0,3.2-4,3.3-4.8c0.2-0.8-1.6-6.4-1.6-6.4
		L65.5,52.6z"/>
	<path style="opacity:0.4;fill-rule:evenodd;clip-rule:evenodd;enable-background:new    ;" d="M57.9,12.4c0.8,1.8,1.8,2.6,3.3,3.1
		c0.9,0.3,4.6,0.8,6-0.8c0.6-0.7,0.2-2.7,0.2-2.7l-3.3,2.6l-4.4-0.8l-0.5-1.3L57.9,12.4z"/>
	
		<path style="fill-rule:evenodd;clip-rule:evenodd;fill:#88CE02;stroke:#000000;stroke-width:0.9462;stroke-linejoin:round;stroke-miterlimit:3.5821;" d="
		M58.2,16.4c1.5,1,5.2,1.9,6.2,2.1c1,0.2,2.7-1.1,3.5-1.4c0.9-0.4,2.3-0.6,4.1,0.9c0.2,0.2-0.4,0.9-0.4,0.9
		c-0.1-0.1-0.4-0.1-0.9-0.3c-0.5-0.2-0.9-0.4-1.5-0.3c-2.9,0.3-3.3,1.3-5.8,0.7c-2.5-0.6-3.2-1-5.6-0.9"/>
	
		<path style="fill-rule:evenodd;clip-rule:evenodd;fill:#88CE02;stroke:#000000;stroke-width:0.3582;stroke-linejoin:round;stroke-miterlimit:3.5821;" d="
		M57.7,16.6c1.9,0.8,5.6,1.7,6.6,1.9c1,0.2,2.7-0.8,3.5-1.3c1.4-0.9,3.3-0.1,4.1,0.8c0.6,0.6,0.8,1,0.8,1.2c0,0.2-0.7,0-0.7,0
		c-0.4-0.2-0.9-0.2-1.2-0.4c-0.5-0.2-0.9-0.6-1.6-0.5c-2.9,0.3-3.4,1.3-5.9,0.7c-2.5-0.6-3.1-1.1-5.7-0.9"/>
	<path style="opacity:0.4;fill-rule:evenodd;clip-rule:evenodd;enable-background:new    ;" d="M75.3,33.2c0.2,0.9,0.6,2.5,1.5,3.3
		c0.4,0.4,0.5,0.5,0.1,0.5c-0.4,0-2.8-0.1-2.8-0.1l-0.7-1.2L75.3,33.2z"/>
</g>
</svg>
