<?xml version="1.0" encoding="utf-8"?>
<!-- Generator: Adobe Illustrator 25.0.1, SVG Export Plug-In . SVG Version: 6.00 Build 0)  -->
<svg version="1.1" id="Ebene_1" xmlns:sketch="http://www.bohemiancoding.com/sketch/ns"
	 xmlns="http://www.w3.org/2000/svg" xmlns:xlink="http://www.w3.org/1999/xlink" x="0px" y="0px" viewBox="0 0 46 100"
	 style="enable-background:new 0 0 46 100;" xml:space="preserve">
<desc>Created with Sketch.</desc>
<g id="Page-1" sketch:type="MSPage">
	<g id="gulp" sketch:type="MSArtboardGroup">
		<g id="Gulp-Logo" transform="translate(0.000000, 1.000000)" sketch:type="MSLayerGroup">
			<path id="Cup" sketch:type="MSShapeGroup" style="fill-rule:evenodd;clip-rule:evenodd;fill:#DA4648;" d="M22.8,77.9
				c-5.9,0-10.4-0.9-12.6-1.4c-1.5-0.4-2.7-0.7-3.6-1.1l2.9,5l1.1,15.5c0,1.7,5.5,3.1,12.3,3.1s12.3-1.4,12.3-3.1l0.9-15.7l2.7-4.8
				c-0.9,0.4-2.1,0.8-3.6,1.1C33.2,77,28.6,77.9,22.8,77.9z M39.1,27.5c-4.3,0.6-10,0.9-16.1,0.9s-11.8-0.3-16.1-0.9
				c-2.1-0.3-3.8-0.6-5-1c-0.3-0.1-0.8-0.3-1.2-0.5l2.7,24.5c0.1-0.4,0.3-0.8,0.4-1.3c0.3-0.9,0.7-1.7,1.1-2.5
				c0.4-0.8,0.9-1.6,1.3-2.3c0.5-0.7,1-1.4,1.5-2c0.5-0.6,1.1-1.1,1.7-1.6c0.6-0.4,1.2-0.8,1.7-1c0.6-0.2,1.2-0.4,1.7-0.4
				c0.7,0,1.3,0.2,1.9,0.5c0.6,0.4,1.2,0.9,1.7,1.8c0.1,0.2,0.2,0.4,0.2,0.5c0,0.2,0,0.4,0,0.5c0,0.4-0.1,0.7-0.3,0.9
				c-0.2,0.2-0.4,0.3-0.7,0.3c-0.2,0-0.4-0.1-0.6-0.4c-0.2-0.2-0.4-0.6-0.7-1.1c-0.2-0.4-0.5-0.7-0.8-0.9c-0.3-0.2-0.6-0.3-0.9-0.3
				c-0.5,0-1.1,0.2-1.6,0.6c-0.6,0.4-1.2,1-1.7,1.7C9,44.3,8.4,45.1,7.9,46c-0.5,0.9-1,1.8-1.4,2.7c-0.4,0.9-0.7,1.9-1,2.8
				c-0.2,0.9-0.4,1.7-0.4,2.4c0,0.2,0,0.5,0,0.7c0,0.3,0.1,0.5,0.2,0.7c0.1,0.2,0.2,0.4,0.4,0.5C6,56,6.2,56.1,6.4,56.1
				c0.3,0,0.6-0.1,0.9-0.3c0.3-0.2,0.7-0.4,1.1-0.7c0.4-0.3,0.7-0.6,1.1-1c0.4-0.4,0.7-0.7,1-1.1c0.3-0.4,0.6-0.7,0.9-1.1
				c0.2-0.3,0.4-0.7,0.6-0.9l1-3c0.1-0.3,0.3-0.6,0.5-0.7c0.2-0.1,0.4-0.2,0.6-0.2c0.1,0,0.2,0,0.3,0.1c0.1,0,0.2,0.1,0.3,0.2
				c0.1,0.1,0.1,0.2,0.2,0.3c0,0.1,0.1,0.3,0.1,0.4c0,0.4,0,0.8-0.1,1.2c-0.1,0.4-0.2,0.7-0.3,1.1c-0.1,0.3-0.2,0.7-0.4,1
				s-0.3,0.7-0.4,1.1c0,0-0.1,0.2-0.2,0.4c-0.1,0.2-0.2,0.5-0.3,0.9c-0.1,0.3-0.2,0.7-0.4,1.2c-0.1,0.4-0.3,0.9-0.4,1.3
				c-0.1,0.4-0.3,0.9-0.4,1.3c-0.1,0.4-0.2,0.8-0.3,1.2c-0.1,0.3-0.2,0.6-0.2,0.9c-0.1,0.2-0.1,0.4-0.1,0.4c0,0.1-0.1,0.3-0.2,0.5
				c-0.1,0.2-0.2,0.3-0.3,0.5c-0.1,0.2-0.2,0.3-0.4,0.4c-0.1,0.1-0.3,0.1-0.4,0.1c-0.2,0-0.4-0.1-0.5-0.2c-0.1-0.2-0.2-0.4-0.2-0.9
				V60c0-0.1,0-0.1,0-0.2c0-0.1,0.1-0.4,0.2-0.8c0.1-0.4,0.2-0.8,0.4-1.3c0.1-0.5,0.3-1,0.5-1.5c0.2-0.5,0.3-1,0.4-1.4
				c-0.4,0.4-0.8,0.9-1.3,1.3c-0.5,0.4-0.9,0.8-1.4,1.1c-0.5,0.3-0.9,0.6-1.4,0.8c-0.5,0.2-0.9,0.3-1.4,0.3c-0.5,0-0.9-0.1-1.3-0.3
				c-0.1,0-0.1-0.1-0.2-0.1l1.5,15.5c0.4,1,7.7,3.3,17.2,3.3c9.6,0,16.9-2.4,17.2-3.3L42.2,55c-0.2,0.2-0.3,0.3-0.5,0.5
				c-0.6,0.6-1.2,1.1-1.7,1.5c-0.5,0.4-1.1,0.7-1.6,0.9c-0.5,0.2-1.1,0.3-1.7,0.3c-0.6,0-1-0.1-1.3-0.4c-0.3-0.2-0.5-0.6-0.5-1v-0.1
				c0,0,0-0.1,0-0.1c0-0.3,0.1-0.6,0.3-0.9c0.2-0.3,0.4-0.7,0.7-1c0.3-0.4,0.6-0.7,0.9-1.1c0.3-0.4,0.6-0.7,0.9-1.1
				c0.3-0.3,0.5-0.6,0.7-0.9c0.2-0.3,0.3-0.5,0.3-0.7c0-0.1,0-0.2-0.1-0.2c-0.1-0.1-0.2-0.1-0.4-0.1c-0.3,0-0.6,0.1-0.9,0.2
				c-0.3,0.2-0.6,0.4-0.9,0.6c-0.3,0.3-0.6,0.5-0.9,0.9c-0.3,0.3-0.6,0.7-0.8,1c-0.3,0.4-0.5,0.7-0.7,1.1c-0.2,0.4-0.4,0.7-0.5,1
				c0,0.1-0.1,0.2-0.2,0.4c-0.1,0.2-0.2,0.4-0.3,0.6c-0.1,0.2-0.2,0.4-0.3,0.7c-0.1,0.2-0.2,0.4-0.3,0.6c-0.1,0.2-0.2,0.4-0.2,0.5
				c-0.1,0.2-0.1,0.3-0.1,0.3c0,0.1-0.1,0.2-0.2,0.4c-0.1,0.2-0.2,0.5-0.3,0.8c-0.1,0.3-0.2,0.6-0.3,0.9c-0.1,0.3-0.2,0.6-0.3,0.9
				c-0.1,0.3-0.2,0.5-0.3,0.7c-0.1,0.2-0.1,0.4-0.2,0.4c-0.1,0.2-0.2,0.4-0.3,0.6c-0.1,0.2-0.2,0.4-0.3,0.5
				c-0.1,0.2-0.3,0.3-0.4,0.4c-0.2,0.1-0.3,0.1-0.6,0.1c-0.3,0-0.5-0.1-0.6-0.2c-0.2-0.1-0.3-0.4-0.3-0.7c0-0.2,0-0.3,0.1-0.5
				c0-0.2,0.1-0.4,0.2-0.5c0.1-0.2,0.1-0.3,0.2-0.5c0.1-0.2,0.1-0.3,0.2-0.5c0.4-0.9,0.8-1.7,1.2-2.6c0.4-0.9,0.8-1.7,1.2-2.6
				c0.1-0.2,0.1-0.4,0.2-0.5c0,0,0,0-0.1,0.1c-0.5,0.5-0.9,0.9-1.4,1.2c-0.5,0.3-0.9,0.6-1.4,0.8c-0.5,0.2-0.9,0.3-1.3,0.3
				c-0.3,0-0.5,0-0.7-0.1c-0.2-0.1-0.4-0.2-0.5-0.4c-0.1-0.2-0.2-0.4-0.3-0.6c0-0.1,0-0.2,0-0.2c-0.1,0.1-0.3,0.2-0.4,0.3
				c-0.5,0.3-0.9,0.6-1.3,0.8c-0.4,0.2-0.8,0.3-1.2,0.3c-0.3,0-0.6-0.1-0.9-0.3c-0.2-0.2-0.3-0.6-0.3-1.2c0-0.4,0.1-0.9,0.2-1.4
				c-0.2,0.3-0.4,0.7-0.7,1c-0.3,0.3-0.6,0.7-1,0.9c-0.4,0.3-0.8,0.5-1.2,0.7c-0.5,0.2-0.9,0.3-1.5,0.3c-0.2,0-0.5,0-0.7-0.1
				c-0.2-0.1-0.4-0.2-0.6-0.3c-0.2-0.1-0.3-0.3-0.4-0.6c-0.1-0.2-0.2-0.6-0.2-0.9c0,0,0-0.1,0-0.4c0-0.3,0.1-0.7,0.3-1.2
				c0.2-0.5,0.4-1.3,0.7-2.1c0.3-0.9,0.8-1.9,1.4-3.2c0.2-0.3,0.3-0.6,0.5-0.7c0.2-0.1,0.4-0.2,0.6-0.2c0.1,0,0.2,0,0.3,0
				c0.1,0,0.2,0.1,0.3,0.1c0.1,0.1,0.2,0.1,0.2,0.2c0.1,0.1,0.1,0.2,0.1,0.3c0,0.1,0,0.2,0,0.2c0,0.1-0.1,0.3-0.2,0.6
				c-0.1,0.2-0.3,0.5-0.4,0.8c-0.2,0.3-0.3,0.6-0.5,1c-0.2,0.4-0.3,0.7-0.5,1.1c-0.2,0.4-0.3,0.8-0.4,1.2c-0.1,0.4-0.2,0.8-0.2,1.1
				c0,0.2,0,0.3,0.1,0.4c0.1,0.1,0.2,0.2,0.4,0.2c0.5,0,0.9-0.2,1.4-0.5c0.4-0.3,0.8-0.7,1.2-1.2c0.4-0.5,0.7-1,1-1.5
				c0.3-0.5,0.5-1,0.7-1.5c0.1-0.3,0.3-0.6,0.4-0.9c0.1-0.3,0.2-0.6,0.3-0.9c0.1-0.3,0.3-0.5,0.4-0.7c0.2-0.2,0.4-0.3,0.6-0.3
				c0.3,0,0.5,0.1,0.6,0.3c0.2,0.2,0.2,0.4,0.2,0.7c0,0.2,0,0.4-0.1,0.6c-0.1,0.3-0.2,0.6-0.4,0.9c-0.1,0.3-0.3,0.7-0.5,1.1
				c-0.2,0.4-0.3,0.8-0.5,1.2c-0.1,0.4-0.3,0.8-0.4,1.2c-0.1,0.4-0.1,0.8-0.1,1.1c0,0.3,0.2,0.5,0.5,0.5c0.2,0,0.5-0.1,0.8-0.2
				c0.3-0.2,0.7-0.4,1.1-0.7c0.1-0.1,0.2-0.1,0.3-0.2c0.1-0.4,0.2-0.8,0.4-1.2c0.3-0.7,0.5-1.3,0.8-2c0.3-0.7,0.5-1.3,0.7-1.8
				l3.3-8.3c0.1-0.3,0.3-0.6,0.5-0.7c0.2-0.1,0.4-0.2,0.7-0.2c0.2,0,0.4,0.1,0.6,0.2c0.2,0.1,0.3,0.4,0.3,0.7c0,0.2,0,0.3-0.1,0.5
				c-0.1,0.2-0.1,0.4-0.2,0.6c-0.2,0.4-0.4,0.9-0.6,1.5c-0.3,0.6-0.5,1.2-0.8,1.9c-0.3,0.7-0.6,1.4-0.9,2.2
				c-0.3,0.7-0.6,1.5-0.9,2.2c-0.3,0.7-0.6,1.4-0.8,2c-0.3,0.6-0.5,1.2-0.6,1.6c-0.1,0.2-0.2,0.4-0.2,0.7c-0.1,0.3-0.1,0.5-0.1,0.7
				c0,0.1,0,0.2,0.1,0.3c0,0.1,0.1,0.1,0.3,0.1c0.2,0,0.3-0.1,0.6-0.2c0.2-0.1,0.5-0.2,0.7-0.4c0.3-0.2,0.5-0.4,0.8-0.6
				c0.3-0.2,0.6-0.5,0.9-0.7c0.3-0.2,0.6-0.5,0.8-0.7c0.3-0.2,0.5-0.5,0.7-0.7c0,0,0.1-0.1,0.2-0.1c0.1-0.4,0.2-0.7,0.3-1.1
				c0.1-0.2,0.1-0.4,0.2-0.7c0.1-0.3,0.2-0.6,0.3-0.8c0.1-0.3,0.3-0.5,0.4-0.7c0.2-0.2,0.3-0.3,0.5-0.3c0.3,0,0.5,0.1,0.6,0.2
				c0.1,0.1,0.2,0.3,0.2,0.6c0,0.1,0,0.1,0,0.2c0,0.1,0,0.2-0.1,0.4c0,0.1,0,0.2-0.1,0.4c0,0.1,0,0.2-0.1,0.2
				c0.3-0.3,0.6-0.6,0.9-0.9c0.3-0.3,0.6-0.5,1-0.8c0.3-0.2,0.7-0.4,1-0.6c0.3-0.1,0.7-0.2,1-0.2c0.2,0,0.5,0,0.7,0.1
				c0.2,0.1,0.4,0.2,0.6,0.3c0.2,0.1,0.3,0.3,0.5,0.5c0.1,0.2,0.2,0.4,0.2,0.7c0,0.4-0.1,0.7-0.3,1.1c-0.2,0.4-0.4,0.8-0.7,1.2
				c-0.3,0.4-0.6,0.8-0.9,1.2c-0.3,0.4-0.6,0.7-0.9,1c-0.3,0.3-0.5,0.6-0.7,0.8c-0.2,0.2-0.3,0.4-0.3,0.4c0,0.1,0,0.2,0.1,0.3
				c0.1,0.1,0.2,0.1,0.3,0.1c0.1,0,0.3-0.1,0.5-0.2c0.2-0.1,0.6-0.4,1-0.7c0.4-0.3,1-0.8,1.6-1.4c0.5-0.4,1-0.9,1.6-1.4l2.9-26.7
				c-0.5,0.3-0.9,0.4-1.2,0.5C42.9,26.8,41.2,27.2,39.1,27.5z M23,21.1c-12.5,0-22.6,1.4-22.6,3.1c0,1.7,10.1,3.1,22.6,3.1
				s22.6-1.4,22.6-3.1C45.6,22.5,35.5,21.1,23,21.1z M32,25.2c0,0.4-1.2,0.7-2.7,0.7c-1.5,0-2.7-0.3-2.7-0.7c0-0.4,1.2-0.7,2.7-0.7
				C30.8,24.4,32,24.8,32,25.2z"/>
			<path id="Straw" sketch:type="MSShapeGroup" style="fill-rule:evenodd;clip-rule:evenodd;fill:#DA4648;" d="M27.2,24.8
				C27.2,24.9,27.2,24.9,27.2,24.8c0,0.3,0.9,0.5,2.1,0.5c1.2,0,2.2-0.2,2.2-0.5l2.8-11.4L45.5,1.6c0,0,0,0,0,0
				c0.2-0.3-0.2-1.1-1-1.8s-1.7-1-1.9-0.7c0,0,0,0,0,0l-12,12.6L27.2,24.8z"/>
		</g>
	</g>
</g>
</svg>
