<?xml version="1.0" encoding="utf-8"?>
<!-- Generator: Adobe Illustrator 25.0.0, SVG Export Plug-In . SVG Version: 6.00 Build 0)  -->
<svg version="1.1" id="Ebene_1" xmlns="http://www.w3.org/2000/svg" xmlns:xlink="http://www.w3.org/1999/xlink" x="0px" y="0px"
	 viewBox="0 0 193 65" style="enable-background:new 0 0 193 65;" xml:space="preserve">
<g>
	<path d="M88.8,31.6c-5,0-9.8,0-14.8,0c0,0.3,0,0.6,0,0.8c0,5.4,0,10.9,0,16.3c0,1.2-0.1,1.3-1.2,1.3c-0.8,0-1.6,0-2.3,0
		c-1.1,0-1.2-0.1-1.2-1.1c0-5.9,0-11.8,0-17.7c0-6.5,0-13,0-19.5c0-1.1,0.1-1.1,1.1-1.1c0.9,0,1.8,0,2.7,0c0.6,0,0.8,0.3,0.8,0.8
		c0,0.2,0,0.4,0,0.6c0,4.9,0,9.7,0,14.5c0,0.3,0,0.6,0,0.8c4.9,0,9.8,0,14.8,0c0-0.3,0-0.6,0-0.8c0-5,0-9.9,0-15
		c0-1,0.1-1.1,1.1-1.1c1,0,2,0,2.9,0c0.5,0,0.8,0.2,0.8,0.7c0,0.2,0,0.3,0,0.5c0,12.3,0,24.6,0,36.9c0,1.2-0.1,1.2-1.2,1.2
		c-0.8,0-1.7,0-2.5,0c-0.9,0-1-0.2-1-1c0-5.5,0-11,0-16.5C88.8,32.2,88.8,32,88.8,31.6z"/>
	<path d="M175.4,37.2c0.1,2.5,0.5,4.9,2,6.9c2,2.7,4.8,3.3,7.9,2.7c1.6-0.3,3.1-1,4.5-1.9c0.5-0.3,0.8-0.2,1,0.3
		c0.3,0.8,0.7,1.6,1,2.3c0.1,0.2-0.1,0.4-0.2,0.7c-0.1,0.1-0.2,0.2-0.3,0.2c-3.8,2.1-7.8,3.1-12.1,1.9c-3.2-0.9-5.5-2.9-6.8-5.9
		c-2.5-5.8-2.5-11.6,0.4-17.2c2.7-5.3,9.4-7.2,14.5-4.4c2.5,1.4,3.7,3.6,4.5,6.2c0.7,2.3,0.8,4.7,0.8,7.1c0,0.9-0.2,1.1-1.1,1.1
		c-5.1,0-10.2,0-15.3,0C176,37.2,175.7,37.2,175.4,37.2z M187.7,33.6c0.2-1.5-0.3-4-1.1-5.4c-1.3-2.5-3.7-3.5-6.4-2.7
		c-3,0.8-5.3,4.9-4.7,8.2C179.5,33.6,183.6,33.6,187.7,33.6z"/>
	<path d="M103.8,37.2c0.2,3.1,0.7,6,3.1,8.1c2.2,2,4.8,2.1,7.4,1.3c1.3-0.4,2.6-1.1,3.9-1.7c0.7-0.3,0.8-0.4,1.1,0.4
		c0.3,0.7,0.5,1.4,0.8,2c0.3,0.6,0.1,0.8-0.3,1.1c-1.2,0.6-2.5,1.2-3.7,1.6c-2.6,0.9-5.3,1.1-7.9,0.4c-3.7-0.9-6.3-3.2-7.6-6.7
		c-2.1-5.3-2.1-10.7,0.3-15.9c2.3-5.3,7.8-7.5,13.2-5.8c3.3,1.1,5.1,3.5,6,6.7c0.8,2.5,0.9,5,0.9,7.5c0,0.7-0.4,0.8-1,0.8
		c-5.1,0-10.2,0-15.3,0C104.4,37.2,104.2,37.2,103.8,37.2z M116.2,33.5c0-1.8-0.3-3.6-1.1-5.3c-1.2-2.5-3.7-3.6-6.4-2.9
		c-3.4,0.8-5,5-4.8,8.2C108,33.5,112,33.5,116.2,33.5z"/>
	<path d="M149.8,25.5c0.6-0.4,1.1-0.8,1.6-1.2c2.5-1.8,5.3-2.9,8.4-2.7c1.2,0.1,2.4,0.3,3.5,1c1.7,1.1,2.3,2.9,2.5,4.8
		c0.1,1,0.2,1.9,0.2,2.8c0,6.3,0,12.5,0,18.8c0,1-0.1,1.1-1.1,1.1c-0.8,0-1.6,0-2.4,0s-1-0.2-1-1c0-2.9,0-5.6,0-8.5
		c0-3.6,0-7.2,0-10.7c0-0.4,0-0.8-0.1-1.2c-0.4-2.3-1.7-3.3-4.1-3.2c-2.7,0.2-5,1.5-6.9,3.4c-0.2,0.2-0.2,0.6-0.2,0.9
		c0,6.4,0,12.8,0,19.2c0,1.1-0.1,1.2-1.2,1.2c-0.7,0-1.3,0-2,0c-1.1,0-1.2-0.1-1.2-1.2c0-6.4,0-12.7,0-19.1c0-2-0.1-4-1.1-5.8
		c-0.1-0.2,0.1-0.6,0.2-0.7c0.9-0.6,1.8-1.1,2.7-1.6c0.5-0.3,0.8,0.1,1,0.4c0.3,0.8,0.6,1.6,0.9,2.5
		C149.6,24.9,149.6,25.2,149.8,25.5z"/>
	<path d="M131.3,26.4c0.5-0.6,0.8-1.1,1.3-1.5c0.8-0.8,1.7-1.7,2.6-2.4c1.5-1.1,3.2-1.2,4.9-0.6c0.8,0.3,0.9,0.5,0.6,1.3
		c-0.4,0.9-0.8,1.8-1.2,2.7c-0.2,0.4-0.4,0.5-0.8,0.3c-1.2-0.7-2.5-0.5-3.4,0.4c-1.2,1.1-2.2,2.3-3.3,3.5c-0.2,0.2-0.2,0.5-0.2,0.8
		c0,6,0,12,0,17.9c0,1-0.1,1.1-1.2,1.1c-0.8,0-1.6,0-2.3,0c-0.7,0-0.9-0.3-0.9-1c0-1.3,0-2.7,0-4.1c0-5.1,0-10.2,0-15.4
		c0-1.7-0.3-3.4-1.2-4.9c-0.6-1.1-0.5-1.2,0.5-1.9c0.5-0.3,1.1-0.7,1.6-1c0.7-0.4,1-0.4,1.4,0.3c0.5,1,0.8,2.1,1.2,3.1
		C131.1,25.7,131.2,25.9,131.3,26.4z"/>
</g>
<g>
	<path style="fill:#00A4D6;" d="M23.1,17.7c0.3-0.1,0.6-0.2,0.9-0.4c0.8-0.4,1.7-0.8,1.8-1.9c0.1-0.4,0.6-0.7,1-1c0,0,0-0.1-0.1-0.1
		c-1.2-0.2-2.4-0.6-3.6-0.7c-0.3-0.1-0.8,0.3-1.1,0.6c-0.6,0.6-1.1,0.7-1.8,0.4c-0.2-0.1-0.5-0.2-0.7-0.2c-0.5,0.1-0.8-0.1-1-0.6
		c-0.4-1-0.4-1.1,0.5-1.5c0-0.1,0-0.1-0.1-0.1c-1.1,0.1-1.3-0.9-1.8-1.5c-0.2-0.3-0.1-0.9,0.1-1.3c0.2-0.5,0.6-1,0.9-1.4
		c0.3-0.4,2-1,2.5-0.7c0.9,0.4,1.8,0.2,2.7-0.1c0.4-0.2,1-0.3,1.3-0.5c0.3-0.2,0.6-0.4,0.8-0.7c0.5-0.7,1-0.9,1.8-0.7
		c0.4,0.1,0.8,0.1,1.4,0.2C27.9,5,28,4.3,28.3,3.6c0.1-0.3,0.1-0.6,0.1-1c-0.1-0.6,0.3-0.8,0.7-0.4c0.5,0.4,0.8,1,1.2,1.5
		c0.1,0.2,0.2,0.4,0.3,0.6c0.2-0.2,0.4-0.3,0.5-0.4c0.1-0.1-0.1-0.3-0.2-0.6c0.8,0.2,1,0.8,0.4,1.8c0.5-0.2,0.5-0.2,0.8-1.5
		c0.8,0.2,0.6,0.9,0.7,1.5c0.1,0,0.1,0,0.2,0.1c0.1-0.4,0.2-0.8,0.3-1.3C33.5,4.2,33.7,4.6,34,5c0.2-0.1,0.6-0.2,0.9-0.2
		c0.1,0,0.3,0.1,0.4,0.1c-0.1,0.1-0.1,0.2-0.2,0.3c0.2,0.1,0.5,0.1,0.8,0.2c0,0.1,0,0.1,0.1,0.2c-0.3,0.2-0.7,0.3-1.1,0.6
		c0.6,0,1,0,1.5,0.1c0.2,0.1,0.3,0.3,0.5,0.4c-0.2,0.1-0.4,0.2-0.6,0.2c-0.2,0-0.3,0-0.7-0.1c0.5,0.4,1.5,0,1.5,1
		c-0.4,0-0.8,0-1.2,0c0.8,0.4,1.6,0.7,2.3,1.2c0.2,0.1,0.3,0.3,0.4,0.6c-0.4,0.1-0.7,0.2-1.1,0.3c0,0.1,0,0.1,0,0.2
		c0.4,0.1,0.8,0.1,1.2,0.1c0,0.1,0,0.1,0,0.2c-0.2,0.1-0.4,0.2-0.7,0.3c0.6,0.2,1.2,0.4,1.2,1.2c-0.4,0.2-0.7,0.3-1,0.5
		c0.3,0.4,0.6,0.8,0.9,1.2c-0.4,0.2-0.7,0.4-1,0.5c0.1,0.1,0.1,0.1,0.2,0.2l17.9-4.2c-5.6-6-13.9-9.8-23-9.9
		C18.1-0.1,6,9.7,1.9,22.7L23.1,17.7z"/>
	<path style="fill:#007C31;" d="M9.9,31.9c1.1-1.5,2.1-3,3.2-4.4c0.4-0.5,1.2-0.5,1.6,0.1c0.2,0.2,0.4,0.4,0.5,0.7
		c0.4,1,1.3,1.6,2.3,1.8c0.5,0.2,0.9,0.3,1,0.8c0.1,0.2,0.2,0.3,0.4,0.6c-1,0.1-1.8-0.2-2.7-0.5c-0.3-0.1-0.6-0.3-0.8-0.4
		c-0.5-0.2-1-0.2-1.5,0.1c-1.2,0.5-1.6,1.4-2,2.6c-0.6,1.5-1.2,3.1-2.7,4.1c-1,0.7-1.6,1.5-1.5,2.7c0,0.3-0.1,0.7-0.2,1
		c0,0.3,0.1,0.7,0.1,1c0.3-0.1,0.6-0.1,1-0.2c0.2-0.1,0.3-0.2,0.5-0.2C9.1,41.9,9,42,8.8,42.1c-0.7,0.6-1.2,2-0.8,2.9
		c0.1,0.2,0.6,0.3,0.7,0.3c1.3-0.6,2.4-1.5,2.8-2.9c0.1-0.5-0.3-1.1-0.6-1.7c0-0.1-0.1-0.1-0.1-0.2c-0.3-0.3-0.6-0.6-0.2-1
		c0.1-0.1,0.6,0.2,1,0.4c0.1,0,0.1,0.1,0.2,0.2c0.1-0.3,0.2-0.6,0.3-0.9c0.5,0,0.6-0.3,0.4-0.9c-0.1-0.3-0.2-0.6-0.3-1
		c0.3,0.2,0.5,0.2,0.7,0.3c0.1-0.2,0.2-0.4,0.2-0.6c-0.1-0.7,0.2-1.2,0.6-1.7c0.4-0.7,1-1,1.7-1.1c0.8-0.1,1.3,0.2,1.8,0.6
		c1.1,0.7,2.2,1.4,3.5,1.5c0.2,0,0.5,0.2,0.7,0.3c0.9,0.8,1.9,1.2,3.1,1c0.4-0.1,0.7-0.3,1-0.4c1.6,1.5,3.4,2.2,5.6,2
		c1.2-0.1,2.4,0,3.7,0.1c-1,0.6-2,1.2-3,1.8c-0.6,0.3-1.1,0.7-1.5,1.2c-0.6,0.6-0.6,1.5-0.3,2.2c0.4,1,0.9,2,2,2.4
		c0.2,0.1,0.4,0.3,0.6,0.6c-0.6-0.7-1.1-0.3-1.6,0.1c-2,1.6-4.3,2.5-6.7,3.1c-0.8,0.2-1.3,0.7-1.5,1.4c-0.3,1.2-1.2,1.6-2.3,1.8
		c-2.9,0.8-5.7,1.6-8.6,2.5c-0.4,0.1-0.7,0.1-1.1-0.2C5.6,51.5,2.3,45.5,1,38.5c-1-5.1-0.7-10.2,0.8-15.3c0.2-0.5,0.4-0.7,0.9-0.8
		c6.6-1.5,13.2-3,19.8-4.6c0.1,0,0.1,0,0.3,0c-1.2,0.9-1.8,2.2-2.4,3.4c0,0,0,0.1-0.1,0.1c-1.5,0.8-1.7,2.4-2.3,3.7
		c0,0.1-0.1,0.1-0.2,0.1c-1.1-0.4-2.1-1-3.2-1.5c-0.8-0.4-2.3,0.3-2.8,1.2c-1.1,2-2.1,4.1-4.4,5c-0.3,0.1-0.5,0.5-0.7,0.8
		c-0.3,0.6-0.4,1.2-0.7,1.8c-0.3,0.8-0.1,1.2,1,1.1c-1.3,0.8-0.7,1.9-0.6,2.9c0,0.1,0.5,0.3,0.7,0.2c0.5-0.2,1-0.6,1.5-0.9
		c0.2-0.1,0.3-0.3,0.5-0.4c1.1-1,1.1-2-0.1-2.9c-0.4-0.3-0.4-0.6-0.2-0.9c0.4-0.4,0.6,0,0.7,0.2C9.8,31.9,9.8,31.9,9.9,31.9z"/>
	<path style="fill:#007C31;" d="M56.6,43.7c0.5-0.9,0.8-1.7,1.3-2.3c1.1-1.6,1.9-3.4,2-5.3c0.1-3-1.7-6.1-5.6-5.2
		c-1.4,0.3-2.8,0.7-4.2,1c-0.3,0.1-0.7-0.1-0.9-0.2c-1.7-2.1-4-2.7-6.6-2.7c-1,0-2,0.1-3-0.2c-1.5-0.3-2.9-0.8-4.2-1.4
		c-0.7-0.3-1.5-0.8-2.1-1.3c-0.2-0.1-0.3-0.5-0.3-0.7c0.1-0.2,0.4-0.4,0.6-0.4c0.7-0.2,0.9-0.1,1.2,0.4c0.8-0.3,0.8-0.7-0.2-1.7
		c0.4-0.1,0.8-0.2,1.1-0.1c0.3,0.1,0.6,0.3,0.7-0.2c0.2-0.3,0.2-0.7-0.3-1c-0.1-0.1-0.3-0.1-0.4-0.1c0.4-0.7,0.8-0.8,1.5-0.6
		c0.5-0.7,0.4-1.1-0.5-1.6c0.3-0.4,0.3-0.4,1.5-0.2c0.2-0.8-0.2-1.4-1.1-1.7c0.3-0.4,0.7-0.4,1.2-0.3c0.6,0.2,0.6,0.1,0.5-0.5
		c-0.1-0.6-0.4-1-1-1.1c0.1-0.5,0.4-0.7,0.9-0.7c0.2,0,0.6-0.1,0.6-0.1c0-0.3,0-0.6-0.2-0.8c-0.2-0.3-0.4-0.6-0.7-0.8
		c0.9-0.2,2-0.4,3-0.7c4.8-1.1,9.5-2.2,14.2-3.3c0.4-0.1,0.7,0,1,0.3c4.7,5.1,7.5,11.2,8.4,18.1c0.5,4.2,0.2,8.3-0.8,12.4
		c-0.1,0.4-0.3,0.7-0.8,0.9c-2,0.6-4.1,1.2-6.1,1.7C57.2,43.6,57,43.6,56.6,43.7z"/>
	<path style="fill:#007C31;" d="M50.4,35.3c0.4-0.1,0.7-0.1,1.1-0.2c1.4-0.1,2.1,1,1.6,2.2c-0.2,0.4-0.4,0.7-0.7,1.1
		c-1.3,1.5-1,3.1-0.3,4.8c0.2,0.5,0.5,1,0.8,1.6c-1.2,0.3-2.3,0.7-3.4,1c-0.1,0.1-0.3-0.1-0.4-0.2c-0.4-0.8-0.8-1.6-0.4-2.6
		c0.1-0.3,0.1-0.6,0.3-0.8C49.8,40,50.4,37.8,50.4,35.3z"/>
	<path style="fill:#007C31;" d="M40.3,42.4c0.9,0.7,1.8,1.5,2.3,2.6c0.3,0.8,0.7,1.6,1.2,2.5C41.9,48,40,48.5,38,49.1
		c0.1-0.9-0.1-1.6-0.6-2.2c-0.2-0.3-0.2-0.9-0.1-1.2c0.4-0.7,0.9-1.2,1.5-1.8C39.2,43.4,39.7,42.9,40.3,42.4z"/>
	<path style="fill:#FABB22;" d="M56.6,43.8c-0.1,0.2-0.1,0.4-0.1,0.6c-0.1,1,0.1,2,0.3,2.9c0.2,1-0.4,2.2-1.3,2.6
		c-0.1,0.1-0.2,0-0.4,0.1c0.4-1.5-0.1-2.6-1.1-3.6c-0.4-0.4-0.8-1-1.2-1.5l-3.7,1.1c0.3,0.4,0.7,0.8,1.1,1.2c0.8,0.7,0.8,1.1,0.3,2
		c-0.2,0.4-0.3,0.9-0.6,1.3c-0.2,0.3-0.4,0.4-0.7,0.6c-0.2,0.2-0.6,0.2-0.7,0.4c-1,1-1.9,2-2.8,3c-0.2,0.3-0.4,0.7-0.3,1.1
		c0.1,0.5-0.1,0.8-0.5,1.1c-0.1-0.2-0.2-0.4-0.5-0.7c-0.2,0.3-0.3,0.5-0.3,0.7c0,0.6,0,0.5-0.5,0.6c-0.2,0.1-0.4,0.3-0.7,0.4
		c-0.3,0.1-0.7,0-0.9,0.1c-0.3,0.2-0.2,0.6,0,1c0.5,0.8,0.4,1.6-0.3,2.2c-0.8,0.6-1.6,1.1-2.5,1.5c-1.1,0.4-1.6-0.3-1.3-1.1
		c0.1-0.1,0.1-0.2,0.1-0.3c0.1-0.8,0.2-1.7,1.3-1.7c0.1,0,0.2-0.1,0.3-0.1c0.1-0.1,0.1-0.1,0.3-0.3c-0.4,0-0.7,0.1-1,0
		s-0.8-0.2-0.8-0.3c-0.1-0.3,0-0.8,0.2-1.1c0.3-0.6,0.7-1.2,1.2-1.7c0.5-0.4,1.2-0.7,1.8-1c0.5-0.3,1.2-0.4,1.6-0.8
		c1.3-1.3,2.4-2.8,2.4-4.8c0-0.6-0.2-1-0.6-1.2c-0.2-0.1-0.4-0.3-0.7-0.4l-6.7,2c-0.1,0.1-0.2,0.2-0.4,0.3c-1.5,0.9-3,1.1-4.7,1.1
		c-0.1,0-0.2,0-0.3,0l-1.6,0.4c-0.2,0.2-0.3,0.3-0.4,0.6C30,52,29.6,52,29.4,52c-0.3,0.1-0.6,0.1-0.7,0.2c-0.5,0.3-1,0.6-1.5,0.9
		c-0.1,0.1-0.4-0.1-0.4-0.2c-0.1-0.3-0.3-0.4-0.5-0.4L26,52.6c-0.1,0-0.1,0.1-0.2,0.1c-0.4,0.2-0.3,0.5-0.2,0.9
		c0.7,1.5,0.6,1.8-0.7,2.7c-0.6,0.4-1.1,0.8-1.7,1.2c-0.3,0.2-0.8,0.2-0.9,0.1c-0.2-0.2-0.4-0.7-0.3-1c0.1-0.6,0.2-1.1,0.4-1.6
		c0.1-0.3,0.4-0.4,0.7-0.6c-0.6-0.1-0.9-0.2-1-0.6l-10.7,3.1C17.2,62,24.8,65.1,33,65c14.6,0.1,27.2-9.7,31.2-23.4L56.6,43.8z"/>
</g>
</svg>
