<?xml version="1.0" encoding="utf-8"?>
<!-- Generator: Adobe Illustrator 25.0.0, SVG Export Plug-In . SVG Version: 6.00 Build 0)  -->
<svg version="1.1" id="Ebene_1" xmlns="http://www.w3.org/2000/svg" xmlns:xlink="http://www.w3.org/1999/xlink" x="0px" y="0px"
	 viewBox="0 0 71 100" style="enable-background:new 0 0 71 100;" xml:space="preserve">
<g>
	<polygon style="fill:#E44D26;" points="6.4,92 0,19.7 70.8,19.7 64.4,92 35.4,100 	"/>
	<polygon style="fill:#F16529;" points="35.4,93.9 58.9,87.4 64.4,25.6 35.4,25.6 	"/>
	<polygon style="fill:#EBEBEB;" points="35.4,52.4 23.7,52.4 22.9,43.3 35.4,43.3 35.4,34.4 35.4,34.4 13.2,34.4 13.4,36.8 
		15.6,61.3 35.4,61.3 	"/>
	<polygon style="fill:#EBEBEB;" points="35.4,75.4 35.4,75.4 25.5,72.8 24.9,65.7 20.1,65.7 16,65.7 17.2,79.6 35.4,84.7 35.4,84.6 
			"/>
	<path d="M6.6,0h4.5v4.5h4.1V0h4.5v13.5h-4.5V9h-4.1v4.5H6.6L6.6,0L6.6,0z"/>
	<path d="M25.7,4.5h-4V0h12.4v4.5h-4v9h-4.5L25.7,4.5L25.7,4.5z"/>
	<path d="M36.1,0h4.7l2.9,4.7L46.6,0h4.7v13.5h-4.5V6.8l-3.1,4.8h-0.1l-3.1-4.8v6.7h-4.4V0z"/>
	<path d="M53.5,0H58v9h6.3v4.5H53.5V0z"/>
	<polygon style="fill:#FFFFFF;" points="35.4,52.4 35.4,61.3 46.3,61.3 45.3,72.8 35.4,75.4 35.4,84.7 53.6,79.6 53.7,78.1 
		55.8,54.8 56,52.4 53.6,52.4 	"/>
	<polygon style="fill:#FFFFFF;" points="35.4,34.4 35.4,39.9 35.4,43.3 35.4,43.3 56.8,43.3 56.8,43.3 56.8,43.3 57,41.3 57.4,36.8 
		57.6,34.4 	"/>
</g>
</svg>
