<?xml version="1.0" encoding="utf-8"?>
<!-- Generator: Adobe Illustrator 25.0.0, SVG Export Plug-In . SVG Version: 6.00 Build 0)  -->
<svg version="1.1" id="Ebene_1" xmlns="http://www.w3.org/2000/svg" xmlns:xlink="http://www.w3.org/1999/xlink" x="0px" y="0px"
	 viewBox="0 0 72 100" style="enable-background:new 0 0 72 100;" xml:space="preserve">
<path style="fill:#E6A329;" d="M71.5,19.6h-71l6.7,72.2L36,100l28.9-8.2L71.5,19.6z"/>
<path style="fill:#F1BF22;" d="M36,25.5v68.4l23.4-6.6l5.7-61.8L36,25.5z"/>
<path style="fill:#FFFFFF;" d="M54.6,34.3H18.6l-2.5,27l0.1-0.2h30.5l-1,11.4L36,75.5l-9.9-2.8l-0.6-6.9h-9l1.3,13.8L36,84.7
	l18.2-5.2l2.5-27.2H24.3l0.4-9h22.5l0.3,5.2h9.1L54.6,34.3z"/>
<path style="fill:#EBEBEB;" d="M36,34.3H18.6l-2.5,27l0.1-0.2H36v-8.8H25.5l0.4-9H36V34.3z M25.5,65.7h-9l1.3,13.8L36,84.7v-9.2
	l-9.9-2.9L25.5,65.7z"/>
<path style="fill:#231F20;" d="M29.1,8.9h-6.3v4.5h10.8V0h-4.5V8.9z M49.2,0.1h-11v4.7c1.5,1.5,2.2,2.2,4.4,4.3h-4.4v4.3h11V9.1
	l-4.4-4.3h4.4V0.1z"/>
</svg>
