<?xml version="1.0" encoding="utf-8"?>
<!-- Generator: Adobe Illustrator 25.0.0, SVG Export Plug-In . SVG Version: 6.00 Build 0)  -->
<svg version="1.1" id="Ebene_1" xmlns="http://www.w3.org/2000/svg" xmlns:xlink="http://www.w3.org/1999/xlink" x="0px" y="0px"
	 viewBox="0 0 95 100" style="enable-background:new 0 0 95 100;" xml:space="preserve">
<path style="fill:#0868AC;" d="M17.6,15.4c-6,8.7-5.3,19.9-0.7,29.1l0.3,0.7l0.2,0.4l0.1,0.2l0.2,0.4c0.1,0.3,0.3,0.5,0.4,0.8
	l0.3,0.4c0.2,0.3,0.3,0.5,0.5,0.8l0.2,0.3c0.2,0.4,0.5,0.7,0.7,1.1l0,0l0.1,0.2c0.2,0.3,0.4,0.6,0.7,0.9l0.3,0.3
	c0.2,0.3,0.4,0.5,0.6,0.8l0.2,0.3c0.3,0.3,0.6,0.7,0.9,1l0,0l0,0c0.3,0.3,0.6,0.6,0.9,0.9l0.3,0.3c0.2,0.2,0.5,0.5,0.7,0.7l0.3,0.3
	c0.3,0.3,0.6,0.6,1,0.9l0,0l0.2,0.1c0.3,0.3,0.6,0.5,0.9,0.7l0.4,0.3c0.2,0.2,0.5,0.4,0.7,0.6l0.4,0.3c0.3,0.2,0.5,0.4,0.8,0.6
	l0.3,0.2l0.1,0.1c0.3,0.2,0.5,0.4,0.8,0.5l0.3,0.2c0.4,0.3,0.8,0.5,1.2,0.8l0.3,0.2c0.3,0.2,0.6,0.4,0.9,0.5l0.5,0.3l0.7,0.3
	l0.2,0.1l0.3,0.1c0.4,0.2,0.7,0.3,1.1,0.5l0.2,0.1c0.4,0.2,0.8,0.4,1.2,0.5l0.3,0.1c0.4,0.1,0.8,0.3,1.2,0.4l0.1,0.1
	c0.4,0.2,0.9,0.3,1.3,0.4l0.3,0.1c0.4,0.1,0.9,0.3,1.3,0.4c29.2,5.3,37.6-17.5,37.6-17.5C72.6,56.5,60,59,48,56.3
	c-0.5-0.1-0.9-0.2-1.3-0.4l-0.3-0.1c-0.4-0.1-0.9-0.3-1.3-0.4l-0.2-0.1c-0.4-0.1-0.8-0.3-1.1-0.4l-0.3-0.1c-0.4-0.2-0.8-0.3-1.2-0.5
	L42,54.1c-0.3-0.2-0.7-0.3-1-0.5l-0.3-0.1c-0.3-0.1-0.5-0.3-0.8-0.4l-0.5-0.3c-0.3-0.2-0.6-0.4-1-0.5L38,52.1
	c-0.4-0.2-0.8-0.5-1.2-0.8l-0.3-0.2c-0.3-0.2-0.6-0.4-0.9-0.6l-0.3-0.2c-0.3-0.2-0.6-0.4-0.8-0.6l-0.4-0.3c-0.3-0.2-0.5-0.4-0.8-0.6
	L33,48.6c-0.3-0.3-0.6-0.5-0.9-0.8l-0.1-0.1c-0.3-0.3-0.7-0.6-1-0.9l-0.3-0.3c-0.2-0.2-0.5-0.5-0.7-0.7l-0.3-0.3
	c-0.3-0.3-0.6-0.6-0.9-0.9l0,0c-0.3-0.3-0.6-0.7-0.9-1l-0.2-0.3c-0.2-0.3-0.4-0.5-0.6-0.8l-0.2-0.3c-0.3-0.3-0.5-0.7-0.7-1
	c-6.6-9.1-9-21.5-3.7-31.8 M36.3,8.1c-4.4,6.3-4.1,14.7-0.7,21.3c0.6,1.1,1.2,2.2,1.9,3.2c0.7,0.9,1.4,2.1,2.2,2.8
	c0.3,0.3,0.6,0.7,1,1l0.3,0.3c0.3,0.3,0.7,0.6,1,0.9l0,0l0,0c0.4,0.3,0.8,0.7,1.2,1l0.3,0.2c0.4,0.3,0.8,0.6,1.2,0.9l0,0l0.6,0.4
	l0.3,0.2c0.3,0.2,0.6,0.4,0.9,0.6l0.1,0.1c0.3,0.2,0.5,0.3,0.8,0.4l0.3,0.1l0.6,0.3l0.1,0c0.4,0.2,0.8,0.4,1.2,0.5l0.3,0.1
	c0.3,0.1,0.6,0.3,1,0.4l0.4,0.2c0.3,0.1,0.6,0.2,0.9,0.3l0.4,0.1c0.4,0.1,0.8,0.3,1.3,0.4c22.5,3.7,27.7-13.6,27.7-13.6
	c-4.7,6.7-13.8,10-23.4,7.5c-0.4-0.1-0.9-0.2-1.3-0.4l-0.4-0.1c-0.3-0.1-0.6-0.2-0.9-0.3L55,36.7c-0.3-0.1-0.6-0.3-1-0.4l-0.3-0.1
	c-0.4-0.2-0.8-0.4-1.2-0.5L52,35.4l-0.3-0.2c-0.3-0.1-0.5-0.3-0.7-0.4l-0.2-0.1c-0.3-0.2-0.6-0.4-0.9-0.6L49.6,34L49,33.6
	c-0.4-0.3-0.8-0.6-1.2-0.9l-0.3-0.2c-4.2-3.3-7.6-7.9-9.2-13.1C36.6,14,37,8,39.9,3.1 M52.1,2.7c-2.6,3.8-2.8,8.5-1,12.7
	c1.9,4.4,5.7,7.9,10.2,9.6l0.6,0.2l0.2,0.1c0.3,0.1,0.5,0.2,0.8,0.2c12.4,2.4,15.8-6.4,16.7-7.7c-3,4.3-7.9,5.3-14,3.8
	c-0.5-0.1-1-0.3-1.5-0.5c-0.6-0.2-1.2-0.5-1.7-0.7c-1.1-0.5-2.1-1.1-3.1-1.9C53.8,14.3,50.4,6.4,54,0"/>
<path style="fill:#131B28;" d="M49.3,77.6h-3.5c-0.2,0-0.4,0.2-0.4,0.3l-1.2,5.7l-1.2,5.7c0,0.2-0.2,0.3-0.4,0.3H40
	c-2.4,0-2.1-1.7-1.6-4l0-0.1l0.1-0.3l0-0.1l0.1-0.6l0.1-0.6l0.1-0.6l0.6-2.7l0.6-2.7c0-0.2-0.1-0.3-0.3-0.3h-3.6
	c-0.2,0-0.4,0.2-0.4,0.3l-0.8,3.6l-0.8,3.6l0,0l-0.1,0.3c-0.9,4-0.6,7.9,4.1,8l0.1,0h7.5c0.2,0,0.4-0.2,0.4-0.3l1.6-7.6l1.6-7.6
	C49.6,77.8,49.5,77.6,49.3,77.6z M12.2,77.6H8.4c-0.2,0-0.4,0.2-0.4,0.3l-0.4,1.6l-0.4,1.6c0,0.2,0.1,0.3,0.3,0.3h3.8
	c0.2,0,0.4-0.2,0.4-0.3l0.3-1.6l0.3-1.6C12.5,77.7,12.4,77.6,12.2,77.6z M11.1,82.5H7.2c-0.2,0-0.4,0.2-0.4,0.3l-0.5,2.4l-0.5,2.4
	l-0.2,0.7l-0.5,2.4l-0.5,2.4c0,0.2-0.1,0.5-0.2,0.7c0,0-0.7,2.1-1.9,2.1l-0.2,0l-1,0h0c-0.2,0-0.4,0.1-0.4,0.3L0.4,98L0,99.6
	c0,0.2,0.1,0.3,0.3,0.3c0.7,0,2.2,0,3.1,0c3,0,4.6-1.7,5.6-6.5l1.2-5.5l1.1-5.2C11.4,82.7,11.2,82.5,11.1,82.5z M81.7,81.2l-0.2-0.7
	l-0.2-0.7l-0.1-0.3c-0.3-1.2-1.2-1.9-3.2-1.9l-3.1,0l-2.8,0h-3.2c-0.2,0-0.4,0.2-0.4,0.3l-0.1,0.7l-0.2,0.8l0,0.2l-1.4,6.8l-1.4,6.4
	c0,0.2-0.1,0.4,0,0.5c0,0.1,0.4,0.2,0.6,0.2h2.9c0.2,0,0.4,0,0.5-0.1c0.1,0,0.3-0.4,0.3-0.6l0.5-2.5l0.5-2.5l0,0l0.1-0.3l0.6-2.9
	l0.6-2.6c0-0.2,0.2-0.3,0.4-0.3l9.1,0C81.6,81.6,81.7,81.4,81.7,81.2z M93.4,75.3l-0.7,0h-2.9c-0.2,0-0.4,0.1-0.5,0.3L82.8,85
	c-0.1,0.2-0.2,0.1-0.3-0.1L82,82.9c0-0.2-0.2-0.3-0.4-0.3h-4.1c-0.2,0-0.3,0.2-0.3,0.3l1.9,6.5c0.1,0.2,0.1,0.5,0,0.7l-0.8,3.1
	c0,0.2,0.1,0.3,0.3,0.3h4.1c0.2,0,0.4-0.2,0.4-0.3l0.8-3.1c0-0.2,0.2-0.5,0.3-0.6l10.4-13.9c0.1-0.2,0.1-0.3-0.1-0.3L93.4,75.3z
	 M60.5,83.4L60.5,83.4c0,0.2-0.2,0.4-0.4,0.4h-5.2c-0.2,0-0.3-0.1-0.2-0.3l0,0l0,0l0,0l0-0.1c0.5-1.3,1.5-2.2,3.4-2.2
	C60.2,81.2,60.6,82.2,60.5,83.4z M59,77.4c-6.7,0-8.3,4.1-9.2,8.2c-0.9,4.2-0.8,8.1,6.1,8.1h0.8l0.2,0h0l0.8,0h0c1.8,0,3.7,0,4.4,0
	c0.2,0,0.4-0.2,0.4-0.3L63,92l0.1-0.3l0.3-1.6c0-0.2-0.1-0.3-0.3-0.3h-6.3c-2.5,0-3.2-0.7-3-2.6h10l0,0l0,0c0.2,0,0.3-0.1,0.4-0.3
	l0-0.1l0,0C65.8,81.2,65.3,77.4,59,77.4z M27.1,83.4L27,83.7v0l-0.8,2.7l-0.8,2.7c-0.1,0.2-0.3,0.3-0.4,0.3h-4c-3,0-3.8-2.4-3-5.9
	c0.7-3.6,2.2-5.8,5.2-6C27.3,77.2,28.1,80.1,27.1,83.4z M29.9,89.2c0,0,1.9-4.6,2.3-7.2c0.6-3.5-1.2-8.7-8-8.7
	c-6.8,0-9.8,4.9-10.9,10.2c-1.1,5.4,0.4,10.1,7.1,10l5.3,0l5,0c0.2,0,0.4-0.2,0.4-0.3l0.9-3.3c0-0.2-0.1-0.3-0.3-0.3l-0.8,0l-0.8,0
	C29.9,89.6,29.8,89.5,29.9,89.2L29.9,89.2z M63.6,86.2c0,0.1-0.1,0.2-0.2,0.2c-0.1,0-0.2-0.1-0.2-0.2c0-0.1,0.1-0.2,0.2-0.2
	C63.5,85.9,63.6,86,63.6,86.2z"/>
</svg>
