<?xml version="1.0" encoding="utf-8"?>
<!-- Generator: Adobe Illustrator 25.0.0, SVG Export Plug-In . SVG Version: 6.00 Build 0)  -->
<svg version="1.1" id="Ebene_1" xmlns="http://www.w3.org/2000/svg" xmlns:xlink="http://www.w3.org/1999/xlink" x="0px" y="0px"
	 viewBox="0 0 98 100" style="enable-background:new 0 0 98 100;" xml:space="preserve">
<path style="fill:#FF2D20;" d="M97.5,22.6c0,0.1,0.1,0.3,0.1,0.4v21.5c0,0.6-0.3,1.1-0.8,1.4l-18,10.4v20.6c0,0.6-0.3,1.1-0.8,1.4
	L40.4,99.8c-0.1,0-0.2,0.1-0.3,0.1c0,0-0.1,0-0.1,0c-0.3,0.1-0.5,0.1-0.8,0c0,0-0.1,0-0.1-0.1c-0.1,0-0.2-0.1-0.3-0.1L1.2,78.1
	c-0.5-0.3-0.8-0.8-0.8-1.4V12.4c0-0.1,0-0.3,0.1-0.4c0,0,0-0.1,0.1-0.1c0-0.1,0.1-0.2,0.1-0.2c0-0.1,0.1-0.1,0.1-0.1
	c0-0.1,0.1-0.1,0.1-0.2c0,0,0.1-0.1,0.2-0.1c0.1,0,0.1-0.1,0.2-0.1h0L20,0.2c0.5-0.3,1.1-0.3,1.6,0L40.4,11h0c0.1,0,0.1,0.1,0.2,0.1
	c0.1,0,0.1,0.1,0.2,0.1c0.1,0.1,0.1,0.1,0.1,0.2c0,0,0.1,0.1,0.1,0.1c0,0.1,0.1,0.2,0.1,0.2c0,0,0,0.1,0.1,0.1
	c0,0.1,0.1,0.3,0.1,0.4v40.2l15.7-9V23c0-0.1,0-0.3,0.1-0.4c0,0,0-0.1,0.1-0.1c0-0.1,0.1-0.2,0.1-0.2c0-0.1,0.1-0.1,0.1-0.1
	c0-0.1,0.1-0.1,0.1-0.2c0,0,0.1-0.1,0.2-0.1c0.1,0,0.1-0.1,0.2-0.1h0l18.8-10.8c0.5-0.3,1.1-0.3,1.6,0l18.8,10.8
	c0.1,0,0.1,0.1,0.2,0.1c0,0,0.1,0.1,0.2,0.1c0.1,0.1,0.1,0.1,0.1,0.2c0,0,0.1,0.1,0.1,0.1c0,0.1,0.1,0.2,0.1,0.2
	C97.5,22.5,97.5,22.6,97.5,22.6L97.5,22.6z M94.4,43.6V25.7l-6.6,3.8l-9.1,5.2v17.8L94.4,43.6L94.4,43.6z M75.6,75.9V58l-8.9,5.1
	L41.2,77.7v18L75.6,75.9z M3.6,15.1v60.8L38,95.7v-18L20,67.5l0,0l0,0c-0.1,0-0.1-0.1-0.2-0.1c0,0-0.1-0.1-0.1-0.1l0,0
	c-0.1,0-0.1-0.1-0.1-0.2c0-0.1-0.1-0.1-0.1-0.2l0,0c0-0.1-0.1-0.1-0.1-0.2c0-0.1-0.1-0.1-0.1-0.2v0c0-0.1,0-0.2,0-0.2
	c0-0.1,0-0.1,0-0.2v-42l-9.1-5.2L3.6,15.1L3.6,15.1z M20.8,3.4l-15.7,9l15.7,9l15.7-9L20.8,3.4L20.8,3.4z M28.9,59.6l9.1-5.2V15.1
	l-6.6,3.8l-9.1,5.2v39.3L28.9,59.6z M77.2,14l-15.7,9l15.7,9l15.7-9L77.2,14z M75.6,34.8l-9.1-5.2L60,25.7v17.8l9.1,5.2l6.6,3.8
	V34.8z M39.6,75l23-13.1l11.5-6.6l-15.7-9l-18,10.4L24,66.1L39.6,75z"/>
</svg>
