<?xml version="1.0" encoding="utf-8"?>
<!-- Generator: Adobe Illustrator 25.0.0, SVG Export Plug-In . SVG Version: 6.00 Build 0)  -->
<svg version="1.1" id="Ebene_1" xmlns="http://www.w3.org/2000/svg" xmlns:xlink="http://www.w3.org/1999/xlink" x="0px" y="0px"
	 viewBox="0 0 65 65" style="enable-background:new 0 0 65 65;" xml:space="preserve">
<g id="g18" transform="matrix(1.3333333,0,0,-1.3333333,-140.2717,692.22929)">
	<g id="g669" transform="matrix(1.2339948,0,0,1.2339948,-434.41104,-180.41546)">
		<path id="path400" style="fill:#00539B;" d="M437.3,527.4h39.5v39.5h-39.5V527.4z"/>
		<g id="g402">
			<g>
				<g>
					<g id="g404">
						<g id="g410" transform="translate(483.122,561.7534)">
							<path id="path412" style="fill-rule:evenodd;clip-rule:evenodd;fill:#FFED00;" d="M-26.1,2.9c-9.7,0-17.5-7.8-17.5-17.5
								s7.8-17.5,17.5-17.5c9.7,0,17.5,7.8,17.5,17.5C-8.6-4.9-16.4,2.9-26.1,2.9"/>
						</g>
						<g id="g414" transform="translate(480.5951,519.9582)">
							<path id="path416" style="fill-rule:evenodd;clip-rule:evenodd;fill:#E3000F;" d="M-24.7,26.8l-3.1,3.1l-3.6-3.6V25l0.9,0.9
								l2.5-2.5l-0.9-0.9l0.6-0.6l5,5v1.2L-24.7,26.8z"/>
						</g>
						<g id="g418" transform="translate(447.088,528.6423)">
							<path id="path420" style="fill-rule:evenodd;clip-rule:evenodd;fill:#00539B;" d="M-5.6,21.8h5.5v-1.2H-1v-3.9l3.2,1.8v-3.3
								h-7.8v1.2h0.9v4.1h-0.9V21.8z"/>
						</g>
						<g id="g422" transform="translate(500.9928,528.6423)">
							<path id="path424" style="fill-rule:evenodd;clip-rule:evenodd;fill:#00539B;" d="M-36.2,21.8v-1.2h0.9v-4.1h-0.9v-1.2h7.8
								v3.3l-3.2-1.8v3.9h0.9v1.2H-36.2z"/>
						</g>
						<g id="g426" transform="translate(472.3647,537.2333)">
							<path id="path428" style="fill-rule:evenodd;clip-rule:evenodd;fill:#E3000F;" d="M-20,16.9c1.1,0,2-0.9,2-1.9
								c0-1.1-0.9-2-2-2s-2,0.9-2,2C-21.9,16-21,16.9-20,16.9"/>
						</g>
						<g id="g430" transform="translate(483.122,480.4417)">
							<path id="path432" style="fill-rule:evenodd;clip-rule:evenodd;fill:#E3000F;" d="M-26.1,49.2c-9.7,0-17.5,7.8-17.5,17.5
								c0,9.7,7.8,17.5,17.5,17.5c9.7,0,17.5-7.8,17.5-17.5C-8.6,57-16.4,49.2-26.1,49.2 M-26.1,85.5c-10.3,0-18.7-8.4-18.7-18.7
								s8.4-18.7,18.7-18.7s18.7,8.4,18.7,18.7S-15.7,85.5-26.1,85.5"/>
						</g>
						<g id="g434" transform="translate(493.8669,528.6423)">
							<path id="path436" style="fill-rule:evenodd;clip-rule:evenodd;fill:#00539B;" d="M-32.2,21.8h-5.2v-1.2h0.9v-4.1h-0.9v-1.2
								h5.2C-28.3,15.3-28.3,21.8-32.2,21.8"/>
						</g>
						<g id="g438" transform="translate(492.1554,518.2467)">
							<path id="path440" style="fill-rule:evenodd;clip-rule:evenodd;fill:#FFED00;" d="M-31.2,27.7h-0.3v2.5h0.2
								C-30.1,30.2-30.1,27.7-31.2,27.7"/>
						</g>
					</g>
				</g>
			</g>
		</g>
	</g>
</g>
</svg>
