<?xml version="1.0" encoding="utf-8"?>
<!-- Generator: Adobe Illustrator 25.0.1, SVG Export Plug-In . SVG Version: 6.00 Build 0)  -->
<svg version="1.1" id="Ebene_1" xmlns="http://www.w3.org/2000/svg" xmlns:xlink="http://www.w3.org/1999/xlink" x="0px" y="0px"
	 viewBox="0 0 215 65" style="enable-background:new 0 0 215 65;" xml:space="preserve">
<path id="Fill-4" style="fill:#D22321;" d="M106.9,57.4h-1.7c0-1.5,0.6-2.4,1.7-2.4h0.1c0.5,0,0.9,0.2,1.2,0.6
	c0.3,0.4,0.5,1,0.5,1.8H106.9z M106.9,53.8L106.9,53.8c-1,0.1-1.8,0.4-2.5,1.1c-0.7,0.8-1,1.7-1,3.1c0,2.6,1.3,4.2,3.4,4.3
	c0.1,0,0.2,0.1,0.3,0.1c1.1,0,2-0.4,2.8-1.1l-0.6-0.9c-0.6,0.5-1.2,0.8-2,0.8c-0.2,0-0.3,0-0.5-0.1c-0.6-0.1-1-0.4-1.3-0.9
	c-0.2-0.4-0.3-0.9-0.3-1.6v-0.2h4.9v-0.3c0-1.9-0.3-2.8-1-3.5C108.6,54.2,107.8,53.8,106.9,53.8L106.9,53.8z M99.8,60.2
	c-0.3,0.5-0.9,0.9-1.7,0.9H98c-0.5,0-0.9-0.1-1.1-0.4c-0.5-0.5-0.7-0.9-0.7-2.5c0-1.1,0.1-1.7,0.5-2.2c0.3-0.5,0.8-0.8,1.3-0.8h0.1
	c0.8,0,1.3,0.2,1.7,0.7L99.8,60.2L99.8,60.2z M101.3,50.6l-1.5-0.2v3.1c0,0.6,0.1,1.2,0.1,1.4c-0.6-0.6-1.1-0.9-1.9-1h-0.2
	c-0.6,0-1.1,0.2-1.6,0.5c-1.1,0.7-1.7,2-1.7,3.8c0,2.6,1.2,4.2,3.3,4.2H98c0.8-0.1,1.4-0.3,2-0.9c0.1,0.4,0.1,0.5,0.1,0.7h1.5
	c-0.2-0.5-0.2-1.4-0.2-2.7V50.6L101.3,50.6z M82.3,60.3c-0.3,0.6-0.9,1-1.5,1.1h-0.2c-0.8,0-1.3-0.5-1.3-1.4c0-0.5,0.1-0.8,0.4-1.2
	c0.2-0.2,0.6-0.4,1.1-0.5c0.3-0.1,0.6-0.1,1-0.1h0.5L82.3,60.3z M83.8,59.6c0-1.2,0.1-2.5,0.1-3c0-0.8-0.1-1.1-0.2-1.4
	c-0.3-0.9-1.2-1.3-2.4-1.3h-0.5c-1.3,0.1-2.2,0.7-2.9,1.1l0.7,1.1c0.6-0.5,1.5-0.8,2.2-0.9c0.1-0.1,0.2-0.1,0.3-0.1
	c1.1,0,1.3,0.7,1.3,1.6v0.5h-0.6c-0.3,0-0.7,0-1,0.1c-2,0.2-3.2,1.2-3.2,2.8c0,1.6,1,2.4,2.6,2.4c0.2,0,0.4-0.1,0.6-0.1
	c1.1-0.2,1.6-0.8,1.8-1c0.2,0.6,0.6,1,1.1,1.1l0.8-1C83.8,61.2,83.8,60.8,83.8,59.6L83.8,59.6z M92.4,55.1c0.1,0.3,0.2,0.7,0.2,1
	v6.1h-1.5v-5.4c0-0.7-0.1-1-0.3-1.2c-0.1-0.2-0.5-0.3-0.8-0.3c-0.6,0-1.5,0.5-2,1v6h-1.5v-6c0-1-0.1-1.3-0.3-1.9l1.4-0.4
	c0.2,0.4,0.3,0.7,0.3,1.2c0.5-0.4,0.7-0.6,1.1-0.8c0.5-0.3,1-0.4,1.5-0.4C91.3,54,92.1,54.4,92.4,55.1L92.4,55.1z M142.4,53.8
	c0.2,0,0.3,0.1,0.5,0.1l-0.5,1.5c-0.2-0.1-0.3-0.1-0.5-0.1c-0.9,0-1.7,0.7-1.7,1.6v5.2h-1.5v-6c0-1-0.1-1.5-0.3-2l1.4-0.3
	c0.2,0.3,0.3,0.8,0.3,1.2v0.1C140.8,54.4,141.5,53.8,142.4,53.8z M125.7,60.4c-0.3,0.4-0.8,0.7-1.3,0.7c-0.7,0-1.4-0.4-1.8-0.8v-4.1
	c0.2-0.2,0.2-0.3,0.5-0.5c0.5-0.3,0.8-0.5,1.3-0.5c0.6,0,1.2,0.3,1.5,0.8c0.3,0.5,0.3,0.9,0.3,2C126.1,59.2,126,59.9,125.7,60.4
	L125.7,60.4z M124.7,53.9c-0.1,0-0.2,0-0.3,0.1c-0.7,0.1-1.2,0.3-1.8,0.8h-0.1c0.1-0.1,0.1-0.5,0.1-0.8V52c0-0.7-0.1-1.1-0.2-1.7
	l-1.6,0.3c0.2,0.5,0.3,1,0.3,2v7.7c0,1-0.1,1.5-0.2,1.9h1.4c0.1-0.2,0.2-0.4,0.2-0.9c0.5,0.6,1.1,1,1.9,1.1h0.3
	c0.7,0,1.2-0.2,1.7-0.6c1-0.7,1.5-2,1.5-3.7C127.8,55.5,126.6,53.9,124.7,53.9L124.7,53.9z M118.2,55.1c0.2,0.3,0.2,0.7,0.2,1v6.1
	H117v-5.4c0-0.7-0.1-1-0.3-1.2c-0.2-0.2-0.5-0.3-0.8-0.3c-0.6,0-1.5,0.5-2,1v6h-1.5v-6c0-1-0.1-1.3-0.3-1.9l1.5-0.4
	c0.2,0.4,0.2,0.7,0.2,1.2c0.5-0.4,0.7-0.6,1.1-0.8c0.5-0.3,1-0.4,1.5-0.4C117.2,54,117.9,54.4,118.2,55.1L118.2,55.1z M135.9,60
	c0,0.8,0.2,1.4,0.5,1.7l-1,0.8c-0.4-0.3-0.6-0.6-0.8-1.1c-0.6,0.8-1.4,1.1-2.4,1.1c-1.1,0-1.9-0.5-2.2-1.2c-0.1-0.3-0.2-0.8-0.2-1.4
	v-5.7l1.5-0.3v5.6c0,0.8,0.1,1.2,0.4,1.5c0.2,0.2,0.6,0.3,1,0.3c0.7,0,1.5-0.6,1.9-1.3v-5.8l1.5-0.3L135.9,60L135.9,60z M146.8,58.1
	c-1,0-1.5-0.5-1.5-1.5s0.6-1.5,1.5-1.5c1,0,1.5,0.5,1.5,1.5C148.3,57.6,147.8,58.1,146.8,58.1z M151.4,54.8l-0.7-1
	c-0.5,0.3-0.9,0.5-1.3,0.5c-0.4,0-0.8-0.2-1.2-0.3c-0.5-0.1-0.8-0.2-1.3-0.2c-1.9,0-3.1,1.1-3.1,2.7c0,1.1,0.7,2,1.9,2.4
	c-1,0.3-1.6,0.7-1.6,1.4c0,0.6,0.4,1,1.1,1.1c0.3,0,1,0.1,1.5,0.1h0.1c1.5,0,2.1,0.5,2.1,1.2c0,0.8-0.7,1.4-2,1.4h-0.1
	c-1.2-0.1-1.9-0.5-1.9-1.3c0-0.2,0.1-0.5,0.2-0.6l-1.5,0.1c-0.1,0.2-0.2,0.5-0.2,0.8c0,1.3,1.2,2.1,3.3,2.1h0.3c2,0,3.4-0.9,3.4-2.6
	c0-1.2-0.8-2.2-2.9-2.2h-1.3c-0.4,0-0.6-0.2-0.6-0.4c0-0.3,0.6-0.6,1.1-0.8c0.1-0.1,0.2-0.1,0.2-0.1c2.1,0,2.9-1.3,2.9-2.5
	c0-0.6-0.2-1-0.6-1.5c0.4,0.1,0.5,0.1,0.7,0.1C150.6,55.3,150.9,55.1,151.4,54.8L151.4,54.8z M76.5,53.8c0.2,0,0.4,0.1,0.5,0.1
	l-0.5,1.5c-0.2-0.1-0.3-0.1-0.5-0.1c-0.9,0-1.7,0.7-1.7,1.6v5.2h-1.5v-6c0-1-0.1-1.5-0.3-2l1.5-0.3c0.1,0.3,0.3,0.8,0.3,1.2v0.1
	C74.9,54.4,75.7,53.8,76.5,53.8L76.5,53.8z M67,61h-2.2v-3.9h2.1c0.4,0,0.7,0.1,0.9,0.1c0.7,0.2,1.2,1,1.2,1.9
	C69,60.4,67.9,61,67,61L67,61z M64.8,52.4h2.1c0.2,0.1,0.5,0.1,0.6,0.1c0.7,0.2,1.1,0.8,1.1,1.6c0,0.4-0.1,0.8-0.3,1.1
	c-0.3,0.4-0.6,0.6-1.3,0.6h-2.1L64.8,52.4L64.8,52.4z M68.2,56.3c1.3-0.5,2-1.3,2-2.5c0-1-0.5-1.8-1.5-2.4c-0.5-0.3-0.9-0.3-1.9-0.4
	h-3.6v11.1h3.6c0.6,0,1.1-0.1,1.6-0.2c1.3-0.3,2.2-1.3,2.2-2.9C70.7,57.7,69.9,56.7,68.2,56.3L68.2,56.3z M14.1,48.4l2.4,2.4
	c3.9-1.3,8.9-11.1,12.4-19.3L27,32.7C25.3,36.4,19.6,48,14.1,48.4L14.1,48.4z M32.9,24.7c-2.3,5.1-3.5,10.3-3.3,13.9
	c0.1,1.5,0.6,2.7,2.8,2.5c4.2-0.5,11.3-3.5,14.2-7.5c1.1-1.6,1.2-3-0.2-4.4C44.3,27.2,39,25.7,32.9,24.7z M30.7,24.4
	c-7.6-1.1-15.9-1.3-20.7-0.6c-7.6,1.1-8.6,5.1-8.7,10c0,4.3,1.8,8.3,7.4,7.1C19,38.7,26.2,32.1,30.7,24.4z M31.7,22.7
	c3.7-6.9,5.3-14.4,5.1-19.9c-0.1-2.7-1.6-3.3-4-3c-7.6,0.8-16.9,5.5-20.3,11c-1,1.5-1.6,3.7,0.1,5.3C15.9,19.4,23.7,21.8,31.7,22.7z
	 M53,12.8c0.7,3.3,0.6,5.8-1.7,7.2c-3.8,2.5-10.6,3.3-17.5,2.8c2.8-5.5,6.9-10.6,11.7-13.4C48.7,7.7,52.1,8.5,53,12.8z M207.9,9.6
	h-0.8V7.9h0.5c0.1,0,0.2,0,0.3,0.1c0.2,0,0.3,0,0.4,0.1c0.3,0.1,0.5,0.4,0.5,0.8c0,0.3-0.1,0.5-0.2,0.7
	C208.4,9.6,208.2,9.6,207.9,9.6z M208.7,10.5c0.8,0,1.5-0.8,1.5-1.8c0-1.1-0.8-1.9-1.9-1.9h-2.5v6.5h1.3v-2.7c0.1,0,0.2,0,0.2,0.1
	c0.2,0.1,0.3,0.2,0.6,0.8c0.1,0.2,0.3,0.5,0.5,0.8c0.3,0.5,0.4,0.6,0.6,1.1h1.6c0,0-1.2-2-1.6-2.5C208.9,10.7,208.8,10.7,208.7,10.5
	L208.7,10.5z M207.9,14.8L207.9,14.8c-2.5,0-4.6-2.1-4.6-4.7s2-4.6,4.5-4.6h0.1c2.5,0,4.4,2.1,4.4,4.6S210.4,14.8,207.9,14.8z
	 M207.9,4.4L207.9,4.4c-3.3,0-5.8,2.6-5.8,5.8c0,3.3,2.6,5.8,5.8,5.8h0.1c3.1-0.1,5.7-2.6,5.7-5.8C213.6,6.9,211,4.4,207.9,4.4z
	 M110,22.1c0-4.3-3.5-7.6-7.8-7.6c-4.3,0-7.8,3.4-7.8,7.6c0,4.3,3.5,7.7,7.8,7.7C106.5,29.7,110,26.3,110,22.1z M120.1,22.1
	c0,9.8-8,17.7-17.9,17.7s-17.9-7.9-17.9-17.7c0-9.7,8-17.7,17.9-17.7S120.1,12.3,120.1,22.1z M192.4,22.1c0-4.3-3.5-7.6-7.8-7.6
	c-4.3,0-7.8,3.4-7.8,7.6c0,4.3,3.5,7.7,7.8,7.7C188.9,29.7,192.4,26.3,192.4,22.1z M202.5,22.1c0,9.8-7.9,17.7-17.8,17.7
	s-17.9-7.9-17.9-17.7c0-9.7,8-17.7,17.9-17.7C194.5,4.4,202.5,12.3,202.5,22.1z M169.5,4.6h-23.3l-1.9,9.5h7.4v25.1h10.2V14.1h5.7
	L169.5,4.6z M144.7,4.6h-23.3l-1.9,9.5h7.4v25.1h10.2V14.1h5.7L144.7,4.6L144.7,4.6z M73.6,29.5h11.5l-1.9,9.6H63.3V4.6h10.3
	L73.6,29.5L73.6,29.5L73.6,29.5z"/>
</svg>
