<?xml version="1.0" encoding="utf-8"?>
<!-- Generator: Adobe Illustrator 25.0.1, SVG Export Plug-In . SVG Version: 6.00 Build 0)  -->
<svg version="1.1" id="Ebene_1" xmlns="http://www.w3.org/2000/svg" xmlns:xlink="http://www.w3.org/1999/xlink" x="0px" y="0px"
	 viewBox="0 0 200 65" style="enable-background:new 0 0 200 65;" xml:space="preserve">
<g id="surface1">
	<path style="fill:#00143F;" d="M45.7,39l-0.8-5.7c-0.2-1.1-0.3-2-0.4-2.8l0,0c-0.2,0.8-0.4,1.6-0.7,2.5l-1.9,6h-2.3l-1.8-5.5
		c-0.3-1-0.6-2-0.8-3l0,0c-0.1,1.1-0.2,2-0.3,3L36,39h-2.3l1.8-11.9h2.7l2,6.1c0.3,0.8,0.5,1.7,0.7,2.5l0,0c0.2-0.9,0.4-1.6,0.7-2.5
		l2-6.2h2.7l1.9,11.9"/>
	<path style="fill:#00143F;" d="M54.4,35.1c-2.4,0-2.9,0.7-2.9,1.4c0,0.6,0.4,0.9,1,0.9c1.1,0,1.9-1.1,1.9-2.1V35.1z M54.6,39
		c0-0.5,0-1,0.1-1.5l0,0c-0.4,1-1.5,1.7-2.8,1.7c-1.6,0-2.5-0.9-2.5-2.3c0-2.1,2.1-3.2,5.1-3.2v-0.5c0-0.9-0.4-1.4-1.7-1.4
		c-0.8,0-1.9,0.3-2.6,0.7L50,30.6c0.9-0.3,2-0.5,3.1-0.5c2.8,0,3.6,1.1,3.6,3.1v3.7c0,0.7,0,1.5,0.1,2.3"/>
	<path style="fill:#00143F;" d="M63.6,35.1c-2.4,0-2.9,0.7-2.9,1.4c0,0.6,0.4,0.9,1,0.9c1.1,0,1.9-1.1,1.9-2.1V35.1z M63.8,39
		c0-0.5,0-1,0.1-1.5l0,0c-0.4,1-1.5,1.7-2.8,1.7c-1.6,0-2.5-0.9-2.5-2.3c0-2.1,2.1-3.2,5.1-3.2v-0.5c0-0.9-0.4-1.4-1.7-1.4
		c-0.8,0-1.9,0.3-2.6,0.7l-0.2-1.9c0.9-0.3,2-0.5,3.1-0.5c2.8,0,3.6,1.1,3.6,3.1v3.7c0,0.7,0,1.5,0.1,2.3"/>
	<path style="fill:#00143F;" d="M69.9,39.2c-0.6,0-1.3-0.1-1.8-0.2l0.1-1.9c0.5,0.1,1.2,0.3,1.9,0.3c0.9,0,1.4-0.4,1.4-0.9
		c0-1.6-3.5-0.7-3.5-3.6c0-1.5,1.3-2.8,3.7-2.8c0.5,0,1.1,0.1,1.6,0.2l-0.1,1.8c-0.5-0.1-1.1-0.2-1.6-0.2c-0.9,0-1.3,0.4-1.3,0.9
		c0,1.4,3.6,0.8,3.6,3.6C73.8,38,72.3,39.2,69.9,39.2"/>
	<path style="fill:#00143F;" d="M78.7,39.2c-1.9,0-2.5-0.7-2.5-2.8V32h-1.5v-1.7h1.5v-2.7l2.3-0.6v3.3h2.1V32h-2.1v3.8
		c0,1.1,0.3,1.4,1,1.4c0.4,0,0.8-0.1,1.1-0.1v1.8C80,39.1,79.3,39.2,78.7,39.2"/>
	<path style="fill:#00143F;" d="M87.1,32.3c-1.6-0.3-2.4,0.7-2.4,3.2v3.6h-2.3v-8.8h2.1c0,0.4-0.1,1.1-0.2,1.8l0,0
		c0.4-1.1,1.3-2.1,2.8-2"/>
	<path style="fill:#00143F;" d="M88.8,30.3H91v8.8h-2.3v-8.8H88.8z M89.9,29.1c-0.8,0-1.4-0.6-1.4-1.4c0-0.7,0.6-1.4,1.4-1.4
		s1.4,0.6,1.4,1.4S90.7,29.1,89.9,29.1"/>
	<path style="fill:#00143F;" d="M96.9,39.2c-2.4,0-4-1.3-4-4.3c0-2.7,1.4-4.8,4.5-4.8c0.6,0,1.2,0.1,1.8,0.2l-0.2,2
		c-0.5-0.2-1-0.3-1.6-0.3c-1.4,0-2.2,1.1-2.2,2.7c0,1.5,0.6,2.5,2.1,2.5c0.6,0,1.3-0.1,1.7-0.4l0.2,1.9C98.7,39,97.8,39.2,96.9,39.2
		"/>
	<path style="fill:#00143F;" d="M106.5,39v-5.6c0-0.9-0.2-1.5-1.1-1.5c-1.1,0-2,1.3-2,2.8v4.2h-2.3V26.1h2.3v3.8
		c0,0.5,0,1.3-0.2,1.8l0,0c0.5-1,1.5-1.6,2.9-1.6c2,0,2.6,1.3,2.6,2.8v6.2"/>
	<path style="fill:#00143F;" d="M114.1,39.2c-1.9,0-2.5-0.7-2.5-2.8V32h-1.5v-1.7h1.5v-2.7l2.3-0.6v3.3h2.1V32h-2.1v3.8
		c0,1.1,0.3,1.4,1,1.4c0.4,0,0.8-0.1,1.1-0.1v1.8C115.4,39.1,114.7,39.2,114.1,39.2"/>
	<path style="fill:#00143F;" d="M126.7,39.2c-3.8,0-4.6-2-4.6-4.3v-7.8h2.3v7.6c0,1.5,0.5,2.6,2.5,2.6c1.8,0,2.5-0.7,2.5-2.8v-7.4
		h2.3v7.3C131.7,37.7,129.9,39.2,126.7,39.2"/>
	<path style="fill:#00143F;" d="M139.3,39v-5.6c0-0.9-0.2-1.5-1.1-1.5c-1.1,0-2,1.3-2,2.8v4.2h-2.3v-8.8h2.1c0,0.4,0,1.1-0.1,1.6
		l0,0c0.5-1,1.6-1.8,3-1.8c2,0,2.6,1.3,2.6,2.8v6.2"/>
	<path style="fill:#00143F;" d="M143.9,30.3h2.3v8.8h-2.3V30.3z M145.1,29.1c-0.8,0-1.4-0.6-1.4-1.4c0-0.7,0.6-1.4,1.4-1.4
		c0.8,0,1.4,0.6,1.4,1.4S145.9,29.1,145.1,29.1"/>
	<path style="fill:#00143F;" d="M153.2,39h-2.3l-3.2-8.8h2.5l1.4,4c0.2,0.6,0.4,1.3,0.6,1.9l0,0c0.1-0.6,0.3-1.3,0.5-1.9l1.4-4h2.4"
		/>
	<path style="fill:#00143F;" d="M161.2,31.7c-0.9,0-1.6,0.7-1.7,1.7h3.2C162.8,32.4,162.2,31.7,161.2,31.7 M164.9,35h-5.4
		c0,1.6,0.8,2.4,2.4,2.4c0.9,0,1.8-0.2,2.6-0.5l0.2,1.7c-0.9,0.4-2,0.6-3.1,0.6c-2.8,0-4.3-1.4-4.3-4.5c0-2.7,1.5-4.7,4.1-4.7
		s3.7,1.7,3.7,3.9C165,34.3,165,34.6,164.9,35"/>
	<path style="fill:#00143F;" d="M171.6,32.3c-1.6-0.3-2.4,0.7-2.4,3.2v3.6h-2.3v-8.8h2.1c0,0.4-0.1,1.1-0.2,1.8l0,0
		c0.4-1.1,1.3-2.1,2.8-2"/>
	<path style="fill:#00143F;" d="M174.7,39.2c-0.6,0-1.3-0.1-1.8-0.2l0.1-1.9c0.5,0.1,1.2,0.3,1.9,0.3c0.9,0,1.4-0.4,1.4-0.9
		c0-1.6-3.5-0.7-3.5-3.6c0-1.5,1.3-2.8,3.7-2.8c0.5,0,1.1,0.1,1.6,0.2l-0.1,1.8c-0.5-0.1-1.1-0.2-1.6-0.2c-0.9,0-1.3,0.4-1.3,0.9
		c0,1.4,3.6,0.8,3.6,3.6C178.6,38,177.1,39.2,174.7,39.2"/>
	<path style="fill:#00143F;" d="M180.4,30.3h2.3v8.8h-2.3V30.3z M181.6,29.1c-0.8,0-1.4-0.6-1.4-1.4c0-0.7,0.6-1.4,1.4-1.4
		c0.8,0,1.4,0.6,1.4,1.4S182.3,29.1,181.6,29.1"/>
	<path style="fill:#00143F;" d="M188.5,39.2c-1.9,0-2.5-0.7-2.5-2.8V32h-1.5v-1.7h1.5v-2.7l2.3-0.6v3.3h2.1V32h-2.1v3.8
		c0,1.1,0.3,1.4,1,1.4c0.4,0,0.8-0.1,1.1-0.1v1.8C189.8,39.1,189.2,39.2,188.5,39.2"/>
	<path style="fill:#00143F;" d="M196.4,39.8c-1,2.7-2,3.6-4,3.6c-0.4,0-0.9-0.1-1.2-0.1l0.1-1.9c0.4,0.1,0.8,0.2,1.2,0.2
		c0.7,0,1.2-0.3,1.7-1.6l0.3-0.8l-3.2-8.8h2.5l1.2,3.4c0.3,0.8,0.5,1.6,0.7,2.4l0,0c0.2-0.8,0.6-2,0.8-2.8l1-3h2.4"/>
	<path style="fill:#00143F;" d="M5.3,29.9c-1.5,0-2.6-0.7-2.6-2.4c0-1.4,0-2.6,0-3.8h1.6c0,1.2,0,2.4,0,3.6c0,0.9,0.3,1.3,1,1.3
		c0.5,0,1-0.2,1-1.3v-3.6h1.6v3.8C7.9,29.1,6.8,29.9,5.3,29.9 M0,17.8v17.4L17.9,27"/>
	<path style="fill:#00143F;" d="M19,41.5l-0.7-4.3l0,0l-1.1,4.3h-1.8l-1-4.3l0,0l-0.8,4.3h-1.5l1.4-6h2l0.9,4.4l0,0l1.1-4.4h2l1.2,6
		H19z M3.8,39l17.9,8.2V29.8"/>
</g>
</svg>
