<?xml version="1.0" encoding="utf-8"?>
<!-- Generator: Adobe Illustrator 25.0.0, SVG Export Plug-In . SVG Version: 6.00 Build 0)  -->
<svg version="1.1" id="Ebene_1" xmlns="http://www.w3.org/2000/svg" xmlns:xlink="http://www.w3.org/1999/xlink" x="0px" y="0px"
	 viewBox="0 0 200 65" style="enable-background:new 0 0 200 65;" xml:space="preserve">
<g>
	<g>
		<path style="fill:#4B4B4B;" d="M18.1,33.8L5.5,8.6v22.6c0,0.6,0.1,1,0.3,1.3c0.2,0.3,0.6,0.4,1.1,0.6v0.7h-6v-0.7
			c0.6-0.2,0.9-0.3,1.1-0.6c0.2-0.2,0.3-0.7,0.3-1.3V6.4c0-0.6-0.1-1.1-0.3-1.3C1.9,4.8,1.5,4.7,0.9,4.6V3.8h7.7v0.7
			C8,4.7,7.6,5.1,7.6,5.5c0,0.2,0.2,0.7,0.7,1.7l10,19.8L28.4,7c0.3-0.7,0.5-1.2,0.5-1.5c0-0.4-0.3-0.7-1.1-0.9V3.8h7.9v0.7
			c-0.6,0.2-0.9,0.3-1.1,0.6c-0.2,0.2-0.3,0.7-0.3,1.3v24.8c0,0.6,0.1,1,0.3,1.3c0.2,0.3,0.6,0.4,1.1,0.6v0.7h-6.2v-0.7
			c0.6-0.2,0.9-0.3,1.1-0.6c0.2-0.2,0.3-0.7,0.3-1.3V8.6L18.1,33.8z"/>
		<path style="fill:#4B4B4B;" d="M60.2,26.6H46.4l-2.3,4.9c-0.2,0.4-0.3,0.8-0.3,1c0,0.4,0.4,0.6,1.1,0.8v0.6h-5.7v-0.6
			c0.5-0.1,0.9-0.3,1.2-0.6s0.6-0.9,1.1-1.9l9.5-20.4c0.2-0.5,0.3-0.8,0.3-1c0-0.3-0.3-0.6-0.9-0.7V8h6.3v0.6
			c-0.6,0.2-0.9,0.4-0.9,0.8c0,0.1,0.1,0.4,0.3,0.9L65,30c0.7,1.4,1.1,2.3,1.3,2.6c0.2,0.3,0.7,0.4,1.4,0.7v0.6h-6.1v-0.6
			c0.7-0.1,1.1-0.4,1.1-0.8c0-0.2-0.1-0.6-0.4-1.2L60.2,26.6z M59.1,24.1l-5.8-12.8l-5.8,12.8H59.1z"/>
		<path style="fill:#4B4B4B;" d="M95,18.2c3.5,1.2,5.2,3.6,5.2,7.2c0,1.8-0.4,3.3-1.4,4.7c-0.9,1.3-2.2,2.3-3.7,2.8
			c-1.6,0.6-3.8,0.8-6.7,0.8H70.9v-0.7c0.6-0.2,0.9-0.3,1.1-0.6c0.2-0.2,0.3-0.7,0.3-1.3V6.4c0-0.6-0.1-1.1-0.3-1.3
			c-0.2-0.3-0.6-0.4-1.1-0.6V3.8h17.9c1.8,0,3.2,0.2,4.3,0.4c1.2,0.3,2.2,0.7,3.1,1.4c2,1.4,3,3.5,3,6.2
			C99.2,14.8,97.8,16.9,95,18.2z M75.8,16.8h11.6c1.6,0,2.8-0.1,3.7-0.2c0.8-0.1,1.6-0.3,2.2-0.6c0.8-0.3,1.5-0.9,2-1.6
			c0.4-0.7,0.7-1.6,0.7-2.6c0-1.3-0.4-2.4-1.2-3.3c-0.7-0.7-1.6-1.2-2.6-1.5s-2.7-0.4-5-0.4H75.8V16.8z M75.8,31h12
			c1.7,0,3-0.1,3.8-0.2c0.8-0.1,1.6-0.3,2.3-0.7c0.9-0.4,1.6-1,2.1-1.8c0.5-0.8,0.7-1.8,0.7-2.8c0-1.4-0.4-2.7-1.3-3.7
			c-0.7-0.8-1.6-1.4-2.7-1.7c-1.1-0.3-2.8-0.4-5.1-0.4H75.8V31z"/>
		<path style="fill:#4B4B4B;" d="M123.8,26.6H110l-2.3,4.9c-0.2,0.4-0.3,0.8-0.3,1c0,0.4,0.4,0.6,1.1,0.8v0.6h-5.7v-0.6
			c0.5-0.1,0.9-0.3,1.2-0.6s0.6-0.9,1.1-1.9l9.5-20.4c0.2-0.5,0.3-0.8,0.3-1c0-0.3-0.3-0.6-0.9-0.7V8h6.3v0.6
			c-0.6,0.2-0.9,0.4-0.9,0.8c0,0.1,0.1,0.4,0.3,0.9l9.1,19.7c0.7,1.4,1.1,2.3,1.3,2.6c0.2,0.3,0.7,0.4,1.4,0.7v0.6h-6.1v-0.6
			c0.7-0.1,1.1-0.4,1.1-0.8c0-0.2-0.1-0.6-0.4-1.2L123.8,26.6z M122.7,24.1l-5.8-12.8l-5.8,12.8H122.7z"/>
		<path style="fill:#4B4B4B;" d="M166.1,6.4l-3.2,5.4l-0.6-0.3c0.1-0.4,0.2-0.8,0.2-1.1c0-0.6-0.9-1.3-2.8-2.3
			c-2.6-1.3-5.4-1.9-8.5-1.9c-4.1,0-7.4,1.1-10,3.4c-2.6,2.3-3.9,5.3-3.9,9s1.3,6.7,4.1,9.1c2.6,2.3,5.8,3.5,9.6,3.5
			c3.7,0,7-1.1,9.9-3.3c1.3-1,1.9-1.7,1.9-2.1c0-0.2-0.1-0.6-0.4-1l0.5-0.4l3.9,4.7l-0.6,0.4c-0.4-0.4-0.7-0.6-1-0.6
			c-0.2,0-0.4,0.2-0.8,0.4c-1.3,1-2.5,1.8-3.3,2.3c-0.9,0.5-1.8,0.9-2.9,1.3c-2.2,0.7-4.6,1.1-7.2,1.1c-5.1,0-9.2-1.4-12.3-4.2
			c-3.3-3-5-6.7-5-11.3c0-3.6,1.1-6.7,3.1-9.4c3.2-4.1,8.1-6.2,14.6-6.2c4.3,0,8.5,1.1,12.5,3.4c0.3,0.2,0.4,0.2,0.6,0.2
			c0.2,0,0.6-0.3,1.1-0.8L166.1,6.4z"/>
		<path style="fill:#4B4B4B;" d="M194.1,21.8h-17.7v9.8c0,0.6,0.1,0.9,0.2,1.1s0.5,0.4,0.9,0.5v0.6h-5.4v-0.6
			c0.5-0.1,0.8-0.3,0.9-0.5c0.2-0.2,0.2-0.6,0.2-1.1V10.2c0-0.6-0.1-0.9-0.2-1.1c-0.2-0.2-0.5-0.4-0.9-0.5V8h5.4v0.6
			c-0.5,0.1-0.8,0.3-0.9,0.5c-0.2,0.2-0.2,0.6-0.2,1.1v9.1h17.7v-9.1c0-0.6-0.1-0.9-0.2-1.1c-0.2-0.2-0.5-0.4-0.9-0.5V8h5.4v0.6
			c-0.5,0.1-0.8,0.3-0.9,0.5c-0.2,0.2-0.2,0.6-0.2,1.1v21.4c0,0.5,0.1,0.9,0.2,1.1s0.5,0.4,0.9,0.5v0.6h-5.4v-0.6
			c0.5-0.1,0.8-0.3,0.9-0.5c0.2-0.2,0.2-0.6,0.2-1.1V21.8z"/>
	</g>
	<g>
		<rect y="39.8" style="fill:#4B4B4B;" width="200" height="0.6"/>
	</g>
	<g>
		<path style="fill:#7A7A7A;" d="M18.2,47.3l-1.8,2.8l-0.3-0.2c0.1-0.2,0.2-0.4,0.2-0.5c0-0.2-0.4-0.6-1.2-1
			c-1.6-0.8-3.2-1.3-4.8-1.3c-1.9,0-3.5,0.6-4.8,1.6c-1.5,1.2-2.2,2.8-2.2,5c0,2,0.7,3.6,2.2,4.8c1.3,1.1,3,1.7,5.1,1.7
			c1.1,0,2.1-0.2,3.1-0.5c1-0.3,1.8-0.8,2.5-1.4v-2.9h-3.7c-0.3,0-0.6,0.1-0.7,0.2c-0.1,0.1-0.2,0.3-0.3,0.6h-0.4v-3h0.4
			c0.1,0.3,0.2,0.5,0.3,0.6c0.1,0.1,0.3,0.2,0.7,0.2h6.1v0.4c-0.3,0.1-0.5,0.2-0.6,0.3c-0.1,0.1-0.2,0.3-0.2,0.7v2
			c0,0.3,0.1,0.6,0.2,0.7c0.1,0.1,0.3,0.2,0.6,0.3v0.3c-0.8,0.8-1.7,1.4-2.5,1.8c-1.7,0.9-3.6,1.4-5.7,1.4c-2.6,0-4.7-0.7-6.4-2.1
			c-0.8-0.7-1.4-1.5-1.9-2.5c-0.5-1.1-0.8-2.3-0.8-3.5c0-1.8,0.5-3.3,1.6-4.7c0.9-1.3,2.2-2.2,3.8-2.7c1.1-0.4,2.3-0.6,3.7-0.6
			c1.2,0,2.2,0.1,3.2,0.4c1,0.3,2,0.7,3.2,1.3c0.3,0.2,0.6,0.3,0.6,0.3c0.1,0,0.3-0.2,0.6-0.5L18.2,47.3z"/>
		<path style="fill:#7A7A7A;" d="M29.6,61.4l-5.5-10.8v9.5c0,0.3,0.1,0.6,0.2,0.7c0.1,0.1,0.3,0.2,0.6,0.3v0.3H22v-0.3
			c0.3-0.1,0.5-0.2,0.6-0.3s0.2-0.3,0.2-0.7V49.9c0-0.3-0.1-0.6-0.2-0.7c-0.1-0.1-0.3-0.2-0.6-0.3v-0.3h3.9v0.4
			c-0.4,0.1-0.6,0.3-0.6,0.5c0,0.1,0.1,0.3,0.3,0.7l4.1,8.2l4.1-8.2c0.2-0.4,0.3-0.6,0.3-0.7c0-0.2-0.2-0.4-0.6-0.5v-0.3h3.9v0.3
			c-0.3,0.1-0.5,0.2-0.6,0.3c-0.1,0.1-0.2,0.3-0.2,0.7v10.3c0,0.3,0.1,0.6,0.2,0.7c0.1,0.1,0.3,0.2,0.6,0.3v0.3h-3.1v-0.3
			c0.3-0.1,0.5-0.2,0.6-0.3s0.2-0.3,0.2-0.7v-9.6L29.6,61.4z"/>
		<path style="fill:#7A7A7A;" d="M51.7,54.7c1.5,0.6,2.2,1.7,2.2,3.1c0,1.1-0.4,1.9-1.2,2.6c-0.4,0.3-0.9,0.6-1.4,0.8
			c-0.6,0.2-1.3,0.2-2.2,0.2h-7.9v-0.3c0.3-0.1,0.5-0.2,0.6-0.3s0.2-0.3,0.2-0.7V49.9c0-0.3-0.1-0.6-0.2-0.7
			c-0.1-0.1-0.3-0.2-0.6-0.3v-0.3h7.7c0.8,0,1.4,0.1,1.9,0.2c0.5,0.1,0.9,0.3,1.3,0.5c0.4,0.3,0.8,0.7,1.1,1.2
			c0.3,0.5,0.4,1,0.4,1.6C53.5,53.2,52.9,54.1,51.7,54.7z M43.5,54.1h4.8c0.8,0,1.3-0.1,1.7-0.1c0.3-0.1,0.7-0.2,1-0.3
			c0.6-0.3,0.9-0.8,0.9-1.6c0-0.8-0.3-1.4-1-1.8c-0.3-0.2-0.6-0.3-1-0.3c-0.4-0.1-0.9-0.1-1.7-0.1h-4.7
			C43.5,49.8,43.5,54.1,43.5,54.1z M43.5,60.2h5.1c0.8,0,1.4-0.1,1.8-0.1c0.4-0.1,0.7-0.2,1-0.4c0.6-0.4,0.9-1,0.9-1.8
			c0-0.9-0.3-1.6-1.1-2.1c-0.3-0.2-0.7-0.3-1.1-0.4s-1-0.1-1.8-0.1h-5C43.5,55.3,43.5,60.2,43.5,60.2z"/>
		<path style="fill:#7A7A7A;" d="M70.9,54.1H60.2v6c0,0.3,0.1,0.6,0.2,0.7c0.1,0.1,0.3,0.2,0.6,0.3v0.4h-3.3v-0.4
			c0.3-0.1,0.5-0.2,0.6-0.3c0.1-0.1,0.2-0.3,0.2-0.7V47.1c0-0.3-0.1-0.6-0.2-0.7c-0.1-0.1-0.3-0.2-0.6-0.3v-0.4H61v0.3
			c-0.3,0.1-0.5,0.2-0.6,0.3c-0.1,0.1-0.2,0.3-0.2,0.7v5.5H71v-5.5c0-0.3-0.1-0.6-0.2-0.7s-0.3-0.2-0.6-0.3v-0.4h3.3v0.3
			c-0.3,0.1-0.5,0.2-0.6,0.3c-0.1,0.1-0.2,0.3-0.2,0.7V60c0,0.3,0.1,0.6,0.2,0.7s0.3,0.2,0.6,0.3v0.4h-3.3v-0.4
			c0.3-0.1,0.5-0.2,0.6-0.3c0.1-0.1,0.2-0.3,0.2-0.7v-6H70.9z"/>
		<path style="fill:#7A7A7A;" d="M99.8,51.3v2.8h-0.3c0-0.4-0.1-0.6-0.3-0.6c-0.3,0-0.7,0.3-1.3,1c-0.4,0.5-0.9,1.3-1.6,2.6
			c0.4,1,0.9,1.7,1.4,2.1c0.4,0.3,0.9,0.5,1.3,0.5c0.1,0,0.2,0,0.3-0.1c0.1-0.1,0.1-0.2,0.1-0.5h0.3v2.3c-1.2,0-2.2-0.2-2.9-0.7
			c-0.7-0.4-1.3-1.1-1.7-2c-1.2,1.9-3.1,3-5.5,3c-1.8,0-3.2-0.5-4.2-1.5c-1-0.9-1.4-2.1-1.4-3.3c0-0.7,0.2-1.3,0.5-1.9
			s0.8-1.1,1.3-1.6c0.6-0.4,1.3-0.7,2.2-1c-1.3-0.7-2-1.6-2-2.9c0-1.2,0.4-2.1,1.4-2.9c0.8-0.7,1.9-1,3.3-1c1.6,0,2.8,0.4,3.7,1.4
			c0.7,0.7,1.1,1.6,1.1,2.6c0,0.7-0.2,1.4-0.6,1.9c-0.4,0.6-1.1,1-1.8,1.3c1.2,0.6,2.1,1.5,2.6,2.8C96.8,52.9,98.2,51.5,99.8,51.3z
			 M90,53.4c-1.2,0-2.2,0.3-3.1,1.1c-0.7,0.6-1.1,1.3-1.1,2.2s0.3,1.7,0.9,2.2c0.8,0.8,1.8,1.2,3.1,1.2c1.2,0,2.3-0.4,3.3-1.2
			c0.7-0.6,1.1-1.3,1.1-1.8c0-0.4-0.1-0.8-0.3-1.3c-0.2-0.5-0.6-0.9-0.9-1.2C92.2,53.8,91.2,53.4,90,53.4z M90.7,46.9
			c-0.8,0-1.4,0.2-1.9,0.6c-0.6,0.4-0.9,1.1-0.9,1.9c0,0.7,0.3,1.3,0.8,1.7c0.6,0.5,1.4,0.7,2.3,0.7c0.9,0,1.6-0.2,2.1-0.7
			c0.5-0.4,0.8-1,0.8-1.6c0-0.7-0.2-1.3-0.7-1.7C92.5,47.2,91.8,46.9,90.7,46.9z"/>
		<path style="fill:#7A7A7A;" d="M126.5,47.1l-1.7,2.8l-0.3-0.2c0.1-0.2,0.1-0.4,0.1-0.6c0-0.3-0.5-0.7-1.4-1.2
			c-1.3-0.7-2.8-1-4.4-1c-2.1,0-3.8,0.6-5.2,1.8c-1.3,1.2-2,2.8-2,4.7s0.7,3.5,2.1,4.7c1.3,1.2,3,1.8,5,1.8c1.9,0,3.7-0.6,5.1-1.7
			c0.7-0.5,1-0.9,1-1.1c0-0.1-0.1-0.3-0.2-0.5l0.3-0.2L127,59l-0.3,0.2c-0.2-0.2-0.4-0.3-0.5-0.3s-0.2,0.1-0.4,0.2
			c-0.7,0.5-1.3,0.9-1.7,1.2c-0.4,0.3-0.9,0.5-1.5,0.7c-1.1,0.4-2.4,0.6-3.7,0.6c-2.6,0-4.8-0.7-6.4-2.2c-1.7-1.6-2.6-3.5-2.6-5.8
			c0-1.9,0.6-3.5,1.6-4.8c1.7-2.2,4.2-3.2,7.6-3.2c2.2,0,4.4,0.6,6.5,1.8c0.1,0.1,0.2,0.1,0.3,0.1c0.1,0,0.3-0.2,0.6-0.4L126.5,47.1
			z"/>
		<path style="fill:#7A7A7A;" d="M138,48.3c2.3,0,4.1,0.6,5.5,1.8c1.5,1.3,2.2,2.9,2.2,5c0,1.3-0.4,2.5-1.1,3.6
			c-1.4,2-3.6,3.1-6.6,3.1c-2.3,0-4.1-0.6-5.5-1.8c-1.5-1.3-2.2-2.9-2.2-4.9c0-1.3,0.4-2.6,1.1-3.6c0.8-1.1,1.8-1.9,3.2-2.5
			C135.5,48.5,136.7,48.3,138,48.3z M138,49.6c-1.8,0-3.3,0.6-4.5,1.7c-1,1-1.5,2.2-1.5,3.6c0,1.4,0.5,2.7,1.5,3.6
			c1.1,1.2,2.6,1.7,4.5,1.7c1.9,0,3.4-0.6,4.5-1.7c1-1,1.5-2.2,1.5-3.6c0-1.5-0.5-2.7-1.5-3.7C141.4,50.2,139.9,49.6,138,49.6z"/>
		<path style="fill:#7A7A7A;" d="M151.1,59.2c0.3,0,0.7,0.1,0.9,0.4c0.2,0.2,0.3,0.6,0.3,0.9c0,0.3-0.1,0.6-0.4,0.9
			c-0.2,0.2-0.6,0.4-0.9,0.4c-0.3,0-0.6-0.1-0.9-0.4c-0.2-0.2-0.4-0.6-0.4-0.9c0-0.3,0.1-0.6,0.3-0.9
			C150.4,59.3,150.7,59.2,151.1,59.2z"/>
		<path style="fill:#7A7A7A;" d="M166.5,55.4V60c0,0.3,0.1,0.6,0.2,0.7s0.3,0.2,0.6,0.3v0.4h-3.3v-0.4c0.3-0.1,0.5-0.2,0.6-0.3
			c0.1-0.1,0.2-0.3,0.2-0.7V47.1c0-0.3-0.1-0.6-0.2-0.7c-0.1-0.1-0.3-0.2-0.6-0.3v-0.4h3.3v0.3c-0.3,0.1-0.5,0.2-0.6,0.3
			c-0.1,0.1-0.2,0.3-0.2,0.7v6.5l8.4-6.6c0.3-0.2,0.4-0.4,0.4-0.6s-0.2-0.3-0.4-0.3v-0.4h4.1v0.4c-0.4,0.1-0.9,0.2-1.3,0.6l-6.4,4.9
			l7,8.9c0.2,0.2,0.3,0.3,0.4,0.4c0.2,0.1,0.4,0.1,0.7,0.1v0.4h-3.8V61c0.3-0.1,0.5-0.2,0.5-0.3c0-0.1-0.2-0.3-0.5-0.8l-5.6-7.2
			L166.5,55.4z"/>
		<path style="fill:#7A7A7A;" d="M197.8,47.3l-1.8,2.8l-0.3-0.2c0.1-0.2,0.2-0.4,0.2-0.5c0-0.2-0.4-0.6-1.2-1
			c-1.6-0.8-3.2-1.3-4.8-1.3c-1.9,0-3.5,0.6-4.8,1.6c-1.5,1.2-2.2,2.8-2.2,5c0,2,0.7,3.6,2.2,4.8c1.3,1.1,3,1.7,5.1,1.7
			c1.1,0,2.1-0.2,3.1-0.5c1-0.3,1.8-0.8,2.5-1.4v-2.9h-3.7c-0.3,0-0.6,0.1-0.7,0.2c-0.1,0.1-0.2,0.3-0.3,0.6h-0.4v-3h0.4
			c0.1,0.3,0.2,0.5,0.3,0.6c0.1,0.1,0.3,0.2,0.7,0.2h6.1v0.4c-0.3,0.1-0.5,0.2-0.6,0.3c-0.1,0.1-0.2,0.3-0.2,0.7v2
			c0,0.3,0.1,0.6,0.2,0.7c0.1,0.1,0.3,0.2,0.6,0.3v0.3c-0.8,0.8-1.7,1.4-2.5,1.8c-1.7,0.9-3.6,1.4-5.7,1.4c-2.6,0-4.7-0.7-6.4-2.1
			c-0.8-0.7-1.4-1.5-1.9-2.5c-0.5-1.1-0.8-2.3-0.8-3.5c0-1.8,0.5-3.3,1.6-4.7c0.9-1.3,2.2-2.2,3.8-2.7c1.1-0.4,2.3-0.6,3.7-0.6
			c1.2,0,2.2,0.1,3.2,0.4c1,0.3,2,0.7,3.2,1.3c0.3,0.2,0.6,0.3,0.6,0.3c0.1,0,0.3-0.2,0.6-0.5L197.8,47.3z"/>
	</g>
</g>
</svg>
