<?xml version="1.0" encoding="utf-8"?>
<!-- Generator: Adobe Illustrator 25.0.0, SVG Export Plug-In . SVG Version: 6.00 Build 0)  -->
<svg version="1.1" id="Ebene_1" xmlns="http://www.w3.org/2000/svg" xmlns:xlink="http://www.w3.org/1999/xlink" x="0px" y="0px"
	 viewBox="0 0 198 65" style="enable-background:new 0 0 198 65;" xml:space="preserve">
<g>
	<ellipse style="fill:#00A0E4;" cx="134.1" cy="32.3" rx="6.3" ry="5"/>
	<path style="fill:#00A0E4;" d="M100,32.3c0-3.6-3.9-4.9-6.7-4.9h-1.1v4.9v4.9h1.1C96.1,37.2,100,36,100,32.3z"/>
	<path style="fill:#00A0E4;" d="M182.3,27.2c0.6,0,1.2-0.2,1.7-0.7c0.5-0.5,0.7-1,0.7-1.7s-0.2-1.2-0.7-1.7c-0.5-0.5-1-0.7-1.7-0.7
		c-0.6,0-1.2,0.2-1.7,0.7c-0.5,0.5-0.7,1-0.7,1.7c0,0.7,0.2,1.2,0.7,1.7C181.1,27,181.6,27.2,182.3,27.2z M181.1,23.4
		c0.1-0.1,1.1-0.1,1.1-0.1c0.3,0,0.6,0.1,0.8,0.1c0.3,0.1,0.5,0.4,0.5,0.8c0,0.3-0.1,0.5-0.3,0.6c-0.1,0.1-0.3,0.1-0.4,0.1
		c0.2,0.1,0.4,0.1,0.5,0.3c0.1,0.1,0.1,0.3,0.1,0.5V26c0,0.1,0,0.1,0,0.2c0,0.1,0,0.1,0,0.1v0.1H183c0,0,0,0,0-0.1v-0.1v-0.2
		c0-0.3-0.1-0.6-0.3-0.7c-0.1-0.1-0.3-0.1-0.6-0.1h-0.4v1.2h-0.6V23.4z"/>
	<path style="fill:#00A0E4;" d="M-0.2,65h198.3V0H-0.2V65z M180.4,23c0.6-0.6,1.2-0.8,1.9-0.8s1.4,0.3,1.9,0.8
		c0.6,0.6,0.8,1.2,0.8,1.9c-0.1,0.8-0.3,1.4-0.9,1.9c-0.6,0.6-1.2,0.8-1.9,0.8s-1.4-0.3-1.9-0.8c-0.6-0.6-0.8-1.2-0.8-1.9
		S179.9,23.5,180.4,23z M150.1,21.9h7.4L169,33.3V21.9h7.7v20.7h-7.3l-11.6-11.3h-0.1v11.3h-7.7V21.9z M134,21.4
		c7.7,0,14,4.9,14,10.9c0,6.1-6.3,10.9-14,10.9c-7.7,0-14-4.9-14-10.9S126.3,21.4,134,21.4z M110.2,21.9h7.7v20.7h-7.7V21.9z
		 M84.4,21.9h10.3c5.3,0,13.4,3.5,13.4,10.4c0,7-8.1,10.3-13.4,10.3H84.4C84.4,42.6,84.4,21.9,84.4,21.9z M62.7,21.9h18.7v5.4h-11
		v2.3h9.7v5.4h-9.7v2.3h11v5.4H62.7V21.9z M32.9,21.9l7.6,10.6l7.9-10.6h11.4v20.8h-9v-9.2l-6.5,9.2h-7.4L22,21.9H32.9z M21.1,27.9
		l10.1,14.7H21.1V27.9z"/>
	<path style="fill:#00A0E4;" d="M182.7,24.8c0.2-0.1,0.3-0.2,0.3-0.5c0.1-0.2,0-0.3-0.1-0.4c-0.1-0.1-0.3-0.1-0.6-0.1h-0.5v1.1h0.5
		C182.4,24.8,182.6,24.8,182.7,24.8z"/>
</g>
</svg>
