<?xml version="1.0" encoding="utf-8"?>
<!-- Generator: Adobe Illustrator 25.0.0, SVG Export Plug-In . SVG Version: 6.00 Build 0)  -->
<svg version="1.1" id="Ebene_1" xmlns="http://www.w3.org/2000/svg" xmlns:xlink="http://www.w3.org/1999/xlink" x="0px" y="0px"
	 viewBox="0 0 155 65" style="enable-background:new 0 0 155 65;" xml:space="preserve">
<g>
	<rect y="43.5" style="fill:#F39200;" width="155" height="21.5"/>
	<g>
		<g>
			<path style="fill:#9D6200;" d="M50.2,36.8c-0.7-1.3-1.7-2.8-2.9-3.8c-0.9-0.8-2-1.2-3.5-2h-0.3c-0.2,0.1-0.5,0.4-0.7,0.6
				c-0.3,0.3-0.7,0.3-1,0.6c-0.2,0.1-0.5,0.2-0.7,0.3c-0.2,0.1-0.4,0.1-0.6,0.2c-0.3,0.1-0.2,0.2-0.2,0.4s-0.1,0.6,0.1,0.8
				c0.2-0.1,0.3-0.1,0.6-0.1c0.9-0.1,1.6,0.6,1.9,1.4c0.4,0.8,0,1.9,0.1,2.8c0.1,0.9,0.6,1.2,0.6,2.1c0.1,0.9-0.3,1.8-0.8,2.6
				c-0.4,0.7-0.8,1.8-1.4,2.4c-0.5,0.6-1.2,0.1-1.9,0.2c-1.6,0.1-1.7-0.8-2.8-1.8c-1.2-1-1.4-3.8-2.7-3.4c0,0.3,0,0.6,0,0.8
				c0,0.5,0.1,1,0.2,1.5c-0.1-0.2-0.2-0.5-0.2-0.7c-0.1-0.5,0.1-1,0-1.5c-0.1-0.4-0.1-0.6-0.2-1c-0.1-0.3,0-0.6,0-0.9
				c0-0.2,0.1-0.3,0-0.5c-0.3,0.1-7.7,0.2-8.3,0.3c-0.3,0.1-0.7,0.1-1,0.1c-0.4,0-0.7,0.1-1,0.2c0.1,0.3,0,0.6-0.3,0.7
				c-0.1,0.1,0.2,0.2,0.6,0.3c-1.6-0.5-3-1.2-3.9-2.4c-0.6-0.8-1-2.2-1-3.1c-0.1-1.3-0.1-2.6-0.2-3.9l0.1-0.2
				c-0.6,0.2-2.5,0.6-6.5,4c-0.9,0.8-2.3,1.8-3.3,2.6c-0.7,0.6-1.3,1.6-1.2,2.5c0.3,2,0.8,3.9,1.4,4.7c1.5,1.7,2.2,2.3,4.1,3.2
				c0.9,0.4,1.7,0.8,2.8,1.2c0.9,0.4,2.2,0.8,3.2,1.2c0.8,0.3,1.5,0.4,2.4,0.2c0.4-0.1,0.7-0.3,0.9-0.6c0.2,0.7,0.9,1.7,1.3,2.4
				c0.4,0.6,0.8,1.4,1,2c0.3,0.7,1.2,1.3,1.8,1.5c0.5,0.2,1.5,0.8,1.4-0.1c-0.1-0.2,1.3,0.6,1.8,0.6c0.6,0.1,0.6-0.6,0.7-1.1
				c0.2,0.2,0.8,0.6,1.2,0.7c0.7,0.1,0.6-0.7,0.6-1c0.6,0.4,1.8,1.2,1.9,0.1c0.1-0.8-0.3-2.3-0.4-3.1c-0.3-1.2-0.4-2-0.9-3.1
				c-1.6-3.2-2.7-3.1-4.5-4.2h-0.1V43v-0.1l0,0c0,0,1,0.6,1.3,0.7c0.3,0.1,0.5,0.2,0.7,0.3c0.2,0.2,0.3,0.3,0.6,0.4
				c0.3,0.1,0.9,0,1.2,0c1-0.1,1.9-0.1,2.9,0c0.2,0,0.3,0,0.4-0.1c0.7,0.9,1,1.3,2,1.8c2.2,1.2,5.1,1.3,7.5,1.2
				c2.3-0.1,5.2-0.6,6.5-2.7C52.8,42.3,51.4,39,50.2,36.8z M26.5,40.6c0.2,0.2,0.4,0.3,0.6,0.5c0.2,0.2,0.4,0.5,0.6,0.8
				C27.3,41.4,27,41,26.5,40.6z"/>
		</g>
		<g>
			<path style="fill:#9D6200;" d="M23.4,38.1c0.1,0,0.1,0,0.1,0v-0.1L23.4,38.1z"/>
		</g>
	</g>
	<g>
		<path style="fill:#D8DDE7;" d="M43.8,30.3c1.5,0.8,2.6,1.2,3.5,2c1.2,1,2.2,2.5,2.9,3.8c1.2,2.3,2.6,5.6,1.2,8
			c-1.2,2.1-4.1,2.7-6.5,2.7c-2.5-0.1-5.3-0.2-7.6-1.2c-1-0.5-1.9-1.4-2.5-2.4c-0.6-0.9-0.8-2-0.8-3c0-0.3,0-0.6,0-0.8
			c1.3-0.4,1.5,2.3,2.7,3.4c1,0.9,1.2,1.9,2.8,1.8c0.7-0.1,1.4,0.4,1.9-0.2c0.6-0.6,1-1.7,1.4-2.4c0.5-0.8,0.8-1.7,0.8-2.6
			c0-0.9-0.6-1.2-0.6-2.1c-0.1-0.9,0.3-1.9-0.1-2.8c-0.3-0.8-1-1.5-2-1.4C40.7,33,40.5,33,40.4,33c-0.1-0.2-0.1-0.6-0.1-0.8
			c0-0.3-0.1-0.3,0.2-0.4c0.2-0.1,0.4-0.1,0.6-0.2c0.2-0.1,0.5-0.2,0.7-0.3c0.4-0.2,0.7-0.3,1-0.6c0.2-0.1,0.6-0.5,0.7-0.6"/>
	</g>
	<g>
		<path style="fill:#D8DDE7;" d="M34.7,31.4c0.1,0.5,0.1,1,0.1,1.5c0.1,0.4,0.1,0.9,0.1,1.4c-0.3,0.6-0.4,1.9-0.7,2.5
			C34,37.2,33.5,37,32.9,37c-1.3,0.1-8.2,0.3-9.5,0.4c-1.4,0.1-0.3-1.2-0.4-2.3c-0.2-1.3-0.3-2.5-0.6-3.8c-0.2-0.7-0.3-1.4-0.3-2.2
			c0-0.2-0.4-0.9-0.1-1c0.7-0.3,1.1,0.3,1.2,0.5c0.4,0.6,0.4,1.2,0.9,1.7c0.9,1.1,2.4,1.5,3.8,1.8c0.7,0.1,1.2,0.3,1.8,0.1
			c0.6-0.2,1-0.6,1.6-0.9c0.8-0.6,1-1.4,1.8-0.7C33.3,30.6,34.5,31.3,34.7,31.4"/>
	</g>
	<g>
		<path style="fill:#D8DDE7;" d="M18.5,29.2c0.1,1.3,0.1,2.6,0.2,3.9c0.1,0.9,0.5,2.3,1,3.1c0.9,1.3,2.5,1.9,4.2,2.5
			c1.2,0.4,3.5,1.2,4.2,3.7c0.3,0.9-1,1.2-1.6,1.9c-0.7,1-2,1.6-2.9,2.5c-0.7,0.7-0.9,1.3-1.8,1.7c-0.8,0.3-1.9,0.2-2.7-0.1
			c-1-0.3-2.3-0.8-3.2-1.2c-1-0.4-1.8-0.7-2.8-1.2c-2-0.9-3-1.5-4.6-3.2c-0.7-0.8-0.8-2.7-1-4.7c-0.1-0.9,0.6-1.9,1.2-2.5
			c0.9-0.8,2.3-1.8,3.3-2.6c4-3.4,5.9-3.9,6.5-4c-0.1,0,0.1,0,0,0"/>
	</g>
	<g>
		<path style="fill:#FFED00;" d="M39.4,11c0.7-0.6-2.4-0.7-2.5-1.1c-0.4-1-1-4.1-1.4-4.9c-0.5-1.1-2-2.9-3.1-3.6
			c-0.9-0.6-4.1-1.7-5.3-1.3c-0.1-0.1-2-0.8-5.8,1.8c-2.4,1.7-3.5,5.7-3,8.8c0,0.1-1.2-0.1-1.2,0.1c0,1.7,1.3,1.2,2.3,1.4
			c1.6,0.3,6.7,0.3,8.4,0.2C31.5,12.3,37.6,12,39.4,11"/>
	</g>
	<g>
		<path style="fill:#FACAAE;" d="M35.6,14.7c-0.2-1.2-0.1-1.5-0.7-2.8c-0.1-0.1-3.5,0.7-12.6,0.5c-0.6,0-0.5,0.8-0.8,1.4
			c-0.3,0.7-0.4,1.4-0.5,2.3c-0.2,1.4,0,2.8-0.1,4.2c-0.1,0.2-0.1,1.2-0.3,1c-0.3-0.2-0.4-1.3-0.4-1.6c-0.1-1.2,0.4-2.7-0.9-3.3
			c-1.2-0.5-1,2.3-0.8,3.3c0.2,0.8,0.9,1.5,1.2,2.6c0.2,0.9,0.9,1.2,1.2,1.1c0.4,2,0.4,2,2.4,5.3c0.1,0.1,1.2,2.8,4.4,3.2
			c1.5,0.2,4.4,0.2,5-1.9c0.3-1-0.4-1.9-0.7-2.9c-0.3-1.5-0.5-3-0.6-4.5c-0.1-1.6,0.3-2.9,1.3-4.2c0.8-1,2-2,2.6-3.3
			C35.4,15.2,35.6,14.9,35.6,14.7"/>
	</g>
	<g>
		<path style="fill:#FACAAE;" d="M36.6,34.3c1-0.5,2.5-1.2,3.6-1.4c1.2-0.3,2.3,0.3,2.9,1.3c0.6,1-0.2,2.6,0,3
			c0.9,1.8,0.7,2.7,0.1,3.9c-0.5,1-1.8,3.3-2.2,3.4c-0.9,0.2-2.6,0.5-3.7,0.1c-1-0.4-0.7-1.2-0.8-1.2c-2.3-0.4-1.8-3.9-1.8-3.9
			c-1-0.2-0.8-2.3-0.7-3.4c0.1-1,0.2-2.3,2-2.1c0.2,0,0.4,0.1,0.6,0.2"/>
	</g>
	<g>
		<path style="fill:#FACAAE;" d="M28.3,42.4c1.8,1.1,2.9,1,4.6,4.2c0.6,1.1,0.7,1.9,0.9,3.1c0.2,0.8,0.6,2.3,0.4,3.1
			c-0.1,1.1-1.3,0.3-1.9-0.1c0.1,0.4,0.1,1.2-0.6,1c-0.3-0.1-1-0.4-1.2-0.7c-0.1,0.5-0.1,1.2-0.7,1.1c-0.6-0.1-1.8-0.8-1.8-0.6
			c0,0.8-1,0.3-1.5,0.1c-0.7-0.3-1-0.9-1.3-1.5c-0.3-0.7-0.7-1.4-1-2s-1.2-1.7-1.3-2.4c-0.1-0.3,1.4-2,2.2-2.7
			C26.2,44.2,27.1,43.3,28.3,42.4"/>
	</g>
	<g>
		<path style="fill:#CA9E67;" d="M19.2,12.3c-0.1,0.7-0.1,1.4-0.1,2c0,0.7-0.3,1.4,0.3,1.9c0.7,0.7,0.8,1.4,0.9,2.2s0.1,1.4,0,2.1
			c0,0.1,0.2,0.7,0.2,0.8c0.6,0.3,0.5-0.4,0.6-0.8c0.1-0.4,0.1-0.9,0.2-1.3c0.1-0.7-0.2-1.7-0.1-2.4c0.1-1.3,0.4-2.8,0.9-4
			c0.1-0.2,0.2-0.4,0.3-0.6C21.2,12.3,20.2,12.3,19.2,12.3z"/>
	</g>
	<g>
		<path style="fill:#7D4E24;" d="M35.2,12c0.1,0.2,0.1,0.3,0.2,0.5c0.2,0.6,0.3,1.2,0.4,1.8c0.1,0.3-0.3,0.5,0,0.6
			c0.3,0.1,0.7-0.1,0.9-0.2c0,0.1,0,0.1-0.1,0.1l0.1-0.2c0.3-0.9,0.2-1.9-0.1-2.8C36.1,11.8,35.7,12,35.2,12z"/>
	</g>
	<g>
		<path style="fill:#7D4E24;" d="M34.5,15c0.1-0.1,0.4-0.3,0.4-0.5c-0.2-0.1-0.3-0.1-0.6-0.1c-0.2-0.1-0.3-0.1-0.5-0.1
			c-0.3-0.1-0.6-0.1-0.9-0.1c-0.3,0-0.6-0.1-0.8,0.1c-0.3,0.2-0.5,0.7-0.7,0.9c0.6-0.2,0.8-0.2,1.2-0.3c0.3-0.1,0.5,0,0.8,0
			C33.7,15,34.2,15.1,34.5,15"/>
	</g>
	<g>
		<path style="fill:#7D4E24;" d="M26.6,15.2c-0.1-0.2-0.3-0.7-0.6-0.8c-0.2-0.1-0.4,0-0.6,0.1c-0.5,0.1-1,0.1-1.4,0.2
			c-0.2,0.1-0.5,0.2-0.5,0.4c-0.1,0.2,0.3,0.2,0.4,0.2c0.5,0.1,1.2-0.2,1.8-0.2c0.4,0,0.6,0.1,1,0.1"/>
	</g>
	<g>
		<path style="fill:#1D1D1B;" d="M24.8,16.5c0.3-0.1,0.6-0.2,0.9,0.1c0.2,0.2,0.3,0.7,0.3,1s-0.3,0.7-0.7,0.6
			c-0.3-0.1-0.8-0.4-0.9-0.7C24.4,17.3,24.5,16.6,24.8,16.5"/>
	</g>
	<ellipse style="fill:#FFFFFF;" cx="25.1" cy="17.1" rx="0.3" ry="0.3"/>
	<path style="fill:#CBBBA0;" d="M47.3,23.2c0,4.9-4,8.8-8.9,8.8c-4.9,0-8.9-3.9-8.9-8.8c0-4.9,4-8.8,8.9-8.8
		C43.3,14.4,47.3,18.4,47.3,23.2z"/>
	<g>
		<path style="fill:#7B6A58;" d="M36.7,14.8c-1.5,0.7-3.5,1.7-4.6,3c-1,1.2-1.7,2.5-1.9,4.1c-0.2,1.3-0.1,2.9,0.3,4.2
			c0.4,1.5,1.5,3,2.8,3.9c1.2,0.9,2.9,1.6,4.3,1.9c0.2,0,0.2,0.1,0.3,0.1c-0.8,0.1-1.4-0.1-2.3-0.3c-0.9-0.3-1.9-0.7-2.7-1.3
			c-1.3-1-2.7-2.8-3.3-4.5c-0.5-1.4-0.4-3-0.1-4.5c0.3-1.7,1.2-3,2.3-4.2c1.2-1.3,2.9-2.5,4.7-2.5c0.2,0,0.3,0,0.5,0"/>
	</g>
	<path style="fill:#D2ECFC;" d="M45.4,23.2c0,4-3.1,7.2-6.9,7.2c-3.8,0-6.9-3.2-6.9-7.2s3.1-6.8,6.9-7
		C41.6,16.1,45.4,19.2,45.4,23.2z"/>
	<g>
		<path style="fill:#C6C6C6;" d="M40.3,31.8c0.1,0.3,0.3,0.7,0.1,1c-0.2,0.2-0.6,0.2-0.8,0.2c-0.6,0.2-1.2,0.7-1.5,0.6
			c-0.7-0.1-1.4-0.2-1.5-0.3c-0.1-0.3-0.3-1.3,0-1.4c0.3-0.1,0.8,0.2,1.2,0.2c0.6,0,1-0.1,1.6-0.2C39.7,31.9,40,31.9,40.3,31.8"/>
	</g>
	<g>
		<path style="fill:#AC443C;" d="M40.6,44.8c0.1,0.3,0.2,0.5-0.1,0.7c-0.2,0.2-0.7,0.3-0.9,0.3c-0.4,0.1-0.7,0-1.2,0
			c-0.7,0-0.8-0.2-0.9-0.8c-0.1-0.6,1.4-0.3,1.8-0.3c0.5,0.1,0.7,0,1.3-0.1"/>
	</g>
	<g>
		<path style="fill:#AC443C;" d="M37.1,33.5c0.2,0.1,0.5,0.1,0.7,0.2c-0.2,0-0.4,0.2-0.7,0.2C37.2,33.7,37.2,33.6,37.1,33.5"/>
	</g>
	<g>
		<path style="fill:#4054A1;" d="M21.7,27.5c-0.8,0.1-1.1,0.2-1.7,0.3c-0.6,0.2-1.2,0.6-1.3,1.1c-0.1,0.7-0.1,1.5-0.1,2.2
			c0,0.8,0.2,1.5,0.2,2.2c0,0.5,0,1.7,0.2,1.7c0,0,2.4-0.5,3.9-0.7c0.1,0-0.2-1.8-0.4-2.5c-0.3-1.4-0.5-2.8-0.7-4.2
			c0-0.1,0-0.2-0.1-0.3"/>
	</g>
	<g>
		<path style="fill:#4054A1;" d="M23.3,37.4c0.4,0,0.7-0.2,1.2-0.2c0.3,0,0.7,0,1-0.1c0.7-0.1,8.1-0.2,8.4-0.3c0.1,0.2,0,0.3,0,0.5
			c0,0.3,0,0.6,0,0.9c0.1,0.4,0.1,0.6,0.2,1c0.1,0.5-0.1,1,0,1.5c0.1,0.5,0.3,1,0.5,1.5c0.2,0.5,0.5,0.9,0.7,1.4
			c-1-0.1-2.1-0.1-3.2,0c-0.3,0-0.9,0.2-1.2,0c-0.2-0.1-0.4-0.3-0.6-0.4c-0.2-0.2-0.4-0.2-0.7-0.3c-0.4-0.2-1.3-0.7-1.3-0.7
			C28,42.2,28.1,42,28,41.7c-0.2-0.3-0.5-1-0.8-1.3c-0.8-0.8-1.9-1.1-3-1.7c-0.2-0.1-1.3-0.4-1.1-0.6c0.3-0.2,0.4-0.4,0.3-0.8"/>
	</g>
	<g>
		<path style="fill:#4054A1;" d="M34.8,31.5c-0.1,0.8,0,1.8,0.1,2.6c0.5-0.1,0.9-0.2,1.5,0.1c0.2,0.1,0.8-0.2,0.8-0.5
			c-0.1-0.4-0.7-0.3-0.7-0.8c0-0.2,0.1-0.7,0.1-0.9c-0.1-0.2-0.4-0.2-0.6-0.3C35.6,31.6,35.3,31.6,34.8,31.5"/>
	</g>
	<g>
		<path style="fill:#3C3C3B;" d="M22.8,34.6c0.2,0.7,0.3,1.3,0.3,1.9c0.1,0.5,0.1,1,0.2,1.5c-0.2,0.1-0.4,0.2-0.6,0.2
			s-0.4-0.2-0.6-0.3c-0.4-0.2-0.8-0.2-1.2-0.4c-0.3-0.2-0.7-0.3-1-0.4c-0.2-0.1-0.4-0.1-0.6-0.2c-0.2-0.1-0.2-0.3-0.2-0.5
			c0-0.4-0.1-0.8-0.2-1.3C19.4,35.1,22.2,34.6,22.8,34.6"/>
	</g>
	<g>
		<path style="fill:#E6332A;" d="M24.5,24.5c0.8,0.2,1.7,0.4,2.4,0.8c0.7,0.3,1.5,0.9,1.7,2.5c0,0.2-0.3,0.2-1,0.2
			c-0.8,0-1.6-0.5-2.2-1.2c-0.6-0.7-0.9-1.5-1.2-2.3h0.1"/>
	</g>
	<g>
		<path style="fill:#534339;" d="M27.2,25.2c0.2,0.2,0.6,0.4,0.8,0.6c0.2,0.2,0.3,0.6,0.4,0.8c0.1,0.2,0.1,0.4,0.1,0.7
			c0.1,0.2,0.2,0.3,0.2,0.5c0.4-0.1,0.8-0.3,1.1-0.5c0.3-0.2,0.2-0.6,0.1-0.9c-0.1-0.3-0.2-0.7-0.4-0.9c-0.3-0.2-0.7-0.1-1-0.1
			c-0.4,0-0.8-0.1-1.2-0.1"/>
	</g>
	<g>
		<path style="fill:#CA9E67;" d="M35.2,12c0.2,0.4,0.4,1,0.4,1.5c0.1,0.4,0.2,0.8,0.2,1.2c0.6-0.1,0.9-0.1,1-0.7
			c0.1-0.6-0.1-1.5-0.3-2.2C36.1,11.8,35.6,12,35.2,12z"/>
	</g>
	<g>
		<path style="fill:#683C11;" d="M20.8,20.7c-0.1,0.3-0.1,0.6-0.2,0.9C20.7,21.3,20.7,21,20.8,20.7z"/>
	</g>
	<g>
		<path style="fill:#B17F4A;" d="M20.8,12.5c-0.2,0.2-0.5,0.6-0.4,0.9c0.1,0.2,0.2,0.2,0.2,0.4c0.1,0.2,0.1,0.3,0.1,0.5
			c0,0.3-0.1,0.7-0.2,1c-0.1,0.7,0.1,1.3,0.2,2.1c0.1,0.7,0.1,1.3,0.1,1.9c0,0.4-0.4,2.4,0.1,2.3c0.1-0.7,0.3-1.7,0.4-2.4
			c0.1-0.9-0.2-2.4-0.1-3.4c0.1-1.1,0.4-2.1,0.9-3.1c0.1-0.1,0.1-0.2,0.1-0.3c-0.4,0-0.8,0-1.3,0C20.8,12.4,20.8,12.5,20.8,12.5z"/>
	</g>
	<g>
		<path style="fill:#683C11;" d="M26.6,15.3c-0.6-0.3-1-0.1-1.5-0.1c-0.4,0-0.9,0-1.4,0c0.4-0.2,1.1-0.2,1.5-0.3
			c0.3-0.1,1.1-0.4,1.2,0.2"/>
	</g>
	<g>
		<path style="fill:#683C11;" d="M31.7,15c0.5-0.2,0.8-0.4,1.4-0.3c0.4,0,0.8,0,1.2,0c0.4,0,0.3,0.3,0,0.4c-0.3,0.1-0.7-0.1-1.1-0.1
			C32.6,14.9,32.2,14.9,31.7,15"/>
	</g>
	<g>
		<path style="fill:#BE1622;" d="M27.1,25.3c0.6,0.3,1,0.9,1.2,1.5c-0.1-0.4-0.5-0.9-0.9-0.9c-0.5-0.1-0.4,0.7-0.3,1
			c-0.1-0.7-0.7-1-1.3-1.2c-0.3-0.1-0.6-0.2-0.8-0.4c-0.2-0.2-0.4-0.5-0.5-0.7c0.8,0.4,1.7,0.5,2.6,0.7"/>
	</g>
	<g>
		<path style="fill:#C7A38D;" d="M35.6,14.1c-0.1-0.7-0.3-1.4-0.6-2.1c-0.3-0.1-0.6,0.1-0.9,0.2c0.1,0.2,0.1,0.3,0.1,0.4
			c0.1,0.3,0.2,0.7,0.2,1c0,0.3,0,0.5-0.2,0.6c0.2,0.1,0.5,0.1,0.7,0.3C35,14.7,35,15,35.2,15C35.7,15.2,35.7,14.3,35.6,14.1z"/>
	</g>
	<g>
		<path style="fill:#C7A38D;" d="M18.9,18c0.5-1.2,1.1,0.7,1.2,1.5c-0.2,0.2-0.4,0.7-0.3,1.3c-0.2-0.2-0.3-1-0.4-1.3
			c0-0.2,0.3-0.2,0.3-0.5C19.6,18.6,19.4,17.6,18.9,18"/>
	</g>
	<g>
		<path style="fill:#C7A38D;" d="M28.5,29.2c0.1,0.2,0,0.7,0.2,0.7c0.1,0,0.4,0,0.5-0.1c0.1-0.2-0.1-0.6-0.3-0.7
			c-0.1-0.1-0.3-0.2-0.4-0.2"/>
	</g>
	<g>
		<path style="fill:#C7A38D;" d="M24.2,29.5c0.7,0.4,1.2,0.7,1.8,0.9c0.6,0.2,1.3,0.3,1.9,0.5c1.2,0.2,2.8-0.4,3.8-1.5
			c0.2-0.2,0.6,0.6,0.7,0.6c0.5,0.5-0.6,1.3-1.2,1.5c-0.7,0.3-1.4,0.2-2.1,0c-0.8-0.2-2-0.2-2.7-0.6c-0.7-0.3-1-0.5-1.5-0.9
			c-0.5-0.4-0.3-0.4-0.8-0.8"/>
	</g>
	<g>
		<path style="fill:#C7A38D;" d="M36.5,36.8c0.4,0.1,0.9,0.1,1.3,0.1c0.3-0.1,0.8-0.2,1.1-0.2c-0.4,0.2-0.8,0.5-1.3,0.7
			c-0.3,0.2-0.8,0.3-1.2,0.4c-0.3,0.1-0.7,0.2-0.5-0.3C36.2,37.3,36.3,37,36.5,36.8"/>
	</g>
	<g>
		<path style="fill:#C7A38D;" d="M36.6,39.6c0.5,0,1-0.1,1.5,0c0.4,0.1,0.9,0,1.3,0c-0.4,0.1-0.8,0.2-1.2,0.3
			c-0.3,0.1-0.7,0.2-1.1,0.3c-0.2,0-0.7,0.2-0.8,0C36.2,40,36.3,39.7,36.6,39.6"/>
	</g>
	<g>
		<path style="fill:#C7A38D;" d="M36.7,42c0.7-0.1,1.5-0.2,2.4-0.1c-0.6,0.1-1.3,0.4-1.9,0.5c-0.2,0-0.9,0.2-0.7-0.3"/>
	</g>
	<g>
		<path style="fill:#C7A38D;" d="M36.2,39.9c-0.2,0.6-0.1,1.4,0.3,2c0.2,0.2,0.2,0.2,0.2,0.5c0,0.2,0,0.4-0.1,0.7
			c0,0-0.1,0.5-0.1,0.2c-0.1,0.3-0.5,0-0.7-0.2c-0.2-0.2-0.6-0.3-0.5-0.6c0.1-0.2,0.2-0.3,0.2-0.4c0.1-0.2,0.1-0.3,0.1-0.5
			c0-0.4,0-0.9-0.2-1.3c-0.1-0.3-0.4-0.7-0.7-0.9c0.4,0,0.9,0,1.3,0.1c0.2,0.1,0.6,0.2,0.3,0.5"/>
	</g>
	<g>
		<path style="fill:#C7A38D;" d="M36.4,34.3c-0.2,0-0.8-0.4-0.7,0.2c0,0.5,0.1,0.9-0.1,1.3c-0.1,0.3,0,1.3-0.8,1.4
			c0.7,0.4,1,0.9,0.9,1.7c0,0.2-0.1,0.6,0.2,0.7c0.3,0.2,0.4,0.1,0.3-0.2c-0.3-0.8-0.3-1.3-0.2-1.9c0.1-0.2,0.3-0.4,0.3-0.7
			c-0.1-0.3-0.1-0.5-0.2-0.7c-0.2-0.4-0.2-1.1-0.1-1.5"/>
	</g>
	<g>
		<path style="fill:#C7A38D;" d="M42.1,33.2c0.5,0.5,0.7,1.3,0.6,2c-0.1,0.3-0.2,0.7-0.3,0.9c-0.1,0.2-0.2,0.4-0.3,0.6
			c-0.1,0.2-0.3,0.3-0.3,0.6c-0.1,0.2,0.3,0.4,0.5,0.4c1.7,0.5,1,3.5,0.3,4.6c0.6-1.3,0.6-1,0.8-1.6c0.2-0.6,0.3-1.3,0.2-2
			c-0.1-0.3-0.2-0.7-0.3-1c-0.1-0.3-0.3-0.5-0.3-0.8c-0.1-0.6,0.3-1.2,0.3-1.8c0-0.4-0.2-0.8-0.4-1.2c-0.2-0.3-0.5-0.4-0.7-0.6"/>
	</g>
	<g>
		<path style="fill:#C7A38D;" d="M30.9,47.6c0.7,0.8,1.7,1.7,2,2.7c0.3,0.8,0.1,1.6,0.4,2.4c0.1,0.1,0.3,0.7,0.2,0.8
			c-0.2,0.2-0.7-0.2-0.8-0.3c-0.8-0.5-0.3-1.4-0.4-2.3c-0.1-1-0.7-1.9-1-2.9"/>
	</g>
	<g>
		<path style="fill:#C7A38D;" d="M29.3,48.9c0.7,0.6,1.4,1.2,1.8,1.9c0.3,0.6,0.4,1.3,0.5,1.9c0.1,0.3,0.2,1.4-0.4,1
			c-0.7-0.3-0.4-1.3-0.5-1.9c-0.1-0.9-0.5-1.6-1-2.3"/>
	</g>
	<g>
		<path style="fill:#C7A38D;" d="M27.1,50c0.6,0.5,1.4,1.1,1.7,1.9c0.1,0.3,0.1,0.6,0.2,0.9c0.1,0.3,0.1,0.6,0.1,0.8
			c-0.2,0.6-0.8,0.2-0.9-0.2c-0.2-0.6,0.1-1.2-0.2-1.8c-0.2-0.7-0.7-1.2-1-1.7"/>
	</g>
	<g>
		<path style="fill:#909399;" d="M31.4,31.6c0.6-0.1,1.5,0,1.8,0.6c0.1,0.1,0,0.2,0.2,0.3c0.2,0.1,0.3,0.1,0.4,0.2
			c0.3,0.2,0.6,0.4,0.7,0.7c0.1,0.3,0.3,0.6,0.3,0.9c0.1-0.8,0-1.6,0-2.4c0-0.4-0.3-0.4-0.6-0.6c-0.3-0.1-0.5-0.3-0.7-0.5
			c-0.3-0.2-0.6-0.4-0.8-0.7c-0.1,0.2-0.1,0.4-0.3,0.6c-0.1,0.2-0.2,0.3-0.3,0.4c-0.1,0.1-0.3,0.3-0.4,0.4
			C31.6,31.5,31.3,31.6,31.4,31.6"/>
	</g>
	<g>
		<path style="fill:#909399;" d="M33.2,32.4c-1.2,1-3.1,1.4-4.6,1.3c-0.3,0-0.7,0-0.9-0.1c0.9,0.3,1.9,0.4,2.9,0.3
			c0.6-0.1,1-0.1,1.5-0.2c0.5-0.1,1.1-0.2,1.5-0.4c0.3-0.2,0.4-0.8-0.1-0.8"/>
	</g>
	<g>
		<path style="fill:#909399;" d="M22.1,27.9c0.1,0.8,0.3,1.8,0.8,2.4c0.4,0.6,0.8,1.3,1.6,1.8c-0.4-0.1-0.8-0.3-1.2-0.5
			c-0.3-0.2-0.7-0.3-0.9-0.6c-0.2-0.3-0.2-0.7-0.2-1c-0.1-0.4-0.2-0.8-0.2-1.1c0-0.2-0.2-0.8-0.1-0.9"/>
	</g>
	<g>
		<path style="fill:#909399;" d="M19,35.7c-0.8-0.4-1.9-0.4-2.8-0.3c-0.8,0.1-2.1,0.2-2.7,0.7c-0.4,0.3-0.8,0.4-1.1,0.8
			c0.2-0.2,0.3-0.6,0.4-0.8c0.1-0.4,0.4-0.7,0.8-1c-0.7,0.4-1.7,0.8-2,1.7c-0.1,0.2,0.1,0.3,0,0.4c-0.2,0.2-0.3,0.2-0.4,0.3
			c-0.3,0.2-0.3,0.4-0.4,0.8c-0.1,0.3-0.1,0.7,0.2,1c0.4-0.6,0.8-1.3,1.4-1.8c0.5-0.5,0.9-1.1,1.7-1.4c0.6-0.2,1.8-0.1,2.3,0
			c0.6,0.1,0.9,0.3,1.5,0.4c0.7,0.1,1,0.2,1.7,0.3c-0.1-0.3,0-0.6-0.2-0.8c-0.1-0.1,0-0.3-0.1-0.4"/>
	</g>
	<g>
		<path style="fill:#909399;" d="M25.4,39.4c0.4,0.2,0.7,0.4,0.8,0.9c0.1,0.3-0.2,0.4-0.4,0.6c-0.6,0.4-1,0.9-1.5,1.4
			c-0.4,0.5-0.9,1-1.3,1.5c-0.4,0.6-0.7,1.1-0.9,1.7c-0.2,0.4-0.3,0.8-0.4,1.2c-0.1,0.3-0.1,0.2-0.2,0.6h0.1c0.3-1,0.7-1.3,1.3-2.2
			c0.6-0.8,1.4-1.8,2.3-2.3c0.4-0.3,0.9-0.4,1.4-0.1c0.3,0.2,0.5,0.4,0.8,0.3c0.3-0.1,0.7-0.5,0.7-0.7c0.1-0.4-0.5-0.9-0.7-1.3
			c-0.3-0.4-0.6-0.8-1-1c-0.3-0.2-0.7-0.3-1-0.5"/>
	</g>
	<g>
		<path style="fill:#909399;" d="M43.3,35.3c0.7,0.9,1.3,1.9,1.5,3c0.2,1,0.2,2.1-0.1,3.1c-0.2,0.7-0.5,1.2-0.8,1.8
			c0.9-1.4,1.3-1.9,1.5-4.6c0.1-0.9-0.1-1.8-0.5-2.6c-0.1-0.3-0.6-0.8-0.5-1.1c0.1-0.3,0.6-0.1,0.8,0c1,0.5,1.6,1.2,2.2,2.1
			c0.1-0.5-0.2-1-0.4-1.4c-0.1-0.3-0.2-0.6-0.3-0.9c-0.1-0.2-0.2-0.6-0.4-0.8c-0.1,0.2-0.1,0.3-0.3,0.4c-0.1,0-0.3,0-0.4-0.1
			c-0.3-0.1-0.6-0.4-0.8-0.6c-0.2-0.1-0.2-0.2-0.3,0c-0.2,0.1-0.3,0.2-0.5,0.3c-0.2,0.1-0.6,0.1-0.8,0c0.4,0.4,0.4,1,0.4,1.5"/>
	</g>
	<g>
		<path style="fill:#9D9D9C;" d="M38.5,32.1c0.2,0,0.3,0,0.3,0.2c0.1,0.1,0.1,0.2,0.1,0.3c0,0.2,0.1,0.4,0,0.7
			c0.3-0.1,0.6-0.3,0.9-0.4c0.4-0.1,0.7-0.1,0.7-0.6c0-0.1,0-0.3-0.1-0.4c-0.1-0.1-0.6,0.1-0.8,0.1c-0.3,0.1-0.6,0.1-0.9,0.1"/>
	</g>
	<g>
		<path style="fill:#532016;" d="M37.6,44.9c0.6-0.1,1.3-0.1,1.8,0.1c0.3,0.1,0.7,0.6,1,0.4c0.4-0.2,0.3-0.8-0.2-0.8
			c-0.4,0-0.8,0.1-1.2,0.1s-1-0.1-1.3-0.1"/>
	</g>
	<g>
		<path style="fill:#909399;" d="M33.8,36.4c-2.2-0.7-5.7-1.7-6.7-1.6c1.5,0.3,3.4,0.9,4.5,1.5c-0.2,0-3.6-0.4-5.5-0.3
			c0,0,0.1,0.1,0.8,0.2c0.9,0.1,1.7,0.2,2.4,0.6c0.3,0.1,0.6,0.2,0.8,0.3c0.3,0.1,3.5,0,3.7-0.1c0.3-0.1,0-0.1,0-0.3"/>
	</g>
	<g>
		<path style="fill:#213A8F;" d="M19.7,28.1c0.4-0.1,1-0.2,1.3,0.3c0.1,0.2,0.7,4,0.8,5.2c0,0.3,0.1,0.4-0.1,0.7
			c-0.2,0.2-0.5,0.3-0.7,0.5c0.3,0.1,0.6-0.1,0.9-0.1c0.3,0,0.7-0.1,1-0.1c-0.2-1.5-0.5-2.8-0.6-4.2c-0.1-0.6-0.2-1.2-0.2-1.8
			c-0.1-0.5-0.2-1.2-0.8-0.9c-0.5,0.2-0.9,0.3-1.4,0.4"/>
	</g>
	<g>
		<path style="fill:#213A8F;" d="M34.9,31.8c0.7,0.3,1,0.6,0.9,1.4c-0.1,0.5,0.1,1.1,0.7,1c0.6-0.1,0.8-0.4,0.4-0.7
			c-0.2-0.1-0.5-0.4-0.5-0.7c-0.1-0.2-0.1-0.6-0.1-0.7c-0.1-0.3-1-0.6-1.4-0.6"/>
	</g>
	<g>
		<path style="fill:#213A8F;" d="M33.9,37c0.1,0.6,0,1.2,0.1,1.7c0.1,0.2-0.1,0.3,0.1,0.6c0.1,0.2,0.1,0.4,0.1,0.6
			c-0.1,0.9,0.3,1.8,0.6,2.6c0.2,0.4,0.4,0.9,0.6,1.3c-0.8-0.2-1.5,0.1-2.3,0c-0.7-0.1-2.1,0.1-2.2-0.2c1.8-2.5,0.7-4.4,0.8-5.3
			c0.3,0.3,0.5,0.9,0.7,1.3c0.1,0.3,0.2,1.2,0.5,1.3c0.7-0.9,0.3-4-0.2-3.9c0.3,0,0.8,0,1.2,0"/>
	</g>
	<g>
		<path style="fill:#C7A38D;" d="M30,16.4c0.2,0.3,0.1,0.3,0.2,0.4c0.1,0.2,0.2,0.5,0.3,0.7c0.1,0.2,0.1,0.4,0.2,0.6
			c0.1,0.2,0,0.2-0.1,0.3c-0.1,0.1-0.1,0.3-0.2,0.3c-0.1-0.2-0.1-0.4-0.1-0.6c0-0.2-0.1-0.4-0.1-0.6c-0.1-0.2-0.1-0.4-0.1-0.6
			c-0.1-0.2-0.1-0.5-0.2-0.7"/>
	</g>
	<g>
		<path style="fill:#C7A38D;" d="M28.2,21.2c-0.2,0.2-0.4,0.8-0.1,0.9c0.3,0.1,0.7,0,0.9,0.1c0.2,0.1,0.3,0.7,0,0.7
			c-0.2,0-0.3-0.3-0.4-0.3c-0.2-0.1-0.7-0.1-0.8-0.2c-0.4-0.3-0.4-0.9,0-1.1"/>
	</g>
	<g style="opacity:0.72;">
		<path style="fill:#F39200;" d="M27,0.3c0.5,0.3,1,0.6,1.4,0.9c0.4,0.4,1,0.8,1.3,1.3c0.6,0.8,0.7,1.6,1,2.5
			c0.3,0.8,0.5,1.7,0.5,2.5c0,0.5-0.1,1-0.1,1.4s0.1,0.9,0,1.3c-0.1,0.4-0.5,0.4-0.9,0.6c-0.4,0.1-0.8,0.2-1.2,0.3
			c0.8-0.3,1.4-0.6,1.6-1.5c0.1-0.7,0.2-1.5,0.1-2.2c-0.1-1.9-0.7-3.6-1.8-5.2c-0.3-0.4-1-0.9-1.5-1.4c-0.3-0.2-1-0.5-1.3-0.6"/>
	</g>
	<g style="opacity:0.72;">
		<path style="fill:#F39200;" d="M23.7,0.9c0.5,0.1,0.9,0.2,1.4,0.4c0.2,0.1,0.4,0.2,0.6,0.4c0.2,0.2,0.8,0.7,0.9,0.8
			c0.7,0.9,0.9,1.8,1,3c0.1,0.8,0.2,0.7,0.2,1.4c0.1-1.4,0.1-3-0.6-4.3c-0.6-1-1.4-1.4-2.4-2c-0.5-0.3-1,0-1.4,0.3c0,0.1,0,0,0,0"/>
	</g>
	<g style="opacity:0.72;">
		<path style="fill:#F39200;" d="M38.6,10.6c-0.4-0.2-1.3-0.2-1.7-0.2c-0.4,0-0.8,0-1.2,0.1c-1,0.1-1.6,0.2-2.6,0.3
			c-0.4,0.1-0.9,0.1-1.4,0.1l0,0c0.2-0.2,1.2-0.2,2-0.3c0.7-0.1,3.1-1.4-1-8.5c-0.2-0.4,0.4,0.4,0.3-0.1c2.8,1.6,3.6,7.8,4,8.2
			c0.4,0.3,1,0.4,1.5,0.6"/>
	</g>
	<g style="opacity:0.72;">
		<path style="fill:#F39200;" d="M25.4,12.2c-0.7-0.1-1.4-0.2-2.1-0.4c-0.3-0.1-0.7-0.2-1-0.2c-0.3-0.1-0.7-0.1-1-0.2
			c-0.3-0.1-0.3-0.1-0.5-0.2c0.4,0.1,0.3-0.5,0.2-0.8c-0.1-0.3-0.3-0.6-0.8-0.7c0.2-0.2,0.8-0.1,1,0.2c0.3,0.3,0.6,0.6,1,0.8
			c0.7,0.4,1.3,0.7,2,1.1c0.4,0.2,0.9,0.4,1.4,0.4"/>
	</g>
	<path style="fill:#090204;" d="M38.7,32.1c-4.9,0-8.8-4-8.8-8.8s4-8.8,8.8-8.8s8.8,4,8.8,8.8C47.4,28.1,43.5,32.1,38.7,32.1
		L38.7,32.1z M38.7,14.9c-4.6,0-8.4,3.7-8.4,8.4s3.7,8.4,8.4,8.4c4.6,0,8.4-3.7,8.4-8.4S43.3,14.9,38.7,14.9L38.7,14.9z"/>
	<path style="fill:#090204;" d="M28.3,29.2c0,0.3-0.1,0.4,0.1,0.7c0.1,0.2,0.4,0.1,0.4-0.1c-0.1-0.3-0.2-0.6-0.3-0.8
		C28.3,28.8,28.3,29.2,28.3,29.2z"/>
	<path style="fill:#090204;" d="M22.9,28.6c0.7,1.9,2.5,3.1,4.5,3.6c1.9,0.4,4.4,0.1,5.3-1.9c0.1-0.2-0.3-0.1-0.3,0
		c-1,2.1-3.6,2.1-5.5,1.5c-1.6-0.4-3-1.7-3.6-3.3C23.3,28.3,22.9,28.4,22.9,28.6L22.9,28.6z"/>
	<path style="fill:#090204;" d="M34.1,31.3c-1.8,2.6-5.8,2.9-8.4,1.4c-0.1-0.1,0.1,0.1,0.2,0.1c2.8,1.5,6.6,1.2,8.4-1.5
		C34.4,31.3,34.2,31.2,34.1,31.3L34.1,31.3z"/>
	<path style="fill:#090204;" d="M24.5,32.1c-1.3-0.8-2.1-2.6-2.3-4.1c0-0.1-0.2-0.1-0.2,0.1c0.2,1.5,0.9,3.1,2.2,4
		C24.3,32,24.5,32.1,24.5,32.1z"/>
	<path style="fill:#090204;" d="M25.8,14.4c0.3,0.3,0.6,0.6,0.8,1c0.1-0.1,0.2,0,0.3,0C26,15,25,15.2,24,15.3
		c-0.9,0.1-0.2-0.5,0.1-0.6c0.2-0.1,0.4-0.1,0.6-0.1C25.1,14.5,25.5,14.5,25.8,14.4c0.2,0.1,0.4-0.2,0.2-0.2c-0.8,0-2,0.1-2.7,0.6
		c-0.4,0.3,0.2,0.6,0.4,0.6c0.9,0.1,1.9-0.4,2.8,0.1c0.1,0.1,0.4,0.1,0.4-0.1c-0.2-0.4-0.5-0.8-0.8-1.1C26,14.2,25.6,14.3,25.8,14.4
		L25.8,14.4z"/>
	<path style="fill:#090204;" d="M24.9,16.6c0.7-0.2,1,1,0.6,1.5c-0.3,0.4-0.8-0.3-0.9-0.6C24.5,17.2,24.5,16.7,24.9,16.6
		c0.2,0.1,0.3-0.3,0.1-0.2c-1.3,0.1-0.8,2.3,0.5,2c0.6-0.2,0.7-0.7,0.6-1.2c-0.1-0.6-0.6-0.9-1.2-0.7C24.6,16.5,24.7,16.6,24.9,16.6
		L24.9,16.6z"/>
	<path style="fill:#090204;" d="M34.8,12c0.4,0.9,0.6,1.7,0.6,2.6c0,0.1,0.4,0.1,0.4-0.1c-0.1-0.9-0.2-1.8-0.6-2.6
		C35.1,11.8,34.7,11.9,34.8,12L34.8,12z"/>
	<path style="fill:#090204;" d="M36.3,11.8c0.2,0.4,0.2,0.9,0.2,1.3s0.1,0.9,0,1.3c0,0.1,0.3,0.1,0.4-0.1c0.1-0.4,0-0.8,0-1.2
		c0-0.5,0-1-0.2-1.4C36.7,11.6,36.3,11.7,36.3,11.8L36.3,11.8z"/>
	<path style="fill:#090204;" d="M19,12.3c-0.1,1,0,2.1-0.1,3.1c0,0.2-0.1,0.6,0,0.7c0.2,0.4,0.7,0.5,0.9,0.9
		c0.4,0.9,0.3,2.2,0.3,3.1c0,0.2-0.1,0.9,0.1,1.1c0.1,0.2,0.4,0.2,0.6,0.4c0.1-0.1,0.2-0.1,0.3-0.2c0,0-0.1,0-0.1-0.1
		c-0.1-0.1-0.4,0.1-0.2,0.2v0.1c0.1,0.1,0.4-0.1,0.3-0.2s-0.3-0.2-0.4-0.3c-0.3-0.2-0.2-1.5-0.2-1.9c0-0.8-0.1-1.7-0.3-2.4
		c-0.1-0.2-0.2-0.4-0.3-0.5c-0.5-0.4-0.6-0.8-0.6-1.4c0.1-0.9,0.1-1.9,0.1-2.9C19.4,12.1,19,12.2,19,12.3L19,12.3z"/>
	<path style="fill:#090204;" d="M21.5,27.6c0.4,3.5,1.2,6.9,1.6,10.5c0.1-0.1,0.1-0.1,0.2-0.2c-0.2,0.1-0.3,0.1-0.5,0.1
		c-0.2,0.1-0.2,0.3,0.1,0.2c0.2-0.1,0.3-0.1,0.5-0.1c0.1,0,0.2-0.1,0.2-0.2c-0.4-3.5-1.2-6.9-1.6-10.5
		C21.9,27.3,21.5,27.4,21.5,27.6L21.5,27.6z"/>
	<path style="fill:#090204;" d="M21.6,27.4c-0.9,0.1-1.8,0.3-2.5,0.7c-0.8,0.4-0.7,1-0.7,1.9c-0.1,2.3,0.3,4.6,0.7,6.8
		c0.1,0.2,0.4,0.1,0.4-0.1c-0.3-1.8-0.6-3.6-0.7-5.5c-0.1-0.8,0-1.7,0.1-2.5c0.1-0.7,2.3-1.1,2.8-1.2c0.2,0,0.3-0.3,0.2-0.3
		L21.6,27.4z"/>
	<path style="fill:#090204;" d="M22.7,34.4c-1.3,0.2-2.5,0.3-3.7,0.6c-0.2,0.1-0.2,0.2,0.1,0.1c1.2-0.3,2.4-0.4,3.6-0.6
		C22.8,34.5,23,34.3,22.7,34.4L22.7,34.4z"/>
	<path style="fill:#090204;" d="M33.9,36.8c-3.5,0.1-7,0.1-10.4,0.4c-0.2,0-0.3,0.2-0.1,0.2c3.4-0.3,6.9-0.3,10.4-0.4
		C33.9,37,34.1,36.8,33.9,36.8L33.9,36.8z"/>
	<path style="fill:#090204;" d="M39,36.7c-0.4,0.1-0.9,0.1-1.4,0.2c-0.7,0.1-1.2,0.2-1.3-0.6c-0.1-0.6-0.1-1.2,0.1-1.7
		c0.1-0.3,1.4-0.7,1.8-0.9c0.5-0.2,0.9-0.4,1.4-0.6c1.1-0.4,1.8-0.3,2.7,0.5c0.7,0.6,0.8,1.4,0.7,2.3c-0.1,0.4-0.3,0.9-0.2,1.3
		c0.1,0.6,0.4,1,0.6,1.6c0.1,0.7,0.1,1.3-0.2,1.9c-0.4,1-0.9,1.9-1.3,2.9c-0.4,1-1.3,1.2-2.3,1.1c-0.9,0-2.3,0.3-2.7-0.7
		c-0.2-0.5-0.2-1.1-0.1-1.6c0.1-0.4,1.7-0.3,2-0.3c0.2,0,0.5-0.1,0.3-0.1c-0.8-0.1-1.5-0.1-2.3,0.1c-0.4,0.1-0.4,0.6-0.4,0.9
		c0,0.4,0.1,1.3,0.6,1.6c0.9,0.4,2,0.3,3,0.3c0.6,0,1.3-0.1,1.8-0.6c0.4-0.5,0.7-1.2,0.9-1.8c0.7-1.5,1.4-2.8,1-4.5
		c-0.1-0.4-0.5-0.8-0.4-1.3c0.1-0.4,0.2-0.8,0.2-1.3c0.1-0.9-0.2-1.7-0.9-2.3c-1.2-1.1-2.5-0.5-3.9,0.1c-0.7,0.3-1.9,0.6-2.5,1.1
		c-0.3,0.3-0.2,1.3-0.2,1.7c0.1,0.4,0.2,0.9,0.7,0.9c0.8,0.1,1.4-0.2,2.2-0.3C38.9,36.8,39.2,36.6,39,36.7L39,36.7z"/>
	<path style="fill:#090204;" d="M36.7,42.1c-0.4-0.5-0.7-1.7-0.3-2.3c0.1-0.1,0.8-0.1,1-0.1c0.6,0,1-0.1,1.6-0.1
		c0.1,0,0.6-0.1,0.3-0.1c-0.7-0.1-1.5-0.1-2.2,0c-0.3,0-0.8-0.1-1,0.2c-0.3,0.2-0.2,0.8-0.2,1.1c0.1,0.5,0.2,1.1,0.6,1.5
		c0.1,0.1,0.4-0.1,0.3-0.2L36.7,42.1z"/>
	<path style="fill:#090204;" d="M36.5,39.5c-0.4-0.7-0.7-2,0.1-2.6c0.2-0.2-0.1-0.3-0.2-0.2c-0.8,0.8-0.7,2-0.2,2.9
		C36.2,39.8,36.6,39.7,36.5,39.5L36.5,39.5z"/>
	<path style="fill:#090204;" d="M36.6,34.1c-0.6-0.1-1.8-0.4-2.3,0.2c-0.5,0.7-0.6,1.7-0.7,2.5c-0.1,0.7-0.1,1.7,0.2,2.4
		c0.3,0.6,1.8,0.5,2.3,0.4c0.2,0,0.3-0.3,0.1-0.2c-0.6,0.1-1.8,0.2-2-0.5c-0.2-0.6-0.2-1.2-0.1-1.7c0-0.6,0.1-1.1,0.2-1.7
		c0.1-0.3,0.2-0.6,0.3-0.9c0.3-0.7,1.3-0.4,1.9-0.3C36.5,34.3,36.8,34.2,36.6,34.1L36.6,34.1z"/>
	<path style="fill:#090204;" d="M36.1,37.4c-0.5-0.1-1.2-0.3-1.7-0.2c-0.2,0.1-0.2,0.3-0.2,0.4c-0.1,0.3,0,0.4,0,0.7
		c0,0.1,0.1,0.4,0.1,0.3c0-0.3-0.1-1.3,0.3-1.4c0.4-0.1,1,0.1,1.4,0.2C36,37.5,36.2,37.4,36.1,37.4L36.1,37.4z"/>
	<path style="fill:#090204;" d="M34.4,39.5c-0.1,1.5,0.1,3.7,1.9,4c0.1,0,0.4-0.2,0.2-0.2c-1.8-0.3-1.8-2.4-1.8-3.8
		C34.7,39.3,34.4,39.4,34.4,39.5L34.4,39.5z"/>
	<path style="fill:#090204;" d="M40.2,31.7c-0.1,0.3-0.1,0.7,0,1c0,0.1,0.4,0,0.4-0.1c-0.1-0.3-0.1-0.7,0-1
		C40.5,31.5,40.2,31.6,40.2,31.7L40.2,31.7z"/>
	<path style="fill:#090204;" d="M36.2,32c0,0.2,0,0.5,0,0.7c0,0.2,0,0.5,0.1,0.6c0.2,0.2,0.5,0.2,0.7,0.2c0.3,0.1,0.6,0.2,0.8,0.2
		c0.2,0,0.4-0.2,0.2-0.2c-0.4,0-0.9-0.2-1.3-0.3c-0.1-0.1-0.1-0.4-0.1-0.5c-0.1-0.3-0.1-0.5-0.1-0.8C36.6,31.8,36.2,31.9,36.2,32
		L36.2,32z"/>
	<path style="fill:#090204;" d="M36.9,33.5c0,0.2,0,0.3,0,0.4c0,0.1,0.4,0,0.4-0.1c0-0.2,0-0.3,0-0.4C37.2,33.3,36.9,33.4,36.9,33.5
		L36.9,33.5z"/>
	<path style="fill:#090204;" d="M40.4,44.8c0,0.3,0.1,0.7-0.3,0.8c-0.5,0.2-1,0.2-1.5,0.2c-0.2-0.1-0.7,0-0.8-0.2
		c-0.2-0.2-0.1-0.7,0-0.9c0-0.1-0.4,0-0.4,0.1c0,0.3-0.2,0.9,0.2,1c0.4,0.2,1.1,0.2,1.6,0.2c0.4,0,1-0.1,1.4-0.3
		c0.3-0.2,0.2-0.6,0.2-0.9C40.7,44.6,40.4,44.7,40.4,44.8L40.4,44.8z"/>
	<path style="fill:#090204;" d="M33.8,39.2c-0.3,2.7,1.2,5.5,3.6,6.5c0.1,0.1,0.4-0.1,0.3-0.2c-2.5-1-3.9-3.8-3.6-6.4
		C34.2,39,33.8,39.1,33.8,39.2L33.8,39.2z"/>
	<path style="fill:#090204;" d="M37.9,45.9c2.9,0.8,5.8,1.2,8.8,0.7c2.2-0.3,4.5-1.2,5.1-3.5c0.7-2.5-0.6-5.6-1.9-7.6
		c-1.5-2.3-3.4-4.6-6.1-5.1c-0.1,0-0.4,0.1-0.2,0.2c2.3,0.5,3.9,2.3,5.3,4.1c1.5,2,2.5,4.4,2.8,6.8c0.6,6.6-9.2,5.6-13.2,4.4
		C38.3,45.8,37.9,45.8,37.9,45.9L37.9,45.9z"/>
	<path style="fill:#090204;" d="M42.8,34c1.8,0.3,3.5,1.4,4.3,3c0.1,0.1,0.4,0,0.4-0.1c-0.1-0.7-0.3-0.9-0.7-1.5
		c-0.1-0.1-0.4-0.4-0.4-0.3c0.4,0.6,0.7,1.2,0.8,2c0.1-0.1,0.2-0.1,0.4-0.1c-0.8-1.7-2.6-2.9-4.5-3.1C42.9,33.9,42.7,34,42.8,34
		L42.8,34z"/>
	<path style="fill:#090204;" d="M43.1,35.3c1.3,1.4,1.7,3.1,1.5,5c-0.1,1-0.3,2.3-0.9,3.1c-0.1,0.2,0.3-0.2,0.4-0.3
		c0.7-0.9,0.8-1.9,0.9-3c0.2-1.8-0.4-3.6-1.7-5C43.3,34.9,43,35.2,43.1,35.3L43.1,35.3z"/>
	<path style="fill:#090204;" d="M34.6,31.5c0,0.8,0.1,1.7,0.1,2.5c0,0.1,0.4,0.1,0.4-0.1c0-0.8-0.1-1.7-0.1-2.5
		C34.9,31.3,34.6,31.4,34.6,31.5L34.6,31.5z"/>
	<path style="fill:#090204;" d="M11.9,36.9c-1,0.4-1.9,1.2-1.3,2.4c0.1,0.1,0.1,0.1,0.2,0.1c0.5-0.1,0.9-1.1,1.1-1.4
		c0.5-0.7,1.1-1.2,1.8-1.6c0.8-0.4,2-0.1,2.9,0.1c2.2,0.3,4.1,1,6.1,1.9c1.1,0.4,2.2,0.9,3.3,1.5c1,0.6,1.5,1.5,2,2.6
		c0.1,0.2,0.3,0.1,0.4-0.1c0,0,0,0,0-0.1c0-0.2-0.3-0.1-0.4,0.1c0,0,0,0,0,0.1c0.1,0,0.2-0.1,0.4-0.1c-0.3-0.8-0.8-1.8-1.5-2.3
		c-1.1-0.8-2.4-1.3-3.6-1.8c-2.4-1-4.6-1.8-7.2-2.1c-1-0.1-1.8-0.3-2.7,0.2c-0.8,0.4-1.3,1.1-1.9,1.8c-0.1,0.2-0.3,0.4-0.4,0.6
		c-0.2,0.3-0.1,0.7-0.2,0.2c-0.2-0.9,0.3-1.4,1-1.8C12.1,36.9,12.1,36.9,11.9,36.9L11.9,36.9z"/>
	<path style="fill:#090204;" d="M27.9,42.3c-1.4,1.2-2.9,2.5-4.1,4c-0.8,0.9-1.3,2.3-2.8,2.3c-1.1,0-2.2-0.5-3.3-0.8
		c-1.9-0.6-3.6-1.4-5.4-2.3c-1.3-0.7-3.1-1.7-3.8-3.1c-0.3-0.6-0.3-1.2-0.4-1.8c-0.2-0.8-0.3-1.6-0.3-2.4c-0.1-2,1.6-2.9,3-4
		c2.5-2,4.8-4.2,7.9-5.2c0.2-0.1,0-0.2-0.1-0.1c-3.3,1.1-5.7,3.5-8.4,5.6c-1.3,0.9-2.6,1.8-2.6,3.5c-0.1,1,0.2,2,0.4,2.9
		c0.2,0.7,0.2,1.5,0.7,2c1.2,1.6,3.1,2.4,4.9,3.3c2,1,4.2,1.9,6.4,2.4c1.5,0.3,2.6,0.1,3.5-1.1c1.5-1.9,3.1-3.5,5-5.1
		C28.3,42.2,28,42.3,27.9,42.3L27.9,42.3z"/>
	<path style="fill:#090204;" d="M26.9,40.5c-2.5,1.5-4.7,4.2-5.5,7.1c0,0.1,0.1-0.2,0.2-0.2c0.8-2.8,3-5.3,5.4-6.8
		C27.1,40.5,26.9,40.5,26.9,40.5L26.9,40.5z"/>
	<path style="fill:#090204;" d="M27.9,42.4c1.2,0.7,2.5,1.2,3.4,2.2c1,1.3,1.8,2.8,2.1,4.4c0.2,1,0.4,2.1,0.5,3.1
		c0.1,0.4,0.1,0.8,0.1,1.2c0,0.4-0.8,0.1-1,0c-0.3-0.2-0.4-0.4-0.5-0.7c0-0.1-0.4,0-0.4,0.1c0.2,0.7,1.2,1.2,1.9,0.9
		c0.7-0.4,0.2-1.8,0.2-2.5c-0.2-1.9-0.7-3.7-1.7-5.3c-0.5-0.8-1-1.5-1.8-2c-0.7-0.6-1.6-0.9-2.4-1.3C28.2,42.2,27.9,42.3,27.9,42.4
		L27.9,42.4z"/>
	<path style="fill:#090204;" d="M30.8,47.5c0.7,1.2,1.2,2.3,1.3,3.6c0.1,0.6,0,1.3,0,1.9c0,0.1,0,0.7-0.2,0.8
		c-0.5,0.1-1-0.3-1.2-0.8c-0.1-0.2-0.4,0.1-0.3,0.3c0.3,0.6,0.8,0.7,1.4,0.7c0.5,0,0.5-0.4,0.6-0.8c0.2-1,0.1-2.2-0.1-3.1
		c-0.1-0.9-0.8-1.7-1.3-2.5C30.9,47.5,30.7,47.4,30.8,47.5L30.8,47.5z"/>
	<path style="fill:#090204;" d="M28.9,48.7c0.5,0.7,1,1.4,1.2,2.3c0.1,0.5,0.1,1,0.1,1.5c0,0.5,0.1,0.9,0,1.4
		c-0.1,0.7-1.9-0.1-2.2-0.5c-0.1-0.2-0.4-0.1-0.4,0.1c0.3,0.7,2.8,1.5,2.9,0.4c0.1-0.8,0-1.6-0.1-2.4c-0.1-1.2-0.7-1.8-1.4-2.8
		C29.1,48.7,28.8,48.6,28.9,48.7L28.9,48.7z"/>
	<path style="fill:#090204;" d="M26.6,49.9c0.5,0.8,1,1.6,1.1,2.6c0,0.4,0.1,0.8,0.1,1.2c0,0.2,0,0.3-0.1,0.4c0,0.2-1.3-0.3-1.3-0.3
		c-1-0.5-1-1.7-1.5-2.6c-0.7-1.2-1.7-2-2.1-3.3c-0.1-0.2-0.4-0.1-0.4,0.1c0.6,1.5,1.9,2.6,2.4,4.1c0.3,1.2,1.1,2.2,2.4,2.2
		c1,0.1,0.8-0.4,0.8-1.3c0-0.4,0-0.9-0.1-1.3c-0.1-0.7-0.7-1-1-1.7C26.9,49.9,26.6,49.8,26.6,49.9L26.6,49.9z"/>
	<path style="fill:#090204;" d="M29.3,25.2c-1.1,0.1-2.2-0.2-3.3-0.5c-0.9-0.2-1.9-0.5-2.7-1c-0.2-0.1-0.4,0.2-0.2,0.3
		c0.8,0.5,1.8,0.7,2.7,1c1.1,0.3,2.3,0.6,3.5,0.5C29.5,25.5,29.6,25.2,29.3,25.2L29.3,25.2z"/>
	<path style="fill:#090204;" d="M23.4,23.3c-0.4,0.5-0.6,1-0.6,1.6c0,0.1,0.4,0,0.4-0.1c-0.1-0.6,0.1-1.2,0.4-1.7L23.4,23.3z"/>
	<path style="fill:#090204;" d="M29.9,27c-2.4,2.2-4.7-0.3-5.5-2.6c-0.1-0.2-0.4-0.2-0.4,0c0.5,1.4,1.3,2.8,2.8,3.4
		c1.1,0.5,2.5,0.1,3.5-0.7C30.3,27,30.1,26.9,29.9,27L29.9,27z"/>
	<path style="fill:#090204;" d="M26.1,25c0.6,0.3,1.1,0.5,1.5,0.9c0.5,0.5,0.7,1.3,0.7,2c0,0.2,0.4,0.1,0.4-0.1c0-0.7-0.2-1.4-0.7-2
		c-0.4-0.6-1-0.7-1.7-1C26.3,24.9,25.9,24.9,26.1,25L26.1,25z"/>
	<polygon style="fill:#090204;" points="35.2,43.9 30.7,43.9 30.7,43.7 35.2,43.7 	"/>
	<path style="fill:#090204;" d="M32.1,14.1c-0.3,0.4-0.6,0.7-0.8,1.1c-0.1,0.1,0.3,0,0.4,0c0.9-0.4,1.7,0,2.6-0.1
		c0.3,0,0.7-0.1,0.7-0.5C35,14,32.8,14,32.4,14c-0.1,0-0.4,0.2-0.2,0.2c0.7,0,1.8,0,2.4,0.4c-0.1,0.2-0.3,0.3-0.4,0.3
		c-0.1,0-0.2,0-0.4-0.1c-0.3,0-0.7-0.1-0.9-0.1c-0.5,0-0.9,0.1-1.4,0.3c0.1,0,0.2,0.1,0.3,0.1c0.2-0.4,0.5-0.7,0.8-1
		C32.5,14,32.1,14.1,32.1,14.1L32.1,14.1z"/>
	<path style="fill:#090204;" d="M29.8,16.3c0,0.9,0.2,1.8,0.3,2.8c0,0.2,0.4,0.1,0.4-0.1c-0.1-0.9-0.4-1.5-0.5-2.4
		C30,16.3,29.8,16.1,29.8,16.3L29.8,16.3z"/>
	<path style="fill:#090204;" d="M29.4,22.3c-0.3-0.2-0.7-0.1-1-0.1c-0.1,0-0.1-0.3-0.2-0.4c-0.1-0.2,0-0.4,0.1-0.6
		c0.2-0.2-0.1-0.1-0.2,0.1c-0.2,0.1-0.3,0.2-0.3,0.3c0,0.2,0.1,0.4,0.2,0.6c0.1,0.1,0.2,0.2,0.3,0.2c0.3,0,0.6-0.1,0.8,0.1
		C29.2,22.5,29.6,22.3,29.4,22.3L29.4,22.3z"/>
	<path style="fill:#090204;" d="M22.1,12.5c-0.5,1-1,2.1-1.1,3.2c-0.1,1.2,0.2,2.5,0.2,3.7c0,1.3-0.6,2.4-0.5,3.6
		c0.1,1.5,0.7,2.8,1.4,4.1c1.2,2,3.3,3.4,5.5,3.8c1.8,0.3,3.1-0.3,4.4-1.5c0.1-0.1-0.3-0.1-0.3,0c-1,1-2.2,1.5-3.7,1.4
		c-1.1-0.2-2.1-0.6-3-1.2c-1.8-1.2-3.1-3.2-3.6-5.3c-0.5-2,0.3-3.9,0.3-5.8c0-0.9-0.2-1.9-0.2-2.9c0-1,0.7-2.3,1.1-3.2
		C22.4,12.3,22.1,12.3,22.1,12.5L22.1,12.5z"/>
	<path style="fill:#090204;" d="M22,28.1c0.2-0.1,0.3-0.2,0.5-0.2c0.1,0,0.2-0.1,0.2-0.2c0-0.1-0.1-0.1-0.2-0.1
		c-0.3,0.1-0.4,0.1-0.7,0.2c-0.1,0-0.2,0.1-0.1,0.2C21.8,28.2,21.9,28.2,22,28.1L22,28.1z"/>
	<path style="fill:#090204;" d="M19.8,16.6c-1.7-1.2-1.8,1.3-1.7,2.5c0.2,1.3,1,2.4,1.4,3.5c0.2,0.6,0.4,1,1.1,1
		c0.1,0,0.3-0.1,0.2-0.2c0,0-0.1,0-0.1-0.1c-0.1-0.1-0.4,0.1-0.3,0.2c0,0,0.1,0,0.1,0.1c0.1-0.1,0.1-0.2,0.2-0.2
		c-0.6,0-0.7-0.8-0.9-1.2c-0.3-0.7-0.7-1.3-0.9-2c-0.3-0.7-0.4-1.3-0.4-2c0-0.7,0.2-1.9,1-1.3C19.6,16.9,20,16.7,19.8,16.6
		L19.8,16.6z"/>
	<path style="fill:#090204;" d="M18.9,18c0.1-0.2,0.3-0.2,0.4-0.1c0.1,0.2,0.2,0.3,0.3,0.5c0.2,0.3,0.2,0.6,0.3,0.9
		c0.1,0.3-0.2,0.4-0.3,0.6c-0.2,0.4-0.1,0.9,0.1,1.3c0.1,0.1,0.2,0,0.1-0.1c-0.2-0.3-0.1-0.7,0.1-1.1c0.1-0.2,0.2-0.3,0.3-0.5
		c0.2-0.2-0.2-0.8-0.3-1s-0.3-0.9-0.7-0.9c-0.3-0.1-0.5,0.2-0.6,0.4C18.7,18.1,18.9,18,18.9,18z"/>
	<path style="fill:#090204;" d="M18.5,10.6c-0.1-2.8,0.2-5.7,2.2-7.9s5.3-2.8,8.1-2.5c2.6,0.3,4.9,1.7,6.2,3.9
		c1,1.7,1.3,3.7,1.8,5.7c0.1,0.3,1.5,0.5,1.8,0.6c0.3,0.1,1.2,0.4,0.5,0.6c-0.4,0.1-0.8,0.2-1.2,0.3c-2,0.4-4,0.6-6,0.7
		c-2.4,0.2-5,0.4-7.3-0.2c-1.6-0.4-3.1-0.9-4.8-1.2c-0.9-0.2-1.7-0.1-2.6,0c-0.1,0-0.2,0.1-0.2,0.2c0.1,0.9,0.3,1.3,1.2,1.4
		c0.9,0.1,1.9,0.1,2.9,0.2c1.9,0.1,3.7,0.2,5.6,0.1c0.2,0,0.3-0.3,0.1-0.3c-1.7,0.1-3.3-0.1-4.9-0.1c-0.9-0.1-1.8-0.1-2.8-0.1
		c-1-0.1-1.5-0.1-1.7-1.3c-0.1,0.1-0.1,0.1-0.2,0.2c2.1-0.2,4,0.3,6,0.8c0.9,0.2,1.7,0.5,2.6,0.7c1.2,0.2,2.5,0.1,3.7,0.1
		c1.9-0.1,3.7-0.3,5.6-0.5c1.5-0.2,3.2-0.3,4.6-0.9c0.4-0.2,0-0.5-0.2-0.6c-0.3-0.2-2.3-0.7-2.3-0.8c-0.5-1.9-0.8-3.7-1.7-5.5
		c-2.3-4-7.6-5-11.7-3.6c-1.8,0.6-3.2,1.7-4.2,3.3c-1.3,2-1.4,4.6-1.3,6.9C18.1,10.9,18.5,10.8,18.5,10.6L18.5,10.6z"/>
	<path style="fill:#090204;" d="M26.2,0.2c4.6,0.9,5.2,6.7,4.7,10.4c0,0.1,0.3,0,0.4-0.1c0.3-2.4,0.2-4.8-0.8-7.1
		c-0.8-1.7-2.2-3-4-3.4C26.5,0,26.1,0.2,26.2,0.2L26.2,0.2z"/>
	<path style="fill:#090204;" d="M32.1,1.5c0.9,1.2,1.8,2.5,2.2,4c0.4,1.4,0.6,2.9,0.7,4.4c0,0.1,0.1,0.1,0.1,0.1
		c0.4,0.1,0.7,0.1,1,0.1c0.1,0,0.4-0.1,0.1-0.1c-0.9-0.1-0.9-0.7-0.9-1.5c-0.1-0.9-0.3-1.9-0.5-2.8c-0.4-1.7-1.2-3-2.2-4.3
		C32.4,1.3,32,1.4,32.1,1.5L32.1,1.5z"/>
	<path style="fill:#090204;" d="M31.2,10.5c-0.7,0.2-1.2,0.4-1.9,0.4c-0.1,0-0.4,0.1-0.2,0.1c0.7-0.1,1.4-0.2,2.2-0.4
		C31.4,10.6,31.4,10.5,31.2,10.5L31.2,10.5z"/>
	<path style="fill:#090204;" d="M23.2,1c0.9-0.2,1.9,0.4,2.6,0.9c1.6,1.2,1.7,3,2,4.8c0,0.2,0.2,0.4,0.2,0.3c-0.3-2-0.2-4-2-5.3
		c-0.7-0.6-1.9-0.9-2.8-0.8C23,0.9,23,0.9,23.3,0.9L23.2,1z"/>
	<path style="fill:#090204;" d="M21.3,11.2c-0.1-0.7-0.1-1.4-0.9-1.5c-0.2,0-0.4,0.1-0.2,0.1c0.7,0.1,0.7,0.8,0.7,1.3
		C21,11.3,21.3,11.4,21.3,11.2L21.3,11.2z"/>
	<g id="XMLID_2_" transform="matrix(0.3912179,0,0,0.3912179,710.25174,777.28236)">
		<g id="g1917_2_">
			<path id="path1919_2_" style="fill:#4054A1;" d="M-1729.4-1934.2c0,5.2,0,9.9,0,15.1c0.8,0,1.5,0,2.3,0c0-0.7,0-1.4,0-2.2
				c7.1,0,14.2,0,21.3,0c0,0.7,0,1.4,0,2.2c0.7,0,1.5,0,2.2,0c0-3.3,0-6.5,0-9.8c-0.5-0.6-1.8-0.7-2.2,0c0,1.4,0,2.9,0,4.4
				c-3.7,0-8.9,0-13.1,0c-2.3,0-4.8,0.3-6.1-0.6c-1-0.6-2.1-1.8-2.2-3.4c0-1.7,0-5.6,0-5.6
				C-1727.1-1934.8-1729.4-1934.8-1729.4-1934.2z"/>
			<path id="path1921_2_" style="fill:#4054A1;" d="M-1718.9-1927.6c-0.8,0.3-1.9,0.8-1.9,1.7c0.1,1,2.1,0.7,3.3,0.7
				c3.5,0,6.5,0.2,10,0c0.7-0.1,1.2-0.2,1.2-0.8c0.1-0.9-1.7-1.5-2.4-1.8c-1.2-0.4-2.3-0.6-3.6-0.6
				C-1714.4-1928.6-1717.2-1928.3-1718.9-1927.6z"/>
			<path id="path1923_2_" style="fill:#4054A1;" d="M-1725.3-1926.3c0.5,0.6,0.9,0.8,1.6,1c1.4,0.4,2.3,0.2,2.5-0.6
				c0.1-0.4,0.1-0.8-0.1-1.2c-0.2-0.9-1.2-2.1-2-2.7c-0.3-0.3-1.1-0.7-1.4-0.8c-0.5-0.1-0.8-0.3-1.4,0c-0.5,0.4-0.5,1.6-0.2,2.5
				C-1725.9-1926.9-1725.6-1926.7-1725.3-1926.3z"/>
		</g>
	</g>
	<path style="fill:#090204;" d="M38.1,32.2c-5,0-9-4-9-9s4-9,9-9c0.9,0,3,0.5,4,0.9l-0.2,0.3c-0.9-0.4-3-0.9-3.8-0.9
		c-4.7,0-8.7,3.9-8.7,8.7c0,4.7,3.9,8.7,8.7,8.7c1,0,3.3-0.4,4.4-1.1l0.2,0.3C41.5,31.8,39.1,32.2,38.1,32.2L38.1,32.2z"/>
	<g>
		<path style="fill:#A48A7B;" d="M40.1,16.4c1.2,0.2,2.6,0.9,3.6,1.9c0.9,0.9,1.5,2,1.8,3.3c0.5,2.4,0.3,4.6-1.4,6.4
			c-0.9,0.9-2,1.9-3.4,2.2c2.3-1.2,4.1-2.8,4.4-5.5c0.3-2.9-0.6-5.1-2.3-6.7c-0.8-0.8-1.8-1.3-2.9-1.6"/>
	</g>
	<path style="fill:#090204;" d="M38.7,16.3c-3.9,0-7.1,3.1-7.1,7.1c0,3.9,3.1,7.1,7.1,7.1c3.9,0,7.1-3.1,7.1-7.1
		S42.6,16.3,38.7,16.3L38.7,16.3z M38.7,30.5c-4,0-7.2-3.3-7.2-7.2s3.3-7.2,7.2-7.2s7.2,3.3,7.2,7.2S42.7,30.5,38.7,30.5L38.7,30.5z
		"/>
	<path style="fill:#090204;" d="M38.3,30.5v-0.2c3.9,0,6.9-3.1,6.9-7c0-3.9-3.1-7.1-7.1-7.1c-0.1,0-0.1,0-0.2,0v-0.2
		c0.1,0,0.1,0,0.2,0c4,0,7.2,3.3,7.2,7.2C45.4,27.3,42.3,30.5,38.3,30.5L38.3,30.5z"/>
	<g style="opacity:0.72;">
		<path style="fill:#FFFFFF;" d="M43.1,22c-0.2-0.9-0.3-1.7-0.8-2.5c-0.4-0.7-1-1.5-1.7-1.8c-0.7-0.3-1.8-0.1-1.4,0.9
			c0.4,0.9,1.4,1,2.2,1.4C42,20.3,42.8,21.3,43.1,22"/>
	</g>
	<path style="fill:#FFFFFF;" d="M123.8,58.2c-0.5,0-0.9-0.4-0.9-0.9s0.4-0.9,0.9-0.9s0.9,0.4,0.9,0.9
		C124.7,57.8,124.3,58.2,123.8,58.2z"/>
	<g>
		<path style="fill:#385E9A;" d="M41,52L41,52.6c0.2-0.2,0.3-0.4,0.5-0.5c0.2-0.1,0.4-0.2,0.7-0.2c0.5,0,0.9,0.2,1.2,0.7
			c0.2-0.2,0.3-0.4,0.6-0.5c0.2-0.1,0.4-0.2,0.7-0.2c0.3,0,0.6,0.1,0.8,0.2c0.2,0.2,0.3,0.3,0.4,0.6c0.1,0.2,0.1,0.6,0.1,1.1v4.4
			h-1.8v-4c0-0.6,0-0.8-0.1-1c-0.1-0.1-0.1-0.2-0.2-0.2c-0.1,0-0.2,0.1-0.3,0.2c-0.1,0.1-0.1,0.4-0.1,1v4h-1.8v-3.9
			c0-0.6,0-0.9-0.1-1.1c-0.1-0.1-0.1-0.2-0.2-0.2c-0.1,0-0.2,0.1-0.2,0.1c-0.1,0.1-0.1,0.2-0.1,0.2c0,0.1,0,0.3,0,0.6v4.2h-1.8V52
			H41z"/>
		<path style="fill:#385E9A;" d="M50.7,55.2h-2.4v1.3c0,0.3,0,0.4,0.1,0.6c0.1,0.1,0.1,0.1,0.2,0.1c0.2,0,0.2-0.1,0.3-0.2
			c0.1-0.1,0.1-0.3,0.1-0.6v-0.8h1.8V56c0,0.4,0,0.7-0.1,0.9c-0.1,0.2-0.2,0.4-0.3,0.7c-0.2,0.2-0.4,0.4-0.7,0.5
			c-0.3,0.1-0.6,0.2-1,0.2c-0.4,0-0.7-0.1-1-0.2c-0.3-0.1-0.6-0.3-0.7-0.5c-0.2-0.2-0.3-0.4-0.3-0.7c-0.1-0.2-0.1-0.6-0.1-1v-1.8
			c0-0.6,0.1-0.9,0.2-1.3s0.4-0.6,0.7-0.7c0.3-0.2,0.7-0.2,1.2-0.2c0.6,0,0.9,0.1,1.3,0.3c0.3,0.2,0.6,0.4,0.7,0.8
			c0.1,0.3,0.2,0.8,0.2,1.4v0.9H50.7z M48.9,54.2v-0.4c0-0.3,0-0.5-0.1-0.6C48.7,53,48.7,53,48.6,53c-0.1,0-0.2,0.1-0.2,0.1
			c-0.1,0.1-0.1,0.3-0.1,0.7v0.4C48.3,54.2,48.9,54.2,48.9,54.2z"/>
		<path style="fill:#385E9A;" d="M53.3,52v6.1h-1.9V52H53.3z"/>
		<path style="fill:#385E9A;" d="M55.8,52l-0.1,0.6c0.1-0.2,0.3-0.4,0.5-0.5c0.2-0.1,0.4-0.2,0.7-0.2c0.3,0,0.6,0.1,0.8,0.2
			c0.2,0.2,0.3,0.3,0.4,0.6c0.1,0.2,0.1,0.6,0.1,1.2v4.3h-1.9v-4.2c0-0.4,0-0.7-0.1-0.8c-0.1-0.1-0.1-0.2-0.2-0.2
			c-0.1,0-0.2,0.1-0.3,0.2c-0.1,0.1-0.1,0.4-0.1,0.8v4.1h-1.9V52H55.8z"/>
		<path style="fill:#FFFFFF;" d="M61.5,54.4v1.3h-2.5v-1.3H61.5z"/>
		<path style="fill:#FFFFFF;" d="M68.3,50.7v7.5h-1.7v-5.1l-0.7,5.1h-1.2l-0.7-5v5h-1.7v-7.5h2.5c0.1,0.4,0.2,1,0.2,1.6l0.3,1.9
			l0.4-3.5L68.3,50.7L68.3,50.7z"/>
		<path style="fill:#FFFFFF;" d="M73.3,54.1v1.5c0,0.6-0.1,0.9-0.1,1.2s-0.2,0.5-0.3,0.7c-0.2,0.2-0.4,0.4-0.7,0.5
			c-0.3,0.1-0.6,0.2-1,0.2c-0.4,0-0.8-0.1-1-0.1c-0.3-0.1-0.5-0.2-0.7-0.4c-0.2-0.2-0.3-0.4-0.3-0.7C69,56.8,69,56.4,69,55.9v-1.6
			c0-0.6,0.1-1,0.2-1.3c0.1-0.3,0.3-0.6,0.7-0.8s0.7-0.3,1.2-0.3c0.4,0,0.8,0.1,1.1,0.2c0.3,0.1,0.6,0.3,0.7,0.5s0.3,0.4,0.3,0.6
			C73.2,53.4,73.3,53.8,73.3,54.1z M71.4,53.7c0-0.3,0-0.5-0.1-0.6C71.3,53,71.2,53,71.1,53S71,53,70.9,53.1
			c-0.1,0.1-0.1,0.3-0.1,0.6v2.8c0,0.3,0,0.5,0.1,0.6c0.1,0.1,0.1,0.1,0.2,0.1s0.2-0.1,0.2-0.1c0.1-0.1,0.1-0.3,0.1-0.5V53.7z"/>
		<path style="fill:#FFFFFF;" d="M75.8,52l-0.1,0.6c0.1-0.2,0.3-0.4,0.5-0.5c0.2-0.1,0.4-0.2,0.7-0.2c0.3,0,0.6,0.1,0.8,0.2
			c0.2,0.2,0.3,0.3,0.4,0.6c0.1,0.2,0.1,0.6,0.1,1.2v4.3h-1.9v-4.2c0-0.4,0-0.7-0.1-0.8c-0.1-0.1-0.1-0.2-0.2-0.2
			c-0.1,0-0.2,0.1-0.3,0.2c-0.1,0.1-0.1,0.4-0.1,0.8v4.1h-1.8V52H75.8z"/>
		<path style="fill:#FFFFFF;" d="M80.8,51.2v1h0.5v1h-0.5v3.3c0,0.4,0,0.6,0.1,0.7c0.1,0.1,0.2,0.1,0.5,0.1v1h-0.8
			c-0.4,0-0.7,0-0.9-0.1c-0.2-0.1-0.3-0.1-0.5-0.2c-0.2-0.1-0.2-0.3-0.3-0.4s-0.1-0.6-0.1-1.2v-3.1h-0.4v-1h0.4v-1H80.8z"/>
		<path style="fill:#FFFFFF;" d="M86,55.2h-2.4v1.3c0,0.3,0,0.4,0.1,0.6c0.1,0.1,0.1,0.1,0.2,0.1c0.2,0,0.2-0.1,0.3-0.2
			c0.1-0.1,0.1-0.3,0.1-0.6v-0.8h1.8V56c0,0.4,0,0.7-0.1,0.9c-0.1,0.2-0.2,0.4-0.3,0.7c-0.2,0.2-0.4,0.4-0.7,0.5
			c-0.3,0.1-0.6,0.2-1,0.2s-0.7-0.1-1-0.2c-0.3-0.1-0.6-0.3-0.7-0.5c-0.2-0.2-0.3-0.4-0.3-0.7c-0.1-0.2-0.1-0.6-0.1-1v-1.8
			c0-0.6,0.1-0.9,0.2-1.3c0.2-0.3,0.4-0.6,0.7-0.7c0.3-0.2,0.7-0.2,1.2-0.2c0.6,0,0.9,0.1,1.3,0.3c0.3,0.2,0.6,0.4,0.7,0.8
			c0.1,0.3,0.2,0.8,0.2,1.4L86,55.2L86,55.2z M84.1,54.2v-0.4c0-0.3,0-0.5-0.1-0.6C84,53,83.9,53,83.8,53c-0.1,0-0.2,0.1-0.2,0.1
			c-0.1,0.1-0.1,0.3-0.1,0.7v0.4C83.5,54.2,84.1,54.2,84.1,54.2z"/>
		<path style="fill:#FFFFFF;" d="M90.8,52v6.1h-1.9l0.1-0.5c-0.1,0.2-0.3,0.4-0.5,0.4c-0.2,0.1-0.4,0.2-0.7,0.2
			c-0.3,0-0.5-0.1-0.7-0.2c-0.2-0.1-0.3-0.2-0.4-0.4c-0.1-0.2-0.2-0.3-0.2-0.5s-0.1-0.6-0.1-1V52h1.9v4.2c0,0.5,0,0.8,0.1,0.8
			c0.1,0.1,0.1,0.1,0.2,0.1c0.2,0,0.2-0.1,0.2-0.2c0-0.1,0.1-0.4,0.1-0.9v-4.1L90.8,52L90.8,52z"/>
		<path style="fill:#FFFFFF;" d="M93.4,52l-0.1,0.8c0.3-0.6,0.7-0.9,1.2-0.9V54c-0.3,0-0.6,0.1-0.8,0.2c-0.2,0.1-0.3,0.2-0.3,0.4
			c-0.1,0.2-0.1,0.6-0.1,1.2v2.4h-1.9V52H93.4z"/>
		<path style="fill:#FFFFFF;" d="M97.8,52v1.4l-1.4,3.5h1.4v1.2h-3.2v-1.3l1.4-3.6h-1.3V52H97.8z"/>
		<path style="fill:#FFFFFF;" d="M100.1,52v6.1h-1.9V52H100.1z"/>
		<path style="fill:#FFFFFF;" d="M102.7,52l-0.1,0.6c0.2-0.2,0.3-0.4,0.5-0.5c0.2-0.1,0.4-0.2,0.7-0.2c0.5,0,0.9,0.2,1.2,0.7
			c0.2-0.2,0.3-0.4,0.6-0.5c0.2-0.1,0.4-0.2,0.7-0.2c0.3,0,0.6,0.1,0.8,0.2c0.2,0.2,0.3,0.3,0.4,0.6c0.1,0.2,0.1,0.6,0.1,1.1v4.4
			h-1.8v-4c0-0.6,0-0.8-0.1-1c-0.1-0.1-0.1-0.2-0.2-0.2c-0.1,0-0.2,0.1-0.3,0.2c-0.1,0.1-0.1,0.4-0.1,1v4h-1.8v-3.9
			c0-0.6,0-0.9-0.1-1.1c-0.1-0.1-0.1-0.2-0.2-0.2c-0.1,0-0.2,0.1-0.2,0.1c-0.1,0.1-0.1,0.2-0.1,0.2c0,0.1,0,0.3,0,0.6v4.2h-1.8V52
			H102.7z"/>
		<path style="fill:#FFFFFF;" d="M110,52l-0.1,0.6c0.2-0.2,0.3-0.4,0.5-0.5c0.2-0.1,0.4-0.2,0.7-0.2c0.5,0,0.9,0.2,1.2,0.7
			c0.2-0.2,0.3-0.4,0.6-0.5s0.4-0.2,0.7-0.2c0.3,0,0.6,0.1,0.8,0.2c0.2,0.2,0.3,0.3,0.4,0.6c0.1,0.2,0.1,0.6,0.1,1.1v4.4h-1.8v-4
			c0-0.6,0-0.8-0.1-1c-0.1-0.1-0.1-0.2-0.2-0.2c-0.1,0-0.2,0.1-0.3,0.2c-0.1,0.1-0.1,0.4-0.1,1v4h-1.8v-3.9c0-0.6,0-0.9-0.1-1.1
			c-0.1-0.1-0.1-0.2-0.2-0.2s-0.2,0.1-0.2,0.1c-0.1,0.1-0.1,0.2-0.1,0.2c0,0.1,0,0.3,0,0.6v4.2h-1.8V52H110z"/>
		<path style="fill:#FFFFFF;" d="M119.7,55.2h-2.4v1.3c0,0.3,0,0.4,0.1,0.6c0.1,0.1,0.1,0.1,0.2,0.1c0.2,0,0.2-0.1,0.3-0.2
			c0.1-0.1,0.1-0.3,0.1-0.6v-0.8h1.8V56c0,0.4,0,0.7-0.1,0.9c-0.1,0.2-0.2,0.4-0.3,0.7s-0.4,0.4-0.7,0.5c-0.3,0.1-0.6,0.2-1,0.2
			s-0.7-0.1-1-0.2c-0.3-0.1-0.6-0.3-0.7-0.5c-0.2-0.2-0.3-0.4-0.3-0.7c-0.1-0.2-0.1-0.6-0.1-1v-1.8c0-0.6,0.1-0.9,0.2-1.3
			c0.2-0.3,0.4-0.6,0.7-0.7s0.7-0.2,1.2-0.2c0.6,0,0.9,0.1,1.3,0.3c0.3,0.2,0.6,0.4,0.7,0.8c0.1,0.3,0.2,0.8,0.2,1.4L119.7,55.2
			L119.7,55.2z M117.8,54.2v-0.4c0-0.3,0-0.5-0.1-0.6c-0.1-0.1-0.1-0.2-0.2-0.2c-0.1,0-0.2,0.1-0.2,0.1c-0.1,0.1-0.1,0.3-0.1,0.7
			v0.4C117.2,54.2,117.8,54.2,117.8,54.2z"/>
		<path style="fill:#FFFFFF;" d="M122.1,52l-0.1,0.8c0.3-0.6,0.7-0.9,1.2-0.9V54c-0.3,0-0.6,0.1-0.8,0.2c-0.2,0.1-0.3,0.2-0.3,0.4
			c-0.1,0.2-0.1,0.6-0.1,1.2v2.4h-1.9V52H122.1z"/>
		<path style="fill:#FFFFFF;" d="M129.5,50.7v7.5h-1.9v-0.4c-0.2,0.2-0.4,0.3-0.6,0.4c-0.2,0.1-0.4,0.2-0.6,0.2
			c-0.3,0-0.6-0.1-0.8-0.2c-0.2-0.2-0.3-0.3-0.4-0.6c-0.1-0.2-0.1-0.6-0.1-1v-2.9c0-0.5,0.1-0.8,0.1-1c0.1-0.2,0.2-0.4,0.4-0.5
			c0.2-0.2,0.5-0.2,0.8-0.2c0.2,0,0.4,0.1,0.7,0.1c0.2,0.1,0.4,0.2,0.6,0.4v-1.8L129.5,50.7L129.5,50.7z M127.6,53.5
			c0-0.2,0-0.4-0.1-0.4s-0.1-0.1-0.2-0.1s-0.2,0.1-0.2,0.1c-0.1,0.1-0.1,0.2-0.1,0.4v3c0,0.3,0,0.4,0.1,0.5s0.1,0.1,0.2,0.1
			s0.2-0.1,0.2-0.1c0.1-0.1,0.1-0.3,0.1-0.7V53.5z"/>
		<path style="fill:#FFFFFF;" d="M134.4,55.2H132v1.3c0,0.3,0,0.4,0.1,0.6c0.1,0.1,0.1,0.1,0.2,0.1c0.2,0,0.2-0.1,0.3-0.2
			c0.1-0.1,0.1-0.3,0.1-0.6v-0.8h1.8V56c0,0.4,0,0.7-0.1,0.9c-0.1,0.2-0.2,0.4-0.3,0.7c-0.2,0.2-0.4,0.4-0.7,0.5
			c-0.3,0.1-0.6,0.2-1,0.2c-0.4,0-0.7-0.1-1-0.2c-0.3-0.1-0.6-0.3-0.7-0.5c-0.2-0.2-0.3-0.4-0.3-0.7c-0.1-0.2-0.1-0.6-0.1-1v-1.8
			c0-0.6,0.1-0.9,0.2-1.3s0.4-0.6,0.7-0.7c0.3-0.2,0.7-0.2,1.2-0.2c0.6,0,0.9,0.1,1.3,0.3c0.3,0.2,0.6,0.4,0.7,0.8
			c0.1,0.3,0.2,0.8,0.2,1.4L134.4,55.2L134.4,55.2z M132.5,54.2v-0.4c0-0.3,0-0.5-0.1-0.6c-0.1-0.1-0.1-0.2-0.2-0.2
			c-0.1,0-0.2,0.1-0.2,0.1c-0.1,0.1-0.1,0.3-0.1,0.7v0.4C132,54.2,132.5,54.2,132.5,54.2z"/>
	</g>
	<path style="fill:#385E9A;" d="M52.3,51.5c-0.6,0-1-0.5-1-1c0-0.6,0.5-1,1-1c0.6,0,1,0.5,1,1C53.4,51,52.9,51.5,52.3,51.5z"/>
	<path style="fill:#FFFFFF;" d="M99.2,51.5c-0.6,0-1-0.5-1-1c0-0.6,0.5-1,1-1c0.6,0,1,0.5,1,1C100.2,51,99.8,51.5,99.2,51.5z"/>
	<g>
		<path style="fill:#FFFFFF;" d="M136.4,51.8c-0.7,0-1.2-0.6-1.2-1.3s0.6-1.3,1.2-1.3c0.7,0,1.2,0.6,1.2,1.3S137,51.8,136.4,51.8
			 M136.4,52.2c0.9,0,1.8-0.7,1.8-1.8c0-1.1-0.8-1.8-1.8-1.8c-0.9,0-1.8,0.7-1.8,1.8C134.7,51.5,135.5,52.2,136.4,52.2 M136.1,50.3
			v-0.4h0.2c0.1,0,0.3,0,0.3,0.2s-0.1,0.2-0.3,0.2H136.1z M136.1,50.6h0.1l0.4,0.8h0.4l-0.4-0.8c0.3,0,0.5-0.2,0.5-0.5
			c0-0.4-0.3-0.6-0.8-0.6h-0.7v1.9h0.4L136.1,50.6L136.1,50.6z"/>
	</g>
</g>
</svg>
