<?xml version="1.0" encoding="utf-8"?>
<!-- Generator: Adobe Illustrator 25.0.0, SVG Export Plug-In . SVG Version: 6.00 Build 0)  -->
<svg version="1.1" id="Ebene_1" xmlns="http://www.w3.org/2000/svg" xmlns:xlink="http://www.w3.org/1999/xlink" x="0px" y="0px"
	 viewBox="0 0 120 73.8" style="enable-background:new 0 0 120 73.8;" xml:space="preserve">
<path style="fill:#689F63;" d="M59.3,73.5c-0.4,0-0.8-0.1-1.1-0.3L54.6,71c-0.5-0.3-0.3-0.4-0.1-0.5c0.7-0.3,0.9-0.3,1.6-0.7
	c0.1,0,0.2,0,0.3,0l2.8,1.6c0.1,0.1,0.2,0.1,0.3,0l10.8-6.3c0.1-0.1,0.2-0.2,0.2-0.3V52.4c0-0.1-0.1-0.2-0.2-0.3l-10.8-6.2
	c-0.1-0.1-0.2-0.1-0.3,0l-10.8,6.2c-0.1,0.1-0.2,0.2-0.2,0.3v12.5c0,0.1,0.1,0.2,0.2,0.3l3,1.7c1.6,0.8,2.6-0.1,2.6-1.1V53.5
	c0-0.2,0.1-0.3,0.3-0.3h1.4c0.2,0,0.3,0.1,0.3,0.3v12.3c0,2.1-1.2,3.4-3.2,3.4c-0.6,0-1.1,0-2.5-0.7l-2.8-1.6
	c-0.7-0.4-1.1-1.2-1.1-2V52.4c0-0.8,0.4-1.6,1.1-2l10.8-6.3c0.7-0.4,1.6-0.4,2.3,0l10.8,6.3c0.7,0.4,1.1,1.2,1.1,2V65
	c0,0.8-0.4,1.6-1.1,2l-10.8,6.3C60.1,73.4,59.7,73.5,59.3,73.5"/>
<path style="fill:#689F63;" d="M62.7,64.9c-4.7,0-5.7-2.2-5.7-4c0-0.2,0.1-0.3,0.3-0.3h1.4c0.2,0,0.3,0.1,0.3,0.3
	c0.2,1.4,0.8,2.1,3.7,2.1c2.3,0,3.3-0.5,3.3-1.7c0-0.7-0.3-1.2-3.8-1.6c-3-0.3-4.8-0.9-4.8-3.3c0-2.2,1.8-3.5,4.9-3.5
	c3.5,0,5.2,1.2,5.4,3.8c0,0.2-0.1,0.3-0.3,0.3c0,0,0,0,0,0h-1.4c-0.1,0-0.3-0.1-0.3-0.2c-0.3-1.5-1.2-2-3.4-2
	c-2.5,0-2.8,0.9-2.8,1.5c0,0.8,0.3,1,3.7,1.5c3.3,0.4,4.9,1.1,4.9,3.4C68,63.5,66.1,64.9,62.7,64.9 M75.8,51.6h0.4
	c0.3,0,0.4-0.2,0.4-0.3c0-0.3-0.2-0.3-0.3-0.3h-0.4L75.8,51.6z M75.4,50.6h0.8c0.3,0,0.8,0,0.8,0.6c0,0.4-0.3,0.5-0.4,0.6
	c0.3,0,0.3,0.2,0.4,0.5c0,0.2,0.1,0.5,0.1,0.6h-0.5c0-0.1-0.1-0.7-0.1-0.7c0-0.1-0.1-0.2-0.2-0.2h-0.4v0.9h-0.5V50.6z M74.4,51.8
	c0,1,0.8,1.8,1.7,1.8c1,0,1.8-0.8,1.8-1.8c0-1-0.8-1.7-1.8-1.7C75.2,50,74.4,50.8,74.4,51.8 M78.3,51.8c0,1.2-0.9,2.1-2.1,2.1
	c-1.1,0-2.1-0.9-2.1-2.1c0-1.2,1-2.1,2.1-2.1C77.3,49.7,78.3,50.6,78.3,51.8"/>
<path style="fill-rule:evenodd;clip-rule:evenodd;fill:#333333;" d="M25.8,24.6c0-0.5-0.3-1-0.7-1.2l-11.5-6.6
	c-0.2-0.1-0.4-0.2-0.6-0.2h-0.1c-0.2,0-0.4,0.1-0.6,0.2L0.7,23.4C0.3,23.6,0,24.1,0,24.6l0,17.8c0,0.2,0.1,0.5,0.3,0.6
	c0.2,0.1,0.5,0.1,0.7,0l6.8-3.9c0.4-0.3,0.7-0.7,0.7-1.2v-8.3c0-0.5,0.3-1,0.7-1.2l2.9-1.7c0.2-0.1,0.5-0.2,0.7-0.2
	c0.2,0,0.5,0.1,0.7,0.2l2.9,1.7c0.4,0.2,0.7,0.7,0.7,1.2v8.3c0,0.5,0.3,0.9,0.7,1.2l6.8,3.9c0.2,0.1,0.5,0.1,0.7,0
	c0.2-0.1,0.3-0.4,0.3-0.6L25.8,24.6z M80,33.8c0,0.1-0.1,0.2-0.2,0.3l-3.9,2.3c-0.1,0.1-0.2,0.1-0.3,0l-3.9-2.3
	c-0.1-0.1-0.2-0.2-0.2-0.3v-4.6c0-0.1,0.1-0.2,0.2-0.3l3.9-2.3c0.1-0.1,0.2-0.1,0.3,0l3.9,2.3c0.1,0.1,0.2,0.2,0.2,0.3L80,33.8z
	 M81,0.1c-0.2-0.1-0.5-0.1-0.7,0C80.1,0.2,80,0.4,80,0.7v17.6c0,0.3-0.2,0.5-0.5,0.5c-0.1,0-0.2,0-0.2-0.1l-2.9-1.7
	c-0.4-0.2-1-0.2-1.4,0l-11.5,6.6c-0.4,0.2-0.7,0.7-0.7,1.2v13.3c0,0.5,0.3,1,0.7,1.2L75,46c0.4,0.2,1,0.2,1.4,0l11.5-6.6
	c0.4-0.2,0.7-0.7,0.7-1.2V5.1c0-0.5-0.3-1-0.7-1.2L81,0.1z M119.3,29.2c0.4-0.2,0.7-0.7,0.7-1.2v-3.2c0-0.5-0.3-1-0.7-1.2l-11.4-6.6
	c-0.4-0.2-1-0.2-1.4,0L95,23.5c-0.4,0.2-0.7,0.7-0.7,1.2V38c0,0.5,0.3,1,0.7,1.2l11.4,6.5c0.4,0.2,0.9,0.2,1.4,0l6.9-3.8
	c0.2-0.1,0.4-0.4,0.4-0.6c0-0.2-0.1-0.5-0.3-0.6l-11.6-6.6c-0.2-0.1-0.3-0.4-0.3-0.6v-4.2c0-0.2,0.1-0.5,0.3-0.6l3.6-2.1
	c0.2-0.1,0.5-0.1,0.7,0l3.6,2.1c0.2,0.1,0.3,0.4,0.3,0.6v3.3c0,0.2,0.1,0.5,0.3,0.6c0.2,0.1,0.5,0.1,0.7,0L119.3,29.2z"/>
<path style="fill-rule:evenodd;clip-rule:evenodd;fill:#689F63;" d="M107,28.5c0.1,0,0.2,0,0.3,0l2.2,1.3c0.1,0,0.1,0.1,0.1,0.2v2.5
	c0,0.1-0.1,0.2-0.1,0.2l-2.2,1.3c-0.1,0-0.2,0-0.3,0l-2.2-1.3c-0.1,0-0.1-0.1-0.1-0.2V30c0-0.1,0-0.2,0.1-0.2L107,28.5z"/>
<g transform="translate(-78.306 -164.016)">
	
		<linearGradient id="SVGID_1_" gradientUnits="userSpaceOnUse" x1="1172.3463" y1="-371.979" x2="1172.4532" y2="-371.979" gradientTransform="matrix(-154.5274 315.2347 315.2347 154.5274 298551.2188 -311904.75)">
		<stop  offset="0.3" style="stop-color:#3E863D"/>
		<stop  offset="0.5" style="stop-color:#55934F"/>
		<stop  offset="0.8" style="stop-color:#5AAD45"/>
	</linearGradient>
	<path style="fill:url(#SVGID_1_);" d="M147,186.5l-32.2-15.8l-16.5,33.7l32.2,15.8L147,186.5z"/>
</g>
<g transform="translate(-78.306 -164.016)">
	
		<linearGradient id="SVGID_2_" gradientUnits="userSpaceOnUse" x1="1164.8049" y1="-365.5685" x2="1164.8743" y2="-365.5685" gradientTransform="matrix(433.5859 -320.3684 -320.3684 -433.5859 -622052.0625 214867.9063)">
		<stop  offset="0.57" style="stop-color:#3E863D"/>
		<stop  offset="0.72" style="stop-color:#619857"/>
		<stop  offset="1" style="stop-color:#76AC64"/>
	</linearGradient>
	<path style="fill:url(#SVGID_2_);" d="M96.1,191.1l22.7,30.8l30.1-22.2l-22.7-30.8L96.1,191.1z"/>
</g>
<g transform="translate(-78.306 -164.016)">
	
		<linearGradient id="SVGID_3_" gradientUnits="userSpaceOnUse" x1="1163.5649" y1="-368.2755" x2="1163.6279" y2="-368.2755" gradientTransform="matrix(395.4717 0 0 -395.4717 -460046.5313 -145447.1875)">
		<stop  offset="0.16" style="stop-color:#6BBF47"/>
		<stop  offset="0.38" style="stop-color:#79B461"/>
		<stop  offset="0.47" style="stop-color:#75AC64"/>
		<stop  offset="0.7" style="stop-color:#659E5A"/>
		<stop  offset="0.9" style="stop-color:#3E863D"/>
	</linearGradient>
	<path style="fill:url(#SVGID_3_);" d="M110.5,180.8V210h24.9v-29.1L110.5,180.8z"/>
</g>
</svg>
