<?xml version="1.0" encoding="utf-8"?>
<!-- Generator: Adobe Illustrator 25.0.0, SVG Export Plug-In . SVG Version: 6.00 Build 0)  -->
<svg version="1.1" id="Ebene_1" xmlns="http://www.w3.org/2000/svg" xmlns:xlink="http://www.w3.org/1999/xlink" x="0px" y="0px"
	 viewBox="0 0 196 65" style="enable-background:new 0 0 196 65;" xml:space="preserve">
<g id="layer1" transform="translate(284.9475,-288.5243)">
	<path id="path3081" style="fill-rule:evenodd;clip-rule:evenodd;fill:#EA1B22;" d="M-143.7,333.9h-9.2c0,0-12.5,1.3-12.6-15h-7
		c0,0-5-0.7-4.8,4.3v29.2h-16.4V305h15.1l0.1,4.1c3.1-4.3,6.6-4.1,6.6-4.1h7.8v7.7c0,0,2.8-7.1,12.4-7.7h25.1v11.7H-146
		c-2.9,0-2.7,2.4-2.7,2.4c0.1,2.8,2.7,2.2,2.7,2.2c-0.1,0,9.1,0,9.1,0c12.9,0.9,11.7,14.7,11.7,14.7s-0.7,16.3-16.6,16.3h-23v-13.5
		h21.1c2.4,0,2.4-2.6,2.4-2.6S-141.2,333.9-143.7,333.9 M-105,290.8H-89v61.5h-16L-105,290.8 M-123.8,305h15.9v47.3l-15.9,0.1V305
		 M-116.1,304.2c-5.4,0-9.7-3.5-9.7-7.8c0-4.3,4.3-7.8,9.7-7.8s9.7,3.5,9.7,7.8C-106.4,300.7-110.7,304.2-116.1,304.2 M-194.9,333.8
		h-31.3c0.1,6.3,7,7.8,7,7.8c6.6,0,7.7-4.5,7.7-4.5c0-0.1,16.2,0,16.2,0c-3.4,17.4-23.9,16.4-23.9,16.4s-24,2-24.5-25.6
		c0,0-3.5,6.4-12.6,6.4h-10v18.1h-18.7v-62.1h28.7c0,0,18.8-0.3,20.4,19.7v-0.1c0,0,5.3-6.6,16.6-6.3
		C-219.2,303.5-193.7,300.1-194.9,333.8 M-227,323.7h15.9c0,0,0.3-7.9-7.8-7.9C-227,315.7-227,323.7-227,323.7 M-252.1,311.8
		c0,0-0.3-8.3-7.8-8.3h-6.3v17.7h6.3C-252.4,321.3-252.1,311.8-252.1,311.8"/>
</g>
</svg>
