<?xml version="1.0" encoding="utf-8"?>
<!-- Generator: Adobe Illustrator 25.0.0, SVG Export Plug-In . SVG Version: 6.00 Build 0)  -->
<svg version="1.1" id="Ebene_1" xmlns="http://www.w3.org/2000/svg" xmlns:xlink="http://www.w3.org/1999/xlink" x="0px" y="0px"
	 viewBox="0 0 120 63" style="enable-background:new 0 0 120 63;" xml:space="preserve">
<g>
	<ellipse style="fill-rule:evenodd;clip-rule:evenodd;fill:#8993BE;" cx="60" cy="31.8" rx="60" ry="31.2"/>
	<path style="fill-rule:evenodd;clip-rule:evenodd;fill:#232531;" d="M16.8,50.3L23.4,17h15.2c6.6,0.4,9.9,3.7,9.9,9.5
		c0,9.9-7.8,15.6-14.8,15.2h-7.4l-1.6,8.6H16.8z M27.9,35.5L30,23.1h5.3c2.9,0,4.9,1.2,4.9,3.7c-0.4,7-3.7,8.2-7.4,8.6L27.9,35.5
		L27.9,35.5z M47,41.6l6.6-33.3h7.8L59.7,17h7.4c6.6,0.4,9,3.7,8.2,7.8l-2.9,16.8h-8.2l2.9-15.2c0.4-2.1,0.4-3.3-2.5-3.3h-6.2
		l-3.7,18.5H47z M71.9,50.3L78.5,17h15.2c6.6,0.4,9.9,3.7,9.9,9.5c0,9.9-7.8,15.6-14.8,15.2h-7.4l-1.6,8.6H71.9z M83,35.5l2.1-12.3
		h5.3c2.9,0,4.9,1.2,4.9,3.7c-0.4,7-3.7,8.2-7.4,8.6H83L83,35.5z"/>
</g>
</svg>
