<?xml version="1.0" encoding="utf-8"?>
<!-- Generator: Adobe Illustrator 25.0.0, SVG Export Plug-In . SVG Version: 6.00 Build 0)  -->
<svg version="1.1" id="Ebene_1" xmlns="http://www.w3.org/2000/svg" xmlns:xlink="http://www.w3.org/1999/xlink" x="0px" y="0px"
	 viewBox="0 0 164 65" style="enable-background:new 0 0 164 65;" xml:space="preserve">
<g id="layer1" transform="translate(19.821071,-432.50519)">
	<path id="path10907" style="fill:#0075BD;" d="M110.8,432.5l-3.5,2.4c-0.9,1.3-1.6,2.7-2.4,3.8c-0.4,0.1-0.8,0.2-1.3,0.3
		c-1.6,0.3-2.3-0.7-3.8-1.2c-2.6-0.8-4.1-1.4-6.1-2.7l-3.4,2.4c-1.3,1.3-0.6,2.5-0.7,3.9c-3.4-1.7-5.8-3-10.4-3.2l-3.5,2.3
		c-0.3,2-1.1,3.5-2.3,4.9c-1.9-0.1-4.1-2.8-6.8-3.3c-1-0.2-1.8-0.1-2.3,0.3l-3.4,2.4c-0.6,0.4-1.1,1-1.6,1.6
		c-0.1,0.2-0.2,0.3-0.3,0.4c0,0,0.2,1.3,1.9-0.6c0.7-0.5,1.3-1.2,1.8-1.9c0.2,0,0.3-0.1,0.4,0c3.4,0.6,5.8,4.6,8.1,3l3.5-2.4
		c0.1-0.1,0.1-0.1,0.2-0.1c1.8-1.4,2.9-2.6,3.6-4.1c3.3,0.6,5.6,1.9,8.8,3.5l3.5-2.4c0.8-0.9,1.8-1.2,2.2-2.3
		c0.1-0.3,0.2-0.6,0.2-0.8c0.9,0.4,1.9,0.8,3.2,1.3c1.4,0.4,2.3,1.4,3.9,1.2c1.4-0.2,2.3-0.7,3.2-1.3l3.5-2.3
		c0.7-0.5,1.8-1.9,2.3-2.6c1.4,0.6,3.8,1.3,5.1,1.3c0,0,0.7-1.9,0.6-2C114.1,433.8,111.7,433.3,110.8,432.5z M113,441
		c-0.5,0.2-0.7,1.4-0.4,3.4c2.1,4.7,3.7,14.5-1.3,21.9c-5.2,6.2-11.3,8.8-20,9.9c-20.9,2.6-30.1-15.3-31-22.7
		c-0.2,0.5-2.4,2.2-2.3,3c1.7,14.3,17.1,24.5,31,22.7c9.2-1.2,15.7-4.1,21.2-11.3l2.3-3.1c0.4-0.5,0.4-1.1,0.7-1.6
		c4.2-7.8,3.9-14.6,0.9-21.6C113.7,441.1,113.3,440.8,113,441z M99.5,446.4c-0.3,0-0.6,0.1-0.9,0.1c-2.4,0.4-4.1,2.8-3.7,5.2
		c0.4,2.4,2.8,4.1,5.2,3.7c2.4-0.4,4.1-2.8,3.7-5.2C103.4,448,101.5,446.5,99.5,446.4z M75.3,450.6c-0.3,0-0.7,0.1-1,0.1
		c-2.4,0.4-4.1,2.8-3.6,5.2c0.4,2.4,2.8,4.1,5.2,3.6c2.4-0.4,4.1-2.8,3.7-5.2C79.2,452.2,77.4,450.7,75.3,450.6z M93.7,460.5
		c-0.2,0-0.3,0.3-0.3,0.3c-1.1,1.2-2.6,2.1-4.4,2.3c-1.7,0.3-3.4-0.1-4.8-0.8c-0.1-0.1-0.3-0.1-0.4-0.1c-0.3,0.1-0.6,0.4-0.6,0.7
		c1,2.9,3.7,4.9,6.6,4.4c2.8-0.5,4.8-3.3,4.7-6.4C94.4,460.6,94,460.4,93.7,460.5z"/>
	<path id="path10915" style="fill-rule:evenodd;clip-rule:evenodd;fill:#00ADEF;" d="M83.1,479.9c0-5.8,4.7-10.5,10.5-10.5
		s10.5,4.7,10.5,10.5c0,5.8-4.7,10.5-10.5,10.5C87.8,490.4,83.1,485.8,83.1,479.9z M138.2,462.5h3.8c1.2,0,2.1,0.9,2.1,2.1v23
		c0,1.2-0.9,2.1-2.1,2.1h-3.8c-1.2,0-2.1-0.9-2.1-2.1v-23C136.2,463.4,137.1,462.5,138.2,462.5z M136.5,485.6c0-2,1.6-3.7,3.7-3.7
		c2,0,3.7,1.6,3.7,3.7c0,2-1.6,3.7-3.7,3.7C138.1,489.3,136.5,487.7,136.5,485.6z M136.9,485.6c0-1.8,1.4-3.3,3.3-3.3
		c1.8,0,3.3,1.4,3.3,3.3c0,1.8-1.4,3.3-3.3,3.3C138.4,488.9,136.9,487.4,136.9,485.6z M140.7,485.8c0.6,0,1-0.5,1-1.1
		c0-0.6-0.6-1.1-1.2-1.1h-1.7v4h0.6v-1.7h0.6l1.1,1.7h0.7L140.7,485.8z M140.6,485.3h-1.2v-1.2h1.2c0.3,0,0.6,0.3,0.6,0.6
		C141.1,485.1,140.9,485.3,140.6,485.3z M52.8,478.8c0-5.2,4.2-9.4,9.3-9.4c2,0,3.8,0.6,5.3,1.7c1.5-1.1,3.3-1.7,5.3-1.7
		c5.2,0,9.3,4.2,9.3,9.3v8.7c0,1.1-1,2.1-2.1,2.1h-3.8c-1.1,0-2.1-1-2.1-2.1v-8.7c0-0.7-0.6-1.3-1.3-1.3s-1.3,0.6-1.3,1.3v8.7
		c0,1.1-1,2.1-2.1,2.1h-3.8c-1.1,0-2.1-1-2.1-2.1v-8.6c0-0.8-0.6-1.4-1.3-1.4c-0.7,0-1.3,0.6-1.3,1.3v8.7c0,1.1-1,2.1-2.1,2.1h-3.8
		c-1.1,0-2.1-1-2.1-2.1v-8.6H52.8z M51.8,472.4c0-1.2-0.9-2.1-2.1-2.1h-3.8c-1.2,0-2.1,0.9-2.1,2.1v8.9c0,0.7-0.6,1.3-1.3,1.3
		c-0.7,0-1.3-0.6-1.3-1.3v-8.8c0-1.2-0.9-2.1-2.1-2.1h-3.8c-1.2,0-2.1,0.8-2.1,1.9v10.2c0,3,2.3,6.3,6.3,6.3h0.1
		c2.2,0,3.1-0.7,3.9-1.4c0.3-0.4,0.5-0.3,0.5-0.1c0,2.3-2.4,4.3-4.4,4.3H37c-0.8,0-1.3,0.9-1.3,1.5c0,0.8,0,1.2,0,2.1
		c-0.1,2,1.8,2.4,4.2,2.4h2.8c3.1,0,9.2-3.7,9.2-9.9L51.8,472.4z M-11.8,479.9v15.5c0,1.2-0.9,2.1-2.1,2.1h-3.8
		c-1.2,0-2.1-0.9-2.1-2.1v-15.5c0-5.8,4.7-10.5,10.5-10.5s10.5,4.7,10.5,10.5c0,5.8-4.8,10.5-9.9,10.5c0,0-1.9,0-1.9-1.9v-4.3
		c0-1.2,1.1-1.8,1.9-1.9c1.2-0.2,1.9-1,1.9-2.4c0-1.4-1.2-2.6-2.6-2.6S-11.8,478.5-11.8,479.9L-11.8,479.9z M4.2,462.4h3.8
		c1.2,0,2.1,0.9,2.1,2.1v23c0,1.2-0.9,2.1-2.1,2.1H4.2c-1.2,0-2.1-0.9-2.1-2.1v-23C2.2,463.4,3.1,462.4,4.2,462.4z M24.2,479.9v7.5
		c0,1.2,0.9,2.1,2.1,2.1h3.8c1.2,0,2.1-0.9,2.1-2.1v-7.5c0-5.8-4.7-10.5-10.5-10.5s-10.5,4.7-10.5,10.5c0,5.8,4.8,10.5,9.9,10.5
		c0,0,1.9,0,1.9-1.9v-4.3c0-1.2-1.1-1.8-1.9-1.9c-1.2-0.2-1.9-1-1.9-2.4c0-1.4,1.2-2.6,2.6-2.6S24.2,478.5,24.2,479.9L24.2,479.9z
		 M113.1,480v-15.5c0-1.2-0.9-2.1-2.1-2.1h-3.8c-1.2,0-2.1,0.9-2.1,2.1V480c0,5.8,4.7,10.5,10.5,10.5c5.8,0,10.5-4.7,10.5-10.5
		s-4.8-10.5-9.9-10.5c0,0-1.9,0-1.9,1.9v4.3c0,1.2,1.1,1.8,1.9,1.9c1.2,0.2,1.9,1,1.9,2.4c0,1.4-1.2,2.6-2.6,2.6
		C114.2,482.5,113.1,481.4,113.1,480z M129.1,470.5h3.8c1.2,0,2.1,0.9,2.1,2.1v15c0,1.2-0.9,2.1-2.1,2.1h-3.8
		c-1.2,0-2.1-0.9-2.1-2.1v-15C127.1,471.4,128,470.5,129.1,470.5z M132,468.5c-2.1,1.4-4.8,0.8-6.2-1.2l-3.2-4.8h10.6
		C134.6,464.5,134.1,467.1,132,468.5z M91,480.2c0-1.4,1.2-2.6,2.6-2.6s2.6,1.2,2.6,2.6s-1.2,2.6-2.6,2.6
		C92.2,482.7,91,481.5,91,480.2z"/>
</g>
</svg>
