<?xml version="1.0" encoding="utf-8"?>
<!-- Generator: Adobe Illustrator 25.0.1, SVG Export Plug-In . SVG Version: 6.00 Build 0)  -->
<svg version="1.1" id="Layer_1" xmlns="http://www.w3.org/2000/svg" xmlns:xlink="http://www.w3.org/1999/xlink" x="0px" y="0px"
	 viewBox="0 0 120 50" style="enable-background:new 0 0 120 50;" xml:space="preserve">
<g>
	<path style="fill:#010101;" d="M3.6,50H0V11.9c2.9-0.9,5.9-1.4,9-1.4c2,0,4,0.3,5.8,1c1.7,0.6,3.2,1.5,4.5,2.8
		c1.3,1.2,2.2,2.6,2.9,4.3c0.7,1.7,1,3.5,1,5.4c0,2.3-0.4,4.4-1.2,6c-0.7,1.6-1.8,3-3.2,4.2c-1.3,1.1-2.8,1.9-4.5,2.4
		c-1.7,0.5-3.4,0.8-5.2,0.8c-0.9,0-1.9-0.1-2.8-0.2c-0.9-0.1-1.8-0.3-2.7-0.6L3.6,50z M19,23.8c0-3-0.9-5.5-2.6-7.4
		c-1.7-1.9-4.1-2.8-7.2-2.8c-1,0-1.9,0.1-2.9,0.2c-0.9,0.1-1.9,0.3-2.8,0.7V33c0.9,0.3,1.7,0.5,2.6,0.7C7.1,33.9,8,34,8.9,34
		c3.1,0,5.6-0.9,7.4-2.7C18.1,29.6,19,27.1,19,23.8z"/>
	<path style="fill:#010101;" d="M30.5,37V0.2h3.7v36.7L30.5,37L30.5,37z"/>
	<path style="fill:#010101;" d="M64.2,33.1c-1.2,1.3-2.6,2.3-4.2,3c-1.6,0.7-3.6,1-5.8,1c-1.9,0-3.8-0.3-5.5-1.1
		c-1.5-0.7-2.9-1.7-3.9-2.9c-1.1-1.2-1.9-2.7-2.3-4.2c-0.5-1.6-0.8-3.3-0.8-5c-0.1-2,0.3-4.1,0.9-6c0.5-1.6,1.4-3,2.6-4.2
		c1.1-1.1,2.3-1.9,3.8-2.5c1.5-0.5,3-0.8,4.6-0.8c3.8,0,6.8,1.2,8.7,3.6c1.9,2.3,2.9,5.8,2.8,10.3H45.3c0.1,3,1,5.3,2.6,7.1
		c1.6,1.7,3.8,2.6,6.6,2.6c1.4,0,2.9-0.2,4.2-0.8c1.3-0.5,2.5-1.4,3.4-2.4L64.2,33.1z M61.3,21.2c0-1-0.2-2.1-0.5-3
		c-0.3-0.9-0.8-1.7-1.4-2.4c-0.7-0.7-1.5-1.3-2.4-1.6c-2.2-0.8-4.6-0.8-6.8,0c-0.9,0.3-1.7,0.9-2.3,1.5c-0.6,0.7-1.1,1.5-1.5,2.4
		c-0.5,1-0.8,2-0.9,3.1L61.3,21.2L61.3,21.2z"/>
	<path style="fill:#010101;" d="M89,16.9c-0.8-1.1-1.8-1.9-3-2.6c-1.2-0.6-2.5-0.9-3.8-0.8c-1.9,0-3.2,0.3-3.9,1
		c-0.7,0.6-1.1,1.5-1.1,2.5c0,0.6,0.2,1.3,0.5,1.8c0.4,0.5,0.8,0.9,1.4,1.3c0.6,0.4,1.3,0.7,2,0.9c0.7,0.3,1.5,0.5,2.3,0.8
		c1,0.3,2,0.7,3,1c1,0.3,1.9,0.8,2.7,1.4c0.8,0.6,1.5,1.3,2,2.2c0.5,1,0.8,2.1,0.8,3.2c0,1.1-0.3,2.2-0.8,3.2
		c-0.5,0.9-1.2,1.7-2.1,2.4c-0.9,0.7-2,1.2-3.1,1.5c-3.1,0.8-6.4,0.6-9.4-0.5c-1.7-0.8-3.3-1.9-4.6-3.4l2.9-2.5
		c1.9,2.5,4.4,3.7,7.4,3.7c2,0,3.4-0.4,4.4-1.1c0.9-0.7,1.4-1.6,1.4-2.7c0-0.7-0.1-1.4-0.5-2c-0.4-0.6-0.9-1-1.4-1.4
		c-0.7-0.4-1.3-0.7-2.1-1c-0.8-0.3-1.6-0.5-2.5-0.8c-1-0.3-2-0.6-3-0.9c-0.9-0.3-1.8-0.8-2.6-1.3c-0.8-0.5-1.4-1.3-1.9-2.1
		c-0.5-1-0.8-2.1-0.7-3.2c0-2.3,0.8-4.1,2.5-5.4s3.9-1.9,6.6-1.9c1.7,0,3.5,0.3,5.1,1c1.5,0.6,2.9,1.7,4.3,3.3L89.1,17L89,16.9z"/>
	<path style="fill:#010101;" d="M98.8,37V0.3h3.7V37L98.8,37L98.8,37z M102.5,23.4l12.6-12.7h4.9l-12.9,12.6l12.9,13.6h-5.1
		L102.5,23.4z"/>
	<path style="fill:#53BCE6;" d="M43.3,50H21.2v-3.5h22.1V50z"/>
</g>
</svg>
