<?xml version="1.0" encoding="utf-8"?>
<!-- Generator: Adobe Illustrator 25.0.1, SVG Export Plug-In . SVG Version: 6.00 Build 0)  -->
<svg version="1.1" id="Ebene_1" xmlns="http://www.w3.org/2000/svg" xmlns:xlink="http://www.w3.org/1999/xlink" x="0px" y="0px"
	 viewBox="0 0 120 46" style="enable-background:new 0 0 120 46;" xml:space="preserve">
<g>
	<path style="fill:#3D3D3D;" d="M88.3,37.9l3.5-8.8h10L97,15.8l5.9-15L120,46h-12.5l-2.9-8.1H88.3z"/>
	<path style="fill:#5A0FC8;" d="M77.6,46L95.8,0.8l-12.1,0L71.3,30L62.4,0.8h-9.3L43.6,30l-6.7-13.3l-6.1,18.7L37,46h11.9l8.6-26.2
		L65.7,46H77.6z"/>
	<path style="fill:#3D3D3D;" d="M11.5,30.5h7.4c2.3,0,4.3-0.3,6-0.8l1.9-5.9l5.4-16.6c-0.4-0.6-0.9-1.3-1.4-1.8
		C28.1,2.3,24,0.8,18.7,0.8H0V46h11.5V30.5z M21.3,11.2c1.1,1.1,1.6,2.5,1.6,4.4c0,1.8-0.5,3.3-1.4,4.4c-1,1.2-3,1.8-5.7,1.8h-4.3
		V9.6h4.3C18.4,9.6,20.2,10.1,21.3,11.2z"/>
</g>
</svg>
