<?xml version="1.0" encoding="utf-8"?>
<!-- Generator: Adobe Illustrator 25.0.0, SVG Export Plug-In . SVG Version: 6.00 Build 0)  -->
<svg version="1.1" id="Ebene_1" xmlns="http://www.w3.org/2000/svg" xmlns:xlink="http://www.w3.org/1999/xlink" x="0px" y="0px"
	 viewBox="0 0 82 100" style="enable-background:new 0 0 82 100;" xml:space="preserve">
<g>
	<circle style="fill:#61DAFB;" cx="41" cy="36.6" r="7.5"/>
	<path style="fill:#61DAFB;" d="M41,64.1c5.9,5.7,11.7,9.1,16.3,9.1c1.5,0,3-0.3,4.2-1c4.2-2.4,5.7-8.5,4.3-17.1
		c-0.2-1.5-0.6-3.1-1-4.7c1.6-0.5,3.1-1,4.5-1.4C77.5,45.8,82,41.5,82,36.7c0-4.8-4.5-9.2-12.6-12.2c-1.4-0.6-2.9-1-4.5-1.4
		c0.4-1.6,0.7-3.1,1-4.7C67.2,9.6,65.6,3.5,61.4,1c-1.2-0.7-2.7-1-4.2-1c-4.6,0-10.5,3.4-16.3,9.1C35.1,3.4,29.3,0,24.6,0
		c-1.5,0-3,0.3-4.2,1c-4.2,2.4-5.7,8.5-4.3,17.1c0.2,1.5,0.6,3.1,1,4.7c-1.6,0.5-3.1,1-4.5,1.4C4.5,27.4,0,31.7,0,36.5
		c0,4.8,4.5,9.2,12.6,12.2c1.4,0.6,2.9,1,4.5,1.4c-0.4,1.6-0.7,3.1-1,4.7c-1.4,8.6,0.2,14.7,4.3,17.1c1.2,0.7,2.7,1,4.2,1
		C29.3,73.1,35.1,69.7,41,64.1L41,64.1z M36.5,53.2c1.4,0.1,3,0.1,4.5,0.1c1.5,0,3.1,0,4.5-0.1c-1.4,1.9-3,3.7-4.5,5.4
		C39.5,56.9,37.9,55.2,36.5,53.2z M26.5,44.9c0.8,1.4,1.5,2.7,2.4,3.9c-2.5-0.3-4.8-0.7-7.1-1.2c0.7-2.2,1.5-4.4,2.5-6.7
		C25,42.3,25.7,43.6,26.5,44.9z M21.8,25.5c2.3-0.5,4.6-0.9,7.1-1.2c-0.8,1.3-1.6,2.6-2.4,3.9c-0.8,1.4-1.5,2.7-2.2,4
		C23.3,30,22.5,27.7,21.8,25.5z M26.3,36.6c1-2.2,2.2-4.3,3.5-6.5c1.2-2.1,2.6-4.2,3.9-6.3c2.4-0.2,4.8-0.2,7.3-0.2
		c2.6,0,5,0.1,7.3,0.2c1.4,2.1,2.7,4.2,3.9,6.3c1.3,2.2,2.4,4.3,3.5,6.5c-1,2.2-2.2,4.3-3.5,6.5c-1.2,2.1-2.6,4.2-3.9,6.3
		c-2.4,0.2-4.8,0.2-7.3,0.2c-2.6,0-5-0.1-7.3-0.2c-1.4-2.1-2.7-4.2-3.9-6.3C28.4,40.9,27.3,38.7,26.3,36.6z M57.7,32.2l-2.2-4
		c-0.8-1.4-1.5-2.7-2.4-3.9c2.5,0.3,4.8,0.7,7.1,1.2C59.5,27.7,58.7,30,57.7,32.2z M57.7,40.9c1,2.3,1.8,4.5,2.5,6.7
		c-2.3,0.5-4.6,0.9-7.1,1.2c0.8-1.3,1.6-2.6,2.4-3.9C56.3,43.6,57,42.3,57.7,40.9z M59.6,68.9c-0.6,0.4-1.4,0.6-2.3,0.6
		c-3.9,0-8.9-3.2-13.7-8.1c2.3-2.5,4.6-5.3,6.8-8.5c3.8-0.3,7.4-0.9,10.8-1.7c0.4,1.4,0.6,2.9,0.9,4.3
		C63.2,62.4,62.3,67.3,59.6,68.9z M63.8,26.4c9,2.6,14.4,6.5,14.4,10.1c0,3.1-3.7,6.3-10.2,8.8c-1.3,0.5-2.7,1-4.2,1.4
		c-1-3.3-2.3-6.7-3.9-10.1C61.4,33.1,62.8,29.7,63.8,26.4z M57.3,3.7c0.9,0,1.6,0.2,2.3,0.6c2.7,1.5,3.6,6.4,2.5,13.3
		c-0.2,1.4-0.6,2.8-0.9,4.3c-3.4-0.7-7-1.3-10.8-1.7c-2.2-3.1-4.5-6-6.8-8.5C48.5,7,53.4,3.7,57.3,3.7z M45.5,19.9
		c-1.4-0.1-3-0.1-4.5-0.1s-3.1,0-4.5,0.1c1.4-1.9,3-3.7,4.5-5.4C42.5,16.2,44.1,18,45.5,19.9z M22.4,4.3c0.6-0.4,1.4-0.6,2.3-0.6
		c3.9,0,8.9,3.2,13.7,8.1c-2.3,2.5-4.6,5.3-6.8,8.5c-3.8,0.3-7.4,0.9-10.8,1.7c-0.4-1.4-0.6-2.9-0.9-4.3
		C18.8,10.7,19.7,5.9,22.4,4.3z M18.2,46.7c-9-2.6-14.4-6.5-14.4-10.1c0-3.1,3.7-6.3,10.2-8.8c1.3-0.5,2.7-1,4.2-1.4
		c1,3.3,2.3,6.7,3.9,10.1C20.5,40,19.2,43.5,18.2,46.7z M19.9,55.6c0.2-1.4,0.6-2.8,0.9-4.3c3.4,0.7,7,1.3,10.8,1.7
		c2.2,3.1,4.5,6,6.8,8.5c-4.8,4.8-9.7,8.1-13.7,8.1c-0.9,0-1.6-0.2-2.3-0.6C19.7,67.3,18.8,62.4,19.9,55.6z M16.5,88.7
		c1.8-2.2,1.9-4.6,0.9-7s-3-3.5-5.5-3.6c-3-0.1-6,0-9,0H2.3V99h2.4v-7.9h3.8c0.5,0,0.9,0.2,1.1,0.6l4.8,7.5c0.1,0.2,0.3,0.4,0.5,0.4
		h3.1c-1.9-3-3.8-5.8-5.7-8.7C14.1,90.6,15.5,90,16.5,88.7z M4.8,88.6v-8h0.9c1.9,0,3.8-0.1,5.6,0.1c2.2,0.1,3.7,1.8,3.7,3.9
		c0,2.2-1.8,3.9-3.9,3.9C9.1,88.7,7.2,88.6,4.8,88.6z M35.9,89.6c-1.3-5.6-6.4-7.1-10.4-5.3c-3.1,1.4-4.4,4-4.5,7.3
		c-0.1,2.5,0.6,4.8,2.6,6.4c2.2,1.9,4.8,2.2,7.6,1.7c1.5-0.3,2.9-1,3.9-2.2c-0.4-0.6-0.8-1.1-1.2-1.6c-2.3,1.9-4.8,2.6-7.5,1.3
		c-1.8-0.9-2.7-3.1-2.8-4.7h12.5v-1C36.2,90.8,36.1,90.2,35.9,89.6z M23.8,90.9c-0.2-2.4,2.2-5,4.8-5c3.1-0.1,5,1.8,5.1,5H23.8z
		 M48.5,83.9c-1.2-0.2-2.5-0.3-3.7-0.2c-1.9,0.2-3.6,1-5,2.5c0.4,0.6,0.7,1.1,1.2,1.8c0.2-0.2,0.3-0.3,0.5-0.4
		c1.3-1.2,2.8-1.9,4.7-1.7c1.4,0.1,2.8,0.6,3.2,2c0.3,1.1,0.2,2.3,0.3,3.5c-0.2,0-0.3-0.1-0.4-0.2c-1.9-1.6-4.1-1.9-6.4-1.4
		c-2.2,0.6-3.5,2.3-3.7,4.4c-0.2,2.5,1,4.3,3.1,5.2c1.4,0.6,2.9,0.6,4.3,0.2c1.1-0.2,1.6-0.9,3.2-1.8v1h2.3c0-3.2,0.1-7.2,0-10.9
		C52.1,85.8,50.7,84.4,48.5,83.9z M49.6,94.1c-0.1,0.2,0,0.5,0,0.7c0,1.7-0.4,2.3-2,2.9c-1.1,0.4-2.3,0.6-3.5,0.2
		c-1.4-0.4-2.3-1.6-2.3-3c-0.1-1.4,0.8-2.7,2.2-3.1c1.9-0.6,3.5-0.2,5.1,0.9C49.4,93,49.8,93.4,49.6,94.1z M62.2,86.1
		c2.1-0.6,4-0.2,5.5,1.5l0.2,0.2c0.6-0.5,1-1,1.7-1.5c-0.2-0.2-0.3-0.4-0.5-0.6c-2.3-2.5-6.9-2.8-9.7-0.8c-3.9,2.9-3.9,8.5-1.9,11.5
		c1.9,2.8,4.5,3.8,7.7,3.4c1.9-0.2,3.4-1.1,4.6-2.7c-0.6-0.5-1.1-1-1.7-1.5c-0.2,0.2-0.2,0.2-0.3,0.4c-2.2,2.4-5.8,2.2-7.7-0.4
		c-1.1-1.5-1.4-3.3-1-5.1C59,88.4,60.1,86.8,62.2,86.1L62.2,86.1z M78.9,97c-0.2,0.1-0.2,0.2-0.2,0.2c-0.6,0.5-1.3,0.6-2,0.3
		c-0.7-0.3-0.8-1-0.9-1.6v-9.2c0-0.2,0,0.2,0.1-0.6h3.1v-2.4h-3.2v-4h-2.4V84h-2.1c-0.2,0-0.4,0.2-0.4,0.3c-0.1,0.6,0,1,0,1.8h2.6
		v10.3c0,1.3,0.3,2.4,1.4,3.1c1.2,0.7,3.5,0.6,4.6-0.3c0.2-0.1,0.2-0.4,0.2-0.5C79.4,98.2,79.2,97.6,78.9,97z"/>
</g>
</svg>
