<?xml version="1.0" encoding="utf-8"?>
<!-- Generator: Adobe Illustrator 25.0.0, SVG Export Plug-In . SVG Version: 6.00 Build 0)  -->
<svg version="1.1" id="Ebene_1" xmlns="http://www.w3.org/2000/svg" xmlns:xlink="http://www.w3.org/1999/xlink" x="0px" y="0px"
	 viewBox="0 0 120 89.9" style="enable-background:new 0 0 120 89.9;" xml:space="preserve">
<path style="fill:#CF649A;" d="M103.3,51.7c-4.2,0-7.8,1-10.9,2.5C91.3,52,90.2,50,90,48.6c-0.2-1.7-0.5-2.7-0.2-4.7
	c0.3-2,1.4-4.9,1.4-5.1c0-0.2-0.3-1.2-2.7-1.3s-4.5,0.5-4.7,1.1c-0.2,0.6-0.7,2.1-1,3.6c-0.4,2.2-4.8,10-7.3,14.1
	c-0.8-1.6-1.5-3-1.7-4.1c-0.2-1.7-0.5-2.7-0.2-4.7c0.3-2,1.4-4.9,1.4-5.1c0-0.2-0.3-1.2-2.7-1.3c-2.4,0-4.5,0.5-4.7,1.1
	c-0.2,0.6-0.5,2.1-1,3.6c-0.5,1.5-6.4,14.5-7.9,17.9c-0.8,1.7-1.5,3.1-1.9,4.1c-0.5,0.9,0,0.1-0.1,0.2C56.3,68.6,56,69,56,69v0
	c-0.3,0.6-0.7,1.1-0.8,1.1c-0.1,0-0.4-1.6,0-3.7c0.9-4.5,3-11.6,3-11.8c0-0.1,0.4-1.4-1.4-2c-1.7-0.6-2.3,0.4-2.5,0.4
	c-0.1,0-0.3,0.4-0.3,0.4s1.9-7.9-3.6-7.9c-3.5,0-8.3,3.8-10.6,7.2c-1.5,0.8-4.7,2.6-8.1,4.4c-1.3,0.7-2.6,1.5-3.9,2.1L27.7,59
	C21,51.8,8.6,46.8,9.1,37.2c0.2-3.5,1.4-12.7,23.8-23.9c18.4-9.1,33-6.6,35.6-1.1c3.6,8-7.9,22.8-26.9,24.9c-7.3,0.8-11.1-2-12-3
	c-1-1.1-1.1-1.1-1.5-0.9c-0.6,0.3-0.2,1.3,0,1.9c0.6,1.5,2.9,4.1,6.9,5.4c3.5,1.1,12,1.8,22.3-2.2C68.8,33.8,77.8,21.4,75.2,11
	C72.5,0.4,54.9-3,38.4,2.9c-9.9,3.5-20.6,9-28.2,16.2C1,27.6-0.5,35,0.1,38.1c2.1,11,17.3,18.2,23.4,23.6c-0.3,0.2-0.6,0.3-0.8,0.5
	c-3,1.5-14.6,7.6-17.6,14c-3.3,7.3,0.5,12.5,3,13.2c7.8,2.2,15.8-1.7,20.2-8.2c4.3-6.4,3.8-14.8,1.8-18.6l-0.1-0.1l2.4-1.4
	c1.5-0.9,3.1-1.8,4.4-2.5c-0.7,2-1.3,4.5-1.6,8c-0.3,4.1,1.4,9.5,3.6,11.6c1,0.9,2.2,0.9,2.9,0.9c2.6,0,3.8-2.1,5-4.7
	c1.6-3.1,3-6.7,3-6.7s-1.8,9.8,3,9.8c1.8,0,3.5-2.3,4.3-3.4v0c0,0,0-0.1,0.1-0.2c0.1-0.1,0.2-0.3,0.3-0.4v0c0.7-1.2,2.3-4,4.6-8.6
	c3-6,5.9-13.4,5.9-13.4s0.3,1.8,1.1,4.8c0.5,1.8,1.6,3.7,2.5,5.6c-0.7,1-1.1,1.5-1.1,1.5l0,0c-0.6,0.8-1.2,1.5-1.9,2.3
	c-2.4,2.9-5.3,6.1-5.6,7.1c-0.4,1.1-0.4,1.9,0.5,2.6c0.6,0.5,1.8,0.6,3,0.5c2.2-0.1,3.7-0.7,4.4-1c1.2-0.4,2.5-1.1,3.8-2
	c2.3-1.7,3.8-4.2,3.6-7.5c-0.1-1.8-0.7-3.6-1.4-5.3c0.2-0.3,0.4-0.6,0.6-0.9c3.7-5.4,6.6-11.4,6.6-11.4s0.3,1.8,1.1,4.8
	c0.4,1.5,1.3,3.2,2.1,4.8c-3.5,2.8-5.6,6.1-6.4,8.3c-1.4,4-0.3,5.8,1.7,6.2c0.9,0.2,2.2-0.2,3.2-0.7c1.2-0.4,2.7-1.1,4.1-2.1
	c2.3-1.7,4.6-4.1,4.5-7.4c-0.1-1.5-0.5-3-1-4.4c3-1.2,6.8-1.9,11.6-1.3c10.4,1.2,12.5,7.7,12.1,10.5c-0.4,2.7-2.6,4.2-3.3,4.7
	c-0.7,0.4-1,0.6-0.9,0.9c0.1,0.5,0.4,0.5,1.1,0.4c0.9-0.1,5.5-2.2,5.7-7.2C120.3,58.6,114.2,51.6,103.3,51.7L103.3,51.7z M22.9,78.8
	c-3.4,3.8-8.3,5.2-10.4,4c-2.2-1.3-1.4-6.8,2.9-10.9c2.6-2.4,5.9-4.7,8.1-6.1c0.5-0.3,1.2-0.7,2.1-1.3c0.1-0.1,0.2-0.1,0.2-0.1
	c0.2-0.1,0.4-0.2,0.5-0.3C28,69.8,26.5,74.8,22.9,78.8L22.9,78.8z M48.1,61.6c-1.2,2.9-3.7,10.5-5.3,10c-1.3-0.4-2.1-6-0.3-11.7
	c0.9-2.8,2.9-6.2,4.1-7.5c1.9-2.1,4-2.8,4.5-1.9C51.7,51.7,48.8,59.8,48.1,61.6z M68.8,71.6c-0.5,0.3-1,0.4-1.2,0.3
	c-0.2-0.1,0.2-0.4,0.2-0.4s2.6-2.8,3.6-4.1c0.6-0.7,1.3-1.6,2-2.6V65C73.5,68.4,70.3,70.7,68.8,71.6L68.8,71.6z M84.9,67.9
	c-0.4-0.3-0.3-1.1,0.9-3.9c0.5-1.1,1.6-2.9,3.6-4.6c0.2,0.7,0.4,1.4,0.4,2C89.7,65.7,86.7,67.3,84.9,67.9z"/>
</svg>
