<?xml version="1.0" encoding="utf-8"?>
<!-- Generator: Adobe Illustrator 25.0.1, SVG Export Plug-In . SVG Version: 6.00 Build 0)  -->
<svg version="1.1" id="Ebene_1" xmlns="http://www.w3.org/2000/svg" xmlns:xlink="http://www.w3.org/1999/xlink" x="0px" y="0px"
	 viewBox="0 0 200 65" style="enable-background:new 0 0 200 65;" xml:space="preserve">
<linearGradient id="rect9532-4-4-1_1_" gradientUnits="userSpaceOnUse" x1="861.6548" y1="-5532.9829" x2="809.9558" y2="-5533.0127" gradientTransform="matrix(1.2327 0 0 -0.8 -953.5577 -4392.7993)">
	<stop  offset="0" style="stop-color:#3F4850"/>
	<stop  offset="1" style="stop-color:#3F4850;stop-opacity:0"/>
</linearGradient>
<path id="rect9532-4-4-1" style="fill:url(#rect9532-4-4-1_1_);" d="M11.3,17.2h187.7c0.5,0,0.9,0.4,0.9,0.9V49
	c0,0.5-0.4,0.9-0.9,0.9H11.3c-0.5,0-0.9-0.4-0.9-0.9V18.2C10.3,17.7,10.7,17.2,11.3,17.2z"/>
<g id="text9534-6-4-6">
	<path id="path1272" style="fill:#FAFAFB;" d="M83.7,31.9c0,0-0.3-0.2-0.7-0.6c-0.2-0.2-0.4-0.3-0.5-0.3c-0.2-0.1-0.5-0.1-0.9,0
		c-0.4,0.1-0.7,0.3-1.1,0.6c-0.4,0.3-0.7,0.6-0.9,0.9c-0.2,0.3-0.3,0.6-0.3,0.9c0,0.2,0,0.4,0.1,0.6c0.1,0.1,0.2,0.1,0.3,0.2
		c0.3,0.1,1,0.1,2.1,0c1.4-0.1,2.3,0,2.9,0.1c1.2,0.3,2,1.1,2.2,2.4c0.2,1.2-0.1,2.3-0.8,3.5c-0.7,1.1-1.4,1.8-2.3,2.2
		c-0.9,0.4-1.8,0.6-2.7,0.4c-1.5-0.3-3-1.4-4.4-3.2c-0.2-0.2-0.2-0.4-0.2-0.7c0-0.3,0.2-0.5,0.3-0.6c0.2-0.2,0.4-0.2,0.7-0.2
		c0.3,0,0.5,0.2,0.6,0.4c1.1,1.4,2.2,2.3,3.3,2.5c1.1,0.2,2.1-0.4,3-1.8c0.5-0.7,0.7-1.5,0.5-2.2c0-0.3-0.1-0.5-0.2-0.6
		c-0.1-0.1-0.3-0.2-0.5-0.3C83.9,36,83.1,36,82,36.1c-1.4,0.1-2.3,0-2.8-0.1c-0.6-0.2-1-0.5-1.3-0.9c-0.3-0.4-0.5-1-0.5-1.7
		c0-0.6,0.2-1.2,0.6-1.7c0.4-0.6,0.8-1.1,1.4-1.5c0.4-0.3,0.7-0.5,1.1-0.7c0.4-0.2,0.8-0.3,1.3-0.4c0.5-0.1,0.9,0,1.4,0.2
		c0.3,0.1,0.6,0.3,1,0.6c0,0,0.1,0.1,0.2,0.2c0.2,0.1,0.3,0.2,0.4,0.3c0.2,0.1,0.3,0.3,0.4,0.6c0.1,0.2,0,0.5-0.2,0.7
		c-0.1,0.2-0.3,0.3-0.6,0.4C84.1,32.1,83.9,32.1,83.7,31.9L83.7,31.9z"/>
	<path id="path1274" style="fill:#FAFAFB;" d="M95.1,33.1c-0.4-1.5-1.1-2.3-2.1-2.5c-0.9-0.1-1.7,0.3-2.4,1.4
		c-0.7,1.2-1.1,2.6-1.2,4.2c0,1.6,0.3,2.8,1,3.6c0.8,0.8,2,1,3.6,0.5c0.4-0.1,0.8-0.5,1.4-1c0.2-0.2,0.4-0.4,0.8-0.7
		c0.4-0.4,0.6-0.6,0.8-0.7c0.2-0.2,0.4-0.3,0.6-0.2c0.3,0,0.5,0.1,0.7,0.3c0.2,0.2,0.3,0.4,0.2,0.7c0,0.2-0.1,0.5-0.3,0.6L97.5,40
		c-0.3,0.3-0.6,0.6-0.8,0.7c-0.8,0.7-1.5,1.2-2.1,1.4c-2.3,0.8-4.2,0.5-5.5-0.9c-1.1-1.2-1.6-2.8-1.5-5c0.1-2,0.5-3.7,1.5-5.2
		c0.5-0.8,1.1-1.4,1.8-1.8c0.7-0.4,1.5-0.6,2.4-0.5c1.7,0.3,2.9,1.6,3.6,3.8c0.1,0.2,0,0.5-0.1,0.7c-0.1,0.2-0.3,0.4-0.6,0.4
		c-0.2,0.1-0.5,0-0.7-0.1C95.3,33.6,95.1,33.4,95.1,33.1L95.1,33.1z"/>
	<path id="path1276" style="fill:#FAFAFB;" d="M101.6,24.7c-0.1,0.6-0.1,1.1-0.2,1.6c-0.1,0.6-0.1,1.1-0.1,1.5c0,0.4,0,1,0,1.7
		c0,0.7,0,1.2,0,1.5l0.1,1.8c0,0.9,0.1,1.4,0.1,1.6c0.7-1.6,1.6-2.8,2.7-3.4c0.6-0.4,1.3-0.5,1.8-0.4c0.6,0.2,1,0.5,1.4,1.1
		c0.5,0.7,0.8,1.9,1,3.6c0.1,0.6,0.1,1.3,0.2,2.1c0,0.8,0,1.4,0,2c0,0.5,0,1.1,0,1.7c0,0.6,0,0.9,0,1c0,0.2-0.1,0.5-0.3,0.6
		c-0.2,0.2-0.4,0.3-0.6,0.3s-0.5-0.1-0.7-0.3c-0.2-0.2-0.3-0.4-0.3-0.6c0-0.1,0-0.5,0-1c0-0.6,0-1.1,0-1.6c0-0.5,0-1.1,0-1.8
		c0-0.7-0.1-1.4-0.1-2c-0.2-1.4-0.4-2.3-0.7-2.8c0-0.1-0.1-0.1-0.1-0.2c0-0.1-0.1-0.1-0.1-0.1l0,0c-0.1,0-0.2,0-0.4,0.2
		c-0.7,0.4-1.3,1.3-1.9,2.5c-0.5,1.2-0.9,2.4-1,3.6c0,0.1,0,0.7,0,1.6c0,0.9-0.1,1.5-0.3,2.1c-0.1,0.1-0.1,0.2-0.2,0.2
		c-0.2,0.2-0.4,0.3-0.6,0.4c-0.4,0.1-0.7-0.1-0.9-0.4c-0.1-0.1-0.1-0.2-0.2-0.3c0-0.1-0.1-0.3-0.1-0.5v-0.4c0-0.1,0-0.2,0-0.2
		c-0.1-0.7-0.1-1.3-0.2-1.7c-0.1-0.8-0.1-2.1-0.1-3.8c0-0.4,0-1.3-0.1-2.6c0-1.3-0.1-2.3-0.1-3c0-0.7,0-1.6,0.1-2.6
		c0.1-1.1,0.1-2,0.2-2.9c0-0.2,0.2-0.5,0.3-0.6c0.2-0.2,0.4-0.2,0.7-0.2c0.3,0,0.5,0.2,0.6,0.4C101.5,24.2,101.6,24.5,101.6,24.7
		L101.6,24.7z"/>
	<path id="path1278" style="fill:#FAFAFB;" d="M111.1,29.3c-0.2,2.6-0.3,5.1-0.1,7.4c0.1,1.7,0.3,3,0.7,3.8c0.3,0.7,0.6,1,0.9,1
		l0.1-0.1c0.1-0.1,0.3-0.4,0.5-0.7c0.3-0.6,0.7-1.5,1.1-2.6c0.6-1.7,1.1-3.3,1.4-4.9c0.2-0.9,0.3-1.7,0.4-2.5c0,0,0-0.3,0-0.8
		c0-0.2,0-0.4,0.1-0.5c0-0.1,0.1-0.2,0.1-0.3c0.1-0.1,0.1-0.1,0.2-0.2c0.1-0.1,0.2-0.2,0.4-0.2c0.2-0.1,0.4-0.1,0.6,0
		c0.2,0.1,0.4,0.2,0.6,0.5c0,0.1,0.1,0.1,0.1,0.2c0.1,0.3,0.1,0.7,0.1,1.1c-0.1,0.4-0.1,0.6-0.1,0.6c0,0.6-0.1,1.4-0.1,2.6
		c-0.1,1.2-0.1,2.1-0.1,2.9c0,0.7,0,1.6,0,2.5c0.1,1,0.2,1.8,0.3,2.5c0.1,0.2,0,0.5-0.1,0.7c-0.1,0.2-0.3,0.3-0.6,0.4
		c-0.2,0.1-0.5,0-0.7-0.1c-0.2-0.1-0.3-0.3-0.4-0.6c-0.2-0.8-0.3-1.8-0.3-2.9c-0.4,1.1-0.7,1.9-1.1,2.6c-0.2,0.4-0.5,0.8-0.7,1.1
		c-0.4,0.4-0.8,0.6-1.2,0.7c-1.3,0.1-2.3-0.6-2.9-2.2c-0.4-1.1-0.7-2.5-0.8-4.4c-0.2-2.4-0.1-4.9,0.1-7.6c0-0.3,0.1-0.5,0.3-0.6
		c0.2-0.2,0.4-0.2,0.7-0.2c0.3,0,0.5,0.1,0.6,0.3C111.1,28.8,111.2,29,111.1,29.3L111.1,29.3z"/>
	<path id="path1280" style="fill:#FAFAFB;" d="M121.3,24.3c-0.2,0.7-0.4,1.6-0.4,2.6c-0.1,0.9-0.1,1.8-0.1,2.7c0,0.8,0,1.7,0,2.9
		c0,0.9-0.1,1.8-0.1,2.8c-0.1,1.2-0.1,2.3-0.1,3.3c0,1-0.1,1.9-0.1,2.8c0,0.2-0.1,0.5-0.3,0.7c-0.2,0.2-0.4,0.3-0.6,0.3
		c-0.2,0-0.5-0.1-0.7-0.3c-0.2-0.2-0.3-0.4-0.3-0.7c0-0.9,0-1.8,0.1-2.8c0-1,0.1-2.1,0.1-3.3c0.1-1.2,0.1-2.2,0.1-2.8
		c0-1,0-1.9,0-2.7c0-0.9,0-1.9,0.1-2.9c0.1-1.1,0.2-2.1,0.5-2.9c0.1-0.2,0.2-0.4,0.5-0.5c0.2-0.1,0.5-0.2,0.7-0.1
		c0.2,0.1,0.4,0.2,0.6,0.5C121.4,23.8,121.4,24,121.3,24.3L121.3,24.3z"/>
	<path id="path1282" style="fill:#FAFAFB;" d="M123.9,35.4c0.9,0.2,1.8,0.2,2.8,0c1-0.3,1.7-0.7,2.4-1.4c0.4-0.4,0.6-0.9,0.7-1.5
		c0.1-0.4,0-0.7-0.3-0.8c-0.6-0.3-1.5-0.1-2.7,0.6C125.4,33.1,124.4,34.1,123.9,35.4L123.9,35.4z M122,35.1c0.7-1.9,2-3.3,3.8-4.4
		c1.8-1.1,3.3-1.3,4.5-0.7c0.6,0.3,0.9,0.7,1.1,1.2c0.2,0.5,0.2,1.1,0.1,1.6c-0.1,0.9-0.5,1.7-1.1,2.4c-0.8,0.9-1.9,1.6-3.2,2
		c-1.3,0.4-2.5,0.4-3.8,0.1c-0.1,0.5,0,1,0.1,1.5c0.2,1,0.7,1.7,1.5,2c0.9,0.4,2,0.3,3.4-0.3c0.4-0.2,0.8-0.4,1.1-0.7
		c0.3-0.3,0.7-0.7,1.2-1.3c0.2-0.2,0.4-0.3,0.6-0.3c0.3,0,0.5,0,0.7,0.2c0.2,0.2,0.3,0.4,0.3,0.6c0,0.2,0,0.5-0.2,0.7
		c-0.4,0.5-0.7,0.8-0.9,1c-0.2,0.2-0.5,0.5-0.9,0.8c-0.4,0.3-0.8,0.6-1.3,0.8c-1.9,0.8-3.5,0.9-4.9,0.3c-1.3-0.6-2.2-1.7-2.5-3.3
		c-0.2-0.9-0.2-1.9-0.1-2.9c-0.1-0.3-0.1-0.6,0-0.9C121.7,35.3,121.8,35.2,122,35.1L122,35.1z"/>
	<path id="path1284" style="fill:#FAFAFB;" d="M133.9,34.7c0.6,0,1.6,0,2.9,0c1.3,0,2.3,0,2.9,0c0.2,0,0.5,0.1,0.6,0.3
		c0.2,0.2,0.3,0.4,0.3,0.7c0,0.2-0.1,0.5-0.3,0.6c-0.2,0.2-0.4,0.3-0.7,0.3c-0.6,0-1.6,0-2.9,0c-1.3,0-2.3,0-2.9,0
		c-0.2,0-0.5-0.1-0.6-0.3c-0.2-0.2-0.3-0.4-0.3-0.7c0-0.3,0.1-0.5,0.3-0.7C133.4,34.8,133.6,34.7,133.9,34.7L133.9,34.7z"/>
	<path id="path1286" style="fill:#FAFAFB;" d="M144.1,28.5c-0.1,1.5-0.2,3.2-0.2,5.2l0.3-0.7c0.5-1.3,1-2.2,1.4-2.9
		c0.3-0.5,0.6-0.8,0.9-1c0.5-0.4,0.9-0.6,1.4-0.4c0.6,0.1,1,0.5,1.2,1.2c0.2,0.4,0.3,1,0.3,1.7c0,0.3,0.1,0.6,0.1,1
		c0.7-1.8,1.6-3,2.6-3.7c0.3-0.2,0.5-0.4,0.7-0.5c0.5-0.2,1-0.3,1.4,0c0.4,0.2,0.7,0.6,0.9,1.3c0.1,0.4,0.2,0.9,0.3,1.6
		c0.1,1,0.1,2.4,0.1,4.2c-0.1,1.3-0.1,2.7-0.2,4.4c-0.1,1.8-0.2,2.7-0.2,2.8c0,0.2-0.1,0.5-0.3,0.6c-0.2,0.2-0.4,0.3-0.6,0.3
		s-0.5-0.1-0.7-0.3c-0.2-0.2-0.3-0.4-0.3-0.6c0-0.3,0.1-1.3,0.2-2.9c0.1-2,0.2-3.4,0.2-4.3c0.1-1.7,0-3-0.1-4
		c-0.1-0.5-0.1-0.9-0.2-1.2l-0.2,0.1c-0.8,0.6-1.6,1.9-2.3,3.8c-0.5,1.5-0.9,3.1-1.2,4.8l-0.4,2.6l-0.1,0.7c0,0.1,0,0.1,0,0.2
		c0,0,0,0.1,0,0.1c0,0,0,0.1,0,0.1c0,0.1,0,0.1-0.1,0.2c-0.1,0.2-0.2,0.3-0.4,0.4c-0.3,0.1-0.5,0.2-0.8,0c-0.2-0.1-0.3-0.2-0.4-0.4
		c-0.2-0.3-0.3-0.7-0.3-1.3c0-0.4,0-1,0.1-1.7l0.2-2.1l0.2-2.1c0.1-1.7,0.2-3,0.1-3.9c0-0.4-0.1-0.7-0.1-0.9
		c-0.1,0.1-0.2,0.2-0.3,0.4c-0.4,0.6-0.8,1.5-1.3,2.6c-0.7,1.8-1.3,3.4-1.6,4.9c0,0.2-0.1,0.4-0.2,0.6c-0.1,0.2-0.1,0.3-0.1,0.4
		l0.1,0.7c0,0.5,0.1,0.9,0.1,1.2v0.4v0.2v0.1l-0.1,0.2c-0.1,0.2-0.2,0.3-0.3,0.4c-0.2,0.2-0.5,0.3-0.8,0.2c-0.3-0.1-0.6-0.2-0.7-0.6
		c-0.1-0.2-0.1-0.4-0.2-0.6v-0.5v-0.3c0-0.7,0-1.3,0.1-1.7c0-0.6-0.1-0.9-0.1-1c-0.1-4.6-0.1-8,0.1-10.1c0-0.2,0.1-0.5,0.3-0.6
		c0.2-0.2,0.4-0.3,0.7-0.2c0.3,0,0.5,0.1,0.6,0.3C144,28,144.1,28.3,144.1,28.5L144.1,28.5z"/>
	<path id="path1288" style="fill:#FAFAFB;" d="M166.3,31.3c-0.1,0.1-0.5,0.4-1.3,1.1l-2.5,2.3l-2.4,2.2l-0.5,0.4l0.1,0.1
		c0.4,0.4,1,0.8,1.7,1.4l3.1,2.2c0.2,0.2,0.3,0.4,0.4,0.6c0.1,0.2,0,0.5-0.2,0.7c-0.1,0.2-0.3,0.3-0.6,0.4c-0.2,0.1-0.5,0-0.7-0.1
		l-3.2-2.2c-0.7-0.5-1.2-0.9-1.6-1.3v2.9c0,0.2-0.1,0.5-0.3,0.6c-0.2,0.2-0.4,0.3-0.6,0.3s-0.5-0.1-0.7-0.3
		c-0.2-0.2-0.3-0.4-0.3-0.6c0-1.9,0-4.7,0-8.4c0-3.7,0-6.5,0-8.4c0-0.2,0.1-0.5,0.3-0.6c0.2-0.2,0.4-0.3,0.7-0.3
		c0.2,0,0.5,0.1,0.6,0.3c0.2,0.2,0.3,0.4,0.3,0.6c0,1.6,0,5.1,0,10.4l0,0l2.4-2.2l2.5-2.4c0.8-0.8,1.4-1.2,1.6-1.3
		c0.2-0.1,0.4-0.2,0.7-0.1s0.4,0.2,0.6,0.4c0.1,0.2,0.2,0.4,0.1,0.7C166.7,31,166.5,31.2,166.3,31.3L166.3,31.3z"/>
	<path id="path1290" style="fill:#FAFAFB;" d="M170.4,40.9c0.2,0.2,0.3,0.4,0.3,0.7c0,0.3-0.1,0.6-0.3,0.8c-0.2,0.2-0.4,0.3-0.7,0.3
		s-0.6-0.1-0.8-0.3c-0.2-0.2-0.3-0.5-0.3-0.8c0-0.3,0.1-0.6,0.3-0.7c0.2-0.2,0.5-0.3,0.8-0.3S170.2,40.7,170.4,40.9z"/>
	<path id="path1292" style="fill:#FAFAFB;" d="M179.3,31.2c0-0.9,0-1.9,0.1-2.8c0-0.7,0.1-1.4,0.2-2.2c0-0.6,0.1-1.1,0.1-1.4
		c0-0.2,0-0.4,0.1-0.5c0-0.1,0-0.2,0-0.2c0,0,0-0.1,0-0.1c0-0.1,0.1-0.2,0.2-0.3c0.1-0.2,0.3-0.3,0.5-0.3c0.2-0.1,0.5-0.1,0.7,0.1
		c0.2,0.1,0.3,0.2,0.4,0.4c0,0.1,0.1,0.1,0.1,0.2c0,0,0,0,0,0.1v0.1c0,0.1,0,0.1,0,0.2c0,0.2,0,0.4,0.1,0.7c0.1,0.6,0.1,1,0.1,1.1
		c0.1,1.2,0.1,2.2,0.1,2.9c0.1,2.9-0.1,5.4-0.4,7.3c0.2,2.5,0.3,4.4,0.3,5.7c0,0.2-0.1,0.5-0.3,0.6c-0.2,0.2-0.4,0.3-0.6,0.3
		s-0.5-0.1-0.7-0.3c-0.2-0.2-0.3-0.4-0.3-0.6c0-0.4,0-0.8,0-1.3c-0.9,1.3-2,1.9-3.4,1.8c-0.7,0-1.4-0.2-2.1-0.6
		c-0.6-0.4-1.1-0.9-1.5-1.5c-0.5-0.8-0.8-1.6-0.8-2.6c0-1,0.1-1.8,0.5-2.6c0.4-0.8,0.8-1.5,1.4-2.2c0.9-1.1,1.9-1.7,3-2.1
		C177.8,30.9,178.6,30.9,179.3,31.2L179.3,31.2z M179.5,34.2c-0.1-0.1-0.1-0.2-0.2-0.4l-0.1-0.1c0-0.1,0-0.2-0.1-0.2
		c-0.1-0.1-0.1-0.2-0.1-0.2c-0.4-0.4-0.9-0.5-1.6-0.3c-0.7,0.2-1.5,0.7-2.1,1.5c-0.7,0.8-1.2,1.7-1.4,2.6c-0.2,0.9,0,1.7,0.5,2.5
		c0.6,0.8,1.3,1.2,2.1,1.3c0.7,0,1.4-0.3,1.9-1.1c0.5-0.7,0.9-1.8,1.2-3.3l0-0.1l-0.1-0.9C179.5,34.9,179.5,34.5,179.5,34.2
		L179.5,34.2z"/>
	<path id="path1294" style="fill:#FAFAFB;" d="M185.3,35.4c0.9,0.2,1.8,0.2,2.8,0c1-0.3,1.7-0.7,2.4-1.4c0.4-0.4,0.6-0.9,0.7-1.5
		c0.1-0.4,0-0.7-0.3-0.8c-0.6-0.3-1.5-0.1-2.7,0.6C186.8,33.1,185.8,34.1,185.3,35.4z M183.4,35.1c0.7-1.9,2-3.3,3.8-4.4
		c1.8-1.1,3.3-1.3,4.5-0.7c0.6,0.3,0.9,0.7,1.1,1.2c0.2,0.5,0.2,1.1,0.1,1.6c-0.1,0.9-0.5,1.7-1.1,2.4c-0.8,0.9-1.9,1.6-3.2,2
		c-1.3,0.4-2.5,0.4-3.8,0.1c-0.1,0.5,0,1,0.1,1.5c0.2,1,0.7,1.7,1.5,2c0.9,0.4,2,0.3,3.4-0.3c0.4-0.2,0.8-0.4,1.1-0.7
		c0.3-0.3,0.7-0.7,1.2-1.3c0.2-0.2,0.4-0.3,0.6-0.3c0.3,0,0.5,0,0.7,0.2s0.3,0.4,0.3,0.6c0,0.2,0,0.5-0.2,0.7
		c-0.4,0.5-0.7,0.8-0.9,1c-0.2,0.2-0.5,0.5-0.9,0.8c-0.4,0.3-0.8,0.6-1.3,0.8c-1.9,0.8-3.5,0.9-4.9,0.3c-1.3-0.6-2.2-1.7-2.5-3.3
		c-0.2-0.9-0.2-1.9-0.1-2.9c-0.1-0.3-0.1-0.6,0-0.9C183.2,35.3,183.3,35.2,183.4,35.1L183.4,35.1z"/>
</g>
<path id="path9547-36-7-6-5-2-1-97" style="fill:#E63946;" d="M45.3,20.8l-5.5,10.1c-0.2,0.4-0.2,0.9,0,1.3l5.5,9
	c0.2,0.4,0.7,0.6,1.2,0.6l10.9,0c0.5,0,0.9-0.2,1.2-0.6l6.2-9.5c0.3-0.4,0.3-0.9,0-1.3l-5.7-9.6c-0.2-0.4-0.7-0.7-1.1-0.7l-11.6,0
	C46,20.2,45.6,20.4,45.3,20.8L45.3,20.8z"/>
<path id="path9547-36-7-3-2-5-0-9" style="fill:#11ABC1;" d="M8.4,11.7L0,26.9c-0.2,0.4-0.2,0.9,0.1,1.3L9,41.4
	c0.3,0.4,0.7,0.6,1.2,0.6l15.9,0c0.5,0,0.9-0.2,1.2-0.6l9-13.9c0.3-0.4,0.3-0.9,0.1-1.3l-7-14.2c-0.2-0.4-0.6-0.7-1.1-0.7L9.5,11
	C9,11,8.6,11.2,8.4,11.7L8.4,11.7z"/>
<path id="path9547-36-7-6-1-5-8-7-7" style="fill:#F5B935;" d="M22,35.6l-5.7,10.5c-0.2,0.4-0.2,0.9,0,1.3l5.8,9.4
	c0.2,0.4,0.7,0.6,1.2,0.6l11.4,0c0.5,0,0.9-0.2,1.2-0.6l6.5-10c0.3-0.4,0.3-0.9,0-1.3l-6-10c-0.2-0.4-0.7-0.7-1.1-0.7l-12.1,0
	C22.6,35,22.2,35.2,22,35.6z"/>
<path id="path9547-36-7-6-1-0-2-9-6-4-4-8-5" style="fill:#FFFFFF;" d="M30.7,22.1c-0.5,0-0.9,0.3-1.1,0.7l-5.2,9.6
	c-0.2,0.4-0.2,0.9,0,1.3l0.8,1.3h0l4.5,7.3c0.1,0.2,0.3,0.3,0.5,0.5c0.2,0.1,0.4,0.2,0.7,0.2l9.9,0l0,0l-4.3-7.2
	c-0.2-0.4-0.7-0.7-1.1-0.7l-3.7,0l4.8-7.4c0.3-0.4,0.3-0.9,0.1-1.3l-2.1-4.2L30.7,22.1C30.7,22.1,30.7,22.1,30.7,22.1L30.7,22.1z
	 M43.6,24l4.7,7.9c0.2,0.3,0.2,0.7,0.1,1.1c0.1-0.3,0.1-0.7-0.1-1L43.6,24l-3.8,7c-0.2,0.4-0.2,0.9,0,1.3l4.3,7.1h0l4.1-6.3
	c0.3-0.4,0.3-0.9,0-1.3L43.6,24L43.6,24z M30.3,42.8c0.1,0,0.3,0.1,0.4,0.1l9.9,0l0,0l-9.9,0C30.6,42.9,30.5,42.9,30.3,42.8
	L30.3,42.8z"/>
</svg>
