<?xml version="1.0" encoding="utf-8"?>
<!-- Generator: Adobe Illustrator 25.0.0, SVG Export Plug-In . SVG Version: 6.00 Build 0)  -->
<svg version="1.1" id="Ebene_1" xmlns="http://www.w3.org/2000/svg" xmlns:xlink="http://www.w3.org/1999/xlink" x="0px" y="0px"
	 viewBox="0 0 152 65" style="enable-background:new 0 0 152 65;" xml:space="preserve">
<g id="layer1" transform="translate(-479.47342,-4.6557803)">
	<path id="path17715" style="fill:#231F20;" d="M553.7,4.7c-1,0-2,0.2-3,0.5c-0.9,0.2-1.9,0.2-2.8,0.7c-1.1,0.6-2.4,1-3.1,2.1
		c-0.6,0.7-1.4,1.3-1.5,2.2c-0.2,1.2,0.1,2.3,1,3c0.3,0.3,0.8,0.3,0.9,0.8c-0.1,0.8-0.6,1.5-0.8,2.3c-0.5,0.8,0.8,1.3,0.3,2.1
		l-1.7,3c-0.2,0.4-0.4,0.9-0.4,1.4c0.2,0.9,1.2,0.6,1.8,1c0.4,0.5-0.2,0.9-0.2,1.3c-0.1,0.4,0.5,0.6,0.2,0.9c-0.3,0.6,0.3,1,0.4,1.4
		c0.1,0.7-0.4,1.5,0.2,2c1.4,0.9,3.4,0.2,4.8,0.9c0.7,0.5,0.6,1.5,0.6,2.3c-0.4,3.4-2,6.3-4.2,9c-0.2,0.3-0.4,0.8-0.2,1.2
		c0.3,0.2,0.7,0.1,1-0.1c3.9-1.3,6.9-4.7,10.7-6.2c1.5-0.7,3.1-0.9,4.7-1.3c0.4-0.3,0.2-0.9,0.1-1.3c-0.8-2-1.7-4.2-1.5-6.6
		c0.1-0.9,1-1.1,1.5-1.4c1-0.3,1.7-1.3,2.1-2.1c0.8-1.2,1.9-2.2,2-3.6c0.1-1.3,0-2.7,0.4-3.8c0.3-1.3,0.1-2.7-0.3-3.8
		c-0.1-1.5-0.6-2.9-1.6-4.1c-0.9-1.3-2.5-1.5-3.7-2.4c-1.1-1-2.6-1.1-4.1-1c-0.9,0-1.8-0.2-2.6-0.4C554.4,4.7,554.1,4.7,553.7,4.7z
		 M509.5,39.8l-4.8,1.2v0.7l2.1,0.8v18l-2,1v0.8h6.7v-0.8l-2-1V50.1c0.6-0.2,1.7-0.3,2.5-0.3c2.3,0,3.2,1,3.2,3.4v7.2l-2,1v0.8h6.8
		v-0.8l-2.1-1v-7.9c0-2.8-1.5-4.5-3.7-4.5c-0.9,0-2.1,0.4-4.2,1.3l-0.3,0.2L509.5,39.8L509.5,39.8z M581.1,39.8l-4.9,1.2v0.7
		l2.3,0.8v18l-2.1,1v0.8h6.9v-0.8l-2.2-1V39.8z M628.8,40.6c-3.7,0-6.2,2.2-6.2,5.6v2h-2.1v1.3h2.1v10.9l-2.1,1v0.8h7.5v-0.8l-2.8-1
		V49.5h3.9v-1.3h-3.9v-2.5c0-1.6,0.3-2.5,1-3.1c0.6-0.5,1.5-0.9,2.4-0.9c0.1,0,0.2,0,0.4,0l0.8,1.8h1.8v-2.5
		C630.8,40.7,629.9,40.6,628.8,40.6z M485.2,41.4c-3.2,0-5.8,2.3-5.8,5.5c0,1,0.2,1.7,0.7,2.5c0.5,0.9,1.3,1.4,2.7,2.4l3,2
		c1.9,1.4,2.7,2.2,2.7,3.7c0,2.1-1.8,3.3-4.4,3.3c-0.8,0-1.3,0-2-0.1l-1.4-3.9h-1v4.6l0.2,0.1l1.5,0.4c1.2,0.3,2.5,0.4,3.4,0.4
		c3.6,0,6.4-2.1,6.4-5.6c0-1.2-0.4-2.1-0.9-3c-0.5-0.9-1.1-1.2-2.9-2.5l-3-2.1c-1.9-1.4-2.8-2-2.8-3.4c0-2,1.8-3,4.6-3
		c0.5,0,0.7,0.1,1.4,0.1h0.2l1.3,3.7h1v-4.4l-0.4-0.1l-1.1-0.3c-0.4-0.1-0.9-0.2-1.5-0.3C486.5,41.5,485.7,41.4,485.2,41.4z
		 M557.9,47.7l-4.7,1.3v0.7l2.1,0.7v10l-2.1,1v0.8h7.5v-0.8l-2.7-1v-10c0.7-0.3,1.3-0.4,2-0.4c0.1,0,0.3,0,0.7,0l0.8,1.8h1.9v-3.2
		c-0.4-0.3-0.9-0.4-1.4-0.4c-0.8,0-2,0.5-3.7,1.5l-0.2,0.1v-1.9H557.9z M609.9,47.7l-4.8,1.2v0.7l2.1,0.8v17.6l-2.1,0.9v0.8h7.5
		v-0.8l-2.6-0.9v-5.9c0.6,0.2,0.8,0.2,1.5,0.2c4.3,0,7.9-3.3,7.9-7.8c0-3.6-2.6-6.4-5.5-6.4c-0.8,0-2.4,0.6-3.9,1.5L609.9,47.7
		L609.9,47.7z M597.9,48c-3.9,0-6.9,3-6.9,7.5c0,4.2,3,7.1,6.6,7.1c3.8,0,6.9-3.3,6.9-7.7C604.5,50.8,601.6,48,597.9,48z
		 M500.2,48.1c-4.4,0-7.2,3-7.2,7.5c0,4,2.3,6.8,5.7,6.8c1,0,2.1-0.2,3.4-0.6l1.4-0.4l0.2-0.1l-0.1-0.9l-0.3,0.1
		c-1.4,0.3-1.8,0.3-2.6,0.3c-1.8,0-2.8-0.4-3.6-1.5c-0.8-1-1.3-2.5-1.3-4.2c0-3.4,1.9-5.8,4.5-5.8c0.2,0,0.3-0.1,0.6,0l1.2,2.6h1.6
		v-3C502.3,48.2,501.2,48.1,500.2,48.1z M546.1,48.1c-1.2,0-2.6,0.3-4.7,1v2.6h1.6l1.1-2.4c0.3-0.1,0.4-0.1,0.8-0.1
		c2,0,2.6,0.6,2.6,2.4v3.2c-1.9,0.2-3.4,0.4-4.5,0.7c-1.9,0.4-2.8,1.6-2.8,3.4c0,2.1,1.5,3.5,3.7,3.5c0.5,0,0.9-0.1,1.3-0.2
		c0.2-0.1,0.6-0.3,1.2-0.6l0.9-0.4l0.3-0.2c0.2,0.9,0.6,1.4,1.4,1.4h0.1c0.4-0.1,0.9-0.2,1.2-0.2l1.9-0.7v-0.7l-1.5-0.4
		c-0.7-0.2-0.8-0.3-0.8-1v-7.8C550,49.2,548.7,48.1,546.1,48.1z M518.9,48.2v0.7l1.6,0.8l4.4,12.7h1.3l3.4-9.8l3.1,9.8h1.2l4.6-12.5
		l1.6-1v-0.7h-5.4v0.7l2,1l-2.8,8.6c-0.2-0.8-0.3-0.9-0.4-1.5l-2.7-8.8h-1l-3.6,10.5l-0.1-0.4l-0.5-1.6l-2.4-7.1l2-0.7v-0.7
		L518.9,48.2L518.9,48.2z M564.8,48.2v3.9h0.9l1.3-2.6h4.6l-7.5,11.6v1h10.7v-4.4H574l-1.4,3h-5.2l7.5-11.6v-0.9
		C574.9,48.2,564.8,48.2,564.8,48.2z M584.2,48.2v0.7l1.8,0.8l-4.7,4.9l5.6,7.5h4.1v-0.8l-2-0.8l-4.8-6.8l3.7-3.9l2.6-0.9v-0.7
		L584.2,48.2L584.2,48.2z M597.6,49.2c2.4,0,3.7,2.4,3.7,6.4c0,3.6-1.3,5.6-3.5,5.6c-2.4,0-3.7-2.3-3.7-6.2
		C594.2,51.4,595.4,49.2,597.6,49.2z M612.6,49.8c2.6,0,4.3,2.2,4.3,5.5c0,3.6-1.9,5.7-5.1,5.7c-0.5,0-1.2-0.1-1.8-0.1V50.3
		C610.6,49.9,611.7,49.8,612.6,49.8z M547.6,55.6v4.7c-0.1,0.1-0.1,0.1-0.2,0.1c-0.5,0.2-0.8,0.2-0.9,0.2c-0.3,0.1-0.7,0.1-1,0.1
		c-1.6,0-2.6-0.9-2.6-2.3c0-1.2,0.6-1.9,1.9-2.3C545.7,55.8,546.6,55.7,547.6,55.6z"/>
</g>
</svg>
