<?xml version="1.0" encoding="utf-8"?>
<!-- Generator: Adobe Illustrator 25.0.0, SVG Export Plug-In . SVG Version: 6.00 Build 0)  -->
<svg version="1.1" id="Ebene_1" xmlns="http://www.w3.org/2000/svg" xmlns:xlink="http://www.w3.org/1999/xlink" x="0px" y="0px"
	 viewBox="0 0 200 65" style="enable-background:new 0 0 200 65;" xml:space="preserve">
<g>
	<g>
		<path d="M66.9,10.6c0.5,0.3,1.2,0.6,2,0.6c1.1,0,1.8-0.6,1.8-1.4C70.6,9,70.2,8.5,69,8c-1.4-0.5-2.3-1.2-2.3-2.4
			c0-1.3,1.1-2.3,2.8-2.3c0.9,0,1.5,0.2,1.9,0.4l-0.3,0.9c-0.3-0.2-0.8-0.4-1.6-0.4c-1.2,0-1.6,0.7-1.6,1.3c0,0.8,0.5,1.2,1.7,1.7
			c1.4,0.6,2.2,1.3,2.2,2.5c0,1.3-1,2.5-3,2.5c-0.8,0-1.7-0.2-2.2-0.6L66.9,10.6z"/>
		<path d="M77.7,11.7c-0.3,0.2-0.9,0.3-1.8,0.3c-1.9,0-3-1.3-3-3.1s1.3-3.2,3.3-3.2c0.7,0,1.3,0.2,1.5,0.3l-0.3,0.9
			c-0.3-0.2-0.7-0.3-1.3-0.3c-1.4,0-2.1,1-2.1,2.3c0,1.4,0.9,2.3,2.1,2.3c0.6,0,1-0.2,1.4-0.3L77.7,11.7z"/>
		<path d="M79,3h1.1v3.8l0,0c0.2-0.3,0.4-0.6,0.8-0.8c0.3-0.2,0.7-0.3,1.2-0.3c0.8,0,2.1,0.5,2.1,2.6V12h-1.1V8.4
			c0-1-0.4-1.8-1.4-1.8c-0.7,0-1.3,0.5-1.5,1.1c-0.1,0.2-0.1,0.3-0.1,0.6V12H79L79,3L79,3z"/>
		<path d="M91.2,10.3c0,0.6,0,1.2,0.1,1.7h-1l-0.1-1l0,0c-0.3,0.5-0.9,1.2-2,1.2c-0.9,0-2.1-0.6-2.1-2.7V5.8h1.1v3.4
			c0,1.2,0.3,1.9,1.4,1.9c0.8,0,1.3-0.5,1.5-1c0.1-0.2,0.1-0.4,0.1-0.6V5.9h1.1L91.2,10.3L91.2,10.3z"/>
		<path d="M93,3h1.1v9H93V3z"/>
		<path d="M99.4,12l-0.1-0.8h-0.1c-0.3,0.5-1,0.9-1.9,0.9c-1.3,0-1.9-0.9-1.9-1.8c0-1.5,1.3-2.3,3.7-2.3V8c0-0.5-0.2-1.4-1.4-1.4
			c-0.6,0-1.2,0.2-1.6,0.4l-0.3-0.7c0.5-0.3,1.3-0.6,2-0.6c1.9,0,2.3,1.3,2.3,2.5v2.2c0,0.6,0,1,0.1,1.5H99.4z M99.2,8.8
			c-1.2,0-2.6,0.2-2.6,1.4c0,0.7,0.5,1,1,1c0.8,0,1.3-0.5,1.5-1c0.1-0.1,0.1-0.2,0.1-0.3V8.8z"/>
		<path d="M102.1,7.5c0-0.6,0-1.2-0.1-1.7h1l0.1,1h0.1c0.3-0.6,0.9-1.1,1.9-1.1c0.8,0,1.5,0.5,1.8,1.2l0,0c0.2-0.3,0.4-0.6,0.7-0.8
			c0.4-0.3,0.8-0.4,1.4-0.4c0.8,0,2,0.6,2,2.6V12h-1.1V8.5c0-1.2-0.4-1.9-1.3-1.9c-0.6,0-1.1,0.5-1.3,1C107.1,7.8,107,8,107,8.2V12
			h-1.1V8.3c0-1-0.4-1.7-1.3-1.7c-0.7,0-1.2,0.6-1.4,1.1c-0.1,0.2-0.1,0.3-0.1,0.6v3.7h-1.1L102.1,7.5L102.1,7.5z"/>
		<path d="M114,4.1v1.8h1.6v0.8H114V10c0,0.8,0.2,1.2,0.8,1.2c0.3,0,0.5-0.1,0.7-0.1l0.1,0.8c-0.2,0.1-0.6,0.2-1,0.2
			c-0.5,0-0.9-0.2-1.2-0.5c-0.3-0.3-0.4-0.9-0.4-1.6V6.7h-0.9V5.8h0.9V4.4L114,4.1z"/>
		<path d="M67.1,29v-5.3h-0.9v-0.8h0.9v-0.3c0-0.9,0.2-1.7,0.7-2.1c0.4-0.4,1-0.6,1.5-0.6c0.4,0,0.7,0.1,0.9,0.2L70.1,21
			c-0.2-0.1-0.4-0.2-0.7-0.2c-0.9,0-1.2,0.8-1.2,1.8v0.3h1.5v0.8h-1.5V29C68.1,29,67.1,29,67.1,29z"/>
		<path d="M75.8,27.4c0,0.6,0,1.2,0.1,1.7h-1l-0.1-1l0,0c-0.3,0.5-0.9,1.2-2,1.2c-0.9,0-2.1-0.6-2.1-2.7v-3.6h1.1v3.4
			c0,1.2,0.3,1.9,1.4,1.9c0.8,0,1.3-0.5,1.5-1c0.1-0.2,0.1-0.4,0.1-0.6V23h1.1L75.8,27.4L75.8,27.4z M71.5,21.1
			c0-0.3,0.3-0.7,0.7-0.7c0.3,0,0.6,0.3,0.6,0.7c0,0.3-0.3,0.7-0.6,0.7C71.7,21.8,71.5,21.5,71.5,21.1z M73.8,21.1
			c0-0.3,0.3-0.7,0.6-0.7s0.6,0.3,0.6,0.7c0,0.3-0.3,0.7-0.6,0.7C74.1,21.8,73.8,21.5,73.8,21.1z"/>
		<path d="M77.7,24.8c0-0.7,0-1.3-0.1-1.9h1l0.1,1.2h0.1c0.3-0.8,0.9-1.3,1.7-1.3c0.1,0,0.2,0,0.3,0.1v1c-0.1,0-0.2-0.1-0.4-0.1
			c-0.8,0-1.3,0.6-1.5,1.4c0,0.2-0.1,0.3-0.1,0.5V29h-1.1L77.7,24.8L77.7,24.8z"/>
		<path d="M89.8,20v7.4c0,0.6,0,1.2,0.1,1.6h-1l-0.1-1l0,0c-0.3,0.7-1.1,1.2-2.1,1.2c-1.5,0-2.6-1.3-2.6-3.1c0-2,1.3-3.3,2.8-3.3
			c0.9,0,1.6,0.4,1.9,0.9l0,0v-3.6L89.8,20L89.8,20z M88.7,25.4c0-0.2,0-0.3-0.1-0.5c-0.2-0.7-0.8-1.3-1.6-1.3c-1.2,0-1.8,1-1.8,2.4
			c0,1.3,0.6,2.3,1.8,2.3c0.8,0,1.4-0.5,1.7-1.3c0.1-0.2,0.1-0.3,0.1-0.5L88.7,25.4L88.7,25.4z"/>
		<path d="M92.3,26.2c0,1.5,1,2.1,2.1,2.1c0.8,0,1.3-0.2,1.7-0.3l0.2,0.8c-0.4,0.2-1,0.4-2,0.4c-1.9,0-3-1.3-3-3.1s1.1-3.3,2.9-3.3
			c2,0,2.5,1.8,2.5,2.9c0,0.2,0,0.4-0.1,0.5L92.3,26.2L92.3,26.2z M95.5,25.4c0-0.7-0.3-1.8-1.5-1.8c-1.1,0-1.6,1-1.7,1.8H95.5z"/>
		<path d="M98,24.6c0-0.6,0-1.2-0.1-1.7h1l0.1,1l0,0c0.3-0.6,1-1.2,2-1.2c0.8,0,2.1,0.5,2.1,2.6V29h-1.1v-3.5c0-1-0.4-1.8-1.4-1.8
			c-0.7,0-1.3,0.5-1.5,1.2c-0.1,0.2-0.1,0.3-0.1,0.5V29H98L98,24.6L98,24.6z"/>
		<path d="M115,25.3c-0.1-1.2-0.2-2.6-0.1-3.7h-0.1c-0.3,1-0.7,2-1.1,3.2l-1.5,4.1h-0.8l-1.4-4.1c-0.4-1.2-0.8-2.3-1-3.3l0,0
			c0,1-0.1,2.5-0.2,3.8l-0.2,3.6h-1l0.6-8.5h1.4l1.4,4.1c0.3,1,0.7,2,0.9,2.9h0.1c0.2-0.9,0.5-1.8,0.9-2.9l1.5-4.1h1.4l0.6,8.5h-1.1
			L115,25.3z"/>
		<path d="M121.3,29l-0.1-0.8h-0.1c-0.3,0.5-1,0.9-1.9,0.9c-1.3,0-1.9-0.9-1.9-1.8c0-1.5,1.3-2.3,3.7-2.3v-0.1
			c0-0.5-0.2-1.4-1.4-1.4c-0.6,0-1.2,0.2-1.6,0.4l-0.3-0.7c0.5-0.3,1.3-0.6,2-0.6c1.9,0,2.3,1.3,2.3,2.5v2.2c0,0.6,0,1,0.1,1.5
			H121.3z M118.3,21.1c0-0.3,0.3-0.7,0.7-0.7c0.3,0,0.6,0.3,0.6,0.7c0,0.3-0.3,0.7-0.6,0.7C118.5,21.8,118.3,21.5,118.3,21.1z
			 M121.2,25.9c-1.2,0-2.6,0.2-2.6,1.4c0,0.7,0.5,1,1,1c0.8,0,1.3-0.5,1.5-1c0.1-0.1,0.1-0.2,0.1-0.3V25.9z M120.6,21.1
			c0-0.3,0.3-0.7,0.7-0.7c0.3,0,0.6,0.3,0.6,0.7c0,0.3-0.3,0.7-0.6,0.7C120.9,21.8,120.6,21.5,120.6,21.1z"/>
		<path d="M124.1,24.8c0-0.7,0-1.3-0.1-1.9h1l0.1,1.2h0.1c0.3-0.8,0.9-1.3,1.7-1.3c0.1,0,0.2,0,0.3,0.1v1c-0.1,0-0.2-0.1-0.4-0.1
			c-0.8,0-1.3,0.6-1.5,1.4c0,0.2-0.1,0.3-0.1,0.5V29h-1.1L124.1,24.8L124.1,24.8z"/>
		<path d="M129.4,25.7L129.4,25.7c0.2-0.2,0.4-0.5,0.6-0.7l1.8-2.1h1.3l-2.4,2.5l2.7,3.6H132l-2.1-2.9l-0.6,0.6v2.3h-1.1v-9h1.1
			L129.4,25.7L129.4,25.7z"/>
		<path d="M135.7,21.2c0,0.4-0.3,0.7-0.7,0.7c-0.4,0-0.7-0.3-0.7-0.7c0-0.4,0.3-0.7,0.7-0.7C135.4,20.5,135.7,20.8,135.7,21.2z
			 M134.4,29v-6.1h1.1V29C135.5,29,134.4,29,134.4,29z"/>
		<path d="M137.2,27.9c0.3,0.2,0.9,0.4,1.5,0.4c0.8,0,1.2-0.4,1.2-0.9c0-0.6-0.3-0.8-1.2-1.1c-1.1-0.4-1.6-1-1.6-1.8
			c0-1,0.8-1.8,2.1-1.8c0.6,0,1.2,0.2,1.5,0.4l-0.3,0.8c-0.2-0.2-0.7-0.3-1.3-0.3c-0.7,0-1,0.4-1,0.8c0,0.5,0.4,0.7,1.2,1
			c1,0.4,1.6,0.9,1.6,1.9c0,1.1-0.8,1.8-2.3,1.8c-0.7,0-1.3-0.2-1.7-0.4L137.2,27.9z"/>
		<path d="M146.8,28.8c-0.3,0.2-0.9,0.3-1.8,0.3c-1.9,0-3-1.3-3-3.1c0-1.9,1.3-3.2,3.3-3.2c0.7,0,1.3,0.2,1.5,0.3l-0.3,0.9
			c-0.3-0.2-0.7-0.3-1.3-0.3c-1.4,0-2.1,1-2.1,2.3c0,1.4,0.9,2.3,2.1,2.3c0.7,0,1-0.2,1.4-0.3L146.8,28.8z"/>
		<path d="M148.1,20h1.1v3.8l0,0c0.2-0.3,0.4-0.6,0.8-0.8s0.7-0.3,1.2-0.3c0.8,0,2.1,0.5,2.1,2.6V29h-1.1v-3.5c0-1-0.4-1.8-1.4-1.8
			c-0.7,0-1.3,0.5-1.5,1.1c-0.1,0.2-0.1,0.3-0.1,0.6V29h-1.1L148.1,20L148.1,20z"/>
		<path d="M155.7,26.2c0,1.5,1,2.1,2.1,2.1c0.8,0,1.3-0.2,1.7-0.3l0.2,0.8c-0.4,0.2-1,0.4-2,0.4c-1.9,0-3-1.3-3-3.1s1.1-3.3,2.9-3.3
			c2,0,2.5,1.8,2.5,2.9c0,0.2,0,0.4-0.1,0.5L155.7,26.2L155.7,26.2z M159,25.4c0-0.7-0.3-1.8-1.5-1.8c-1.1,0-1.6,1-1.7,1.8H159z"/>
		<path d="M161.4,24.6c0-0.6,0-1.2-0.1-1.7h1l0.1,1l0,0c0.3-0.6,1-1.2,2-1.2c0.8,0,2.1,0.5,2.1,2.6V29h-1.1v-3.5
			c0-1-0.4-1.8-1.4-1.8c-0.7,0-1.3,0.5-1.5,1.2c-0.1,0.2-0.1,0.3-0.1,0.5V29h-1.1L161.4,24.6L161.4,24.6z"/>
		<path d="M171.2,20.5h1.1v4.1h0.1c0.2-0.3,0.4-0.6,0.7-0.9l2.6-3.2h1.4l-3.1,3.6l3.3,4.9h-1.3l-2.8-4.2l-0.8,0.9V29h-1.1
			L171.2,20.5L171.2,20.5z"/>
		<path d="M178.2,24.8c0-0.7,0-1.3-0.1-1.9h1l0.1,1.2h0.1c0.3-0.8,0.9-1.3,1.7-1.3c0.1,0,0.2,0,0.3,0.1v1c-0.1,0-0.2-0.1-0.4-0.1
			c-0.8,0-1.3,0.6-1.5,1.4c0,0.2-0.1,0.3-0.1,0.5V29h-1.1L178.2,24.8L178.2,24.8z"/>
		<path d="M182.8,26.2c0,1.5,1,2.1,2.1,2.1c0.8,0,1.3-0.2,1.7-0.3l0.2,0.8c-0.4,0.2-1,0.4-2,0.4c-1.9,0-3-1.3-3-3.1s1.1-3.3,2.9-3.3
			c2,0,2.5,1.8,2.5,2.9c0,0.2,0,0.4-0.1,0.5L182.8,26.2L182.8,26.2z M186.1,25.4c0-0.7-0.3-1.8-1.5-1.8c-1.1,0-1.6,1-1.7,1.8H186.1z
			"/>
		<path d="M189.7,21.2c0,0.4-0.3,0.7-0.7,0.7c-0.4,0-0.7-0.3-0.7-0.7c0-0.4,0.3-0.7,0.7-0.7C189.5,20.5,189.7,20.8,189.7,21.2z
			 M188.5,29v-6.1h1.1V29C189.6,29,188.5,29,188.5,29z"/>
		<path d="M191.3,27.9c0.3,0.2,0.9,0.4,1.5,0.4c0.8,0,1.2-0.4,1.2-0.9c0-0.6-0.3-0.8-1.2-1.1c-1.1-0.4-1.6-1-1.6-1.8
			c0-1,0.8-1.8,2.1-1.8c0.6,0,1.2,0.2,1.5,0.4l-0.3,0.8c-0.2-0.2-0.7-0.3-1.3-0.3c-0.7,0-1,0.4-1,0.8c0,0.5,0.4,0.7,1.2,1
			c1,0.4,1.6,0.9,1.6,1.9c0,1.1-0.8,1.8-2.3,1.8c-0.7,0-1.3-0.2-1.7-0.4L191.3,27.9z"/>
		<path d="M66.8,36.3h0.8v5.3h2.5v0.7h-3.3V36.3z"/>
		<path d="M74.3,41.1c0,0.4,0,0.8,0.1,1.2h-0.7l-0.1-0.7l0,0c-0.2,0.3-0.7,0.8-1.4,0.8c-0.7,0-1.5-0.4-1.5-1.9V38h0.8v2.4
			c0,0.8,0.2,1.4,0.9,1.4c0.5,0,0.9-0.4,1-0.7c0.1-0.1,0.1-0.3,0.1-0.4V38h0.8L74.3,41.1L74.3,41.1z M71.3,36.8
			c0-0.2,0.2-0.4,0.4-0.4c0.2,0,0.4,0.2,0.4,0.4s-0.2,0.4-0.4,0.4C71.4,37.2,71.3,37,71.3,36.8z M72.9,36.8c0-0.2,0.2-0.4,0.4-0.4
			c0.2,0,0.4,0.2,0.4,0.4s-0.2,0.4-0.4,0.4C73.1,37.2,72.9,37,72.9,36.8z"/>
		<path d="M79.3,36v5.2c0,0.4,0,0.8,0.1,1.1h-0.7l-0.1-0.7l0,0c-0.2,0.5-0.8,0.8-1.4,0.8c-1,0-1.8-0.9-1.8-2.1
			c0-1.4,0.9-2.3,1.9-2.3c0.7,0,1.1,0.3,1.3,0.7l0,0V36L79.3,36L79.3,36z M78.5,39.7c0-0.1,0-0.2-0.1-0.3c-0.1-0.5-0.6-0.9-1.1-0.9
			c-0.8,0-1.3,0.7-1.3,1.7c0,0.9,0.4,1.6,1.3,1.6c0.5,0,1-0.3,1.2-0.9c0-0.1,0.1-0.2,0.1-0.3L78.5,39.7L78.5,39.7z"/>
		<path d="M81,40.3c0,1,0.7,1.5,1.5,1.5c0.6,0,0.9-0.1,1.2-0.2l0.1,0.6c-0.3,0.1-0.7,0.3-1.4,0.3c-1.3,0-2.1-0.9-2.1-2.1
			c0-1.3,0.8-2.3,2-2.3c1.4,0,1.8,1.2,1.8,2c0,0.2,0,0.3,0,0.4C83.9,40.3,81,40.3,81,40.3z M83.3,39.7c0-0.5-0.2-1.3-1.1-1.3
			c-0.8,0-1.1,0.7-1.2,1.3H83.3z"/>
		<path d="M85,39.2c0-0.4,0-0.8-0.1-1.2h0.7l0.1,0.7l0,0c0.2-0.4,0.7-0.8,1.4-0.8c0.6,0,1.5,0.3,1.5,1.8v2.5h-0.8v-2.5
			c0-0.7-0.3-1.3-1-1.3c-0.5,0-0.9,0.4-1,0.8c-0.1,0.1-0.1,0.2-0.1,0.4v2.6h-0.8L85,39.2L85,39.2z"/>
		<path d="M89.8,41.5c0.2,0.2,0.7,0.3,1,0.3c0.6,0,0.8-0.3,0.8-0.7c0-0.4-0.2-0.6-0.8-0.8c-0.8-0.3-1.1-0.7-1.1-1.2
			c0-0.7,0.6-1.3,1.5-1.3c0.4,0,0.8,0.1,1,0.3l-0.2,0.6c-0.2-0.1-0.5-0.2-0.9-0.2c-0.4,0-0.7,0.3-0.7,0.6c0,0.3,0.3,0.5,0.8,0.7
			c0.7,0.3,1.1,0.7,1.1,1.3c0,0.8-0.6,1.3-1.6,1.3c-0.4,0-0.9-0.1-1.2-0.3L89.8,41.5z"/>
		<path d="M96.4,42.1c-0.2,0.1-0.7,0.2-1.2,0.2c-1.3,0-2.1-0.9-2.1-2.2c0-1.3,0.9-2.3,2.3-2.3c0.4,0,0.9,0.1,1.1,0.2l-0.2,0.6
			c-0.2-0.1-0.5-0.2-0.9-0.2c-1,0-1.5,0.7-1.5,1.6c0,1,0.7,1.6,1.5,1.6c0.4,0,0.7-0.1,0.9-0.2L96.4,42.1z"/>
		<path d="M97.3,36h0.8v2.6l0,0c0.1-0.2,0.3-0.4,0.6-0.6s0.5-0.2,0.8-0.2c0.6,0,1.5,0.3,1.5,1.8v2.5h-0.8v-2.5c0-0.7-0.3-1.3-1-1.3
			c-0.5,0-0.9,0.3-1,0.8C98,39.3,98,39.4,98,39.6v2.6h-0.8L97.3,36L97.3,36z"/>
		<path d="M102.6,40.3c0,1,0.7,1.5,1.5,1.5c0.6,0,0.9-0.1,1.2-0.2l0.1,0.6c-0.3,0.1-0.7,0.3-1.4,0.3c-1.3,0-2.1-0.9-2.1-2.1
			c0-1.3,0.8-2.3,2-2.3c1.4,0,1.8,1.2,1.8,2c0,0.2,0,0.3,0,0.4C105.6,40.3,102.6,40.3,102.6,40.3z M104.9,39.7
			c0-0.5-0.2-1.3-1.1-1.3c-0.8,0-1.1,0.7-1.2,1.3H104.9z"/>
		<path d="M107.5,36.8c0,0.3-0.2,0.5-0.5,0.5c-0.3,0-0.4-0.2-0.4-0.5s0.2-0.5,0.5-0.5S107.5,36.5,107.5,36.8z M106.6,42.2V38h0.8
			v4.2H106.6z"/>
		<path d="M112.4,36v5.2c0,0.4,0,0.8,0.1,1.1h-0.7l-0.1-0.7l0,0c-0.2,0.5-0.8,0.8-1.4,0.8c-1,0-1.8-0.9-1.8-2.1
			c0-1.4,0.9-2.3,1.9-2.3c0.7,0,1.1,0.3,1.3,0.7l0,0V36L112.4,36L112.4,36z M111.6,39.7c0-0.1,0-0.2-0.1-0.3
			c-0.1-0.5-0.6-0.9-1.1-0.9c-0.8,0-1.3,0.7-1.3,1.7c0,0.9,0.4,1.6,1.3,1.6c0.5,0,1-0.3,1.2-0.9c0-0.1,0.1-0.2,0.1-0.3L111.6,39.7
			L111.6,39.7z"/>
	</g>
	<path d="M61.8,0c0,0.4,0,0.8,0,1.2c0,10.9,0.1,21.8,0,32.7c-0.1,15.9-11.3,28.4-26,30.8C19.8,67.2,4,56.5,0.8,40.6
		c-0.5-2.5-0.8-5.1-0.8-7.7C0,22.4,0,11.8,0,1.3C0,0.9,0,0.5,0,0C20.6,0,41.1,0,61.8,0z M1.3,1.2c0,0.4-0.1,0.7-0.1,0.9
		c0,10.8,0,21.6,0,32.4c0,1.5,0.2,3.1,0.4,4.7c2.9,16.2,18,26.9,34.2,24.3c13.9-2.3,24.6-14.8,24.7-29c0.1-10.7,0-21.5,0-32.3
		c0-0.3-0.1-0.7-0.1-1C40.7,1.2,21.1,1.2,1.3,1.2z"/>
	<path style="fill:#E30C1E;" d="M31.7,2.8c9.1,0,18.1,0,27.2,0c0,0.3,0.1,0.6,0.1,0.9c0,10.4,0.1,20.7,0,31.1
		c-0.1,7.8-3.1,14.4-8.6,19.7c-1.3,1.3-2.9,2.4-4.4,3.5c-0.3,0.2-0.8,0.2-1.1,0c-6.7-4.4-11-10.5-12.6-18.4
		c-0.4-2.1-0.6-4.4-0.6-6.6c-0.1-9.7,0-19.4,0-29.1C31.6,3.5,31.7,3.2,31.7,2.8z M52.1,6.5c-2-0.1-3.7-0.2-5.6-0.3
		c-0.1,1.3-0.1,1.3-0.8,1.3c0-1.6-0.3-2.3-1.5-2.6c-0.1,0.6-0.1,1-0.2,1.5c-0.1,0.3-0.3,0.6-0.5,0.8c-1,0.8-2.1,1.5-3.1,2.3
		c-0.7,0.7-2.2,0.9-1.6,2.5c0.1,0.2,0,0.6,0,0.8c0.3-0.1,0.7-0.2,0.9-0.4c0.4-0.4,0.8-0.4,1.1,0.2c-0.4,0.2-0.7,0.4-1.2,0.6
		c0.9,0.3,1.7,0.6,2.1-0.2c0.4-0.8,1.1-0.8,1.8-0.8c1.4,0,2.9,0.6,3.7-1.3c0.1,0.4,0.2,0.8,0.1,1c-0.4,0.4-0.9,0.7-1.4,1
		c-0.2,0.1-0.6,0.1-0.7,0.3c-0.8,1.9-2.5,2.9-3.8,4.1c-1,0.9-1.8,2-1.9,3.4c-0.1,0.6-0.4,0.9-0.9,1c-0.8,0.2-1.6,0.5-2.4,0.8
		c-1.3,0.4-1.5,1.3-1,2.5c0.3,0.7,0.5,1.4,0.7,2.1c0.2,0.7,0.2,1.5,1.2,1.7c0.2,0,0.3,0.3,0.4,0.6c0.2,1,1,1.2,1.9,1.5
		c0.6-1,0.4-1.9,0.2-2.8c-0.1-0.2-0.2-0.3-0.3-0.3c-1,0-1.3-1-1.9-1.5c-0.3-0.2-0.3-1-0.2-1.4c0.1-0.3,0.7-0.4,1.1-0.5
		c0.7-0.1,1.5,0,2.2,0.1c1.2,0.1,2.4,0.4,3.2-1c0.2,0.4,0.3,0.7,0.2,0.9c-0.8,1.4-2.3,0.9-3.6,1c0.6,1.4,1.7,2.1,2.8,2.9
		c0.9,0.6,1.9,1,2.7,1.7c1.1,0.8,1.8,1.8,1.8,3.4c0,2.3,0.5,4.4,2.7,5.7c0.3,0.2,0.6,0.5,0.9,0.8c1.2,1.2,1.7,2.5,0.9,4.1
		c-0.4,0.9-0.7,2-1.1,2.9c-0.1,0.2-0.4,0.5-0.6,0.6c-0.9,0.3-1.3,1-1.4,2.1c1-0.1,2-0.1,2.9-0.2c0.1,0,0.3-0.1,0.3-0.2
		c0.3-0.7,0.6-1.5,0.8-2.2c0.5-1.7,0.8-3.4,1.4-5c0.2-0.7,0.3-1.3-0.1-2c-1-1.9-1.3-3.7,0.1-5.7c1.4-2,1-3.8-0.6-5.6
		c-0.6-0.7-1.3-1.2-2-1.8c-1.5-1.4-2.6-3-2.9-5.1c-0.2-1.9-0.1-2,1.8-2.4c0.1,0,0.1-0.1,0.2-0.2c-0.3-0.4-0.6-0.9-1-1.3
		c1.2-0.4,2.3-0.7,3.3-1.1c-0.7-0.8-1.3-1.6-2-2.4c1.3,0,2.3,0,3.5,0c-0.9-1.3-1.8-2.4-2.6-3.5c0.7-0.2,1.2-0.4,1.8-0.7
		c-0.8-1.4-2.2-1.9-3.6-2.4C51.1,7.3,51.6,6.9,52.1,6.5z M56,30.4c1.1,0.1,1.9-0.4,1.8-1.4c-0.1-0.8-0.4-1.6-0.8-2.3
		c-0.8-1.3-1-2.4,0.1-3.6c0.3-0.3,0.5-0.7,0.7-1.1c0.8-1.9-0.4-4.1-2.4-4.4c-0.1,0.8-0.2,1.7-0.2,2.6c-0.9-0.8-1.7-1.1-2.6-0.7
		c0.9,1.2,0.9,1.4,0.4,2.8c-0.2,0.4-0.3,0.8-0.5,1.2c-0.5,1.5-0.2,2.7,1.2,3.6c0.5,0.3,1,0.6,1.5,0.9C56.1,28.8,56.3,29.2,56,30.4z
		 M46.2,41.3c0.4-1.4,0.9-2.7,1.3-4c0.1-0.2,0.1-0.4,0-0.6c-0.2-1.4-0.4-2.8-0.8-4.2c-0.2-0.7-0.7-1.5-1.2-1.8
		c-0.4-0.2-1.3,0.4-1.8,0.9c-0.4,0.4-0.7,1.2-0.6,1.7c0.2,1.4,0.6,2.8,1,4.2c0.2,0.8,0.4,1.5,0.7,2.4c-1.4,0-2.6,0-3.8,0
		c-0.8,0-1.6-0.3-2,0.8c-0.1,0.1-0.3,0.2-0.4,0.2c-1,0.2-1.3,1-1.5,1.8c1.8,0.7,2.9,0.4,3.4-1.2C42.4,41.5,44.3,41.4,46.2,41.3z
		 M40.2,17.5c-1.2-0.9-2.3-1.9-3.6-2.8c-0.7-0.4-1.7-0.1-1.9,0.4c-0.4,0.9-0.8,1.9-1.3,2.8c-0.3,0.6-0.7,1-0.2,1.7
		c0.1,0.2,0,0.6-0.1,0.8c-0.5,0.9-0.2,1.5,0.4,2.4c0.6-0.5,1-0.9,1.5-1.4c0.2-0.3,0.5-0.9,0.4-1c-0.6-0.8-0.2-1.7-0.2-2.5
		c0-0.4,0.6-0.8,1-1.1c0.1-0.1,0.7,0.4,0.9,0.8c0.6,0.8,1,1.8,1.5,2.7C39.2,19.3,39.7,18.4,40.2,17.5z"/>
	<path style="fill:#1F9034;" d="M6.5,48c0.8-0.9,1.5-1.7,2.3-2.5c2-2.3,3.1-5,4.1-7.8c0.2-0.6,0.4-1.1,0.6-1.7
		c1.2-3.7,3.4-6.6,6.9-8.3c3.9-1.9,6.3-4.9,7.7-8.9c0.6-1.6,1.3-3.1,2.1-4.6c0,0.8,0,1.6,0,2.4C30.1,23,30.1,29.5,30,36
		c-0.2,5.6-2.2,10.5-5.5,14.9c-2,2.8-4.5,5.1-7.4,6.9c-0.3,0.2-0.8,0.3-1,0.2C12.1,55.5,8.9,52.1,6.5,48z"/>
	<path style="fill:#1F9034;" d="M25.8,2.8c-0.4,0.5-0.7,0.9-1,1.2c-2.1,2.3-3.2,5-4,7.9c-0.1,0.2-0.1,0.3-0.1,0.5
		c-1,4.7-3.5,8.3-8,10.4c-4.2,2-6,5.8-7.3,10c-0.6,1.7-1.3,3.3-2,4.9c-0.1-0.1-0.3-0.1-0.4-0.1C3,26,3,14.4,3,2.8
		C10.5,2.8,18,2.8,25.8,2.8z"/>
	<path style="fill:#E30C1E;" d="M34.8,56.8c0.8,1.9,0.7,2.7-0.7,3.6c-1.2,0.8-2,0.6-3.1-0.6c-0.6,0.4-1,0.9-1.7,1
		c-0.5,0.1-1.2-0.2-1.7-0.4c-1.3-0.8-1.4-1.5-0.7-3.5c-1.7-0.8-2-1.4-1.6-2.8c0.5-1.7,1.1-2,3.1-1.8c0.4-1.9,0.9-2.4,2.3-2.4
		c0.7,0.1,1.4,0.2,1.9,0.6c0.4,0.4,0.4,1.2,0.7,1.8c1.8-0.3,2.6,0.2,3.1,1.9C36.8,55.5,36.3,56.3,34.8,56.8z M27.9,55.5
		c0,1.8,1.3,3,3,3c1.7,0,2.9-1.3,2.9-3s-1.3-3-2.9-3C29.2,52.6,27.9,53.9,27.9,55.5z"/>
	<path style="fill:#1F9034;" d="M35.1,51.4c-0.5-0.4-1-0.7-1.7-1.2C35,49.6,35.2,49.8,35.1,51.4z"/>
	<path style="fill:#1F9034;" d="M28,50c-0.2,1-0.6,1.4-1.6,1.2c0.1-0.4,0.2-0.9,0.4-1.2C27.1,49.8,27.6,50,28,50z"/>
	<path style="fill:#1F9034;" d="M25,56.5c0.2,0.6,0.4,1.1,0.7,1.7c-0.1,0.1-0.2,0.2-0.3,0.3c-0.3-0.2-0.9-0.4-1-0.7
		c-0.1-0.3,0.2-0.8,0.3-1.2C24.7,56.6,24.9,56.5,25,56.5z"/>
	<path style="fill:#1F9034;" d="M36.1,58.4c0.2-0.8,0.4-1.3,0.6-2.1C37.9,57.7,37.8,57.9,36.1,58.4z"/>
	<path style="fill:#1F9034;" d="M29.8,61.5c0.8,0,1.4,0,2.2,0C31,62.9,30.8,62.9,29.8,61.5z"/>
	<path style="fill:#1F9034;" d="M30.9,57.4c-1,0-1.9-0.8-1.9-1.8c0-1,0.9-1.9,1.8-1.9s1.9,0.9,1.9,1.8
		C32.7,56.6,31.9,57.4,30.9,57.4z"/>
	<path style="fill:#E30C1E;" d="M42.6,9.6h0.7l0.4-0.2c0,0-0.7-0.7-1-0.6c-0.3,0.1-0.5,0.2-0.7,0.4C41.9,9.5,42.6,9.6,42.6,9.6z"/>
</g>
</svg>
