<?xml version="1.0" encoding="utf-8"?>
<!-- Generator: Adobe Illustrator 25.0.1, SVG Export Plug-In . SVG Version: 6.00 Build 0)  -->
<svg version="1.1" id="Ebene_1" xmlns="http://www.w3.org/2000/svg" xmlns:xlink="http://www.w3.org/1999/xlink" x="0px" y="0px"
	 viewBox="0 0 200 65" style="enable-background:new 0 0 200 65;" xml:space="preserve">
<path id="path4499" style="fill:#0F2741;" d="M79.9,12.9v5.8h6.3v-5.8H79.9z M24.5,13v8.2H21v5.2h3.5v18.9c0,4.7,2.6,6.8,7.4,6.8
	c1.1,0,2.1-0.1,3.2-0.3v-5.4h-2.1c-1.5,0-2.1-0.9-2.1-2.5V26.3H35v-5.2h-4.3V13C30.8,13,24.5,13,24.5,13z M65.2,13v8.2h-3.5v5.2h3.5
	v18.9c0,4.7,2.6,6.8,7.4,6.8c1.1,0,2.1-0.1,3.2-0.3v-5.4h-2.1c-1.5,0-2.1-0.9-2.1-2.5V26.3h4.2v-5.2h-4.2V13
	C71.5,13,65.2,13,65.2,13z M115.3,13v8.2h-3.5v5.2h3.5v18.9c0,4.7,2.6,6.8,7.4,6.8c1.1,0,2.1-0.1,3.2-0.3v-5.4h-2.1
	c-1.5,0-2.1-0.9-2.1-2.5V26.3h4.2v-5.2h-4.2V13C121.6,13,115.3,13,115.3,13z M9.2,20.6c-4.8,0-8.5,3.4-8.5,8.2
	C0.7,37,12.5,39,12.5,44.3c0,0.7-0.3,1.5-0.8,2c-0.5,0.5-1.3,0.8-2,0.7c-2.9,0-3.8-2.3-4.2-4.8L0,43.6c0.9,5.3,4.1,8.5,9.6,8.5
	c5.1,0,8.9-2.8,8.9-8.2c0-9-11.8-10.9-11.8-15.7c0-1.6,1.1-2.4,2.8-2.4c2,0,3.2,1.4,3.6,3.8l5.4-0.9C17.5,23.9,14.1,20.6,9.2,20.6z
	 M100,20.6c-4.7,0-8.5,3.3-8.5,8.1c0,8.3,11.8,10.3,11.8,15.5c0,0.7-0.3,1.5-0.8,2c-0.5,0.5-1.3,0.8-2,0.7c-2.9,0-3.7-2.3-4.2-4.8
	l-5.5,1.5c0.9,5.3,4.1,8.5,9.6,8.5c5.1,0,8.9-2.8,8.9-8.2c-0.1-9-11.9-10.9-11.9-15.7c0-1.6,1.1-2.4,2.8-2.4c2,0,3.2,1.4,3.6,3.8
	l5.4-0.9C108.3,23.9,105,20.6,100,20.6z M48.6,20.6c-5.9,0-9.8,3.3-10.2,9.5h6.3c0.1-2.6,0.7-4.3,3.6-4.3c2.1,0,3.1,1.4,3.1,3.9v1.8
	C42.4,34.9,38,38.6,38,45.2c0,3.9,2.1,6.8,6.4,6.8c3,0,5-1,7.4-2.9c0.1,0.7,0.3,1.5,0.3,2.4h6c-0.2-1-0.3-2.1-0.4-3.2V28.8
	C57.8,23.3,54.5,20.6,48.6,20.6z M139.4,20.6c-5.9,0-9.8,3.3-10.1,9.5h6.3c0.1-2.6,0.7-4.3,3.6-4.3c2.1,0,3.1,1.4,3.1,3.9v1.8
	c-9.1,3.4-13.5,7.1-13.5,13.8c0,3.9,2.1,6.8,6.4,6.8c3,0,5-1,7.4-2.9c0.1,0.7,0.3,1.5,0.3,2.4h6c-0.2-1.1-0.3-2.1-0.4-3.2V28.8
	C148.6,23.3,145.3,20.6,139.4,20.6L139.4,20.6z M79.9,21.2v30.3h6.3V21.2C86.2,21.2,79.9,21.2,79.9,21.2z M51.5,36v8
	c-1.1,1.5-2.5,2.8-4.2,2.8c-1.9,0-2.9-0.8-2.9-2.8C44.3,41.4,45.7,39.3,51.5,36z M142.3,36v8c-1.1,1.5-2.5,2.8-4.2,2.8
	c-1.9,0-2.9-0.8-2.9-2.8C135.2,41.4,136.6,39.3,142.3,36z"/>
<path id="path4517" style="fill:#0F2741;" d="M162.3,12.9c-0.4,0-0.7,0.1-1,0.4c-0.3,0.3-0.4,0.6-0.4,1v24.8h0.2
	c0,0,5.9-0.1,8.4-1.4c2.1-1.3,4-3,5.4-5l1.5-2.1l0.5-0.7c0.1-0.1,0.3-0.4,0.4-0.6c0.1-0.2,0.7-1.1,1.3-1.9c2.3-3.2,5.2-5.8,8.6-7.7
	c5.4-2.8,12.7-2.5,12.7-2.5h0.1v-2.8c0-0.4-0.1-0.7-0.4-1c-0.3-0.3-0.6-0.4-1-0.4H162.3z M200,25.9c-0.1,0-0.2,0-0.4,0
	c0,0-5.9,0.1-8.4,1.4c-2.1,1.3-4,2.9-5.4,5l-1.4,2.1c-0.2,0.3-0.4,0.6-0.5,0.7l-0.4,0.6l-1.3,1.9c0,0-3.6,5.1-8.6,7.7
	c-5.2,2.7-12.1,2.5-12.6,2.5v2.8c0,0.4,0.1,0.7,0.4,1c0.3,0.3,0.6,0.4,1,0.4h36.4c0.4,0,0.7-0.1,1-0.4c0.3-0.3,0.4-0.6,0.4-1V25.9z"
	/>
</svg>
