<?xml version="1.0" encoding="utf-8"?>
<!-- Generator: Adobe Illustrator 25.0.1, SVG Export Plug-In . SVG Version: 6.00 Build 0)  -->
<svg version="1.1" id="Ebene_1" xmlns="http://www.w3.org/2000/svg" xmlns:xlink="http://www.w3.org/1999/xlink" x="0px" y="0px"
	 viewBox="0 0 200 65" style="enable-background:new 0 0 200 65;" xml:space="preserve">
<path style="fill:#343131;" d="M16.6,38h6.2v22.3H19V42.8l-4.4,17.6h-4L6.1,42.8v17.6H2.2V38h6.2l4.1,15.8L16.6,38z"/>
<path style="fill:#343131;" d="M41.4,60.4l-1.6-5.1h-7.3l-1.6,5.1h-4.1l7.4-22.3H38l7.6,22.3H41.4z M35.2,46.5l-1.6,5h4.9l-1.6-5
	c-0.2-0.6-0.4-1.3-0.6-2c-0.2-0.7-0.3-1.2-0.3-1.7h0C35.8,44.1,35.5,45.3,35.2,46.5z"/>
<path style="fill:#343131;" d="M63.2,60.4l-1.6-5.1h-7.3l-1.6,5.1h-4.1L56,38h3.8l7.6,22.3h-4.2V60.4z M57,46.5l-1.6,5h4.9l-1.6-5
	c-0.2-0.6-0.4-1.3-0.5-2c-0.2-0.7-0.3-1.2-0.3-1.7h-0.1C57.6,44.1,57.4,45.3,57,46.5z"/>
<path style="fill:#343131;" d="M76.6,41.4c-0.7,0-1.3,0.2-1.8,0.6c-0.5,0.4-0.7,0.9-0.7,1.6c0,0.5,0.1,0.9,0.3,1.2
	c0.2,0.3,0.6,0.6,1.2,0.9c0.5,0.3,1.3,0.6,2.3,0.9c1.5,0.5,2.7,1,3.5,1.7c0.8,0.6,1.4,1.4,1.8,2.3c0.3,0.9,0.5,2,0.5,3.3
	c0,1.5-0.3,2.8-0.9,3.9c-0.6,1-1.4,1.8-2.4,2.3s-2.1,0.7-3.3,0.7c-1.9,0-3.5-0.6-4.7-1.9c-1.2-1.3-1.9-3.1-2.2-5.6l3.4-0.5
	c0.2,1.5,0.6,2.5,1.1,3.2c0.6,0.7,1.4,1,2.4,1c0.6,0,1.2-0.1,1.6-0.3c0.5-0.2,0.8-0.6,1.1-1c0.3-0.4,0.4-0.9,0.4-1.5
	s-0.1-1.2-0.3-1.5c-0.2-0.4-0.6-0.7-1.1-1c-0.6-0.3-1.4-0.6-2.6-1c-1.4-0.4-2.5-1-3.3-1.6s-1.4-1.4-1.7-2.2
	c-0.3-0.8-0.5-1.8-0.5-2.9c0-1.2,0.2-2.3,0.7-3.2s1.2-1.7,2.1-2.2s2-0.8,3.3-0.8c1.8,0,3.3,0.6,4.4,1.7c1.1,1.1,1.8,2.7,2,4.8
	l-3.4,0.5c-0.1-1.2-0.4-2-0.9-2.5C78.3,41.6,77.6,41.4,76.6,41.4z"/>
<path style="fill:#343131;" d="M97.5,41.8v18.5h-4.4V41.8h-6.4V38h17.1v3.8H97.5z"/>
<path style="fill:#343131;" d="M123.8,44.3c0,1.6-0.4,2.9-1.2,3.9c-0.8,1-2,1.8-3.6,2.2v0.1c0.4,0.1,0.7,0.3,1,0.6s0.6,0.7,1,1.2
	c0.3,0.5,0.7,1.2,1.2,2.1l2.9,6h-4.9l-2.1-4.5c-0.7-1.6-1.4-2.7-1.9-3.3c-0.3-0.4-0.7-0.7-1-1c-0.3-0.2-0.7-0.4-1.2-0.5
	s-1.2-0.1-2-0.1h-0.6v9.3H107V38h9.1c2.5,0,4.4,0.5,5.7,1.6C123.1,40.7,123.8,42.3,123.8,44.3z M119.2,44.6c0-1-0.3-1.7-0.9-2.1
	c-0.6-0.4-1.5-0.7-2.7-0.7h-4.3v5.7h3.8c1.3,0,2.4-0.2,3-0.7C118.9,46.4,119.2,45.6,119.2,44.6z"/>
<path style="fill:#343131;" d="M128.7,60.4V38h4.4v22.3h-4.4V60.4z"/>
<path style="fill:#343131;" d="M147,41.5c-1.2,0-2.2,0.3-3.1,1c-0.8,0.6-1.5,1.5-1.9,2.7c-0.4,1.1-0.6,2.4-0.6,3.9
	c0,1.6,0.2,2.9,0.7,4.1c0.4,1.2,1.1,2.1,1.9,2.7c0.8,0.6,1.8,1,3,1c0.8,0,1.6-0.2,2.3-0.5c0.7-0.4,1.3-0.9,1.8-1.6
	c0.5-0.7,0.9-1.5,1.1-2.4l4.4,1c-0.3,1.5-0.9,2.8-1.8,3.9c-0.8,1.1-1.9,2-3.2,2.6s-2.8,0.9-4.4,0.9c-2.2,0-4-0.5-5.6-1.4
	c-1.5-0.9-2.7-2.3-3.5-4c-0.8-1.8-1.2-3.9-1.2-6.3c0-2.3,0.4-4.3,1.3-6c0.8-1.7,2-3,3.6-3.9s3.4-1.4,5.5-1.4c2.4,0,4.4,0.6,5.9,1.7
	c1.5,1.1,2.6,2.7,3.3,4.9l-4.4,1.1C151.2,42.8,149.5,41.5,147,41.5z"/>
<path style="fill:#343131;" d="M174.3,46.6V38h4.4v22.3h-4.4v-9.9h-8.7v9.9h-4.4V38h4.4v8.6H174.3z"/>
<path style="fill:#343131;" d="M193.6,41.8v18.5h-4.4V41.8h-6.4V38H200v3.8H193.6z"/>
<path style="fill:#343131;" d="M10.7,9v19.1H6.3V9H0V5.1h16.9V9H10.7z"/>
<path style="fill:#343131;" d="M24.3,9v5.3h8.2v3.9h-8.2v6.1h10.4v3.9H20v-23h14.3v3.9h-10V9z"/>
<path style="fill:#343131;" d="M42.9,9v5.7H52v3.9h-9.1v9.5h-4.4v-23h14.6V9C53.1,9,42.9,9,42.9,9z"/>
<path style="fill:#343131;" d="M69.6,28.1l-1.9-5.2h-8.4l-1.8,5.2h-4.7l8.5-23h4.3l8.7,23C74.3,28.1,69.6,28.1,69.6,28.1z
	 M62.4,13.8L60.6,19h5.6l-1.8-5.2c-0.2-0.6-0.4-1.3-0.6-2s-0.3-1.3-0.4-1.7h-0.1C63.2,11.3,62.9,12.6,62.4,13.8z"/>
<path style="fill:#343131;" d="M81,9v5.7h8.1v3.9H81v9.5h-4.4v-23h14.6V9C91.2,9,81,9,81,9z"/>
</svg>
