<?xml version="1.0" encoding="utf-8"?>
<!-- Generator: Adobe Illustrator 25.1.0, SVG Export Plug-In . SVG Version: 6.00 Build 0)  -->
<svg version="1.1" id="Ebene_1" xmlns="http://www.w3.org/2000/svg" xmlns:xlink="http://www.w3.org/1999/xlink" x="0px" y="0px"
	 viewBox="0 0 100 100" style="enable-background:new 0 0 100 100;" xml:space="preserve">
<g>
	<polygon style="fill:#007ACC;" points="0,50 0,100 50,100 100,100 100,50 100,0 50,0 0,0 	"/>
	<path style="fill:#FFFFFF;" d="M22.1,50.3l0,4.1h6.5h6.5v18.5v18.5h4.6h4.6V72.9V54.4h6.5h6.5v-4c0-2.2,0-4.1-0.1-4.1
		c0-0.1-8-0.1-17.6-0.1l-17.5,0L22.1,50.3z"/>
	<path style="fill:#FFFFFF;" d="M80.7,46.1c2.5,0.6,4.5,1.8,6.3,3.6c0.9,1,2.3,2.8,2.4,3.2c0,0.1-4.3,3-7,4.7
		c-0.1,0.1-0.5-0.3-0.9-1c-1.3-1.9-2.6-2.7-4.7-2.8c-3-0.2-5,1.4-5,4c0,0.8,0.1,1.2,0.4,1.9c0.7,1.4,1.9,2.2,5.8,3.9
		c7.2,3.1,10.2,5.1,12.1,8c2.1,3.2,2.6,8.4,1.2,12.2c-1.6,4.2-5.5,7-11.1,7.9c-1.7,0.3-5.8,0.3-7.6-0.1c-4-0.7-7.8-2.7-10.2-5.3
		c-0.9-1-2.7-3.7-2.6-3.9c0-0.1,0.5-0.3,0.9-0.6c0.4-0.3,2.1-1.2,3.7-2.1l2.9-1.7L68,79c0.8,1.3,2.7,3,3.8,3.6
		c3.2,1.7,7.6,1.4,9.7-0.5c0.9-0.8,1.3-1.7,1.3-3c0-1.2-0.1-1.7-0.7-2.5c-0.8-1.1-2.4-2-6.9-4c-5.2-2.2-7.4-3.6-9.4-5.8
		c-1.2-1.3-2.3-3.3-2.7-5c-0.4-1.4-0.5-5-0.2-6.4c1.1-5,4.8-8.5,10.3-9.5C74.9,45.6,79,45.7,80.7,46.1z"/>
</g>
</svg>
