<?xml version="1.0" encoding="utf-8"?>
<!-- Generator: Adobe Illustrator 25.0.0, SVG Export Plug-In . SVG Version: 6.00 Build 0)  -->
<svg version="1.1" id="Ebene_1" xmlns="http://www.w3.org/2000/svg" xmlns:xlink="http://www.w3.org/1999/xlink" x="0px" y="0px"
	 viewBox="0 0 200 65" style="enable-background:new 0 0 200 65;" xml:space="preserve">
<g>
	<rect y="0.1" width="10" height="55"/>
	<rect x="19.9" width="10" height="45"/>
	<rect x="80" y="0.1" width="10" height="55"/>
	<polygon points="50,55 40,65 40,20 50,20 	"/>
	<polygon points="70,30 60,40 60,0.1 70,10.1 	"/>
	<polygon points="60,10.1 50,10.1 50,0.1 60,0.1 	"/>
	<polygon points="19.9,65 9.9,65 9.9,55 29.9,55 	"/>
	<rect x="115" width="10" height="10"/>
	<polygon points="125,55 115,65 115,20 125,20 	"/>
	<polygon points="189.9,55 179.9,65 179.9,20 189.9,20 	"/>
	<rect x="169.9" width="30" height="10"/>
	<g>
		<polygon points="159.9,10 144.9,10 144.9,0 160.1,0.1 		"/>
	</g>
	<polygon points="154.9,40 144.9,40 144.9,55 135,65 135,30 154.9,30 	"/>
	<polygon points="144.9,20 135,20 135,10 144.9,0 	"/>
	<polygon points="115,65 105,65 115,55 115,55.8 	"/>
	<polygon points="95,65 90,65 90,55 105,55 	"/>
</g>
</svg>
