<?xml version="1.0" encoding="utf-8"?>
<!-- Generator: Adobe Illustrator 25.0.1, SVG Export Plug-In . SVG Version: 6.00 Build 0)  -->
<svg version="1.1" id="Ebene_1" xmlns="http://www.w3.org/2000/svg" xmlns:xlink="http://www.w3.org/1999/xlink" x="0px" y="0px"
	 viewBox="0 0 90 100" style="enable-background:new 0 0 90 100;" xml:space="preserve">
<g>
	<polygon style="fill:#FFFFFF;" points="45,0 89.2,25 89.2,75 45,100 0.8,75 0.8,25 	"/>
	<path style="fill:#8ED6FB;" d="M81.3,73.3L46.5,93V77.7l21.7-12L81.3,73.3z M83.7,71.1V29.9l-12.7,7.4v26.5L83.7,71.1z M8.6,73.3
		L43.4,93V77.6L21.7,65.7L8.6,73.3L8.6,73.3z M6.2,71.1V29.9l12.7,7.4v26.5L6.2,71.1L6.2,71.1z M7.7,27.2L43.4,7v14.8L20.5,34.5
		l-0.2,0.1L7.7,27.2L7.7,27.2z M82.2,27.2L46.5,7v14.8l22.9,12.6l0.2,0.1L82.2,27.2L82.2,27.2z"/>
	<path style="fill:#1C78C0;" d="M43.4,74.2L22,62.4V39l21.4,12.4V74.2L43.4,74.2z M46.5,74.2l21.4-11.8V39L46.5,51.4V74.2z
		 M23.4,36.3l21.5-11.8l21.5,11.8L44.9,48.7L23.4,36.3L23.4,36.3z"/>
</g>
</svg>
