<?xml version="1.0" encoding="utf-8"?>
<!-- Generator: Adobe Illustrator 25.0.0, SVG Export Plug-In . SVG Version: 6.00 Build 0)  -->
<svg version="1.1" id="Ebene_1" xmlns:rdf="http://www.w3.org/1999/02/22-rdf-syntax-ns#"
	 xmlns="http://www.w3.org/2000/svg" xmlns:xlink="http://www.w3.org/1999/xlink" x="0px" y="0px" viewBox="0 0 100 100"
	 style="enable-background:new 0 0 100 100;" xml:space="preserve">
<g transform="matrix(1.0755 0 0 1.0755 -3.5103 -1.6684)">
	<path style="fill-rule:evenodd;clip-rule:evenodd;fill:#464342;" d="M49.8,8.1c10.4,0,19.9,4,27,10.5c-3.5-0.1-7,2-7.1,6.7
		c-0.3,9.6,11.5,11.6,5.1,31l-5.2,16L55.3,30.2c-0.2-0.7,0-1,0.8-1h4c0.2,0,0.4-0.2,0.4-0.4v-2.4c0-0.2-0.2-0.4-0.4-0.4
		c-7.7,0.3-15.3,0.3-22.8,0c-0.2,0-0.4,0.2-0.4,0.4v2.4c0,0.2,0.2,0.4,0.4,0.4h4.1c0.9,0,1.2,0.3,1.4,0.9l5.9,16.1l-8.8,26.7
		L25.3,30c-0.2-0.5,0-0.8,0.6-0.8h4.6c0.2,0,0.4-0.2,0.4-0.4v-2.4c0-0.2-0.2-0.4-0.4-0.4c-4.9,0.3-9.7,0.3-14.3,0.4
		C23.3,15.3,35.7,8.1,49.8,8.1L49.8,8.1L49.8,8.1z M84.9,29c3.1,5.7,4.8,12.1,4.8,19c0,15.1-8.4,28.3-20.8,35.1l12.5-35.3
		C83.3,42.3,85.1,35,84.9,29L84.9,29L84.9,29z M63.1,85.7C59,87.2,54.4,88,49.8,88c-4,0-7.9-0.6-11.6-1.7L50.4,51L63.1,85.7
		L63.1,85.7L63.1,85.7z M32.6,84.2C19.1,77.8,9.8,64,9.8,48c0-5.9,1.3-11.5,3.6-16.6L32.6,84.2L32.6,84.2L32.6,84.2z M49.8,4.3
		c24.1,0,43.7,19.6,43.7,43.7S73.9,91.8,49.8,91.8S6,72.2,6,48S25.6,4.3,49.8,4.3z M49.8,1.6c25.7,0,46.5,20.8,46.5,46.5
		S75.4,94.5,49.8,94.5S3.3,73.7,3.3,48S24.1,1.6,49.8,1.6L49.8,1.6z"/>
</g>
</svg>
