<?xml version="1.0" encoding="utf-8"?>
<!-- Generator: Adobe Illustrator 25.0.1, SVG Export Plug-In . SVG Version: 6.00 Build 0)  -->
<svg version="1.1" id="Ebene_1" xmlns="http://www.w3.org/2000/svg" xmlns:xlink="http://www.w3.org/1999/xlink" x="0px" y="0px"
	 viewBox="0 0 60 95" style="enable-background:new 0 0 60 95;" xml:space="preserve">
<g>
	<path style="opacity:0.5;fill:#25DA65;enable-background:new    ;" d="M9,95l2-2c0.6-0.6,1.5-0.6,2.1,0l2,2l2-2
		c0.6-0.6,1.5-0.6,2.1,0l2,2l2-2c0.6-0.6,1.5-0.6,2.1,0l2,2l2-2c0.6-0.6,1.5-0.6,2.1,0l2,2l2-2c0.6-0.6,1.5-0.6,2.1,0l2,2l2-2
		c0.6-0.6,1.5-0.6,2.1,0l2,2l2-2c0.6-0.6,1.5-0.6,2.1,0l2,2l2-2c0.6-0.6,1.5-0.6,2.1,0l2,2l3-3v-6.3V75.3v-18V1.6H0v55.7v17.9V92
		l0,0l3,3l2-2c0.6-0.6,1.5-0.6,2.1,0L9,95z"/>
	
		<linearGradient id="SVGID_1_" gradientUnits="userSpaceOnUse" x1="30.4" y1="-1069.9" x2="30.4" y2="-976.5" gradientTransform="matrix(1 0 0 -1 0 -976)">
		<stop  offset="0" style="stop-color:#8CD65F"/>
		<stop  offset="1" style="stop-color:#B5EB87"/>
	</linearGradient>
	<path style="fill:url(#SVGID_1_);" d="M9,93.9l2-2c0.6-0.6,1.5-0.6,2.1,0l2,2l2-2c0.6-0.6,1.5-0.6,2.1,0l2,2l2-2
		c0.6-0.6,1.5-0.6,2.1,0l2,2l2-2c0.6-0.6,1.5-0.6,2.1,0l2,2l2-2c0.6-0.6,1.5-0.6,2.1,0l2,2l2-2c0.6-0.6,1.5-0.6,2.1,0l2,2l2-2
		c0.6-0.6,1.5-0.6,2.1,0l2,2l2-2c0.6-0.6,1.5-0.6,2.1,0l2,2l3-3l0,0V74.2v-18V0.5H0v55.7v17.9v16.7l0,0l3,3l2-2
		c0.6-0.6,1.5-0.6,2.1,0L9,93.9z"/>
	<g style="opacity:0.5;">
		<path style="fill:#25DA65;" d="M14.7,47.7c-0.5-0.6-1.1-0.9-1.9-0.9c-0.3,0-0.6,0.1-0.9,0.2c-0.3,0.1-0.5,0.3-0.7,0.5
			s-0.4,0.5-0.5,0.7c-0.1,0.3-0.2,0.6-0.2,0.9c0,0.3,0.1,0.7,0.2,0.9c0.1,0.3,0.3,0.5,0.5,0.7s0.5,0.4,0.7,0.5
			c0.3,0.1,0.6,0.2,0.9,0.2c0.7,0,1.3-0.3,1.9-0.9v2.6l-0.2,0.1c-0.3,0.1-0.7,0.2-0.9,0.3c-0.3,0.1-0.6,0.1-0.9,0.1
			c-0.6,0-1.1-0.1-1.7-0.3c-0.5-0.2-1-0.5-1.4-0.9s-0.7-0.9-1-1.4c-0.3-0.6-0.4-1.2-0.4-1.8s0.1-1.3,0.4-1.8c0.2-0.5,0.6-1,1-1.4
			s0.9-0.7,1.4-0.9s1.1-0.3,1.7-0.3c0.3,0,0.7,0,1,0.1s0.7,0.2,1,0.3L14.7,47.7L14.7,47.7z"/>
		<path style="fill:#25DA65;" d="M15.2,49.1c0-0.6,0.1-1.2,0.4-1.8c0.2-0.5,0.6-1,1-1.4s0.9-0.7,1.5-1c0.6-0.2,1.2-0.3,1.9-0.3
			c0.7,0,1.3,0.1,1.9,0.3s1.1,0.5,1.5,1c0.4,0.4,0.7,0.9,1,1.4c0.2,0.5,0.4,1.1,0.4,1.8c0,0.6-0.1,1.2-0.4,1.8c-0.2,0.5-0.6,1-1,1.4
			s-0.9,0.7-1.5,1c-0.6,0.2-1.2,0.3-1.9,0.3c-0.7,0-1.3-0.1-1.9-0.3s-1.1-0.5-1.5-1c-0.4-0.4-0.7-0.9-1-1.4
			C15.3,50.3,15.2,49.7,15.2,49.1z M17.5,49.1c0,0.3,0.1,0.7,0.2,0.9c0.1,0.3,0.3,0.5,0.5,0.7s0.5,0.4,0.8,0.5s0.6,0.2,0.9,0.2
			s0.6-0.1,0.9-0.2c0.3-0.1,0.5-0.3,0.8-0.5c0.2-0.2,0.4-0.5,0.5-0.7s0.2-0.6,0.2-0.9c0-0.3-0.1-0.7-0.2-0.9
			c-0.1-0.3-0.3-0.5-0.5-0.7s-0.5-0.4-0.8-0.5s-0.6-0.2-0.9-0.2S19.3,46.9,19,47s-0.5,0.3-0.8,0.5c-0.2,0.2-0.4,0.5-0.5,0.7
			C17.5,48.4,17.5,48.7,17.5,49.1z"/>
		<path style="fill:#25DA65;" d="M25,49.1c0-0.6,0.1-1.2,0.4-1.8c0.2-0.5,0.6-1,1-1.4s0.9-0.7,1.5-1c0.6-0.2,1.2-0.3,1.9-0.3
			c0.7,0,1.3,0.1,1.9,0.3s1.1,0.5,1.5,1c0.4,0.4,0.7,0.9,1,1.4s0.4,1.1,0.4,1.8c0,0.6-0.1,1.2-0.4,1.8c-0.2,0.5-0.6,1-1,1.4
			s-0.9,0.7-1.5,1c-0.6,0.2-1.2,0.3-1.9,0.3c-0.7,0-1.3-0.1-1.9-0.3s-1.1-0.5-1.5-1c-0.4-0.4-0.7-0.9-1-1.4
			C25.1,50.3,25,49.7,25,49.1z M27.3,49.1c0,0.3,0.1,0.7,0.2,0.9c0.1,0.3,0.3,0.5,0.5,0.7s0.5,0.4,0.8,0.5s0.6,0.2,0.9,0.2
			s0.6-0.1,0.9-0.2c0.3-0.1,0.5-0.3,0.8-0.5c0.2-0.2,0.4-0.5,0.5-0.7c0.1-0.3,0.2-0.6,0.2-0.9c0-0.3-0.1-0.7-0.2-0.9
			c-0.1-0.3-0.3-0.5-0.5-0.7s-0.5-0.4-0.8-0.5s-0.6-0.2-0.9-0.2s-0.6,0.1-0.9,0.2c-0.3,0.1-0.5,0.3-0.8,0.5
			c-0.2,0.2-0.4,0.5-0.5,0.7C27.4,48.4,27.3,48.7,27.3,49.1z"/>
		<path style="fill:#25DA65;" d="M37.2,48.3l2.7-3.5h2.7l-3.4,4l3.7,4.5H40l-2.9-3.7v3.7H35v-8.5h2.2V48.3z"/>
		<path style="fill:#25DA65;" d="M45.8,44.8v8.5h-2.2v-8.5H45.8z"/>
		<path style="fill:#25DA65;" d="M51.6,46.7H49v1.4h2.5V50H49v1.5h2.6v1.9h-4.8v-8.5h4.8V46.7L51.6,46.7z"/>
		<path style="fill:#25DA65;" d="M17.4,59.5h-4.8v2.6H17v3.4h-4.4v6h-4V56.1h8.8C17.4,56.1,17.4,59.5,17.4,59.5z"/>
		<path style="fill:#25DA65;" d="M31.9,71.5h-5l-3.8-5.9v5.9h-4V56.1h6.2c0.9,0,1.6,0.1,2.2,0.4c0.6,0.3,1.2,0.6,1.6,1
			s0.7,0.9,0.9,1.5c0.2,0.6,0.3,1.2,0.3,1.8c0,1.2-0.3,2.1-0.9,2.8c-0.6,0.7-1.4,1.2-2.5,1.5L31.9,71.5z M23.1,63h0.8
			c0.8,0,1.4-0.2,1.8-0.5s0.6-0.8,0.6-1.4s-0.2-1.1-0.6-1.4c-0.4-0.3-1-0.5-1.8-0.5h-0.8V63L23.1,63z"/>
		<path style="fill:#25DA65;" d="M41.6,59.5h-4.8v2.6h4.5v3.4h-4.5v2.7h4.8v3.4h-8.8V56.1h8.8V59.5z"/>
		<path style="fill:#25DA65;" d="M51.8,59.5H47v2.6h4.5v3.4H47v2.7h4.8v3.4H43V56.1h8.8V59.5z"/>
	</g>
	<g>
		<path style="fill:#FFFFFF;" d="M14.7,46.6c-0.5-0.6-1.1-0.9-1.9-0.9c-0.3,0-0.6,0.1-0.9,0.2c-0.3,0.1-0.5,0.3-0.7,0.5
			s-0.4,0.5-0.5,0.7c-0.1,0.3-0.2,0.6-0.2,0.9c0,0.3,0.1,0.7,0.2,0.9c0.1,0.3,0.3,0.5,0.5,0.7s0.5,0.4,0.7,0.5
			c0.3,0.1,0.6,0.2,0.9,0.2c0.7,0,1.3-0.3,1.9-0.9V52l-0.2,0.1c-0.3,0.1-0.7,0.2-0.9,0.3c-0.3,0.1-0.6,0.1-0.9,0.1
			c-0.6,0-1.1-0.1-1.7-0.3c-0.5-0.2-1-0.5-1.4-0.9s-0.7-0.9-1-1.4c-0.3-0.6-0.4-1.2-0.4-1.8s0.1-1.3,0.4-1.8s0.6-1,1-1.4
			s0.9-0.7,1.4-0.9s1.1-0.3,1.7-0.3c0.3,0,0.7,0,1,0.1s0.7,0.2,1,0.3L14.7,46.6L14.7,46.6z"/>
		<path style="fill:#FFFFFF;" d="M15.2,48c0-0.6,0.1-1.2,0.4-1.8c0.2-0.5,0.6-1,1-1.4s0.9-0.7,1.5-1c0.6-0.2,1.2-0.3,1.9-0.3
			c0.7,0,1.3,0.1,1.9,0.3s1.1,0.5,1.5,1c0.4,0.4,0.7,0.9,1,1.4c0.2,0.5,0.4,1.1,0.4,1.8s-0.1,1.2-0.4,1.8c-0.2,0.5-0.6,1-1,1.4
			s-0.9,0.7-1.5,1c-0.6,0.2-1.2,0.3-1.9,0.3c-0.7,0-1.3-0.1-1.9-0.3s-1.1-0.5-1.5-1c-0.4-0.4-0.7-0.9-1-1.4
			C15.3,49.2,15.2,48.6,15.2,48z M17.5,48c0,0.3,0.1,0.7,0.2,0.9c0.1,0.3,0.3,0.5,0.5,0.7s0.5,0.4,0.8,0.5s0.6,0.2,0.9,0.2
			s0.6-0.1,0.9-0.2c0.3-0.1,0.5-0.3,0.8-0.5c0.2-0.2,0.4-0.5,0.5-0.7c0.1-0.3,0.2-0.6,0.2-0.9c0-0.3-0.1-0.7-0.2-0.9
			c-0.1-0.3-0.3-0.5-0.5-0.7s-0.5-0.4-0.8-0.5s-0.6-0.2-0.9-0.2s-0.6,0.1-0.9,0.2c-0.3,0.1-0.5,0.3-0.8,0.5
			c-0.2,0.2-0.4,0.5-0.5,0.7C17.5,47.3,17.5,47.6,17.5,48z"/>
		<path style="fill:#FFFFFF;" d="M25,48c0-0.6,0.1-1.2,0.4-1.8c0.2-0.5,0.6-1,1-1.4s0.9-0.7,1.5-1c0.6-0.2,1.2-0.3,1.9-0.3
			c0.7,0,1.3,0.1,1.9,0.3s1.1,0.5,1.5,1c0.4,0.4,0.7,0.9,1,1.4c0.2,0.5,0.4,1.1,0.4,1.8s-0.1,1.2-0.4,1.8c-0.2,0.5-0.6,1-1,1.4
			s-0.9,0.7-1.5,1c-0.6,0.2-1.2,0.3-1.9,0.3c-0.7,0-1.3-0.1-1.9-0.3s-1.1-0.5-1.5-1c-0.4-0.4-0.7-0.9-1-1.4C25.1,49.2,25,48.6,25,48
			z M27.3,48c0,0.3,0.1,0.7,0.2,0.9c0.1,0.3,0.3,0.5,0.5,0.7s0.5,0.4,0.8,0.5s0.6,0.2,0.9,0.2s0.6-0.1,0.9-0.2
			c0.3-0.1,0.5-0.3,0.8-0.5c0.2-0.2,0.4-0.5,0.5-0.7c0.1-0.3,0.2-0.6,0.2-0.9c0-0.3-0.1-0.7-0.2-0.9s-0.3-0.5-0.5-0.7
			s-0.5-0.4-0.8-0.5s-0.6-0.2-0.9-0.2s-0.6,0.1-0.9,0.2c-0.3,0.1-0.5,0.3-0.8,0.5s-0.4,0.5-0.5,0.7S27.3,47.6,27.3,48z"/>
		<path style="fill:#FFFFFF;" d="M37.2,47.2l2.7-3.5h2.7l-3.4,4l3.7,4.5H40l-2.9-3.7v3.7H35v-8.5h2.2V47.2z"/>
		<path style="fill:#FFFFFF;" d="M45.8,43.7v8.5h-2.2v-8.5H45.8z"/>
		<path style="fill:#FFFFFF;" d="M51.6,45.6H49V47h2.5v1.9H49v1.5h2.6v1.9h-4.8v-8.5h4.8V45.6L51.6,45.6z"/>
		<path style="fill:#FFFFFF;" d="M17.4,58.4h-4.8V61H17v3.4h-4.4v6h-4V55h8.8C17.4,55,17.4,58.4,17.4,58.4z"/>
		<path style="fill:#FFFFFF;" d="M31.9,70.4h-5l-3.8-5.9v5.9h-4V55h6.2c0.9,0,1.6,0.1,2.2,0.4c0.6,0.3,1.2,0.6,1.6,1
			s0.7,0.9,0.9,1.5c0.2,0.6,0.3,1.2,0.3,1.8c0,1.2-0.3,2.1-0.9,2.8S28,63.7,26.9,64L31.9,70.4z M23.1,61.9h0.8
			c0.8,0,1.4-0.2,1.8-0.5s0.6-0.8,0.6-1.4c0-0.6-0.2-1.1-0.6-1.4c-0.4-0.3-1-0.5-1.8-0.5h-0.8V61.9L23.1,61.9z"/>
		<path style="fill:#FFFFFF;" d="M41.6,58.4h-4.8V61h4.5v3.4h-4.5V67h4.8v3.4h-8.8V55h8.8V58.4z"/>
		<path style="fill:#FFFFFF;" d="M51.8,58.4H47V61h4.5v3.4H47V67h4.8v3.4H43V55h8.8V58.4z"/>
	</g>
	<g>
		<g style="opacity:0.5;">
			<path style="fill:#25DA65;" d="M20.2,35.2c0.5,0.6,0.6,1.4,1,2.1c0.3,0.7,1,1.4,1.7,1.3c0.4-0.1,0.7-0.3,1.1-0.3
				c0.5,0,0.9,0.4,1.2,0.6c0.9,0.6,1.9,1,3,1c0.5,0,0.9-0.1,1.3-0.3c0.2-0.1,0.4-0.3,0.6-0.4c0.4-0.2,0.9-0.3,1.4-0.3
				c1.1,0.1,2.1,0.4,3.1,0.5c1,0.2,2.2,0.1,3-0.5c0.1-0.1,0.2-0.2,0.3-0.3C38,38.4,38,38.2,38,38c0.2-0.8,1.3-0.9,2.1-1.4
				c1.4-0.8,1.4-2.9,2.7-3.8c0.4-0.3,1-0.5,1.2-1s-0.3-1-0.5-1.6c-0.3-0.9,0.2-1.9,0.8-2.7c0.6-0.8,1.2-1.6,1.1-2.6
				c-0.1-1-0.9-1.8-1.2-2.8s-0.1-2.1-0.6-3c-0.4-0.7-1.2-1.3-1.4-2.1c-0.2-0.6-0.1-1.5-0.6-1.7c-0.2-0.1-0.4-0.1-0.6-0.1
				c-0.7,0.1-1.3,0.1-2,0.1c-0.2-0.4-0.5-0.8-0.7-1.2s-0.5-0.9-1-1c-0.6-0.1-1.1,0.3-1.5,0.6c-0.6-0.1-0.6-1.1-1.2-1.4
				c-0.6-0.3-1.2,0.4-1.9,0.4c-1,0.1-1.8-1.2-2.8-1.2c-0.6,0-1.1,0.5-1.6,0.6c-0.7,0.2-1.4-0.2-2-0.5s-1.5-0.4-2,0
				c-0.8,0.6-0.5,2.1-1.3,2.7s-2.2-0.1-2.9,0.7c-0.4,0.4-0.4,1-0.8,1.4c-0.2,0.2-0.6,0.3-0.9,0.3c-0.8,0.2-1.6,0.4-2.1,0.9
				c-0.6,0.5-0.8,1.5-0.4,2.1c0.2,0.3,0.5,0.6,0.5,0.9c0,0.2-0.1,0.4-0.3,0.6c-0.6,1-1.2,2.1-1,3.2c0.1,0.5,0.3,1.1,0.3,1.6
				c0,0.7-0.5,1.4-0.7,2.1c-0.3,0.9,0,2,0.6,2.7s1.5,1.2,1.7,2c0.1,0.5-0.1,1,0.2,1.5c0.3,0.8,1.4,0.9,2.3,0.8L20.2,35.2z"/>
		</g>
		<g>
			<path style="fill:#EAC87A;" d="M20,33.1c0.5,0.6,0.6,1.4,1,2.1c0.3,0.7,1,1.4,1.7,1.3c0.4-0.1,0.7-0.3,1.1-0.3
				c0.5,0,0.9,0.4,1.2,0.6c0.9,0.6,1.9,1,3,1c0.5,0,0.9-0.1,1.3-0.3c0.2-0.1,0.4-0.3,0.6-0.4c0.4-0.2,0.9-0.3,1.4-0.3
				c1.1,0.1,2.1,0.4,3.1,0.5c1,0.2,2.2,0.1,3-0.5c0.1-0.1,0.2-0.2,0.3-0.3c0.1-0.2,0.1-0.4,0.1-0.6c0.2-0.8,1.3-0.9,2.1-1.4
				c1.4-0.8,1.4-2.9,2.7-3.8c0.4-0.3,1-0.5,1.2-1s-0.3-1-0.5-1.6c-0.3-0.9,0.2-1.9,0.8-2.7c0.6-0.8,1.2-1.6,1.1-2.6
				c-0.1-1-0.9-1.8-1.2-2.8s-0.1-2.1-0.6-3c-0.4-0.7-1.2-1.3-1.4-2.1c-0.2-0.6-0.1-1.5-0.6-1.7c-0.2-0.1-0.4-0.1-0.6-0.1
				c-0.7,0.1-1.3,0.1-2,0.1c-0.2-0.4-0.5-0.8-0.7-1.2s-0.5-0.9-1-1c-0.6-0.1-1.1,0.3-1.5,0.6c-0.6-0.1-0.6-1.1-1.2-1.4
				c-0.6-0.3-1.2,0.4-1.9,0.4c-1,0.1-1.8-1.2-2.8-1.2c-0.6,0-1.1,0.5-1.6,0.6c-0.7,0.2-1.4-0.2-2-0.5s-1.5-0.4-2,0
				c-0.8,0.6-0.5,2.1-1.3,2.7C22.1,13,20.7,12.3,20,13c-0.4,0.4-0.4,1-0.8,1.4c-0.2,0.2-0.6,0.3-0.9,0.3c-0.8,0.2-1.6,0.4-2.1,0.9
				c-0.6,0.5-0.8,1.5-0.4,2.1c0.2,0.3,0.5,0.6,0.5,0.9c0,0.2-0.1,0.4-0.3,0.6c-0.6,1-1.2,2.1-1,3.2c0.1,0.5,0.3,1.1,0.3,1.6
				c0,0.7-0.5,1.4-0.7,2.1c-0.3,0.9,0,2,0.6,2.7s1.5,1.2,1.7,2c0.1,0.5-0.1,1,0.2,1.5c0.3,0.8,1.4,0.9,2.3,0.8L20,33.1z"/>
		</g>
		<g>
			<path style="fill:#CB9037;" d="M22.9,19.2c-0.1-0.2-0.4-0.3-0.7-0.3c-0.3,0.1-0.5,0.3-0.6,0.5c0,0.1-0.1,0.1-0.1,0.2
				s0.1,0.2,0.3,0.2c0.3,0,0.7,0,0.9,0.2c0.1,0.1,0.2,0.2,0.3,0.3c0.2,0.1,0.4,0.1,0.6-0.1s0.2-0.4,0.3-0.6L22.9,19.2z"/>
		</g>
		<g>
			<path style="fill:#CB9037;" d="M37.8,22.7c-0.1-0.2-0.4-0.3-0.7-0.3c-0.3,0.1-0.5,0.3-0.6,0.5c0,0.1-0.1,0.1-0.1,0.2
				s0.1,0.2,0.3,0.2c0.3,0,0.7,0,0.9,0.2c0.1,0.1,0.2,0.2,0.3,0.3c0.2,0.1,0.4,0.1,0.6-0.1c0.2-0.1,0.2-0.4,0.3-0.6L37.8,22.7z"/>
		</g>
		<g>
			<path style="fill:#CB9037;" d="M36.3,29.5c-0.1-0.2-0.4-0.3-0.7-0.3c-0.3,0.1-0.5,0.3-0.6,0.5c0,0.1-0.1,0.1-0.1,0.2
				s0.1,0.2,0.3,0.2c0.3,0,0.7,0,0.9,0.2c0.1,0.1,0.2,0.2,0.3,0.3c0.2,0.1,0.4,0.1,0.6-0.1c0.2-0.1,0.2-0.4,0.3-0.6L36.3,29.5z"/>
		</g>
		<g>
			<path style="fill:#CB9037;" d="M18.2,16.6c-0.1-0.2-0.4-0.3-0.7-0.3c-0.3,0.1-0.5,0.3-0.6,0.5c0,0.1-0.1,0.1-0.1,0.2
				s0.1,0.2,0.3,0.2c0.3,0,0.7,0,0.9,0.2c0.1,0.1,0.2,0.2,0.3,0.3c0.2,0.1,0.4,0.1,0.6-0.1S19,17.2,19,17L18.2,16.6z"/>
		</g>
		<g>
			<path style="fill:#CB9037;" d="M17.3,28c-0.1-0.2-0.4-0.3-0.7-0.3S16.1,28,16,28.2c0,0.1-0.1,0.1-0.1,0.2s0.1,0.2,0.3,0.2
				c0.3,0,0.7,0,0.9,0.2c0.1,0.1,0.2,0.2,0.3,0.3c0.2,0.1,0.4,0.1,0.6-0.1s0.2-0.4,0.3-0.6L17.3,28z"/>
		</g>
		<g>
			<path style="fill:#CB9037;" d="M32.9,29.3c-0.1-0.2-0.4-0.3-0.7-0.3c-0.3,0.1-0.5,0.3-0.6,0.5c0,0.1-0.1,0.1-0.1,0.2
				s0.1,0.2,0.3,0.2c0.3,0,0.7,0,0.9,0.2c0.1,0.1,0.2,0.2,0.3,0.3c0.2,0.1,0.4,0.1,0.6-0.1c0.2-0.1,0.2-0.4,0.3-0.6L32.9,29.3z"/>
		</g>
		<g>
			<path style="fill:#CB9037;" d="M37.4,15.3C37.3,15.1,37,15,36.7,15c-0.3,0.1-0.5,0.3-0.6,0.5c0,0.1-0.1,0.1-0.1,0.2
				c0,0.1,0.1,0.2,0.3,0.2c0.3,0,0.7,0,0.9,0.2c0.1,0.1,0.2,0.2,0.3,0.3c0.2,0.1,0.4,0.1,0.6-0.1c0.2-0.1,0.2-0.4,0.3-0.6L37.4,15.3
				z"/>
		</g>
		<g>
			<path style="fill:#CB9037;" d="M44,20c-0.3-1-0.1-2.1-0.6-3c-0.4-0.7-1.2-1.3-1.4-2.1c-0.2-0.6-0.1-1.5-0.6-1.7
				c-0.2-0.1-0.4-0.1-0.6-0.1c-0.6,0.1-1.3,0.1-1.9,0.1c0,0.4,0.5,0.5,0.9,0.5s0.9,0,1,0.4c0,0.2-0.1,0.3,0,0.5
				c0,0.2,0.2,0.3,0.4,0.5c0.3,0.3,0.3,0.9,0.3,1.3c0,0.4-0.1,1,0.1,1.4c0.2,0.4,0.8,0.7,1.1,0.5c0.3,0.3,0.2,0.8-0.1,1
				c-0.2-0.4-0.6-0.6-1-0.5s-0.6,0.6-0.4,0.9c0.2,0.2,0.5,0.3,0.7,0.4c0.3,0.3,0.2,0.7,0.3,1.1s0.5,0.8,0.8,0.6
				c0.4,0.4,0.3,1.1-0.1,1.6c-0.3,0.5-0.7,1-0.5,1.6c0.1,0.2,0.2,0.4,0.2,0.7c0,0.4-0.5,0.7-0.8,0.5s-0.4-0.6-0.6-0.9
				c-0.2-0.3-0.8-0.4-0.9-0.1c0,0.1,0,0.2,0,0.3c0,0.4-0.6,0.5-1,0.5c-0.4,0.1-0.9,0.5-0.6,0.8c0.6-0.2,1.2-0.2,1.7-0.1
				c0.7,0.2,1.5,0.8,1.3,1.5c-0.1,0.3-0.3,0.6-0.4,0.9c-0.2,0.4-0.1,0.9-0.2,1.3c-0.2,0.4-0.8,0.7-1,0.3c-0.1-0.3-0.3-0.7-0.6-0.6
				s-0.3,0.6-0.1,0.9c0.1,0.3,0.1,0.8-0.2,0.9c-0.2-0.2-0.6,0.1-0.8,0.4c-0.1,0.3-0.3,0.7-0.6,0.8c-0.5,0.1-0.7-0.5-0.8-0.9
				c-0.1-0.5-0.4-1.1-0.8-0.9c0.2,0.7-0.8,1.4-1.4,0.9c-0.3-0.1-0.5,0.4-0.4,0.7s0.4,0.5,0.5,0.8c0.2,0.5-0.2,1.2-0.8,1.2
				c-0.6,0.1-1.1-0.5-1-1.1c0,0.5-0.7,0.7-1.2,0.6c-0.5-0.1-1.1-0.2-1.5,0.1C30.2,34.7,30,35,29.7,35c-0.2,0-0.4-0.1-0.7-0.1
				c-0.4-0.1-0.7,0.1-1.1,0c-0.4,0-0.8-0.3-0.7-0.6c0.3-0.1,0.5-0.4,0.5-0.8c-1,0.3-2,0.5-3,0.5c-0.2,0-0.4,0-0.6-0.1
				c-0.3-0.2-0.4-0.6-0.7-0.8c-0.3-0.3-0.9-0.1-0.7,0.3c-0.2-0.2-0.4-0.4-0.6-0.6c-0.6,0.5-1.7-0.1-1.7-0.9c0-0.3,0.1-0.6-0.2-0.8
				c-0.4-0.2-0.7,0.6-1.2,0.5c-0.3,0-0.4-0.4-0.6-0.6c-0.1-0.3-0.6-0.5-0.7-0.2c0.1-0.5-0.5-0.9-1-0.8c-0.1,0-0.2,0.1-0.3,0.2
				c0.2,0.2,0.3,0.4,0.3,0.7c0.1,0.5-0.1,1,0.2,1.5c0.3,0.8,1.4,0.9,2.3,0.8l0.7-0.2c0.5,0.6,0.6,1.4,1,2.1c0.3,0.7,1,1.4,1.7,1.3
				c0.4-0.1,0.7-0.3,1.1-0.3c0.5,0,0.9,0.4,1.2,0.6c0.9,0.6,1.9,1,3,1c0.5,0,0.9-0.1,1.3-0.3c0.2-0.1,0.4-0.3,0.6-0.4
				c0.4-0.2,0.9-0.3,1.4-0.3c1.1,0.1,2.1,0.4,3.1,0.5c1,0.2,2.2,0.1,3-0.5c0.1-0.1,0.2-0.2,0.3-0.3c0.1-0.2,0.1-0.4,0.1-0.6
				c0.2-0.8,1.3-0.9,2.1-1.4c1.4-0.8,1.4-2.9,2.7-3.8c0.4-0.3,1-0.5,1.2-1s-0.3-1-0.5-1.6c-0.3-0.9,0.2-1.9,0.8-2.7
				c0.6-0.8,1.2-1.6,1.1-2.6C45.2,21.7,44.3,20.9,44,20z"/>
		</g>
		<g>
			<g>
				<path d="M19.9,33.2c0.6,0.7,0.6,1.6,1.1,2.4c0.4,0.7,1.1,1.2,2,0.9c0.2-0.1,0.4-0.2,0.6-0.2s0.4,0,0.6,0.1
					c0.4,0.2,0.7,0.5,1.1,0.8c0.8,0.5,1.7,0.7,2.6,0.7c0.5,0,0.9-0.1,1.3-0.3c0.2-0.1,0.4-0.3,0.6-0.4c0.2-0.1,0.4-0.2,0.6-0.3
					c0.5-0.1,1-0.1,1.5,0s1,0.2,1.5,0.3c0.9,0.2,1.8,0.3,2.8,0.2c0.4-0.1,0.8-0.2,1.2-0.5c0.2-0.1,0.4-0.2,0.4-0.4
					C38,36.3,38,36,38,35.8c0.1-0.7,1-0.9,1.5-1.1c0.3-0.1,0.6-0.3,0.9-0.5c0.3-0.2,0.5-0.5,0.6-0.8c0.4-0.6,0.6-1.3,1-1.8
					c0.2-0.3,0.4-0.6,0.6-0.8c0.3-0.2,0.6-0.4,0.9-0.6c0.3-0.2,0.5-0.5,0.5-0.9s-0.3-0.8-0.4-1.1c-0.4-0.9,0-1.8,0.5-2.6
					c0.5-0.7,1.1-1.5,1.3-2.4c0.1-0.9-0.3-1.6-0.7-2.3c-0.2-0.4-0.4-0.7-0.6-1.1c-0.1-0.5-0.2-0.9-0.2-1.4c-0.1-0.5-0.1-0.9-0.3-1.3
					s-0.4-0.7-0.7-1c-0.3-0.3-0.5-0.6-0.7-1C42.1,14.8,42,14.4,42,14c-0.1-0.3-0.1-0.7-0.4-0.9c-0.4-0.3-0.9-0.2-1.3-0.2
					c-0.5,0-1,0.1-1.6,0.1l0.1,0.1c-0.2-0.4-0.5-0.8-0.7-1.2c-0.2-0.3-0.4-0.6-0.7-0.8c-0.7-0.5-1.5,0-2,0.5c0.1,0,0.1,0,0.2,0
					c-0.3-0.1-0.4-0.4-0.5-0.6c-0.1-0.3-0.3-0.5-0.5-0.7c-0.7-0.5-1.4,0.3-2,0.3c-0.7,0.1-1.2-0.5-1.7-0.8c-0.3-0.2-0.6-0.3-0.9-0.4
					c-0.4-0.1-0.7,0.1-1.1,0.3s-0.8,0.4-1.2,0.4c-0.5,0-1-0.3-1.4-0.5c-0.7-0.3-1.6-0.6-2.3,0c-0.5,0.4-0.6,1.2-0.8,1.8
					c-0.1,0.3-0.2,0.6-0.4,0.8c-0.3,0.2-0.6,0.3-0.9,0.3c-0.7,0-1.4-0.1-2,0.4c-0.3,0.3-0.4,0.6-0.5,1c-0.1,0.2-0.2,0.4-0.3,0.5
					c-0.2,0.1-0.4,0.2-0.6,0.2c-0.8,0.2-1.7,0.4-2.3,1c-0.6,0.5-0.9,1.3-0.7,2c0.1,0.2,0.1,0.4,0.3,0.5c0.1,0.2,0.3,0.3,0.3,0.5
					c0.1,0.2,0,0.4-0.1,0.6s-0.3,0.4-0.4,0.6c-0.5,0.8-0.9,1.7-0.8,2.6c0,0.5,0.2,0.9,0.3,1.4s0,0.9-0.2,1.3s-0.4,0.8-0.5,1.2
					c-0.1,0.4-0.1,0.8-0.1,1.2c0.1,0.4,0.2,0.8,0.4,1.2c0.2,0.3,0.5,0.6,0.8,0.9s0.6,0.5,0.8,0.8c0.3,0.3,0.4,0.7,0.4,1.1
					s0,0.9,0.2,1.2s0.5,0.5,0.8,0.6s0.7,0.2,1,0.2s0.5,0,0.8-0.1C19.7,33.3,19.9,33.3,19.9,33.2c0.3-0.1,0.2-0.4,0-0.3
					c-0.2,0.1-0.4,0.1-0.6,0.2c-0.3,0.1-0.6,0.1-0.9,0c-0.4,0-0.7-0.1-1-0.3C17,32.5,17,32.1,17,31.7s0-0.9-0.2-1.3
					s-0.5-0.6-0.8-0.9s-0.6-0.5-0.9-0.9c-0.3-0.4-0.5-0.8-0.5-1.2c-0.1-0.4-0.1-0.9,0.1-1.3c0.1-0.5,0.4-0.9,0.5-1.3
					c0.2-0.5,0.2-0.9,0.1-1.4c-0.1-0.5-0.3-1-0.3-1.5c0-1,0.6-1.9,1.1-2.7c0.1-0.2,0.2-0.4,0.2-0.6s-0.1-0.4-0.2-0.6
					s-0.3-0.3-0.3-0.5c-0.1-0.2-0.1-0.4-0.1-0.6c0-0.9,0.7-1.5,1.5-1.9c0.4-0.2,0.9-0.3,1.3-0.4c0.4-0.1,0.8-0.3,1-0.6
					s0.3-0.8,0.5-1.1c0.3-0.3,0.6-0.3,1-0.3c0.7,0,1.5,0.1,2.1-0.5c0.5-0.5,0.5-1.3,0.7-1.9c0.1-0.3,0.3-0.6,0.7-0.8
					c0.4-0.2,0.9-0.1,1.3,0.1c0.5,0.2,0.9,0.4,1.4,0.5s0.9,0.1,1.4-0.1c0.4-0.2,0.8-0.4,1.2-0.5c0.4-0.1,0.7,0.1,1,0.3
					c0.6,0.4,1.1,0.9,1.8,0.9c0.4,0,0.8-0.2,1.1-0.4c0.3-0.1,0.7-0.2,1,0.1c0.2,0.2,0.3,0.6,0.5,0.8c0.1,0.2,0.5,0.6,0.7,0.4
					c0.4-0.3,0.7-0.6,1.2-0.6c0.4,0,0.7,0.4,0.9,0.7c0.3,0.4,0.5,0.9,0.8,1.4l0.1,0.1c0.5,0,1-0.1,1.6-0.1c0.4,0,0.9-0.2,1.2,0.2
					c0.2,0.3,0.2,0.6,0.2,0.9c0.1,0.4,0.1,0.7,0.3,1c0.4,0.7,1.1,1.2,1.3,2c0.3,0.9,0.1,1.8,0.5,2.6c0.3,0.8,0.9,1.4,1.1,2.2
					c0.3,0.9-0.1,1.7-0.6,2.4c-0.5,0.7-1.1,1.5-1.3,2.4c-0.1,0.4,0,0.8,0.1,1.2c0.2,0.4,0.5,0.7,0.5,1.1s-0.3,0.6-0.6,0.8
					c-0.3,0.2-0.6,0.4-0.8,0.6c-0.5,0.5-0.8,1.1-1,1.7c-0.3,0.6-0.6,1.2-1.1,1.6c-0.5,0.4-1.2,0.5-1.8,0.8c-0.3,0.2-0.5,0.4-0.6,0.7
					c-0.1,0.2,0,0.4-0.1,0.6c-0.1,0.2-0.3,0.4-0.4,0.5c-0.7,0.5-1.7,0.5-2.5,0.4c-1-0.1-1.9-0.4-2.9-0.5c-0.5-0.1-0.9-0.1-1.4,0
					c-0.2,0.1-0.4,0.1-0.6,0.3c-0.2,0.1-0.4,0.3-0.6,0.4c-0.4,0.2-0.9,0.3-1.3,0.3c-0.5,0-0.9-0.1-1.3-0.2c-0.4-0.1-0.8-0.3-1.2-0.5
					c-0.4-0.2-0.7-0.5-1.1-0.7s-0.8-0.1-1.2,0c-0.2,0.1-0.4,0.2-0.6,0.1c-0.2,0-0.4-0.1-0.5-0.2c-0.8-0.4-1-1.3-1.3-2.1
					c-0.2-0.4-0.3-0.8-0.6-1.1C20,32.8,19.8,33,19.9,33.2z"/>
			</g>
		</g>
		<g>
			<path style="fill:#CB9037;" d="M28.7,18.4c-0.2-0.4-0.3-0.7-0.5-1.1c-0.1-0.2-0.2-0.5,0-0.6s0.4-0.1,0.6,0.1
				c0.2,0.1,0.3,0.3,0.5,0.4c0,0,0.1,0.1,0.1,0c0.1,0,0.1,0,0.1-0.1c0.2-0.2,0.3-0.4,0.4-0.6c0.2-0.2,0.5-0.3,0.6-0.1
				c0.1,0.1,0.1,0.1,0.2,0.2c0.2,0.2,0.5,0.1,0.8,0c0.2-0.1,0.5-0.2,0.6,0c0.1,0.2,0,0.4-0.2,0.5s-0.4,0-0.6-0.1
				c-0.1,0-0.3-0.1-0.5,0s-0.4,0.3-0.6,0.2c-0.1,0-0.1,0-0.2,0c-0.3,0-0.3,0.5-0.6,0.6c-0.1,0-0.2,0.1-0.2,0.1c-0.1,0.1,0,0.3,0,0.4
				c0.1,0.1,0.1,0.3,0,0.4s-0.3,0-0.4,0L28.7,18.4z"/>
		</g>
		<g>
			<path style="fill:#CB9037;" d="M29.1,28.9c-0.2-0.4-0.3-0.7-0.5-1.1c-0.1-0.2-0.2-0.5,0-0.6s0.4-0.1,0.6,0.1
				c0.2,0.1,0.3,0.3,0.5,0.4c0,0,0.1,0.1,0.1,0c0.1,0,0.1,0,0.1-0.1c0.2-0.2,0.3-0.4,0.4-0.6c0.2-0.2,0.5-0.3,0.6-0.1
				C31,27,31,27,31.1,27.1c0.2,0.2,0.5,0.1,0.8,0c0.2-0.1,0.5-0.2,0.6,0s0,0.4-0.2,0.5s-0.4,0-0.6-0.1s-0.4-0.1-0.6-0.1
				c-0.2,0.1-0.4,0.3-0.6,0.2c-0.1,0-0.1,0-0.2,0c-0.3,0-0.3,0.5-0.6,0.6c-0.1,0-0.2,0.1-0.2,0.1c-0.1,0.1,0,0.3,0,0.4
				c0.1,0.1,0.1,0.3,0,0.4s-0.3,0-0.4,0L29.1,28.9z"/>
		</g>
		<g>
			<path style="fill:#CB9037;" d="M20.9,24.3c-0.2-0.4-0.3-0.7-0.5-1.1c-0.1-0.2-0.2-0.5,0-0.6s0.4-0.1,0.6,0.1
				c0.2,0.1,0.3,0.3,0.5,0.4c0,0,0.1,0.1,0.1,0c0.1,0,0.1,0,0.1-0.1c0.2-0.2,0.3-0.4,0.4-0.6c0.2-0.2,0.5-0.3,0.6-0.1
				c0.1,0.1,0.1,0.1,0.2,0.2c0.2,0.2,0.5,0.1,0.8,0c0.2-0.1,0.5-0.2,0.6,0s0,0.4-0.2,0.5s-0.4,0-0.6-0.1s-0.4-0.1-0.6-0.1
				c-0.2,0.1-0.4,0.3-0.6,0.2c-0.1,0-0.1,0-0.2,0c-0.3,0-0.3,0.5-0.6,0.6c-0.1,0-0.2,0.1-0.2,0.1c-0.1,0.1,0,0.3,0,0.4
				c0.1,0.1,0.1,0.3,0,0.4s-0.3,0-0.4,0L20.9,24.3z"/>
		</g>
		<g>
			<path style="fill:#CB9037;" d="M25.9,12.7c-0.2-0.4-0.3-0.7-0.5-1.1c-0.1-0.2-0.2-0.5,0-0.6s0.4-0.1,0.6,0.1
				c0.2,0.1,0.3,0.3,0.5,0.4c0,0,0.1,0.1,0.1,0c0.1,0,0.1,0,0.1-0.1c0.2-0.2,0.3-0.4,0.4-0.6c0.2-0.2,0.5-0.3,0.6-0.1
				c0.1,0.1,0.1,0.1,0.2,0.2c0.2,0.2,0.5,0.1,0.8,0c0.2-0.1,0.5-0.2,0.6,0s0,0.4-0.2,0.5s-0.4,0-0.6-0.1s-0.4-0.1-0.6-0.1
				c-0.2,0.1-0.4,0.3-0.6,0.2c-0.1,0-0.1,0-0.2,0c-0.3,0-0.3,0.5-0.6,0.6c-0.1,0-0.2,0.1-0.2,0.1c-0.1,0.1,0,0.3,0,0.4
				c0.1,0.1,0.1,0.3,0,0.4c-0.1,0.1-0.3,0-0.4,0L25.9,12.7z"/>
		</g>
		<g>
			<path style="fill:#CB9037;" d="M32.4,15c-0.2-0.4-0.3-0.7-0.5-1.1c-0.1-0.2-0.2-0.5,0-0.6s0.4-0.1,0.6,0.1
				c0.2,0.1,0.3,0.3,0.5,0.4c0,0,0.1,0.1,0.1,0c0.1,0,0.1,0,0.1-0.1c0.2-0.2,0.3-0.4,0.4-0.6s0.5-0.3,0.6-0.1
				c0.1,0.1,0.1,0.1,0.2,0.2c0.2,0.2,0.5,0.1,0.8,0c0.2-0.1,0.5-0.2,0.6,0s0,0.4-0.2,0.5s-0.4,0-0.6-0.1c-0.2-0.1-0.4-0.1-0.6-0.1
				c-0.2,0.1-0.4,0.3-0.6,0.2c-0.1,0-0.1,0-0.2,0c-0.3,0-0.3,0.5-0.6,0.6c-0.1,0-0.2,0.1-0.2,0.1c-0.1,0.1,0,0.3,0,0.4
				c0.1,0.1,0.1,0.3,0,0.4c-0.1,0.1-0.3,0-0.4,0L32.4,15z"/>
		</g>
		<g>
			<path style="fill:#CB9037;" d="M25,25.6c-0.3,0.2-0.4,0.5-0.3,0.8c0.3-0.1,0.7-0.1,1-0.4c0.2-0.2,0.3-0.4,0.6-0.5
				c0.2-0.1,0.4,0,0.6,0.1s0.4,0.2,0.5,0.2c0.2,0,0.4-0.1,0.4-0.3c0-0.1-0.1-0.3-0.2-0.3c-0.3-0.2-0.7-0.3-1.1-0.2s-0.7,0.3-0.9,0.7
				l-0.1-0.1L25,25.6z"/>
		</g>
		<g>
			<path style="fill:#CB9037;" d="M19.2,27.3c0.2-0.1,0.3-0.3,0.5-0.4l0.1-0.1c0.2,0,0.2,0.2,0.3,0.3c0.1,0.1,0.3,0.2,0.5,0.1h0.1
				v0.1c0,0.2-0.1,0.4-0.2,0.5s-0.4,0.1-0.5,0s-0.2-0.3-0.4-0.3c-0.1,0-0.2,0.1-0.3,0.1c-0.1,0-0.2-0.2-0.3-0.3L19.2,27.3z"/>
		</g>
		<g>
			<path style="fill:#CB9037;" d="M25.8,29.7c0.2-0.1,0.3-0.3,0.5-0.4l0.1-0.1c0.2,0,0.2,0.2,0.3,0.3c0.1,0.1,0.3,0.2,0.5,0.1h0.1
				v0.1c0,0.2-0.1,0.4-0.2,0.5c-0.2,0.1-0.4,0.1-0.5,0s-0.2-0.3-0.4-0.3c-0.1,0-0.2,0.1-0.3,0.1c-0.1,0-0.2-0.2-0.3-0.3L25.8,29.7z"
				/>
		</g>
		<g>
			<path style="fill:#CB9037;" d="M37.4,28.2c0.2-0.1,0.3-0.3,0.5-0.4l0.1-0.1c0.2,0,0.2,0.2,0.3,0.3c0.1,0.1,0.3,0.2,0.5,0.1h0.1
				v0.1c0,0.2-0.1,0.4-0.2,0.5s-0.4,0.1-0.5,0s-0.2-0.3-0.4-0.3c-0.1,0-0.2,0.1-0.3,0.1s-0.2-0.2-0.3-0.3L37.4,28.2z"/>
		</g>
		<g>
			<path style="fill:#CB9037;" d="M37.8,20.2c0.2-0.1,0.3-0.3,0.5-0.4l0.1-0.1c0.2,0,0.2,0.2,0.3,0.3c0.1,0.1,0.3,0.2,0.5,0.1h0.1
				v0.1c0,0.2-0.1,0.4-0.2,0.5c-0.2,0.1-0.4,0.1-0.5,0s-0.2-0.3-0.4-0.3c-0.1,0-0.2,0.1-0.3,0.1s-0.2-0.2-0.3-0.3L37.8,20.2z"/>
		</g>
		<g>
			<path style="fill:#CB9037;" d="M22.8,14.8c0.2-0.1,0.3-0.3,0.5-0.4l0.1-0.1c0.2,0,0.2,0.2,0.3,0.3c0.1,0.1,0.3,0.2,0.5,0.1h0.1
				v0.1c0,0.2-0.1,0.4-0.2,0.5c-0.2,0.1-0.4,0.1-0.5,0S23.4,15,23.2,15c-0.1,0-0.2,0.1-0.3,0.1c-0.1,0-0.2-0.2-0.3-0.3H22.8z"/>
		</g>
		<g>
			<path style="fill:#CB9037;" d="M28.7,14c0.2-0.1,0.3-0.3,0.5-0.4l0.1-0.1c0.2,0,0.2,0.2,0.3,0.3c0.1,0.1,0.3,0.2,0.5,0.1h0.1V14
				c0,0.2-0.1,0.4-0.2,0.5c-0.2,0.1-0.4,0.1-0.5,0s-0.2-0.3-0.4-0.3c-0.1,0-0.2,0.1-0.3,0.1c-0.1,0-0.2-0.2-0.3-0.3H28.7z"/>
		</g>
		<g>
			<path style="fill:#CB9037;" d="M17.2,23.8c0.2-0.1,0.3-0.3,0.5-0.4l0.1-0.1c0.2,0,0.2,0.2,0.3,0.3c0.1,0.1,0.3,0.2,0.5,0.1h0.1
				v0.1c0,0.2-0.1,0.4-0.2,0.5c-0.2,0.1-0.4,0.1-0.5,0S17.8,24,17.6,24c-0.1,0-0.2,0.1-0.3,0.1c-0.1,0-0.2-0.2-0.3-0.3L17.2,23.8z"
				/>
		</g>
		<g>
			<path style="fill:#CB9037;" d="M32.3,22.7c-0.2,0-0.2,0.2-0.2,0.4c0,0.2,0.1,0.4,0,0.5c-0.1,0.1-0.2,0.2-0.3,0.2
				c-0.1,0.1-0.3,0.2-0.3,0.3c0,0.1,0,0.3,0.1,0.4s0.2,0,0.3,0c0.4-0.2,0.6-0.8,1.1-0.9c0.2-0.1,0.4,0,0.7,0.1c0.5,0.1,0.9,0,1.4,0
				c0.3,0,0.6-0.1,0.7-0.4c0-0.2-0.2-0.4-0.4-0.5s-0.4,0-0.7,0c-0.2,0-0.5,0-0.6-0.1s-0.2-0.2-0.3-0.2s-0.2,0-0.2,0
				c-0.2,0.1-0.3,0.1-0.5,0.2H32.3z"/>
		</g>
		<g>
			<path style="fill:#0E0000;" d="M36.6,19.3c-0.3,0.3-0.5,0.6-0.7,0.9s-0.6,0.6-1,0.6c-0.3,0-0.5-0.1-0.8-0.3
				c-0.3-0.2-0.7-0.4-0.9-0.7c-0.2-0.3-0.2-0.6-0.1-0.9c0-0.4,0.1-0.8,0.5-1c0.4-0.3,1-0.1,1.4,0.3c0.2,0.2,0.3,0.4,0.5,0.5
				c0.2,0.2,0.4,0.3,0.7,0.2L36.6,19.3z"/>
		</g>
		<g>
			<path style="fill:#0E0000;" d="M22.9,29.1c0.2,0.3,0.5,0.6,0.8,0.8c0.3,0.3,0.5,0.7,0.4,1c0,0.3-0.2,0.5-0.4,0.7
				c-0.2,0.3-0.5,0.6-0.8,0.7s-0.6,0.1-0.9,0c-0.4-0.1-0.8-0.3-0.9-0.6c-0.2-0.5,0.1-1,0.5-1.3c0.2-0.2,0.4-0.3,0.6-0.4
				c0.2-0.2,0.3-0.4,0.3-0.6L22.9,29.1z"/>
		</g>
		<g>
			<path style="fill:#0E0000;" d="M38.3,30.8c-0.3,0.3-0.5,0.6-0.7,0.9s-0.6,0.6-1,0.6c-0.3,0-0.5-0.1-0.8-0.3s-0.7-0.4-0.9-0.7
				c-0.2-0.3-0.2-0.6-0.1-0.9c0-0.4,0.1-0.8,0.5-1c0.4-0.3,1-0.1,1.4,0.3c0.2,0.2,0.3,0.4,0.5,0.5c0.2,0.2,0.4,0.3,0.7,0.2
				L38.3,30.8z"/>
		</g>
		<g>
			<path style="fill:#0E0000;" d="M25.2,14.5c-0.5,0.2-0.8,0.8-0.9,1.4c0,0.4,0.1,0.8,0.3,1c0.3,0.3,0.7,0.4,1,0.2
				c0.4-0.2,0.5-0.8,0.6-1.3c0-0.3,0-0.5,0.1-0.8c0-0.2,0-0.4-0.1-0.5s-0.3-0.2-0.4-0.1L25.2,14.5z"/>
		</g>
		<g>
			<path style="fill:#0E0000;" d="M19.1,21.3c-0.4-0.1-0.9,0.1-1.1,0.5s-0.2,0.8,0,1.2s0.6,0.6,1,0.7c0.1,0,0.2,0,0.3,0
				c0.1,0,0.2-0.1,0.2-0.2c0.4-0.5,0.6-1,0.8-1.6c0-0.1,0-0.1,0-0.2s-0.1-0.1-0.2-0.2c-0.2-0.1-0.3-0.2-0.5-0.3L19.1,21.3z"/>
		</g>
		<g>
			<path style="fill:#0E0000;" d="M28.9,20.4c-0.4-0.1-0.9,0.1-1.1,0.5s-0.2,0.8,0,1.2c0.2,0.4,0.6,0.6,1,0.7c0.1,0,0.2,0,0.3,0
				c0.1,0,0.2-0.1,0.2-0.2c0.4-0.5,0.6-1,0.8-1.6c0-0.1,0-0.1,0-0.2s-0.1-0.1-0.2-0.2c-0.2-0.1-0.3-0.2-0.5-0.3L28.9,20.4z"/>
		</g>
		<g>
			<path style="fill:#0E0000;" d="M28.9,30.5c-0.4-0.1-0.9,0.1-1.1,0.5s-0.2,0.8,0,1.2s0.6,0.6,1,0.7c0.1,0,0.2,0,0.3,0
				c0.1,0,0.2-0.1,0.2-0.2c0.4-0.5,0.6-1,0.8-1.6c0-0.1,0-0.1,0-0.2s-0.1-0.1-0.2-0.2c-0.2-0.1-0.3-0.2-0.5-0.3L28.9,30.5z"/>
		</g>
		<g>
			<path style="fill:#0E0000;" d="M40.1,21.6c-0.4-0.1-0.9,0.1-1.1,0.5c-0.2,0.4-0.2,0.8,0,1.2s0.6,0.6,1,0.7c0.1,0,0.2,0,0.3,0
				s0.2-0.1,0.2-0.2c0.4-0.5,0.6-1,0.8-1.6c0-0.1,0-0.1,0-0.2s-0.1-0.1-0.2-0.2c-0.2-0.1-0.3-0.2-0.5-0.3L40.1,21.6z"/>
		</g>
		<g>
			<path style="fill:#0E0000;" d="M31.5,12c-0.4-0.1-0.9,0.1-1.1,0.5s-0.2,0.8,0,1.2s0.6,0.6,1,0.7c0.1,0,0.2,0,0.3,0
				c0.1,0,0.2-0.1,0.2-0.2c0.4-0.5,0.6-1,0.8-1.6c0-0.1,0-0.1,0-0.2c0-0.1-0.1-0.1-0.2-0.2c-0.2-0.1-0.3-0.2-0.5-0.3L31.5,12z"/>
		</g>
		<ellipse style="fill:#442403;" cx="22.8" cy="30.8" rx="0.9" ry="0.7"/>
		<ellipse style="fill:#442403;" cx="36.1" cy="30.4" rx="0.9" ry="0.7"/>
		<ellipse style="fill:#442403;" cx="34.3" cy="18.9" rx="0.9" ry="0.7"/>
		<ellipse style="fill:#442403;" cx="28.8" cy="31.3" rx="0.7" ry="0.3"/>
		<ellipse style="fill:#442403;" cx="28.8" cy="21" rx="0.7" ry="0.3"/>
		<ellipse style="fill:#442403;" cx="40" cy="22.2" rx="0.7" ry="0.3"/>
		<ellipse style="fill:#442403;" cx="19.1" cy="21.8" rx="0.7" ry="0.3"/>
		<ellipse style="fill:#442403;" cx="25.5" cy="15.1" rx="0.7" ry="0.3"/>
		<ellipse style="fill:#442403;" cx="31.4" cy="12.5" rx="0.7" ry="0.3"/>
	</g>
</g>
</svg>
