<?xml version="1.0" encoding="utf-8"?>
<!-- Generator: Adobe Illustrator 25.0.1, SVG Export Plug-In . SVG Version: 6.00 Build 0)  -->
<svg version="1.1" id="Ebene_1" xmlns="http://www.w3.org/2000/svg" xmlns:xlink="http://www.w3.org/1999/xlink" x="0px" y="0px"
	 viewBox="0 0 300 60" style="enable-background:new 0 0 300 60;" xml:space="preserve">
<g>
	<g>
		<g>
			<path style="fill:#1C1C1C;" d="M0,32.5h4.8V34c0,3.4,1.5,6.4,5.4,6.4c2.7,0,5.2-1.6,5.2-6.4V13.5h-5.1V9.8h13.7v3.7h-3.9v20.8
				c0,7.3-5.2,10.4-10.1,10.4S0,41.9,0,34.6C0,34.6,0,32.5,0,32.5z"/>
			<path style="fill:#1C1C1C;" d="M30.5,23.2h-4.2v-3.6h8.9v14.9c0,3.4,0.7,6.1,4.6,6.1c4.9,0,8-4.8,8-9.7v-7.7h-4.2v-3.6h8.9v19.9
				c0,0.7,0.4,1,1,1h2.5v3.6h-5.1c-2.1,0-3.1-1-3.1-2.7v-1c0-0.9,0.1-1.5,0.1-1.5H48c-0.4,1.3-3.3,5.8-9.4,5.8c-5.4,0-8-3-8-9.5v-12
				H30.5z"/>
			<path style="fill:#1C1C1C;" d="M60.2,40.6h3.6V24.2c0-0.7-0.4-1-1-1h-3.1v-3.6h5.7c2.1,0,3.1,0.9,3.1,2.8v1.5
				c0,1-0.1,1.6-0.1,1.6h0.1c1.2-3.6,4-6.4,7.7-6.4c0.6,0,1.2,0.1,1.2,0.1v4.8c0,0-0.6-0.1-1.3-0.1c-5.2,0-7.4,5.4-7.4,10.1v6.5h3.7
				v3.7h-12V40.6z"/>
			<path style="fill:#1C1C1C;" d="M119.6,19c7.3,0,13.2,5.4,13.2,12.8s-5.9,12.9-13.2,12.9c-7.3,0-13.2-5.5-13.2-12.9
				S112.3,19,119.6,19z M119.6,40.7c4.6,0,8.5-3.7,8.5-8.9c0-5.1-3.9-8.8-8.5-8.8c-4.6,0-8.5,3.7-8.5,8.8
				C111.1,37,115,40.7,119.6,40.7z"/>
			<path style="fill:#1C1C1C;" d="M139.1,13.5h-4.2V9.8h8.8v27.1c0,2.1,0.4,3.6,2.7,3.6c0.7,0,1.3,0,1.3,0v3.9c0,0-1,0.1-2.1,0.1
				c-3.6,0-6.5-1.5-6.5-7.1V13.5z"/>
			<path style="fill:#1C1C1C;" d="M154.1,23.2h-4.2v-3.6h8.9v14.9c0,3.4,0.7,6.1,4.6,6.1c4.9,0,8-4.8,8-9.7v-7.7h-4.2v-3.6h8.9v19.9
				c0,0.7,0.4,1,1,1h2.5v3.6h-5.1c-2.1,0-3.1-1-3.1-2.7v-1c0-0.9,0.1-1.5,0.1-1.5h-0.1c-0.4,1.3-3.3,5.8-9.4,5.8c-5.4,0-8-3-8-9.5
				v-12H154.1z"/>
			<path style="fill:#1C1C1C;" d="M186.1,23.2h-4.2v-3.6h4.2v-6.8h4.6v6.8h5.9v3.7h-5.9v11.6c0,5.1,3.4,5.7,5.2,5.7
				c0.7,0,1.2,0,1.2,0v4c0,0-0.7,0.1-1.6,0.1c-3.1,0-9.4-1-9.4-9.2V23.2z"/>
			<path style="fill:#1C1C1C;" d="M200.9,40.6h3.9V23.2h-4.2v-3.6h8.8v21h3.9v3.7h-12.5v-3.7H200.9z M204.7,9.8h4.9v4.8h-4.9V9.8z"
				/>
			<path style="fill:#1C1C1C;" d="M229.9,19c7.3,0,13.2,5.4,13.2,12.8s-5.9,12.9-13.2,12.9s-13.2-5.5-13.2-12.9S222.7,19,229.9,19z
				 M229.9,40.7c4.6,0,8.5-3.7,8.5-8.9c0-5.1-3.9-8.8-8.5-8.8c-4.6,0-8.5,3.7-8.5,8.8C221.5,37,225.3,40.7,229.9,40.7z"/>
			<path style="fill:#1C1C1C;" d="M247.3,40.6h3.9V24.2c0-0.7-0.4-1-1-1h-3v-3.6h5.5c2.1,0,3.1,0.9,3.1,2.7v1.3
				c0,0.7-0.1,1.3-0.1,1.3h0.1c0.4-1.3,3.4-5.9,9.7-5.9c5.7,0,8.2,3.1,8.2,9.5v12.2h3.9v3.7h-8.6V29.7c0-3.4-0.7-6.2-4.6-6.2
				c-4.9,0-8.2,4.5-8.2,9.5v7.7h3.9v3.7h-12.5v-3.9H247.3z"/>
			<path style="fill:#1C1C1C;" d="M280.5,36.2h4.2v1.6c0,2.1,3,3.1,5.7,3.1c2.8,0,4.9-1.2,4.9-3.1c0-2.5-2.7-3.3-6.1-4.5
				c-3.7-1.3-7.7-3-7.7-7.4c0-4.9,4.8-6.8,9.1-6.8c3.4,0,8.5,1.3,8.5,4.9v3h-4.2v-1.6c0-1.5-1.9-2.5-4.3-2.5c-2.4,0-4.3,1-4.3,3
				c0,2.4,2.7,3.3,5.7,4.3c3.9,1.3,8.2,2.8,8.2,7.4s-4.3,7.3-9.8,7.3c-4.5,0-9.7-1.9-9.7-5.9L280.5,36.2L280.5,36.2z"/>
		</g>
	</g>
	<path style="fill:#4A0572;" d="M109,0.3c-5.4,0-18.3,1.8-18.3,19.6v4.6v4c0,10.9-6.8,11.9-9.8,11.9c-0.9,0-1.6,0-1.6,0v8.3
		c0,0,1.2,0.1,2.7,0.1c5.4,0,18.3-1.8,18.3-19.6v-4.8v-4c0-10.9,6.8-11.9,9.8-11.9c0.9,0,1.6,0,1.6,0V0.4
		C111.7,0.4,110.5,0.3,109,0.3z"/>
	<path style="fill:#7B2CBF;" d="M82,40.4c-1.6,0-2.7,0.1-2.7,0.1v8.3c0,0,0.7,0,1.6,0c2.5,0,7.9,0.7,9.4,7.7h9.8
		C98.6,41.9,87,40.4,82,40.4z"/>
	<path style="fill:#DD0093;" d="M90.7,59.3h9.7C100,42.2,87.5,40.4,82.1,40.4c-1.6,0-2.7,0.1-2.7,0.1v8.3c0,0,0.7,0,1.6,0
		C83.7,48.9,90.1,49.9,90.7,59.3z"/>
	<g>
		<g>
			<path style="fill:#777777;" d="M252.4,49.8h1l-3.3,10h-1L252.4,49.8z"/>
			<path style="fill:#777777;" d="M257.8,49.8h1l-3.1,10h-1L257.8,49.8z"/>
			<path style="fill:#777777;" d="M264.7,50.1c1.6,0,3.4,0.6,3.4,1.8v1H267v-0.6c0-0.7-1.2-1.2-2.2-1.2c-2.1,0-3.4,1.5-3.4,3.4
				c0,2.1,1.3,3.6,3.4,3.6c0.7,0,2.4-0.3,2.4-1.2v-1.2h-1.8v-1h3v2.5c0,1.3-2.4,1.9-3.7,1.9c-2.8,0-4.6-1.9-4.6-4.6
				C260,52,261.9,50.1,264.7,50.1z"/>
			<path style="fill:#777777;" d="M269.7,58.3h1v-4.3c0-0.1-0.1-0.3-0.3-0.3h-0.7v-0.9h1.5c0.6,0,0.7,0.3,0.7,0.7v0.3
				c0,0.1,0,0.3,0,0.3l0,0c0.3-0.7,1.2-1.5,2.2-1.5c1,0,1.6,0.4,1.9,1.5l0,0c0.3-0.7,1.2-1.5,2.2-1.5c1.5,0,2.1,0.9,2.1,2.5v3.1h1
				v0.9h-2.2v-3.9c0-0.9-0.1-1.6-1.2-1.6c-1.2,0-1.9,1.2-1.9,2.5v2.1h1v0.9H275v-3.9c0-0.9-0.1-1.6-1.2-1.6c-1.2,0-1.9,1.3-1.9,2.5
				v2.1h1v0.9h-3.3V58.3z"/>
			<path style="fill:#777777;" d="M282.9,51.3h-1v-0.9h2.4v3c0,0.3,0,0.6,0,0.6l0,0c0,0,0.6-1.2,2.1-1.2c1.8,0,2.8,1.3,2.8,3.4
				c0,2.1-1.2,3.4-3,3.4c-1.5,0-2.1-1.2-2.1-1.2l0,0c0,0,0,0.3,0,0.4v0.4h-1.2V51.3z M285.9,58.3c1,0,1.8-0.9,1.8-2.2
				c0-1.3-0.7-2.2-1.8-2.2c-0.9,0-1.8,0.7-1.8,2.4C284.1,57.2,284.7,58.3,285.9,58.3z"/>
			<path style="fill:#777777;" d="M290,58.3h1.2v-7H290v-1h3.6v1h-1.2v3h4.6v-3h-1.2v-1h3.6v1h-1.2v7h1.2v1h-3.6v-1h1.2v-3h-4.6v3
				h1.2v1H290V58.3z"/>
		</g>
	</g>
</g>
</svg>
