<?xml version="1.0" encoding="utf-8"?>
<!-- Generator: Adobe Illustrator 25.0.1, SVG Export Plug-In . SVG Version: 6.00 Build 0)  -->
<svg version="1.1" id="Ebene_1" xmlns="http://www.w3.org/2000/svg" xmlns:xlink="http://www.w3.org/1999/xlink" x="0px" y="0px"
	 viewBox="0 0 43 40" style="enable-background:new 0 0 43 40;" xml:space="preserve">
<g>
	<g>
		<g>
			<g>
				<path style="fill:#1C1C1C;" d="M0.1,20.8h5.7v1.7c0,2.6,0.9,5,4.1,5c2.2,0,3.9-1.4,3.9-5v-18H9.4V0h13.7v4.5h-3.4v18.2
					c0,6.9-5,9.9-9.9,9.9c-4.8,0-9.7-2.8-9.7-9.7V20.8z"/>
			</g>
		</g>
		<g>
			<path style="fill:#7F7F7F;" d="M3,35.2h0.5L2,40H1.4L3,35.2z"/>
			<path style="fill:#7F7F7F;" d="M5.6,35.2h0.5L4.5,40H4L5.6,35.2z"/>
			<path style="fill:#7F7F7F;" d="M8.9,35.4c0.8,0,1.6,0.3,1.6,0.8v0.5H10v-0.3c0-0.4-0.6-0.5-1.1-0.5c-1,0-1.6,0.7-1.6,1.7
				c0,1,0.6,1.7,1.7,1.7c0.4,0,1.1-0.1,1.1-0.5v-0.6H9.2v-0.5h1.4v1.2c0,0.7-1.1,0.9-1.7,0.9c-1.3,0-2.2-1-2.2-2.2
				S7.6,35.4,8.9,35.4z"/>
			<path style="fill:#7F7F7F;" d="M11.3,39.3h0.5v-2c0-0.1,0-0.1-0.1-0.1h-0.4v-0.5h0.7c0.3,0,0.4,0.1,0.4,0.3v0.2
				c0,0.1,0,0.2,0,0.2h0c0.2-0.4,0.6-0.7,1.1-0.7c0.5,0,0.8,0.2,0.9,0.7h0c0.2-0.4,0.6-0.7,1.1-0.7c0.7,0,1,0.4,1,1.2v1.5h0.5v0.5
				h-1.1v-1.8c0-0.4-0.1-0.8-0.5-0.8c-0.6,0-0.9,0.6-0.9,1.2v1h0.5v0.5h-1.1v-1.8c0-0.4-0.1-0.8-0.5-0.8c-0.6,0-0.9,0.6-0.9,1.2v0.9
				h0.5v0.5h-1.6V39.3z"/>
			<path style="fill:#7F7F7F;" d="M17.6,35.9h-0.5v-0.5h1.1v1.4c0,0.1,0,0.3,0,0.3h0c0,0,0.3-0.5,1-0.5c0.8,0,1.4,0.7,1.4,1.6
				c0,1-0.6,1.6-1.4,1.6c-0.7,0-1-0.6-1-0.6h0c0,0,0,0.1,0,0.2v0.2h-0.6V35.9z M19,39.3c0.5,0,0.9-0.4,0.9-1.1
				c0-0.7-0.4-1.1-0.9-1.1c-0.5,0-0.9,0.3-0.9,1.1C18.1,38.8,18.4,39.3,19,39.3z"/>
			<path style="fill:#7F7F7F;" d="M21,39.3h0.5v-3.3H21v-0.5h1.7v0.5h-0.5v1.4h2.2v-1.4h-0.5v-0.5h1.7v0.5H25v3.3h0.5v0.5h-1.7v-0.5
				h0.5v-1.4h-2.2v1.4h0.5v0.5H21V39.3z"/>
		</g>
	</g>
	<path style="fill:#4A0572;" d="M41,0c-3.6,0-12.3,1.2-12.3,13.2v3.1l0,2.7c0,7.3-4.6,8-6.6,8c-0.6,0-1.1,0-1.1,0v5.6
		c0,0,0.8,0.1,1.8,0.1c3.6,0,12.3-1.2,12.3-13.2l0-3.2v-2.7c0-7.3,4.6-8,6.6-8c0.6,0,1.1,0,1.1,0V0.1C42.9,0.1,42.1,0,41,0z"/>
	<path style="fill:#DD0093;" d="M28.7,39.7h6.5C35,28.2,26.5,27.1,22.9,27.1c-1.1,0-1.9,0-1.9,0v5.7c0,0,0.5,0,1.1,0
		C24,32.8,28.3,33.4,28.7,39.7z"/>
</g>
</svg>
