<?xml version="1.0" encoding="utf-8"?>
<!-- Generator: Adobe Illustrator 25.0.0, SVG Export Plug-In . SVG Version: 6.00 Build 0)  -->
<svg version="1.1" id="Ebene_1" xmlns="http://www.w3.org/2000/svg" xmlns:xlink="http://www.w3.org/1999/xlink" x="0px" y="0px"
	 viewBox="0 0 200 200" style="enable-background:new 0 0 200 200;" xml:space="preserve">
<g>
	<g>
		<path style="fill:#333333;" d="M182.4,24.8H18.6C9,24.8,1.1,32.6,1.1,42.3v116.5c0,9.6,7.8,17.5,17.5,17.5h163.9
			c9.6,0,17.5-7.8,17.5-17.5V42.2C199.9,32.6,192.1,24.8,182.4,24.8z M180,36.4l-79.2,79.2L21,36.4H180z M12.7,156.3V44.6l56.1,55.6
			L12.7,156.3z M21,164.6l56.1-56.1L96.8,128c2.3,2.3,6,2.3,8.2,0l19.2-19.2l55.8,55.8H21z M188.3,156.3l-55.8-55.8l55.8-55.8V156.3
			z"/>
	</g>
</g>
</svg>
