<?xml version="1.0" encoding="utf-8"?>
<!-- Generator: Adobe Illustrator 25.0.0, SVG Export Plug-In . SVG Version: 6.00 Build 0)  -->
<svg version="1.1" id="Ebene_1" xmlns="http://www.w3.org/2000/svg" xmlns:xlink="http://www.w3.org/1999/xlink" x="0px" y="0px"
	 viewBox="0 0 200 200" style="enable-background:new 0 0 200 200;" xml:space="preserve">
<g>
	<path style="fill:#333333;" d="M142.8,0H58.2c-8.1,0-14.6,6.6-14.6,14.6v171.7c0,8.1,6.5,14.6,14.6,14.6h84.6
		c8.1,0,14.6-6.6,14.6-14.6V14.6C157.4,6.6,150.9,0,142.8,0z M79.6,8.9h41.7c1.1,0,1.9,1.6,1.9,3.5s-0.9,3.5-1.9,3.5H79.6
		c-1.1,0-1.9-1.6-1.9-3.5C77.7,10.5,78.6,8.9,79.6,8.9z M100.5,186.5c-5.1,0-9.3-4.2-9.3-9.3c0-5.2,4.2-9.3,9.3-9.3
		c5.1,0,9.3,4.2,9.3,9.3S105.6,186.5,100.5,186.5z M146.5,154.5H54.6V24.7h91.9C146.5,24.7,146.5,154.5,146.5,154.5z"/>
</g>
</svg>
