<svg version="1.0" xmlns="http://www.w3.org/2000/svg" width="933.333" height="933.333" viewBox="0 0 700 700"><path d="M151.9 26.5c-.1 1.3-.1 67.4 0 70.1l.1 2.2 35.7.1c19.6.1 35.9.3 36.1.6.8.7.5 297.9-.2 307-.7 8.3-.8 8.8-2 14.5-8 36.3-30.4 54.7-65 53.5-31.6-1.2-52-18.4-60.1-50.5-.1-.3-.5-2.8-1-5.5-.4-2.8-1-5.9-1.2-7-.4-1.5-1.1-25.4-1.3-45.3 0-.9-10-1.2-46.6-1.2H-.3l.6 29.7c.3 16.4.8 31.4 1.2 33.3 2.6 14.8 4.9 24.8 7.5 32.5 1.7 5 3.4 9.9 3.7 11 .4 1.1.9 2.2 1.2 2.5.4.3 1.7 3 3.1 6 4.6 10.2 15.8 25.7 25.6 35.5 23.3 23.3 55.6 38.1 93.1 42.8 10.6 1.4 38.1 1.5 46.8.3 61.1-8.8 106.1-42 126.4-93.2 6.5-16.4 10.2-32.7 11.6-51.6.2-2.4.4-74.2.4-159.6L321 99h55.6V62.3l-.1-36.8H264.3c-74.4 0-112.3.3-112.4 1zm497-1.1c-.2.2-3.3.7-6.9 1-17 1.8-46.3 8.2-53 11.7-.8.4-5.1 2.1-9.5 3.8-30.1 11.7-59.2 35.5-77.1 63.2-16.8 25.9-28.9 62.8-32 97.6-.3 3.7-.8 7.9-1.1 9.3-.3 1.4-.6 31.9-.8 67.8-.3 58.7-.7 78.4-1.9 86.2-.2 1.4-.8 4.7-1.2 7.5-.4 2.7-.8 5.4-1 6-.1.5-.9 4-1.8 7.7-10 42.6-37.6 70.4-77.9 78.4-6.4 1.2-24.8 2.3-41.3 2.4-.9 0-1.2 12.6-1.1 46.5 0 25.6.2 46.5.6 46.6.3 0 6.9.2 14.6.4 13.2.2 26.3 1.2 27.6 2 .3.2 1.9.6 3.5.9 5.2 1 15.8 4.6 22.4 7.8 27.8 13.4 46.6 40.1 54 76.7 1.6 8.2 3.2 20.4 3.3 24.8 0 1 11.4 1.3 53.4 1.3h53.4l-.5-8.8c-.8-13-1.9-23.9-3.1-31.3-.3-1.4-.7-4.1-.9-6-.3-1.9-1-5.9-1.6-8.9-.6-3-1.3-6.5-1.6-7.8-1.1-5.6-7.9-26.5-11.1-34.2-3.7-9-12.5-26.2-14.3-28-.3-.3-2.7-3.8-5.5-7.9-2.7-4.1-9.4-12-14.7-17.6l-9.7-10.2 7.2-7.4c17.2-17.6 30.6-39.4 39.7-64.2 3.2-9 9.3-31.8 10.4-39.2.3-2.2.7-4.9 1-6 .2-1.1.7-4.9 1.1-8.5.4-3.6.9-7.4 1.1-8.5 1-5.1 1.6-36.2 1.9-92.5.2-33.8.6-63.5.9-66 6-44.5 23.3-74.2 52.8-90.9 3.6-1.9 15.9-7.1 18.1-7.5.7-.2 3-.8 5.2-1.4 8.2-2.3 18.4-3.4 33-3.6l15-.2.3-46.1.2-46.1-3.7-.4c-4.3-.6-46.9-.9-47.4-.4z"/></svg>